M48
;DRILL file {KiCad 5.0.2+dfsg1-1~bpo9+1} date Sat 13 Apr 2019 12:23:56 PM MSK
;FORMAT={-:-/ absolute / inch / decimal}
FMAT,2
INCH,TZ
T1C0.0118
%
G90
G05
T1
X4.1394Y-4.15
X4.1394Y-4.19
X4.259Y-3.677
X4.259Y-4.437
X4.269Y-3.827
X4.269Y-4.287
X4.309Y-3.597
X4.319Y-3.927
X4.319Y-4.587
X4.329Y-4.187
X4.389Y-3.497
X4.409Y-4.117
X4.419Y-4.677
X4.519Y-3.447
X4.519Y-4.117
X4.519Y-4.687
X4.649Y-4.117
X4.659Y-3.447
X4.709Y-4.757
X4.769Y-4.117
X4.83Y-3.4738
X4.839Y-4.117
X4.839Y-4.657
X4.899Y-4.117
X4.939Y-3.587
X4.939Y-3.717
X4.939Y-3.827
X4.939Y-3.967
X4.939Y-4.297
X4.939Y-4.427
X4.939Y-4.547
X4.941Y-4.177
X4.999Y-4.727
X5.019Y-4.117
X5.029Y-3.507
X5.129Y-3.447
X5.149Y-4.117
X5.169Y-4.767
X5.269Y-4.117
X5.279Y-3.447
X5.319Y-4.757
X5.389Y-3.397
X5.399Y-4.117
X5.459Y-4.677
X5.509Y-4.117
X5.529Y-4.017
X5.529Y-4.537
X5.579Y-3.577
X5.579Y-3.637
X5.579Y-3.787
X5.579Y-4.247
X5.579Y-4.397
X5.726Y-4.3309
X5.76Y-4.775
X5.77Y-3.505
X5.77Y-3.535
X5.77Y-3.565
X5.77Y-3.595
X5.77Y-3.625
X5.77Y-3.655
X5.77Y-3.685
X5.77Y-3.715
X5.845Y-4.255
X5.86Y-3.86
X5.865Y-4.17
X5.88Y-4.255
X5.92Y-4.28
X5.9252Y-4.3898
X5.955Y-4.28
X5.99Y-4.28
X6.025Y-4.28
X6.06Y-4.28
X6.14Y-3.86
X6.165Y-3.425
X6.32Y-4.775
X6.3583Y-4.3898
X6.47Y-3.2472
X6.47Y-3.32
X6.47Y-4.1692
X6.5Y-3.2472
X6.5Y-3.32
X6.51Y-4.1692
X6.5491Y-4.1682
X6.67Y-3.7622
X6.7913Y-4.3898
X6.835Y-4.775
X6.85Y-3.59
X6.93Y-4.115
X6.96Y-3.685
X6.98Y-3.78
X6.98Y-3.85
X6.98Y-3.9
X7.005Y-3.36
X7.01Y-3.76
X7.01Y-3.83
X7.01Y-3.88
X7.04Y-3.69
X7.1417Y-3.2472
X7.15Y-3.67
X7.16Y-3.4
X7.18Y-3.67
X7.2Y-3.4
X7.21Y-3.67
X7.2244Y-4.3898
X7.24Y-3.4
X7.24Y-3.73
X7.24Y-3.785
X7.24Y-3.84
X7.28Y-3.4
X7.32Y-3.4
X7.39Y-4.35
X7.39Y-4.775
T0
M30
