G04 #@! TF.GenerationSoftware,KiCad,Pcbnew,5.0.2+dfsg1-1~bpo9+1*
G04 #@! TF.CreationDate,2019-04-10T18:13:28+03:00*
G04 #@! TF.ProjectId,kicad,6b696361-642e-46b6-9963-61645f706362,rev?*
G04 #@! TF.SameCoordinates,Original*
G04 #@! TF.FileFunction,Copper,L1,Top*
G04 #@! TF.FilePolarity,Positive*
%FSLAX46Y46*%
G04 Gerber Fmt 4.6, Leading zero omitted, Abs format (unit mm)*
G04 Created by KiCad (PCBNEW 5.0.2+dfsg1-1~bpo9+1) date Wed 10 Apr 2019 06:13:28 PM MSK*
%MOMM*%
%LPD*%
G01*
G04 APERTURE LIST*
G04 #@! TA.AperFunction,Conductor*
%ADD10C,8.000000*%
G04 #@! TD*
G04 #@! TA.AperFunction,SMDPad,CuDef*
%ADD11R,0.850000X0.650000*%
G04 #@! TD*
G04 #@! TA.AperFunction,Conductor*
%ADD12C,2.333333*%
G04 #@! TD*
G04 #@! TA.AperFunction,Conductor*
%ADD13C,0.100000*%
G04 #@! TD*
G04 #@! TA.AperFunction,ViaPad*
%ADD14C,0.600000*%
G04 #@! TD*
G04 #@! TA.AperFunction,Conductor*
%ADD15C,0.254000*%
G04 #@! TD*
G04 #@! TA.AperFunction,Conductor*
%ADD16C,0.508000*%
G04 #@! TD*
G04 #@! TA.AperFunction,Conductor*
%ADD17C,0.152400*%
G04 #@! TD*
G04 APERTURE END LIST*
D10*
G04 #@! TO.N,TOUCH_PAD3*
G04 #@! TO.C,TS4*
X183500000Y-115000000D03*
G04 #@! TD*
G04 #@! TO.N,TOUCH_PAD2*
G04 #@! TO.C,TS3*
X172500000Y-115000000D03*
G04 #@! TD*
G04 #@! TO.N,TOUCH_PAD1*
G04 #@! TO.C,TS2*
X161500000Y-115000000D03*
G04 #@! TD*
G04 #@! TO.N,TOUCH_PAD0*
G04 #@! TO.C,TS1*
X150500000Y-115000000D03*
G04 #@! TD*
D11*
G04 #@! TO.P,D49,1*
G04 #@! TO.N,LED_A8*
X122984000Y-102926000D03*
G04 #@! TO.P,D49,2*
X122984000Y-103776000D03*
G04 #@! TO.P,D49,4*
G04 #@! TO.N,LED_K1*
X124434000Y-103776000D03*
G04 #@! TO.P,D49,3*
G04 #@! TO.N,LED_K0*
X124434000Y-102926000D03*
G04 #@! TD*
G04 #@! TO.P,D48,1*
G04 #@! TO.N,LED_A7*
X138492852Y-100426333D03*
G04 #@! TO.P,D48,2*
G04 #@! TO.N,LED_A6*
X138492852Y-101276333D03*
G04 #@! TO.P,D48,4*
G04 #@! TO.N,LED_K11*
X139942852Y-101276333D03*
G04 #@! TO.P,D48,3*
X139942852Y-100426333D03*
G04 #@! TD*
G04 #@! TO.P,D47,1*
G04 #@! TO.N,LED_A5*
X120484333Y-87417147D03*
G04 #@! TO.P,D47,2*
G04 #@! TO.N,LED_A4*
X120484333Y-88267147D03*
G04 #@! TO.P,D47,4*
G04 #@! TO.N,LED_K11*
X121934333Y-88267147D03*
G04 #@! TO.P,D47,3*
X121934333Y-87417147D03*
G04 #@! TD*
G04 #@! TO.P,D46,1*
G04 #@! TO.N,LED_A3*
X107475147Y-105425666D03*
G04 #@! TO.P,D46,2*
G04 #@! TO.N,LED_A2*
X107475147Y-106275666D03*
G04 #@! TO.P,D46,4*
G04 #@! TO.N,LED_K11*
X108925147Y-106275666D03*
G04 #@! TO.P,D46,3*
X108925147Y-105425666D03*
G04 #@! TD*
G04 #@! TO.P,D45,1*
G04 #@! TO.N,LED_A1*
X125483666Y-118434852D03*
G04 #@! TO.P,D45,2*
G04 #@! TO.N,LED_A0*
X125483666Y-119284852D03*
G04 #@! TO.P,D45,4*
G04 #@! TO.N,LED_K11*
X126933666Y-119284852D03*
G04 #@! TO.P,D45,3*
X126933666Y-118434852D03*
G04 #@! TD*
G04 #@! TO.P,D44,1*
G04 #@! TO.N,LED_A7*
X140081919Y-97018568D03*
G04 #@! TO.P,D44,2*
G04 #@! TO.N,LED_A6*
X140081919Y-97868568D03*
G04 #@! TO.P,D44,4*
G04 #@! TO.N,LED_K10*
X141531919Y-97868568D03*
G04 #@! TO.P,D44,3*
X141531919Y-97018568D03*
G04 #@! TD*
G04 #@! TO.P,D43,1*
G04 #@! TO.N,LED_A5*
X117076568Y-85828080D03*
G04 #@! TO.P,D43,2*
G04 #@! TO.N,LED_A4*
X117076568Y-86678080D03*
G04 #@! TO.P,D43,4*
G04 #@! TO.N,LED_K10*
X118526568Y-86678080D03*
G04 #@! TO.P,D43,3*
X118526568Y-85828080D03*
G04 #@! TD*
G04 #@! TO.P,D42,1*
G04 #@! TO.N,LED_A3*
X105886080Y-108833431D03*
G04 #@! TO.P,D42,2*
G04 #@! TO.N,LED_A2*
X105886080Y-109683431D03*
G04 #@! TO.P,D42,4*
G04 #@! TO.N,LED_K10*
X107336080Y-109683431D03*
G04 #@! TO.P,D42,3*
X107336080Y-108833431D03*
G04 #@! TD*
G04 #@! TO.P,D41,1*
G04 #@! TO.N,LED_A1*
X128891431Y-120023919D03*
G04 #@! TO.P,D41,2*
G04 #@! TO.N,LED_A0*
X128891431Y-120873919D03*
G04 #@! TO.P,D41,4*
G04 #@! TO.N,LED_K10*
X130341431Y-120873919D03*
G04 #@! TO.P,D41,3*
X130341431Y-120023919D03*
G04 #@! TD*
G04 #@! TO.P,D40,1*
G04 #@! TO.N,LED_A7*
X140191279Y-93260107D03*
G04 #@! TO.P,D40,2*
G04 #@! TO.N,LED_A6*
X140191279Y-94110107D03*
G04 #@! TO.P,D40,4*
G04 #@! TO.N,LED_K9*
X141641279Y-94110107D03*
G04 #@! TO.P,D40,3*
X141641279Y-93260107D03*
G04 #@! TD*
G04 #@! TO.P,D39,1*
G04 #@! TO.N,LED_A5*
X113318107Y-85718720D03*
G04 #@! TO.P,D39,2*
G04 #@! TO.N,LED_A4*
X113318107Y-86568720D03*
G04 #@! TO.P,D39,4*
G04 #@! TO.N,LED_K9*
X114768107Y-86568720D03*
G04 #@! TO.P,D39,3*
X114768107Y-85718720D03*
G04 #@! TD*
G04 #@! TO.P,D38,1*
G04 #@! TO.N,LED_A3*
X105776720Y-112591892D03*
G04 #@! TO.P,D38,2*
G04 #@! TO.N,LED_A2*
X105776720Y-113441892D03*
G04 #@! TO.P,D38,4*
G04 #@! TO.N,LED_K9*
X107226720Y-113441892D03*
G04 #@! TO.P,D38,3*
X107226720Y-112591892D03*
G04 #@! TD*
G04 #@! TO.P,D37,1*
G04 #@! TO.N,LED_A1*
X132649892Y-120133279D03*
G04 #@! TO.P,D37,2*
G04 #@! TO.N,LED_A0*
X132649892Y-120983279D03*
G04 #@! TO.P,D37,4*
G04 #@! TO.N,LED_K9*
X134099892Y-120983279D03*
G04 #@! TO.P,D37,3*
X134099892Y-120133279D03*
G04 #@! TD*
G04 #@! TO.P,D36,1*
G04 #@! TO.N,LED_A7*
X138803045Y-89765712D03*
G04 #@! TO.P,D36,2*
G04 #@! TO.N,LED_A6*
X138803045Y-90615712D03*
G04 #@! TO.P,D36,4*
G04 #@! TO.N,LED_K8*
X140253045Y-90615712D03*
G04 #@! TO.P,D36,3*
X140253045Y-89765712D03*
G04 #@! TD*
G04 #@! TO.P,D35,1*
G04 #@! TO.N,LED_A5*
X109823712Y-87106954D03*
G04 #@! TO.P,D35,2*
G04 #@! TO.N,LED_A4*
X109823712Y-87956954D03*
G04 #@! TO.P,D35,4*
G04 #@! TO.N,LED_K8*
X111273712Y-87956954D03*
G04 #@! TO.P,D35,3*
X111273712Y-87106954D03*
G04 #@! TD*
G04 #@! TO.P,D34,1*
G04 #@! TO.N,LED_A3*
X107164954Y-116086287D03*
G04 #@! TO.P,D34,2*
G04 #@! TO.N,LED_A2*
X107164954Y-116936287D03*
G04 #@! TO.P,D34,4*
G04 #@! TO.N,LED_K8*
X108614954Y-116936287D03*
G04 #@! TO.P,D34,3*
X108614954Y-116086287D03*
G04 #@! TD*
G04 #@! TO.P,D33,1*
G04 #@! TO.N,LED_A1*
X136144287Y-118745045D03*
G04 #@! TO.P,D33,2*
G04 #@! TO.N,LED_A0*
X136144287Y-119595045D03*
G04 #@! TO.P,D33,4*
G04 #@! TO.N,LED_K8*
X137594287Y-119595045D03*
G04 #@! TO.P,D33,3*
X137594287Y-118745045D03*
G04 #@! TD*
G04 #@! TO.P,D32,1*
G04 #@! TO.N,LED_A7*
X136144287Y-87106954D03*
G04 #@! TO.P,D32,2*
G04 #@! TO.N,LED_A6*
X136144287Y-87956954D03*
G04 #@! TO.P,D32,4*
G04 #@! TO.N,LED_K7*
X137594287Y-87956954D03*
G04 #@! TO.P,D32,3*
X137594287Y-87106954D03*
G04 #@! TD*
G04 #@! TO.P,D31,1*
G04 #@! TO.N,LED_A5*
X107164954Y-89765712D03*
G04 #@! TO.P,D31,2*
G04 #@! TO.N,LED_A4*
X107164954Y-90615712D03*
G04 #@! TO.P,D31,4*
G04 #@! TO.N,LED_K7*
X108614954Y-90615712D03*
G04 #@! TO.P,D31,3*
X108614954Y-89765712D03*
G04 #@! TD*
G04 #@! TO.P,D30,1*
G04 #@! TO.N,LED_A3*
X109823712Y-118745045D03*
G04 #@! TO.P,D30,2*
G04 #@! TO.N,LED_A2*
X109823712Y-119595045D03*
G04 #@! TO.P,D30,4*
G04 #@! TO.N,LED_K7*
X111273712Y-119595045D03*
G04 #@! TO.P,D30,3*
X111273712Y-118745045D03*
G04 #@! TD*
G04 #@! TO.P,D29,1*
G04 #@! TO.N,LED_A1*
X138803045Y-116086287D03*
G04 #@! TO.P,D29,2*
G04 #@! TO.N,LED_A0*
X138803045Y-116936287D03*
G04 #@! TO.P,D29,4*
G04 #@! TO.N,LED_K7*
X140253045Y-116936287D03*
G04 #@! TO.P,D29,3*
X140253045Y-116086287D03*
G04 #@! TD*
G04 #@! TO.P,D28,1*
G04 #@! TO.N,LED_A7*
X132649892Y-85718720D03*
G04 #@! TO.P,D28,2*
G04 #@! TO.N,LED_A6*
X132649892Y-86568720D03*
G04 #@! TO.P,D28,4*
G04 #@! TO.N,LED_K6*
X134099892Y-86568720D03*
G04 #@! TO.P,D28,3*
X134099892Y-85718720D03*
G04 #@! TD*
G04 #@! TO.P,D27,1*
G04 #@! TO.N,LED_A5*
X105776720Y-93260107D03*
G04 #@! TO.P,D27,2*
G04 #@! TO.N,LED_A4*
X105776720Y-94110107D03*
G04 #@! TO.P,D27,4*
G04 #@! TO.N,LED_K6*
X107226720Y-94110107D03*
G04 #@! TO.P,D27,3*
X107226720Y-93260107D03*
G04 #@! TD*
G04 #@! TO.P,D26,1*
G04 #@! TO.N,LED_A3*
X113318107Y-120133279D03*
G04 #@! TO.P,D26,2*
G04 #@! TO.N,LED_A2*
X113318107Y-120983279D03*
G04 #@! TO.P,D26,4*
G04 #@! TO.N,LED_K6*
X114768107Y-120983279D03*
G04 #@! TO.P,D26,3*
X114768107Y-120133279D03*
G04 #@! TD*
G04 #@! TO.P,D25,1*
G04 #@! TO.N,LED_A1*
X140191279Y-112591892D03*
G04 #@! TO.P,D25,2*
G04 #@! TO.N,LED_A0*
X140191279Y-113441892D03*
G04 #@! TO.P,D25,4*
G04 #@! TO.N,LED_K6*
X141641279Y-113441892D03*
G04 #@! TO.P,D25,3*
X141641279Y-112591892D03*
G04 #@! TD*
G04 #@! TO.P,D24,1*
G04 #@! TO.N,LED_A6*
X128891431Y-85828080D03*
G04 #@! TO.P,D24,2*
G04 #@! TO.N,LED_A7*
X128891431Y-86678080D03*
G04 #@! TO.P,D24,4*
G04 #@! TO.N,LED_K5*
X130341431Y-86678080D03*
G04 #@! TO.P,D24,3*
X130341431Y-85828080D03*
G04 #@! TD*
G04 #@! TO.P,D23,1*
G04 #@! TO.N,LED_A4*
X105886080Y-97018568D03*
G04 #@! TO.P,D23,2*
G04 #@! TO.N,LED_A5*
X105886080Y-97868568D03*
G04 #@! TO.P,D23,4*
G04 #@! TO.N,LED_K5*
X107336080Y-97868568D03*
G04 #@! TO.P,D23,3*
X107336080Y-97018568D03*
G04 #@! TD*
G04 #@! TO.P,D22,1*
G04 #@! TO.N,LED_A2*
X117076568Y-120023919D03*
G04 #@! TO.P,D22,2*
G04 #@! TO.N,LED_A3*
X117076568Y-120873919D03*
G04 #@! TO.P,D22,4*
G04 #@! TO.N,LED_K5*
X118526568Y-120873919D03*
G04 #@! TO.P,D22,3*
X118526568Y-120023919D03*
G04 #@! TD*
G04 #@! TO.P,D21,1*
G04 #@! TO.N,LED_A0*
X140081919Y-108833431D03*
G04 #@! TO.P,D21,2*
G04 #@! TO.N,LED_A1*
X140081919Y-109683431D03*
G04 #@! TO.P,D21,4*
G04 #@! TO.N,LED_K5*
X141531919Y-109683431D03*
G04 #@! TO.P,D21,3*
X141531919Y-108833431D03*
G04 #@! TD*
G04 #@! TO.P,D20,1*
G04 #@! TO.N,LED_A6*
X125483666Y-87417147D03*
G04 #@! TO.P,D20,2*
G04 #@! TO.N,LED_A7*
X125483666Y-88267147D03*
G04 #@! TO.P,D20,4*
G04 #@! TO.N,LED_K4*
X126933666Y-88267147D03*
G04 #@! TO.P,D20,3*
X126933666Y-87417147D03*
G04 #@! TD*
G04 #@! TO.P,D19,1*
G04 #@! TO.N,LED_A4*
X107475147Y-100426333D03*
G04 #@! TO.P,D19,2*
G04 #@! TO.N,LED_A5*
X107475147Y-101276333D03*
G04 #@! TO.P,D19,4*
G04 #@! TO.N,LED_K4*
X108925147Y-101276333D03*
G04 #@! TO.P,D19,3*
X108925147Y-100426333D03*
G04 #@! TD*
G04 #@! TO.P,D18,1*
G04 #@! TO.N,LED_A2*
X120484333Y-118434852D03*
G04 #@! TO.P,D18,2*
G04 #@! TO.N,LED_A3*
X120484333Y-119284852D03*
G04 #@! TO.P,D18,4*
G04 #@! TO.N,LED_K4*
X121934333Y-119284852D03*
G04 #@! TO.P,D18,3*
X121934333Y-118434852D03*
G04 #@! TD*
G04 #@! TO.P,D17,1*
G04 #@! TO.N,LED_A0*
X138492852Y-105425666D03*
G04 #@! TO.P,D17,2*
G04 #@! TO.N,LED_A1*
X138492852Y-106275666D03*
G04 #@! TO.P,D17,4*
G04 #@! TO.N,LED_K4*
X139942852Y-106275666D03*
G04 #@! TO.P,D17,3*
X139942852Y-105425666D03*
G04 #@! TD*
G04 #@! TO.P,D16,1*
G04 #@! TO.N,LED_A6*
X122984000Y-90226000D03*
G04 #@! TO.P,D16,2*
G04 #@! TO.N,LED_A7*
X122984000Y-91076000D03*
G04 #@! TO.P,D16,4*
G04 #@! TO.N,LED_K3*
X124434000Y-91076000D03*
G04 #@! TO.P,D16,3*
X124434000Y-90226000D03*
G04 #@! TD*
G04 #@! TO.P,D15,1*
G04 #@! TO.N,LED_A4*
X110284000Y-102926000D03*
G04 #@! TO.P,D15,2*
G04 #@! TO.N,LED_A5*
X110284000Y-103776000D03*
G04 #@! TO.P,D15,4*
G04 #@! TO.N,LED_K3*
X111734000Y-103776000D03*
G04 #@! TO.P,D15,3*
X111734000Y-102926000D03*
G04 #@! TD*
G04 #@! TO.P,D14,1*
G04 #@! TO.N,LED_A2*
X122984000Y-115626000D03*
G04 #@! TO.P,D14,2*
G04 #@! TO.N,LED_A3*
X122984000Y-116476000D03*
G04 #@! TO.P,D14,4*
G04 #@! TO.N,LED_K3*
X124434000Y-116476000D03*
G04 #@! TO.P,D14,3*
X124434000Y-115626000D03*
G04 #@! TD*
G04 #@! TO.P,D13,1*
G04 #@! TO.N,LED_A0*
X135684000Y-102926000D03*
G04 #@! TO.P,D13,2*
G04 #@! TO.N,LED_A1*
X135684000Y-103776000D03*
G04 #@! TO.P,D13,4*
G04 #@! TO.N,LED_K3*
X137134000Y-103776000D03*
G04 #@! TO.P,D13,3*
X137134000Y-102926000D03*
G04 #@! TD*
G04 #@! TO.P,D12,1*
G04 #@! TO.N,LED_A6*
X122984000Y-93401000D03*
G04 #@! TO.P,D12,2*
G04 #@! TO.N,LED_A7*
X122984000Y-94251000D03*
G04 #@! TO.P,D12,4*
G04 #@! TO.N,LED_K2*
X124434000Y-94251000D03*
G04 #@! TO.P,D12,3*
X124434000Y-93401000D03*
G04 #@! TD*
G04 #@! TO.P,D11,1*
G04 #@! TO.N,LED_A4*
X113459000Y-102926000D03*
G04 #@! TO.P,D11,2*
G04 #@! TO.N,LED_A5*
X113459000Y-103776000D03*
G04 #@! TO.P,D11,4*
G04 #@! TO.N,LED_K2*
X114909000Y-103776000D03*
G04 #@! TO.P,D11,3*
X114909000Y-102926000D03*
G04 #@! TD*
G04 #@! TO.P,D10,1*
G04 #@! TO.N,LED_A2*
X122984000Y-112450999D03*
G04 #@! TO.P,D10,2*
G04 #@! TO.N,LED_A3*
X122984000Y-113300999D03*
G04 #@! TO.P,D10,4*
G04 #@! TO.N,LED_K2*
X124434000Y-113300999D03*
G04 #@! TO.P,D10,3*
X124434000Y-112450999D03*
G04 #@! TD*
G04 #@! TO.P,D9,1*
G04 #@! TO.N,LED_A0*
X132509000Y-102926000D03*
G04 #@! TO.P,D9,2*
G04 #@! TO.N,LED_A1*
X132509000Y-103776000D03*
G04 #@! TO.P,D9,4*
G04 #@! TO.N,LED_K2*
X133959000Y-103776000D03*
G04 #@! TO.P,D9,3*
X133959000Y-102926000D03*
G04 #@! TD*
G04 #@! TO.P,D8,1*
G04 #@! TO.N,LED_A6*
X122984000Y-96576000D03*
G04 #@! TO.P,D8,2*
G04 #@! TO.N,LED_A7*
X122984000Y-97426000D03*
G04 #@! TO.P,D8,4*
G04 #@! TO.N,LED_K1*
X124434000Y-97426000D03*
G04 #@! TO.P,D8,3*
X124434000Y-96576000D03*
G04 #@! TD*
G04 #@! TO.P,D7,1*
G04 #@! TO.N,LED_A4*
X116634000Y-102926000D03*
G04 #@! TO.P,D7,2*
G04 #@! TO.N,LED_A5*
X116634000Y-103776000D03*
G04 #@! TO.P,D7,4*
G04 #@! TO.N,LED_K1*
X118084000Y-103776000D03*
G04 #@! TO.P,D7,3*
X118084000Y-102926000D03*
G04 #@! TD*
G04 #@! TO.P,D6,1*
G04 #@! TO.N,LED_A2*
X122984000Y-109276000D03*
G04 #@! TO.P,D6,2*
G04 #@! TO.N,LED_A3*
X122984000Y-110126000D03*
G04 #@! TO.P,D6,4*
G04 #@! TO.N,LED_K1*
X124434000Y-110126000D03*
G04 #@! TO.P,D6,3*
X124434000Y-109276000D03*
G04 #@! TD*
G04 #@! TO.P,D5,1*
G04 #@! TO.N,LED_A0*
X129334000Y-102926000D03*
G04 #@! TO.P,D5,2*
G04 #@! TO.N,LED_A1*
X129334000Y-103776000D03*
G04 #@! TO.P,D5,4*
G04 #@! TO.N,LED_K1*
X130784000Y-103776000D03*
G04 #@! TO.P,D5,3*
X130784000Y-102926000D03*
G04 #@! TD*
G04 #@! TO.P,D4,1*
G04 #@! TO.N,LED_A6*
X122984000Y-99751000D03*
G04 #@! TO.P,D4,2*
G04 #@! TO.N,LED_A7*
X122984000Y-100601000D03*
G04 #@! TO.P,D4,4*
G04 #@! TO.N,LED_K0*
X124434000Y-100601000D03*
G04 #@! TO.P,D4,3*
X124434000Y-99751000D03*
G04 #@! TD*
G04 #@! TO.P,D3,1*
G04 #@! TO.N,LED_A4*
X119809000Y-102926000D03*
G04 #@! TO.P,D3,2*
G04 #@! TO.N,LED_A5*
X119809000Y-103776000D03*
G04 #@! TO.P,D3,4*
G04 #@! TO.N,LED_K0*
X121259000Y-103776000D03*
G04 #@! TO.P,D3,3*
X121259000Y-102926000D03*
G04 #@! TD*
G04 #@! TO.P,D2,1*
G04 #@! TO.N,LED_A2*
X122984000Y-106101000D03*
G04 #@! TO.P,D2,2*
G04 #@! TO.N,LED_A3*
X122984000Y-106951000D03*
G04 #@! TO.P,D2,4*
G04 #@! TO.N,LED_K0*
X124434000Y-106951000D03*
G04 #@! TO.P,D2,3*
X124434000Y-106101000D03*
G04 #@! TD*
G04 #@! TO.P,D1,1*
G04 #@! TO.N,LED_A0*
X126159000Y-102926000D03*
G04 #@! TO.P,D1,2*
G04 #@! TO.N,LED_A1*
X126159000Y-103776000D03*
G04 #@! TO.P,D1,4*
G04 #@! TO.N,LED_K0*
X127609000Y-103776000D03*
G04 #@! TO.P,D1,3*
X127609000Y-102926000D03*
G04 #@! TD*
D12*
G04 #@! TO.N,N$20*
G04 #@! TO.C,TS5*
X147500000Y-124500000D03*
D13*
G36*
X149000000Y-121229421D02*
X158640237Y-122166667D01*
X149000000Y-123103912D01*
X149000000Y-123562755D01*
X158640237Y-124500000D01*
X149000000Y-125437245D01*
X149000000Y-125896088D01*
X158640237Y-126833333D01*
X149000000Y-127770579D01*
X149000000Y-128000000D01*
X146000000Y-128000000D01*
X146000000Y-121000000D01*
X149000000Y-121000000D01*
X149000000Y-121229421D01*
X149000000Y-121229421D01*
G37*
D12*
G04 #@! TO.N,N$21*
X160476341Y-124500000D03*
D13*
G36*
X162047319Y-121229421D02*
X171687555Y-122166667D01*
X162047319Y-123103912D01*
X162047319Y-123562755D01*
X171687555Y-124500000D01*
X162047319Y-125437245D01*
X162047319Y-125896088D01*
X171687555Y-126833333D01*
X162047319Y-127770579D01*
X162047319Y-128000000D01*
X149265127Y-128000000D01*
X158905363Y-127062755D01*
X158905363Y-126603912D01*
X149265127Y-125666667D01*
X158905363Y-124729421D01*
X158905363Y-124270579D01*
X149265127Y-123333333D01*
X158905363Y-122396088D01*
X158905363Y-121937245D01*
X149265127Y-121000000D01*
X162047319Y-121000000D01*
X162047319Y-121229421D01*
X162047319Y-121229421D01*
G37*
D12*
G04 #@! TO.N,N$22*
X173523659Y-124500000D03*
D13*
G36*
X175094637Y-121229421D02*
X184734873Y-122166667D01*
X175094637Y-123103912D01*
X175094637Y-123562755D01*
X184734873Y-124500000D01*
X175094637Y-125437245D01*
X175094637Y-125896088D01*
X184734873Y-126833333D01*
X175094637Y-127770579D01*
X175094637Y-128000000D01*
X162312445Y-128000000D01*
X171952681Y-127062755D01*
X171952681Y-126603912D01*
X162312445Y-125666667D01*
X171952681Y-124729421D01*
X171952681Y-124270579D01*
X162312445Y-123333333D01*
X171952681Y-122396088D01*
X171952681Y-121937245D01*
X162312445Y-121000000D01*
X175094637Y-121000000D01*
X175094637Y-121229421D01*
X175094637Y-121229421D01*
G37*
D12*
G04 #@! TO.N,N$23*
X186500000Y-124500000D03*
D13*
G36*
X188000000Y-128000000D02*
X175359763Y-128000000D01*
X185000000Y-127062755D01*
X185000000Y-126603912D01*
X175359763Y-125666667D01*
X185000000Y-124729421D01*
X185000000Y-124270579D01*
X175359763Y-123333333D01*
X185000000Y-122396088D01*
X185000000Y-121937245D01*
X175359763Y-121000000D01*
X188000000Y-121000000D01*
X188000000Y-128000000D01*
X188000000Y-128000000D01*
G37*
G04 #@! TD*
D14*
G04 #@! TO.N,LED_K0*
X125501800Y-106095000D03*
X125451000Y-100761000D03*
X121133000Y-104571000D03*
X127483000Y-104571000D03*
G04 #@! TO.N,LED_K1*
X130785000Y-104571000D03*
X125451000Y-109143000D03*
X118085000Y-104571000D03*
X124435000Y-104571000D03*
X125451000Y-97205000D03*
G04 #@! TO.N,LED_A0*
X164338000Y-84328000D03*
G04 #@! TO.N,LED_K3*
X137135000Y-104571000D03*
X125451000Y-115493000D03*
X125451000Y-91109000D03*
X111989000Y-104571000D03*
G04 #@! TO.N,LED_K2*
X133833000Y-104571000D03*
X125451000Y-112445000D03*
X125451000Y-94411000D03*
X114783000Y-104571000D03*
G04 #@! TO.N,LED_K4*
X139929000Y-104571000D03*
X127737000Y-89077000D03*
X109703000Y-99745000D03*
X122911000Y-118287000D03*
G04 #@! TO.N,LED_K5*
X130277000Y-87553000D03*
X141707000Y-107873000D03*
X108433000Y-97205000D03*
X119609000Y-120827000D03*
G04 #@! TO.N,LED_K7*
X140437000Y-115239000D03*
X109449000Y-91363000D03*
X112243000Y-118795000D03*
X136881000Y-86283000D03*
G04 #@! TO.N,LED_K6*
X134087000Y-87553000D03*
X141707000Y-111683000D03*
X108179000Y-93395000D03*
X114783000Y-119049000D03*
G04 #@! TO.N,LED_K8*
X111481000Y-88823000D03*
X138659000Y-118795000D03*
X109703000Y-116509000D03*
X141707000Y-90855000D03*
G04 #@! TO.N,LED_A1*
X165100000Y-84328000D03*
G04 #@! TO.N,LED_A2*
X105140561Y-106426000D03*
G04 #@! TO.N,LED_A3*
X105140561Y-105410000D03*
G04 #@! TO.N,LED_A4*
X164338000Y-82478600D03*
G04 #@! TO.N,LED_A5*
X165100000Y-82478600D03*
G04 #@! TO.N,LED_A6*
X183896000Y-86360000D03*
G04 #@! TO.N,LED_A7*
X184912000Y-86360000D03*
G04 #@! TO.N,LED_A8*
X122911000Y-104571000D03*
X158623000Y-88074500D03*
X182880000Y-86360000D03*
G04 #@! TO.N,VDD*
X155956691Y-98043309D03*
X148844000Y-98044000D03*
G04 #@! TO.N,GND*
X146558000Y-93599000D03*
X146558000Y-92075000D03*
X146558000Y-90551000D03*
X146558000Y-89027000D03*
X173990000Y-91186000D03*
X169418000Y-95560000D03*
X145732500Y-107188000D03*
X177927000Y-85344000D03*
X181864000Y-86360000D03*
X176022000Y-104521000D03*
X146558000Y-94361000D03*
X146558000Y-92837000D03*
X146558000Y-91313000D03*
X146558000Y-89789000D03*
X183896000Y-94742000D03*
X183896000Y-97536000D03*
X183896000Y-96139000D03*
X176784000Y-93599000D03*
G04 #@! TO.N,N$13*
X178816000Y-93726000D03*
X153924000Y-108712000D03*
G04 #@! TO.N,N$14*
X177292000Y-97790000D03*
X150368000Y-108712000D03*
G04 #@! TO.N,N$5*
X185928000Y-86360000D03*
X181400000Y-82478600D03*
G04 #@! TO.N,N$19*
X177292000Y-96012000D03*
X152146000Y-108712000D03*
G04 #@! TO.N,N$20*
X146304000Y-121285000D03*
G04 #@! TO.N,N$16*
X178054000Y-98552000D03*
X149352000Y-108077000D03*
G04 #@! TO.N,N$15*
X178054000Y-97282000D03*
X151257000Y-108712000D03*
G04 #@! TO.N,N$17*
X177292000Y-99060000D03*
X148463000Y-108077000D03*
G04 #@! TO.N,N$18*
X178054000Y-95504000D03*
X153035000Y-108712000D03*
G04 #@! TO.N,TOUCH_PAD0*
X150500000Y-111500000D03*
G04 #@! TO.N,TOUCH_PAD1*
X161500000Y-111500000D03*
G04 #@! TO.N,TOUCH_PAD2*
X172500000Y-111500000D03*
G04 #@! TO.N,TOUCH_PAD3*
X183500000Y-111500000D03*
G04 #@! TO.N,N$21*
X160528000Y-121285000D03*
G04 #@! TO.N,N$22*
X173609000Y-121285000D03*
G04 #@! TO.N,N$23*
X187706000Y-121285000D03*
G04 #@! TO.N,N$8*
X166346043Y-105873443D03*
X181610000Y-93218000D03*
G04 #@! TO.N,N$10*
X165354000Y-105897400D03*
X182372000Y-93218000D03*
G04 #@! TO.N,N$9*
X164338000Y-105897400D03*
X183134000Y-93218000D03*
G04 #@! TO.N,LED_K9*
X141707000Y-92379000D03*
X108179000Y-112699000D03*
X114783000Y-87553000D03*
X135103000Y-120827000D03*
G04 #@! TO.N,LED_K10*
X141707000Y-96189000D03*
X108433000Y-108889000D03*
X118339000Y-87553000D03*
X131293000Y-121081000D03*
G04 #@! TO.N,LED_K11*
X109957000Y-106349000D03*
X126975000Y-120065000D03*
X140437000Y-102031000D03*
X122682000Y-88234000D03*
G04 #@! TD*
D15*
G04 #@! TO.N,LED_K0*
X124434000Y-99751000D02*
X124434000Y-100601000D01*
X121259000Y-102926000D02*
X121259000Y-103776000D01*
X127609000Y-102926000D02*
X127609000Y-103776000D01*
X124434000Y-106101000D02*
X124434000Y-106951000D01*
X125495800Y-106101000D02*
X125501800Y-106095000D01*
X124434000Y-106101000D02*
X125495800Y-106101000D01*
X125291000Y-100601000D02*
X125451000Y-100761000D01*
X124434000Y-100601000D02*
X125291000Y-100601000D01*
X121259000Y-104445000D02*
X121133000Y-104571000D01*
X121259000Y-103776000D02*
X121259000Y-104445000D01*
X127609000Y-104445000D02*
X127483000Y-104571000D01*
X127609000Y-103776000D02*
X127609000Y-104445000D01*
X124434000Y-102926000D02*
X124434000Y-100601000D01*
G04 #@! TO.N,LED_K1*
X130784000Y-102926000D02*
X130784000Y-103776000D01*
X130784000Y-104570000D02*
X130785000Y-104571000D01*
X130784000Y-103776000D02*
X130784000Y-104570000D01*
X124434000Y-110126000D02*
X124434000Y-109276000D01*
X125318000Y-109276000D02*
X125451000Y-109143000D01*
X124434000Y-109276000D02*
X125318000Y-109276000D01*
X124434000Y-96576000D02*
X124434000Y-97426000D01*
X118084000Y-102926000D02*
X118084000Y-103776000D01*
X118084000Y-104570000D02*
X118085000Y-104571000D01*
X118084000Y-103776000D02*
X118084000Y-104570000D01*
X124434000Y-104570000D02*
X124435000Y-104571000D01*
X124434000Y-103776000D02*
X124434000Y-104570000D01*
X125230000Y-97426000D02*
X125451000Y-97205000D01*
X124434000Y-97426000D02*
X125230000Y-97426000D01*
G04 #@! TO.N,LED_A0*
X126159000Y-102926000D02*
X126259000Y-102926000D01*
X126259000Y-102926000D02*
X126965001Y-102219999D01*
X129461001Y-102219999D02*
X129515000Y-102219999D01*
X129334000Y-102347000D02*
X129461001Y-102219999D01*
X132563000Y-102293000D02*
X132563000Y-102219999D01*
X132509000Y-102347000D02*
X132563000Y-102293000D01*
X132381999Y-102219999D02*
X132309000Y-102219999D01*
X132509000Y-102347000D02*
X132381999Y-102219999D01*
X129515000Y-102219999D02*
X132309000Y-102219999D01*
X132309000Y-102219999D02*
X132563000Y-102219999D01*
X129206999Y-102219999D02*
X129007000Y-102219999D01*
X129334000Y-102347000D02*
X129206999Y-102219999D01*
X126965001Y-102219999D02*
X129007000Y-102219999D01*
X129334000Y-102926000D02*
X129334000Y-102347000D01*
X129007000Y-102219999D02*
X129515000Y-102219999D01*
X132509000Y-102347000D02*
X132636001Y-102219999D01*
X132509000Y-102926000D02*
X132509000Y-102347000D01*
X132563000Y-102219999D02*
X132817000Y-102219999D01*
X132636001Y-102219999D02*
X132817000Y-102219999D01*
X135611000Y-102274000D02*
X135611000Y-102219999D01*
X135684000Y-102347000D02*
X135611000Y-102274000D01*
X132817000Y-102219999D02*
X135611000Y-102219999D01*
X135811001Y-102219999D02*
X135865000Y-102219999D01*
X135684000Y-102347000D02*
X135811001Y-102219999D01*
X135684000Y-102926000D02*
X135684000Y-102347000D01*
X135611000Y-102219999D02*
X135865000Y-102219999D01*
X135865000Y-102219999D02*
X138585881Y-102219999D01*
X139784518Y-103555000D02*
X139920882Y-103555000D01*
X138492852Y-105425666D02*
X138492852Y-104846666D01*
X141023909Y-107548209D02*
X141461118Y-107111000D01*
X141023909Y-107991441D02*
X141023909Y-107548209D01*
X140081919Y-108833431D02*
X140181919Y-108833431D01*
X140181919Y-108833431D02*
X141023909Y-107991441D01*
X142215000Y-107111000D02*
X142469000Y-106857000D01*
X141961000Y-107111000D02*
X142215000Y-107111000D01*
X142469000Y-106857000D02*
X142469000Y-107111000D01*
X141461118Y-107111000D02*
X141961000Y-107111000D01*
X141961000Y-107111000D02*
X142469000Y-107111000D01*
X142469000Y-106103118D02*
X142469000Y-106857000D01*
X142469000Y-107365000D02*
X142215000Y-107111000D01*
X142469000Y-107111000D02*
X142469000Y-107365000D01*
X139675000Y-103664518D02*
X139675000Y-103309118D01*
X139675000Y-103664518D02*
X139784518Y-103555000D01*
X138492852Y-104846666D02*
X139675000Y-103664518D01*
X138585881Y-102219999D02*
X139675000Y-103309118D01*
X139675000Y-103309118D02*
X139920882Y-103555000D01*
X140030400Y-103664518D02*
X140183000Y-103817118D01*
X139675000Y-103664518D02*
X140030400Y-103664518D01*
X140183000Y-103817118D02*
X142469000Y-106103118D01*
X139920882Y-103555000D02*
X140183000Y-103817118D01*
X127381815Y-121762001D02*
X125483666Y-119863852D01*
X125483666Y-119863852D02*
X125483666Y-119284852D01*
X141072387Y-114223000D02*
X142469000Y-114223000D01*
X140291279Y-113441892D02*
X141072387Y-114223000D01*
X140191279Y-113441892D02*
X140291279Y-113441892D01*
X142469000Y-107365000D02*
X142469000Y-114223000D01*
X142469000Y-114223000D02*
X142469000Y-116156134D01*
X139929000Y-118641242D02*
X139929000Y-118696134D01*
X138803045Y-117515287D02*
X139929000Y-118641242D01*
X138803045Y-116936287D02*
X138803045Y-117515287D01*
X139929000Y-118696134D02*
X136863133Y-121762001D01*
X142469000Y-116156134D02*
X139929000Y-118696134D01*
X136144287Y-119595045D02*
X136144287Y-121736714D01*
X136144287Y-121736714D02*
X136119000Y-121762001D01*
X136863133Y-121762001D02*
X136119000Y-121762001D01*
X132649892Y-120983279D02*
X132649892Y-121562279D01*
X132649892Y-121562279D02*
X132649892Y-121594893D01*
X132817000Y-121762001D02*
X132563000Y-121762001D01*
X136119000Y-121762001D02*
X132817000Y-121762001D01*
X132649892Y-121675109D02*
X132563000Y-121762001D01*
X132649892Y-121562279D02*
X132649892Y-121675109D01*
X128891431Y-121646432D02*
X129007000Y-121762001D01*
X128891431Y-120873919D02*
X128891431Y-121646432D01*
X129007000Y-121762001D02*
X127381815Y-121762001D01*
X132563000Y-121762001D02*
X129007000Y-121762001D01*
X164337960Y-84328000D02*
X164338000Y-84328000D01*
X164083980Y-84074020D02*
X164337960Y-84328000D01*
X140183000Y-103817118D02*
X140377198Y-103817118D01*
X140377198Y-103817118D02*
X143463300Y-100731016D01*
X143463300Y-100731016D02*
X143463300Y-90129568D01*
X149518848Y-84074020D02*
X164083980Y-84074020D01*
X143463300Y-90129568D02*
X149518848Y-84074020D01*
G04 #@! TO.N,LED_K3*
X137134000Y-102926000D02*
X137134000Y-103776000D01*
X137134000Y-104570000D02*
X137135000Y-104571000D01*
X137134000Y-103776000D02*
X137134000Y-104570000D01*
X124434000Y-116476000D02*
X124434000Y-115626000D01*
X125318000Y-115626000D02*
X125451000Y-115493000D01*
X124434000Y-115626000D02*
X125318000Y-115626000D01*
X124434000Y-90226000D02*
X124434000Y-91076000D01*
X125418000Y-91076000D02*
X125451000Y-91109000D01*
X124434000Y-91076000D02*
X125418000Y-91076000D01*
X111734000Y-102926000D02*
X111734000Y-103776000D01*
X111734000Y-104316000D02*
X111989000Y-104571000D01*
X111734000Y-103776000D02*
X111734000Y-104316000D01*
G04 #@! TO.N,LED_K2*
X133959000Y-102926000D02*
X133959000Y-103776000D01*
X133959000Y-104445000D02*
X133833000Y-104571000D01*
X133959000Y-103776000D02*
X133959000Y-104445000D01*
X124434000Y-113300999D02*
X124434000Y-112450999D01*
X125445001Y-112450999D02*
X125451000Y-112445000D01*
X124434000Y-112450999D02*
X125445001Y-112450999D01*
X124434000Y-93401000D02*
X124434000Y-94251000D01*
X125291000Y-94251000D02*
X125451000Y-94411000D01*
X124434000Y-94251000D02*
X125291000Y-94251000D01*
X114909000Y-102926000D02*
X114909000Y-103776000D01*
X114909000Y-104445000D02*
X114783000Y-104571000D01*
X114909000Y-103776000D02*
X114909000Y-104445000D01*
G04 #@! TO.N,LED_K4*
X139942852Y-106275666D02*
X139942852Y-105425666D01*
X139942852Y-104584852D02*
X139929000Y-104571000D01*
X139942852Y-105425666D02*
X139942852Y-104584852D01*
X126933666Y-87417147D02*
X126933666Y-88267147D01*
X126933666Y-88273666D02*
X127737000Y-89077000D01*
X126933666Y-88267147D02*
X126933666Y-88273666D01*
X121934333Y-118434852D02*
X121934333Y-119284852D01*
X108925147Y-101276333D02*
X108925147Y-100426333D01*
X109021667Y-100426333D02*
X109703000Y-99745000D01*
X108925147Y-100426333D02*
X109021667Y-100426333D01*
X122763148Y-118434852D02*
X122911000Y-118287000D01*
X121934333Y-118434852D02*
X122763148Y-118434852D01*
G04 #@! TO.N,LED_K5*
X130341431Y-85828080D02*
X130341431Y-86678080D01*
X141531919Y-109683431D02*
X141531919Y-108833431D01*
X118526568Y-120023919D02*
X118526568Y-120873919D01*
X141531919Y-108048081D02*
X141707000Y-107873000D01*
X141531919Y-108833431D02*
X141531919Y-108048081D01*
X130341431Y-87488569D02*
X130277000Y-87553000D01*
X130341431Y-86678080D02*
X130341431Y-87488569D01*
X107336080Y-97868568D02*
X107336080Y-97018568D01*
X108246568Y-97018568D02*
X108433000Y-97205000D01*
X107336080Y-97018568D02*
X108246568Y-97018568D01*
X119562081Y-120873919D02*
X119609000Y-120827000D01*
X118526568Y-120873919D02*
X119562081Y-120873919D01*
G04 #@! TO.N,LED_K7*
X137594287Y-87106954D02*
X137594287Y-87956954D01*
X140253045Y-116936287D02*
X140253045Y-116086287D01*
X140253045Y-115422955D02*
X140437000Y-115239000D01*
X140253045Y-116086287D02*
X140253045Y-115422955D01*
X111273712Y-118745045D02*
X111273712Y-119595045D01*
X108701712Y-90615712D02*
X109449000Y-91363000D01*
X108614954Y-90615712D02*
X108701712Y-90615712D01*
X112193045Y-118745045D02*
X112243000Y-118795000D01*
X111273712Y-118745045D02*
X112193045Y-118745045D01*
X137594287Y-86996287D02*
X136881000Y-86283000D01*
X137594287Y-87106954D02*
X137594287Y-86996287D01*
X108614954Y-89765712D02*
X108614954Y-90615712D01*
G04 #@! TO.N,LED_K6*
X134099892Y-85718720D02*
X134099892Y-86568720D01*
X134099892Y-87540108D02*
X134087000Y-87553000D01*
X134099892Y-86568720D02*
X134099892Y-87540108D01*
X141641279Y-113441892D02*
X141641279Y-112591892D01*
X141641279Y-111748721D02*
X141707000Y-111683000D01*
X141641279Y-112591892D02*
X141641279Y-111748721D01*
X114768107Y-120133279D02*
X114768107Y-120983279D01*
X107226720Y-94110107D02*
X107226720Y-93260107D01*
X108044107Y-93260107D02*
X108179000Y-93395000D01*
X107226720Y-93260107D02*
X108044107Y-93260107D01*
X114768107Y-119063893D02*
X114783000Y-119049000D01*
X114768107Y-120133279D02*
X114768107Y-119063893D01*
G04 #@! TO.N,LED_K8*
X140253045Y-89765712D02*
X140253045Y-90615712D01*
X137594287Y-119595045D02*
X137594287Y-118745045D01*
X108614954Y-116086287D02*
X108614954Y-116936287D01*
X111273712Y-87106954D02*
X111273712Y-87956954D01*
X111273712Y-88615712D02*
X111481000Y-88823000D01*
X111273712Y-87956954D02*
X111273712Y-88615712D01*
X138609045Y-118745045D02*
X138659000Y-118795000D01*
X137594287Y-118745045D02*
X138609045Y-118745045D01*
X109280287Y-116086287D02*
X109703000Y-116509000D01*
X108614954Y-116086287D02*
X109280287Y-116086287D01*
X141467712Y-90615712D02*
X141707000Y-90855000D01*
X140253045Y-90615712D02*
X141467712Y-90615712D01*
G04 #@! TO.N,LED_A1*
X126159000Y-104355000D02*
X127056001Y-105252001D01*
X126159000Y-103776000D02*
X126159000Y-104355000D01*
X140081919Y-112482532D02*
X140191279Y-112591892D01*
X140081919Y-109683431D02*
X140081919Y-112482532D01*
X136790187Y-105252001D02*
X135865000Y-105252001D01*
X138492852Y-106275666D02*
X137813852Y-106275666D01*
X135865000Y-105252001D02*
X136199999Y-105252001D01*
X137813852Y-106275666D02*
X136790187Y-105252001D01*
X136144287Y-118166045D02*
X136144287Y-118745045D01*
X136144287Y-118066045D02*
X136144287Y-118166045D01*
X138124045Y-116086287D02*
X136144287Y-118066045D01*
X138803045Y-116086287D02*
X138124045Y-116086287D01*
X129334000Y-103776000D02*
X129334000Y-105179001D01*
X129334000Y-105179001D02*
X129261000Y-105252001D01*
X127056001Y-105252001D02*
X129261000Y-105252001D01*
X132509000Y-105198001D02*
X132563000Y-105252001D01*
X132509000Y-103776000D02*
X132509000Y-105198001D01*
X129261000Y-105252001D02*
X132563000Y-105252001D01*
X135684000Y-103776000D02*
X135684000Y-105179001D01*
X135611000Y-105252001D02*
X135865000Y-105252001D01*
X135684000Y-105179001D02*
X135611000Y-105252001D01*
X132563000Y-105252001D02*
X135611000Y-105252001D01*
X135509000Y-118745045D02*
X136144287Y-118745045D01*
X132649892Y-119380000D02*
X132649892Y-120133279D01*
X134874045Y-119380000D02*
X135382045Y-118872000D01*
X135382045Y-118872000D02*
X135509000Y-118745045D01*
X132649892Y-119380000D02*
X134874045Y-119380000D01*
X132649892Y-119380000D02*
X128891431Y-119380000D01*
X128891431Y-119507000D02*
X128891431Y-120023919D01*
X128891431Y-119380000D02*
X128891431Y-119507000D01*
X128891431Y-120023919D02*
X128891431Y-119239282D01*
X127381000Y-117728851D02*
X126289667Y-117728851D01*
X128891431Y-119239282D02*
X127381000Y-117728851D01*
X125583666Y-118434852D02*
X125483666Y-118434852D01*
X126289667Y-117728851D02*
X125583666Y-118434852D01*
X138803045Y-116086287D02*
X138803045Y-116085955D01*
X138803045Y-116085955D02*
X139319000Y-115570000D01*
X139319000Y-112785171D02*
X139319000Y-115570000D01*
X139512279Y-112591892D02*
X139319000Y-112785171D01*
X140191279Y-112591892D02*
X139512279Y-112591892D01*
X139402919Y-109683431D02*
X140081919Y-109683431D01*
X138492852Y-106275666D02*
X138592852Y-106275666D01*
X139192000Y-106874814D02*
X139192000Y-109472512D01*
X138592852Y-106275666D02*
X139192000Y-106874814D01*
X139192000Y-109472512D02*
X139402919Y-109683431D01*
X165100000Y-84423514D02*
X165100000Y-84328000D01*
X149729272Y-84582030D02*
X163758629Y-84582030D01*
X163758629Y-84582030D02*
X164084000Y-84907401D01*
X143971310Y-100941440D02*
X143971310Y-90339992D01*
X124677665Y-118561853D02*
X124677665Y-119914653D01*
X124804666Y-118434852D02*
X124677665Y-118561853D01*
X124677665Y-119914653D02*
X127033023Y-122270011D01*
X125483666Y-118434852D02*
X124804666Y-118434852D01*
X127033023Y-122270011D02*
X137073558Y-122270010D01*
X164084000Y-84907401D02*
X164616113Y-84907401D01*
X143971310Y-90339992D02*
X149729272Y-84582030D01*
X137073558Y-122270010D02*
X142977010Y-116366558D01*
X164616113Y-84907401D02*
X165100000Y-84423514D01*
X142977010Y-116366558D02*
X142977010Y-103861010D01*
X143002000Y-101910750D02*
X143971310Y-100941440D01*
X142977010Y-103861010D02*
X143002000Y-103836020D01*
X143002000Y-103836020D02*
X143002000Y-101910750D01*
G04 #@! TO.N,LED_A2*
X119609000Y-119811000D02*
X119617118Y-119811000D01*
X117076568Y-120023919D02*
X117176568Y-120023919D01*
X117176568Y-120023919D02*
X117882569Y-119317918D01*
X117882569Y-119317918D02*
X119115918Y-119317918D01*
X119115918Y-119317918D02*
X119609000Y-119811000D01*
X122984000Y-106101000D02*
X123084000Y-106101000D01*
X125809681Y-105394999D02*
X126182801Y-105768119D01*
X123084000Y-106101000D02*
X123790001Y-105394999D01*
X123790001Y-105394999D02*
X125809681Y-105394999D01*
X126009800Y-108461999D02*
X126182801Y-108635000D01*
X123084000Y-109276000D02*
X123898001Y-108461999D01*
X122984000Y-109276000D02*
X123084000Y-109276000D01*
X123898001Y-108461999D02*
X126009800Y-108461999D01*
X126182801Y-105768119D02*
X126182801Y-108635000D01*
X123790001Y-111744998D02*
X125990799Y-111744998D01*
X123084000Y-112450999D02*
X123790001Y-111744998D01*
X125990799Y-111744998D02*
X126182801Y-111937000D01*
X126182801Y-108635000D02*
X126182801Y-111937000D01*
X122984000Y-112450999D02*
X123084000Y-112450999D01*
X123084000Y-115626000D02*
X123979000Y-114731000D01*
X122984000Y-115626000D02*
X123084000Y-115626000D01*
X126182801Y-111937000D02*
X126182801Y-114731000D01*
X123979000Y-114731000D02*
X126182801Y-114731000D01*
X109144712Y-119595045D02*
X109823712Y-119595045D01*
X107164954Y-117615287D02*
X109144712Y-119595045D01*
X107164954Y-116936287D02*
X107164954Y-117615287D01*
X113418107Y-120983279D02*
X113318107Y-120983279D01*
X114124108Y-121689280D02*
X113418107Y-120983279D01*
X109823712Y-120174045D02*
X109823712Y-119595045D01*
X110632946Y-120983279D02*
X109823712Y-120174045D01*
X113318107Y-120983279D02*
X110632946Y-120983279D01*
X120290001Y-121608281D02*
X120371000Y-121689280D01*
X119609000Y-119811000D02*
X120290001Y-120492001D01*
X120965707Y-121689280D02*
X120371000Y-121689280D01*
X120290001Y-120492001D02*
X120290001Y-121608281D01*
X120371000Y-121689280D02*
X114124108Y-121689280D01*
X105776720Y-116227053D02*
X105776720Y-114020892D01*
X105776720Y-114020892D02*
X105776720Y-113441892D01*
X106485954Y-116936287D02*
X105776720Y-116227053D01*
X107164954Y-116936287D02*
X106485954Y-116936287D01*
X105097720Y-113441892D02*
X104840562Y-113184734D01*
X105776720Y-113441892D02*
X105097720Y-113441892D01*
X104885131Y-109683431D02*
X104840562Y-109728000D01*
X105886080Y-109683431D02*
X104885131Y-109683431D01*
X105290895Y-106275666D02*
X105140561Y-106426000D01*
X107475147Y-106275666D02*
X105290895Y-106275666D01*
X105140561Y-106426000D02*
X104840562Y-106725999D01*
X104840562Y-106725999D02*
X104840562Y-109982000D01*
X104840562Y-109982000D02*
X104840562Y-109728000D01*
X104840562Y-113184734D02*
X104840562Y-109982000D01*
X123274987Y-119380000D02*
X120965707Y-121689280D01*
X123514715Y-119140272D02*
X123274987Y-119380000D01*
X126182801Y-114731000D02*
X126182801Y-115824000D01*
X126182801Y-116472186D02*
X126182801Y-115824000D01*
X126182801Y-115824000D02*
X126182801Y-116299915D01*
X123528987Y-117602000D02*
X124290987Y-118364000D01*
X121417185Y-117602000D02*
X123528987Y-117602000D01*
X123274987Y-119380000D02*
X124290987Y-118364000D01*
X120484333Y-118434852D02*
X120584333Y-118434852D01*
X124290987Y-118364000D02*
X126182801Y-116472186D01*
X120584333Y-118434852D02*
X121417185Y-117602000D01*
G04 #@! TO.N,LED_A3*
X108281148Y-104719665D02*
X109851665Y-104719665D01*
X107575147Y-105425666D02*
X108281148Y-104719665D01*
X107475147Y-105425666D02*
X107575147Y-105425666D01*
X110638001Y-105506001D02*
X110638001Y-106683999D01*
X109851665Y-104719665D02*
X110638001Y-105506001D01*
X110638001Y-106683999D02*
X109195000Y-108127000D01*
X105986080Y-108833431D02*
X106692511Y-108127000D01*
X105886080Y-108833431D02*
X105986080Y-108833431D01*
X105876720Y-112591892D02*
X106785612Y-111683000D01*
X105776720Y-112591892D02*
X105876720Y-112591892D01*
X122305000Y-113300999D02*
X122144999Y-113461000D01*
X122984000Y-113300999D02*
X122305000Y-113300999D01*
X113318107Y-120133279D02*
X113318107Y-118481893D01*
X106692511Y-108127000D02*
X108839000Y-108127000D01*
X108962001Y-111683000D02*
X109012001Y-111633000D01*
X106785612Y-111683000D02*
X108962001Y-111683000D01*
X109012001Y-111633000D02*
X109012001Y-113931117D01*
X109012001Y-108611079D02*
X109012001Y-111633000D01*
X109012001Y-108173001D02*
X108966000Y-108127000D01*
X109012001Y-108611079D02*
X109012001Y-108173001D01*
X108966000Y-108127000D02*
X109195000Y-108127000D01*
X108839000Y-108127000D02*
X108966000Y-108127000D01*
X122174000Y-108340000D02*
X122174000Y-110126000D01*
X122984000Y-107530000D02*
X122174000Y-108340000D01*
X122984000Y-106951000D02*
X122984000Y-107530000D01*
X122984000Y-110126000D02*
X122174000Y-110126000D01*
X122174000Y-113431999D02*
X122144999Y-113461000D01*
X122174000Y-110126000D02*
X122174000Y-113431999D01*
X122174000Y-113431999D02*
X122174000Y-116476000D01*
X122984000Y-116476000D02*
X122174000Y-116476000D01*
X113318107Y-118481893D02*
X113330001Y-118469999D01*
X116205000Y-120681351D02*
X116205000Y-118469999D01*
X116397568Y-120873919D02*
X116205000Y-120681351D01*
X117076568Y-120873919D02*
X116397568Y-120873919D01*
X113330001Y-118469999D02*
X116205000Y-118469999D01*
X119147001Y-118469999D02*
X116205000Y-118469999D01*
X120015000Y-117602000D02*
X119147001Y-118469999D01*
X122174000Y-116476000D02*
X122174000Y-116840000D01*
X122174000Y-116840000D02*
X121920000Y-117094000D01*
X121920000Y-117094000D02*
X121158000Y-117094000D01*
X120650000Y-117602000D02*
X120015000Y-117602000D01*
X121158000Y-117094000D02*
X120650000Y-117602000D01*
X109012001Y-114175787D02*
X109012001Y-113931117D01*
X111403757Y-116586000D02*
X111422214Y-116586000D01*
X109823712Y-118745045D02*
X109823712Y-118166045D01*
X111422214Y-116586000D02*
X109012001Y-114175787D01*
X109823712Y-118166045D02*
X111403757Y-116586000D01*
X113318107Y-118481893D02*
X111422214Y-116586000D01*
X107264954Y-116086287D02*
X107164954Y-116086287D01*
X109012001Y-114339240D02*
X107264954Y-116086287D01*
X109012001Y-114175787D02*
X109012001Y-114339240D01*
X107293945Y-105244464D02*
X107475147Y-105425666D01*
X107459481Y-105410000D02*
X107475147Y-105425666D01*
X105140561Y-105410000D02*
X107459481Y-105410000D01*
X119147001Y-118626520D02*
X119147001Y-118469999D01*
X119805333Y-119284852D02*
X119147001Y-118626520D01*
X120484333Y-119284852D02*
X119805333Y-119284852D01*
G04 #@! TO.N,LED_A4*
X110284000Y-102347000D02*
X110284000Y-102926000D01*
X110465000Y-102166000D02*
X110284000Y-102347000D01*
X109195000Y-97967000D02*
X110465000Y-99237000D01*
X110465000Y-99237000D02*
X110465000Y-101777000D01*
X110465000Y-101777000D02*
X110465000Y-102166000D01*
X119709000Y-102926000D02*
X119809000Y-102926000D01*
X118560000Y-101777000D02*
X119709000Y-102926000D01*
X116815000Y-102166000D02*
X116815000Y-101777000D01*
X116634000Y-102347000D02*
X116815000Y-102166000D01*
X116634000Y-102926000D02*
X116634000Y-102347000D01*
X116815000Y-101777000D02*
X118560000Y-101777000D01*
X113459000Y-101831000D02*
X113513000Y-101777000D01*
X113459000Y-102926000D02*
X113459000Y-101831000D01*
X113513000Y-101777000D02*
X116815000Y-101777000D01*
X110465000Y-101777000D02*
X113513000Y-101777000D01*
X109195000Y-98127480D02*
X109195000Y-97967000D01*
X107475147Y-99847333D02*
X109195000Y-98127480D01*
X107475147Y-100426333D02*
X107475147Y-99847333D01*
X105886080Y-96439568D02*
X106644648Y-95681000D01*
X109195000Y-92633000D02*
X109195000Y-95681000D01*
X106644648Y-95681000D02*
X109195000Y-95681000D01*
X105886080Y-97018568D02*
X105886080Y-96439568D01*
X109195000Y-95681000D02*
X109195000Y-97967000D01*
X105776720Y-94813072D02*
X106644648Y-95681000D01*
X105776720Y-94110107D02*
X105776720Y-94813072D01*
X108603242Y-92633000D02*
X109195000Y-92633000D01*
X107164954Y-91194712D02*
X108603242Y-92633000D01*
X107164954Y-90615712D02*
X107164954Y-91194712D01*
X111481000Y-90193242D02*
X111481000Y-90347000D01*
X109823712Y-88535954D02*
X111481000Y-90193242D01*
X109823712Y-87956954D02*
X109823712Y-88535954D01*
X113560853Y-88267147D02*
X111481000Y-90347000D01*
X111481000Y-90347000D02*
X109195000Y-92633000D01*
X113560853Y-87390466D02*
X113560853Y-88267147D01*
X113318107Y-87147720D02*
X113560853Y-87390466D01*
X113318107Y-86568720D02*
X113318107Y-87147720D01*
X117069000Y-87264648D02*
X117069000Y-88267147D01*
X117076568Y-87257080D02*
X117069000Y-87264648D01*
X117076568Y-86678080D02*
X117076568Y-87257080D01*
X120484333Y-88267147D02*
X117069000Y-88267147D01*
X117069000Y-88267147D02*
X113560853Y-88267147D01*
X120557334Y-88919148D02*
X122924814Y-88919148D01*
X120484333Y-88846147D02*
X120557334Y-88919148D01*
X122924814Y-88919148D02*
X123444000Y-88399962D01*
X120484333Y-88267147D02*
X120484333Y-88846147D01*
X123444000Y-87302577D02*
X126241868Y-84504709D01*
X123444000Y-88399962D02*
X123444000Y-87302577D01*
X148887566Y-82550000D02*
X163068000Y-82550000D01*
X164266600Y-82550000D02*
X164338000Y-82478600D01*
X163068000Y-82550000D02*
X164266600Y-82550000D01*
X147109566Y-84328000D02*
X148887566Y-82550000D01*
X146932857Y-84504709D02*
X147109566Y-84328000D01*
X136147356Y-84501353D02*
X136144000Y-84504709D01*
X137841669Y-84501353D02*
X136147356Y-84501353D01*
X126241868Y-84504709D02*
X136144000Y-84504709D01*
X142537250Y-88899684D02*
X142537566Y-88900000D01*
X142240000Y-88899684D02*
X142537250Y-88899684D01*
X142240000Y-88899684D02*
X137841669Y-84501353D01*
X142537566Y-88900000D02*
X147109566Y-84328000D01*
G04 #@! TO.N,LED_A5*
X119809000Y-104355000D02*
X119809000Y-103776000D01*
X118911999Y-105252001D02*
X119809000Y-104355000D01*
X110284000Y-104355000D02*
X111181001Y-105252001D01*
X110284000Y-103776000D02*
X110284000Y-104355000D01*
X116634000Y-105179001D02*
X116561000Y-105252001D01*
X116634000Y-103776000D02*
X116634000Y-105179001D01*
X116561000Y-105252001D02*
X118911999Y-105252001D01*
X113459000Y-105198001D02*
X113513000Y-105252001D01*
X113459000Y-103776000D02*
X113459000Y-105198001D01*
X113513000Y-105252001D02*
X116561000Y-105252001D01*
X111181001Y-105252001D02*
X113513000Y-105252001D01*
X109605000Y-103776000D02*
X110284000Y-103776000D01*
X109395814Y-103776000D02*
X109605000Y-103776000D01*
X107475147Y-101855333D02*
X109395814Y-103776000D01*
X107475147Y-101276333D02*
X107475147Y-101855333D01*
X109144712Y-87106954D02*
X109823712Y-87106954D01*
X107164954Y-89086712D02*
X109144712Y-87106954D01*
X107164954Y-89765712D02*
X107164954Y-89086712D01*
X112639107Y-85718720D02*
X113318107Y-85718720D01*
X111311946Y-85718720D02*
X112639107Y-85718720D01*
X109923712Y-87106954D02*
X111311946Y-85718720D01*
X109823712Y-87106954D02*
X109923712Y-87106954D01*
X113418107Y-85718720D02*
X114124108Y-85012719D01*
X113318107Y-85718720D02*
X113418107Y-85718720D01*
X117076568Y-85828080D02*
X117076568Y-85020287D01*
X117076568Y-85020287D02*
X117069000Y-85012719D01*
X117069000Y-85012719D02*
X119147009Y-85012719D01*
X114124108Y-85012719D02*
X117069000Y-85012719D01*
X106796147Y-101276333D02*
X107475147Y-101276333D01*
X104970719Y-99450905D02*
X106796147Y-101276333D01*
X106485954Y-89765712D02*
X104970719Y-91280947D01*
X107164954Y-89765712D02*
X106485954Y-89765712D01*
X104978613Y-93141000D02*
X104970719Y-93141000D01*
X105097720Y-93260107D02*
X104978613Y-93141000D01*
X105776720Y-93260107D02*
X105097720Y-93260107D01*
X104970719Y-91280947D02*
X104970719Y-93141000D01*
X104970719Y-93395000D02*
X104970719Y-93387108D01*
X104970719Y-93141000D02*
X104970719Y-93395000D01*
X104970719Y-93387108D02*
X105097720Y-93260107D01*
X104970719Y-97632207D02*
X104970719Y-97459000D01*
X104970719Y-93395000D02*
X104970719Y-97459000D01*
X105069151Y-97868568D02*
X104970719Y-97967000D01*
X105385000Y-97868568D02*
X105207080Y-97868568D01*
X105886080Y-97868568D02*
X105385000Y-97868568D01*
X104970719Y-97459000D02*
X104970719Y-97967000D01*
X105385000Y-97868568D02*
X105069151Y-97868568D01*
X104970719Y-97967000D02*
X104970719Y-99450905D01*
X120484333Y-85101052D02*
X120396000Y-85012719D01*
X120484333Y-87417147D02*
X120484333Y-85101052D01*
X120396000Y-85012719D02*
X119147009Y-85012719D01*
X164616113Y-81899199D02*
X163972801Y-81899199D01*
X163972801Y-81899199D02*
X163830010Y-82041990D01*
X163830010Y-82041990D02*
X148666210Y-82041990D01*
X164917401Y-82367401D02*
X164917401Y-82200487D01*
X165028600Y-82478600D02*
X164917401Y-82367401D01*
X164917401Y-82200487D02*
X164616113Y-81899199D01*
X165100000Y-82478600D02*
X165028600Y-82478600D01*
X147142200Y-83566000D02*
X146711501Y-83996699D01*
X148666210Y-82041990D02*
X147142200Y-83566000D01*
X146711501Y-83996699D02*
X146635301Y-83996699D01*
X142570200Y-88138000D02*
X147142200Y-83566000D01*
X138063025Y-83993343D02*
X142207682Y-88138000D01*
X142207682Y-88138000D02*
X142570200Y-88138000D01*
X126034800Y-83993343D02*
X138063025Y-83993343D01*
X125015424Y-85012719D02*
X126034800Y-83993343D01*
X120396000Y-85012719D02*
X125015424Y-85012719D01*
G04 #@! TO.N,LED_A6*
X122984000Y-99172000D02*
X123681000Y-98475000D01*
X122984000Y-99751000D02*
X122984000Y-99172000D01*
X125442882Y-98475000D02*
X126213000Y-97704882D01*
X123681000Y-98475000D02*
X125442882Y-98475000D01*
X124233000Y-95427000D02*
X126213000Y-95427000D01*
X122984000Y-96576000D02*
X123084000Y-96576000D01*
X126213000Y-97704882D02*
X126213000Y-95427000D01*
X123084000Y-96576000D02*
X124233000Y-95427000D01*
X124106000Y-92379000D02*
X126213000Y-92379000D01*
X123084000Y-93401000D02*
X124106000Y-92379000D01*
X122984000Y-93401000D02*
X123084000Y-93401000D01*
X126213000Y-95427000D02*
X126213000Y-92379000D01*
X123790001Y-89519999D02*
X125639999Y-89519999D01*
X123084000Y-90226000D02*
X123790001Y-89519999D01*
X122984000Y-90226000D02*
X123084000Y-90226000D01*
X126213000Y-90093000D02*
X126213000Y-91617000D01*
X125639999Y-89519999D02*
X126213000Y-90093000D01*
X126213000Y-91617000D02*
X126213000Y-91363000D01*
X126213000Y-92379000D02*
X126213000Y-91617000D01*
X127572065Y-86711146D02*
X128753000Y-87892081D01*
X126289667Y-86711146D02*
X127572065Y-86711146D01*
X125583666Y-87417147D02*
X126289667Y-86711146D01*
X125483666Y-87417147D02*
X125583666Y-87417147D01*
X128063881Y-89758001D02*
X128753000Y-89068882D01*
X126547999Y-89758001D02*
X128063881Y-89758001D01*
X126213000Y-90093000D02*
X126547999Y-89758001D01*
X127572065Y-86468446D02*
X127572065Y-86711146D01*
X128212431Y-85828080D02*
X127572065Y-86468446D01*
X128891431Y-85828080D02*
X128212431Y-85828080D01*
X135465287Y-87956954D02*
X136144287Y-87956954D01*
X134599241Y-88823000D02*
X135465287Y-87956954D01*
X128753000Y-88823000D02*
X128753000Y-87892081D01*
X128753000Y-89068882D02*
X128753000Y-88823000D01*
X132649892Y-88736108D02*
X132563000Y-88823000D01*
X132649892Y-86568720D02*
X132649892Y-88736108D01*
X132563000Y-88823000D02*
X134599241Y-88823000D01*
X128753000Y-88823000D02*
X132563000Y-88823000D01*
X138124045Y-90615712D02*
X138803045Y-90615712D01*
X136144287Y-88635954D02*
X138124045Y-90615712D01*
X136144287Y-87956954D02*
X136144287Y-88635954D01*
X137813852Y-101276333D02*
X138492852Y-101276333D01*
X137686851Y-101149332D02*
X137813852Y-101276333D01*
X137686851Y-99447149D02*
X137686851Y-101149332D01*
X138492852Y-101276333D02*
X138492852Y-101408536D01*
X138803045Y-91194712D02*
X138803045Y-90615712D01*
X139319000Y-91710667D02*
X138803045Y-91194712D01*
X139319000Y-93916828D02*
X139319000Y-91710667D01*
X139322107Y-94110107D02*
X139319000Y-94107000D01*
X140191279Y-94110107D02*
X139322107Y-94110107D01*
X139319000Y-94107000D02*
X139319000Y-93916828D01*
X137686851Y-99447149D02*
X137686851Y-99416798D01*
X139319000Y-97663000D02*
X139319000Y-94107000D01*
X139524568Y-97868568D02*
X139319000Y-97663000D01*
X140081919Y-97868568D02*
X139524568Y-97868568D01*
X137686851Y-99295149D02*
X139319000Y-97663000D01*
X137686851Y-99447149D02*
X137686851Y-99295149D01*
X138492852Y-101276333D02*
X138592852Y-101276333D01*
X142955290Y-100520592D02*
X142955290Y-89919144D01*
X138592852Y-101276333D02*
X140028520Y-102712001D01*
X140028520Y-102712001D02*
X140763881Y-102712001D01*
X140763881Y-102712001D02*
X142955290Y-100520592D01*
X142955290Y-89919144D02*
X149308424Y-83566010D01*
X149308424Y-83566010D02*
X162814010Y-83566010D01*
X162814010Y-83566010D02*
X178816010Y-83566010D01*
X183887882Y-86360000D02*
X183896000Y-86360000D01*
X181093892Y-83566010D02*
X183887882Y-86360000D01*
X178816010Y-83566010D02*
X181093892Y-83566010D01*
G04 #@! TO.N,LED_A7*
X138492852Y-99847333D02*
X138492852Y-100426333D01*
X141599289Y-99237000D02*
X139103185Y-99237000D01*
X122305000Y-100601000D02*
X121895000Y-100191000D01*
X122984000Y-100601000D02*
X122305000Y-100601000D01*
X139103185Y-99237000D02*
X138492852Y-99847333D01*
X124181000Y-88052882D02*
X124181000Y-87284011D01*
X124181000Y-87284011D02*
X126452292Y-85012719D01*
X124590401Y-88052882D02*
X124181000Y-88052882D01*
X124804666Y-88267147D02*
X124590401Y-88052882D01*
X125483666Y-88267147D02*
X124804666Y-88267147D01*
X131547000Y-87290882D02*
X131547000Y-85012719D01*
X130603881Y-88234001D02*
X131547000Y-87290882D01*
X129868352Y-88234001D02*
X130603881Y-88234001D01*
X128891431Y-87257080D02*
X129868352Y-88234001D01*
X128891431Y-86678080D02*
X128891431Y-87257080D01*
X126452292Y-85012719D02*
X131547000Y-85012719D01*
X132649892Y-85718720D02*
X132649892Y-85099611D01*
X132649892Y-85099611D02*
X132563000Y-85012719D01*
X131547000Y-85012719D02*
X132563000Y-85012719D01*
X140191279Y-92681107D02*
X141255386Y-91617000D01*
X140191279Y-93260107D02*
X140191279Y-92681107D01*
X140081919Y-96439568D02*
X141094487Y-95427000D01*
X140081919Y-97018568D02*
X140081919Y-96439568D01*
X122984000Y-91076000D02*
X121928000Y-91076000D01*
X121928000Y-91076000D02*
X121895000Y-91109000D01*
X121928000Y-97426000D02*
X121895000Y-97459000D01*
X122984000Y-97426000D02*
X121928000Y-97426000D01*
X121895000Y-100191000D02*
X121895000Y-97459000D01*
X136144287Y-87106954D02*
X136144287Y-85038006D01*
X136119000Y-85012719D02*
X137634601Y-85012719D01*
X136144287Y-85038006D02*
X136119000Y-85012719D01*
X132563000Y-85012719D02*
X136119000Y-85012719D01*
X140183000Y-87806757D02*
X140183000Y-87561118D01*
X138803045Y-89186712D02*
X140183000Y-87806757D01*
X138803045Y-89765712D02*
X138803045Y-89186712D01*
X140183000Y-87806757D02*
X140428639Y-87806757D01*
X140428639Y-87806757D02*
X140428882Y-87807000D01*
X140183000Y-87561118D02*
X140428882Y-87807000D01*
X122984000Y-94251000D02*
X121989000Y-94251000D01*
X121895000Y-94157000D02*
X121895000Y-91109000D01*
X121989000Y-94251000D02*
X121895000Y-94157000D01*
X121895000Y-97459000D02*
X121895000Y-94157000D01*
X142447280Y-98389009D02*
X141599289Y-99237000D01*
X139929000Y-87307118D02*
X142447280Y-89825398D01*
X139929000Y-87307118D02*
X140183000Y-87561118D01*
X137634601Y-85012719D02*
X139929000Y-87307118D01*
X141094487Y-95427000D02*
X142447280Y-95427000D01*
X142447280Y-95427000D02*
X142447280Y-98389009D01*
X141255386Y-91617000D02*
X142447280Y-91617000D01*
X142447280Y-91617000D02*
X142447280Y-95427000D01*
X142447280Y-89825398D02*
X142447280Y-91617000D01*
X121895000Y-91109000D02*
X121895000Y-90170000D01*
X121895000Y-89879198D02*
X122366198Y-89408000D01*
X121895000Y-90170000D02*
X121895000Y-89879198D01*
X122366198Y-89408000D02*
X123183566Y-89408000D01*
X124181000Y-88410566D02*
X123183566Y-89408000D01*
X124181000Y-88052882D02*
X124181000Y-88410566D01*
X163068000Y-83058000D02*
X178816000Y-83058000D01*
X181610000Y-83058000D02*
X184912000Y-86360000D01*
X178816000Y-83058000D02*
X181610000Y-83058000D01*
X149098000Y-83058000D02*
X163068000Y-83058000D01*
X142447280Y-89708720D02*
X149098000Y-83058000D01*
X142447280Y-89825398D02*
X142447280Y-89708720D01*
G04 #@! TO.N,LED_A8*
X122984000Y-102926000D02*
X122984000Y-103776000D01*
X122984000Y-104498000D02*
X122911000Y-104571000D01*
X122984000Y-103776000D02*
X122984000Y-104498000D01*
X166361862Y-84074020D02*
X180594020Y-84074020D01*
X180594020Y-84074020D02*
X182880000Y-86360000D01*
X165020471Y-85415411D02*
X166361862Y-84074020D01*
X163873576Y-85415411D02*
X165020471Y-85415411D01*
X158623000Y-88074500D02*
X158623000Y-85979000D01*
X159511960Y-85090040D02*
X163548205Y-85090040D01*
X158623000Y-85979000D02*
X159511960Y-85090040D01*
X163548205Y-85090040D02*
X163873576Y-85415411D01*
D16*
G04 #@! TO.N,VDD*
X155956691Y-98043309D02*
X148844691Y-98043309D01*
X148844691Y-98043309D02*
X148844000Y-98044000D01*
D17*
G04 #@! TO.N,N$13*
X180896454Y-98501454D02*
X180896454Y-105912546D01*
X178816000Y-93726000D02*
X178816000Y-96421000D01*
X178816000Y-96421000D02*
X180896454Y-98501454D01*
X180896454Y-105912546D02*
X178554590Y-108254410D01*
X154381590Y-108254410D02*
X154432000Y-108254410D01*
X153924000Y-108712000D02*
X154381590Y-108254410D01*
X178554590Y-108254410D02*
X154432000Y-108254410D01*
G04 #@! TO.N,N$14*
X178074601Y-97810601D02*
X177566601Y-97810601D01*
X178074601Y-97810601D02*
X179678819Y-99414819D01*
X179678819Y-99414819D02*
X179678818Y-105408182D01*
X179678818Y-105408182D02*
X178052180Y-107034820D01*
X150368000Y-108712000D02*
X152045180Y-107034820D01*
X152045180Y-107034820D02*
X152400000Y-107034820D01*
X178052180Y-107034820D02*
X152400000Y-107034820D01*
D15*
G04 #@! TO.N,N$5*
X185928000Y-86360000D02*
X182046600Y-82478600D01*
X182046600Y-82478600D02*
X181400000Y-82478600D01*
D17*
G04 #@! TO.N,N$19*
X180287637Y-98753637D02*
X180287636Y-105660364D01*
X180287636Y-105660364D02*
X178304360Y-107643640D01*
X177591999Y-96311999D02*
X177845433Y-96311999D01*
X177292000Y-96012000D02*
X177591999Y-96311999D01*
X177845433Y-96311999D02*
X180287637Y-98753637D01*
X152146000Y-108712000D02*
X153214360Y-107643640D01*
X153214360Y-107643640D02*
X153416000Y-107643640D01*
X178304360Y-107643640D02*
X153416000Y-107643640D01*
G04 #@! TO.N,N$16*
X178054000Y-98552000D02*
X179374410Y-99872410D01*
X179374410Y-99872410D02*
X179374409Y-105282091D01*
X179374409Y-105282091D02*
X177926090Y-106730410D01*
X150698590Y-106730410D02*
X149352000Y-108077000D01*
X177926090Y-106730410D02*
X150698590Y-106730410D01*
G04 #@! TO.N,N$15*
X179983227Y-99211227D02*
X179983227Y-105534273D01*
X178054000Y-97282000D02*
X179983227Y-99211227D01*
X179983227Y-105534273D02*
X178178270Y-107339230D01*
X152629770Y-107339230D02*
X153035000Y-107339230D01*
X151257000Y-108712000D02*
X152629770Y-107339230D01*
X178178270Y-107339230D02*
X153035000Y-107339230D01*
G04 #@! TO.N,N$17*
X177292000Y-99060000D02*
X177780262Y-99060000D01*
X150114000Y-106426000D02*
X148463000Y-108077000D01*
X177780262Y-99060000D02*
X179070000Y-100349738D01*
X179070000Y-105156000D02*
X177800000Y-106426000D01*
X177800000Y-106426000D02*
X150114000Y-106426000D01*
X179070000Y-100349738D02*
X179070000Y-105156000D01*
G04 #@! TO.N,N$18*
X178054000Y-96089500D02*
X178054000Y-95504000D01*
X180592045Y-98627545D02*
X178054000Y-96089500D01*
X153035000Y-108712000D02*
X153797000Y-107950000D01*
X153797000Y-107950000D02*
X178428500Y-107950000D01*
X178428500Y-107950000D02*
X180592045Y-105786455D01*
X180592045Y-105786455D02*
X180592045Y-98627545D01*
G04 #@! TO.N,N$8*
X177877797Y-99588601D02*
X178765190Y-100475994D01*
X166346043Y-105894043D02*
X166346043Y-105873443D01*
X178816000Y-92964000D02*
X178287399Y-93492601D01*
X178765190Y-100475994D02*
X178765190Y-105029744D01*
X177673744Y-106121190D02*
X166573190Y-106121190D01*
X166573190Y-106121190D02*
X166346043Y-105894043D01*
X178765190Y-105029744D02*
X177673744Y-106121190D01*
X177271670Y-95250000D02*
X176763399Y-95758271D01*
X177038271Y-99588601D02*
X177877797Y-99588601D01*
X176763399Y-99313729D02*
X177038271Y-99588601D01*
X176763399Y-95758271D02*
X176763399Y-99313729D01*
X177271670Y-95249729D02*
X178287399Y-94234000D01*
X177271670Y-95250000D02*
X177271670Y-95249729D01*
X178287399Y-93492601D02*
X178287399Y-94234000D01*
X181356000Y-92964000D02*
X178816000Y-92964000D01*
X181610000Y-93218000D02*
X181356000Y-92964000D01*
G04 #@! TO.N,N$10*
X178308000Y-93040934D02*
X178689744Y-92659190D01*
X178689744Y-92659190D02*
X179070000Y-92659190D01*
X179070000Y-92659190D02*
X181813190Y-92659190D01*
X176458589Y-95631744D02*
X177982590Y-94107743D01*
X176458589Y-99439985D02*
X176458589Y-95631744D01*
X166812842Y-105344842D02*
X167284380Y-105816380D01*
X177982590Y-94107743D02*
X177982590Y-93366344D01*
X165906558Y-105344842D02*
X166812842Y-105344842D01*
X165354000Y-105897400D02*
X165906558Y-105344842D01*
X167284380Y-105816380D02*
X177547488Y-105816380D01*
X177547488Y-105816380D02*
X177547488Y-105814892D01*
X178460380Y-100602250D02*
X177751541Y-99893411D01*
X177982590Y-93366344D02*
X178689744Y-92659190D01*
X177547488Y-105814892D02*
X178460380Y-104902000D01*
X177751541Y-99893411D02*
X176912015Y-99893411D01*
X176912015Y-99893411D02*
X176458589Y-99439985D01*
X178460380Y-104902000D02*
X178460380Y-100602250D01*
X182372000Y-93218000D02*
X181813190Y-92659190D01*
G04 #@! TO.N,N$9*
X165195368Y-105040032D02*
X164338000Y-105897400D01*
X167016032Y-105040032D02*
X165195368Y-105040032D01*
X167487570Y-105511570D02*
X167016032Y-105040032D01*
X177419744Y-105511570D02*
X167487570Y-105511570D01*
X178155570Y-100728506D02*
X178155570Y-104775744D01*
X176153779Y-95504000D02*
X176153779Y-99566241D01*
X176153779Y-99566241D02*
X176785759Y-100198221D01*
X178155570Y-104775744D02*
X177419744Y-105511570D01*
X177657178Y-94000601D02*
X176153779Y-95504000D01*
X176785759Y-100198221D02*
X177625285Y-100198221D01*
X177625285Y-100198221D02*
X178155570Y-100728506D01*
X177657178Y-93260690D02*
X178308000Y-92609868D01*
X177657178Y-94000601D02*
X177657178Y-93260690D01*
X178308000Y-92608380D02*
X178562000Y-92354380D01*
X178308000Y-92609868D02*
X178308000Y-92608380D01*
X182270380Y-92354380D02*
X181864000Y-92354380D01*
X183134000Y-93218000D02*
X182270380Y-92354380D01*
X181864000Y-92354380D02*
X178562000Y-92354380D01*
X181939446Y-92354380D02*
X181864000Y-92354380D01*
D15*
G04 #@! TO.N,LED_K9*
X141641279Y-93260107D02*
X141641279Y-94110107D01*
X141641279Y-92444721D02*
X141707000Y-92379000D01*
X141641279Y-93260107D02*
X141641279Y-92444721D01*
X134099892Y-120133279D02*
X134099892Y-120983279D01*
X107226720Y-113441892D02*
X107226720Y-112591892D01*
X108071892Y-112591892D02*
X108179000Y-112699000D01*
X107226720Y-112591892D02*
X108071892Y-112591892D01*
X114768107Y-85718720D02*
X114768107Y-86568720D01*
X114768107Y-87538107D02*
X114783000Y-87553000D01*
X114768107Y-86568720D02*
X114768107Y-87538107D01*
X134946721Y-120983279D02*
X135103000Y-120827000D01*
X134099892Y-120983279D02*
X134946721Y-120983279D01*
G04 #@! TO.N,LED_K10*
X141531919Y-97018568D02*
X141531919Y-97868568D01*
X141531919Y-96364081D02*
X141707000Y-96189000D01*
X141531919Y-97018568D02*
X141531919Y-96364081D01*
X130341431Y-120023919D02*
X130341431Y-120873919D01*
X107336080Y-109683431D02*
X107336080Y-108833431D01*
X108377431Y-108833431D02*
X108433000Y-108889000D01*
X107336080Y-108833431D02*
X108377431Y-108833431D01*
X118526568Y-85828080D02*
X118526568Y-86678080D01*
X118526568Y-87365432D02*
X118339000Y-87553000D01*
X118526568Y-86678080D02*
X118526568Y-87365432D01*
X131085919Y-120873919D02*
X131293000Y-121081000D01*
X130341431Y-120873919D02*
X131085919Y-120873919D01*
G04 #@! TO.N,LED_K11*
X139942852Y-100426333D02*
X139942852Y-101276333D01*
X126933666Y-118434852D02*
X126933666Y-119284852D01*
X108925147Y-105425666D02*
X108925147Y-106275666D01*
X109883666Y-106275666D02*
X109957000Y-106349000D01*
X108925147Y-106275666D02*
X109883666Y-106275666D01*
X121934333Y-88267147D02*
X121934333Y-87417147D01*
X126933666Y-120023666D02*
X126975000Y-120065000D01*
X126933666Y-119284852D02*
X126933666Y-120023666D01*
X139942852Y-101536852D02*
X140437000Y-102031000D01*
X139942852Y-101276333D02*
X139942852Y-101536852D01*
X122648853Y-88267147D02*
X122682000Y-88234000D01*
X121934333Y-88267147D02*
X122648853Y-88267147D01*
G04 #@! TD*
G04 #@! TO.N,GND*
G36*
X181902927Y-86449244D02*
X181954588Y-86619549D01*
X181964116Y-86642550D01*
X182056526Y-86815437D01*
X182070358Y-86836138D01*
X182139747Y-86920689D01*
X182159952Y-86950928D01*
X182185669Y-86976645D01*
X182194721Y-86987675D01*
X182212325Y-87005279D01*
X182223355Y-87014331D01*
X182289072Y-87080048D01*
X182440901Y-87181496D01*
X182506647Y-87208729D01*
X182557450Y-87235884D01*
X182580451Y-87245412D01*
X182768044Y-87302317D01*
X182792462Y-87307173D01*
X182987552Y-87326388D01*
X183000000Y-87327000D01*
X187993766Y-87327000D01*
X188170189Y-87344376D01*
X188333850Y-87394022D01*
X188484672Y-87474638D01*
X188616870Y-87583130D01*
X188725362Y-87715328D01*
X188805978Y-87866150D01*
X188855624Y-88029811D01*
X188873000Y-88206234D01*
X188873000Y-98493766D01*
X188855624Y-98670189D01*
X188805978Y-98833850D01*
X188725362Y-98984672D01*
X188616870Y-99116870D01*
X188484672Y-99225362D01*
X188333850Y-99305978D01*
X188170189Y-99355624D01*
X187993766Y-99373000D01*
X181599654Y-99373000D01*
X181599654Y-98535984D01*
X181603055Y-98501453D01*
X181599654Y-98466922D01*
X181599654Y-98466913D01*
X181589479Y-98363603D01*
X181549269Y-98231049D01*
X181483972Y-98108887D01*
X181471382Y-98093546D01*
X181418115Y-98028640D01*
X181418111Y-98028636D01*
X181396096Y-98001811D01*
X181369273Y-97979798D01*
X179519200Y-96129726D01*
X179519200Y-94333776D01*
X179536048Y-94316928D01*
X179637496Y-94165099D01*
X179707376Y-93996396D01*
X179743000Y-93817301D01*
X179743000Y-93667200D01*
X180795253Y-93667200D01*
X180889952Y-93808928D01*
X181019072Y-93938048D01*
X181170901Y-94039496D01*
X181339604Y-94109376D01*
X181518699Y-94145000D01*
X181701301Y-94145000D01*
X181880396Y-94109376D01*
X181991000Y-94063562D01*
X182101604Y-94109376D01*
X182280699Y-94145000D01*
X182463301Y-94145000D01*
X182642396Y-94109376D01*
X182753000Y-94063562D01*
X182863604Y-94109376D01*
X183042699Y-94145000D01*
X183225301Y-94145000D01*
X183404396Y-94109376D01*
X183573099Y-94039496D01*
X183724928Y-93938048D01*
X183854048Y-93808928D01*
X183955496Y-93657099D01*
X184025376Y-93488396D01*
X184061000Y-93309301D01*
X184061000Y-93126699D01*
X184025376Y-92947604D01*
X183955496Y-92778901D01*
X183854048Y-92627072D01*
X183724928Y-92497952D01*
X183573099Y-92396504D01*
X183404396Y-92326624D01*
X183225301Y-92291000D01*
X183201475Y-92291000D01*
X182792045Y-91881571D01*
X182770023Y-91854737D01*
X182662947Y-91766862D01*
X182540785Y-91701565D01*
X182408231Y-91661355D01*
X182304921Y-91651180D01*
X182304911Y-91651180D01*
X182270380Y-91647779D01*
X182235849Y-91651180D01*
X178596531Y-91651180D01*
X178561999Y-91647779D01*
X178527468Y-91651180D01*
X178527459Y-91651180D01*
X178424149Y-91661355D01*
X178291595Y-91701565D01*
X178169433Y-91766862D01*
X178062357Y-91854737D01*
X178040334Y-91881572D01*
X177835187Y-92086719D01*
X177808358Y-92108737D01*
X177779532Y-92143861D01*
X177184365Y-92739029D01*
X177157536Y-92761047D01*
X177135518Y-92787876D01*
X177135517Y-92787877D01*
X177069660Y-92868123D01*
X177004363Y-92990286D01*
X176999611Y-93005952D01*
X176964153Y-93122839D01*
X176953978Y-93226149D01*
X176953978Y-93226159D01*
X176950577Y-93260690D01*
X176953978Y-93295221D01*
X176953978Y-93709326D01*
X175680966Y-94982339D01*
X175654136Y-95004358D01*
X175632118Y-95031187D01*
X175566261Y-95111433D01*
X175555214Y-95132101D01*
X175500964Y-95233596D01*
X175460754Y-95366150D01*
X175450579Y-95469460D01*
X175450579Y-95469469D01*
X175447178Y-95504000D01*
X175450579Y-95538531D01*
X175450580Y-99531700D01*
X175447178Y-99566241D01*
X175460755Y-99704092D01*
X175500964Y-99836645D01*
X175566261Y-99958808D01*
X175625723Y-100031262D01*
X175654137Y-100065884D01*
X175680966Y-100087902D01*
X176264097Y-100671034D01*
X176286116Y-100697864D01*
X176312945Y-100719882D01*
X176393191Y-100785739D01*
X176512258Y-100849381D01*
X176515354Y-100851036D01*
X176647908Y-100891246D01*
X176751218Y-100901421D01*
X176751220Y-100901421D01*
X176785759Y-100904823D01*
X176820298Y-100901421D01*
X177334011Y-100901421D01*
X177452370Y-101019781D01*
X177452371Y-104484468D01*
X177128470Y-104808370D01*
X167778844Y-104808370D01*
X167537698Y-104567224D01*
X167515675Y-104540389D01*
X167408599Y-104452514D01*
X167286437Y-104387217D01*
X167153883Y-104347007D01*
X167050573Y-104336832D01*
X167050563Y-104336832D01*
X167016032Y-104333431D01*
X166981501Y-104336832D01*
X165229898Y-104336832D01*
X165195367Y-104333431D01*
X165160836Y-104336832D01*
X165160827Y-104336832D01*
X165057517Y-104347007D01*
X164924963Y-104387217D01*
X164802801Y-104452514D01*
X164695725Y-104540389D01*
X164673707Y-104567218D01*
X164270525Y-104970400D01*
X164246699Y-104970400D01*
X164067604Y-105006024D01*
X163898901Y-105075904D01*
X163747072Y-105177352D01*
X163617952Y-105306472D01*
X163516504Y-105458301D01*
X163446624Y-105627004D01*
X163427569Y-105722800D01*
X150148541Y-105722800D01*
X150114000Y-105719398D01*
X149976149Y-105732975D01*
X149843595Y-105773185D01*
X149721432Y-105838482D01*
X149653732Y-105894043D01*
X149614357Y-105926357D01*
X149592339Y-105953186D01*
X148395526Y-107150000D01*
X148371699Y-107150000D01*
X148192604Y-107185624D01*
X148023901Y-107255504D01*
X147872072Y-107356952D01*
X147742952Y-107486072D01*
X147641504Y-107637901D01*
X147571624Y-107806604D01*
X147536000Y-107985699D01*
X147536000Y-108168301D01*
X147571624Y-108347396D01*
X147641504Y-108516099D01*
X147742952Y-108667928D01*
X147872072Y-108797048D01*
X148023901Y-108898496D01*
X148192604Y-108968376D01*
X148371699Y-109004000D01*
X148554301Y-109004000D01*
X148733396Y-108968376D01*
X148902099Y-108898496D01*
X148907500Y-108894887D01*
X148912901Y-108898496D01*
X149081604Y-108968376D01*
X149260699Y-109004000D01*
X149443301Y-109004000D01*
X149482355Y-108996232D01*
X149546504Y-109151099D01*
X149647952Y-109302928D01*
X149777072Y-109432048D01*
X149928901Y-109533496D01*
X150097604Y-109603376D01*
X150276699Y-109639000D01*
X150459301Y-109639000D01*
X150638396Y-109603376D01*
X150807099Y-109533496D01*
X150812500Y-109529887D01*
X150817901Y-109533496D01*
X150986604Y-109603376D01*
X151165699Y-109639000D01*
X151348301Y-109639000D01*
X151527396Y-109603376D01*
X151696099Y-109533496D01*
X151701500Y-109529887D01*
X151706901Y-109533496D01*
X151875604Y-109603376D01*
X152054699Y-109639000D01*
X152237301Y-109639000D01*
X152416396Y-109603376D01*
X152585099Y-109533496D01*
X152590500Y-109529887D01*
X152595901Y-109533496D01*
X152764604Y-109603376D01*
X152943699Y-109639000D01*
X153126301Y-109639000D01*
X153305396Y-109603376D01*
X153474099Y-109533496D01*
X153479500Y-109529887D01*
X153484901Y-109533496D01*
X153653604Y-109603376D01*
X153832699Y-109639000D01*
X154015301Y-109639000D01*
X154194396Y-109603376D01*
X154363099Y-109533496D01*
X154514928Y-109432048D01*
X154644048Y-109302928D01*
X154745496Y-109151099D01*
X154755478Y-109127000D01*
X187993766Y-109127000D01*
X188170189Y-109144376D01*
X188333850Y-109194022D01*
X188484672Y-109274638D01*
X188616870Y-109383130D01*
X188725362Y-109515328D01*
X188805978Y-109666150D01*
X188855624Y-109829811D01*
X188873000Y-110006234D01*
X188873000Y-127993766D01*
X188855624Y-128170189D01*
X188805978Y-128333850D01*
X188725362Y-128484672D01*
X188616870Y-128616870D01*
X188484672Y-128725362D01*
X188333850Y-128805978D01*
X188170189Y-128855624D01*
X187993766Y-128873000D01*
X146006234Y-128873000D01*
X145829811Y-128855624D01*
X145666150Y-128805978D01*
X145515328Y-128725362D01*
X145383130Y-128616870D01*
X145274638Y-128484672D01*
X145194022Y-128333850D01*
X145144376Y-128170189D01*
X145127000Y-127993766D01*
X145127000Y-121000000D01*
X145369966Y-121000000D01*
X145369966Y-128000000D01*
X145382072Y-128122914D01*
X145417924Y-128241104D01*
X145476146Y-128350028D01*
X145554499Y-128445501D01*
X145649972Y-128523854D01*
X145758896Y-128582076D01*
X145877086Y-128617928D01*
X146000000Y-128630034D01*
X149000000Y-128630034D01*
X149122914Y-128617928D01*
X149132564Y-128615001D01*
X149142213Y-128617928D01*
X149265127Y-128630034D01*
X162047319Y-128630034D01*
X162170233Y-128617928D01*
X162179882Y-128615001D01*
X162189531Y-128617928D01*
X162312445Y-128630034D01*
X175094637Y-128630034D01*
X175217551Y-128617928D01*
X175227200Y-128615001D01*
X175236849Y-128617928D01*
X175359763Y-128630034D01*
X188000000Y-128630034D01*
X188122914Y-128617928D01*
X188241104Y-128582076D01*
X188350028Y-128523854D01*
X188445501Y-128445501D01*
X188523854Y-128350028D01*
X188582076Y-128241104D01*
X188617928Y-128122914D01*
X188630034Y-128000000D01*
X188630034Y-121391212D01*
X188633000Y-121376301D01*
X188633000Y-121193699D01*
X188630034Y-121178788D01*
X188630034Y-121000000D01*
X188617928Y-120877086D01*
X188582076Y-120758896D01*
X188523854Y-120649972D01*
X188445501Y-120554499D01*
X188350028Y-120476146D01*
X188241104Y-120417924D01*
X188122914Y-120382072D01*
X188000000Y-120369966D01*
X187857458Y-120369966D01*
X187797301Y-120358000D01*
X187614699Y-120358000D01*
X187554542Y-120369966D01*
X175359763Y-120369966D01*
X175297221Y-120373078D01*
X175231367Y-120386263D01*
X175217551Y-120382072D01*
X175094637Y-120369966D01*
X173760458Y-120369966D01*
X173700301Y-120358000D01*
X173517699Y-120358000D01*
X173457542Y-120369966D01*
X162312445Y-120369966D01*
X162249903Y-120373078D01*
X162184049Y-120386263D01*
X162170233Y-120382072D01*
X162047319Y-120369966D01*
X160679458Y-120369966D01*
X160619301Y-120358000D01*
X160436699Y-120358000D01*
X160376542Y-120369966D01*
X149265127Y-120369966D01*
X149202585Y-120373078D01*
X149136730Y-120386263D01*
X149122914Y-120382072D01*
X149000000Y-120369966D01*
X146455458Y-120369966D01*
X146395301Y-120358000D01*
X146212699Y-120358000D01*
X146152542Y-120369966D01*
X146000000Y-120369966D01*
X145877086Y-120382072D01*
X145758896Y-120417924D01*
X145649972Y-120476146D01*
X145554499Y-120554499D01*
X145476146Y-120649972D01*
X145417924Y-120758896D01*
X145382072Y-120877086D01*
X145369966Y-121000000D01*
X145127000Y-121000000D01*
X145127000Y-114544280D01*
X145873000Y-114544280D01*
X145873000Y-115455720D01*
X146050813Y-116349646D01*
X146399606Y-117191706D01*
X146905974Y-117949541D01*
X147550459Y-118594026D01*
X148308294Y-119100394D01*
X149150354Y-119449187D01*
X150044280Y-119627000D01*
X150955720Y-119627000D01*
X151849646Y-119449187D01*
X152691706Y-119100394D01*
X153449541Y-118594026D01*
X154094026Y-117949541D01*
X154600394Y-117191706D01*
X154949187Y-116349646D01*
X155127000Y-115455720D01*
X155127000Y-114544280D01*
X156873000Y-114544280D01*
X156873000Y-115455720D01*
X157050813Y-116349646D01*
X157399606Y-117191706D01*
X157905974Y-117949541D01*
X158550459Y-118594026D01*
X159308294Y-119100394D01*
X160150354Y-119449187D01*
X161044280Y-119627000D01*
X161955720Y-119627000D01*
X162849646Y-119449187D01*
X163691706Y-119100394D01*
X164449541Y-118594026D01*
X165094026Y-117949541D01*
X165600394Y-117191706D01*
X165949187Y-116349646D01*
X166127000Y-115455720D01*
X166127000Y-114544280D01*
X167873000Y-114544280D01*
X167873000Y-115455720D01*
X168050813Y-116349646D01*
X168399606Y-117191706D01*
X168905974Y-117949541D01*
X169550459Y-118594026D01*
X170308294Y-119100394D01*
X171150354Y-119449187D01*
X172044280Y-119627000D01*
X172955720Y-119627000D01*
X173849646Y-119449187D01*
X174691706Y-119100394D01*
X175449541Y-118594026D01*
X176094026Y-117949541D01*
X176600394Y-117191706D01*
X176949187Y-116349646D01*
X177127000Y-115455720D01*
X177127000Y-114544280D01*
X178873000Y-114544280D01*
X178873000Y-115455720D01*
X179050813Y-116349646D01*
X179399606Y-117191706D01*
X179905974Y-117949541D01*
X180550459Y-118594026D01*
X181308294Y-119100394D01*
X182150354Y-119449187D01*
X183044280Y-119627000D01*
X183955720Y-119627000D01*
X184849646Y-119449187D01*
X185691706Y-119100394D01*
X186449541Y-118594026D01*
X187094026Y-117949541D01*
X187600394Y-117191706D01*
X187949187Y-116349646D01*
X188127000Y-115455720D01*
X188127000Y-114544280D01*
X187949187Y-113650354D01*
X187600394Y-112808294D01*
X187094026Y-112050459D01*
X186449541Y-111405974D01*
X185691706Y-110899606D01*
X184849646Y-110550813D01*
X183955720Y-110373000D01*
X183044280Y-110373000D01*
X182150354Y-110550813D01*
X181308294Y-110899606D01*
X180550459Y-111405974D01*
X179905974Y-112050459D01*
X179399606Y-112808294D01*
X179050813Y-113650354D01*
X178873000Y-114544280D01*
X177127000Y-114544280D01*
X176949187Y-113650354D01*
X176600394Y-112808294D01*
X176094026Y-112050459D01*
X175449541Y-111405974D01*
X174691706Y-110899606D01*
X173849646Y-110550813D01*
X172955720Y-110373000D01*
X172044280Y-110373000D01*
X171150354Y-110550813D01*
X170308294Y-110899606D01*
X169550459Y-111405974D01*
X168905974Y-112050459D01*
X168399606Y-112808294D01*
X168050813Y-113650354D01*
X167873000Y-114544280D01*
X166127000Y-114544280D01*
X165949187Y-113650354D01*
X165600394Y-112808294D01*
X165094026Y-112050459D01*
X164449541Y-111405974D01*
X163691706Y-110899606D01*
X162849646Y-110550813D01*
X161955720Y-110373000D01*
X161044280Y-110373000D01*
X160150354Y-110550813D01*
X159308294Y-110899606D01*
X158550459Y-111405974D01*
X157905974Y-112050459D01*
X157399606Y-112808294D01*
X157050813Y-113650354D01*
X156873000Y-114544280D01*
X155127000Y-114544280D01*
X154949187Y-113650354D01*
X154600394Y-112808294D01*
X154094026Y-112050459D01*
X153449541Y-111405974D01*
X152691706Y-110899606D01*
X151849646Y-110550813D01*
X150955720Y-110373000D01*
X150044280Y-110373000D01*
X149150354Y-110550813D01*
X148308294Y-110899606D01*
X147550459Y-111405974D01*
X146905974Y-112050459D01*
X146399606Y-112808294D01*
X146050813Y-113650354D01*
X145873000Y-114544280D01*
X145127000Y-114544280D01*
X145127000Y-97952699D01*
X147917000Y-97952699D01*
X147917000Y-98135301D01*
X147952624Y-98314396D01*
X148022504Y-98483099D01*
X148123952Y-98634928D01*
X148253072Y-98764048D01*
X148404901Y-98865496D01*
X148573604Y-98935376D01*
X148752699Y-98971000D01*
X148935301Y-98971000D01*
X149114396Y-98935376D01*
X149141114Y-98924309D01*
X155661245Y-98924309D01*
X155686295Y-98934685D01*
X155865390Y-98970309D01*
X156047992Y-98970309D01*
X156227087Y-98934685D01*
X156395790Y-98864805D01*
X156547619Y-98763357D01*
X156676739Y-98634237D01*
X156778187Y-98482408D01*
X156848067Y-98313705D01*
X156883691Y-98134610D01*
X156883691Y-97952008D01*
X156848067Y-97772913D01*
X156778187Y-97604210D01*
X156676739Y-97452381D01*
X156547619Y-97323261D01*
X156395790Y-97221813D01*
X156227087Y-97151933D01*
X156047992Y-97116309D01*
X155865390Y-97116309D01*
X155686295Y-97151933D01*
X155661245Y-97162309D01*
X149137777Y-97162309D01*
X149114396Y-97152624D01*
X148935301Y-97117000D01*
X148752699Y-97117000D01*
X148573604Y-97152624D01*
X148404901Y-97222504D01*
X148253072Y-97323952D01*
X148123952Y-97453072D01*
X148022504Y-97604901D01*
X147952624Y-97773604D01*
X147917000Y-97952699D01*
X145127000Y-97952699D01*
X145127000Y-90250618D01*
X150041589Y-85336030D01*
X158199654Y-85336030D01*
X158116032Y-85419652D01*
X158087263Y-85443262D01*
X158063652Y-85472032D01*
X158063651Y-85472033D01*
X157993039Y-85558074D01*
X157923026Y-85689061D01*
X157879910Y-85831191D01*
X157865353Y-85979000D01*
X157869001Y-86016041D01*
X157869000Y-87534385D01*
X157801504Y-87635401D01*
X157731624Y-87804104D01*
X157696000Y-87983199D01*
X157696000Y-88165801D01*
X157731624Y-88344896D01*
X157801504Y-88513599D01*
X157902952Y-88665428D01*
X158032072Y-88794548D01*
X158183901Y-88895996D01*
X158352604Y-88965876D01*
X158531699Y-89001500D01*
X158714301Y-89001500D01*
X158893396Y-88965876D01*
X159062099Y-88895996D01*
X159213928Y-88794548D01*
X159343048Y-88665428D01*
X159444496Y-88513599D01*
X159514376Y-88344896D01*
X159550000Y-88165801D01*
X159550000Y-87983199D01*
X159514376Y-87804104D01*
X159444496Y-87635401D01*
X159377000Y-87534385D01*
X159377000Y-86291316D01*
X159824277Y-85844040D01*
X163235889Y-85844040D01*
X163314223Y-85922374D01*
X163337838Y-85951149D01*
X163452649Y-86045372D01*
X163583637Y-86115386D01*
X163725766Y-86158501D01*
X163836537Y-86169411D01*
X163836547Y-86169411D01*
X163873575Y-86173058D01*
X163910604Y-86169411D01*
X164983440Y-86169411D01*
X165020471Y-86173058D01*
X165057502Y-86169411D01*
X165057510Y-86169411D01*
X165168281Y-86158501D01*
X165310410Y-86115386D01*
X165441398Y-86045372D01*
X165556209Y-85951149D01*
X165579824Y-85922374D01*
X166674179Y-84828020D01*
X180281704Y-84828020D01*
X181902927Y-86449244D01*
X181902927Y-86449244D01*
G37*
X181902927Y-86449244D02*
X181954588Y-86619549D01*
X181964116Y-86642550D01*
X182056526Y-86815437D01*
X182070358Y-86836138D01*
X182139747Y-86920689D01*
X182159952Y-86950928D01*
X182185669Y-86976645D01*
X182194721Y-86987675D01*
X182212325Y-87005279D01*
X182223355Y-87014331D01*
X182289072Y-87080048D01*
X182440901Y-87181496D01*
X182506647Y-87208729D01*
X182557450Y-87235884D01*
X182580451Y-87245412D01*
X182768044Y-87302317D01*
X182792462Y-87307173D01*
X182987552Y-87326388D01*
X183000000Y-87327000D01*
X187993766Y-87327000D01*
X188170189Y-87344376D01*
X188333850Y-87394022D01*
X188484672Y-87474638D01*
X188616870Y-87583130D01*
X188725362Y-87715328D01*
X188805978Y-87866150D01*
X188855624Y-88029811D01*
X188873000Y-88206234D01*
X188873000Y-98493766D01*
X188855624Y-98670189D01*
X188805978Y-98833850D01*
X188725362Y-98984672D01*
X188616870Y-99116870D01*
X188484672Y-99225362D01*
X188333850Y-99305978D01*
X188170189Y-99355624D01*
X187993766Y-99373000D01*
X181599654Y-99373000D01*
X181599654Y-98535984D01*
X181603055Y-98501453D01*
X181599654Y-98466922D01*
X181599654Y-98466913D01*
X181589479Y-98363603D01*
X181549269Y-98231049D01*
X181483972Y-98108887D01*
X181471382Y-98093546D01*
X181418115Y-98028640D01*
X181418111Y-98028636D01*
X181396096Y-98001811D01*
X181369273Y-97979798D01*
X179519200Y-96129726D01*
X179519200Y-94333776D01*
X179536048Y-94316928D01*
X179637496Y-94165099D01*
X179707376Y-93996396D01*
X179743000Y-93817301D01*
X179743000Y-93667200D01*
X180795253Y-93667200D01*
X180889952Y-93808928D01*
X181019072Y-93938048D01*
X181170901Y-94039496D01*
X181339604Y-94109376D01*
X181518699Y-94145000D01*
X181701301Y-94145000D01*
X181880396Y-94109376D01*
X181991000Y-94063562D01*
X182101604Y-94109376D01*
X182280699Y-94145000D01*
X182463301Y-94145000D01*
X182642396Y-94109376D01*
X182753000Y-94063562D01*
X182863604Y-94109376D01*
X183042699Y-94145000D01*
X183225301Y-94145000D01*
X183404396Y-94109376D01*
X183573099Y-94039496D01*
X183724928Y-93938048D01*
X183854048Y-93808928D01*
X183955496Y-93657099D01*
X184025376Y-93488396D01*
X184061000Y-93309301D01*
X184061000Y-93126699D01*
X184025376Y-92947604D01*
X183955496Y-92778901D01*
X183854048Y-92627072D01*
X183724928Y-92497952D01*
X183573099Y-92396504D01*
X183404396Y-92326624D01*
X183225301Y-92291000D01*
X183201475Y-92291000D01*
X182792045Y-91881571D01*
X182770023Y-91854737D01*
X182662947Y-91766862D01*
X182540785Y-91701565D01*
X182408231Y-91661355D01*
X182304921Y-91651180D01*
X182304911Y-91651180D01*
X182270380Y-91647779D01*
X182235849Y-91651180D01*
X178596531Y-91651180D01*
X178561999Y-91647779D01*
X178527468Y-91651180D01*
X178527459Y-91651180D01*
X178424149Y-91661355D01*
X178291595Y-91701565D01*
X178169433Y-91766862D01*
X178062357Y-91854737D01*
X178040334Y-91881572D01*
X177835187Y-92086719D01*
X177808358Y-92108737D01*
X177779532Y-92143861D01*
X177184365Y-92739029D01*
X177157536Y-92761047D01*
X177135518Y-92787876D01*
X177135517Y-92787877D01*
X177069660Y-92868123D01*
X177004363Y-92990286D01*
X176999611Y-93005952D01*
X176964153Y-93122839D01*
X176953978Y-93226149D01*
X176953978Y-93226159D01*
X176950577Y-93260690D01*
X176953978Y-93295221D01*
X176953978Y-93709326D01*
X175680966Y-94982339D01*
X175654136Y-95004358D01*
X175632118Y-95031187D01*
X175566261Y-95111433D01*
X175555214Y-95132101D01*
X175500964Y-95233596D01*
X175460754Y-95366150D01*
X175450579Y-95469460D01*
X175450579Y-95469469D01*
X175447178Y-95504000D01*
X175450579Y-95538531D01*
X175450580Y-99531700D01*
X175447178Y-99566241D01*
X175460755Y-99704092D01*
X175500964Y-99836645D01*
X175566261Y-99958808D01*
X175625723Y-100031262D01*
X175654137Y-100065884D01*
X175680966Y-100087902D01*
X176264097Y-100671034D01*
X176286116Y-100697864D01*
X176312945Y-100719882D01*
X176393191Y-100785739D01*
X176512258Y-100849381D01*
X176515354Y-100851036D01*
X176647908Y-100891246D01*
X176751218Y-100901421D01*
X176751220Y-100901421D01*
X176785759Y-100904823D01*
X176820298Y-100901421D01*
X177334011Y-100901421D01*
X177452370Y-101019781D01*
X177452371Y-104484468D01*
X177128470Y-104808370D01*
X167778844Y-104808370D01*
X167537698Y-104567224D01*
X167515675Y-104540389D01*
X167408599Y-104452514D01*
X167286437Y-104387217D01*
X167153883Y-104347007D01*
X167050573Y-104336832D01*
X167050563Y-104336832D01*
X167016032Y-104333431D01*
X166981501Y-104336832D01*
X165229898Y-104336832D01*
X165195367Y-104333431D01*
X165160836Y-104336832D01*
X165160827Y-104336832D01*
X165057517Y-104347007D01*
X164924963Y-104387217D01*
X164802801Y-104452514D01*
X164695725Y-104540389D01*
X164673707Y-104567218D01*
X164270525Y-104970400D01*
X164246699Y-104970400D01*
X164067604Y-105006024D01*
X163898901Y-105075904D01*
X163747072Y-105177352D01*
X163617952Y-105306472D01*
X163516504Y-105458301D01*
X163446624Y-105627004D01*
X163427569Y-105722800D01*
X150148541Y-105722800D01*
X150114000Y-105719398D01*
X149976149Y-105732975D01*
X149843595Y-105773185D01*
X149721432Y-105838482D01*
X149653732Y-105894043D01*
X149614357Y-105926357D01*
X149592339Y-105953186D01*
X148395526Y-107150000D01*
X148371699Y-107150000D01*
X148192604Y-107185624D01*
X148023901Y-107255504D01*
X147872072Y-107356952D01*
X147742952Y-107486072D01*
X147641504Y-107637901D01*
X147571624Y-107806604D01*
X147536000Y-107985699D01*
X147536000Y-108168301D01*
X147571624Y-108347396D01*
X147641504Y-108516099D01*
X147742952Y-108667928D01*
X147872072Y-108797048D01*
X148023901Y-108898496D01*
X148192604Y-108968376D01*
X148371699Y-109004000D01*
X148554301Y-109004000D01*
X148733396Y-108968376D01*
X148902099Y-108898496D01*
X148907500Y-108894887D01*
X148912901Y-108898496D01*
X149081604Y-108968376D01*
X149260699Y-109004000D01*
X149443301Y-109004000D01*
X149482355Y-108996232D01*
X149546504Y-109151099D01*
X149647952Y-109302928D01*
X149777072Y-109432048D01*
X149928901Y-109533496D01*
X150097604Y-109603376D01*
X150276699Y-109639000D01*
X150459301Y-109639000D01*
X150638396Y-109603376D01*
X150807099Y-109533496D01*
X150812500Y-109529887D01*
X150817901Y-109533496D01*
X150986604Y-109603376D01*
X151165699Y-109639000D01*
X151348301Y-109639000D01*
X151527396Y-109603376D01*
X151696099Y-109533496D01*
X151701500Y-109529887D01*
X151706901Y-109533496D01*
X151875604Y-109603376D01*
X152054699Y-109639000D01*
X152237301Y-109639000D01*
X152416396Y-109603376D01*
X152585099Y-109533496D01*
X152590500Y-109529887D01*
X152595901Y-109533496D01*
X152764604Y-109603376D01*
X152943699Y-109639000D01*
X153126301Y-109639000D01*
X153305396Y-109603376D01*
X153474099Y-109533496D01*
X153479500Y-109529887D01*
X153484901Y-109533496D01*
X153653604Y-109603376D01*
X153832699Y-109639000D01*
X154015301Y-109639000D01*
X154194396Y-109603376D01*
X154363099Y-109533496D01*
X154514928Y-109432048D01*
X154644048Y-109302928D01*
X154745496Y-109151099D01*
X154755478Y-109127000D01*
X187993766Y-109127000D01*
X188170189Y-109144376D01*
X188333850Y-109194022D01*
X188484672Y-109274638D01*
X188616870Y-109383130D01*
X188725362Y-109515328D01*
X188805978Y-109666150D01*
X188855624Y-109829811D01*
X188873000Y-110006234D01*
X188873000Y-127993766D01*
X188855624Y-128170189D01*
X188805978Y-128333850D01*
X188725362Y-128484672D01*
X188616870Y-128616870D01*
X188484672Y-128725362D01*
X188333850Y-128805978D01*
X188170189Y-128855624D01*
X187993766Y-128873000D01*
X146006234Y-128873000D01*
X145829811Y-128855624D01*
X145666150Y-128805978D01*
X145515328Y-128725362D01*
X145383130Y-128616870D01*
X145274638Y-128484672D01*
X145194022Y-128333850D01*
X145144376Y-128170189D01*
X145127000Y-127993766D01*
X145127000Y-121000000D01*
X145369966Y-121000000D01*
X145369966Y-128000000D01*
X145382072Y-128122914D01*
X145417924Y-128241104D01*
X145476146Y-128350028D01*
X145554499Y-128445501D01*
X145649972Y-128523854D01*
X145758896Y-128582076D01*
X145877086Y-128617928D01*
X146000000Y-128630034D01*
X149000000Y-128630034D01*
X149122914Y-128617928D01*
X149132564Y-128615001D01*
X149142213Y-128617928D01*
X149265127Y-128630034D01*
X162047319Y-128630034D01*
X162170233Y-128617928D01*
X162179882Y-128615001D01*
X162189531Y-128617928D01*
X162312445Y-128630034D01*
X175094637Y-128630034D01*
X175217551Y-128617928D01*
X175227200Y-128615001D01*
X175236849Y-128617928D01*
X175359763Y-128630034D01*
X188000000Y-128630034D01*
X188122914Y-128617928D01*
X188241104Y-128582076D01*
X188350028Y-128523854D01*
X188445501Y-128445501D01*
X188523854Y-128350028D01*
X188582076Y-128241104D01*
X188617928Y-128122914D01*
X188630034Y-128000000D01*
X188630034Y-121391212D01*
X188633000Y-121376301D01*
X188633000Y-121193699D01*
X188630034Y-121178788D01*
X188630034Y-121000000D01*
X188617928Y-120877086D01*
X188582076Y-120758896D01*
X188523854Y-120649972D01*
X188445501Y-120554499D01*
X188350028Y-120476146D01*
X188241104Y-120417924D01*
X188122914Y-120382072D01*
X188000000Y-120369966D01*
X187857458Y-120369966D01*
X187797301Y-120358000D01*
X187614699Y-120358000D01*
X187554542Y-120369966D01*
X175359763Y-120369966D01*
X175297221Y-120373078D01*
X175231367Y-120386263D01*
X175217551Y-120382072D01*
X175094637Y-120369966D01*
X173760458Y-120369966D01*
X173700301Y-120358000D01*
X173517699Y-120358000D01*
X173457542Y-120369966D01*
X162312445Y-120369966D01*
X162249903Y-120373078D01*
X162184049Y-120386263D01*
X162170233Y-120382072D01*
X162047319Y-120369966D01*
X160679458Y-120369966D01*
X160619301Y-120358000D01*
X160436699Y-120358000D01*
X160376542Y-120369966D01*
X149265127Y-120369966D01*
X149202585Y-120373078D01*
X149136730Y-120386263D01*
X149122914Y-120382072D01*
X149000000Y-120369966D01*
X146455458Y-120369966D01*
X146395301Y-120358000D01*
X146212699Y-120358000D01*
X146152542Y-120369966D01*
X146000000Y-120369966D01*
X145877086Y-120382072D01*
X145758896Y-120417924D01*
X145649972Y-120476146D01*
X145554499Y-120554499D01*
X145476146Y-120649972D01*
X145417924Y-120758896D01*
X145382072Y-120877086D01*
X145369966Y-121000000D01*
X145127000Y-121000000D01*
X145127000Y-114544280D01*
X145873000Y-114544280D01*
X145873000Y-115455720D01*
X146050813Y-116349646D01*
X146399606Y-117191706D01*
X146905974Y-117949541D01*
X147550459Y-118594026D01*
X148308294Y-119100394D01*
X149150354Y-119449187D01*
X150044280Y-119627000D01*
X150955720Y-119627000D01*
X151849646Y-119449187D01*
X152691706Y-119100394D01*
X153449541Y-118594026D01*
X154094026Y-117949541D01*
X154600394Y-117191706D01*
X154949187Y-116349646D01*
X155127000Y-115455720D01*
X155127000Y-114544280D01*
X156873000Y-114544280D01*
X156873000Y-115455720D01*
X157050813Y-116349646D01*
X157399606Y-117191706D01*
X157905974Y-117949541D01*
X158550459Y-118594026D01*
X159308294Y-119100394D01*
X160150354Y-119449187D01*
X161044280Y-119627000D01*
X161955720Y-119627000D01*
X162849646Y-119449187D01*
X163691706Y-119100394D01*
X164449541Y-118594026D01*
X165094026Y-117949541D01*
X165600394Y-117191706D01*
X165949187Y-116349646D01*
X166127000Y-115455720D01*
X166127000Y-114544280D01*
X167873000Y-114544280D01*
X167873000Y-115455720D01*
X168050813Y-116349646D01*
X168399606Y-117191706D01*
X168905974Y-117949541D01*
X169550459Y-118594026D01*
X170308294Y-119100394D01*
X171150354Y-119449187D01*
X172044280Y-119627000D01*
X172955720Y-119627000D01*
X173849646Y-119449187D01*
X174691706Y-119100394D01*
X175449541Y-118594026D01*
X176094026Y-117949541D01*
X176600394Y-117191706D01*
X176949187Y-116349646D01*
X177127000Y-115455720D01*
X177127000Y-114544280D01*
X178873000Y-114544280D01*
X178873000Y-115455720D01*
X179050813Y-116349646D01*
X179399606Y-117191706D01*
X179905974Y-117949541D01*
X180550459Y-118594026D01*
X181308294Y-119100394D01*
X182150354Y-119449187D01*
X183044280Y-119627000D01*
X183955720Y-119627000D01*
X184849646Y-119449187D01*
X185691706Y-119100394D01*
X186449541Y-118594026D01*
X187094026Y-117949541D01*
X187600394Y-117191706D01*
X187949187Y-116349646D01*
X188127000Y-115455720D01*
X188127000Y-114544280D01*
X187949187Y-113650354D01*
X187600394Y-112808294D01*
X187094026Y-112050459D01*
X186449541Y-111405974D01*
X185691706Y-110899606D01*
X184849646Y-110550813D01*
X183955720Y-110373000D01*
X183044280Y-110373000D01*
X182150354Y-110550813D01*
X181308294Y-110899606D01*
X180550459Y-111405974D01*
X179905974Y-112050459D01*
X179399606Y-112808294D01*
X179050813Y-113650354D01*
X178873000Y-114544280D01*
X177127000Y-114544280D01*
X176949187Y-113650354D01*
X176600394Y-112808294D01*
X176094026Y-112050459D01*
X175449541Y-111405974D01*
X174691706Y-110899606D01*
X173849646Y-110550813D01*
X172955720Y-110373000D01*
X172044280Y-110373000D01*
X171150354Y-110550813D01*
X170308294Y-110899606D01*
X169550459Y-111405974D01*
X168905974Y-112050459D01*
X168399606Y-112808294D01*
X168050813Y-113650354D01*
X167873000Y-114544280D01*
X166127000Y-114544280D01*
X165949187Y-113650354D01*
X165600394Y-112808294D01*
X165094026Y-112050459D01*
X164449541Y-111405974D01*
X163691706Y-110899606D01*
X162849646Y-110550813D01*
X161955720Y-110373000D01*
X161044280Y-110373000D01*
X160150354Y-110550813D01*
X159308294Y-110899606D01*
X158550459Y-111405974D01*
X157905974Y-112050459D01*
X157399606Y-112808294D01*
X157050813Y-113650354D01*
X156873000Y-114544280D01*
X155127000Y-114544280D01*
X154949187Y-113650354D01*
X154600394Y-112808294D01*
X154094026Y-112050459D01*
X153449541Y-111405974D01*
X152691706Y-110899606D01*
X151849646Y-110550813D01*
X150955720Y-110373000D01*
X150044280Y-110373000D01*
X149150354Y-110550813D01*
X148308294Y-110899606D01*
X147550459Y-111405974D01*
X146905974Y-112050459D01*
X146399606Y-112808294D01*
X146050813Y-113650354D01*
X145873000Y-114544280D01*
X145127000Y-114544280D01*
X145127000Y-97952699D01*
X147917000Y-97952699D01*
X147917000Y-98135301D01*
X147952624Y-98314396D01*
X148022504Y-98483099D01*
X148123952Y-98634928D01*
X148253072Y-98764048D01*
X148404901Y-98865496D01*
X148573604Y-98935376D01*
X148752699Y-98971000D01*
X148935301Y-98971000D01*
X149114396Y-98935376D01*
X149141114Y-98924309D01*
X155661245Y-98924309D01*
X155686295Y-98934685D01*
X155865390Y-98970309D01*
X156047992Y-98970309D01*
X156227087Y-98934685D01*
X156395790Y-98864805D01*
X156547619Y-98763357D01*
X156676739Y-98634237D01*
X156778187Y-98482408D01*
X156848067Y-98313705D01*
X156883691Y-98134610D01*
X156883691Y-97952008D01*
X156848067Y-97772913D01*
X156778187Y-97604210D01*
X156676739Y-97452381D01*
X156547619Y-97323261D01*
X156395790Y-97221813D01*
X156227087Y-97151933D01*
X156047992Y-97116309D01*
X155865390Y-97116309D01*
X155686295Y-97151933D01*
X155661245Y-97162309D01*
X149137777Y-97162309D01*
X149114396Y-97152624D01*
X148935301Y-97117000D01*
X148752699Y-97117000D01*
X148573604Y-97152624D01*
X148404901Y-97222504D01*
X148253072Y-97323952D01*
X148123952Y-97453072D01*
X148022504Y-97604901D01*
X147952624Y-97773604D01*
X147917000Y-97952699D01*
X145127000Y-97952699D01*
X145127000Y-90250618D01*
X150041589Y-85336030D01*
X158199654Y-85336030D01*
X158116032Y-85419652D01*
X158087263Y-85443262D01*
X158063652Y-85472032D01*
X158063651Y-85472033D01*
X157993039Y-85558074D01*
X157923026Y-85689061D01*
X157879910Y-85831191D01*
X157865353Y-85979000D01*
X157869001Y-86016041D01*
X157869000Y-87534385D01*
X157801504Y-87635401D01*
X157731624Y-87804104D01*
X157696000Y-87983199D01*
X157696000Y-88165801D01*
X157731624Y-88344896D01*
X157801504Y-88513599D01*
X157902952Y-88665428D01*
X158032072Y-88794548D01*
X158183901Y-88895996D01*
X158352604Y-88965876D01*
X158531699Y-89001500D01*
X158714301Y-89001500D01*
X158893396Y-88965876D01*
X159062099Y-88895996D01*
X159213928Y-88794548D01*
X159343048Y-88665428D01*
X159444496Y-88513599D01*
X159514376Y-88344896D01*
X159550000Y-88165801D01*
X159550000Y-87983199D01*
X159514376Y-87804104D01*
X159444496Y-87635401D01*
X159377000Y-87534385D01*
X159377000Y-86291316D01*
X159824277Y-85844040D01*
X163235889Y-85844040D01*
X163314223Y-85922374D01*
X163337838Y-85951149D01*
X163452649Y-86045372D01*
X163583637Y-86115386D01*
X163725766Y-86158501D01*
X163836537Y-86169411D01*
X163836547Y-86169411D01*
X163873575Y-86173058D01*
X163910604Y-86169411D01*
X164983440Y-86169411D01*
X165020471Y-86173058D01*
X165057502Y-86169411D01*
X165057510Y-86169411D01*
X165168281Y-86158501D01*
X165310410Y-86115386D01*
X165441398Y-86045372D01*
X165556209Y-85951149D01*
X165579824Y-85922374D01*
X166674179Y-84828020D01*
X180281704Y-84828020D01*
X181902927Y-86449244D01*
G04 #@! TD*
M02*
