G04 #@! TF.GenerationSoftware,KiCad,Pcbnew,5.0.2+dfsg1-1~bpo9+1*
G04 #@! TF.CreationDate,2019-04-10T18:13:28+03:00*
G04 #@! TF.ProjectId,kicad,6b696361-642e-46b6-9963-61645f706362,rev?*
G04 #@! TF.SameCoordinates,Original*
G04 #@! TF.FileFunction,Soldermask,Top*
G04 #@! TF.FilePolarity,Negative*
%FSLAX46Y46*%
G04 Gerber Fmt 4.6, Leading zero omitted, Abs format (unit mm)*
G04 Created by KiCad (PCBNEW 5.0.2+dfsg1-1~bpo9+1) date Wed 10 Apr 2019 06:13:28 PM MSK*
%MOMM*%
%LPD*%
G01*
G04 APERTURE LIST*
%ADD10C,0.100000*%
G04 APERTURE END LIST*
D10*
G36*
X115243907Y-121359079D02*
X114292307Y-121359079D01*
X114292307Y-119757479D01*
X115243907Y-119757479D01*
X115243907Y-121359079D01*
X115243907Y-121359079D01*
G37*
G36*
X133125692Y-121359079D02*
X132174092Y-121359079D01*
X132174092Y-119757479D01*
X133125692Y-119757479D01*
X133125692Y-121359079D01*
X133125692Y-121359079D01*
G37*
G36*
X134575692Y-121359079D02*
X133624092Y-121359079D01*
X133624092Y-119757479D01*
X134575692Y-119757479D01*
X134575692Y-121359079D01*
X134575692Y-121359079D01*
G37*
G36*
X113793907Y-121359079D02*
X112842307Y-121359079D01*
X112842307Y-119757479D01*
X113793907Y-119757479D01*
X113793907Y-121359079D01*
X113793907Y-121359079D01*
G37*
G36*
X119002368Y-121249719D02*
X118050768Y-121249719D01*
X118050768Y-119648119D01*
X119002368Y-119648119D01*
X119002368Y-121249719D01*
X119002368Y-121249719D01*
G37*
G36*
X130817231Y-121249719D02*
X129865631Y-121249719D01*
X129865631Y-119648119D01*
X130817231Y-119648119D01*
X130817231Y-121249719D01*
X130817231Y-121249719D01*
G37*
G36*
X117552368Y-121249719D02*
X116600768Y-121249719D01*
X116600768Y-119648119D01*
X117552368Y-119648119D01*
X117552368Y-121249719D01*
X117552368Y-121249719D01*
G37*
G36*
X129367231Y-121249719D02*
X128415631Y-121249719D01*
X128415631Y-119648119D01*
X129367231Y-119648119D01*
X129367231Y-121249719D01*
X129367231Y-121249719D01*
G37*
G36*
X111749512Y-119970845D02*
X110797912Y-119970845D01*
X110797912Y-118369245D01*
X111749512Y-118369245D01*
X111749512Y-119970845D01*
X111749512Y-119970845D01*
G37*
G36*
X110299512Y-119970845D02*
X109347912Y-119970845D01*
X109347912Y-118369245D01*
X110299512Y-118369245D01*
X110299512Y-119970845D01*
X110299512Y-119970845D01*
G37*
G36*
X136620087Y-119970845D02*
X135668487Y-119970845D01*
X135668487Y-118369245D01*
X136620087Y-118369245D01*
X136620087Y-119970845D01*
X136620087Y-119970845D01*
G37*
G36*
X138070087Y-119970845D02*
X137118487Y-119970845D01*
X137118487Y-118369245D01*
X138070087Y-118369245D01*
X138070087Y-119970845D01*
X138070087Y-119970845D01*
G37*
G36*
X120960133Y-119660652D02*
X120008533Y-119660652D01*
X120008533Y-118059052D01*
X120960133Y-118059052D01*
X120960133Y-119660652D01*
X120960133Y-119660652D01*
G37*
G36*
X122410133Y-119660652D02*
X121458533Y-119660652D01*
X121458533Y-118059052D01*
X122410133Y-118059052D01*
X122410133Y-119660652D01*
X122410133Y-119660652D01*
G37*
G36*
X127409466Y-119660652D02*
X126457866Y-119660652D01*
X126457866Y-118059052D01*
X127409466Y-118059052D01*
X127409466Y-119660652D01*
X127409466Y-119660652D01*
G37*
G36*
X125959466Y-119660652D02*
X125007866Y-119660652D01*
X125007866Y-118059052D01*
X125959466Y-118059052D01*
X125959466Y-119660652D01*
X125959466Y-119660652D01*
G37*
G36*
X140728845Y-117312087D02*
X139777245Y-117312087D01*
X139777245Y-115710487D01*
X140728845Y-115710487D01*
X140728845Y-117312087D01*
X140728845Y-117312087D01*
G37*
G36*
X139278845Y-117312087D02*
X138327245Y-117312087D01*
X138327245Y-115710487D01*
X139278845Y-115710487D01*
X139278845Y-117312087D01*
X139278845Y-117312087D01*
G37*
G36*
X109090754Y-117312087D02*
X108139154Y-117312087D01*
X108139154Y-115710487D01*
X109090754Y-115710487D01*
X109090754Y-117312087D01*
X109090754Y-117312087D01*
G37*
G36*
X107640754Y-117312087D02*
X106689154Y-117312087D01*
X106689154Y-115710487D01*
X107640754Y-115710487D01*
X107640754Y-117312087D01*
X107640754Y-117312087D01*
G37*
G36*
X123459800Y-116851800D02*
X122508200Y-116851800D01*
X122508200Y-115250200D01*
X123459800Y-115250200D01*
X123459800Y-116851800D01*
X123459800Y-116851800D01*
G37*
G36*
X124909800Y-116851800D02*
X123958200Y-116851800D01*
X123958200Y-115250200D01*
X124909800Y-115250200D01*
X124909800Y-116851800D01*
X124909800Y-116851800D01*
G37*
G36*
X142117079Y-113817692D02*
X141165479Y-113817692D01*
X141165479Y-112216092D01*
X142117079Y-112216092D01*
X142117079Y-113817692D01*
X142117079Y-113817692D01*
G37*
G36*
X107702520Y-113817692D02*
X106750920Y-113817692D01*
X106750920Y-112216092D01*
X107702520Y-112216092D01*
X107702520Y-113817692D01*
X107702520Y-113817692D01*
G37*
G36*
X106252520Y-113817692D02*
X105300920Y-113817692D01*
X105300920Y-112216092D01*
X106252520Y-112216092D01*
X106252520Y-113817692D01*
X106252520Y-113817692D01*
G37*
G36*
X140667079Y-113817692D02*
X139715479Y-113817692D01*
X139715479Y-112216092D01*
X140667079Y-112216092D01*
X140667079Y-113817692D01*
X140667079Y-113817692D01*
G37*
G36*
X123459800Y-113676799D02*
X122508200Y-113676799D01*
X122508200Y-112075199D01*
X123459800Y-112075199D01*
X123459800Y-113676799D01*
X123459800Y-113676799D01*
G37*
G36*
X124909800Y-113676799D02*
X123958200Y-113676799D01*
X123958200Y-112075199D01*
X124909800Y-112075199D01*
X124909800Y-113676799D01*
X124909800Y-113676799D01*
G37*
G36*
X123459800Y-110501800D02*
X122508200Y-110501800D01*
X122508200Y-108900200D01*
X123459800Y-108900200D01*
X123459800Y-110501800D01*
X123459800Y-110501800D01*
G37*
G36*
X124909800Y-110501800D02*
X123958200Y-110501800D01*
X123958200Y-108900200D01*
X124909800Y-108900200D01*
X124909800Y-110501800D01*
X124909800Y-110501800D01*
G37*
G36*
X106361880Y-110059231D02*
X105410280Y-110059231D01*
X105410280Y-108457631D01*
X106361880Y-108457631D01*
X106361880Y-110059231D01*
X106361880Y-110059231D01*
G37*
G36*
X140557719Y-110059231D02*
X139606119Y-110059231D01*
X139606119Y-108457631D01*
X140557719Y-108457631D01*
X140557719Y-110059231D01*
X140557719Y-110059231D01*
G37*
G36*
X107811880Y-110059231D02*
X106860280Y-110059231D01*
X106860280Y-108457631D01*
X107811880Y-108457631D01*
X107811880Y-110059231D01*
X107811880Y-110059231D01*
G37*
G36*
X142007719Y-110059231D02*
X141056119Y-110059231D01*
X141056119Y-108457631D01*
X142007719Y-108457631D01*
X142007719Y-110059231D01*
X142007719Y-110059231D01*
G37*
G36*
X124909800Y-107326800D02*
X123958200Y-107326800D01*
X123958200Y-105725200D01*
X124909800Y-105725200D01*
X124909800Y-107326800D01*
X124909800Y-107326800D01*
G37*
G36*
X123459800Y-107326800D02*
X122508200Y-107326800D01*
X122508200Y-105725200D01*
X123459800Y-105725200D01*
X123459800Y-107326800D01*
X123459800Y-107326800D01*
G37*
G36*
X140418652Y-106651466D02*
X139467052Y-106651466D01*
X139467052Y-105049866D01*
X140418652Y-105049866D01*
X140418652Y-106651466D01*
X140418652Y-106651466D01*
G37*
G36*
X109400947Y-106651466D02*
X108449347Y-106651466D01*
X108449347Y-105049866D01*
X109400947Y-105049866D01*
X109400947Y-106651466D01*
X109400947Y-106651466D01*
G37*
G36*
X138968652Y-106651466D02*
X138017052Y-106651466D01*
X138017052Y-105049866D01*
X138968652Y-105049866D01*
X138968652Y-106651466D01*
X138968652Y-106651466D01*
G37*
G36*
X107950947Y-106651466D02*
X106999347Y-106651466D01*
X106999347Y-105049866D01*
X107950947Y-105049866D01*
X107950947Y-106651466D01*
X107950947Y-106651466D01*
G37*
G36*
X123459800Y-104151800D02*
X122508200Y-104151800D01*
X122508200Y-102550200D01*
X123459800Y-102550200D01*
X123459800Y-104151800D01*
X123459800Y-104151800D01*
G37*
G36*
X110759800Y-104151800D02*
X109808200Y-104151800D01*
X109808200Y-102550200D01*
X110759800Y-102550200D01*
X110759800Y-104151800D01*
X110759800Y-104151800D01*
G37*
G36*
X112209800Y-104151800D02*
X111258200Y-104151800D01*
X111258200Y-102550200D01*
X112209800Y-102550200D01*
X112209800Y-104151800D01*
X112209800Y-104151800D01*
G37*
G36*
X113934800Y-104151800D02*
X112983200Y-104151800D01*
X112983200Y-102550200D01*
X113934800Y-102550200D01*
X113934800Y-104151800D01*
X113934800Y-104151800D01*
G37*
G36*
X115384800Y-104151800D02*
X114433200Y-104151800D01*
X114433200Y-102550200D01*
X115384800Y-102550200D01*
X115384800Y-104151800D01*
X115384800Y-104151800D01*
G37*
G36*
X117109800Y-104151800D02*
X116158200Y-104151800D01*
X116158200Y-102550200D01*
X117109800Y-102550200D01*
X117109800Y-104151800D01*
X117109800Y-104151800D01*
G37*
G36*
X118559800Y-104151800D02*
X117608200Y-104151800D01*
X117608200Y-102550200D01*
X118559800Y-102550200D01*
X118559800Y-104151800D01*
X118559800Y-104151800D01*
G37*
G36*
X120284800Y-104151800D02*
X119333200Y-104151800D01*
X119333200Y-102550200D01*
X120284800Y-102550200D01*
X120284800Y-104151800D01*
X120284800Y-104151800D01*
G37*
G36*
X121734800Y-104151800D02*
X120783200Y-104151800D01*
X120783200Y-102550200D01*
X121734800Y-102550200D01*
X121734800Y-104151800D01*
X121734800Y-104151800D01*
G37*
G36*
X131259800Y-104151800D02*
X130308200Y-104151800D01*
X130308200Y-102550200D01*
X131259800Y-102550200D01*
X131259800Y-104151800D01*
X131259800Y-104151800D01*
G37*
G36*
X132984800Y-104151800D02*
X132033200Y-104151800D01*
X132033200Y-102550200D01*
X132984800Y-102550200D01*
X132984800Y-104151800D01*
X132984800Y-104151800D01*
G37*
G36*
X126634800Y-104151800D02*
X125683200Y-104151800D01*
X125683200Y-102550200D01*
X126634800Y-102550200D01*
X126634800Y-104151800D01*
X126634800Y-104151800D01*
G37*
G36*
X137609800Y-104151800D02*
X136658200Y-104151800D01*
X136658200Y-102550200D01*
X137609800Y-102550200D01*
X137609800Y-104151800D01*
X137609800Y-104151800D01*
G37*
G36*
X124909800Y-104151800D02*
X123958200Y-104151800D01*
X123958200Y-102550200D01*
X124909800Y-102550200D01*
X124909800Y-104151800D01*
X124909800Y-104151800D01*
G37*
G36*
X129809800Y-104151800D02*
X128858200Y-104151800D01*
X128858200Y-102550200D01*
X129809800Y-102550200D01*
X129809800Y-104151800D01*
X129809800Y-104151800D01*
G37*
G36*
X136159800Y-104151800D02*
X135208200Y-104151800D01*
X135208200Y-102550200D01*
X136159800Y-102550200D01*
X136159800Y-104151800D01*
X136159800Y-104151800D01*
G37*
G36*
X134434800Y-104151800D02*
X133483200Y-104151800D01*
X133483200Y-102550200D01*
X134434800Y-102550200D01*
X134434800Y-104151800D01*
X134434800Y-104151800D01*
G37*
G36*
X128084800Y-104151800D02*
X127133200Y-104151800D01*
X127133200Y-102550200D01*
X128084800Y-102550200D01*
X128084800Y-104151800D01*
X128084800Y-104151800D01*
G37*
G36*
X140418652Y-101652133D02*
X139467052Y-101652133D01*
X139467052Y-100050533D01*
X140418652Y-100050533D01*
X140418652Y-101652133D01*
X140418652Y-101652133D01*
G37*
G36*
X138968652Y-101652133D02*
X138017052Y-101652133D01*
X138017052Y-100050533D01*
X138968652Y-100050533D01*
X138968652Y-101652133D01*
X138968652Y-101652133D01*
G37*
G36*
X109400947Y-101652133D02*
X108449347Y-101652133D01*
X108449347Y-100050533D01*
X109400947Y-100050533D01*
X109400947Y-101652133D01*
X109400947Y-101652133D01*
G37*
G36*
X107950947Y-101652133D02*
X106999347Y-101652133D01*
X106999347Y-100050533D01*
X107950947Y-100050533D01*
X107950947Y-101652133D01*
X107950947Y-101652133D01*
G37*
G36*
X123459800Y-100976800D02*
X122508200Y-100976800D01*
X122508200Y-99375200D01*
X123459800Y-99375200D01*
X123459800Y-100976800D01*
X123459800Y-100976800D01*
G37*
G36*
X124909800Y-100976800D02*
X123958200Y-100976800D01*
X123958200Y-99375200D01*
X124909800Y-99375200D01*
X124909800Y-100976800D01*
X124909800Y-100976800D01*
G37*
G36*
X142007719Y-98244368D02*
X141056119Y-98244368D01*
X141056119Y-96642768D01*
X142007719Y-96642768D01*
X142007719Y-98244368D01*
X142007719Y-98244368D01*
G37*
G36*
X106361880Y-98244368D02*
X105410280Y-98244368D01*
X105410280Y-96642768D01*
X106361880Y-96642768D01*
X106361880Y-98244368D01*
X106361880Y-98244368D01*
G37*
G36*
X107811880Y-98244368D02*
X106860280Y-98244368D01*
X106860280Y-96642768D01*
X107811880Y-96642768D01*
X107811880Y-98244368D01*
X107811880Y-98244368D01*
G37*
G36*
X140557719Y-98244368D02*
X139606119Y-98244368D01*
X139606119Y-96642768D01*
X140557719Y-96642768D01*
X140557719Y-98244368D01*
X140557719Y-98244368D01*
G37*
G36*
X124909800Y-97801800D02*
X123958200Y-97801800D01*
X123958200Y-96200200D01*
X124909800Y-96200200D01*
X124909800Y-97801800D01*
X124909800Y-97801800D01*
G37*
G36*
X123459800Y-97801800D02*
X122508200Y-97801800D01*
X122508200Y-96200200D01*
X123459800Y-96200200D01*
X123459800Y-97801800D01*
X123459800Y-97801800D01*
G37*
G36*
X123459800Y-94626800D02*
X122508200Y-94626800D01*
X122508200Y-93025200D01*
X123459800Y-93025200D01*
X123459800Y-94626800D01*
X123459800Y-94626800D01*
G37*
G36*
X124909800Y-94626800D02*
X123958200Y-94626800D01*
X123958200Y-93025200D01*
X124909800Y-93025200D01*
X124909800Y-94626800D01*
X124909800Y-94626800D01*
G37*
G36*
X142117079Y-94485907D02*
X141165479Y-94485907D01*
X141165479Y-92884307D01*
X142117079Y-92884307D01*
X142117079Y-94485907D01*
X142117079Y-94485907D01*
G37*
G36*
X107702520Y-94485907D02*
X106750920Y-94485907D01*
X106750920Y-92884307D01*
X107702520Y-92884307D01*
X107702520Y-94485907D01*
X107702520Y-94485907D01*
G37*
G36*
X140667079Y-94485907D02*
X139715479Y-94485907D01*
X139715479Y-92884307D01*
X140667079Y-92884307D01*
X140667079Y-94485907D01*
X140667079Y-94485907D01*
G37*
G36*
X106252520Y-94485907D02*
X105300920Y-94485907D01*
X105300920Y-92884307D01*
X106252520Y-92884307D01*
X106252520Y-94485907D01*
X106252520Y-94485907D01*
G37*
G36*
X124909800Y-91451800D02*
X123958200Y-91451800D01*
X123958200Y-89850200D01*
X124909800Y-89850200D01*
X124909800Y-91451800D01*
X124909800Y-91451800D01*
G37*
G36*
X123459800Y-91451800D02*
X122508200Y-91451800D01*
X122508200Y-89850200D01*
X123459800Y-89850200D01*
X123459800Y-91451800D01*
X123459800Y-91451800D01*
G37*
G36*
X107640754Y-90991512D02*
X106689154Y-90991512D01*
X106689154Y-89389912D01*
X107640754Y-89389912D01*
X107640754Y-90991512D01*
X107640754Y-90991512D01*
G37*
G36*
X109090754Y-90991512D02*
X108139154Y-90991512D01*
X108139154Y-89389912D01*
X109090754Y-89389912D01*
X109090754Y-90991512D01*
X109090754Y-90991512D01*
G37*
G36*
X140728845Y-90991512D02*
X139777245Y-90991512D01*
X139777245Y-89389912D01*
X140728845Y-89389912D01*
X140728845Y-90991512D01*
X140728845Y-90991512D01*
G37*
G36*
X139278845Y-90991512D02*
X138327245Y-90991512D01*
X138327245Y-89389912D01*
X139278845Y-89389912D01*
X139278845Y-90991512D01*
X139278845Y-90991512D01*
G37*
G36*
X120960133Y-88642947D02*
X120008533Y-88642947D01*
X120008533Y-87041347D01*
X120960133Y-87041347D01*
X120960133Y-88642947D01*
X120960133Y-88642947D01*
G37*
G36*
X127409466Y-88642947D02*
X126457866Y-88642947D01*
X126457866Y-87041347D01*
X127409466Y-87041347D01*
X127409466Y-88642947D01*
X127409466Y-88642947D01*
G37*
G36*
X125959466Y-88642947D02*
X125007866Y-88642947D01*
X125007866Y-87041347D01*
X125959466Y-87041347D01*
X125959466Y-88642947D01*
X125959466Y-88642947D01*
G37*
G36*
X122410133Y-88642947D02*
X121458533Y-88642947D01*
X121458533Y-87041347D01*
X122410133Y-87041347D01*
X122410133Y-88642947D01*
X122410133Y-88642947D01*
G37*
G36*
X110299512Y-88332754D02*
X109347912Y-88332754D01*
X109347912Y-86731154D01*
X110299512Y-86731154D01*
X110299512Y-88332754D01*
X110299512Y-88332754D01*
G37*
G36*
X138070087Y-88332754D02*
X137118487Y-88332754D01*
X137118487Y-86731154D01*
X138070087Y-86731154D01*
X138070087Y-88332754D01*
X138070087Y-88332754D01*
G37*
G36*
X136620087Y-88332754D02*
X135668487Y-88332754D01*
X135668487Y-86731154D01*
X136620087Y-86731154D01*
X136620087Y-88332754D01*
X136620087Y-88332754D01*
G37*
G36*
X111749512Y-88332754D02*
X110797912Y-88332754D01*
X110797912Y-86731154D01*
X111749512Y-86731154D01*
X111749512Y-88332754D01*
X111749512Y-88332754D01*
G37*
G36*
X117552368Y-87053880D02*
X116600768Y-87053880D01*
X116600768Y-85452280D01*
X117552368Y-85452280D01*
X117552368Y-87053880D01*
X117552368Y-87053880D01*
G37*
G36*
X119002368Y-87053880D02*
X118050768Y-87053880D01*
X118050768Y-85452280D01*
X119002368Y-85452280D01*
X119002368Y-87053880D01*
X119002368Y-87053880D01*
G37*
G36*
X129367231Y-87053880D02*
X128415631Y-87053880D01*
X128415631Y-85452280D01*
X129367231Y-85452280D01*
X129367231Y-87053880D01*
X129367231Y-87053880D01*
G37*
G36*
X130817231Y-87053880D02*
X129865631Y-87053880D01*
X129865631Y-85452280D01*
X130817231Y-85452280D01*
X130817231Y-87053880D01*
X130817231Y-87053880D01*
G37*
G36*
X133125692Y-86944520D02*
X132174092Y-86944520D01*
X132174092Y-85342920D01*
X133125692Y-85342920D01*
X133125692Y-86944520D01*
X133125692Y-86944520D01*
G37*
G36*
X113793907Y-86944520D02*
X112842307Y-86944520D01*
X112842307Y-85342920D01*
X113793907Y-85342920D01*
X113793907Y-86944520D01*
X113793907Y-86944520D01*
G37*
G36*
X115243907Y-86944520D02*
X114292307Y-86944520D01*
X114292307Y-85342920D01*
X115243907Y-85342920D01*
X115243907Y-86944520D01*
X115243907Y-86944520D01*
G37*
G36*
X134575692Y-86944520D02*
X133624092Y-86944520D01*
X133624092Y-85342920D01*
X134575692Y-85342920D01*
X134575692Y-86944520D01*
X134575692Y-86944520D01*
G37*
M02*
