G04 #@! TF.GenerationSoftware,KiCad,Pcbnew,5.0.2+dfsg1-1~bpo9+1*
G04 #@! TF.CreationDate,2019-04-13T13:24:29+03:00*
G04 #@! TF.ProjectId,kicad,6b696361-642e-46b6-9963-61645f706362,rev?*
G04 #@! TF.SameCoordinates,Original*
G04 #@! TF.FileFunction,Soldermask,Bot*
G04 #@! TF.FilePolarity,Negative*
%FSLAX46Y46*%
G04 Gerber Fmt 4.6, Leading zero omitted, Abs format (unit mm)*
G04 Created by KiCad (PCBNEW 5.0.2+dfsg1-1~bpo9+1) date Sat 13 Apr 2019 01:24:29 PM MSK*
%MOMM*%
%LPD*%
G01*
G04 APERTURE LIST*
%ADD10C,0.100000*%
G04 APERTURE END LIST*
D10*
G36*
X144907000Y-106807000D02*
X146685000Y-106807000D01*
X146685000Y-108077000D01*
X144907000Y-108077000D01*
X144907000Y-106807000D01*
G37*
G36*
X146484800Y-108682000D02*
X145084000Y-108682000D01*
X145084000Y-108051200D01*
X146484800Y-108051200D01*
X146484800Y-108682000D01*
X146484800Y-108682000D01*
G37*
G36*
X147274800Y-108392000D02*
X146644000Y-108392000D01*
X146644000Y-106491200D01*
X147274800Y-106491200D01*
X147274800Y-108392000D01*
X147274800Y-108392000D01*
G37*
G36*
X144924800Y-108392000D02*
X144294000Y-108392000D01*
X144294000Y-106491200D01*
X144924800Y-106491200D01*
X144924800Y-108392000D01*
X144924800Y-108392000D01*
G37*
G36*
X148558356Y-106323148D02*
X148599422Y-106335605D01*
X148637267Y-106355833D01*
X148670441Y-106383059D01*
X148697667Y-106416233D01*
X148717895Y-106454078D01*
X148730352Y-106495144D01*
X148734800Y-106540304D01*
X148734800Y-107073696D01*
X148730352Y-107118856D01*
X148717895Y-107159922D01*
X148697667Y-107197767D01*
X148670441Y-107230941D01*
X148637267Y-107258167D01*
X148599422Y-107278395D01*
X148558356Y-107290852D01*
X148513196Y-107295300D01*
X147904804Y-107295300D01*
X147859644Y-107290852D01*
X147818578Y-107278395D01*
X147780733Y-107258167D01*
X147747559Y-107230941D01*
X147720333Y-107197767D01*
X147700105Y-107159922D01*
X147687648Y-107118856D01*
X147683200Y-107073696D01*
X147683200Y-106540304D01*
X147687648Y-106495144D01*
X147700105Y-106454078D01*
X147720333Y-106416233D01*
X147747559Y-106383059D01*
X147780733Y-106355833D01*
X147818578Y-106335605D01*
X147859644Y-106323148D01*
X147904804Y-106318700D01*
X148513196Y-106318700D01*
X148558356Y-106323148D01*
X148558356Y-106323148D01*
G37*
G36*
X150082356Y-106323148D02*
X150123422Y-106335605D01*
X150161267Y-106355833D01*
X150194441Y-106383059D01*
X150221667Y-106416233D01*
X150241895Y-106454078D01*
X150254352Y-106495144D01*
X150258800Y-106540304D01*
X150258800Y-107073696D01*
X150254352Y-107118856D01*
X150241895Y-107159922D01*
X150221667Y-107197767D01*
X150194441Y-107230941D01*
X150161267Y-107258167D01*
X150123422Y-107278395D01*
X150082356Y-107290852D01*
X150037196Y-107295300D01*
X149428804Y-107295300D01*
X149383644Y-107290852D01*
X149342578Y-107278395D01*
X149304733Y-107258167D01*
X149271559Y-107230941D01*
X149244333Y-107197767D01*
X149224105Y-107159922D01*
X149211648Y-107118856D01*
X149207200Y-107073696D01*
X149207200Y-106540304D01*
X149211648Y-106495144D01*
X149224105Y-106454078D01*
X149244333Y-106416233D01*
X149271559Y-106383059D01*
X149304733Y-106355833D01*
X149342578Y-106335605D01*
X149383644Y-106323148D01*
X149428804Y-106318700D01*
X150037196Y-106318700D01*
X150082356Y-106323148D01*
X150082356Y-106323148D01*
G37*
G36*
X146484800Y-106832000D02*
X145084000Y-106832000D01*
X145084000Y-106201200D01*
X146484800Y-106201200D01*
X146484800Y-106832000D01*
X146484800Y-106832000D01*
G37*
G36*
X152027800Y-106683800D02*
X151026200Y-106683800D01*
X151026200Y-105782200D01*
X152027800Y-105782200D01*
X152027800Y-106683800D01*
X152027800Y-106683800D01*
G37*
G36*
X146996856Y-104761648D02*
X147037922Y-104774105D01*
X147075767Y-104794333D01*
X147108941Y-104821559D01*
X147136167Y-104854733D01*
X147156395Y-104892578D01*
X147168852Y-104933644D01*
X147173300Y-104978804D01*
X147173300Y-105587196D01*
X147168852Y-105632356D01*
X147156395Y-105673422D01*
X147136167Y-105711267D01*
X147108941Y-105744441D01*
X147075767Y-105771667D01*
X147037922Y-105791895D01*
X146996856Y-105804352D01*
X146951696Y-105808800D01*
X146418304Y-105808800D01*
X146373144Y-105804352D01*
X146332078Y-105791895D01*
X146294233Y-105771667D01*
X146261059Y-105744441D01*
X146233833Y-105711267D01*
X146213605Y-105673422D01*
X146201148Y-105632356D01*
X146196700Y-105587196D01*
X146196700Y-104978804D01*
X146201148Y-104933644D01*
X146213605Y-104892578D01*
X146233833Y-104854733D01*
X146261059Y-104821559D01*
X146294233Y-104794333D01*
X146332078Y-104774105D01*
X146373144Y-104761648D01*
X146418304Y-104757200D01*
X146951696Y-104757200D01*
X146996856Y-104761648D01*
X146996856Y-104761648D01*
G37*
G36*
X145421856Y-104761648D02*
X145462922Y-104774105D01*
X145500767Y-104794333D01*
X145533941Y-104821559D01*
X145561167Y-104854733D01*
X145581395Y-104892578D01*
X145593852Y-104933644D01*
X145598300Y-104978804D01*
X145598300Y-105587196D01*
X145593852Y-105632356D01*
X145581395Y-105673422D01*
X145561167Y-105711267D01*
X145533941Y-105744441D01*
X145500767Y-105771667D01*
X145462922Y-105791895D01*
X145421856Y-105804352D01*
X145376696Y-105808800D01*
X144843304Y-105808800D01*
X144798144Y-105804352D01*
X144757078Y-105791895D01*
X144719233Y-105771667D01*
X144686059Y-105744441D01*
X144658833Y-105711267D01*
X144638605Y-105673422D01*
X144626148Y-105632356D01*
X144621700Y-105587196D01*
X144621700Y-104978804D01*
X144626148Y-104933644D01*
X144638605Y-104892578D01*
X144658833Y-104854733D01*
X144686059Y-104821559D01*
X144719233Y-104794333D01*
X144757078Y-104774105D01*
X144798144Y-104761648D01*
X144843304Y-104757200D01*
X145376696Y-104757200D01*
X145421856Y-104761648D01*
X145421856Y-104761648D01*
G37*
G36*
X154027800Y-105733800D02*
X153026200Y-105733800D01*
X153026200Y-104832200D01*
X154027800Y-104832200D01*
X154027800Y-105733800D01*
X154027800Y-105733800D01*
G37*
G36*
X148558356Y-104748148D02*
X148599422Y-104760605D01*
X148637267Y-104780833D01*
X148670441Y-104808059D01*
X148697667Y-104841233D01*
X148717895Y-104879078D01*
X148730352Y-104920144D01*
X148734800Y-104965304D01*
X148734800Y-105498696D01*
X148730352Y-105543856D01*
X148717895Y-105584922D01*
X148697667Y-105622767D01*
X148670441Y-105655941D01*
X148637267Y-105683167D01*
X148599422Y-105703395D01*
X148558356Y-105715852D01*
X148513196Y-105720300D01*
X147904804Y-105720300D01*
X147859644Y-105715852D01*
X147818578Y-105703395D01*
X147780733Y-105683167D01*
X147747559Y-105655941D01*
X147720333Y-105622767D01*
X147700105Y-105584922D01*
X147687648Y-105543856D01*
X147683200Y-105498696D01*
X147683200Y-104965304D01*
X147687648Y-104920144D01*
X147700105Y-104879078D01*
X147720333Y-104841233D01*
X147747559Y-104808059D01*
X147780733Y-104780833D01*
X147818578Y-104760605D01*
X147859644Y-104748148D01*
X147904804Y-104743700D01*
X148513196Y-104743700D01*
X148558356Y-104748148D01*
X148558356Y-104748148D01*
G37*
G36*
X150082356Y-104748148D02*
X150123422Y-104760605D01*
X150161267Y-104780833D01*
X150194441Y-104808059D01*
X150221667Y-104841233D01*
X150241895Y-104879078D01*
X150254352Y-104920144D01*
X150258800Y-104965304D01*
X150258800Y-105498696D01*
X150254352Y-105543856D01*
X150241895Y-105584922D01*
X150221667Y-105622767D01*
X150194441Y-105655941D01*
X150161267Y-105683167D01*
X150123422Y-105703395D01*
X150082356Y-105715852D01*
X150037196Y-105720300D01*
X149428804Y-105720300D01*
X149383644Y-105715852D01*
X149342578Y-105703395D01*
X149304733Y-105683167D01*
X149271559Y-105655941D01*
X149244333Y-105622767D01*
X149224105Y-105584922D01*
X149211648Y-105543856D01*
X149207200Y-105498696D01*
X149207200Y-104965304D01*
X149211648Y-104920144D01*
X149224105Y-104879078D01*
X149244333Y-104841233D01*
X149271559Y-104808059D01*
X149304733Y-104780833D01*
X149342578Y-104760605D01*
X149383644Y-104748148D01*
X149428804Y-104743700D01*
X150037196Y-104743700D01*
X150082356Y-104748148D01*
X150082356Y-104748148D01*
G37*
G36*
X177133356Y-104723148D02*
X177174422Y-104735605D01*
X177212267Y-104755833D01*
X177245441Y-104783059D01*
X177272667Y-104816233D01*
X177292895Y-104854078D01*
X177305352Y-104895144D01*
X177309800Y-104940304D01*
X177309800Y-105473696D01*
X177305352Y-105518856D01*
X177292895Y-105559922D01*
X177272667Y-105597767D01*
X177245441Y-105630941D01*
X177212267Y-105658167D01*
X177174422Y-105678395D01*
X177133356Y-105690852D01*
X177088196Y-105695300D01*
X176479804Y-105695300D01*
X176434644Y-105690852D01*
X176393578Y-105678395D01*
X176355733Y-105658167D01*
X176322559Y-105630941D01*
X176295333Y-105597767D01*
X176275105Y-105559922D01*
X176262648Y-105518856D01*
X176258200Y-105473696D01*
X176258200Y-104940304D01*
X176262648Y-104895144D01*
X176275105Y-104854078D01*
X176295333Y-104816233D01*
X176322559Y-104783059D01*
X176355733Y-104755833D01*
X176393578Y-104735605D01*
X176434644Y-104723148D01*
X176479804Y-104718700D01*
X177088196Y-104718700D01*
X177133356Y-104723148D01*
X177133356Y-104723148D01*
G37*
G36*
X178657356Y-104723148D02*
X178698422Y-104735605D01*
X178736267Y-104755833D01*
X178769441Y-104783059D01*
X178796667Y-104816233D01*
X178816895Y-104854078D01*
X178829352Y-104895144D01*
X178833800Y-104940304D01*
X178833800Y-105473696D01*
X178829352Y-105518856D01*
X178816895Y-105559922D01*
X178796667Y-105597767D01*
X178769441Y-105630941D01*
X178736267Y-105658167D01*
X178698422Y-105678395D01*
X178657356Y-105690852D01*
X178612196Y-105695300D01*
X178003804Y-105695300D01*
X177958644Y-105690852D01*
X177917578Y-105678395D01*
X177879733Y-105658167D01*
X177846559Y-105630941D01*
X177819333Y-105597767D01*
X177799105Y-105559922D01*
X177786648Y-105518856D01*
X177782200Y-105473696D01*
X177782200Y-104940304D01*
X177786648Y-104895144D01*
X177799105Y-104854078D01*
X177819333Y-104816233D01*
X177846559Y-104783059D01*
X177879733Y-104755833D01*
X177917578Y-104735605D01*
X177958644Y-104723148D01*
X178003804Y-104718700D01*
X178612196Y-104718700D01*
X178657356Y-104723148D01*
X178657356Y-104723148D01*
G37*
G36*
X175609356Y-104723148D02*
X175650422Y-104735605D01*
X175688267Y-104755833D01*
X175721441Y-104783059D01*
X175748667Y-104816233D01*
X175768895Y-104854078D01*
X175781352Y-104895144D01*
X175785800Y-104940304D01*
X175785800Y-105473696D01*
X175781352Y-105518856D01*
X175768895Y-105559922D01*
X175748667Y-105597767D01*
X175721441Y-105630941D01*
X175688267Y-105658167D01*
X175650422Y-105678395D01*
X175609356Y-105690852D01*
X175564196Y-105695300D01*
X174955804Y-105695300D01*
X174910644Y-105690852D01*
X174869578Y-105678395D01*
X174831733Y-105658167D01*
X174798559Y-105630941D01*
X174771333Y-105597767D01*
X174751105Y-105559922D01*
X174738648Y-105518856D01*
X174734200Y-105473696D01*
X174734200Y-104940304D01*
X174738648Y-104895144D01*
X174751105Y-104854078D01*
X174771333Y-104816233D01*
X174798559Y-104783059D01*
X174831733Y-104755833D01*
X174869578Y-104735605D01*
X174910644Y-104723148D01*
X174955804Y-104718700D01*
X175564196Y-104718700D01*
X175609356Y-104723148D01*
X175609356Y-104723148D01*
G37*
G36*
X174085356Y-104723148D02*
X174126422Y-104735605D01*
X174164267Y-104755833D01*
X174197441Y-104783059D01*
X174224667Y-104816233D01*
X174244895Y-104854078D01*
X174257352Y-104895144D01*
X174261800Y-104940304D01*
X174261800Y-105473696D01*
X174257352Y-105518856D01*
X174244895Y-105559922D01*
X174224667Y-105597767D01*
X174197441Y-105630941D01*
X174164267Y-105658167D01*
X174126422Y-105678395D01*
X174085356Y-105690852D01*
X174040196Y-105695300D01*
X173431804Y-105695300D01*
X173386644Y-105690852D01*
X173345578Y-105678395D01*
X173307733Y-105658167D01*
X173274559Y-105630941D01*
X173247333Y-105597767D01*
X173227105Y-105559922D01*
X173214648Y-105518856D01*
X173210200Y-105473696D01*
X173210200Y-104940304D01*
X173214648Y-104895144D01*
X173227105Y-104854078D01*
X173247333Y-104816233D01*
X173274559Y-104783059D01*
X173307733Y-104755833D01*
X173345578Y-104735605D01*
X173386644Y-104723148D01*
X173431804Y-104718700D01*
X174040196Y-104718700D01*
X174085356Y-104723148D01*
X174085356Y-104723148D01*
G37*
G36*
X152027800Y-104783800D02*
X151026200Y-104783800D01*
X151026200Y-103882200D01*
X152027800Y-103882200D01*
X152027800Y-104783800D01*
X152027800Y-104783800D01*
G37*
G36*
X178657356Y-103148148D02*
X178698422Y-103160605D01*
X178736267Y-103180833D01*
X178769441Y-103208059D01*
X178796667Y-103241233D01*
X178816895Y-103279078D01*
X178829352Y-103320144D01*
X178833800Y-103365304D01*
X178833800Y-103898696D01*
X178829352Y-103943856D01*
X178816895Y-103984922D01*
X178796667Y-104022767D01*
X178769441Y-104055941D01*
X178736267Y-104083167D01*
X178698422Y-104103395D01*
X178657356Y-104115852D01*
X178612196Y-104120300D01*
X178003804Y-104120300D01*
X177958644Y-104115852D01*
X177917578Y-104103395D01*
X177879733Y-104083167D01*
X177846559Y-104055941D01*
X177819333Y-104022767D01*
X177799105Y-103984922D01*
X177786648Y-103943856D01*
X177782200Y-103898696D01*
X177782200Y-103365304D01*
X177786648Y-103320144D01*
X177799105Y-103279078D01*
X177819333Y-103241233D01*
X177846559Y-103208059D01*
X177879733Y-103180833D01*
X177917578Y-103160605D01*
X177958644Y-103148148D01*
X178003804Y-103143700D01*
X178612196Y-103143700D01*
X178657356Y-103148148D01*
X178657356Y-103148148D01*
G37*
G36*
X177133356Y-103148148D02*
X177174422Y-103160605D01*
X177212267Y-103180833D01*
X177245441Y-103208059D01*
X177272667Y-103241233D01*
X177292895Y-103279078D01*
X177305352Y-103320144D01*
X177309800Y-103365304D01*
X177309800Y-103898696D01*
X177305352Y-103943856D01*
X177292895Y-103984922D01*
X177272667Y-104022767D01*
X177245441Y-104055941D01*
X177212267Y-104083167D01*
X177174422Y-104103395D01*
X177133356Y-104115852D01*
X177088196Y-104120300D01*
X176479804Y-104120300D01*
X176434644Y-104115852D01*
X176393578Y-104103395D01*
X176355733Y-104083167D01*
X176322559Y-104055941D01*
X176295333Y-104022767D01*
X176275105Y-103984922D01*
X176262648Y-103943856D01*
X176258200Y-103898696D01*
X176258200Y-103365304D01*
X176262648Y-103320144D01*
X176275105Y-103279078D01*
X176295333Y-103241233D01*
X176322559Y-103208059D01*
X176355733Y-103180833D01*
X176393578Y-103160605D01*
X176434644Y-103148148D01*
X176479804Y-103143700D01*
X177088196Y-103143700D01*
X177133356Y-103148148D01*
X177133356Y-103148148D01*
G37*
G36*
X175609356Y-103148148D02*
X175650422Y-103160605D01*
X175688267Y-103180833D01*
X175721441Y-103208059D01*
X175748667Y-103241233D01*
X175768895Y-103279078D01*
X175781352Y-103320144D01*
X175785800Y-103365304D01*
X175785800Y-103898696D01*
X175781352Y-103943856D01*
X175768895Y-103984922D01*
X175748667Y-104022767D01*
X175721441Y-104055941D01*
X175688267Y-104083167D01*
X175650422Y-104103395D01*
X175609356Y-104115852D01*
X175564196Y-104120300D01*
X174955804Y-104120300D01*
X174910644Y-104115852D01*
X174869578Y-104103395D01*
X174831733Y-104083167D01*
X174798559Y-104055941D01*
X174771333Y-104022767D01*
X174751105Y-103984922D01*
X174738648Y-103943856D01*
X174734200Y-103898696D01*
X174734200Y-103365304D01*
X174738648Y-103320144D01*
X174751105Y-103279078D01*
X174771333Y-103241233D01*
X174798559Y-103208059D01*
X174831733Y-103180833D01*
X174869578Y-103160605D01*
X174910644Y-103148148D01*
X174955804Y-103143700D01*
X175564196Y-103143700D01*
X175609356Y-103148148D01*
X175609356Y-103148148D01*
G37*
G36*
X174085356Y-103148148D02*
X174126422Y-103160605D01*
X174164267Y-103180833D01*
X174197441Y-103208059D01*
X174224667Y-103241233D01*
X174244895Y-103279078D01*
X174257352Y-103320144D01*
X174261800Y-103365304D01*
X174261800Y-103898696D01*
X174257352Y-103943856D01*
X174244895Y-103984922D01*
X174224667Y-104022767D01*
X174197441Y-104055941D01*
X174164267Y-104083167D01*
X174126422Y-104103395D01*
X174085356Y-104115852D01*
X174040196Y-104120300D01*
X173431804Y-104120300D01*
X173386644Y-104115852D01*
X173345578Y-104103395D01*
X173307733Y-104083167D01*
X173274559Y-104055941D01*
X173247333Y-104022767D01*
X173227105Y-103984922D01*
X173214648Y-103943856D01*
X173210200Y-103898696D01*
X173210200Y-103365304D01*
X173214648Y-103320144D01*
X173227105Y-103279078D01*
X173247333Y-103241233D01*
X173274559Y-103208059D01*
X173307733Y-103180833D01*
X173345578Y-103160605D01*
X173386644Y-103148148D01*
X173431804Y-103143700D01*
X174040196Y-103143700D01*
X174085356Y-103148148D01*
X174085356Y-103148148D01*
G37*
G36*
X181667856Y-101459648D02*
X181708922Y-101472105D01*
X181746767Y-101492333D01*
X181779941Y-101519559D01*
X181807167Y-101552733D01*
X181827395Y-101590578D01*
X181839852Y-101631644D01*
X181844300Y-101676804D01*
X181844300Y-102285196D01*
X181839852Y-102330356D01*
X181827395Y-102371422D01*
X181807167Y-102409267D01*
X181779941Y-102442441D01*
X181746767Y-102469667D01*
X181708922Y-102489895D01*
X181667856Y-102502352D01*
X181622696Y-102506800D01*
X181089304Y-102506800D01*
X181044144Y-102502352D01*
X181003078Y-102489895D01*
X180965233Y-102469667D01*
X180932059Y-102442441D01*
X180904833Y-102409267D01*
X180884605Y-102371422D01*
X180872148Y-102330356D01*
X180867700Y-102285196D01*
X180867700Y-101676804D01*
X180872148Y-101631644D01*
X180884605Y-101590578D01*
X180904833Y-101552733D01*
X180932059Y-101519559D01*
X180965233Y-101492333D01*
X181003078Y-101472105D01*
X181044144Y-101459648D01*
X181089304Y-101455200D01*
X181622696Y-101455200D01*
X181667856Y-101459648D01*
X181667856Y-101459648D01*
G37*
G36*
X183242856Y-101459648D02*
X183283922Y-101472105D01*
X183321767Y-101492333D01*
X183354941Y-101519559D01*
X183382167Y-101552733D01*
X183402395Y-101590578D01*
X183414852Y-101631644D01*
X183419300Y-101676804D01*
X183419300Y-102285196D01*
X183414852Y-102330356D01*
X183402395Y-102371422D01*
X183382167Y-102409267D01*
X183354941Y-102442441D01*
X183321767Y-102469667D01*
X183283922Y-102489895D01*
X183242856Y-102502352D01*
X183197696Y-102506800D01*
X182664304Y-102506800D01*
X182619144Y-102502352D01*
X182578078Y-102489895D01*
X182540233Y-102469667D01*
X182507059Y-102442441D01*
X182479833Y-102409267D01*
X182459605Y-102371422D01*
X182447148Y-102330356D01*
X182442700Y-102285196D01*
X182442700Y-101676804D01*
X182447148Y-101631644D01*
X182459605Y-101590578D01*
X182479833Y-101552733D01*
X182507059Y-101519559D01*
X182540233Y-101492333D01*
X182578078Y-101472105D01*
X182619144Y-101459648D01*
X182664304Y-101455200D01*
X183197696Y-101455200D01*
X183242856Y-101459648D01*
X183242856Y-101459648D01*
G37*
G36*
X175007480Y-101982960D02*
X174706680Y-101982960D01*
X174706680Y-100932160D01*
X175007480Y-100932160D01*
X175007480Y-101982960D01*
X175007480Y-101982960D01*
G37*
G36*
X174507480Y-101982960D02*
X174206680Y-101982960D01*
X174206680Y-100932160D01*
X174507480Y-100932160D01*
X174507480Y-101982960D01*
X174507480Y-101982960D01*
G37*
G36*
X174007480Y-101982960D02*
X173706680Y-101982960D01*
X173706680Y-100932160D01*
X174007480Y-100932160D01*
X174007480Y-101982960D01*
X174007480Y-101982960D01*
G37*
G36*
X173507480Y-101982960D02*
X173206680Y-101982960D01*
X173206680Y-100932160D01*
X173507480Y-100932160D01*
X173507480Y-101982960D01*
X173507480Y-101982960D01*
G37*
G36*
X173007480Y-101982960D02*
X172706680Y-101982960D01*
X172706680Y-100932160D01*
X173007480Y-100932160D01*
X173007480Y-101982960D01*
X173007480Y-101982960D01*
G37*
G36*
X172507480Y-101982960D02*
X172206680Y-101982960D01*
X172206680Y-100932160D01*
X172507480Y-100932160D01*
X172507480Y-101982960D01*
X172507480Y-101982960D01*
G37*
G36*
X172007480Y-101982960D02*
X171706680Y-101982960D01*
X171706680Y-100932160D01*
X172007480Y-100932160D01*
X172007480Y-101982960D01*
X172007480Y-101982960D01*
G37*
G36*
X171507480Y-101982960D02*
X171206680Y-101982960D01*
X171206680Y-100932160D01*
X171507480Y-100932160D01*
X171507480Y-101982960D01*
X171507480Y-101982960D01*
G37*
G36*
X176507480Y-101982960D02*
X176206680Y-101982960D01*
X176206680Y-100932160D01*
X176507480Y-100932160D01*
X176507480Y-101982960D01*
X176507480Y-101982960D01*
G37*
G36*
X176007480Y-101982960D02*
X175706680Y-101982960D01*
X175706680Y-100932160D01*
X176007480Y-100932160D01*
X176007480Y-101982960D01*
X176007480Y-101982960D01*
G37*
G36*
X170507480Y-101982960D02*
X170206680Y-101982960D01*
X170206680Y-100932160D01*
X170507480Y-100932160D01*
X170507480Y-101982960D01*
X170507480Y-101982960D01*
G37*
G36*
X175507480Y-101982960D02*
X175206680Y-101982960D01*
X175206680Y-100932160D01*
X175507480Y-100932160D01*
X175507480Y-101982960D01*
X175507480Y-101982960D01*
G37*
G36*
X178007480Y-101982960D02*
X177706680Y-101982960D01*
X177706680Y-100932160D01*
X178007480Y-100932160D01*
X178007480Y-101982960D01*
X178007480Y-101982960D01*
G37*
G36*
X177507480Y-101982960D02*
X177206680Y-101982960D01*
X177206680Y-100932160D01*
X177507480Y-100932160D01*
X177507480Y-101982960D01*
X177507480Y-101982960D01*
G37*
G36*
X177007480Y-101982960D02*
X176706680Y-101982960D01*
X176706680Y-100932160D01*
X177007480Y-100932160D01*
X177007480Y-101982960D01*
X177007480Y-101982960D01*
G37*
G36*
X171007480Y-101982960D02*
X170706680Y-101982960D01*
X170706680Y-100932160D01*
X171007480Y-100932160D01*
X171007480Y-101982960D01*
X171007480Y-101982960D01*
G37*
G36*
X183242856Y-99935648D02*
X183283922Y-99948105D01*
X183321767Y-99968333D01*
X183354941Y-99995559D01*
X183382167Y-100028733D01*
X183402395Y-100066578D01*
X183414852Y-100107644D01*
X183419300Y-100152804D01*
X183419300Y-100761196D01*
X183414852Y-100806356D01*
X183402395Y-100847422D01*
X183382167Y-100885267D01*
X183354941Y-100918441D01*
X183321767Y-100945667D01*
X183283922Y-100965895D01*
X183242856Y-100978352D01*
X183197696Y-100982800D01*
X182664304Y-100982800D01*
X182619144Y-100978352D01*
X182578078Y-100965895D01*
X182540233Y-100945667D01*
X182507059Y-100918441D01*
X182479833Y-100885267D01*
X182459605Y-100847422D01*
X182447148Y-100806356D01*
X182442700Y-100761196D01*
X182442700Y-100152804D01*
X182447148Y-100107644D01*
X182459605Y-100066578D01*
X182479833Y-100028733D01*
X182507059Y-99995559D01*
X182540233Y-99968333D01*
X182578078Y-99948105D01*
X182619144Y-99935648D01*
X182664304Y-99931200D01*
X183197696Y-99931200D01*
X183242856Y-99935648D01*
X183242856Y-99935648D01*
G37*
G36*
X181667856Y-99935648D02*
X181708922Y-99948105D01*
X181746767Y-99968333D01*
X181779941Y-99995559D01*
X181807167Y-100028733D01*
X181827395Y-100066578D01*
X181839852Y-100107644D01*
X181844300Y-100152804D01*
X181844300Y-100761196D01*
X181839852Y-100806356D01*
X181827395Y-100847422D01*
X181807167Y-100885267D01*
X181779941Y-100918441D01*
X181746767Y-100945667D01*
X181708922Y-100965895D01*
X181667856Y-100978352D01*
X181622696Y-100982800D01*
X181089304Y-100982800D01*
X181044144Y-100978352D01*
X181003078Y-100965895D01*
X180965233Y-100945667D01*
X180932059Y-100918441D01*
X180904833Y-100885267D01*
X180884605Y-100847422D01*
X180872148Y-100806356D01*
X180867700Y-100761196D01*
X180867700Y-100152804D01*
X180872148Y-100107644D01*
X180884605Y-100066578D01*
X180904833Y-100028733D01*
X180932059Y-99995559D01*
X180965233Y-99968333D01*
X181003078Y-99948105D01*
X181044144Y-99935648D01*
X181089304Y-99931200D01*
X181622696Y-99931200D01*
X181667856Y-99935648D01*
X181667856Y-99935648D01*
G37*
G36*
X180332480Y-99657960D02*
X179281680Y-99657960D01*
X179281680Y-99357160D01*
X180332480Y-99357160D01*
X180332480Y-99657960D01*
X180332480Y-99657960D01*
G37*
G36*
X168932480Y-99657960D02*
X167881680Y-99657960D01*
X167881680Y-99357160D01*
X168932480Y-99357160D01*
X168932480Y-99657960D01*
X168932480Y-99657960D01*
G37*
G36*
X183242856Y-98411648D02*
X183283922Y-98424105D01*
X183321767Y-98444333D01*
X183354941Y-98471559D01*
X183382167Y-98504733D01*
X183402395Y-98542578D01*
X183414852Y-98583644D01*
X183419300Y-98628804D01*
X183419300Y-99237196D01*
X183414852Y-99282356D01*
X183402395Y-99323422D01*
X183382167Y-99361267D01*
X183354941Y-99394441D01*
X183321767Y-99421667D01*
X183283922Y-99441895D01*
X183242856Y-99454352D01*
X183197696Y-99458800D01*
X182664304Y-99458800D01*
X182619144Y-99454352D01*
X182578078Y-99441895D01*
X182540233Y-99421667D01*
X182507059Y-99394441D01*
X182479833Y-99361267D01*
X182459605Y-99323422D01*
X182447148Y-99282356D01*
X182442700Y-99237196D01*
X182442700Y-98628804D01*
X182447148Y-98583644D01*
X182459605Y-98542578D01*
X182479833Y-98504733D01*
X182507059Y-98471559D01*
X182540233Y-98444333D01*
X182578078Y-98424105D01*
X182619144Y-98411648D01*
X182664304Y-98407200D01*
X183197696Y-98407200D01*
X183242856Y-98411648D01*
X183242856Y-98411648D01*
G37*
G36*
X181667856Y-98411648D02*
X181708922Y-98424105D01*
X181746767Y-98444333D01*
X181779941Y-98471559D01*
X181807167Y-98504733D01*
X181827395Y-98542578D01*
X181839852Y-98583644D01*
X181844300Y-98628804D01*
X181844300Y-99237196D01*
X181839852Y-99282356D01*
X181827395Y-99323422D01*
X181807167Y-99361267D01*
X181779941Y-99394441D01*
X181746767Y-99421667D01*
X181708922Y-99441895D01*
X181667856Y-99454352D01*
X181622696Y-99458800D01*
X181089304Y-99458800D01*
X181044144Y-99454352D01*
X181003078Y-99441895D01*
X180965233Y-99421667D01*
X180932059Y-99394441D01*
X180904833Y-99361267D01*
X180884605Y-99323422D01*
X180872148Y-99282356D01*
X180867700Y-99237196D01*
X180867700Y-98628804D01*
X180872148Y-98583644D01*
X180884605Y-98542578D01*
X180904833Y-98504733D01*
X180932059Y-98471559D01*
X180965233Y-98444333D01*
X181003078Y-98424105D01*
X181044144Y-98411648D01*
X181089304Y-98407200D01*
X181622696Y-98407200D01*
X181667856Y-98411648D01*
X181667856Y-98411648D01*
G37*
G36*
X180332480Y-99157960D02*
X179281680Y-99157960D01*
X179281680Y-98857160D01*
X180332480Y-98857160D01*
X180332480Y-99157960D01*
X180332480Y-99157960D01*
G37*
G36*
X168932480Y-99157960D02*
X167881680Y-99157960D01*
X167881680Y-98857160D01*
X168932480Y-98857160D01*
X168932480Y-99157960D01*
X168932480Y-99157960D01*
G37*
G36*
X168932480Y-98657960D02*
X167881680Y-98657960D01*
X167881680Y-98357160D01*
X168932480Y-98357160D01*
X168932480Y-98657960D01*
X168932480Y-98657960D01*
G37*
G36*
X180332480Y-98657960D02*
X179281680Y-98657960D01*
X179281680Y-98357160D01*
X180332480Y-98357160D01*
X180332480Y-98657960D01*
X180332480Y-98657960D01*
G37*
G36*
X168932480Y-98157960D02*
X167881680Y-98157960D01*
X167881680Y-97857160D01*
X168932480Y-97857160D01*
X168932480Y-98157960D01*
X168932480Y-98157960D01*
G37*
G36*
X180332480Y-98157960D02*
X179281680Y-98157960D01*
X179281680Y-97857160D01*
X180332480Y-97857160D01*
X180332480Y-98157960D01*
X180332480Y-98157960D01*
G37*
G36*
X181667856Y-97014648D02*
X181708922Y-97027105D01*
X181746767Y-97047333D01*
X181779941Y-97074559D01*
X181807167Y-97107733D01*
X181827395Y-97145578D01*
X181839852Y-97186644D01*
X181844300Y-97231804D01*
X181844300Y-97840196D01*
X181839852Y-97885356D01*
X181827395Y-97926422D01*
X181807167Y-97964267D01*
X181779941Y-97997441D01*
X181746767Y-98024667D01*
X181708922Y-98044895D01*
X181667856Y-98057352D01*
X181622696Y-98061800D01*
X181089304Y-98061800D01*
X181044144Y-98057352D01*
X181003078Y-98044895D01*
X180965233Y-98024667D01*
X180932059Y-97997441D01*
X180904833Y-97964267D01*
X180884605Y-97926422D01*
X180872148Y-97885356D01*
X180867700Y-97840196D01*
X180867700Y-97231804D01*
X180872148Y-97186644D01*
X180884605Y-97145578D01*
X180904833Y-97107733D01*
X180932059Y-97074559D01*
X180965233Y-97047333D01*
X181003078Y-97027105D01*
X181044144Y-97014648D01*
X181089304Y-97010200D01*
X181622696Y-97010200D01*
X181667856Y-97014648D01*
X181667856Y-97014648D01*
G37*
G36*
X183242856Y-97014648D02*
X183283922Y-97027105D01*
X183321767Y-97047333D01*
X183354941Y-97074559D01*
X183382167Y-97107733D01*
X183402395Y-97145578D01*
X183414852Y-97186644D01*
X183419300Y-97231804D01*
X183419300Y-97840196D01*
X183414852Y-97885356D01*
X183402395Y-97926422D01*
X183382167Y-97964267D01*
X183354941Y-97997441D01*
X183321767Y-98024667D01*
X183283922Y-98044895D01*
X183242856Y-98057352D01*
X183197696Y-98061800D01*
X182664304Y-98061800D01*
X182619144Y-98057352D01*
X182578078Y-98044895D01*
X182540233Y-98024667D01*
X182507059Y-97997441D01*
X182479833Y-97964267D01*
X182459605Y-97926422D01*
X182447148Y-97885356D01*
X182442700Y-97840196D01*
X182442700Y-97231804D01*
X182447148Y-97186644D01*
X182459605Y-97145578D01*
X182479833Y-97107733D01*
X182507059Y-97074559D01*
X182540233Y-97047333D01*
X182578078Y-97027105D01*
X182619144Y-97014648D01*
X182664304Y-97010200D01*
X183197696Y-97010200D01*
X183242856Y-97014648D01*
X183242856Y-97014648D01*
G37*
G36*
X163417356Y-96950648D02*
X163458422Y-96963105D01*
X163496267Y-96983333D01*
X163529441Y-97010559D01*
X163556667Y-97043733D01*
X163576895Y-97081578D01*
X163589352Y-97122644D01*
X163593800Y-97167804D01*
X163593800Y-97701196D01*
X163589352Y-97746356D01*
X163576895Y-97787422D01*
X163556667Y-97825267D01*
X163529441Y-97858441D01*
X163496267Y-97885667D01*
X163458422Y-97905895D01*
X163417356Y-97918352D01*
X163372196Y-97922800D01*
X162763804Y-97922800D01*
X162718644Y-97918352D01*
X162677578Y-97905895D01*
X162639733Y-97885667D01*
X162606559Y-97858441D01*
X162579333Y-97825267D01*
X162559105Y-97787422D01*
X162546648Y-97746356D01*
X162542200Y-97701196D01*
X162542200Y-97167804D01*
X162546648Y-97122644D01*
X162559105Y-97081578D01*
X162579333Y-97043733D01*
X162606559Y-97010559D01*
X162639733Y-96983333D01*
X162677578Y-96963105D01*
X162718644Y-96950648D01*
X162763804Y-96946200D01*
X163372196Y-96946200D01*
X163417356Y-96950648D01*
X163417356Y-96950648D01*
G37*
G36*
X164814356Y-96950648D02*
X164855422Y-96963105D01*
X164893267Y-96983333D01*
X164926441Y-97010559D01*
X164953667Y-97043733D01*
X164973895Y-97081578D01*
X164986352Y-97122644D01*
X164990800Y-97167804D01*
X164990800Y-97701196D01*
X164986352Y-97746356D01*
X164973895Y-97787422D01*
X164953667Y-97825267D01*
X164926441Y-97858441D01*
X164893267Y-97885667D01*
X164855422Y-97905895D01*
X164814356Y-97918352D01*
X164769196Y-97922800D01*
X164160804Y-97922800D01*
X164115644Y-97918352D01*
X164074578Y-97905895D01*
X164036733Y-97885667D01*
X164003559Y-97858441D01*
X163976333Y-97825267D01*
X163956105Y-97787422D01*
X163943648Y-97746356D01*
X163939200Y-97701196D01*
X163939200Y-97167804D01*
X163943648Y-97122644D01*
X163956105Y-97081578D01*
X163976333Y-97043733D01*
X164003559Y-97010559D01*
X164036733Y-96983333D01*
X164074578Y-96963105D01*
X164115644Y-96950648D01*
X164160804Y-96946200D01*
X164769196Y-96946200D01*
X164814356Y-96950648D01*
X164814356Y-96950648D01*
G37*
G36*
X166211356Y-96950648D02*
X166252422Y-96963105D01*
X166290267Y-96983333D01*
X166323441Y-97010559D01*
X166350667Y-97043733D01*
X166370895Y-97081578D01*
X166383352Y-97122644D01*
X166387800Y-97167804D01*
X166387800Y-97701196D01*
X166383352Y-97746356D01*
X166370895Y-97787422D01*
X166350667Y-97825267D01*
X166323441Y-97858441D01*
X166290267Y-97885667D01*
X166252422Y-97905895D01*
X166211356Y-97918352D01*
X166166196Y-97922800D01*
X165557804Y-97922800D01*
X165512644Y-97918352D01*
X165471578Y-97905895D01*
X165433733Y-97885667D01*
X165400559Y-97858441D01*
X165373333Y-97825267D01*
X165353105Y-97787422D01*
X165340648Y-97746356D01*
X165336200Y-97701196D01*
X165336200Y-97167804D01*
X165340648Y-97122644D01*
X165353105Y-97081578D01*
X165373333Y-97043733D01*
X165400559Y-97010559D01*
X165433733Y-96983333D01*
X165471578Y-96963105D01*
X165512644Y-96950648D01*
X165557804Y-96946200D01*
X166166196Y-96946200D01*
X166211356Y-96950648D01*
X166211356Y-96950648D01*
G37*
G36*
X168932480Y-97657960D02*
X167881680Y-97657960D01*
X167881680Y-97357160D01*
X168932480Y-97357160D01*
X168932480Y-97657960D01*
X168932480Y-97657960D01*
G37*
G36*
X180332480Y-97657960D02*
X179281680Y-97657960D01*
X179281680Y-97357160D01*
X180332480Y-97357160D01*
X180332480Y-97657960D01*
X180332480Y-97657960D01*
G37*
G36*
X150362800Y-97268800D02*
X143261200Y-97268800D01*
X143261200Y-89167200D01*
X150362800Y-89167200D01*
X150362800Y-97268800D01*
X150362800Y-97268800D01*
G37*
G36*
X180332480Y-97157960D02*
X179281680Y-97157960D01*
X179281680Y-96857160D01*
X180332480Y-96857160D01*
X180332480Y-97157960D01*
X180332480Y-97157960D01*
G37*
G36*
X168932480Y-97157960D02*
X167881680Y-97157960D01*
X167881680Y-96857160D01*
X168932480Y-96857160D01*
X168932480Y-97157960D01*
X168932480Y-97157960D01*
G37*
G36*
X183242856Y-95617648D02*
X183283922Y-95630105D01*
X183321767Y-95650333D01*
X183354941Y-95677559D01*
X183382167Y-95710733D01*
X183402395Y-95748578D01*
X183414852Y-95789644D01*
X183419300Y-95834804D01*
X183419300Y-96443196D01*
X183414852Y-96488356D01*
X183402395Y-96529422D01*
X183382167Y-96567267D01*
X183354941Y-96600441D01*
X183321767Y-96627667D01*
X183283922Y-96647895D01*
X183242856Y-96660352D01*
X183197696Y-96664800D01*
X182664304Y-96664800D01*
X182619144Y-96660352D01*
X182578078Y-96647895D01*
X182540233Y-96627667D01*
X182507059Y-96600441D01*
X182479833Y-96567267D01*
X182459605Y-96529422D01*
X182447148Y-96488356D01*
X182442700Y-96443196D01*
X182442700Y-95834804D01*
X182447148Y-95789644D01*
X182459605Y-95748578D01*
X182479833Y-95710733D01*
X182507059Y-95677559D01*
X182540233Y-95650333D01*
X182578078Y-95630105D01*
X182619144Y-95617648D01*
X182664304Y-95613200D01*
X183197696Y-95613200D01*
X183242856Y-95617648D01*
X183242856Y-95617648D01*
G37*
G36*
X181667856Y-95617648D02*
X181708922Y-95630105D01*
X181746767Y-95650333D01*
X181779941Y-95677559D01*
X181807167Y-95710733D01*
X181827395Y-95748578D01*
X181839852Y-95789644D01*
X181844300Y-95834804D01*
X181844300Y-96443196D01*
X181839852Y-96488356D01*
X181827395Y-96529422D01*
X181807167Y-96567267D01*
X181779941Y-96600441D01*
X181746767Y-96627667D01*
X181708922Y-96647895D01*
X181667856Y-96660352D01*
X181622696Y-96664800D01*
X181089304Y-96664800D01*
X181044144Y-96660352D01*
X181003078Y-96647895D01*
X180965233Y-96627667D01*
X180932059Y-96600441D01*
X180904833Y-96567267D01*
X180884605Y-96529422D01*
X180872148Y-96488356D01*
X180867700Y-96443196D01*
X180867700Y-95834804D01*
X180872148Y-95789644D01*
X180884605Y-95748578D01*
X180904833Y-95710733D01*
X180932059Y-95677559D01*
X180965233Y-95650333D01*
X181003078Y-95630105D01*
X181044144Y-95617648D01*
X181089304Y-95613200D01*
X181622696Y-95613200D01*
X181667856Y-95617648D01*
X181667856Y-95617648D01*
G37*
G36*
X168932480Y-96657960D02*
X167881680Y-96657960D01*
X167881680Y-96357160D01*
X168932480Y-96357160D01*
X168932480Y-96657960D01*
X168932480Y-96657960D01*
G37*
G36*
X180332480Y-96657960D02*
X179281680Y-96657960D01*
X179281680Y-96357160D01*
X180332480Y-96357160D01*
X180332480Y-96657960D01*
X180332480Y-96657960D01*
G37*
G36*
X163417356Y-95375648D02*
X163458422Y-95388105D01*
X163496267Y-95408333D01*
X163529441Y-95435559D01*
X163556667Y-95468733D01*
X163576895Y-95506578D01*
X163589352Y-95547644D01*
X163593800Y-95592804D01*
X163593800Y-96126196D01*
X163589352Y-96171356D01*
X163576895Y-96212422D01*
X163556667Y-96250267D01*
X163529441Y-96283441D01*
X163496267Y-96310667D01*
X163458422Y-96330895D01*
X163417356Y-96343352D01*
X163372196Y-96347800D01*
X162763804Y-96347800D01*
X162718644Y-96343352D01*
X162677578Y-96330895D01*
X162639733Y-96310667D01*
X162606559Y-96283441D01*
X162579333Y-96250267D01*
X162559105Y-96212422D01*
X162546648Y-96171356D01*
X162542200Y-96126196D01*
X162542200Y-95592804D01*
X162546648Y-95547644D01*
X162559105Y-95506578D01*
X162579333Y-95468733D01*
X162606559Y-95435559D01*
X162639733Y-95408333D01*
X162677578Y-95388105D01*
X162718644Y-95375648D01*
X162763804Y-95371200D01*
X163372196Y-95371200D01*
X163417356Y-95375648D01*
X163417356Y-95375648D01*
G37*
G36*
X166211356Y-95375648D02*
X166252422Y-95388105D01*
X166290267Y-95408333D01*
X166323441Y-95435559D01*
X166350667Y-95468733D01*
X166370895Y-95506578D01*
X166383352Y-95547644D01*
X166387800Y-95592804D01*
X166387800Y-96126196D01*
X166383352Y-96171356D01*
X166370895Y-96212422D01*
X166350667Y-96250267D01*
X166323441Y-96283441D01*
X166290267Y-96310667D01*
X166252422Y-96330895D01*
X166211356Y-96343352D01*
X166166196Y-96347800D01*
X165557804Y-96347800D01*
X165512644Y-96343352D01*
X165471578Y-96330895D01*
X165433733Y-96310667D01*
X165400559Y-96283441D01*
X165373333Y-96250267D01*
X165353105Y-96212422D01*
X165340648Y-96171356D01*
X165336200Y-96126196D01*
X165336200Y-95592804D01*
X165340648Y-95547644D01*
X165353105Y-95506578D01*
X165373333Y-95468733D01*
X165400559Y-95435559D01*
X165433733Y-95408333D01*
X165471578Y-95388105D01*
X165512644Y-95375648D01*
X165557804Y-95371200D01*
X166166196Y-95371200D01*
X166211356Y-95375648D01*
X166211356Y-95375648D01*
G37*
G36*
X164814356Y-95375648D02*
X164855422Y-95388105D01*
X164893267Y-95408333D01*
X164926441Y-95435559D01*
X164953667Y-95468733D01*
X164973895Y-95506578D01*
X164986352Y-95547644D01*
X164990800Y-95592804D01*
X164990800Y-96126196D01*
X164986352Y-96171356D01*
X164973895Y-96212422D01*
X164953667Y-96250267D01*
X164926441Y-96283441D01*
X164893267Y-96310667D01*
X164855422Y-96330895D01*
X164814356Y-96343352D01*
X164769196Y-96347800D01*
X164160804Y-96347800D01*
X164115644Y-96343352D01*
X164074578Y-96330895D01*
X164036733Y-96310667D01*
X164003559Y-96283441D01*
X163976333Y-96250267D01*
X163956105Y-96212422D01*
X163943648Y-96171356D01*
X163939200Y-96126196D01*
X163939200Y-95592804D01*
X163943648Y-95547644D01*
X163956105Y-95506578D01*
X163976333Y-95468733D01*
X164003559Y-95435559D01*
X164036733Y-95408333D01*
X164074578Y-95388105D01*
X164115644Y-95375648D01*
X164160804Y-95371200D01*
X164769196Y-95371200D01*
X164814356Y-95375648D01*
X164814356Y-95375648D01*
G37*
G36*
X180332480Y-96157960D02*
X179281680Y-96157960D01*
X179281680Y-95857160D01*
X180332480Y-95857160D01*
X180332480Y-96157960D01*
X180332480Y-96157960D01*
G37*
G36*
X168932480Y-96157960D02*
X167881680Y-96157960D01*
X167881680Y-95857160D01*
X168932480Y-95857160D01*
X168932480Y-96157960D01*
X168932480Y-96157960D01*
G37*
G36*
X162252800Y-95808800D02*
X157071200Y-95808800D01*
X157071200Y-90627200D01*
X162252800Y-90627200D01*
X162252800Y-95808800D01*
X162252800Y-95808800D01*
G37*
G36*
X136552800Y-95808800D02*
X131371200Y-95808800D01*
X131371200Y-90627200D01*
X136552800Y-90627200D01*
X136552800Y-95808800D01*
X136552800Y-95808800D01*
G37*
G36*
X180332480Y-95657960D02*
X179281680Y-95657960D01*
X179281680Y-95357160D01*
X180332480Y-95357160D01*
X180332480Y-95657960D01*
X180332480Y-95657960D01*
G37*
G36*
X168932480Y-95657960D02*
X167881680Y-95657960D01*
X167881680Y-95357160D01*
X168932480Y-95357160D01*
X168932480Y-95657960D01*
X168932480Y-95657960D01*
G37*
G36*
X183242856Y-94182548D02*
X183283922Y-94195005D01*
X183321767Y-94215233D01*
X183354941Y-94242459D01*
X183382167Y-94275633D01*
X183402395Y-94313478D01*
X183414852Y-94354544D01*
X183419300Y-94399704D01*
X183419300Y-95008096D01*
X183414852Y-95053256D01*
X183402395Y-95094322D01*
X183382167Y-95132167D01*
X183354941Y-95165341D01*
X183321767Y-95192567D01*
X183283922Y-95212795D01*
X183242856Y-95225252D01*
X183197696Y-95229700D01*
X182664304Y-95229700D01*
X182619144Y-95225252D01*
X182578078Y-95212795D01*
X182540233Y-95192567D01*
X182507059Y-95165341D01*
X182479833Y-95132167D01*
X182459605Y-95094322D01*
X182447148Y-95053256D01*
X182442700Y-95008096D01*
X182442700Y-94399704D01*
X182447148Y-94354544D01*
X182459605Y-94313478D01*
X182479833Y-94275633D01*
X182507059Y-94242459D01*
X182540233Y-94215233D01*
X182578078Y-94195005D01*
X182619144Y-94182548D01*
X182664304Y-94178100D01*
X183197696Y-94178100D01*
X183242856Y-94182548D01*
X183242856Y-94182548D01*
G37*
G36*
X181667856Y-94182548D02*
X181708922Y-94195005D01*
X181746767Y-94215233D01*
X181779941Y-94242459D01*
X181807167Y-94275633D01*
X181827395Y-94313478D01*
X181839852Y-94354544D01*
X181844300Y-94399704D01*
X181844300Y-95008096D01*
X181839852Y-95053256D01*
X181827395Y-95094322D01*
X181807167Y-95132167D01*
X181779941Y-95165341D01*
X181746767Y-95192567D01*
X181708922Y-95212795D01*
X181667856Y-95225252D01*
X181622696Y-95229700D01*
X181089304Y-95229700D01*
X181044144Y-95225252D01*
X181003078Y-95212795D01*
X180965233Y-95192567D01*
X180932059Y-95165341D01*
X180904833Y-95132167D01*
X180884605Y-95094322D01*
X180872148Y-95053256D01*
X180867700Y-95008096D01*
X180867700Y-94399704D01*
X180872148Y-94354544D01*
X180884605Y-94313478D01*
X180904833Y-94275633D01*
X180932059Y-94242459D01*
X180965233Y-94215233D01*
X181003078Y-94195005D01*
X181044144Y-94182548D01*
X181089304Y-94178100D01*
X181622696Y-94178100D01*
X181667856Y-94182548D01*
X181667856Y-94182548D01*
G37*
G36*
X180332480Y-95157960D02*
X179281680Y-95157960D01*
X179281680Y-94857160D01*
X180332480Y-94857160D01*
X180332480Y-95157960D01*
X180332480Y-95157960D01*
G37*
G36*
X168932480Y-95157960D02*
X167881680Y-95157960D01*
X167881680Y-94857160D01*
X168932480Y-94857160D01*
X168932480Y-95157960D01*
X168932480Y-95157960D01*
G37*
G36*
X168932480Y-94657960D02*
X167881680Y-94657960D01*
X167881680Y-94357160D01*
X168932480Y-94357160D01*
X168932480Y-94657960D01*
X168932480Y-94657960D01*
G37*
G36*
X180332480Y-94657960D02*
X179281680Y-94657960D01*
X179281680Y-94357160D01*
X180332480Y-94357160D01*
X180332480Y-94657960D01*
X180332480Y-94657960D01*
G37*
G36*
X180332480Y-94157960D02*
X179281680Y-94157960D01*
X179281680Y-93857160D01*
X180332480Y-93857160D01*
X180332480Y-94157960D01*
X180332480Y-94157960D01*
G37*
G36*
X168932480Y-94157960D02*
X167881680Y-94157960D01*
X167881680Y-93857160D01*
X168932480Y-93857160D01*
X168932480Y-94157960D01*
X168932480Y-94157960D01*
G37*
G36*
X180332480Y-93657960D02*
X179281680Y-93657960D01*
X179281680Y-93357160D01*
X180332480Y-93357160D01*
X180332480Y-93657960D01*
X180332480Y-93657960D01*
G37*
G36*
X168932480Y-93657960D02*
X167881680Y-93657960D01*
X167881680Y-93357160D01*
X168932480Y-93357160D01*
X168932480Y-93657960D01*
X168932480Y-93657960D01*
G37*
G36*
X180332480Y-93157960D02*
X179281680Y-93157960D01*
X179281680Y-92857160D01*
X180332480Y-92857160D01*
X180332480Y-93157960D01*
X180332480Y-93157960D01*
G37*
G36*
X168932480Y-93157960D02*
X167881680Y-93157960D01*
X167881680Y-92857160D01*
X168932480Y-92857160D01*
X168932480Y-93157960D01*
X168932480Y-93157960D01*
G37*
G36*
X168932480Y-92657960D02*
X167881680Y-92657960D01*
X167881680Y-92357160D01*
X168932480Y-92357160D01*
X168932480Y-92657960D01*
X168932480Y-92657960D01*
G37*
G36*
X180332480Y-92657960D02*
X179281680Y-92657960D01*
X179281680Y-92357160D01*
X180332480Y-92357160D01*
X180332480Y-92657960D01*
X180332480Y-92657960D01*
G37*
G36*
X180332480Y-92157960D02*
X179281680Y-92157960D01*
X179281680Y-91857160D01*
X180332480Y-91857160D01*
X180332480Y-92157960D01*
X180332480Y-92157960D01*
G37*
G36*
X168932480Y-92157960D02*
X167881680Y-92157960D01*
X167881680Y-91857160D01*
X168932480Y-91857160D01*
X168932480Y-92157960D01*
X168932480Y-92157960D01*
G37*
G36*
X173007480Y-90582960D02*
X172706680Y-90582960D01*
X172706680Y-89532160D01*
X173007480Y-89532160D01*
X173007480Y-90582960D01*
X173007480Y-90582960D01*
G37*
G36*
X178007480Y-90582960D02*
X177706680Y-90582960D01*
X177706680Y-89532160D01*
X178007480Y-89532160D01*
X178007480Y-90582960D01*
X178007480Y-90582960D01*
G37*
G36*
X177007480Y-90582960D02*
X176706680Y-90582960D01*
X176706680Y-89532160D01*
X177007480Y-89532160D01*
X177007480Y-90582960D01*
X177007480Y-90582960D01*
G37*
G36*
X176507480Y-90582960D02*
X176206680Y-90582960D01*
X176206680Y-89532160D01*
X176507480Y-89532160D01*
X176507480Y-90582960D01*
X176507480Y-90582960D01*
G37*
G36*
X177507480Y-90582960D02*
X177206680Y-90582960D01*
X177206680Y-89532160D01*
X177507480Y-89532160D01*
X177507480Y-90582960D01*
X177507480Y-90582960D01*
G37*
G36*
X175507480Y-90582960D02*
X175206680Y-90582960D01*
X175206680Y-89532160D01*
X175507480Y-89532160D01*
X175507480Y-90582960D01*
X175507480Y-90582960D01*
G37*
G36*
X174507480Y-90582960D02*
X174206680Y-90582960D01*
X174206680Y-89532160D01*
X174507480Y-89532160D01*
X174507480Y-90582960D01*
X174507480Y-90582960D01*
G37*
G36*
X176007480Y-90582960D02*
X175706680Y-90582960D01*
X175706680Y-89532160D01*
X176007480Y-89532160D01*
X176007480Y-90582960D01*
X176007480Y-90582960D01*
G37*
G36*
X175007480Y-90582960D02*
X174706680Y-90582960D01*
X174706680Y-89532160D01*
X175007480Y-89532160D01*
X175007480Y-90582960D01*
X175007480Y-90582960D01*
G37*
G36*
X172507480Y-90582960D02*
X172206680Y-90582960D01*
X172206680Y-89532160D01*
X172507480Y-89532160D01*
X172507480Y-90582960D01*
X172507480Y-90582960D01*
G37*
G36*
X170507480Y-90582960D02*
X170206680Y-90582960D01*
X170206680Y-89532160D01*
X170507480Y-89532160D01*
X170507480Y-90582960D01*
X170507480Y-90582960D01*
G37*
G36*
X171007480Y-90582960D02*
X170706680Y-90582960D01*
X170706680Y-89532160D01*
X171007480Y-89532160D01*
X171007480Y-90582960D01*
X171007480Y-90582960D01*
G37*
G36*
X172007480Y-90582960D02*
X171706680Y-90582960D01*
X171706680Y-89532160D01*
X172007480Y-89532160D01*
X172007480Y-90582960D01*
X172007480Y-90582960D01*
G37*
G36*
X171507480Y-90582960D02*
X171206680Y-90582960D01*
X171206680Y-89532160D01*
X171507480Y-89532160D01*
X171507480Y-90582960D01*
X171507480Y-90582960D01*
G37*
G36*
X173507480Y-90582960D02*
X173206680Y-90582960D01*
X173206680Y-89532160D01*
X173507480Y-89532160D01*
X173507480Y-90582960D01*
X173507480Y-90582960D01*
G37*
G36*
X174007480Y-90582960D02*
X173706680Y-90582960D01*
X173706680Y-89532160D01*
X174007480Y-89532160D01*
X174007480Y-90582960D01*
X174007480Y-90582960D01*
G37*
G36*
X182340356Y-88975148D02*
X182381422Y-88987605D01*
X182419267Y-89007833D01*
X182452441Y-89035059D01*
X182479667Y-89068233D01*
X182499895Y-89106078D01*
X182512352Y-89147144D01*
X182516800Y-89192304D01*
X182516800Y-89725696D01*
X182512352Y-89770856D01*
X182499895Y-89811922D01*
X182479667Y-89849767D01*
X182452441Y-89882941D01*
X182419267Y-89910167D01*
X182381422Y-89930395D01*
X182340356Y-89942852D01*
X182295196Y-89947300D01*
X181686804Y-89947300D01*
X181641644Y-89942852D01*
X181600578Y-89930395D01*
X181562733Y-89910167D01*
X181529559Y-89882941D01*
X181502333Y-89849767D01*
X181482105Y-89811922D01*
X181469648Y-89770856D01*
X181465200Y-89725696D01*
X181465200Y-89192304D01*
X181469648Y-89147144D01*
X181482105Y-89106078D01*
X181502333Y-89068233D01*
X181529559Y-89035059D01*
X181562733Y-89007833D01*
X181600578Y-88987605D01*
X181641644Y-88975148D01*
X181686804Y-88970700D01*
X182295196Y-88970700D01*
X182340356Y-88975148D01*
X182340356Y-88975148D01*
G37*
G36*
X180816356Y-88975148D02*
X180857422Y-88987605D01*
X180895267Y-89007833D01*
X180928441Y-89035059D01*
X180955667Y-89068233D01*
X180975895Y-89106078D01*
X180988352Y-89147144D01*
X180992800Y-89192304D01*
X180992800Y-89725696D01*
X180988352Y-89770856D01*
X180975895Y-89811922D01*
X180955667Y-89849767D01*
X180928441Y-89882941D01*
X180895267Y-89910167D01*
X180857422Y-89930395D01*
X180816356Y-89942852D01*
X180771196Y-89947300D01*
X180162804Y-89947300D01*
X180117644Y-89942852D01*
X180076578Y-89930395D01*
X180038733Y-89910167D01*
X180005559Y-89882941D01*
X179978333Y-89849767D01*
X179958105Y-89811922D01*
X179945648Y-89770856D01*
X179941200Y-89725696D01*
X179941200Y-89192304D01*
X179945648Y-89147144D01*
X179958105Y-89106078D01*
X179978333Y-89068233D01*
X180005559Y-89035059D01*
X180038733Y-89007833D01*
X180076578Y-88987605D01*
X180117644Y-88975148D01*
X180162804Y-88970700D01*
X180771196Y-88970700D01*
X180816356Y-88975148D01*
X180816356Y-88975148D01*
G37*
G36*
X179473800Y-89088800D02*
X178372200Y-89088800D01*
X178372200Y-87187200D01*
X179473800Y-87187200D01*
X179473800Y-89088800D01*
X179473800Y-89088800D01*
G37*
G36*
X176973800Y-89088800D02*
X175872200Y-89088800D01*
X175872200Y-87187200D01*
X176973800Y-87187200D01*
X176973800Y-89088800D01*
X176973800Y-89088800D01*
G37*
G36*
X173577356Y-87908148D02*
X173618422Y-87920605D01*
X173656267Y-87940833D01*
X173689441Y-87968059D01*
X173716667Y-88001233D01*
X173736895Y-88039078D01*
X173749352Y-88080144D01*
X173753800Y-88125304D01*
X173753800Y-88658696D01*
X173749352Y-88703856D01*
X173736895Y-88744922D01*
X173716667Y-88782767D01*
X173689441Y-88815941D01*
X173656267Y-88843167D01*
X173618422Y-88863395D01*
X173577356Y-88875852D01*
X173532196Y-88880300D01*
X172923804Y-88880300D01*
X172878644Y-88875852D01*
X172837578Y-88863395D01*
X172799733Y-88843167D01*
X172766559Y-88815941D01*
X172739333Y-88782767D01*
X172719105Y-88744922D01*
X172706648Y-88703856D01*
X172702200Y-88658696D01*
X172702200Y-88125304D01*
X172706648Y-88080144D01*
X172719105Y-88039078D01*
X172739333Y-88001233D01*
X172766559Y-87968059D01*
X172799733Y-87940833D01*
X172837578Y-87920605D01*
X172878644Y-87908148D01*
X172923804Y-87903700D01*
X173532196Y-87903700D01*
X173577356Y-87908148D01*
X173577356Y-87908148D01*
G37*
G36*
X182340356Y-87400148D02*
X182381422Y-87412605D01*
X182419267Y-87432833D01*
X182452441Y-87460059D01*
X182479667Y-87493233D01*
X182499895Y-87531078D01*
X182512352Y-87572144D01*
X182516800Y-87617304D01*
X182516800Y-88150696D01*
X182512352Y-88195856D01*
X182499895Y-88236922D01*
X182479667Y-88274767D01*
X182452441Y-88307941D01*
X182419267Y-88335167D01*
X182381422Y-88355395D01*
X182340356Y-88367852D01*
X182295196Y-88372300D01*
X181686804Y-88372300D01*
X181641644Y-88367852D01*
X181600578Y-88355395D01*
X181562733Y-88335167D01*
X181529559Y-88307941D01*
X181502333Y-88274767D01*
X181482105Y-88236922D01*
X181469648Y-88195856D01*
X181465200Y-88150696D01*
X181465200Y-87617304D01*
X181469648Y-87572144D01*
X181482105Y-87531078D01*
X181502333Y-87493233D01*
X181529559Y-87460059D01*
X181562733Y-87432833D01*
X181600578Y-87412605D01*
X181641644Y-87400148D01*
X181686804Y-87395700D01*
X182295196Y-87395700D01*
X182340356Y-87400148D01*
X182340356Y-87400148D01*
G37*
G36*
X180816356Y-87400148D02*
X180857422Y-87412605D01*
X180895267Y-87432833D01*
X180928441Y-87460059D01*
X180955667Y-87493233D01*
X180975895Y-87531078D01*
X180988352Y-87572144D01*
X180992800Y-87617304D01*
X180992800Y-88150696D01*
X180988352Y-88195856D01*
X180975895Y-88236922D01*
X180955667Y-88274767D01*
X180928441Y-88307941D01*
X180895267Y-88335167D01*
X180857422Y-88355395D01*
X180816356Y-88367852D01*
X180771196Y-88372300D01*
X180162804Y-88372300D01*
X180117644Y-88367852D01*
X180076578Y-88355395D01*
X180038733Y-88335167D01*
X180005559Y-88307941D01*
X179978333Y-88274767D01*
X179958105Y-88236922D01*
X179945648Y-88195856D01*
X179941200Y-88150696D01*
X179941200Y-87617304D01*
X179945648Y-87572144D01*
X179958105Y-87531078D01*
X179978333Y-87493233D01*
X180005559Y-87460059D01*
X180038733Y-87432833D01*
X180076578Y-87412605D01*
X180117644Y-87400148D01*
X180162804Y-87395700D01*
X180771196Y-87395700D01*
X180816356Y-87400148D01*
X180816356Y-87400148D01*
G37*
G36*
X173577356Y-86333148D02*
X173618422Y-86345605D01*
X173656267Y-86365833D01*
X173689441Y-86393059D01*
X173716667Y-86426233D01*
X173736895Y-86464078D01*
X173749352Y-86505144D01*
X173753800Y-86550304D01*
X173753800Y-87083696D01*
X173749352Y-87128856D01*
X173736895Y-87169922D01*
X173716667Y-87207767D01*
X173689441Y-87240941D01*
X173656267Y-87268167D01*
X173618422Y-87288395D01*
X173577356Y-87300852D01*
X173532196Y-87305300D01*
X172923804Y-87305300D01*
X172878644Y-87300852D01*
X172837578Y-87288395D01*
X172799733Y-87268167D01*
X172766559Y-87240941D01*
X172739333Y-87207767D01*
X172719105Y-87169922D01*
X172706648Y-87128856D01*
X172702200Y-87083696D01*
X172702200Y-86550304D01*
X172706648Y-86505144D01*
X172719105Y-86464078D01*
X172739333Y-86426233D01*
X172766559Y-86393059D01*
X172799733Y-86365833D01*
X172837578Y-86345605D01*
X172878644Y-86333148D01*
X172923804Y-86328700D01*
X173532196Y-86328700D01*
X173577356Y-86333148D01*
X173577356Y-86333148D01*
G37*
G36*
X180448856Y-85838648D02*
X180489922Y-85851105D01*
X180527767Y-85871333D01*
X180560941Y-85898559D01*
X180588167Y-85931733D01*
X180608395Y-85969578D01*
X180620852Y-86010644D01*
X180625300Y-86055804D01*
X180625300Y-86664196D01*
X180620852Y-86709356D01*
X180608395Y-86750422D01*
X180588167Y-86788267D01*
X180560941Y-86821441D01*
X180527767Y-86848667D01*
X180489922Y-86868895D01*
X180448856Y-86881352D01*
X180403696Y-86885800D01*
X179870304Y-86885800D01*
X179825144Y-86881352D01*
X179784078Y-86868895D01*
X179746233Y-86848667D01*
X179713059Y-86821441D01*
X179685833Y-86788267D01*
X179665605Y-86750422D01*
X179653148Y-86709356D01*
X179648700Y-86664196D01*
X179648700Y-86055804D01*
X179653148Y-86010644D01*
X179665605Y-85969578D01*
X179685833Y-85931733D01*
X179713059Y-85898559D01*
X179746233Y-85871333D01*
X179784078Y-85851105D01*
X179825144Y-85838648D01*
X179870304Y-85834200D01*
X180403696Y-85834200D01*
X180448856Y-85838648D01*
X180448856Y-85838648D01*
G37*
G36*
X178873856Y-85838648D02*
X178914922Y-85851105D01*
X178952767Y-85871333D01*
X178985941Y-85898559D01*
X179013167Y-85931733D01*
X179033395Y-85969578D01*
X179045852Y-86010644D01*
X179050300Y-86055804D01*
X179050300Y-86664196D01*
X179045852Y-86709356D01*
X179033395Y-86750422D01*
X179013167Y-86788267D01*
X178985941Y-86821441D01*
X178952767Y-86848667D01*
X178914922Y-86868895D01*
X178873856Y-86881352D01*
X178828696Y-86885800D01*
X178295304Y-86885800D01*
X178250144Y-86881352D01*
X178209078Y-86868895D01*
X178171233Y-86848667D01*
X178138059Y-86821441D01*
X178110833Y-86788267D01*
X178090605Y-86750422D01*
X178078148Y-86709356D01*
X178073700Y-86664196D01*
X178073700Y-86055804D01*
X178078148Y-86010644D01*
X178090605Y-85969578D01*
X178110833Y-85931733D01*
X178138059Y-85898559D01*
X178171233Y-85871333D01*
X178209078Y-85851105D01*
X178250144Y-85838648D01*
X178295304Y-85834200D01*
X178828696Y-85834200D01*
X178873856Y-85838648D01*
X178873856Y-85838648D01*
G37*
G36*
X176028856Y-85838648D02*
X176069922Y-85851105D01*
X176107767Y-85871333D01*
X176140941Y-85898559D01*
X176168167Y-85931733D01*
X176188395Y-85969578D01*
X176200852Y-86010644D01*
X176205300Y-86055804D01*
X176205300Y-86664196D01*
X176200852Y-86709356D01*
X176188395Y-86750422D01*
X176168167Y-86788267D01*
X176140941Y-86821441D01*
X176107767Y-86848667D01*
X176069922Y-86868895D01*
X176028856Y-86881352D01*
X175983696Y-86885800D01*
X175450304Y-86885800D01*
X175405144Y-86881352D01*
X175364078Y-86868895D01*
X175326233Y-86848667D01*
X175293059Y-86821441D01*
X175265833Y-86788267D01*
X175245605Y-86750422D01*
X175233148Y-86709356D01*
X175228700Y-86664196D01*
X175228700Y-86055804D01*
X175233148Y-86010644D01*
X175245605Y-85969578D01*
X175265833Y-85931733D01*
X175293059Y-85898559D01*
X175326233Y-85871333D01*
X175364078Y-85851105D01*
X175405144Y-85838648D01*
X175450304Y-85834200D01*
X175983696Y-85834200D01*
X176028856Y-85838648D01*
X176028856Y-85838648D01*
G37*
G36*
X177603856Y-85838648D02*
X177644922Y-85851105D01*
X177682767Y-85871333D01*
X177715941Y-85898559D01*
X177743167Y-85931733D01*
X177763395Y-85969578D01*
X177775852Y-86010644D01*
X177780300Y-86055804D01*
X177780300Y-86664196D01*
X177775852Y-86709356D01*
X177763395Y-86750422D01*
X177743167Y-86788267D01*
X177715941Y-86821441D01*
X177682767Y-86848667D01*
X177644922Y-86868895D01*
X177603856Y-86881352D01*
X177558696Y-86885800D01*
X177025304Y-86885800D01*
X176980144Y-86881352D01*
X176939078Y-86868895D01*
X176901233Y-86848667D01*
X176868059Y-86821441D01*
X176840833Y-86788267D01*
X176820605Y-86750422D01*
X176808148Y-86709356D01*
X176803700Y-86664196D01*
X176803700Y-86055804D01*
X176808148Y-86010644D01*
X176820605Y-85969578D01*
X176840833Y-85931733D01*
X176868059Y-85898559D01*
X176901233Y-85871333D01*
X176939078Y-85851105D01*
X176980144Y-85838648D01*
X177025304Y-85834200D01*
X177558696Y-85834200D01*
X177603856Y-85838648D01*
X177603856Y-85838648D01*
G37*
G36*
X188349752Y-83461816D02*
X188349755Y-83461817D01*
X188349754Y-83461817D01*
X188513689Y-83529721D01*
X188611826Y-83595294D01*
X188661229Y-83628304D01*
X188786696Y-83753771D01*
X188786697Y-83753773D01*
X188885279Y-83901311D01*
X188885279Y-83901312D01*
X188953184Y-84065248D01*
X188987800Y-84239277D01*
X188987800Y-84416723D01*
X188953184Y-84590752D01*
X188953183Y-84590754D01*
X188885279Y-84754689D01*
X188819706Y-84852826D01*
X188786696Y-84902229D01*
X188661229Y-85027696D01*
X188611826Y-85060706D01*
X188513689Y-85126279D01*
X188397768Y-85174295D01*
X188349752Y-85194184D01*
X188175723Y-85228800D01*
X187998277Y-85228800D01*
X187824248Y-85194184D01*
X187776232Y-85174295D01*
X187660311Y-85126279D01*
X187562174Y-85060706D01*
X187512771Y-85027696D01*
X187387304Y-84902229D01*
X187354294Y-84852826D01*
X187288721Y-84754689D01*
X187220817Y-84590754D01*
X187220816Y-84590752D01*
X187186200Y-84416723D01*
X187186200Y-84239277D01*
X187220816Y-84065248D01*
X187288721Y-83901312D01*
X187288721Y-83901311D01*
X187387303Y-83753773D01*
X187387304Y-83753771D01*
X187512771Y-83628304D01*
X187562174Y-83595294D01*
X187660311Y-83529721D01*
X187824246Y-83461817D01*
X187824245Y-83461817D01*
X187824248Y-83461816D01*
X187998277Y-83427200D01*
X188175723Y-83427200D01*
X188349752Y-83461816D01*
X188349752Y-83461816D01*
G37*
G36*
X183269752Y-83461816D02*
X183269755Y-83461817D01*
X183269754Y-83461817D01*
X183433689Y-83529721D01*
X183531826Y-83595294D01*
X183581229Y-83628304D01*
X183706696Y-83753771D01*
X183706697Y-83753773D01*
X183805279Y-83901311D01*
X183805279Y-83901312D01*
X183873184Y-84065248D01*
X183907800Y-84239277D01*
X183907800Y-84416723D01*
X183873184Y-84590752D01*
X183873183Y-84590754D01*
X183805279Y-84754689D01*
X183739706Y-84852826D01*
X183706696Y-84902229D01*
X183581229Y-85027696D01*
X183531826Y-85060706D01*
X183433689Y-85126279D01*
X183317768Y-85174295D01*
X183269752Y-85194184D01*
X183095723Y-85228800D01*
X182918277Y-85228800D01*
X182744248Y-85194184D01*
X182696232Y-85174295D01*
X182580311Y-85126279D01*
X182482174Y-85060706D01*
X182432771Y-85027696D01*
X182307304Y-84902229D01*
X182274294Y-84852826D01*
X182208721Y-84754689D01*
X182140817Y-84590754D01*
X182140816Y-84590752D01*
X182106200Y-84416723D01*
X182106200Y-84239277D01*
X182140816Y-84065248D01*
X182208721Y-83901312D01*
X182208721Y-83901311D01*
X182307303Y-83753773D01*
X182307304Y-83753771D01*
X182432771Y-83628304D01*
X182482174Y-83595294D01*
X182580311Y-83529721D01*
X182744246Y-83461817D01*
X182744245Y-83461817D01*
X182744248Y-83461816D01*
X182918277Y-83427200D01*
X183095723Y-83427200D01*
X183269752Y-83461816D01*
X183269752Y-83461816D01*
G37*
G36*
X180729752Y-83461816D02*
X180729755Y-83461817D01*
X180729754Y-83461817D01*
X180893689Y-83529721D01*
X180991826Y-83595294D01*
X181041229Y-83628304D01*
X181166696Y-83753771D01*
X181166697Y-83753773D01*
X181265279Y-83901311D01*
X181265279Y-83901312D01*
X181333184Y-84065248D01*
X181367800Y-84239277D01*
X181367800Y-84416723D01*
X181333184Y-84590752D01*
X181333183Y-84590754D01*
X181265279Y-84754689D01*
X181199706Y-84852826D01*
X181166696Y-84902229D01*
X181041229Y-85027696D01*
X180991826Y-85060706D01*
X180893689Y-85126279D01*
X180777768Y-85174295D01*
X180729752Y-85194184D01*
X180555723Y-85228800D01*
X180378277Y-85228800D01*
X180204248Y-85194184D01*
X180156232Y-85174295D01*
X180040311Y-85126279D01*
X179942174Y-85060706D01*
X179892771Y-85027696D01*
X179767304Y-84902229D01*
X179734294Y-84852826D01*
X179668721Y-84754689D01*
X179600817Y-84590754D01*
X179600816Y-84590752D01*
X179566200Y-84416723D01*
X179566200Y-84239277D01*
X179600816Y-84065248D01*
X179668721Y-83901312D01*
X179668721Y-83901311D01*
X179767303Y-83753773D01*
X179767304Y-83753771D01*
X179892771Y-83628304D01*
X179942174Y-83595294D01*
X180040311Y-83529721D01*
X180204246Y-83461817D01*
X180204245Y-83461817D01*
X180204248Y-83461816D01*
X180378277Y-83427200D01*
X180555723Y-83427200D01*
X180729752Y-83461816D01*
X180729752Y-83461816D01*
G37*
G36*
X178189752Y-83461816D02*
X178189755Y-83461817D01*
X178189754Y-83461817D01*
X178353689Y-83529721D01*
X178451826Y-83595294D01*
X178501229Y-83628304D01*
X178626696Y-83753771D01*
X178626697Y-83753773D01*
X178725279Y-83901311D01*
X178725279Y-83901312D01*
X178793184Y-84065248D01*
X178827800Y-84239277D01*
X178827800Y-84416723D01*
X178793184Y-84590752D01*
X178793183Y-84590754D01*
X178725279Y-84754689D01*
X178659706Y-84852826D01*
X178626696Y-84902229D01*
X178501229Y-85027696D01*
X178451826Y-85060706D01*
X178353689Y-85126279D01*
X178237768Y-85174295D01*
X178189752Y-85194184D01*
X178015723Y-85228800D01*
X177838277Y-85228800D01*
X177664248Y-85194184D01*
X177616232Y-85174295D01*
X177500311Y-85126279D01*
X177402174Y-85060706D01*
X177352771Y-85027696D01*
X177227304Y-84902229D01*
X177194294Y-84852826D01*
X177128721Y-84754689D01*
X177060817Y-84590754D01*
X177060816Y-84590752D01*
X177026200Y-84416723D01*
X177026200Y-84239277D01*
X177060816Y-84065248D01*
X177128721Y-83901312D01*
X177128721Y-83901311D01*
X177227303Y-83753773D01*
X177227304Y-83753771D01*
X177352771Y-83628304D01*
X177402174Y-83595294D01*
X177500311Y-83529721D01*
X177664246Y-83461817D01*
X177664245Y-83461817D01*
X177664248Y-83461816D01*
X177838277Y-83427200D01*
X178015723Y-83427200D01*
X178189752Y-83461816D01*
X178189752Y-83461816D01*
G37*
G36*
X185809752Y-83461816D02*
X185809755Y-83461817D01*
X185809754Y-83461817D01*
X185973689Y-83529721D01*
X186071826Y-83595294D01*
X186121229Y-83628304D01*
X186246696Y-83753771D01*
X186246697Y-83753773D01*
X186345279Y-83901311D01*
X186345279Y-83901312D01*
X186413184Y-84065248D01*
X186447800Y-84239277D01*
X186447800Y-84416723D01*
X186413184Y-84590752D01*
X186413183Y-84590754D01*
X186345279Y-84754689D01*
X186279706Y-84852826D01*
X186246696Y-84902229D01*
X186121229Y-85027696D01*
X186071826Y-85060706D01*
X185973689Y-85126279D01*
X185857768Y-85174295D01*
X185809752Y-85194184D01*
X185635723Y-85228800D01*
X185458277Y-85228800D01*
X185284248Y-85194184D01*
X185236232Y-85174295D01*
X185120311Y-85126279D01*
X185022174Y-85060706D01*
X184972771Y-85027696D01*
X184847304Y-84902229D01*
X184814294Y-84852826D01*
X184748721Y-84754689D01*
X184680817Y-84590754D01*
X184680816Y-84590752D01*
X184646200Y-84416723D01*
X184646200Y-84239277D01*
X184680816Y-84065248D01*
X184748721Y-83901312D01*
X184748721Y-83901311D01*
X184847303Y-83753773D01*
X184847304Y-83753771D01*
X184972771Y-83628304D01*
X185022174Y-83595294D01*
X185120311Y-83529721D01*
X185284246Y-83461817D01*
X185284245Y-83461817D01*
X185284248Y-83461816D01*
X185458277Y-83427200D01*
X185635723Y-83427200D01*
X185809752Y-83461816D01*
X185809752Y-83461816D01*
G37*
G36*
X188349752Y-80921816D02*
X188349755Y-80921817D01*
X188349754Y-80921817D01*
X188513689Y-80989721D01*
X188611826Y-81055294D01*
X188661229Y-81088304D01*
X188786696Y-81213771D01*
X188786697Y-81213773D01*
X188885279Y-81361311D01*
X188885279Y-81361312D01*
X188953184Y-81525248D01*
X188987800Y-81699277D01*
X188987800Y-81876723D01*
X188953184Y-82050752D01*
X188953183Y-82050754D01*
X188885279Y-82214689D01*
X188819706Y-82312826D01*
X188786696Y-82362229D01*
X188661229Y-82487696D01*
X188611826Y-82520706D01*
X188513689Y-82586279D01*
X188397768Y-82634295D01*
X188349752Y-82654184D01*
X188175723Y-82688800D01*
X187998277Y-82688800D01*
X187824248Y-82654184D01*
X187776232Y-82634295D01*
X187660311Y-82586279D01*
X187562174Y-82520706D01*
X187512771Y-82487696D01*
X187387304Y-82362229D01*
X187354294Y-82312826D01*
X187288721Y-82214689D01*
X187220817Y-82050754D01*
X187220816Y-82050752D01*
X187186200Y-81876723D01*
X187186200Y-81699277D01*
X187220816Y-81525248D01*
X187288721Y-81361312D01*
X187288721Y-81361311D01*
X187387303Y-81213773D01*
X187387304Y-81213771D01*
X187512771Y-81088304D01*
X187562174Y-81055294D01*
X187660311Y-80989721D01*
X187824246Y-80921817D01*
X187824245Y-80921817D01*
X187824248Y-80921816D01*
X187998277Y-80887200D01*
X188175723Y-80887200D01*
X188349752Y-80921816D01*
X188349752Y-80921816D01*
G37*
G36*
X178189752Y-80921816D02*
X178189755Y-80921817D01*
X178189754Y-80921817D01*
X178353689Y-80989721D01*
X178451826Y-81055294D01*
X178501229Y-81088304D01*
X178626696Y-81213771D01*
X178626697Y-81213773D01*
X178725279Y-81361311D01*
X178725279Y-81361312D01*
X178793184Y-81525248D01*
X178827800Y-81699277D01*
X178827800Y-81876723D01*
X178793184Y-82050752D01*
X178793183Y-82050754D01*
X178725279Y-82214689D01*
X178659706Y-82312826D01*
X178626696Y-82362229D01*
X178501229Y-82487696D01*
X178451826Y-82520706D01*
X178353689Y-82586279D01*
X178237768Y-82634295D01*
X178189752Y-82654184D01*
X178015723Y-82688800D01*
X177838277Y-82688800D01*
X177664248Y-82654184D01*
X177616232Y-82634295D01*
X177500311Y-82586279D01*
X177402174Y-82520706D01*
X177352771Y-82487696D01*
X177227304Y-82362229D01*
X177194294Y-82312826D01*
X177128721Y-82214689D01*
X177060817Y-82050754D01*
X177060816Y-82050752D01*
X177026200Y-81876723D01*
X177026200Y-81699277D01*
X177060816Y-81525248D01*
X177128721Y-81361312D01*
X177128721Y-81361311D01*
X177227303Y-81213773D01*
X177227304Y-81213771D01*
X177352771Y-81088304D01*
X177402174Y-81055294D01*
X177500311Y-80989721D01*
X177664246Y-80921817D01*
X177664245Y-80921817D01*
X177664248Y-80921816D01*
X177838277Y-80887200D01*
X178015723Y-80887200D01*
X178189752Y-80921816D01*
X178189752Y-80921816D01*
G37*
G36*
X180729752Y-80921816D02*
X180729755Y-80921817D01*
X180729754Y-80921817D01*
X180893689Y-80989721D01*
X180991826Y-81055294D01*
X181041229Y-81088304D01*
X181166696Y-81213771D01*
X181166697Y-81213773D01*
X181265279Y-81361311D01*
X181265279Y-81361312D01*
X181333184Y-81525248D01*
X181367800Y-81699277D01*
X181367800Y-81876723D01*
X181333184Y-82050752D01*
X181333183Y-82050754D01*
X181265279Y-82214689D01*
X181199706Y-82312826D01*
X181166696Y-82362229D01*
X181041229Y-82487696D01*
X180991826Y-82520706D01*
X180893689Y-82586279D01*
X180777768Y-82634295D01*
X180729752Y-82654184D01*
X180555723Y-82688800D01*
X180378277Y-82688800D01*
X180204248Y-82654184D01*
X180156232Y-82634295D01*
X180040311Y-82586279D01*
X179942174Y-82520706D01*
X179892771Y-82487696D01*
X179767304Y-82362229D01*
X179734294Y-82312826D01*
X179668721Y-82214689D01*
X179600817Y-82050754D01*
X179600816Y-82050752D01*
X179566200Y-81876723D01*
X179566200Y-81699277D01*
X179600816Y-81525248D01*
X179668721Y-81361312D01*
X179668721Y-81361311D01*
X179767303Y-81213773D01*
X179767304Y-81213771D01*
X179892771Y-81088304D01*
X179942174Y-81055294D01*
X180040311Y-80989721D01*
X180204246Y-80921817D01*
X180204245Y-80921817D01*
X180204248Y-80921816D01*
X180378277Y-80887200D01*
X180555723Y-80887200D01*
X180729752Y-80921816D01*
X180729752Y-80921816D01*
G37*
G36*
X183269752Y-80921816D02*
X183269755Y-80921817D01*
X183269754Y-80921817D01*
X183433689Y-80989721D01*
X183531826Y-81055294D01*
X183581229Y-81088304D01*
X183706696Y-81213771D01*
X183706697Y-81213773D01*
X183805279Y-81361311D01*
X183805279Y-81361312D01*
X183873184Y-81525248D01*
X183907800Y-81699277D01*
X183907800Y-81876723D01*
X183873184Y-82050752D01*
X183873183Y-82050754D01*
X183805279Y-82214689D01*
X183739706Y-82312826D01*
X183706696Y-82362229D01*
X183581229Y-82487696D01*
X183531826Y-82520706D01*
X183433689Y-82586279D01*
X183317768Y-82634295D01*
X183269752Y-82654184D01*
X183095723Y-82688800D01*
X182918277Y-82688800D01*
X182744248Y-82654184D01*
X182696232Y-82634295D01*
X182580311Y-82586279D01*
X182482174Y-82520706D01*
X182432771Y-82487696D01*
X182307304Y-82362229D01*
X182274294Y-82312826D01*
X182208721Y-82214689D01*
X182140817Y-82050754D01*
X182140816Y-82050752D01*
X182106200Y-81876723D01*
X182106200Y-81699277D01*
X182140816Y-81525248D01*
X182208721Y-81361312D01*
X182208721Y-81361311D01*
X182307303Y-81213773D01*
X182307304Y-81213771D01*
X182432771Y-81088304D01*
X182482174Y-81055294D01*
X182580311Y-80989721D01*
X182744246Y-80921817D01*
X182744245Y-80921817D01*
X182744248Y-80921816D01*
X182918277Y-80887200D01*
X183095723Y-80887200D01*
X183269752Y-80921816D01*
X183269752Y-80921816D01*
G37*
G36*
X185809752Y-80921816D02*
X185809755Y-80921817D01*
X185809754Y-80921817D01*
X185973689Y-80989721D01*
X186071826Y-81055294D01*
X186121229Y-81088304D01*
X186246696Y-81213771D01*
X186246697Y-81213773D01*
X186345279Y-81361311D01*
X186345279Y-81361312D01*
X186413184Y-81525248D01*
X186447800Y-81699277D01*
X186447800Y-81876723D01*
X186413184Y-82050752D01*
X186413183Y-82050754D01*
X186345279Y-82214689D01*
X186279706Y-82312826D01*
X186246696Y-82362229D01*
X186121229Y-82487696D01*
X186071826Y-82520706D01*
X185973689Y-82586279D01*
X185857768Y-82634295D01*
X185809752Y-82654184D01*
X185635723Y-82688800D01*
X185458277Y-82688800D01*
X185284248Y-82654184D01*
X185236232Y-82634295D01*
X185120311Y-82586279D01*
X185022174Y-82520706D01*
X184972771Y-82487696D01*
X184847304Y-82362229D01*
X184814294Y-82312826D01*
X184748721Y-82214689D01*
X184680817Y-82050754D01*
X184680816Y-82050752D01*
X184646200Y-81876723D01*
X184646200Y-81699277D01*
X184680816Y-81525248D01*
X184748721Y-81361312D01*
X184748721Y-81361311D01*
X184847303Y-81213773D01*
X184847304Y-81213771D01*
X184972771Y-81088304D01*
X185022174Y-81055294D01*
X185120311Y-80989721D01*
X185284246Y-80921817D01*
X185284245Y-80921817D01*
X185284248Y-80921816D01*
X185458277Y-80887200D01*
X185635723Y-80887200D01*
X185809752Y-80921816D01*
X185809752Y-80921816D01*
G37*
M02*
