G04 #@! TF.GenerationSoftware,KiCad,Pcbnew,5.0.2+dfsg1-1~bpo9+1*
G04 #@! TF.CreationDate,2019-04-13T04:29:40+03:00*
G04 #@! TF.ProjectId,kicad,6b696361-642e-46b6-9963-61645f706362,rev?*
G04 #@! TF.SameCoordinates,Original*
G04 #@! TF.FileFunction,Legend,Bot*
G04 #@! TF.FilePolarity,Positive*
%FSLAX46Y46*%
G04 Gerber Fmt 4.6, Leading zero omitted, Abs format (unit mm)*
G04 Created by KiCad (PCBNEW 5.0.2+dfsg1-1~bpo9+1) date Sat 13 Apr 2019 04:29:40 AM MSK*
%MOMM*%
%LPD*%
G01*
G04 APERTURE LIST*
%ADD10C,0.100000*%
%ADD11C,0.120000*%
%ADD12C,0.127000*%
%ADD13C,0.200000*%
%ADD14C,0.150000*%
%ADD15C,0.125000*%
%ADD16R,5.181600X5.181600*%
%ADD17R,7.101600X8.101600*%
%ADD18C,0.976600*%
%ADD19R,1.001600X0.901600*%
%ADD20C,1.801600*%
%ADD21R,0.630800X0.400800*%
%ADD22R,0.400800X0.630800*%
%ADD23R,1.101600X1.901600*%
%ADD24R,1.050800X0.300800*%
%ADD25R,0.300800X1.050800*%
G04 APERTURE END LIST*
D10*
G04 #@! TO.C,BT1*
X154679036Y-85186274D02*
G75*
G02X138853667Y-85109667I-7867036J9468274D01*
G01*
X154710540Y-85158207D02*
G75*
G02X155270333Y-84926333I559793J-559793D01*
G01*
X138913460Y-85158207D02*
G75*
G03X138353667Y-84926333I-559793J-559793D01*
G01*
X136103667Y-87176333D02*
G75*
G02X138353667Y-84926333I2250000J0D01*
G01*
X157520333Y-87176333D02*
G75*
G03X155270333Y-84926333I-2250000J0D01*
G01*
X157520333Y-90634667D02*
X157520333Y-87134667D01*
X136103667Y-90634667D02*
X136103667Y-87134667D01*
X157520333Y-98551333D02*
X157520333Y-95801333D01*
X150103667Y-103426333D02*
X157520333Y-98551333D01*
X150103667Y-104093000D02*
X150103667Y-103426333D01*
X143520333Y-104093000D02*
X150103667Y-104093000D01*
X143520333Y-104093000D02*
X143520333Y-103426333D01*
X143520333Y-103426333D02*
X136103667Y-98551333D01*
X136103667Y-98551333D02*
X136103667Y-95801333D01*
D11*
G04 #@! TO.C,C1_1*
X173226000Y-104256721D02*
X173226000Y-104582279D01*
X174246000Y-104256721D02*
X174246000Y-104582279D01*
G04 #@! TO.C,R3*
X180977000Y-88834279D02*
X180977000Y-88508721D01*
X179957000Y-88834279D02*
X179957000Y-88508721D01*
G04 #@! TO.C,FB1*
X181980721Y-102491000D02*
X182306279Y-102491000D01*
X181980721Y-101471000D02*
X182306279Y-101471000D01*
G04 #@! TO.C,Q1*
X153287000Y-103703000D02*
X153287000Y-104633000D01*
X153287000Y-106863000D02*
X153287000Y-105933000D01*
X153287000Y-106863000D02*
X151127000Y-106863000D01*
X153287000Y-103703000D02*
X151827000Y-103703000D01*
G04 #@! TO.C,C16*
X179186721Y-86870000D02*
X179512279Y-86870000D01*
X179186721Y-85850000D02*
X179512279Y-85850000D01*
G04 #@! TO.C,C15*
X176341721Y-85850000D02*
X176667279Y-85850000D01*
X176341721Y-86870000D02*
X176667279Y-86870000D01*
G04 #@! TO.C,C14*
X150243000Y-106182279D02*
X150243000Y-105856721D01*
X149223000Y-106182279D02*
X149223000Y-105856721D01*
G04 #@! TO.C,C2*
X172718000Y-87767279D02*
X172718000Y-87441721D01*
X173738000Y-87767279D02*
X173738000Y-87441721D01*
D12*
G04 #@! TO.C,U2*
X144234400Y-106141600D02*
X144884400Y-106141600D01*
X144234400Y-106291600D02*
X144234400Y-106141600D01*
X147334400Y-106141600D02*
X146684400Y-106141600D01*
X147334400Y-106291600D02*
X147334400Y-106141600D01*
X147334400Y-108741600D02*
X147334400Y-108591600D01*
X146684400Y-108741600D02*
X147334400Y-108741600D01*
X144234400Y-108741600D02*
X144234400Y-108591600D01*
X144884400Y-108741600D02*
X144234400Y-108741600D01*
D13*
X143934400Y-108191600D02*
G75*
G03X143934400Y-108191600I-100000J0D01*
G01*
D11*
G04 #@! TO.C,R2*
X181481000Y-88834279D02*
X181481000Y-88508721D01*
X182501000Y-88834279D02*
X182501000Y-88508721D01*
G04 #@! TO.C,C13*
X147699000Y-106182279D02*
X147699000Y-105856721D01*
X148719000Y-106182279D02*
X148719000Y-105856721D01*
G04 #@! TO.C,C12*
X145734721Y-104773000D02*
X146060279Y-104773000D01*
X145734721Y-105793000D02*
X146060279Y-105793000D01*
G04 #@! TO.C,C10*
X178818000Y-104256721D02*
X178818000Y-104582279D01*
X177798000Y-104256721D02*
X177798000Y-104582279D01*
G04 #@! TO.C,C9*
X177294000Y-104256721D02*
X177294000Y-104582279D01*
X176274000Y-104256721D02*
X176274000Y-104582279D01*
G04 #@! TO.C,C8*
X181980721Y-98423000D02*
X182306279Y-98423000D01*
X181980721Y-99443000D02*
X182306279Y-99443000D01*
G04 #@! TO.C,C7*
X181980721Y-94193900D02*
X182306279Y-94193900D01*
X181980721Y-95213900D02*
X182306279Y-95213900D01*
G04 #@! TO.C,C6*
X181980721Y-98046000D02*
X182306279Y-98046000D01*
X181980721Y-97026000D02*
X182306279Y-97026000D01*
G04 #@! TO.C,C5*
X163955000Y-96809779D02*
X163955000Y-96484221D01*
X164975000Y-96809779D02*
X164975000Y-96484221D01*
G04 #@! TO.C,C4*
X165352000Y-96809779D02*
X165352000Y-96484221D01*
X166372000Y-96809779D02*
X166372000Y-96484221D01*
G04 #@! TO.C,C3*
X181980721Y-95629000D02*
X182306279Y-95629000D01*
X181980721Y-96649000D02*
X182306279Y-96649000D01*
G04 #@! TO.C,C1*
X175770000Y-104256721D02*
X175770000Y-104582279D01*
X174750000Y-104256721D02*
X174750000Y-104582279D01*
G04 #@! TO.C,Y1*
X176998000Y-89013000D02*
X178348000Y-89013000D01*
X176998000Y-87263000D02*
X178348000Y-87263000D01*
D14*
G04 #@! TO.C,U1*
X169932080Y-90582560D02*
X169932080Y-89557560D01*
X168932080Y-100932560D02*
X168932080Y-99857560D01*
X179282080Y-100932560D02*
X179282080Y-99857560D01*
X179282080Y-90582560D02*
X179282080Y-91657560D01*
X168932080Y-90582560D02*
X168932080Y-91657560D01*
X179282080Y-90582560D02*
X178207080Y-90582560D01*
X179282080Y-100932560D02*
X178207080Y-100932560D01*
X168932080Y-100932560D02*
X170007080Y-100932560D01*
X168932080Y-90582560D02*
X169932080Y-90582560D01*
D11*
G04 #@! TO.C,R1*
X181980721Y-99947000D02*
X182306279Y-99947000D01*
X181980721Y-100967000D02*
X182306279Y-100967000D01*
G04 #@! TO.C,C11*
X162558000Y-96809779D02*
X162558000Y-96484221D01*
X163578000Y-96809779D02*
X163578000Y-96484221D01*
G04 #@! TO.C,BT1*
D15*
X148907238Y-86575142D02*
X148954857Y-86622761D01*
X149097714Y-86670380D01*
X149192952Y-86670380D01*
X149335809Y-86622761D01*
X149431047Y-86527523D01*
X149478666Y-86432285D01*
X149526285Y-86241809D01*
X149526285Y-86098952D01*
X149478666Y-85908476D01*
X149431047Y-85813238D01*
X149335809Y-85718000D01*
X149192952Y-85670380D01*
X149097714Y-85670380D01*
X148954857Y-85718000D01*
X148907238Y-85765619D01*
X147907238Y-86670380D02*
X148240571Y-86194190D01*
X148478666Y-86670380D02*
X148478666Y-85670380D01*
X148097714Y-85670380D01*
X148002476Y-85718000D01*
X147954857Y-85765619D01*
X147907238Y-85860857D01*
X147907238Y-86003714D01*
X147954857Y-86098952D01*
X148002476Y-86146571D01*
X148097714Y-86194190D01*
X148478666Y-86194190D01*
X147526285Y-85765619D02*
X147478666Y-85718000D01*
X147383428Y-85670380D01*
X147145333Y-85670380D01*
X147050095Y-85718000D01*
X147002476Y-85765619D01*
X146954857Y-85860857D01*
X146954857Y-85956095D01*
X147002476Y-86098952D01*
X147573904Y-86670380D01*
X146954857Y-86670380D01*
X146335809Y-85670380D02*
X146240571Y-85670380D01*
X146145333Y-85718000D01*
X146097714Y-85765619D01*
X146050095Y-85860857D01*
X146002476Y-86051333D01*
X146002476Y-86289428D01*
X146050095Y-86479904D01*
X146097714Y-86575142D01*
X146145333Y-86622761D01*
X146240571Y-86670380D01*
X146335809Y-86670380D01*
X146431047Y-86622761D01*
X146478666Y-86575142D01*
X146526285Y-86479904D01*
X146573904Y-86289428D01*
X146573904Y-86051333D01*
X146526285Y-85860857D01*
X146478666Y-85765619D01*
X146431047Y-85718000D01*
X146335809Y-85670380D01*
X145050095Y-86670380D02*
X145621523Y-86670380D01*
X145335809Y-86670380D02*
X145335809Y-85670380D01*
X145431047Y-85813238D01*
X145526285Y-85908476D01*
X145621523Y-85956095D01*
X144192952Y-85670380D02*
X144383428Y-85670380D01*
X144478666Y-85718000D01*
X144526285Y-85765619D01*
X144621523Y-85908476D01*
X144669142Y-86098952D01*
X144669142Y-86479904D01*
X144621523Y-86575142D01*
X144573904Y-86622761D01*
X144478666Y-86670380D01*
X144288190Y-86670380D01*
X144192952Y-86622761D01*
X144145333Y-86575142D01*
X144097714Y-86479904D01*
X144097714Y-86241809D01*
X144145333Y-86146571D01*
X144192952Y-86098952D01*
X144288190Y-86051333D01*
X144478666Y-86051333D01*
X144573904Y-86098952D01*
X144621523Y-86146571D01*
X144669142Y-86241809D01*
G04 #@! TD*
%LPC*%
D10*
G36*
X144907000Y-106807000D02*
X146685000Y-106807000D01*
X146685000Y-108077000D01*
X144907000Y-108077000D01*
X144907000Y-106807000D01*
G37*
D16*
G04 #@! TO.C,BT1*
X133962000Y-93218000D03*
X159662000Y-93218000D03*
D17*
X146812000Y-93218000D03*
G04 #@! TD*
D10*
G04 #@! TO.C,C1_1*
G36*
X174041581Y-103144876D02*
X174065281Y-103148391D01*
X174088523Y-103154213D01*
X174111082Y-103162285D01*
X174132742Y-103172529D01*
X174153292Y-103184847D01*
X174172537Y-103199119D01*
X174190290Y-103215210D01*
X174206381Y-103232963D01*
X174220653Y-103252208D01*
X174232971Y-103272758D01*
X174243215Y-103294418D01*
X174251287Y-103316977D01*
X174257109Y-103340219D01*
X174260624Y-103363919D01*
X174261800Y-103387850D01*
X174261800Y-103876150D01*
X174260624Y-103900081D01*
X174257109Y-103923781D01*
X174251287Y-103947023D01*
X174243215Y-103969582D01*
X174232971Y-103991242D01*
X174220653Y-104011792D01*
X174206381Y-104031037D01*
X174190290Y-104048790D01*
X174172537Y-104064881D01*
X174153292Y-104079153D01*
X174132742Y-104091471D01*
X174111082Y-104101715D01*
X174088523Y-104109787D01*
X174065281Y-104115609D01*
X174041581Y-104119124D01*
X174017650Y-104120300D01*
X173454350Y-104120300D01*
X173430419Y-104119124D01*
X173406719Y-104115609D01*
X173383477Y-104109787D01*
X173360918Y-104101715D01*
X173339258Y-104091471D01*
X173318708Y-104079153D01*
X173299463Y-104064881D01*
X173281710Y-104048790D01*
X173265619Y-104031037D01*
X173251347Y-104011792D01*
X173239029Y-103991242D01*
X173228785Y-103969582D01*
X173220713Y-103947023D01*
X173214891Y-103923781D01*
X173211376Y-103900081D01*
X173210200Y-103876150D01*
X173210200Y-103387850D01*
X173211376Y-103363919D01*
X173214891Y-103340219D01*
X173220713Y-103316977D01*
X173228785Y-103294418D01*
X173239029Y-103272758D01*
X173251347Y-103252208D01*
X173265619Y-103232963D01*
X173281710Y-103215210D01*
X173299463Y-103199119D01*
X173318708Y-103184847D01*
X173339258Y-103172529D01*
X173360918Y-103162285D01*
X173383477Y-103154213D01*
X173406719Y-103148391D01*
X173430419Y-103144876D01*
X173454350Y-103143700D01*
X174017650Y-103143700D01*
X174041581Y-103144876D01*
X174041581Y-103144876D01*
G37*
D18*
X173736000Y-103632000D03*
D10*
G36*
X174041581Y-104719876D02*
X174065281Y-104723391D01*
X174088523Y-104729213D01*
X174111082Y-104737285D01*
X174132742Y-104747529D01*
X174153292Y-104759847D01*
X174172537Y-104774119D01*
X174190290Y-104790210D01*
X174206381Y-104807963D01*
X174220653Y-104827208D01*
X174232971Y-104847758D01*
X174243215Y-104869418D01*
X174251287Y-104891977D01*
X174257109Y-104915219D01*
X174260624Y-104938919D01*
X174261800Y-104962850D01*
X174261800Y-105451150D01*
X174260624Y-105475081D01*
X174257109Y-105498781D01*
X174251287Y-105522023D01*
X174243215Y-105544582D01*
X174232971Y-105566242D01*
X174220653Y-105586792D01*
X174206381Y-105606037D01*
X174190290Y-105623790D01*
X174172537Y-105639881D01*
X174153292Y-105654153D01*
X174132742Y-105666471D01*
X174111082Y-105676715D01*
X174088523Y-105684787D01*
X174065281Y-105690609D01*
X174041581Y-105694124D01*
X174017650Y-105695300D01*
X173454350Y-105695300D01*
X173430419Y-105694124D01*
X173406719Y-105690609D01*
X173383477Y-105684787D01*
X173360918Y-105676715D01*
X173339258Y-105666471D01*
X173318708Y-105654153D01*
X173299463Y-105639881D01*
X173281710Y-105623790D01*
X173265619Y-105606037D01*
X173251347Y-105586792D01*
X173239029Y-105566242D01*
X173228785Y-105544582D01*
X173220713Y-105522023D01*
X173214891Y-105498781D01*
X173211376Y-105475081D01*
X173210200Y-105451150D01*
X173210200Y-104962850D01*
X173211376Y-104938919D01*
X173214891Y-104915219D01*
X173220713Y-104891977D01*
X173228785Y-104869418D01*
X173239029Y-104847758D01*
X173251347Y-104827208D01*
X173265619Y-104807963D01*
X173281710Y-104790210D01*
X173299463Y-104774119D01*
X173318708Y-104759847D01*
X173339258Y-104747529D01*
X173360918Y-104737285D01*
X173383477Y-104729213D01*
X173406719Y-104723391D01*
X173430419Y-104719876D01*
X173454350Y-104718700D01*
X174017650Y-104718700D01*
X174041581Y-104719876D01*
X174041581Y-104719876D01*
G37*
D18*
X173736000Y-105207000D03*
G04 #@! TD*
D10*
G04 #@! TO.C,R3*
G36*
X180772581Y-88971876D02*
X180796281Y-88975391D01*
X180819523Y-88981213D01*
X180842082Y-88989285D01*
X180863742Y-88999529D01*
X180884292Y-89011847D01*
X180903537Y-89026119D01*
X180921290Y-89042210D01*
X180937381Y-89059963D01*
X180951653Y-89079208D01*
X180963971Y-89099758D01*
X180974215Y-89121418D01*
X180982287Y-89143977D01*
X180988109Y-89167219D01*
X180991624Y-89190919D01*
X180992800Y-89214850D01*
X180992800Y-89703150D01*
X180991624Y-89727081D01*
X180988109Y-89750781D01*
X180982287Y-89774023D01*
X180974215Y-89796582D01*
X180963971Y-89818242D01*
X180951653Y-89838792D01*
X180937381Y-89858037D01*
X180921290Y-89875790D01*
X180903537Y-89891881D01*
X180884292Y-89906153D01*
X180863742Y-89918471D01*
X180842082Y-89928715D01*
X180819523Y-89936787D01*
X180796281Y-89942609D01*
X180772581Y-89946124D01*
X180748650Y-89947300D01*
X180185350Y-89947300D01*
X180161419Y-89946124D01*
X180137719Y-89942609D01*
X180114477Y-89936787D01*
X180091918Y-89928715D01*
X180070258Y-89918471D01*
X180049708Y-89906153D01*
X180030463Y-89891881D01*
X180012710Y-89875790D01*
X179996619Y-89858037D01*
X179982347Y-89838792D01*
X179970029Y-89818242D01*
X179959785Y-89796582D01*
X179951713Y-89774023D01*
X179945891Y-89750781D01*
X179942376Y-89727081D01*
X179941200Y-89703150D01*
X179941200Y-89214850D01*
X179942376Y-89190919D01*
X179945891Y-89167219D01*
X179951713Y-89143977D01*
X179959785Y-89121418D01*
X179970029Y-89099758D01*
X179982347Y-89079208D01*
X179996619Y-89059963D01*
X180012710Y-89042210D01*
X180030463Y-89026119D01*
X180049708Y-89011847D01*
X180070258Y-88999529D01*
X180091918Y-88989285D01*
X180114477Y-88981213D01*
X180137719Y-88975391D01*
X180161419Y-88971876D01*
X180185350Y-88970700D01*
X180748650Y-88970700D01*
X180772581Y-88971876D01*
X180772581Y-88971876D01*
G37*
D18*
X180467000Y-89459000D03*
D10*
G36*
X180772581Y-87396876D02*
X180796281Y-87400391D01*
X180819523Y-87406213D01*
X180842082Y-87414285D01*
X180863742Y-87424529D01*
X180884292Y-87436847D01*
X180903537Y-87451119D01*
X180921290Y-87467210D01*
X180937381Y-87484963D01*
X180951653Y-87504208D01*
X180963971Y-87524758D01*
X180974215Y-87546418D01*
X180982287Y-87568977D01*
X180988109Y-87592219D01*
X180991624Y-87615919D01*
X180992800Y-87639850D01*
X180992800Y-88128150D01*
X180991624Y-88152081D01*
X180988109Y-88175781D01*
X180982287Y-88199023D01*
X180974215Y-88221582D01*
X180963971Y-88243242D01*
X180951653Y-88263792D01*
X180937381Y-88283037D01*
X180921290Y-88300790D01*
X180903537Y-88316881D01*
X180884292Y-88331153D01*
X180863742Y-88343471D01*
X180842082Y-88353715D01*
X180819523Y-88361787D01*
X180796281Y-88367609D01*
X180772581Y-88371124D01*
X180748650Y-88372300D01*
X180185350Y-88372300D01*
X180161419Y-88371124D01*
X180137719Y-88367609D01*
X180114477Y-88361787D01*
X180091918Y-88353715D01*
X180070258Y-88343471D01*
X180049708Y-88331153D01*
X180030463Y-88316881D01*
X180012710Y-88300790D01*
X179996619Y-88283037D01*
X179982347Y-88263792D01*
X179970029Y-88243242D01*
X179959785Y-88221582D01*
X179951713Y-88199023D01*
X179945891Y-88175781D01*
X179942376Y-88152081D01*
X179941200Y-88128150D01*
X179941200Y-87639850D01*
X179942376Y-87615919D01*
X179945891Y-87592219D01*
X179951713Y-87568977D01*
X179959785Y-87546418D01*
X179970029Y-87524758D01*
X179982347Y-87504208D01*
X179996619Y-87484963D01*
X180012710Y-87467210D01*
X180030463Y-87451119D01*
X180049708Y-87436847D01*
X180070258Y-87424529D01*
X180091918Y-87414285D01*
X180114477Y-87406213D01*
X180137719Y-87400391D01*
X180161419Y-87396876D01*
X180185350Y-87395700D01*
X180748650Y-87395700D01*
X180772581Y-87396876D01*
X180772581Y-87396876D01*
G37*
D18*
X180467000Y-87884000D03*
G04 #@! TD*
D10*
G04 #@! TO.C,FB1*
G36*
X181624081Y-101456376D02*
X181647781Y-101459891D01*
X181671023Y-101465713D01*
X181693582Y-101473785D01*
X181715242Y-101484029D01*
X181735792Y-101496347D01*
X181755037Y-101510619D01*
X181772790Y-101526710D01*
X181788881Y-101544463D01*
X181803153Y-101563708D01*
X181815471Y-101584258D01*
X181825715Y-101605918D01*
X181833787Y-101628477D01*
X181839609Y-101651719D01*
X181843124Y-101675419D01*
X181844300Y-101699350D01*
X181844300Y-102262650D01*
X181843124Y-102286581D01*
X181839609Y-102310281D01*
X181833787Y-102333523D01*
X181825715Y-102356082D01*
X181815471Y-102377742D01*
X181803153Y-102398292D01*
X181788881Y-102417537D01*
X181772790Y-102435290D01*
X181755037Y-102451381D01*
X181735792Y-102465653D01*
X181715242Y-102477971D01*
X181693582Y-102488215D01*
X181671023Y-102496287D01*
X181647781Y-102502109D01*
X181624081Y-102505624D01*
X181600150Y-102506800D01*
X181111850Y-102506800D01*
X181087919Y-102505624D01*
X181064219Y-102502109D01*
X181040977Y-102496287D01*
X181018418Y-102488215D01*
X180996758Y-102477971D01*
X180976208Y-102465653D01*
X180956963Y-102451381D01*
X180939210Y-102435290D01*
X180923119Y-102417537D01*
X180908847Y-102398292D01*
X180896529Y-102377742D01*
X180886285Y-102356082D01*
X180878213Y-102333523D01*
X180872391Y-102310281D01*
X180868876Y-102286581D01*
X180867700Y-102262650D01*
X180867700Y-101699350D01*
X180868876Y-101675419D01*
X180872391Y-101651719D01*
X180878213Y-101628477D01*
X180886285Y-101605918D01*
X180896529Y-101584258D01*
X180908847Y-101563708D01*
X180923119Y-101544463D01*
X180939210Y-101526710D01*
X180956963Y-101510619D01*
X180976208Y-101496347D01*
X180996758Y-101484029D01*
X181018418Y-101473785D01*
X181040977Y-101465713D01*
X181064219Y-101459891D01*
X181087919Y-101456376D01*
X181111850Y-101455200D01*
X181600150Y-101455200D01*
X181624081Y-101456376D01*
X181624081Y-101456376D01*
G37*
D18*
X181356000Y-101981000D03*
D10*
G36*
X183199081Y-101456376D02*
X183222781Y-101459891D01*
X183246023Y-101465713D01*
X183268582Y-101473785D01*
X183290242Y-101484029D01*
X183310792Y-101496347D01*
X183330037Y-101510619D01*
X183347790Y-101526710D01*
X183363881Y-101544463D01*
X183378153Y-101563708D01*
X183390471Y-101584258D01*
X183400715Y-101605918D01*
X183408787Y-101628477D01*
X183414609Y-101651719D01*
X183418124Y-101675419D01*
X183419300Y-101699350D01*
X183419300Y-102262650D01*
X183418124Y-102286581D01*
X183414609Y-102310281D01*
X183408787Y-102333523D01*
X183400715Y-102356082D01*
X183390471Y-102377742D01*
X183378153Y-102398292D01*
X183363881Y-102417537D01*
X183347790Y-102435290D01*
X183330037Y-102451381D01*
X183310792Y-102465653D01*
X183290242Y-102477971D01*
X183268582Y-102488215D01*
X183246023Y-102496287D01*
X183222781Y-102502109D01*
X183199081Y-102505624D01*
X183175150Y-102506800D01*
X182686850Y-102506800D01*
X182662919Y-102505624D01*
X182639219Y-102502109D01*
X182615977Y-102496287D01*
X182593418Y-102488215D01*
X182571758Y-102477971D01*
X182551208Y-102465653D01*
X182531963Y-102451381D01*
X182514210Y-102435290D01*
X182498119Y-102417537D01*
X182483847Y-102398292D01*
X182471529Y-102377742D01*
X182461285Y-102356082D01*
X182453213Y-102333523D01*
X182447391Y-102310281D01*
X182443876Y-102286581D01*
X182442700Y-102262650D01*
X182442700Y-101699350D01*
X182443876Y-101675419D01*
X182447391Y-101651719D01*
X182453213Y-101628477D01*
X182461285Y-101605918D01*
X182471529Y-101584258D01*
X182483847Y-101563708D01*
X182498119Y-101544463D01*
X182514210Y-101526710D01*
X182531963Y-101510619D01*
X182551208Y-101496347D01*
X182571758Y-101484029D01*
X182593418Y-101473785D01*
X182615977Y-101465713D01*
X182639219Y-101459891D01*
X182662919Y-101456376D01*
X182686850Y-101455200D01*
X183175150Y-101455200D01*
X183199081Y-101456376D01*
X183199081Y-101456376D01*
G37*
D18*
X182931000Y-101981000D03*
G04 #@! TD*
D19*
G04 #@! TO.C,Q1*
X151527000Y-106233000D03*
X151527000Y-104333000D03*
X153527000Y-105283000D03*
G04 #@! TD*
D10*
G04 #@! TO.C,C16*
G36*
X178830081Y-85835376D02*
X178853781Y-85838891D01*
X178877023Y-85844713D01*
X178899582Y-85852785D01*
X178921242Y-85863029D01*
X178941792Y-85875347D01*
X178961037Y-85889619D01*
X178978790Y-85905710D01*
X178994881Y-85923463D01*
X179009153Y-85942708D01*
X179021471Y-85963258D01*
X179031715Y-85984918D01*
X179039787Y-86007477D01*
X179045609Y-86030719D01*
X179049124Y-86054419D01*
X179050300Y-86078350D01*
X179050300Y-86641650D01*
X179049124Y-86665581D01*
X179045609Y-86689281D01*
X179039787Y-86712523D01*
X179031715Y-86735082D01*
X179021471Y-86756742D01*
X179009153Y-86777292D01*
X178994881Y-86796537D01*
X178978790Y-86814290D01*
X178961037Y-86830381D01*
X178941792Y-86844653D01*
X178921242Y-86856971D01*
X178899582Y-86867215D01*
X178877023Y-86875287D01*
X178853781Y-86881109D01*
X178830081Y-86884624D01*
X178806150Y-86885800D01*
X178317850Y-86885800D01*
X178293919Y-86884624D01*
X178270219Y-86881109D01*
X178246977Y-86875287D01*
X178224418Y-86867215D01*
X178202758Y-86856971D01*
X178182208Y-86844653D01*
X178162963Y-86830381D01*
X178145210Y-86814290D01*
X178129119Y-86796537D01*
X178114847Y-86777292D01*
X178102529Y-86756742D01*
X178092285Y-86735082D01*
X178084213Y-86712523D01*
X178078391Y-86689281D01*
X178074876Y-86665581D01*
X178073700Y-86641650D01*
X178073700Y-86078350D01*
X178074876Y-86054419D01*
X178078391Y-86030719D01*
X178084213Y-86007477D01*
X178092285Y-85984918D01*
X178102529Y-85963258D01*
X178114847Y-85942708D01*
X178129119Y-85923463D01*
X178145210Y-85905710D01*
X178162963Y-85889619D01*
X178182208Y-85875347D01*
X178202758Y-85863029D01*
X178224418Y-85852785D01*
X178246977Y-85844713D01*
X178270219Y-85838891D01*
X178293919Y-85835376D01*
X178317850Y-85834200D01*
X178806150Y-85834200D01*
X178830081Y-85835376D01*
X178830081Y-85835376D01*
G37*
D18*
X178562000Y-86360000D03*
D10*
G36*
X180405081Y-85835376D02*
X180428781Y-85838891D01*
X180452023Y-85844713D01*
X180474582Y-85852785D01*
X180496242Y-85863029D01*
X180516792Y-85875347D01*
X180536037Y-85889619D01*
X180553790Y-85905710D01*
X180569881Y-85923463D01*
X180584153Y-85942708D01*
X180596471Y-85963258D01*
X180606715Y-85984918D01*
X180614787Y-86007477D01*
X180620609Y-86030719D01*
X180624124Y-86054419D01*
X180625300Y-86078350D01*
X180625300Y-86641650D01*
X180624124Y-86665581D01*
X180620609Y-86689281D01*
X180614787Y-86712523D01*
X180606715Y-86735082D01*
X180596471Y-86756742D01*
X180584153Y-86777292D01*
X180569881Y-86796537D01*
X180553790Y-86814290D01*
X180536037Y-86830381D01*
X180516792Y-86844653D01*
X180496242Y-86856971D01*
X180474582Y-86867215D01*
X180452023Y-86875287D01*
X180428781Y-86881109D01*
X180405081Y-86884624D01*
X180381150Y-86885800D01*
X179892850Y-86885800D01*
X179868919Y-86884624D01*
X179845219Y-86881109D01*
X179821977Y-86875287D01*
X179799418Y-86867215D01*
X179777758Y-86856971D01*
X179757208Y-86844653D01*
X179737963Y-86830381D01*
X179720210Y-86814290D01*
X179704119Y-86796537D01*
X179689847Y-86777292D01*
X179677529Y-86756742D01*
X179667285Y-86735082D01*
X179659213Y-86712523D01*
X179653391Y-86689281D01*
X179649876Y-86665581D01*
X179648700Y-86641650D01*
X179648700Y-86078350D01*
X179649876Y-86054419D01*
X179653391Y-86030719D01*
X179659213Y-86007477D01*
X179667285Y-85984918D01*
X179677529Y-85963258D01*
X179689847Y-85942708D01*
X179704119Y-85923463D01*
X179720210Y-85905710D01*
X179737963Y-85889619D01*
X179757208Y-85875347D01*
X179777758Y-85863029D01*
X179799418Y-85852785D01*
X179821977Y-85844713D01*
X179845219Y-85838891D01*
X179868919Y-85835376D01*
X179892850Y-85834200D01*
X180381150Y-85834200D01*
X180405081Y-85835376D01*
X180405081Y-85835376D01*
G37*
D18*
X180137000Y-86360000D03*
G04 #@! TD*
D10*
G04 #@! TO.C,C15*
G36*
X177560081Y-85835376D02*
X177583781Y-85838891D01*
X177607023Y-85844713D01*
X177629582Y-85852785D01*
X177651242Y-85863029D01*
X177671792Y-85875347D01*
X177691037Y-85889619D01*
X177708790Y-85905710D01*
X177724881Y-85923463D01*
X177739153Y-85942708D01*
X177751471Y-85963258D01*
X177761715Y-85984918D01*
X177769787Y-86007477D01*
X177775609Y-86030719D01*
X177779124Y-86054419D01*
X177780300Y-86078350D01*
X177780300Y-86641650D01*
X177779124Y-86665581D01*
X177775609Y-86689281D01*
X177769787Y-86712523D01*
X177761715Y-86735082D01*
X177751471Y-86756742D01*
X177739153Y-86777292D01*
X177724881Y-86796537D01*
X177708790Y-86814290D01*
X177691037Y-86830381D01*
X177671792Y-86844653D01*
X177651242Y-86856971D01*
X177629582Y-86867215D01*
X177607023Y-86875287D01*
X177583781Y-86881109D01*
X177560081Y-86884624D01*
X177536150Y-86885800D01*
X177047850Y-86885800D01*
X177023919Y-86884624D01*
X177000219Y-86881109D01*
X176976977Y-86875287D01*
X176954418Y-86867215D01*
X176932758Y-86856971D01*
X176912208Y-86844653D01*
X176892963Y-86830381D01*
X176875210Y-86814290D01*
X176859119Y-86796537D01*
X176844847Y-86777292D01*
X176832529Y-86756742D01*
X176822285Y-86735082D01*
X176814213Y-86712523D01*
X176808391Y-86689281D01*
X176804876Y-86665581D01*
X176803700Y-86641650D01*
X176803700Y-86078350D01*
X176804876Y-86054419D01*
X176808391Y-86030719D01*
X176814213Y-86007477D01*
X176822285Y-85984918D01*
X176832529Y-85963258D01*
X176844847Y-85942708D01*
X176859119Y-85923463D01*
X176875210Y-85905710D01*
X176892963Y-85889619D01*
X176912208Y-85875347D01*
X176932758Y-85863029D01*
X176954418Y-85852785D01*
X176976977Y-85844713D01*
X177000219Y-85838891D01*
X177023919Y-85835376D01*
X177047850Y-85834200D01*
X177536150Y-85834200D01*
X177560081Y-85835376D01*
X177560081Y-85835376D01*
G37*
D18*
X177292000Y-86360000D03*
D10*
G36*
X175985081Y-85835376D02*
X176008781Y-85838891D01*
X176032023Y-85844713D01*
X176054582Y-85852785D01*
X176076242Y-85863029D01*
X176096792Y-85875347D01*
X176116037Y-85889619D01*
X176133790Y-85905710D01*
X176149881Y-85923463D01*
X176164153Y-85942708D01*
X176176471Y-85963258D01*
X176186715Y-85984918D01*
X176194787Y-86007477D01*
X176200609Y-86030719D01*
X176204124Y-86054419D01*
X176205300Y-86078350D01*
X176205300Y-86641650D01*
X176204124Y-86665581D01*
X176200609Y-86689281D01*
X176194787Y-86712523D01*
X176186715Y-86735082D01*
X176176471Y-86756742D01*
X176164153Y-86777292D01*
X176149881Y-86796537D01*
X176133790Y-86814290D01*
X176116037Y-86830381D01*
X176096792Y-86844653D01*
X176076242Y-86856971D01*
X176054582Y-86867215D01*
X176032023Y-86875287D01*
X176008781Y-86881109D01*
X175985081Y-86884624D01*
X175961150Y-86885800D01*
X175472850Y-86885800D01*
X175448919Y-86884624D01*
X175425219Y-86881109D01*
X175401977Y-86875287D01*
X175379418Y-86867215D01*
X175357758Y-86856971D01*
X175337208Y-86844653D01*
X175317963Y-86830381D01*
X175300210Y-86814290D01*
X175284119Y-86796537D01*
X175269847Y-86777292D01*
X175257529Y-86756742D01*
X175247285Y-86735082D01*
X175239213Y-86712523D01*
X175233391Y-86689281D01*
X175229876Y-86665581D01*
X175228700Y-86641650D01*
X175228700Y-86078350D01*
X175229876Y-86054419D01*
X175233391Y-86030719D01*
X175239213Y-86007477D01*
X175247285Y-85984918D01*
X175257529Y-85963258D01*
X175269847Y-85942708D01*
X175284119Y-85923463D01*
X175300210Y-85905710D01*
X175317963Y-85889619D01*
X175337208Y-85875347D01*
X175357758Y-85863029D01*
X175379418Y-85852785D01*
X175401977Y-85844713D01*
X175425219Y-85838891D01*
X175448919Y-85835376D01*
X175472850Y-85834200D01*
X175961150Y-85834200D01*
X175985081Y-85835376D01*
X175985081Y-85835376D01*
G37*
D18*
X175717000Y-86360000D03*
G04 #@! TD*
D10*
G04 #@! TO.C,C14*
G36*
X150038581Y-106319876D02*
X150062281Y-106323391D01*
X150085523Y-106329213D01*
X150108082Y-106337285D01*
X150129742Y-106347529D01*
X150150292Y-106359847D01*
X150169537Y-106374119D01*
X150187290Y-106390210D01*
X150203381Y-106407963D01*
X150217653Y-106427208D01*
X150229971Y-106447758D01*
X150240215Y-106469418D01*
X150248287Y-106491977D01*
X150254109Y-106515219D01*
X150257624Y-106538919D01*
X150258800Y-106562850D01*
X150258800Y-107051150D01*
X150257624Y-107075081D01*
X150254109Y-107098781D01*
X150248287Y-107122023D01*
X150240215Y-107144582D01*
X150229971Y-107166242D01*
X150217653Y-107186792D01*
X150203381Y-107206037D01*
X150187290Y-107223790D01*
X150169537Y-107239881D01*
X150150292Y-107254153D01*
X150129742Y-107266471D01*
X150108082Y-107276715D01*
X150085523Y-107284787D01*
X150062281Y-107290609D01*
X150038581Y-107294124D01*
X150014650Y-107295300D01*
X149451350Y-107295300D01*
X149427419Y-107294124D01*
X149403719Y-107290609D01*
X149380477Y-107284787D01*
X149357918Y-107276715D01*
X149336258Y-107266471D01*
X149315708Y-107254153D01*
X149296463Y-107239881D01*
X149278710Y-107223790D01*
X149262619Y-107206037D01*
X149248347Y-107186792D01*
X149236029Y-107166242D01*
X149225785Y-107144582D01*
X149217713Y-107122023D01*
X149211891Y-107098781D01*
X149208376Y-107075081D01*
X149207200Y-107051150D01*
X149207200Y-106562850D01*
X149208376Y-106538919D01*
X149211891Y-106515219D01*
X149217713Y-106491977D01*
X149225785Y-106469418D01*
X149236029Y-106447758D01*
X149248347Y-106427208D01*
X149262619Y-106407963D01*
X149278710Y-106390210D01*
X149296463Y-106374119D01*
X149315708Y-106359847D01*
X149336258Y-106347529D01*
X149357918Y-106337285D01*
X149380477Y-106329213D01*
X149403719Y-106323391D01*
X149427419Y-106319876D01*
X149451350Y-106318700D01*
X150014650Y-106318700D01*
X150038581Y-106319876D01*
X150038581Y-106319876D01*
G37*
D18*
X149733000Y-106807000D03*
D10*
G36*
X150038581Y-104744876D02*
X150062281Y-104748391D01*
X150085523Y-104754213D01*
X150108082Y-104762285D01*
X150129742Y-104772529D01*
X150150292Y-104784847D01*
X150169537Y-104799119D01*
X150187290Y-104815210D01*
X150203381Y-104832963D01*
X150217653Y-104852208D01*
X150229971Y-104872758D01*
X150240215Y-104894418D01*
X150248287Y-104916977D01*
X150254109Y-104940219D01*
X150257624Y-104963919D01*
X150258800Y-104987850D01*
X150258800Y-105476150D01*
X150257624Y-105500081D01*
X150254109Y-105523781D01*
X150248287Y-105547023D01*
X150240215Y-105569582D01*
X150229971Y-105591242D01*
X150217653Y-105611792D01*
X150203381Y-105631037D01*
X150187290Y-105648790D01*
X150169537Y-105664881D01*
X150150292Y-105679153D01*
X150129742Y-105691471D01*
X150108082Y-105701715D01*
X150085523Y-105709787D01*
X150062281Y-105715609D01*
X150038581Y-105719124D01*
X150014650Y-105720300D01*
X149451350Y-105720300D01*
X149427419Y-105719124D01*
X149403719Y-105715609D01*
X149380477Y-105709787D01*
X149357918Y-105701715D01*
X149336258Y-105691471D01*
X149315708Y-105679153D01*
X149296463Y-105664881D01*
X149278710Y-105648790D01*
X149262619Y-105631037D01*
X149248347Y-105611792D01*
X149236029Y-105591242D01*
X149225785Y-105569582D01*
X149217713Y-105547023D01*
X149211891Y-105523781D01*
X149208376Y-105500081D01*
X149207200Y-105476150D01*
X149207200Y-104987850D01*
X149208376Y-104963919D01*
X149211891Y-104940219D01*
X149217713Y-104916977D01*
X149225785Y-104894418D01*
X149236029Y-104872758D01*
X149248347Y-104852208D01*
X149262619Y-104832963D01*
X149278710Y-104815210D01*
X149296463Y-104799119D01*
X149315708Y-104784847D01*
X149336258Y-104772529D01*
X149357918Y-104762285D01*
X149380477Y-104754213D01*
X149403719Y-104748391D01*
X149427419Y-104744876D01*
X149451350Y-104743700D01*
X150014650Y-104743700D01*
X150038581Y-104744876D01*
X150038581Y-104744876D01*
G37*
D18*
X149733000Y-105232000D03*
G04 #@! TD*
D10*
G04 #@! TO.C,C2*
G36*
X173533581Y-86329876D02*
X173557281Y-86333391D01*
X173580523Y-86339213D01*
X173603082Y-86347285D01*
X173624742Y-86357529D01*
X173645292Y-86369847D01*
X173664537Y-86384119D01*
X173682290Y-86400210D01*
X173698381Y-86417963D01*
X173712653Y-86437208D01*
X173724971Y-86457758D01*
X173735215Y-86479418D01*
X173743287Y-86501977D01*
X173749109Y-86525219D01*
X173752624Y-86548919D01*
X173753800Y-86572850D01*
X173753800Y-87061150D01*
X173752624Y-87085081D01*
X173749109Y-87108781D01*
X173743287Y-87132023D01*
X173735215Y-87154582D01*
X173724971Y-87176242D01*
X173712653Y-87196792D01*
X173698381Y-87216037D01*
X173682290Y-87233790D01*
X173664537Y-87249881D01*
X173645292Y-87264153D01*
X173624742Y-87276471D01*
X173603082Y-87286715D01*
X173580523Y-87294787D01*
X173557281Y-87300609D01*
X173533581Y-87304124D01*
X173509650Y-87305300D01*
X172946350Y-87305300D01*
X172922419Y-87304124D01*
X172898719Y-87300609D01*
X172875477Y-87294787D01*
X172852918Y-87286715D01*
X172831258Y-87276471D01*
X172810708Y-87264153D01*
X172791463Y-87249881D01*
X172773710Y-87233790D01*
X172757619Y-87216037D01*
X172743347Y-87196792D01*
X172731029Y-87176242D01*
X172720785Y-87154582D01*
X172712713Y-87132023D01*
X172706891Y-87108781D01*
X172703376Y-87085081D01*
X172702200Y-87061150D01*
X172702200Y-86572850D01*
X172703376Y-86548919D01*
X172706891Y-86525219D01*
X172712713Y-86501977D01*
X172720785Y-86479418D01*
X172731029Y-86457758D01*
X172743347Y-86437208D01*
X172757619Y-86417963D01*
X172773710Y-86400210D01*
X172791463Y-86384119D01*
X172810708Y-86369847D01*
X172831258Y-86357529D01*
X172852918Y-86347285D01*
X172875477Y-86339213D01*
X172898719Y-86333391D01*
X172922419Y-86329876D01*
X172946350Y-86328700D01*
X173509650Y-86328700D01*
X173533581Y-86329876D01*
X173533581Y-86329876D01*
G37*
D18*
X173228000Y-86817000D03*
D10*
G36*
X173533581Y-87904876D02*
X173557281Y-87908391D01*
X173580523Y-87914213D01*
X173603082Y-87922285D01*
X173624742Y-87932529D01*
X173645292Y-87944847D01*
X173664537Y-87959119D01*
X173682290Y-87975210D01*
X173698381Y-87992963D01*
X173712653Y-88012208D01*
X173724971Y-88032758D01*
X173735215Y-88054418D01*
X173743287Y-88076977D01*
X173749109Y-88100219D01*
X173752624Y-88123919D01*
X173753800Y-88147850D01*
X173753800Y-88636150D01*
X173752624Y-88660081D01*
X173749109Y-88683781D01*
X173743287Y-88707023D01*
X173735215Y-88729582D01*
X173724971Y-88751242D01*
X173712653Y-88771792D01*
X173698381Y-88791037D01*
X173682290Y-88808790D01*
X173664537Y-88824881D01*
X173645292Y-88839153D01*
X173624742Y-88851471D01*
X173603082Y-88861715D01*
X173580523Y-88869787D01*
X173557281Y-88875609D01*
X173533581Y-88879124D01*
X173509650Y-88880300D01*
X172946350Y-88880300D01*
X172922419Y-88879124D01*
X172898719Y-88875609D01*
X172875477Y-88869787D01*
X172852918Y-88861715D01*
X172831258Y-88851471D01*
X172810708Y-88839153D01*
X172791463Y-88824881D01*
X172773710Y-88808790D01*
X172757619Y-88791037D01*
X172743347Y-88771792D01*
X172731029Y-88751242D01*
X172720785Y-88729582D01*
X172712713Y-88707023D01*
X172706891Y-88683781D01*
X172703376Y-88660081D01*
X172702200Y-88636150D01*
X172702200Y-88147850D01*
X172703376Y-88123919D01*
X172706891Y-88100219D01*
X172712713Y-88076977D01*
X172720785Y-88054418D01*
X172731029Y-88032758D01*
X172743347Y-88012208D01*
X172757619Y-87992963D01*
X172773710Y-87975210D01*
X172791463Y-87959119D01*
X172810708Y-87944847D01*
X172831258Y-87932529D01*
X172852918Y-87922285D01*
X172875477Y-87914213D01*
X172898719Y-87908391D01*
X172922419Y-87904876D01*
X172946350Y-87903700D01*
X173509650Y-87903700D01*
X173533581Y-87904876D01*
X173533581Y-87904876D01*
G37*
D18*
X173228000Y-88392000D03*
G04 #@! TD*
D20*
G04 #@! TO.C,J1*
X183007000Y-81788000D03*
X180467000Y-84328000D03*
X180467000Y-81788000D03*
X177927000Y-84328000D03*
X177927000Y-81788000D03*
X188087000Y-84328000D03*
X188087000Y-81788000D03*
X185547000Y-84328000D03*
X185547000Y-81788000D03*
X183007000Y-84328000D03*
G04 #@! TD*
D21*
G04 #@! TO.C,U2*
X144609400Y-106691600D03*
X144609400Y-107191600D03*
X144609400Y-107691600D03*
X144609400Y-108191600D03*
D22*
X146284400Y-106516600D03*
X145784400Y-106516600D03*
X145284400Y-106516600D03*
D21*
X146959400Y-106691600D03*
X146959400Y-107191600D03*
X146959400Y-107691600D03*
X146959400Y-108191600D03*
D22*
X146284400Y-108366600D03*
X145784400Y-108366600D03*
X145284400Y-108366600D03*
G04 #@! TD*
D10*
G04 #@! TO.C,R2*
G36*
X182296581Y-87396876D02*
X182320281Y-87400391D01*
X182343523Y-87406213D01*
X182366082Y-87414285D01*
X182387742Y-87424529D01*
X182408292Y-87436847D01*
X182427537Y-87451119D01*
X182445290Y-87467210D01*
X182461381Y-87484963D01*
X182475653Y-87504208D01*
X182487971Y-87524758D01*
X182498215Y-87546418D01*
X182506287Y-87568977D01*
X182512109Y-87592219D01*
X182515624Y-87615919D01*
X182516800Y-87639850D01*
X182516800Y-88128150D01*
X182515624Y-88152081D01*
X182512109Y-88175781D01*
X182506287Y-88199023D01*
X182498215Y-88221582D01*
X182487971Y-88243242D01*
X182475653Y-88263792D01*
X182461381Y-88283037D01*
X182445290Y-88300790D01*
X182427537Y-88316881D01*
X182408292Y-88331153D01*
X182387742Y-88343471D01*
X182366082Y-88353715D01*
X182343523Y-88361787D01*
X182320281Y-88367609D01*
X182296581Y-88371124D01*
X182272650Y-88372300D01*
X181709350Y-88372300D01*
X181685419Y-88371124D01*
X181661719Y-88367609D01*
X181638477Y-88361787D01*
X181615918Y-88353715D01*
X181594258Y-88343471D01*
X181573708Y-88331153D01*
X181554463Y-88316881D01*
X181536710Y-88300790D01*
X181520619Y-88283037D01*
X181506347Y-88263792D01*
X181494029Y-88243242D01*
X181483785Y-88221582D01*
X181475713Y-88199023D01*
X181469891Y-88175781D01*
X181466376Y-88152081D01*
X181465200Y-88128150D01*
X181465200Y-87639850D01*
X181466376Y-87615919D01*
X181469891Y-87592219D01*
X181475713Y-87568977D01*
X181483785Y-87546418D01*
X181494029Y-87524758D01*
X181506347Y-87504208D01*
X181520619Y-87484963D01*
X181536710Y-87467210D01*
X181554463Y-87451119D01*
X181573708Y-87436847D01*
X181594258Y-87424529D01*
X181615918Y-87414285D01*
X181638477Y-87406213D01*
X181661719Y-87400391D01*
X181685419Y-87396876D01*
X181709350Y-87395700D01*
X182272650Y-87395700D01*
X182296581Y-87396876D01*
X182296581Y-87396876D01*
G37*
D18*
X181991000Y-87884000D03*
D10*
G36*
X182296581Y-88971876D02*
X182320281Y-88975391D01*
X182343523Y-88981213D01*
X182366082Y-88989285D01*
X182387742Y-88999529D01*
X182408292Y-89011847D01*
X182427537Y-89026119D01*
X182445290Y-89042210D01*
X182461381Y-89059963D01*
X182475653Y-89079208D01*
X182487971Y-89099758D01*
X182498215Y-89121418D01*
X182506287Y-89143977D01*
X182512109Y-89167219D01*
X182515624Y-89190919D01*
X182516800Y-89214850D01*
X182516800Y-89703150D01*
X182515624Y-89727081D01*
X182512109Y-89750781D01*
X182506287Y-89774023D01*
X182498215Y-89796582D01*
X182487971Y-89818242D01*
X182475653Y-89838792D01*
X182461381Y-89858037D01*
X182445290Y-89875790D01*
X182427537Y-89891881D01*
X182408292Y-89906153D01*
X182387742Y-89918471D01*
X182366082Y-89928715D01*
X182343523Y-89936787D01*
X182320281Y-89942609D01*
X182296581Y-89946124D01*
X182272650Y-89947300D01*
X181709350Y-89947300D01*
X181685419Y-89946124D01*
X181661719Y-89942609D01*
X181638477Y-89936787D01*
X181615918Y-89928715D01*
X181594258Y-89918471D01*
X181573708Y-89906153D01*
X181554463Y-89891881D01*
X181536710Y-89875790D01*
X181520619Y-89858037D01*
X181506347Y-89838792D01*
X181494029Y-89818242D01*
X181483785Y-89796582D01*
X181475713Y-89774023D01*
X181469891Y-89750781D01*
X181466376Y-89727081D01*
X181465200Y-89703150D01*
X181465200Y-89214850D01*
X181466376Y-89190919D01*
X181469891Y-89167219D01*
X181475713Y-89143977D01*
X181483785Y-89121418D01*
X181494029Y-89099758D01*
X181506347Y-89079208D01*
X181520619Y-89059963D01*
X181536710Y-89042210D01*
X181554463Y-89026119D01*
X181573708Y-89011847D01*
X181594258Y-88999529D01*
X181615918Y-88989285D01*
X181638477Y-88981213D01*
X181661719Y-88975391D01*
X181685419Y-88971876D01*
X181709350Y-88970700D01*
X182272650Y-88970700D01*
X182296581Y-88971876D01*
X182296581Y-88971876D01*
G37*
D18*
X181991000Y-89459000D03*
G04 #@! TD*
D10*
G04 #@! TO.C,C13*
G36*
X148514581Y-104744876D02*
X148538281Y-104748391D01*
X148561523Y-104754213D01*
X148584082Y-104762285D01*
X148605742Y-104772529D01*
X148626292Y-104784847D01*
X148645537Y-104799119D01*
X148663290Y-104815210D01*
X148679381Y-104832963D01*
X148693653Y-104852208D01*
X148705971Y-104872758D01*
X148716215Y-104894418D01*
X148724287Y-104916977D01*
X148730109Y-104940219D01*
X148733624Y-104963919D01*
X148734800Y-104987850D01*
X148734800Y-105476150D01*
X148733624Y-105500081D01*
X148730109Y-105523781D01*
X148724287Y-105547023D01*
X148716215Y-105569582D01*
X148705971Y-105591242D01*
X148693653Y-105611792D01*
X148679381Y-105631037D01*
X148663290Y-105648790D01*
X148645537Y-105664881D01*
X148626292Y-105679153D01*
X148605742Y-105691471D01*
X148584082Y-105701715D01*
X148561523Y-105709787D01*
X148538281Y-105715609D01*
X148514581Y-105719124D01*
X148490650Y-105720300D01*
X147927350Y-105720300D01*
X147903419Y-105719124D01*
X147879719Y-105715609D01*
X147856477Y-105709787D01*
X147833918Y-105701715D01*
X147812258Y-105691471D01*
X147791708Y-105679153D01*
X147772463Y-105664881D01*
X147754710Y-105648790D01*
X147738619Y-105631037D01*
X147724347Y-105611792D01*
X147712029Y-105591242D01*
X147701785Y-105569582D01*
X147693713Y-105547023D01*
X147687891Y-105523781D01*
X147684376Y-105500081D01*
X147683200Y-105476150D01*
X147683200Y-104987850D01*
X147684376Y-104963919D01*
X147687891Y-104940219D01*
X147693713Y-104916977D01*
X147701785Y-104894418D01*
X147712029Y-104872758D01*
X147724347Y-104852208D01*
X147738619Y-104832963D01*
X147754710Y-104815210D01*
X147772463Y-104799119D01*
X147791708Y-104784847D01*
X147812258Y-104772529D01*
X147833918Y-104762285D01*
X147856477Y-104754213D01*
X147879719Y-104748391D01*
X147903419Y-104744876D01*
X147927350Y-104743700D01*
X148490650Y-104743700D01*
X148514581Y-104744876D01*
X148514581Y-104744876D01*
G37*
D18*
X148209000Y-105232000D03*
D10*
G36*
X148514581Y-106319876D02*
X148538281Y-106323391D01*
X148561523Y-106329213D01*
X148584082Y-106337285D01*
X148605742Y-106347529D01*
X148626292Y-106359847D01*
X148645537Y-106374119D01*
X148663290Y-106390210D01*
X148679381Y-106407963D01*
X148693653Y-106427208D01*
X148705971Y-106447758D01*
X148716215Y-106469418D01*
X148724287Y-106491977D01*
X148730109Y-106515219D01*
X148733624Y-106538919D01*
X148734800Y-106562850D01*
X148734800Y-107051150D01*
X148733624Y-107075081D01*
X148730109Y-107098781D01*
X148724287Y-107122023D01*
X148716215Y-107144582D01*
X148705971Y-107166242D01*
X148693653Y-107186792D01*
X148679381Y-107206037D01*
X148663290Y-107223790D01*
X148645537Y-107239881D01*
X148626292Y-107254153D01*
X148605742Y-107266471D01*
X148584082Y-107276715D01*
X148561523Y-107284787D01*
X148538281Y-107290609D01*
X148514581Y-107294124D01*
X148490650Y-107295300D01*
X147927350Y-107295300D01*
X147903419Y-107294124D01*
X147879719Y-107290609D01*
X147856477Y-107284787D01*
X147833918Y-107276715D01*
X147812258Y-107266471D01*
X147791708Y-107254153D01*
X147772463Y-107239881D01*
X147754710Y-107223790D01*
X147738619Y-107206037D01*
X147724347Y-107186792D01*
X147712029Y-107166242D01*
X147701785Y-107144582D01*
X147693713Y-107122023D01*
X147687891Y-107098781D01*
X147684376Y-107075081D01*
X147683200Y-107051150D01*
X147683200Y-106562850D01*
X147684376Y-106538919D01*
X147687891Y-106515219D01*
X147693713Y-106491977D01*
X147701785Y-106469418D01*
X147712029Y-106447758D01*
X147724347Y-106427208D01*
X147738619Y-106407963D01*
X147754710Y-106390210D01*
X147772463Y-106374119D01*
X147791708Y-106359847D01*
X147812258Y-106347529D01*
X147833918Y-106337285D01*
X147856477Y-106329213D01*
X147879719Y-106323391D01*
X147903419Y-106319876D01*
X147927350Y-106318700D01*
X148490650Y-106318700D01*
X148514581Y-106319876D01*
X148514581Y-106319876D01*
G37*
D18*
X148209000Y-106807000D03*
G04 #@! TD*
D10*
G04 #@! TO.C,C12*
G36*
X146953081Y-104758376D02*
X146976781Y-104761891D01*
X147000023Y-104767713D01*
X147022582Y-104775785D01*
X147044242Y-104786029D01*
X147064792Y-104798347D01*
X147084037Y-104812619D01*
X147101790Y-104828710D01*
X147117881Y-104846463D01*
X147132153Y-104865708D01*
X147144471Y-104886258D01*
X147154715Y-104907918D01*
X147162787Y-104930477D01*
X147168609Y-104953719D01*
X147172124Y-104977419D01*
X147173300Y-105001350D01*
X147173300Y-105564650D01*
X147172124Y-105588581D01*
X147168609Y-105612281D01*
X147162787Y-105635523D01*
X147154715Y-105658082D01*
X147144471Y-105679742D01*
X147132153Y-105700292D01*
X147117881Y-105719537D01*
X147101790Y-105737290D01*
X147084037Y-105753381D01*
X147064792Y-105767653D01*
X147044242Y-105779971D01*
X147022582Y-105790215D01*
X147000023Y-105798287D01*
X146976781Y-105804109D01*
X146953081Y-105807624D01*
X146929150Y-105808800D01*
X146440850Y-105808800D01*
X146416919Y-105807624D01*
X146393219Y-105804109D01*
X146369977Y-105798287D01*
X146347418Y-105790215D01*
X146325758Y-105779971D01*
X146305208Y-105767653D01*
X146285963Y-105753381D01*
X146268210Y-105737290D01*
X146252119Y-105719537D01*
X146237847Y-105700292D01*
X146225529Y-105679742D01*
X146215285Y-105658082D01*
X146207213Y-105635523D01*
X146201391Y-105612281D01*
X146197876Y-105588581D01*
X146196700Y-105564650D01*
X146196700Y-105001350D01*
X146197876Y-104977419D01*
X146201391Y-104953719D01*
X146207213Y-104930477D01*
X146215285Y-104907918D01*
X146225529Y-104886258D01*
X146237847Y-104865708D01*
X146252119Y-104846463D01*
X146268210Y-104828710D01*
X146285963Y-104812619D01*
X146305208Y-104798347D01*
X146325758Y-104786029D01*
X146347418Y-104775785D01*
X146369977Y-104767713D01*
X146393219Y-104761891D01*
X146416919Y-104758376D01*
X146440850Y-104757200D01*
X146929150Y-104757200D01*
X146953081Y-104758376D01*
X146953081Y-104758376D01*
G37*
D18*
X146685000Y-105283000D03*
D10*
G36*
X145378081Y-104758376D02*
X145401781Y-104761891D01*
X145425023Y-104767713D01*
X145447582Y-104775785D01*
X145469242Y-104786029D01*
X145489792Y-104798347D01*
X145509037Y-104812619D01*
X145526790Y-104828710D01*
X145542881Y-104846463D01*
X145557153Y-104865708D01*
X145569471Y-104886258D01*
X145579715Y-104907918D01*
X145587787Y-104930477D01*
X145593609Y-104953719D01*
X145597124Y-104977419D01*
X145598300Y-105001350D01*
X145598300Y-105564650D01*
X145597124Y-105588581D01*
X145593609Y-105612281D01*
X145587787Y-105635523D01*
X145579715Y-105658082D01*
X145569471Y-105679742D01*
X145557153Y-105700292D01*
X145542881Y-105719537D01*
X145526790Y-105737290D01*
X145509037Y-105753381D01*
X145489792Y-105767653D01*
X145469242Y-105779971D01*
X145447582Y-105790215D01*
X145425023Y-105798287D01*
X145401781Y-105804109D01*
X145378081Y-105807624D01*
X145354150Y-105808800D01*
X144865850Y-105808800D01*
X144841919Y-105807624D01*
X144818219Y-105804109D01*
X144794977Y-105798287D01*
X144772418Y-105790215D01*
X144750758Y-105779971D01*
X144730208Y-105767653D01*
X144710963Y-105753381D01*
X144693210Y-105737290D01*
X144677119Y-105719537D01*
X144662847Y-105700292D01*
X144650529Y-105679742D01*
X144640285Y-105658082D01*
X144632213Y-105635523D01*
X144626391Y-105612281D01*
X144622876Y-105588581D01*
X144621700Y-105564650D01*
X144621700Y-105001350D01*
X144622876Y-104977419D01*
X144626391Y-104953719D01*
X144632213Y-104930477D01*
X144640285Y-104907918D01*
X144650529Y-104886258D01*
X144662847Y-104865708D01*
X144677119Y-104846463D01*
X144693210Y-104828710D01*
X144710963Y-104812619D01*
X144730208Y-104798347D01*
X144750758Y-104786029D01*
X144772418Y-104775785D01*
X144794977Y-104767713D01*
X144818219Y-104761891D01*
X144841919Y-104758376D01*
X144865850Y-104757200D01*
X145354150Y-104757200D01*
X145378081Y-104758376D01*
X145378081Y-104758376D01*
G37*
D18*
X145110000Y-105283000D03*
G04 #@! TD*
D10*
G04 #@! TO.C,C10*
G36*
X178613581Y-104719876D02*
X178637281Y-104723391D01*
X178660523Y-104729213D01*
X178683082Y-104737285D01*
X178704742Y-104747529D01*
X178725292Y-104759847D01*
X178744537Y-104774119D01*
X178762290Y-104790210D01*
X178778381Y-104807963D01*
X178792653Y-104827208D01*
X178804971Y-104847758D01*
X178815215Y-104869418D01*
X178823287Y-104891977D01*
X178829109Y-104915219D01*
X178832624Y-104938919D01*
X178833800Y-104962850D01*
X178833800Y-105451150D01*
X178832624Y-105475081D01*
X178829109Y-105498781D01*
X178823287Y-105522023D01*
X178815215Y-105544582D01*
X178804971Y-105566242D01*
X178792653Y-105586792D01*
X178778381Y-105606037D01*
X178762290Y-105623790D01*
X178744537Y-105639881D01*
X178725292Y-105654153D01*
X178704742Y-105666471D01*
X178683082Y-105676715D01*
X178660523Y-105684787D01*
X178637281Y-105690609D01*
X178613581Y-105694124D01*
X178589650Y-105695300D01*
X178026350Y-105695300D01*
X178002419Y-105694124D01*
X177978719Y-105690609D01*
X177955477Y-105684787D01*
X177932918Y-105676715D01*
X177911258Y-105666471D01*
X177890708Y-105654153D01*
X177871463Y-105639881D01*
X177853710Y-105623790D01*
X177837619Y-105606037D01*
X177823347Y-105586792D01*
X177811029Y-105566242D01*
X177800785Y-105544582D01*
X177792713Y-105522023D01*
X177786891Y-105498781D01*
X177783376Y-105475081D01*
X177782200Y-105451150D01*
X177782200Y-104962850D01*
X177783376Y-104938919D01*
X177786891Y-104915219D01*
X177792713Y-104891977D01*
X177800785Y-104869418D01*
X177811029Y-104847758D01*
X177823347Y-104827208D01*
X177837619Y-104807963D01*
X177853710Y-104790210D01*
X177871463Y-104774119D01*
X177890708Y-104759847D01*
X177911258Y-104747529D01*
X177932918Y-104737285D01*
X177955477Y-104729213D01*
X177978719Y-104723391D01*
X178002419Y-104719876D01*
X178026350Y-104718700D01*
X178589650Y-104718700D01*
X178613581Y-104719876D01*
X178613581Y-104719876D01*
G37*
D18*
X178308000Y-105207000D03*
D10*
G36*
X178613581Y-103144876D02*
X178637281Y-103148391D01*
X178660523Y-103154213D01*
X178683082Y-103162285D01*
X178704742Y-103172529D01*
X178725292Y-103184847D01*
X178744537Y-103199119D01*
X178762290Y-103215210D01*
X178778381Y-103232963D01*
X178792653Y-103252208D01*
X178804971Y-103272758D01*
X178815215Y-103294418D01*
X178823287Y-103316977D01*
X178829109Y-103340219D01*
X178832624Y-103363919D01*
X178833800Y-103387850D01*
X178833800Y-103876150D01*
X178832624Y-103900081D01*
X178829109Y-103923781D01*
X178823287Y-103947023D01*
X178815215Y-103969582D01*
X178804971Y-103991242D01*
X178792653Y-104011792D01*
X178778381Y-104031037D01*
X178762290Y-104048790D01*
X178744537Y-104064881D01*
X178725292Y-104079153D01*
X178704742Y-104091471D01*
X178683082Y-104101715D01*
X178660523Y-104109787D01*
X178637281Y-104115609D01*
X178613581Y-104119124D01*
X178589650Y-104120300D01*
X178026350Y-104120300D01*
X178002419Y-104119124D01*
X177978719Y-104115609D01*
X177955477Y-104109787D01*
X177932918Y-104101715D01*
X177911258Y-104091471D01*
X177890708Y-104079153D01*
X177871463Y-104064881D01*
X177853710Y-104048790D01*
X177837619Y-104031037D01*
X177823347Y-104011792D01*
X177811029Y-103991242D01*
X177800785Y-103969582D01*
X177792713Y-103947023D01*
X177786891Y-103923781D01*
X177783376Y-103900081D01*
X177782200Y-103876150D01*
X177782200Y-103387850D01*
X177783376Y-103363919D01*
X177786891Y-103340219D01*
X177792713Y-103316977D01*
X177800785Y-103294418D01*
X177811029Y-103272758D01*
X177823347Y-103252208D01*
X177837619Y-103232963D01*
X177853710Y-103215210D01*
X177871463Y-103199119D01*
X177890708Y-103184847D01*
X177911258Y-103172529D01*
X177932918Y-103162285D01*
X177955477Y-103154213D01*
X177978719Y-103148391D01*
X178002419Y-103144876D01*
X178026350Y-103143700D01*
X178589650Y-103143700D01*
X178613581Y-103144876D01*
X178613581Y-103144876D01*
G37*
D18*
X178308000Y-103632000D03*
G04 #@! TD*
D10*
G04 #@! TO.C,C9*
G36*
X177089581Y-104719876D02*
X177113281Y-104723391D01*
X177136523Y-104729213D01*
X177159082Y-104737285D01*
X177180742Y-104747529D01*
X177201292Y-104759847D01*
X177220537Y-104774119D01*
X177238290Y-104790210D01*
X177254381Y-104807963D01*
X177268653Y-104827208D01*
X177280971Y-104847758D01*
X177291215Y-104869418D01*
X177299287Y-104891977D01*
X177305109Y-104915219D01*
X177308624Y-104938919D01*
X177309800Y-104962850D01*
X177309800Y-105451150D01*
X177308624Y-105475081D01*
X177305109Y-105498781D01*
X177299287Y-105522023D01*
X177291215Y-105544582D01*
X177280971Y-105566242D01*
X177268653Y-105586792D01*
X177254381Y-105606037D01*
X177238290Y-105623790D01*
X177220537Y-105639881D01*
X177201292Y-105654153D01*
X177180742Y-105666471D01*
X177159082Y-105676715D01*
X177136523Y-105684787D01*
X177113281Y-105690609D01*
X177089581Y-105694124D01*
X177065650Y-105695300D01*
X176502350Y-105695300D01*
X176478419Y-105694124D01*
X176454719Y-105690609D01*
X176431477Y-105684787D01*
X176408918Y-105676715D01*
X176387258Y-105666471D01*
X176366708Y-105654153D01*
X176347463Y-105639881D01*
X176329710Y-105623790D01*
X176313619Y-105606037D01*
X176299347Y-105586792D01*
X176287029Y-105566242D01*
X176276785Y-105544582D01*
X176268713Y-105522023D01*
X176262891Y-105498781D01*
X176259376Y-105475081D01*
X176258200Y-105451150D01*
X176258200Y-104962850D01*
X176259376Y-104938919D01*
X176262891Y-104915219D01*
X176268713Y-104891977D01*
X176276785Y-104869418D01*
X176287029Y-104847758D01*
X176299347Y-104827208D01*
X176313619Y-104807963D01*
X176329710Y-104790210D01*
X176347463Y-104774119D01*
X176366708Y-104759847D01*
X176387258Y-104747529D01*
X176408918Y-104737285D01*
X176431477Y-104729213D01*
X176454719Y-104723391D01*
X176478419Y-104719876D01*
X176502350Y-104718700D01*
X177065650Y-104718700D01*
X177089581Y-104719876D01*
X177089581Y-104719876D01*
G37*
D18*
X176784000Y-105207000D03*
D10*
G36*
X177089581Y-103144876D02*
X177113281Y-103148391D01*
X177136523Y-103154213D01*
X177159082Y-103162285D01*
X177180742Y-103172529D01*
X177201292Y-103184847D01*
X177220537Y-103199119D01*
X177238290Y-103215210D01*
X177254381Y-103232963D01*
X177268653Y-103252208D01*
X177280971Y-103272758D01*
X177291215Y-103294418D01*
X177299287Y-103316977D01*
X177305109Y-103340219D01*
X177308624Y-103363919D01*
X177309800Y-103387850D01*
X177309800Y-103876150D01*
X177308624Y-103900081D01*
X177305109Y-103923781D01*
X177299287Y-103947023D01*
X177291215Y-103969582D01*
X177280971Y-103991242D01*
X177268653Y-104011792D01*
X177254381Y-104031037D01*
X177238290Y-104048790D01*
X177220537Y-104064881D01*
X177201292Y-104079153D01*
X177180742Y-104091471D01*
X177159082Y-104101715D01*
X177136523Y-104109787D01*
X177113281Y-104115609D01*
X177089581Y-104119124D01*
X177065650Y-104120300D01*
X176502350Y-104120300D01*
X176478419Y-104119124D01*
X176454719Y-104115609D01*
X176431477Y-104109787D01*
X176408918Y-104101715D01*
X176387258Y-104091471D01*
X176366708Y-104079153D01*
X176347463Y-104064881D01*
X176329710Y-104048790D01*
X176313619Y-104031037D01*
X176299347Y-104011792D01*
X176287029Y-103991242D01*
X176276785Y-103969582D01*
X176268713Y-103947023D01*
X176262891Y-103923781D01*
X176259376Y-103900081D01*
X176258200Y-103876150D01*
X176258200Y-103387850D01*
X176259376Y-103363919D01*
X176262891Y-103340219D01*
X176268713Y-103316977D01*
X176276785Y-103294418D01*
X176287029Y-103272758D01*
X176299347Y-103252208D01*
X176313619Y-103232963D01*
X176329710Y-103215210D01*
X176347463Y-103199119D01*
X176366708Y-103184847D01*
X176387258Y-103172529D01*
X176408918Y-103162285D01*
X176431477Y-103154213D01*
X176454719Y-103148391D01*
X176478419Y-103144876D01*
X176502350Y-103143700D01*
X177065650Y-103143700D01*
X177089581Y-103144876D01*
X177089581Y-103144876D01*
G37*
D18*
X176784000Y-103632000D03*
G04 #@! TD*
D10*
G04 #@! TO.C,C8*
G36*
X183199081Y-98408376D02*
X183222781Y-98411891D01*
X183246023Y-98417713D01*
X183268582Y-98425785D01*
X183290242Y-98436029D01*
X183310792Y-98448347D01*
X183330037Y-98462619D01*
X183347790Y-98478710D01*
X183363881Y-98496463D01*
X183378153Y-98515708D01*
X183390471Y-98536258D01*
X183400715Y-98557918D01*
X183408787Y-98580477D01*
X183414609Y-98603719D01*
X183418124Y-98627419D01*
X183419300Y-98651350D01*
X183419300Y-99214650D01*
X183418124Y-99238581D01*
X183414609Y-99262281D01*
X183408787Y-99285523D01*
X183400715Y-99308082D01*
X183390471Y-99329742D01*
X183378153Y-99350292D01*
X183363881Y-99369537D01*
X183347790Y-99387290D01*
X183330037Y-99403381D01*
X183310792Y-99417653D01*
X183290242Y-99429971D01*
X183268582Y-99440215D01*
X183246023Y-99448287D01*
X183222781Y-99454109D01*
X183199081Y-99457624D01*
X183175150Y-99458800D01*
X182686850Y-99458800D01*
X182662919Y-99457624D01*
X182639219Y-99454109D01*
X182615977Y-99448287D01*
X182593418Y-99440215D01*
X182571758Y-99429971D01*
X182551208Y-99417653D01*
X182531963Y-99403381D01*
X182514210Y-99387290D01*
X182498119Y-99369537D01*
X182483847Y-99350292D01*
X182471529Y-99329742D01*
X182461285Y-99308082D01*
X182453213Y-99285523D01*
X182447391Y-99262281D01*
X182443876Y-99238581D01*
X182442700Y-99214650D01*
X182442700Y-98651350D01*
X182443876Y-98627419D01*
X182447391Y-98603719D01*
X182453213Y-98580477D01*
X182461285Y-98557918D01*
X182471529Y-98536258D01*
X182483847Y-98515708D01*
X182498119Y-98496463D01*
X182514210Y-98478710D01*
X182531963Y-98462619D01*
X182551208Y-98448347D01*
X182571758Y-98436029D01*
X182593418Y-98425785D01*
X182615977Y-98417713D01*
X182639219Y-98411891D01*
X182662919Y-98408376D01*
X182686850Y-98407200D01*
X183175150Y-98407200D01*
X183199081Y-98408376D01*
X183199081Y-98408376D01*
G37*
D18*
X182931000Y-98933000D03*
D10*
G36*
X181624081Y-98408376D02*
X181647781Y-98411891D01*
X181671023Y-98417713D01*
X181693582Y-98425785D01*
X181715242Y-98436029D01*
X181735792Y-98448347D01*
X181755037Y-98462619D01*
X181772790Y-98478710D01*
X181788881Y-98496463D01*
X181803153Y-98515708D01*
X181815471Y-98536258D01*
X181825715Y-98557918D01*
X181833787Y-98580477D01*
X181839609Y-98603719D01*
X181843124Y-98627419D01*
X181844300Y-98651350D01*
X181844300Y-99214650D01*
X181843124Y-99238581D01*
X181839609Y-99262281D01*
X181833787Y-99285523D01*
X181825715Y-99308082D01*
X181815471Y-99329742D01*
X181803153Y-99350292D01*
X181788881Y-99369537D01*
X181772790Y-99387290D01*
X181755037Y-99403381D01*
X181735792Y-99417653D01*
X181715242Y-99429971D01*
X181693582Y-99440215D01*
X181671023Y-99448287D01*
X181647781Y-99454109D01*
X181624081Y-99457624D01*
X181600150Y-99458800D01*
X181111850Y-99458800D01*
X181087919Y-99457624D01*
X181064219Y-99454109D01*
X181040977Y-99448287D01*
X181018418Y-99440215D01*
X180996758Y-99429971D01*
X180976208Y-99417653D01*
X180956963Y-99403381D01*
X180939210Y-99387290D01*
X180923119Y-99369537D01*
X180908847Y-99350292D01*
X180896529Y-99329742D01*
X180886285Y-99308082D01*
X180878213Y-99285523D01*
X180872391Y-99262281D01*
X180868876Y-99238581D01*
X180867700Y-99214650D01*
X180867700Y-98651350D01*
X180868876Y-98627419D01*
X180872391Y-98603719D01*
X180878213Y-98580477D01*
X180886285Y-98557918D01*
X180896529Y-98536258D01*
X180908847Y-98515708D01*
X180923119Y-98496463D01*
X180939210Y-98478710D01*
X180956963Y-98462619D01*
X180976208Y-98448347D01*
X180996758Y-98436029D01*
X181018418Y-98425785D01*
X181040977Y-98417713D01*
X181064219Y-98411891D01*
X181087919Y-98408376D01*
X181111850Y-98407200D01*
X181600150Y-98407200D01*
X181624081Y-98408376D01*
X181624081Y-98408376D01*
G37*
D18*
X181356000Y-98933000D03*
G04 #@! TD*
D10*
G04 #@! TO.C,C7*
G36*
X183199081Y-94179276D02*
X183222781Y-94182791D01*
X183246023Y-94188613D01*
X183268582Y-94196685D01*
X183290242Y-94206929D01*
X183310792Y-94219247D01*
X183330037Y-94233519D01*
X183347790Y-94249610D01*
X183363881Y-94267363D01*
X183378153Y-94286608D01*
X183390471Y-94307158D01*
X183400715Y-94328818D01*
X183408787Y-94351377D01*
X183414609Y-94374619D01*
X183418124Y-94398319D01*
X183419300Y-94422250D01*
X183419300Y-94985550D01*
X183418124Y-95009481D01*
X183414609Y-95033181D01*
X183408787Y-95056423D01*
X183400715Y-95078982D01*
X183390471Y-95100642D01*
X183378153Y-95121192D01*
X183363881Y-95140437D01*
X183347790Y-95158190D01*
X183330037Y-95174281D01*
X183310792Y-95188553D01*
X183290242Y-95200871D01*
X183268582Y-95211115D01*
X183246023Y-95219187D01*
X183222781Y-95225009D01*
X183199081Y-95228524D01*
X183175150Y-95229700D01*
X182686850Y-95229700D01*
X182662919Y-95228524D01*
X182639219Y-95225009D01*
X182615977Y-95219187D01*
X182593418Y-95211115D01*
X182571758Y-95200871D01*
X182551208Y-95188553D01*
X182531963Y-95174281D01*
X182514210Y-95158190D01*
X182498119Y-95140437D01*
X182483847Y-95121192D01*
X182471529Y-95100642D01*
X182461285Y-95078982D01*
X182453213Y-95056423D01*
X182447391Y-95033181D01*
X182443876Y-95009481D01*
X182442700Y-94985550D01*
X182442700Y-94422250D01*
X182443876Y-94398319D01*
X182447391Y-94374619D01*
X182453213Y-94351377D01*
X182461285Y-94328818D01*
X182471529Y-94307158D01*
X182483847Y-94286608D01*
X182498119Y-94267363D01*
X182514210Y-94249610D01*
X182531963Y-94233519D01*
X182551208Y-94219247D01*
X182571758Y-94206929D01*
X182593418Y-94196685D01*
X182615977Y-94188613D01*
X182639219Y-94182791D01*
X182662919Y-94179276D01*
X182686850Y-94178100D01*
X183175150Y-94178100D01*
X183199081Y-94179276D01*
X183199081Y-94179276D01*
G37*
D18*
X182931000Y-94703900D03*
D10*
G36*
X181624081Y-94179276D02*
X181647781Y-94182791D01*
X181671023Y-94188613D01*
X181693582Y-94196685D01*
X181715242Y-94206929D01*
X181735792Y-94219247D01*
X181755037Y-94233519D01*
X181772790Y-94249610D01*
X181788881Y-94267363D01*
X181803153Y-94286608D01*
X181815471Y-94307158D01*
X181825715Y-94328818D01*
X181833787Y-94351377D01*
X181839609Y-94374619D01*
X181843124Y-94398319D01*
X181844300Y-94422250D01*
X181844300Y-94985550D01*
X181843124Y-95009481D01*
X181839609Y-95033181D01*
X181833787Y-95056423D01*
X181825715Y-95078982D01*
X181815471Y-95100642D01*
X181803153Y-95121192D01*
X181788881Y-95140437D01*
X181772790Y-95158190D01*
X181755037Y-95174281D01*
X181735792Y-95188553D01*
X181715242Y-95200871D01*
X181693582Y-95211115D01*
X181671023Y-95219187D01*
X181647781Y-95225009D01*
X181624081Y-95228524D01*
X181600150Y-95229700D01*
X181111850Y-95229700D01*
X181087919Y-95228524D01*
X181064219Y-95225009D01*
X181040977Y-95219187D01*
X181018418Y-95211115D01*
X180996758Y-95200871D01*
X180976208Y-95188553D01*
X180956963Y-95174281D01*
X180939210Y-95158190D01*
X180923119Y-95140437D01*
X180908847Y-95121192D01*
X180896529Y-95100642D01*
X180886285Y-95078982D01*
X180878213Y-95056423D01*
X180872391Y-95033181D01*
X180868876Y-95009481D01*
X180867700Y-94985550D01*
X180867700Y-94422250D01*
X180868876Y-94398319D01*
X180872391Y-94374619D01*
X180878213Y-94351377D01*
X180886285Y-94328818D01*
X180896529Y-94307158D01*
X180908847Y-94286608D01*
X180923119Y-94267363D01*
X180939210Y-94249610D01*
X180956963Y-94233519D01*
X180976208Y-94219247D01*
X180996758Y-94206929D01*
X181018418Y-94196685D01*
X181040977Y-94188613D01*
X181064219Y-94182791D01*
X181087919Y-94179276D01*
X181111850Y-94178100D01*
X181600150Y-94178100D01*
X181624081Y-94179276D01*
X181624081Y-94179276D01*
G37*
D18*
X181356000Y-94703900D03*
G04 #@! TD*
D10*
G04 #@! TO.C,C6*
G36*
X181624081Y-97011376D02*
X181647781Y-97014891D01*
X181671023Y-97020713D01*
X181693582Y-97028785D01*
X181715242Y-97039029D01*
X181735792Y-97051347D01*
X181755037Y-97065619D01*
X181772790Y-97081710D01*
X181788881Y-97099463D01*
X181803153Y-97118708D01*
X181815471Y-97139258D01*
X181825715Y-97160918D01*
X181833787Y-97183477D01*
X181839609Y-97206719D01*
X181843124Y-97230419D01*
X181844300Y-97254350D01*
X181844300Y-97817650D01*
X181843124Y-97841581D01*
X181839609Y-97865281D01*
X181833787Y-97888523D01*
X181825715Y-97911082D01*
X181815471Y-97932742D01*
X181803153Y-97953292D01*
X181788881Y-97972537D01*
X181772790Y-97990290D01*
X181755037Y-98006381D01*
X181735792Y-98020653D01*
X181715242Y-98032971D01*
X181693582Y-98043215D01*
X181671023Y-98051287D01*
X181647781Y-98057109D01*
X181624081Y-98060624D01*
X181600150Y-98061800D01*
X181111850Y-98061800D01*
X181087919Y-98060624D01*
X181064219Y-98057109D01*
X181040977Y-98051287D01*
X181018418Y-98043215D01*
X180996758Y-98032971D01*
X180976208Y-98020653D01*
X180956963Y-98006381D01*
X180939210Y-97990290D01*
X180923119Y-97972537D01*
X180908847Y-97953292D01*
X180896529Y-97932742D01*
X180886285Y-97911082D01*
X180878213Y-97888523D01*
X180872391Y-97865281D01*
X180868876Y-97841581D01*
X180867700Y-97817650D01*
X180867700Y-97254350D01*
X180868876Y-97230419D01*
X180872391Y-97206719D01*
X180878213Y-97183477D01*
X180886285Y-97160918D01*
X180896529Y-97139258D01*
X180908847Y-97118708D01*
X180923119Y-97099463D01*
X180939210Y-97081710D01*
X180956963Y-97065619D01*
X180976208Y-97051347D01*
X180996758Y-97039029D01*
X181018418Y-97028785D01*
X181040977Y-97020713D01*
X181064219Y-97014891D01*
X181087919Y-97011376D01*
X181111850Y-97010200D01*
X181600150Y-97010200D01*
X181624081Y-97011376D01*
X181624081Y-97011376D01*
G37*
D18*
X181356000Y-97536000D03*
D10*
G36*
X183199081Y-97011376D02*
X183222781Y-97014891D01*
X183246023Y-97020713D01*
X183268582Y-97028785D01*
X183290242Y-97039029D01*
X183310792Y-97051347D01*
X183330037Y-97065619D01*
X183347790Y-97081710D01*
X183363881Y-97099463D01*
X183378153Y-97118708D01*
X183390471Y-97139258D01*
X183400715Y-97160918D01*
X183408787Y-97183477D01*
X183414609Y-97206719D01*
X183418124Y-97230419D01*
X183419300Y-97254350D01*
X183419300Y-97817650D01*
X183418124Y-97841581D01*
X183414609Y-97865281D01*
X183408787Y-97888523D01*
X183400715Y-97911082D01*
X183390471Y-97932742D01*
X183378153Y-97953292D01*
X183363881Y-97972537D01*
X183347790Y-97990290D01*
X183330037Y-98006381D01*
X183310792Y-98020653D01*
X183290242Y-98032971D01*
X183268582Y-98043215D01*
X183246023Y-98051287D01*
X183222781Y-98057109D01*
X183199081Y-98060624D01*
X183175150Y-98061800D01*
X182686850Y-98061800D01*
X182662919Y-98060624D01*
X182639219Y-98057109D01*
X182615977Y-98051287D01*
X182593418Y-98043215D01*
X182571758Y-98032971D01*
X182551208Y-98020653D01*
X182531963Y-98006381D01*
X182514210Y-97990290D01*
X182498119Y-97972537D01*
X182483847Y-97953292D01*
X182471529Y-97932742D01*
X182461285Y-97911082D01*
X182453213Y-97888523D01*
X182447391Y-97865281D01*
X182443876Y-97841581D01*
X182442700Y-97817650D01*
X182442700Y-97254350D01*
X182443876Y-97230419D01*
X182447391Y-97206719D01*
X182453213Y-97183477D01*
X182461285Y-97160918D01*
X182471529Y-97139258D01*
X182483847Y-97118708D01*
X182498119Y-97099463D01*
X182514210Y-97081710D01*
X182531963Y-97065619D01*
X182551208Y-97051347D01*
X182571758Y-97039029D01*
X182593418Y-97028785D01*
X182615977Y-97020713D01*
X182639219Y-97014891D01*
X182662919Y-97011376D01*
X182686850Y-97010200D01*
X183175150Y-97010200D01*
X183199081Y-97011376D01*
X183199081Y-97011376D01*
G37*
D18*
X182931000Y-97536000D03*
G04 #@! TD*
D10*
G04 #@! TO.C,C5*
G36*
X164770581Y-95372376D02*
X164794281Y-95375891D01*
X164817523Y-95381713D01*
X164840082Y-95389785D01*
X164861742Y-95400029D01*
X164882292Y-95412347D01*
X164901537Y-95426619D01*
X164919290Y-95442710D01*
X164935381Y-95460463D01*
X164949653Y-95479708D01*
X164961971Y-95500258D01*
X164972215Y-95521918D01*
X164980287Y-95544477D01*
X164986109Y-95567719D01*
X164989624Y-95591419D01*
X164990800Y-95615350D01*
X164990800Y-96103650D01*
X164989624Y-96127581D01*
X164986109Y-96151281D01*
X164980287Y-96174523D01*
X164972215Y-96197082D01*
X164961971Y-96218742D01*
X164949653Y-96239292D01*
X164935381Y-96258537D01*
X164919290Y-96276290D01*
X164901537Y-96292381D01*
X164882292Y-96306653D01*
X164861742Y-96318971D01*
X164840082Y-96329215D01*
X164817523Y-96337287D01*
X164794281Y-96343109D01*
X164770581Y-96346624D01*
X164746650Y-96347800D01*
X164183350Y-96347800D01*
X164159419Y-96346624D01*
X164135719Y-96343109D01*
X164112477Y-96337287D01*
X164089918Y-96329215D01*
X164068258Y-96318971D01*
X164047708Y-96306653D01*
X164028463Y-96292381D01*
X164010710Y-96276290D01*
X163994619Y-96258537D01*
X163980347Y-96239292D01*
X163968029Y-96218742D01*
X163957785Y-96197082D01*
X163949713Y-96174523D01*
X163943891Y-96151281D01*
X163940376Y-96127581D01*
X163939200Y-96103650D01*
X163939200Y-95615350D01*
X163940376Y-95591419D01*
X163943891Y-95567719D01*
X163949713Y-95544477D01*
X163957785Y-95521918D01*
X163968029Y-95500258D01*
X163980347Y-95479708D01*
X163994619Y-95460463D01*
X164010710Y-95442710D01*
X164028463Y-95426619D01*
X164047708Y-95412347D01*
X164068258Y-95400029D01*
X164089918Y-95389785D01*
X164112477Y-95381713D01*
X164135719Y-95375891D01*
X164159419Y-95372376D01*
X164183350Y-95371200D01*
X164746650Y-95371200D01*
X164770581Y-95372376D01*
X164770581Y-95372376D01*
G37*
D18*
X164465000Y-95859500D03*
D10*
G36*
X164770581Y-96947376D02*
X164794281Y-96950891D01*
X164817523Y-96956713D01*
X164840082Y-96964785D01*
X164861742Y-96975029D01*
X164882292Y-96987347D01*
X164901537Y-97001619D01*
X164919290Y-97017710D01*
X164935381Y-97035463D01*
X164949653Y-97054708D01*
X164961971Y-97075258D01*
X164972215Y-97096918D01*
X164980287Y-97119477D01*
X164986109Y-97142719D01*
X164989624Y-97166419D01*
X164990800Y-97190350D01*
X164990800Y-97678650D01*
X164989624Y-97702581D01*
X164986109Y-97726281D01*
X164980287Y-97749523D01*
X164972215Y-97772082D01*
X164961971Y-97793742D01*
X164949653Y-97814292D01*
X164935381Y-97833537D01*
X164919290Y-97851290D01*
X164901537Y-97867381D01*
X164882292Y-97881653D01*
X164861742Y-97893971D01*
X164840082Y-97904215D01*
X164817523Y-97912287D01*
X164794281Y-97918109D01*
X164770581Y-97921624D01*
X164746650Y-97922800D01*
X164183350Y-97922800D01*
X164159419Y-97921624D01*
X164135719Y-97918109D01*
X164112477Y-97912287D01*
X164089918Y-97904215D01*
X164068258Y-97893971D01*
X164047708Y-97881653D01*
X164028463Y-97867381D01*
X164010710Y-97851290D01*
X163994619Y-97833537D01*
X163980347Y-97814292D01*
X163968029Y-97793742D01*
X163957785Y-97772082D01*
X163949713Y-97749523D01*
X163943891Y-97726281D01*
X163940376Y-97702581D01*
X163939200Y-97678650D01*
X163939200Y-97190350D01*
X163940376Y-97166419D01*
X163943891Y-97142719D01*
X163949713Y-97119477D01*
X163957785Y-97096918D01*
X163968029Y-97075258D01*
X163980347Y-97054708D01*
X163994619Y-97035463D01*
X164010710Y-97017710D01*
X164028463Y-97001619D01*
X164047708Y-96987347D01*
X164068258Y-96975029D01*
X164089918Y-96964785D01*
X164112477Y-96956713D01*
X164135719Y-96950891D01*
X164159419Y-96947376D01*
X164183350Y-96946200D01*
X164746650Y-96946200D01*
X164770581Y-96947376D01*
X164770581Y-96947376D01*
G37*
D18*
X164465000Y-97434500D03*
G04 #@! TD*
D10*
G04 #@! TO.C,C4*
G36*
X166167581Y-95372376D02*
X166191281Y-95375891D01*
X166214523Y-95381713D01*
X166237082Y-95389785D01*
X166258742Y-95400029D01*
X166279292Y-95412347D01*
X166298537Y-95426619D01*
X166316290Y-95442710D01*
X166332381Y-95460463D01*
X166346653Y-95479708D01*
X166358971Y-95500258D01*
X166369215Y-95521918D01*
X166377287Y-95544477D01*
X166383109Y-95567719D01*
X166386624Y-95591419D01*
X166387800Y-95615350D01*
X166387800Y-96103650D01*
X166386624Y-96127581D01*
X166383109Y-96151281D01*
X166377287Y-96174523D01*
X166369215Y-96197082D01*
X166358971Y-96218742D01*
X166346653Y-96239292D01*
X166332381Y-96258537D01*
X166316290Y-96276290D01*
X166298537Y-96292381D01*
X166279292Y-96306653D01*
X166258742Y-96318971D01*
X166237082Y-96329215D01*
X166214523Y-96337287D01*
X166191281Y-96343109D01*
X166167581Y-96346624D01*
X166143650Y-96347800D01*
X165580350Y-96347800D01*
X165556419Y-96346624D01*
X165532719Y-96343109D01*
X165509477Y-96337287D01*
X165486918Y-96329215D01*
X165465258Y-96318971D01*
X165444708Y-96306653D01*
X165425463Y-96292381D01*
X165407710Y-96276290D01*
X165391619Y-96258537D01*
X165377347Y-96239292D01*
X165365029Y-96218742D01*
X165354785Y-96197082D01*
X165346713Y-96174523D01*
X165340891Y-96151281D01*
X165337376Y-96127581D01*
X165336200Y-96103650D01*
X165336200Y-95615350D01*
X165337376Y-95591419D01*
X165340891Y-95567719D01*
X165346713Y-95544477D01*
X165354785Y-95521918D01*
X165365029Y-95500258D01*
X165377347Y-95479708D01*
X165391619Y-95460463D01*
X165407710Y-95442710D01*
X165425463Y-95426619D01*
X165444708Y-95412347D01*
X165465258Y-95400029D01*
X165486918Y-95389785D01*
X165509477Y-95381713D01*
X165532719Y-95375891D01*
X165556419Y-95372376D01*
X165580350Y-95371200D01*
X166143650Y-95371200D01*
X166167581Y-95372376D01*
X166167581Y-95372376D01*
G37*
D18*
X165862000Y-95859500D03*
D10*
G36*
X166167581Y-96947376D02*
X166191281Y-96950891D01*
X166214523Y-96956713D01*
X166237082Y-96964785D01*
X166258742Y-96975029D01*
X166279292Y-96987347D01*
X166298537Y-97001619D01*
X166316290Y-97017710D01*
X166332381Y-97035463D01*
X166346653Y-97054708D01*
X166358971Y-97075258D01*
X166369215Y-97096918D01*
X166377287Y-97119477D01*
X166383109Y-97142719D01*
X166386624Y-97166419D01*
X166387800Y-97190350D01*
X166387800Y-97678650D01*
X166386624Y-97702581D01*
X166383109Y-97726281D01*
X166377287Y-97749523D01*
X166369215Y-97772082D01*
X166358971Y-97793742D01*
X166346653Y-97814292D01*
X166332381Y-97833537D01*
X166316290Y-97851290D01*
X166298537Y-97867381D01*
X166279292Y-97881653D01*
X166258742Y-97893971D01*
X166237082Y-97904215D01*
X166214523Y-97912287D01*
X166191281Y-97918109D01*
X166167581Y-97921624D01*
X166143650Y-97922800D01*
X165580350Y-97922800D01*
X165556419Y-97921624D01*
X165532719Y-97918109D01*
X165509477Y-97912287D01*
X165486918Y-97904215D01*
X165465258Y-97893971D01*
X165444708Y-97881653D01*
X165425463Y-97867381D01*
X165407710Y-97851290D01*
X165391619Y-97833537D01*
X165377347Y-97814292D01*
X165365029Y-97793742D01*
X165354785Y-97772082D01*
X165346713Y-97749523D01*
X165340891Y-97726281D01*
X165337376Y-97702581D01*
X165336200Y-97678650D01*
X165336200Y-97190350D01*
X165337376Y-97166419D01*
X165340891Y-97142719D01*
X165346713Y-97119477D01*
X165354785Y-97096918D01*
X165365029Y-97075258D01*
X165377347Y-97054708D01*
X165391619Y-97035463D01*
X165407710Y-97017710D01*
X165425463Y-97001619D01*
X165444708Y-96987347D01*
X165465258Y-96975029D01*
X165486918Y-96964785D01*
X165509477Y-96956713D01*
X165532719Y-96950891D01*
X165556419Y-96947376D01*
X165580350Y-96946200D01*
X166143650Y-96946200D01*
X166167581Y-96947376D01*
X166167581Y-96947376D01*
G37*
D18*
X165862000Y-97434500D03*
G04 #@! TD*
D10*
G04 #@! TO.C,C3*
G36*
X183199081Y-95614376D02*
X183222781Y-95617891D01*
X183246023Y-95623713D01*
X183268582Y-95631785D01*
X183290242Y-95642029D01*
X183310792Y-95654347D01*
X183330037Y-95668619D01*
X183347790Y-95684710D01*
X183363881Y-95702463D01*
X183378153Y-95721708D01*
X183390471Y-95742258D01*
X183400715Y-95763918D01*
X183408787Y-95786477D01*
X183414609Y-95809719D01*
X183418124Y-95833419D01*
X183419300Y-95857350D01*
X183419300Y-96420650D01*
X183418124Y-96444581D01*
X183414609Y-96468281D01*
X183408787Y-96491523D01*
X183400715Y-96514082D01*
X183390471Y-96535742D01*
X183378153Y-96556292D01*
X183363881Y-96575537D01*
X183347790Y-96593290D01*
X183330037Y-96609381D01*
X183310792Y-96623653D01*
X183290242Y-96635971D01*
X183268582Y-96646215D01*
X183246023Y-96654287D01*
X183222781Y-96660109D01*
X183199081Y-96663624D01*
X183175150Y-96664800D01*
X182686850Y-96664800D01*
X182662919Y-96663624D01*
X182639219Y-96660109D01*
X182615977Y-96654287D01*
X182593418Y-96646215D01*
X182571758Y-96635971D01*
X182551208Y-96623653D01*
X182531963Y-96609381D01*
X182514210Y-96593290D01*
X182498119Y-96575537D01*
X182483847Y-96556292D01*
X182471529Y-96535742D01*
X182461285Y-96514082D01*
X182453213Y-96491523D01*
X182447391Y-96468281D01*
X182443876Y-96444581D01*
X182442700Y-96420650D01*
X182442700Y-95857350D01*
X182443876Y-95833419D01*
X182447391Y-95809719D01*
X182453213Y-95786477D01*
X182461285Y-95763918D01*
X182471529Y-95742258D01*
X182483847Y-95721708D01*
X182498119Y-95702463D01*
X182514210Y-95684710D01*
X182531963Y-95668619D01*
X182551208Y-95654347D01*
X182571758Y-95642029D01*
X182593418Y-95631785D01*
X182615977Y-95623713D01*
X182639219Y-95617891D01*
X182662919Y-95614376D01*
X182686850Y-95613200D01*
X183175150Y-95613200D01*
X183199081Y-95614376D01*
X183199081Y-95614376D01*
G37*
D18*
X182931000Y-96139000D03*
D10*
G36*
X181624081Y-95614376D02*
X181647781Y-95617891D01*
X181671023Y-95623713D01*
X181693582Y-95631785D01*
X181715242Y-95642029D01*
X181735792Y-95654347D01*
X181755037Y-95668619D01*
X181772790Y-95684710D01*
X181788881Y-95702463D01*
X181803153Y-95721708D01*
X181815471Y-95742258D01*
X181825715Y-95763918D01*
X181833787Y-95786477D01*
X181839609Y-95809719D01*
X181843124Y-95833419D01*
X181844300Y-95857350D01*
X181844300Y-96420650D01*
X181843124Y-96444581D01*
X181839609Y-96468281D01*
X181833787Y-96491523D01*
X181825715Y-96514082D01*
X181815471Y-96535742D01*
X181803153Y-96556292D01*
X181788881Y-96575537D01*
X181772790Y-96593290D01*
X181755037Y-96609381D01*
X181735792Y-96623653D01*
X181715242Y-96635971D01*
X181693582Y-96646215D01*
X181671023Y-96654287D01*
X181647781Y-96660109D01*
X181624081Y-96663624D01*
X181600150Y-96664800D01*
X181111850Y-96664800D01*
X181087919Y-96663624D01*
X181064219Y-96660109D01*
X181040977Y-96654287D01*
X181018418Y-96646215D01*
X180996758Y-96635971D01*
X180976208Y-96623653D01*
X180956963Y-96609381D01*
X180939210Y-96593290D01*
X180923119Y-96575537D01*
X180908847Y-96556292D01*
X180896529Y-96535742D01*
X180886285Y-96514082D01*
X180878213Y-96491523D01*
X180872391Y-96468281D01*
X180868876Y-96444581D01*
X180867700Y-96420650D01*
X180867700Y-95857350D01*
X180868876Y-95833419D01*
X180872391Y-95809719D01*
X180878213Y-95786477D01*
X180886285Y-95763918D01*
X180896529Y-95742258D01*
X180908847Y-95721708D01*
X180923119Y-95702463D01*
X180939210Y-95684710D01*
X180956963Y-95668619D01*
X180976208Y-95654347D01*
X180996758Y-95642029D01*
X181018418Y-95631785D01*
X181040977Y-95623713D01*
X181064219Y-95617891D01*
X181087919Y-95614376D01*
X181111850Y-95613200D01*
X181600150Y-95613200D01*
X181624081Y-95614376D01*
X181624081Y-95614376D01*
G37*
D18*
X181356000Y-96139000D03*
G04 #@! TD*
D10*
G04 #@! TO.C,C1*
G36*
X175565581Y-104719876D02*
X175589281Y-104723391D01*
X175612523Y-104729213D01*
X175635082Y-104737285D01*
X175656742Y-104747529D01*
X175677292Y-104759847D01*
X175696537Y-104774119D01*
X175714290Y-104790210D01*
X175730381Y-104807963D01*
X175744653Y-104827208D01*
X175756971Y-104847758D01*
X175767215Y-104869418D01*
X175775287Y-104891977D01*
X175781109Y-104915219D01*
X175784624Y-104938919D01*
X175785800Y-104962850D01*
X175785800Y-105451150D01*
X175784624Y-105475081D01*
X175781109Y-105498781D01*
X175775287Y-105522023D01*
X175767215Y-105544582D01*
X175756971Y-105566242D01*
X175744653Y-105586792D01*
X175730381Y-105606037D01*
X175714290Y-105623790D01*
X175696537Y-105639881D01*
X175677292Y-105654153D01*
X175656742Y-105666471D01*
X175635082Y-105676715D01*
X175612523Y-105684787D01*
X175589281Y-105690609D01*
X175565581Y-105694124D01*
X175541650Y-105695300D01*
X174978350Y-105695300D01*
X174954419Y-105694124D01*
X174930719Y-105690609D01*
X174907477Y-105684787D01*
X174884918Y-105676715D01*
X174863258Y-105666471D01*
X174842708Y-105654153D01*
X174823463Y-105639881D01*
X174805710Y-105623790D01*
X174789619Y-105606037D01*
X174775347Y-105586792D01*
X174763029Y-105566242D01*
X174752785Y-105544582D01*
X174744713Y-105522023D01*
X174738891Y-105498781D01*
X174735376Y-105475081D01*
X174734200Y-105451150D01*
X174734200Y-104962850D01*
X174735376Y-104938919D01*
X174738891Y-104915219D01*
X174744713Y-104891977D01*
X174752785Y-104869418D01*
X174763029Y-104847758D01*
X174775347Y-104827208D01*
X174789619Y-104807963D01*
X174805710Y-104790210D01*
X174823463Y-104774119D01*
X174842708Y-104759847D01*
X174863258Y-104747529D01*
X174884918Y-104737285D01*
X174907477Y-104729213D01*
X174930719Y-104723391D01*
X174954419Y-104719876D01*
X174978350Y-104718700D01*
X175541650Y-104718700D01*
X175565581Y-104719876D01*
X175565581Y-104719876D01*
G37*
D18*
X175260000Y-105207000D03*
D10*
G36*
X175565581Y-103144876D02*
X175589281Y-103148391D01*
X175612523Y-103154213D01*
X175635082Y-103162285D01*
X175656742Y-103172529D01*
X175677292Y-103184847D01*
X175696537Y-103199119D01*
X175714290Y-103215210D01*
X175730381Y-103232963D01*
X175744653Y-103252208D01*
X175756971Y-103272758D01*
X175767215Y-103294418D01*
X175775287Y-103316977D01*
X175781109Y-103340219D01*
X175784624Y-103363919D01*
X175785800Y-103387850D01*
X175785800Y-103876150D01*
X175784624Y-103900081D01*
X175781109Y-103923781D01*
X175775287Y-103947023D01*
X175767215Y-103969582D01*
X175756971Y-103991242D01*
X175744653Y-104011792D01*
X175730381Y-104031037D01*
X175714290Y-104048790D01*
X175696537Y-104064881D01*
X175677292Y-104079153D01*
X175656742Y-104091471D01*
X175635082Y-104101715D01*
X175612523Y-104109787D01*
X175589281Y-104115609D01*
X175565581Y-104119124D01*
X175541650Y-104120300D01*
X174978350Y-104120300D01*
X174954419Y-104119124D01*
X174930719Y-104115609D01*
X174907477Y-104109787D01*
X174884918Y-104101715D01*
X174863258Y-104091471D01*
X174842708Y-104079153D01*
X174823463Y-104064881D01*
X174805710Y-104048790D01*
X174789619Y-104031037D01*
X174775347Y-104011792D01*
X174763029Y-103991242D01*
X174752785Y-103969582D01*
X174744713Y-103947023D01*
X174738891Y-103923781D01*
X174735376Y-103900081D01*
X174734200Y-103876150D01*
X174734200Y-103387850D01*
X174735376Y-103363919D01*
X174738891Y-103340219D01*
X174744713Y-103316977D01*
X174752785Y-103294418D01*
X174763029Y-103272758D01*
X174775347Y-103252208D01*
X174789619Y-103232963D01*
X174805710Y-103215210D01*
X174823463Y-103199119D01*
X174842708Y-103184847D01*
X174863258Y-103172529D01*
X174884918Y-103162285D01*
X174907477Y-103154213D01*
X174930719Y-103148391D01*
X174954419Y-103144876D01*
X174978350Y-103143700D01*
X175541650Y-103143700D01*
X175565581Y-103144876D01*
X175565581Y-103144876D01*
G37*
D18*
X175260000Y-103632000D03*
G04 #@! TD*
D23*
G04 #@! TO.C,Y1*
X176423000Y-88138000D03*
X178923000Y-88138000D03*
G04 #@! TD*
D24*
G04 #@! TO.C,U1*
X168407080Y-92007560D03*
X168407080Y-92507560D03*
X168407080Y-93007560D03*
X168407080Y-93507560D03*
X168407080Y-94007560D03*
X168407080Y-94507560D03*
X168407080Y-95007560D03*
X168407080Y-95507560D03*
X168407080Y-96007560D03*
X168407080Y-96507560D03*
X168407080Y-97007560D03*
X168407080Y-97507560D03*
X168407080Y-98007560D03*
X168407080Y-98507560D03*
X168407080Y-99007560D03*
X168407080Y-99507560D03*
D25*
X170357080Y-101457560D03*
X170857080Y-101457560D03*
X171357080Y-101457560D03*
X171857080Y-101457560D03*
X172357080Y-101457560D03*
X172857080Y-101457560D03*
X173357080Y-101457560D03*
X173857080Y-101457560D03*
X174357080Y-101457560D03*
X174857080Y-101457560D03*
X175357080Y-101457560D03*
X175857080Y-101457560D03*
X176357080Y-101457560D03*
X176857080Y-101457560D03*
X177357080Y-101457560D03*
X177857080Y-101457560D03*
D24*
X179807080Y-99507560D03*
X179807080Y-99007560D03*
X179807080Y-98507560D03*
X179807080Y-98007560D03*
X179807080Y-97507560D03*
X179807080Y-97007560D03*
X179807080Y-96507560D03*
X179807080Y-96007560D03*
X179807080Y-95507560D03*
X179807080Y-95007560D03*
X179807080Y-94507560D03*
X179807080Y-94007560D03*
X179807080Y-93507560D03*
X179807080Y-93007560D03*
X179807080Y-92507560D03*
X179807080Y-92007560D03*
D25*
X177857080Y-90057560D03*
X177357080Y-90057560D03*
X176857080Y-90057560D03*
X176357080Y-90057560D03*
X175857080Y-90057560D03*
X175357080Y-90057560D03*
X174857080Y-90057560D03*
X174357080Y-90057560D03*
X173857080Y-90057560D03*
X173357080Y-90057560D03*
X172857080Y-90057560D03*
X172357080Y-90057560D03*
X171857080Y-90057560D03*
X171357080Y-90057560D03*
X170857080Y-90057560D03*
X170357080Y-90057560D03*
G04 #@! TD*
D10*
G04 #@! TO.C,R1*
G36*
X183199081Y-99932376D02*
X183222781Y-99935891D01*
X183246023Y-99941713D01*
X183268582Y-99949785D01*
X183290242Y-99960029D01*
X183310792Y-99972347D01*
X183330037Y-99986619D01*
X183347790Y-100002710D01*
X183363881Y-100020463D01*
X183378153Y-100039708D01*
X183390471Y-100060258D01*
X183400715Y-100081918D01*
X183408787Y-100104477D01*
X183414609Y-100127719D01*
X183418124Y-100151419D01*
X183419300Y-100175350D01*
X183419300Y-100738650D01*
X183418124Y-100762581D01*
X183414609Y-100786281D01*
X183408787Y-100809523D01*
X183400715Y-100832082D01*
X183390471Y-100853742D01*
X183378153Y-100874292D01*
X183363881Y-100893537D01*
X183347790Y-100911290D01*
X183330037Y-100927381D01*
X183310792Y-100941653D01*
X183290242Y-100953971D01*
X183268582Y-100964215D01*
X183246023Y-100972287D01*
X183222781Y-100978109D01*
X183199081Y-100981624D01*
X183175150Y-100982800D01*
X182686850Y-100982800D01*
X182662919Y-100981624D01*
X182639219Y-100978109D01*
X182615977Y-100972287D01*
X182593418Y-100964215D01*
X182571758Y-100953971D01*
X182551208Y-100941653D01*
X182531963Y-100927381D01*
X182514210Y-100911290D01*
X182498119Y-100893537D01*
X182483847Y-100874292D01*
X182471529Y-100853742D01*
X182461285Y-100832082D01*
X182453213Y-100809523D01*
X182447391Y-100786281D01*
X182443876Y-100762581D01*
X182442700Y-100738650D01*
X182442700Y-100175350D01*
X182443876Y-100151419D01*
X182447391Y-100127719D01*
X182453213Y-100104477D01*
X182461285Y-100081918D01*
X182471529Y-100060258D01*
X182483847Y-100039708D01*
X182498119Y-100020463D01*
X182514210Y-100002710D01*
X182531963Y-99986619D01*
X182551208Y-99972347D01*
X182571758Y-99960029D01*
X182593418Y-99949785D01*
X182615977Y-99941713D01*
X182639219Y-99935891D01*
X182662919Y-99932376D01*
X182686850Y-99931200D01*
X183175150Y-99931200D01*
X183199081Y-99932376D01*
X183199081Y-99932376D01*
G37*
D18*
X182931000Y-100457000D03*
D10*
G36*
X181624081Y-99932376D02*
X181647781Y-99935891D01*
X181671023Y-99941713D01*
X181693582Y-99949785D01*
X181715242Y-99960029D01*
X181735792Y-99972347D01*
X181755037Y-99986619D01*
X181772790Y-100002710D01*
X181788881Y-100020463D01*
X181803153Y-100039708D01*
X181815471Y-100060258D01*
X181825715Y-100081918D01*
X181833787Y-100104477D01*
X181839609Y-100127719D01*
X181843124Y-100151419D01*
X181844300Y-100175350D01*
X181844300Y-100738650D01*
X181843124Y-100762581D01*
X181839609Y-100786281D01*
X181833787Y-100809523D01*
X181825715Y-100832082D01*
X181815471Y-100853742D01*
X181803153Y-100874292D01*
X181788881Y-100893537D01*
X181772790Y-100911290D01*
X181755037Y-100927381D01*
X181735792Y-100941653D01*
X181715242Y-100953971D01*
X181693582Y-100964215D01*
X181671023Y-100972287D01*
X181647781Y-100978109D01*
X181624081Y-100981624D01*
X181600150Y-100982800D01*
X181111850Y-100982800D01*
X181087919Y-100981624D01*
X181064219Y-100978109D01*
X181040977Y-100972287D01*
X181018418Y-100964215D01*
X180996758Y-100953971D01*
X180976208Y-100941653D01*
X180956963Y-100927381D01*
X180939210Y-100911290D01*
X180923119Y-100893537D01*
X180908847Y-100874292D01*
X180896529Y-100853742D01*
X180886285Y-100832082D01*
X180878213Y-100809523D01*
X180872391Y-100786281D01*
X180868876Y-100762581D01*
X180867700Y-100738650D01*
X180867700Y-100175350D01*
X180868876Y-100151419D01*
X180872391Y-100127719D01*
X180878213Y-100104477D01*
X180886285Y-100081918D01*
X180896529Y-100060258D01*
X180908847Y-100039708D01*
X180923119Y-100020463D01*
X180939210Y-100002710D01*
X180956963Y-99986619D01*
X180976208Y-99972347D01*
X180996758Y-99960029D01*
X181018418Y-99949785D01*
X181040977Y-99941713D01*
X181064219Y-99935891D01*
X181087919Y-99932376D01*
X181111850Y-99931200D01*
X181600150Y-99931200D01*
X181624081Y-99932376D01*
X181624081Y-99932376D01*
G37*
D18*
X181356000Y-100457000D03*
G04 #@! TD*
D10*
G04 #@! TO.C,C11*
G36*
X163373581Y-95372376D02*
X163397281Y-95375891D01*
X163420523Y-95381713D01*
X163443082Y-95389785D01*
X163464742Y-95400029D01*
X163485292Y-95412347D01*
X163504537Y-95426619D01*
X163522290Y-95442710D01*
X163538381Y-95460463D01*
X163552653Y-95479708D01*
X163564971Y-95500258D01*
X163575215Y-95521918D01*
X163583287Y-95544477D01*
X163589109Y-95567719D01*
X163592624Y-95591419D01*
X163593800Y-95615350D01*
X163593800Y-96103650D01*
X163592624Y-96127581D01*
X163589109Y-96151281D01*
X163583287Y-96174523D01*
X163575215Y-96197082D01*
X163564971Y-96218742D01*
X163552653Y-96239292D01*
X163538381Y-96258537D01*
X163522290Y-96276290D01*
X163504537Y-96292381D01*
X163485292Y-96306653D01*
X163464742Y-96318971D01*
X163443082Y-96329215D01*
X163420523Y-96337287D01*
X163397281Y-96343109D01*
X163373581Y-96346624D01*
X163349650Y-96347800D01*
X162786350Y-96347800D01*
X162762419Y-96346624D01*
X162738719Y-96343109D01*
X162715477Y-96337287D01*
X162692918Y-96329215D01*
X162671258Y-96318971D01*
X162650708Y-96306653D01*
X162631463Y-96292381D01*
X162613710Y-96276290D01*
X162597619Y-96258537D01*
X162583347Y-96239292D01*
X162571029Y-96218742D01*
X162560785Y-96197082D01*
X162552713Y-96174523D01*
X162546891Y-96151281D01*
X162543376Y-96127581D01*
X162542200Y-96103650D01*
X162542200Y-95615350D01*
X162543376Y-95591419D01*
X162546891Y-95567719D01*
X162552713Y-95544477D01*
X162560785Y-95521918D01*
X162571029Y-95500258D01*
X162583347Y-95479708D01*
X162597619Y-95460463D01*
X162613710Y-95442710D01*
X162631463Y-95426619D01*
X162650708Y-95412347D01*
X162671258Y-95400029D01*
X162692918Y-95389785D01*
X162715477Y-95381713D01*
X162738719Y-95375891D01*
X162762419Y-95372376D01*
X162786350Y-95371200D01*
X163349650Y-95371200D01*
X163373581Y-95372376D01*
X163373581Y-95372376D01*
G37*
D18*
X163068000Y-95859500D03*
D10*
G36*
X163373581Y-96947376D02*
X163397281Y-96950891D01*
X163420523Y-96956713D01*
X163443082Y-96964785D01*
X163464742Y-96975029D01*
X163485292Y-96987347D01*
X163504537Y-97001619D01*
X163522290Y-97017710D01*
X163538381Y-97035463D01*
X163552653Y-97054708D01*
X163564971Y-97075258D01*
X163575215Y-97096918D01*
X163583287Y-97119477D01*
X163589109Y-97142719D01*
X163592624Y-97166419D01*
X163593800Y-97190350D01*
X163593800Y-97678650D01*
X163592624Y-97702581D01*
X163589109Y-97726281D01*
X163583287Y-97749523D01*
X163575215Y-97772082D01*
X163564971Y-97793742D01*
X163552653Y-97814292D01*
X163538381Y-97833537D01*
X163522290Y-97851290D01*
X163504537Y-97867381D01*
X163485292Y-97881653D01*
X163464742Y-97893971D01*
X163443082Y-97904215D01*
X163420523Y-97912287D01*
X163397281Y-97918109D01*
X163373581Y-97921624D01*
X163349650Y-97922800D01*
X162786350Y-97922800D01*
X162762419Y-97921624D01*
X162738719Y-97918109D01*
X162715477Y-97912287D01*
X162692918Y-97904215D01*
X162671258Y-97893971D01*
X162650708Y-97881653D01*
X162631463Y-97867381D01*
X162613710Y-97851290D01*
X162597619Y-97833537D01*
X162583347Y-97814292D01*
X162571029Y-97793742D01*
X162560785Y-97772082D01*
X162552713Y-97749523D01*
X162546891Y-97726281D01*
X162543376Y-97702581D01*
X162542200Y-97678650D01*
X162542200Y-97190350D01*
X162543376Y-97166419D01*
X162546891Y-97142719D01*
X162552713Y-97119477D01*
X162560785Y-97096918D01*
X162571029Y-97075258D01*
X162583347Y-97054708D01*
X162597619Y-97035463D01*
X162613710Y-97017710D01*
X162631463Y-97001619D01*
X162650708Y-96987347D01*
X162671258Y-96975029D01*
X162692918Y-96964785D01*
X162715477Y-96956713D01*
X162738719Y-96950891D01*
X162762419Y-96947376D01*
X162786350Y-96946200D01*
X163349650Y-96946200D01*
X163373581Y-96947376D01*
X163373581Y-96947376D01*
G37*
D18*
X163068000Y-97434500D03*
G04 #@! TD*
M02*
