G04 #@! TF.GenerationSoftware,KiCad,Pcbnew,5.0.2+dfsg1-1~bpo9+1*
G04 #@! TF.CreationDate,2019-04-13T04:29:40+03:00*
G04 #@! TF.ProjectId,kicad,6b696361-642e-46b6-9963-61645f706362,rev?*
G04 #@! TF.SameCoordinates,Original*
G04 #@! TF.FileFunction,Soldermask,Bot*
G04 #@! TF.FilePolarity,Negative*
%FSLAX46Y46*%
G04 Gerber Fmt 4.6, Leading zero omitted, Abs format (unit mm)*
G04 Created by KiCad (PCBNEW 5.0.2+dfsg1-1~bpo9+1) date Sat 13 Apr 2019 04:29:40 AM MSK*
%MOMM*%
%LPD*%
G01*
G04 APERTURE LIST*
%ADD10C,0.100000*%
G04 APERTURE END LIST*
D10*
G36*
X144907000Y-106807000D02*
X146685000Y-106807000D01*
X146685000Y-108077000D01*
X144907000Y-108077000D01*
X144907000Y-106807000D01*
G37*
G36*
X146484800Y-106401200D02*
X146486529Y-106418758D01*
X146491651Y-106435642D01*
X146499968Y-106451201D01*
X146511160Y-106464840D01*
X146524799Y-106476032D01*
X146540358Y-106484349D01*
X146557242Y-106489471D01*
X146574800Y-106491200D01*
X147274800Y-106491200D01*
X147274800Y-108392000D01*
X146574800Y-108392000D01*
X146557242Y-108393729D01*
X146540358Y-108398851D01*
X146524799Y-108407168D01*
X146511160Y-108418360D01*
X146499968Y-108431999D01*
X146491651Y-108447558D01*
X146486529Y-108464442D01*
X146484800Y-108482000D01*
X146484800Y-108682000D01*
X145084000Y-108682000D01*
X145084000Y-108482000D01*
X145082271Y-108464442D01*
X145077149Y-108447558D01*
X145068832Y-108431999D01*
X145057640Y-108418360D01*
X145044001Y-108407168D01*
X145028442Y-108398851D01*
X145011558Y-108393729D01*
X144994000Y-108392000D01*
X144294000Y-108392000D01*
X144294000Y-106922000D01*
X144924800Y-106922000D01*
X144924800Y-107961200D01*
X144926529Y-107978758D01*
X144931651Y-107995642D01*
X144939968Y-108011201D01*
X144951160Y-108024840D01*
X144964799Y-108036032D01*
X144980358Y-108044349D01*
X144997242Y-108049471D01*
X145014800Y-108051200D01*
X146554000Y-108051200D01*
X146571558Y-108049471D01*
X146588442Y-108044349D01*
X146604001Y-108036032D01*
X146617640Y-108024840D01*
X146628832Y-108011201D01*
X146637149Y-107995642D01*
X146642271Y-107978758D01*
X146644000Y-107961200D01*
X146644000Y-106922000D01*
X146642271Y-106904442D01*
X146637149Y-106887558D01*
X146628832Y-106871999D01*
X146617640Y-106858360D01*
X146604001Y-106847168D01*
X146588442Y-106838851D01*
X146571558Y-106833729D01*
X146554000Y-106832000D01*
X145014800Y-106832000D01*
X144997242Y-106833729D01*
X144980358Y-106838851D01*
X144964799Y-106847168D01*
X144951160Y-106858360D01*
X144939968Y-106871999D01*
X144931651Y-106887558D01*
X144926529Y-106904442D01*
X144924800Y-106922000D01*
X144294000Y-106922000D01*
X144294000Y-106491200D01*
X144994000Y-106491200D01*
X145011558Y-106489471D01*
X145028442Y-106484349D01*
X145044001Y-106476032D01*
X145057640Y-106464840D01*
X145068832Y-106451201D01*
X145077149Y-106435642D01*
X145082271Y-106418758D01*
X145084000Y-106401200D01*
X145084000Y-106201200D01*
X146484800Y-106201200D01*
X146484800Y-106401200D01*
X146484800Y-106401200D01*
G37*
G36*
X148574418Y-106322954D02*
X148611696Y-106334262D01*
X148646050Y-106352625D01*
X148676163Y-106377337D01*
X148700875Y-106407450D01*
X148719238Y-106441804D01*
X148730546Y-106479082D01*
X148734800Y-106522276D01*
X148734800Y-107091724D01*
X148730546Y-107134918D01*
X148719238Y-107172196D01*
X148700875Y-107206550D01*
X148676163Y-107236663D01*
X148646050Y-107261375D01*
X148611696Y-107279738D01*
X148574418Y-107291046D01*
X148531224Y-107295300D01*
X147886776Y-107295300D01*
X147843582Y-107291046D01*
X147806304Y-107279738D01*
X147771950Y-107261375D01*
X147741837Y-107236663D01*
X147717125Y-107206550D01*
X147698762Y-107172196D01*
X147687454Y-107134918D01*
X147683200Y-107091724D01*
X147683200Y-106522276D01*
X147687454Y-106479082D01*
X147698762Y-106441804D01*
X147717125Y-106407450D01*
X147741837Y-106377337D01*
X147771950Y-106352625D01*
X147806304Y-106334262D01*
X147843582Y-106322954D01*
X147886776Y-106318700D01*
X148531224Y-106318700D01*
X148574418Y-106322954D01*
X148574418Y-106322954D01*
G37*
G36*
X150098418Y-106322954D02*
X150135696Y-106334262D01*
X150170050Y-106352625D01*
X150200163Y-106377337D01*
X150224875Y-106407450D01*
X150243238Y-106441804D01*
X150254546Y-106479082D01*
X150258800Y-106522276D01*
X150258800Y-107091724D01*
X150254546Y-107134918D01*
X150243238Y-107172196D01*
X150224875Y-107206550D01*
X150200163Y-107236663D01*
X150170050Y-107261375D01*
X150135696Y-107279738D01*
X150098418Y-107291046D01*
X150055224Y-107295300D01*
X149410776Y-107295300D01*
X149367582Y-107291046D01*
X149330304Y-107279738D01*
X149295950Y-107261375D01*
X149265837Y-107236663D01*
X149241125Y-107206550D01*
X149222762Y-107172196D01*
X149211454Y-107134918D01*
X149207200Y-107091724D01*
X149207200Y-106522276D01*
X149211454Y-106479082D01*
X149222762Y-106441804D01*
X149241125Y-106407450D01*
X149265837Y-106377337D01*
X149295950Y-106352625D01*
X149330304Y-106334262D01*
X149367582Y-106322954D01*
X149410776Y-106318700D01*
X150055224Y-106318700D01*
X150098418Y-106322954D01*
X150098418Y-106322954D01*
G37*
G36*
X152027800Y-106683800D02*
X151026200Y-106683800D01*
X151026200Y-105782200D01*
X152027800Y-105782200D01*
X152027800Y-106683800D01*
X152027800Y-106683800D01*
G37*
G36*
X147012918Y-104761454D02*
X147050196Y-104772762D01*
X147084550Y-104791125D01*
X147114663Y-104815837D01*
X147139375Y-104845950D01*
X147157738Y-104880304D01*
X147169046Y-104917582D01*
X147173300Y-104960776D01*
X147173300Y-105605224D01*
X147169046Y-105648418D01*
X147157738Y-105685696D01*
X147139375Y-105720050D01*
X147114663Y-105750163D01*
X147084550Y-105774875D01*
X147050196Y-105793238D01*
X147012918Y-105804546D01*
X146969724Y-105808800D01*
X146400276Y-105808800D01*
X146357082Y-105804546D01*
X146319804Y-105793238D01*
X146285450Y-105774875D01*
X146255337Y-105750163D01*
X146230625Y-105720050D01*
X146212262Y-105685696D01*
X146200954Y-105648418D01*
X146196700Y-105605224D01*
X146196700Y-104960776D01*
X146200954Y-104917582D01*
X146212262Y-104880304D01*
X146230625Y-104845950D01*
X146255337Y-104815837D01*
X146285450Y-104791125D01*
X146319804Y-104772762D01*
X146357082Y-104761454D01*
X146400276Y-104757200D01*
X146969724Y-104757200D01*
X147012918Y-104761454D01*
X147012918Y-104761454D01*
G37*
G36*
X145437918Y-104761454D02*
X145475196Y-104772762D01*
X145509550Y-104791125D01*
X145539663Y-104815837D01*
X145564375Y-104845950D01*
X145582738Y-104880304D01*
X145594046Y-104917582D01*
X145598300Y-104960776D01*
X145598300Y-105605224D01*
X145594046Y-105648418D01*
X145582738Y-105685696D01*
X145564375Y-105720050D01*
X145539663Y-105750163D01*
X145509550Y-105774875D01*
X145475196Y-105793238D01*
X145437918Y-105804546D01*
X145394724Y-105808800D01*
X144825276Y-105808800D01*
X144782082Y-105804546D01*
X144744804Y-105793238D01*
X144710450Y-105774875D01*
X144680337Y-105750163D01*
X144655625Y-105720050D01*
X144637262Y-105685696D01*
X144625954Y-105648418D01*
X144621700Y-105605224D01*
X144621700Y-104960776D01*
X144625954Y-104917582D01*
X144637262Y-104880304D01*
X144655625Y-104845950D01*
X144680337Y-104815837D01*
X144710450Y-104791125D01*
X144744804Y-104772762D01*
X144782082Y-104761454D01*
X144825276Y-104757200D01*
X145394724Y-104757200D01*
X145437918Y-104761454D01*
X145437918Y-104761454D01*
G37*
G36*
X154027800Y-105733800D02*
X153026200Y-105733800D01*
X153026200Y-104832200D01*
X154027800Y-104832200D01*
X154027800Y-105733800D01*
X154027800Y-105733800D01*
G37*
G36*
X150098418Y-104747954D02*
X150135696Y-104759262D01*
X150170050Y-104777625D01*
X150200163Y-104802337D01*
X150224875Y-104832450D01*
X150243238Y-104866804D01*
X150254546Y-104904082D01*
X150258800Y-104947276D01*
X150258800Y-105516724D01*
X150254546Y-105559918D01*
X150243238Y-105597196D01*
X150224875Y-105631550D01*
X150200163Y-105661663D01*
X150170050Y-105686375D01*
X150135696Y-105704738D01*
X150098418Y-105716046D01*
X150055224Y-105720300D01*
X149410776Y-105720300D01*
X149367582Y-105716046D01*
X149330304Y-105704738D01*
X149295950Y-105686375D01*
X149265837Y-105661663D01*
X149241125Y-105631550D01*
X149222762Y-105597196D01*
X149211454Y-105559918D01*
X149207200Y-105516724D01*
X149207200Y-104947276D01*
X149211454Y-104904082D01*
X149222762Y-104866804D01*
X149241125Y-104832450D01*
X149265837Y-104802337D01*
X149295950Y-104777625D01*
X149330304Y-104759262D01*
X149367582Y-104747954D01*
X149410776Y-104743700D01*
X150055224Y-104743700D01*
X150098418Y-104747954D01*
X150098418Y-104747954D01*
G37*
G36*
X148574418Y-104747954D02*
X148611696Y-104759262D01*
X148646050Y-104777625D01*
X148676163Y-104802337D01*
X148700875Y-104832450D01*
X148719238Y-104866804D01*
X148730546Y-104904082D01*
X148734800Y-104947276D01*
X148734800Y-105516724D01*
X148730546Y-105559918D01*
X148719238Y-105597196D01*
X148700875Y-105631550D01*
X148676163Y-105661663D01*
X148646050Y-105686375D01*
X148611696Y-105704738D01*
X148574418Y-105716046D01*
X148531224Y-105720300D01*
X147886776Y-105720300D01*
X147843582Y-105716046D01*
X147806304Y-105704738D01*
X147771950Y-105686375D01*
X147741837Y-105661663D01*
X147717125Y-105631550D01*
X147698762Y-105597196D01*
X147687454Y-105559918D01*
X147683200Y-105516724D01*
X147683200Y-104947276D01*
X147687454Y-104904082D01*
X147698762Y-104866804D01*
X147717125Y-104832450D01*
X147741837Y-104802337D01*
X147771950Y-104777625D01*
X147806304Y-104759262D01*
X147843582Y-104747954D01*
X147886776Y-104743700D01*
X148531224Y-104743700D01*
X148574418Y-104747954D01*
X148574418Y-104747954D01*
G37*
G36*
X174101418Y-104722954D02*
X174138696Y-104734262D01*
X174173050Y-104752625D01*
X174203163Y-104777337D01*
X174227875Y-104807450D01*
X174246238Y-104841804D01*
X174257546Y-104879082D01*
X174261800Y-104922276D01*
X174261800Y-105491724D01*
X174257546Y-105534918D01*
X174246238Y-105572196D01*
X174227875Y-105606550D01*
X174203163Y-105636663D01*
X174173050Y-105661375D01*
X174138696Y-105679738D01*
X174101418Y-105691046D01*
X174058224Y-105695300D01*
X173413776Y-105695300D01*
X173370582Y-105691046D01*
X173333304Y-105679738D01*
X173298950Y-105661375D01*
X173268837Y-105636663D01*
X173244125Y-105606550D01*
X173225762Y-105572196D01*
X173214454Y-105534918D01*
X173210200Y-105491724D01*
X173210200Y-104922276D01*
X173214454Y-104879082D01*
X173225762Y-104841804D01*
X173244125Y-104807450D01*
X173268837Y-104777337D01*
X173298950Y-104752625D01*
X173333304Y-104734262D01*
X173370582Y-104722954D01*
X173413776Y-104718700D01*
X174058224Y-104718700D01*
X174101418Y-104722954D01*
X174101418Y-104722954D01*
G37*
G36*
X175625418Y-104722954D02*
X175662696Y-104734262D01*
X175697050Y-104752625D01*
X175727163Y-104777337D01*
X175751875Y-104807450D01*
X175770238Y-104841804D01*
X175781546Y-104879082D01*
X175785800Y-104922276D01*
X175785800Y-105491724D01*
X175781546Y-105534918D01*
X175770238Y-105572196D01*
X175751875Y-105606550D01*
X175727163Y-105636663D01*
X175697050Y-105661375D01*
X175662696Y-105679738D01*
X175625418Y-105691046D01*
X175582224Y-105695300D01*
X174937776Y-105695300D01*
X174894582Y-105691046D01*
X174857304Y-105679738D01*
X174822950Y-105661375D01*
X174792837Y-105636663D01*
X174768125Y-105606550D01*
X174749762Y-105572196D01*
X174738454Y-105534918D01*
X174734200Y-105491724D01*
X174734200Y-104922276D01*
X174738454Y-104879082D01*
X174749762Y-104841804D01*
X174768125Y-104807450D01*
X174792837Y-104777337D01*
X174822950Y-104752625D01*
X174857304Y-104734262D01*
X174894582Y-104722954D01*
X174937776Y-104718700D01*
X175582224Y-104718700D01*
X175625418Y-104722954D01*
X175625418Y-104722954D01*
G37*
G36*
X177149418Y-104722954D02*
X177186696Y-104734262D01*
X177221050Y-104752625D01*
X177251163Y-104777337D01*
X177275875Y-104807450D01*
X177294238Y-104841804D01*
X177305546Y-104879082D01*
X177309800Y-104922276D01*
X177309800Y-105491724D01*
X177305546Y-105534918D01*
X177294238Y-105572196D01*
X177275875Y-105606550D01*
X177251163Y-105636663D01*
X177221050Y-105661375D01*
X177186696Y-105679738D01*
X177149418Y-105691046D01*
X177106224Y-105695300D01*
X176461776Y-105695300D01*
X176418582Y-105691046D01*
X176381304Y-105679738D01*
X176346950Y-105661375D01*
X176316837Y-105636663D01*
X176292125Y-105606550D01*
X176273762Y-105572196D01*
X176262454Y-105534918D01*
X176258200Y-105491724D01*
X176258200Y-104922276D01*
X176262454Y-104879082D01*
X176273762Y-104841804D01*
X176292125Y-104807450D01*
X176316837Y-104777337D01*
X176346950Y-104752625D01*
X176381304Y-104734262D01*
X176418582Y-104722954D01*
X176461776Y-104718700D01*
X177106224Y-104718700D01*
X177149418Y-104722954D01*
X177149418Y-104722954D01*
G37*
G36*
X178673418Y-104722954D02*
X178710696Y-104734262D01*
X178745050Y-104752625D01*
X178775163Y-104777337D01*
X178799875Y-104807450D01*
X178818238Y-104841804D01*
X178829546Y-104879082D01*
X178833800Y-104922276D01*
X178833800Y-105491724D01*
X178829546Y-105534918D01*
X178818238Y-105572196D01*
X178799875Y-105606550D01*
X178775163Y-105636663D01*
X178745050Y-105661375D01*
X178710696Y-105679738D01*
X178673418Y-105691046D01*
X178630224Y-105695300D01*
X177985776Y-105695300D01*
X177942582Y-105691046D01*
X177905304Y-105679738D01*
X177870950Y-105661375D01*
X177840837Y-105636663D01*
X177816125Y-105606550D01*
X177797762Y-105572196D01*
X177786454Y-105534918D01*
X177782200Y-105491724D01*
X177782200Y-104922276D01*
X177786454Y-104879082D01*
X177797762Y-104841804D01*
X177816125Y-104807450D01*
X177840837Y-104777337D01*
X177870950Y-104752625D01*
X177905304Y-104734262D01*
X177942582Y-104722954D01*
X177985776Y-104718700D01*
X178630224Y-104718700D01*
X178673418Y-104722954D01*
X178673418Y-104722954D01*
G37*
G36*
X152027800Y-104783800D02*
X151026200Y-104783800D01*
X151026200Y-103882200D01*
X152027800Y-103882200D01*
X152027800Y-104783800D01*
X152027800Y-104783800D01*
G37*
G36*
X178673418Y-103147954D02*
X178710696Y-103159262D01*
X178745050Y-103177625D01*
X178775163Y-103202337D01*
X178799875Y-103232450D01*
X178818238Y-103266804D01*
X178829546Y-103304082D01*
X178833800Y-103347276D01*
X178833800Y-103916724D01*
X178829546Y-103959918D01*
X178818238Y-103997196D01*
X178799875Y-104031550D01*
X178775163Y-104061663D01*
X178745050Y-104086375D01*
X178710696Y-104104738D01*
X178673418Y-104116046D01*
X178630224Y-104120300D01*
X177985776Y-104120300D01*
X177942582Y-104116046D01*
X177905304Y-104104738D01*
X177870950Y-104086375D01*
X177840837Y-104061663D01*
X177816125Y-104031550D01*
X177797762Y-103997196D01*
X177786454Y-103959918D01*
X177782200Y-103916724D01*
X177782200Y-103347276D01*
X177786454Y-103304082D01*
X177797762Y-103266804D01*
X177816125Y-103232450D01*
X177840837Y-103202337D01*
X177870950Y-103177625D01*
X177905304Y-103159262D01*
X177942582Y-103147954D01*
X177985776Y-103143700D01*
X178630224Y-103143700D01*
X178673418Y-103147954D01*
X178673418Y-103147954D01*
G37*
G36*
X177149418Y-103147954D02*
X177186696Y-103159262D01*
X177221050Y-103177625D01*
X177251163Y-103202337D01*
X177275875Y-103232450D01*
X177294238Y-103266804D01*
X177305546Y-103304082D01*
X177309800Y-103347276D01*
X177309800Y-103916724D01*
X177305546Y-103959918D01*
X177294238Y-103997196D01*
X177275875Y-104031550D01*
X177251163Y-104061663D01*
X177221050Y-104086375D01*
X177186696Y-104104738D01*
X177149418Y-104116046D01*
X177106224Y-104120300D01*
X176461776Y-104120300D01*
X176418582Y-104116046D01*
X176381304Y-104104738D01*
X176346950Y-104086375D01*
X176316837Y-104061663D01*
X176292125Y-104031550D01*
X176273762Y-103997196D01*
X176262454Y-103959918D01*
X176258200Y-103916724D01*
X176258200Y-103347276D01*
X176262454Y-103304082D01*
X176273762Y-103266804D01*
X176292125Y-103232450D01*
X176316837Y-103202337D01*
X176346950Y-103177625D01*
X176381304Y-103159262D01*
X176418582Y-103147954D01*
X176461776Y-103143700D01*
X177106224Y-103143700D01*
X177149418Y-103147954D01*
X177149418Y-103147954D01*
G37*
G36*
X175625418Y-103147954D02*
X175662696Y-103159262D01*
X175697050Y-103177625D01*
X175727163Y-103202337D01*
X175751875Y-103232450D01*
X175770238Y-103266804D01*
X175781546Y-103304082D01*
X175785800Y-103347276D01*
X175785800Y-103916724D01*
X175781546Y-103959918D01*
X175770238Y-103997196D01*
X175751875Y-104031550D01*
X175727163Y-104061663D01*
X175697050Y-104086375D01*
X175662696Y-104104738D01*
X175625418Y-104116046D01*
X175582224Y-104120300D01*
X174937776Y-104120300D01*
X174894582Y-104116046D01*
X174857304Y-104104738D01*
X174822950Y-104086375D01*
X174792837Y-104061663D01*
X174768125Y-104031550D01*
X174749762Y-103997196D01*
X174738454Y-103959918D01*
X174734200Y-103916724D01*
X174734200Y-103347276D01*
X174738454Y-103304082D01*
X174749762Y-103266804D01*
X174768125Y-103232450D01*
X174792837Y-103202337D01*
X174822950Y-103177625D01*
X174857304Y-103159262D01*
X174894582Y-103147954D01*
X174937776Y-103143700D01*
X175582224Y-103143700D01*
X175625418Y-103147954D01*
X175625418Y-103147954D01*
G37*
G36*
X174101418Y-103147954D02*
X174138696Y-103159262D01*
X174173050Y-103177625D01*
X174203163Y-103202337D01*
X174227875Y-103232450D01*
X174246238Y-103266804D01*
X174257546Y-103304082D01*
X174261800Y-103347276D01*
X174261800Y-103916724D01*
X174257546Y-103959918D01*
X174246238Y-103997196D01*
X174227875Y-104031550D01*
X174203163Y-104061663D01*
X174173050Y-104086375D01*
X174138696Y-104104738D01*
X174101418Y-104116046D01*
X174058224Y-104120300D01*
X173413776Y-104120300D01*
X173370582Y-104116046D01*
X173333304Y-104104738D01*
X173298950Y-104086375D01*
X173268837Y-104061663D01*
X173244125Y-104031550D01*
X173225762Y-103997196D01*
X173214454Y-103959918D01*
X173210200Y-103916724D01*
X173210200Y-103347276D01*
X173214454Y-103304082D01*
X173225762Y-103266804D01*
X173244125Y-103232450D01*
X173268837Y-103202337D01*
X173298950Y-103177625D01*
X173333304Y-103159262D01*
X173370582Y-103147954D01*
X173413776Y-103143700D01*
X174058224Y-103143700D01*
X174101418Y-103147954D01*
X174101418Y-103147954D01*
G37*
G36*
X181683918Y-101459454D02*
X181721196Y-101470762D01*
X181755550Y-101489125D01*
X181785663Y-101513837D01*
X181810375Y-101543950D01*
X181828738Y-101578304D01*
X181840046Y-101615582D01*
X181844300Y-101658776D01*
X181844300Y-102303224D01*
X181840046Y-102346418D01*
X181828738Y-102383696D01*
X181810375Y-102418050D01*
X181785663Y-102448163D01*
X181755550Y-102472875D01*
X181721196Y-102491238D01*
X181683918Y-102502546D01*
X181640724Y-102506800D01*
X181071276Y-102506800D01*
X181028082Y-102502546D01*
X180990804Y-102491238D01*
X180956450Y-102472875D01*
X180926337Y-102448163D01*
X180901625Y-102418050D01*
X180883262Y-102383696D01*
X180871954Y-102346418D01*
X180867700Y-102303224D01*
X180867700Y-101658776D01*
X180871954Y-101615582D01*
X180883262Y-101578304D01*
X180901625Y-101543950D01*
X180926337Y-101513837D01*
X180956450Y-101489125D01*
X180990804Y-101470762D01*
X181028082Y-101459454D01*
X181071276Y-101455200D01*
X181640724Y-101455200D01*
X181683918Y-101459454D01*
X181683918Y-101459454D01*
G37*
G36*
X183258918Y-101459454D02*
X183296196Y-101470762D01*
X183330550Y-101489125D01*
X183360663Y-101513837D01*
X183385375Y-101543950D01*
X183403738Y-101578304D01*
X183415046Y-101615582D01*
X183419300Y-101658776D01*
X183419300Y-102303224D01*
X183415046Y-102346418D01*
X183403738Y-102383696D01*
X183385375Y-102418050D01*
X183360663Y-102448163D01*
X183330550Y-102472875D01*
X183296196Y-102491238D01*
X183258918Y-102502546D01*
X183215724Y-102506800D01*
X182646276Y-102506800D01*
X182603082Y-102502546D01*
X182565804Y-102491238D01*
X182531450Y-102472875D01*
X182501337Y-102448163D01*
X182476625Y-102418050D01*
X182458262Y-102383696D01*
X182446954Y-102346418D01*
X182442700Y-102303224D01*
X182442700Y-101658776D01*
X182446954Y-101615582D01*
X182458262Y-101578304D01*
X182476625Y-101543950D01*
X182501337Y-101513837D01*
X182531450Y-101489125D01*
X182565804Y-101470762D01*
X182603082Y-101459454D01*
X182646276Y-101455200D01*
X183215724Y-101455200D01*
X183258918Y-101459454D01*
X183258918Y-101459454D01*
G37*
G36*
X173007480Y-101982960D02*
X172706680Y-101982960D01*
X172706680Y-100932160D01*
X173007480Y-100932160D01*
X173007480Y-101982960D01*
X173007480Y-101982960D01*
G37*
G36*
X175007480Y-101982960D02*
X174706680Y-101982960D01*
X174706680Y-100932160D01*
X175007480Y-100932160D01*
X175007480Y-101982960D01*
X175007480Y-101982960D01*
G37*
G36*
X174507480Y-101982960D02*
X174206680Y-101982960D01*
X174206680Y-100932160D01*
X174507480Y-100932160D01*
X174507480Y-101982960D01*
X174507480Y-101982960D01*
G37*
G36*
X174007480Y-101982960D02*
X173706680Y-101982960D01*
X173706680Y-100932160D01*
X174007480Y-100932160D01*
X174007480Y-101982960D01*
X174007480Y-101982960D01*
G37*
G36*
X173507480Y-101982960D02*
X173206680Y-101982960D01*
X173206680Y-100932160D01*
X173507480Y-100932160D01*
X173507480Y-101982960D01*
X173507480Y-101982960D01*
G37*
G36*
X172507480Y-101982960D02*
X172206680Y-101982960D01*
X172206680Y-100932160D01*
X172507480Y-100932160D01*
X172507480Y-101982960D01*
X172507480Y-101982960D01*
G37*
G36*
X172007480Y-101982960D02*
X171706680Y-101982960D01*
X171706680Y-100932160D01*
X172007480Y-100932160D01*
X172007480Y-101982960D01*
X172007480Y-101982960D01*
G37*
G36*
X171507480Y-101982960D02*
X171206680Y-101982960D01*
X171206680Y-100932160D01*
X171507480Y-100932160D01*
X171507480Y-101982960D01*
X171507480Y-101982960D01*
G37*
G36*
X176507480Y-101982960D02*
X176206680Y-101982960D01*
X176206680Y-100932160D01*
X176507480Y-100932160D01*
X176507480Y-101982960D01*
X176507480Y-101982960D01*
G37*
G36*
X176007480Y-101982960D02*
X175706680Y-101982960D01*
X175706680Y-100932160D01*
X176007480Y-100932160D01*
X176007480Y-101982960D01*
X176007480Y-101982960D01*
G37*
G36*
X175507480Y-101982960D02*
X175206680Y-101982960D01*
X175206680Y-100932160D01*
X175507480Y-100932160D01*
X175507480Y-101982960D01*
X175507480Y-101982960D01*
G37*
G36*
X178007480Y-101982960D02*
X177706680Y-101982960D01*
X177706680Y-100932160D01*
X178007480Y-100932160D01*
X178007480Y-101982960D01*
X178007480Y-101982960D01*
G37*
G36*
X177507480Y-101982960D02*
X177206680Y-101982960D01*
X177206680Y-100932160D01*
X177507480Y-100932160D01*
X177507480Y-101982960D01*
X177507480Y-101982960D01*
G37*
G36*
X177007480Y-101982960D02*
X176706680Y-101982960D01*
X176706680Y-100932160D01*
X177007480Y-100932160D01*
X177007480Y-101982960D01*
X177007480Y-101982960D01*
G37*
G36*
X170507480Y-101982960D02*
X170206680Y-101982960D01*
X170206680Y-100932160D01*
X170507480Y-100932160D01*
X170507480Y-101982960D01*
X170507480Y-101982960D01*
G37*
G36*
X171007480Y-101982960D02*
X170706680Y-101982960D01*
X170706680Y-100932160D01*
X171007480Y-100932160D01*
X171007480Y-101982960D01*
X171007480Y-101982960D01*
G37*
G36*
X183258918Y-99935454D02*
X183296196Y-99946762D01*
X183330550Y-99965125D01*
X183360663Y-99989837D01*
X183385375Y-100019950D01*
X183403738Y-100054304D01*
X183415046Y-100091582D01*
X183419300Y-100134776D01*
X183419300Y-100779224D01*
X183415046Y-100822418D01*
X183403738Y-100859696D01*
X183385375Y-100894050D01*
X183360663Y-100924163D01*
X183330550Y-100948875D01*
X183296196Y-100967238D01*
X183258918Y-100978546D01*
X183215724Y-100982800D01*
X182646276Y-100982800D01*
X182603082Y-100978546D01*
X182565804Y-100967238D01*
X182531450Y-100948875D01*
X182501337Y-100924163D01*
X182476625Y-100894050D01*
X182458262Y-100859696D01*
X182446954Y-100822418D01*
X182442700Y-100779224D01*
X182442700Y-100134776D01*
X182446954Y-100091582D01*
X182458262Y-100054304D01*
X182476625Y-100019950D01*
X182501337Y-99989837D01*
X182531450Y-99965125D01*
X182565804Y-99946762D01*
X182603082Y-99935454D01*
X182646276Y-99931200D01*
X183215724Y-99931200D01*
X183258918Y-99935454D01*
X183258918Y-99935454D01*
G37*
G36*
X181683918Y-99935454D02*
X181721196Y-99946762D01*
X181755550Y-99965125D01*
X181785663Y-99989837D01*
X181810375Y-100019950D01*
X181828738Y-100054304D01*
X181840046Y-100091582D01*
X181844300Y-100134776D01*
X181844300Y-100779224D01*
X181840046Y-100822418D01*
X181828738Y-100859696D01*
X181810375Y-100894050D01*
X181785663Y-100924163D01*
X181755550Y-100948875D01*
X181721196Y-100967238D01*
X181683918Y-100978546D01*
X181640724Y-100982800D01*
X181071276Y-100982800D01*
X181028082Y-100978546D01*
X180990804Y-100967238D01*
X180956450Y-100948875D01*
X180926337Y-100924163D01*
X180901625Y-100894050D01*
X180883262Y-100859696D01*
X180871954Y-100822418D01*
X180867700Y-100779224D01*
X180867700Y-100134776D01*
X180871954Y-100091582D01*
X180883262Y-100054304D01*
X180901625Y-100019950D01*
X180926337Y-99989837D01*
X180956450Y-99965125D01*
X180990804Y-99946762D01*
X181028082Y-99935454D01*
X181071276Y-99931200D01*
X181640724Y-99931200D01*
X181683918Y-99935454D01*
X181683918Y-99935454D01*
G37*
G36*
X180332480Y-99657960D02*
X179281680Y-99657960D01*
X179281680Y-99357160D01*
X180332480Y-99357160D01*
X180332480Y-99657960D01*
X180332480Y-99657960D01*
G37*
G36*
X168932480Y-99657960D02*
X167881680Y-99657960D01*
X167881680Y-99357160D01*
X168932480Y-99357160D01*
X168932480Y-99657960D01*
X168932480Y-99657960D01*
G37*
G36*
X183258918Y-98411454D02*
X183296196Y-98422762D01*
X183330550Y-98441125D01*
X183360663Y-98465837D01*
X183385375Y-98495950D01*
X183403738Y-98530304D01*
X183415046Y-98567582D01*
X183419300Y-98610776D01*
X183419300Y-99255224D01*
X183415046Y-99298418D01*
X183403738Y-99335696D01*
X183385375Y-99370050D01*
X183360663Y-99400163D01*
X183330550Y-99424875D01*
X183296196Y-99443238D01*
X183258918Y-99454546D01*
X183215724Y-99458800D01*
X182646276Y-99458800D01*
X182603082Y-99454546D01*
X182565804Y-99443238D01*
X182531450Y-99424875D01*
X182501337Y-99400163D01*
X182476625Y-99370050D01*
X182458262Y-99335696D01*
X182446954Y-99298418D01*
X182442700Y-99255224D01*
X182442700Y-98610776D01*
X182446954Y-98567582D01*
X182458262Y-98530304D01*
X182476625Y-98495950D01*
X182501337Y-98465837D01*
X182531450Y-98441125D01*
X182565804Y-98422762D01*
X182603082Y-98411454D01*
X182646276Y-98407200D01*
X183215724Y-98407200D01*
X183258918Y-98411454D01*
X183258918Y-98411454D01*
G37*
G36*
X181683918Y-98411454D02*
X181721196Y-98422762D01*
X181755550Y-98441125D01*
X181785663Y-98465837D01*
X181810375Y-98495950D01*
X181828738Y-98530304D01*
X181840046Y-98567582D01*
X181844300Y-98610776D01*
X181844300Y-99255224D01*
X181840046Y-99298418D01*
X181828738Y-99335696D01*
X181810375Y-99370050D01*
X181785663Y-99400163D01*
X181755550Y-99424875D01*
X181721196Y-99443238D01*
X181683918Y-99454546D01*
X181640724Y-99458800D01*
X181071276Y-99458800D01*
X181028082Y-99454546D01*
X180990804Y-99443238D01*
X180956450Y-99424875D01*
X180926337Y-99400163D01*
X180901625Y-99370050D01*
X180883262Y-99335696D01*
X180871954Y-99298418D01*
X180867700Y-99255224D01*
X180867700Y-98610776D01*
X180871954Y-98567582D01*
X180883262Y-98530304D01*
X180901625Y-98495950D01*
X180926337Y-98465837D01*
X180956450Y-98441125D01*
X180990804Y-98422762D01*
X181028082Y-98411454D01*
X181071276Y-98407200D01*
X181640724Y-98407200D01*
X181683918Y-98411454D01*
X181683918Y-98411454D01*
G37*
G36*
X180332480Y-99157960D02*
X179281680Y-99157960D01*
X179281680Y-98857160D01*
X180332480Y-98857160D01*
X180332480Y-99157960D01*
X180332480Y-99157960D01*
G37*
G36*
X168932480Y-99157960D02*
X167881680Y-99157960D01*
X167881680Y-98857160D01*
X168932480Y-98857160D01*
X168932480Y-99157960D01*
X168932480Y-99157960D01*
G37*
G36*
X168932480Y-98657960D02*
X167881680Y-98657960D01*
X167881680Y-98357160D01*
X168932480Y-98357160D01*
X168932480Y-98657960D01*
X168932480Y-98657960D01*
G37*
G36*
X180332480Y-98657960D02*
X179281680Y-98657960D01*
X179281680Y-98357160D01*
X180332480Y-98357160D01*
X180332480Y-98657960D01*
X180332480Y-98657960D01*
G37*
G36*
X168932480Y-98157960D02*
X167881680Y-98157960D01*
X167881680Y-97857160D01*
X168932480Y-97857160D01*
X168932480Y-98157960D01*
X168932480Y-98157960D01*
G37*
G36*
X180332480Y-98157960D02*
X179281680Y-98157960D01*
X179281680Y-97857160D01*
X180332480Y-97857160D01*
X180332480Y-98157960D01*
X180332480Y-98157960D01*
G37*
G36*
X181683918Y-97014454D02*
X181721196Y-97025762D01*
X181755550Y-97044125D01*
X181785663Y-97068837D01*
X181810375Y-97098950D01*
X181828738Y-97133304D01*
X181840046Y-97170582D01*
X181844300Y-97213776D01*
X181844300Y-97858224D01*
X181840046Y-97901418D01*
X181828738Y-97938696D01*
X181810375Y-97973050D01*
X181785663Y-98003163D01*
X181755550Y-98027875D01*
X181721196Y-98046238D01*
X181683918Y-98057546D01*
X181640724Y-98061800D01*
X181071276Y-98061800D01*
X181028082Y-98057546D01*
X180990804Y-98046238D01*
X180956450Y-98027875D01*
X180926337Y-98003163D01*
X180901625Y-97973050D01*
X180883262Y-97938696D01*
X180871954Y-97901418D01*
X180867700Y-97858224D01*
X180867700Y-97213776D01*
X180871954Y-97170582D01*
X180883262Y-97133304D01*
X180901625Y-97098950D01*
X180926337Y-97068837D01*
X180956450Y-97044125D01*
X180990804Y-97025762D01*
X181028082Y-97014454D01*
X181071276Y-97010200D01*
X181640724Y-97010200D01*
X181683918Y-97014454D01*
X181683918Y-97014454D01*
G37*
G36*
X183258918Y-97014454D02*
X183296196Y-97025762D01*
X183330550Y-97044125D01*
X183360663Y-97068837D01*
X183385375Y-97098950D01*
X183403738Y-97133304D01*
X183415046Y-97170582D01*
X183419300Y-97213776D01*
X183419300Y-97858224D01*
X183415046Y-97901418D01*
X183403738Y-97938696D01*
X183385375Y-97973050D01*
X183360663Y-98003163D01*
X183330550Y-98027875D01*
X183296196Y-98046238D01*
X183258918Y-98057546D01*
X183215724Y-98061800D01*
X182646276Y-98061800D01*
X182603082Y-98057546D01*
X182565804Y-98046238D01*
X182531450Y-98027875D01*
X182501337Y-98003163D01*
X182476625Y-97973050D01*
X182458262Y-97938696D01*
X182446954Y-97901418D01*
X182442700Y-97858224D01*
X182442700Y-97213776D01*
X182446954Y-97170582D01*
X182458262Y-97133304D01*
X182476625Y-97098950D01*
X182501337Y-97068837D01*
X182531450Y-97044125D01*
X182565804Y-97025762D01*
X182603082Y-97014454D01*
X182646276Y-97010200D01*
X183215724Y-97010200D01*
X183258918Y-97014454D01*
X183258918Y-97014454D01*
G37*
G36*
X163433418Y-96950454D02*
X163470696Y-96961762D01*
X163505050Y-96980125D01*
X163535163Y-97004837D01*
X163559875Y-97034950D01*
X163578238Y-97069304D01*
X163589546Y-97106582D01*
X163593800Y-97149776D01*
X163593800Y-97719224D01*
X163589546Y-97762418D01*
X163578238Y-97799696D01*
X163559875Y-97834050D01*
X163535163Y-97864163D01*
X163505050Y-97888875D01*
X163470696Y-97907238D01*
X163433418Y-97918546D01*
X163390224Y-97922800D01*
X162745776Y-97922800D01*
X162702582Y-97918546D01*
X162665304Y-97907238D01*
X162630950Y-97888875D01*
X162600837Y-97864163D01*
X162576125Y-97834050D01*
X162557762Y-97799696D01*
X162546454Y-97762418D01*
X162542200Y-97719224D01*
X162542200Y-97149776D01*
X162546454Y-97106582D01*
X162557762Y-97069304D01*
X162576125Y-97034950D01*
X162600837Y-97004837D01*
X162630950Y-96980125D01*
X162665304Y-96961762D01*
X162702582Y-96950454D01*
X162745776Y-96946200D01*
X163390224Y-96946200D01*
X163433418Y-96950454D01*
X163433418Y-96950454D01*
G37*
G36*
X164830418Y-96950454D02*
X164867696Y-96961762D01*
X164902050Y-96980125D01*
X164932163Y-97004837D01*
X164956875Y-97034950D01*
X164975238Y-97069304D01*
X164986546Y-97106582D01*
X164990800Y-97149776D01*
X164990800Y-97719224D01*
X164986546Y-97762418D01*
X164975238Y-97799696D01*
X164956875Y-97834050D01*
X164932163Y-97864163D01*
X164902050Y-97888875D01*
X164867696Y-97907238D01*
X164830418Y-97918546D01*
X164787224Y-97922800D01*
X164142776Y-97922800D01*
X164099582Y-97918546D01*
X164062304Y-97907238D01*
X164027950Y-97888875D01*
X163997837Y-97864163D01*
X163973125Y-97834050D01*
X163954762Y-97799696D01*
X163943454Y-97762418D01*
X163939200Y-97719224D01*
X163939200Y-97149776D01*
X163943454Y-97106582D01*
X163954762Y-97069304D01*
X163973125Y-97034950D01*
X163997837Y-97004837D01*
X164027950Y-96980125D01*
X164062304Y-96961762D01*
X164099582Y-96950454D01*
X164142776Y-96946200D01*
X164787224Y-96946200D01*
X164830418Y-96950454D01*
X164830418Y-96950454D01*
G37*
G36*
X166227418Y-96950454D02*
X166264696Y-96961762D01*
X166299050Y-96980125D01*
X166329163Y-97004837D01*
X166353875Y-97034950D01*
X166372238Y-97069304D01*
X166383546Y-97106582D01*
X166387800Y-97149776D01*
X166387800Y-97719224D01*
X166383546Y-97762418D01*
X166372238Y-97799696D01*
X166353875Y-97834050D01*
X166329163Y-97864163D01*
X166299050Y-97888875D01*
X166264696Y-97907238D01*
X166227418Y-97918546D01*
X166184224Y-97922800D01*
X165539776Y-97922800D01*
X165496582Y-97918546D01*
X165459304Y-97907238D01*
X165424950Y-97888875D01*
X165394837Y-97864163D01*
X165370125Y-97834050D01*
X165351762Y-97799696D01*
X165340454Y-97762418D01*
X165336200Y-97719224D01*
X165336200Y-97149776D01*
X165340454Y-97106582D01*
X165351762Y-97069304D01*
X165370125Y-97034950D01*
X165394837Y-97004837D01*
X165424950Y-96980125D01*
X165459304Y-96961762D01*
X165496582Y-96950454D01*
X165539776Y-96946200D01*
X166184224Y-96946200D01*
X166227418Y-96950454D01*
X166227418Y-96950454D01*
G37*
G36*
X168932480Y-97657960D02*
X167881680Y-97657960D01*
X167881680Y-97357160D01*
X168932480Y-97357160D01*
X168932480Y-97657960D01*
X168932480Y-97657960D01*
G37*
G36*
X180332480Y-97657960D02*
X179281680Y-97657960D01*
X179281680Y-97357160D01*
X180332480Y-97357160D01*
X180332480Y-97657960D01*
X180332480Y-97657960D01*
G37*
G36*
X150362800Y-97268800D02*
X143261200Y-97268800D01*
X143261200Y-89167200D01*
X150362800Y-89167200D01*
X150362800Y-97268800D01*
X150362800Y-97268800D01*
G37*
G36*
X180332480Y-97157960D02*
X179281680Y-97157960D01*
X179281680Y-96857160D01*
X180332480Y-96857160D01*
X180332480Y-97157960D01*
X180332480Y-97157960D01*
G37*
G36*
X168932480Y-97157960D02*
X167881680Y-97157960D01*
X167881680Y-96857160D01*
X168932480Y-96857160D01*
X168932480Y-97157960D01*
X168932480Y-97157960D01*
G37*
G36*
X183258918Y-95617454D02*
X183296196Y-95628762D01*
X183330550Y-95647125D01*
X183360663Y-95671837D01*
X183385375Y-95701950D01*
X183403738Y-95736304D01*
X183415046Y-95773582D01*
X183419300Y-95816776D01*
X183419300Y-96461224D01*
X183415046Y-96504418D01*
X183403738Y-96541696D01*
X183385375Y-96576050D01*
X183360663Y-96606163D01*
X183330550Y-96630875D01*
X183296196Y-96649238D01*
X183258918Y-96660546D01*
X183215724Y-96664800D01*
X182646276Y-96664800D01*
X182603082Y-96660546D01*
X182565804Y-96649238D01*
X182531450Y-96630875D01*
X182501337Y-96606163D01*
X182476625Y-96576050D01*
X182458262Y-96541696D01*
X182446954Y-96504418D01*
X182442700Y-96461224D01*
X182442700Y-95816776D01*
X182446954Y-95773582D01*
X182458262Y-95736304D01*
X182476625Y-95701950D01*
X182501337Y-95671837D01*
X182531450Y-95647125D01*
X182565804Y-95628762D01*
X182603082Y-95617454D01*
X182646276Y-95613200D01*
X183215724Y-95613200D01*
X183258918Y-95617454D01*
X183258918Y-95617454D01*
G37*
G36*
X181683918Y-95617454D02*
X181721196Y-95628762D01*
X181755550Y-95647125D01*
X181785663Y-95671837D01*
X181810375Y-95701950D01*
X181828738Y-95736304D01*
X181840046Y-95773582D01*
X181844300Y-95816776D01*
X181844300Y-96461224D01*
X181840046Y-96504418D01*
X181828738Y-96541696D01*
X181810375Y-96576050D01*
X181785663Y-96606163D01*
X181755550Y-96630875D01*
X181721196Y-96649238D01*
X181683918Y-96660546D01*
X181640724Y-96664800D01*
X181071276Y-96664800D01*
X181028082Y-96660546D01*
X180990804Y-96649238D01*
X180956450Y-96630875D01*
X180926337Y-96606163D01*
X180901625Y-96576050D01*
X180883262Y-96541696D01*
X180871954Y-96504418D01*
X180867700Y-96461224D01*
X180867700Y-95816776D01*
X180871954Y-95773582D01*
X180883262Y-95736304D01*
X180901625Y-95701950D01*
X180926337Y-95671837D01*
X180956450Y-95647125D01*
X180990804Y-95628762D01*
X181028082Y-95617454D01*
X181071276Y-95613200D01*
X181640724Y-95613200D01*
X181683918Y-95617454D01*
X181683918Y-95617454D01*
G37*
G36*
X180332480Y-96657960D02*
X179281680Y-96657960D01*
X179281680Y-96357160D01*
X180332480Y-96357160D01*
X180332480Y-96657960D01*
X180332480Y-96657960D01*
G37*
G36*
X168932480Y-96657960D02*
X167881680Y-96657960D01*
X167881680Y-96357160D01*
X168932480Y-96357160D01*
X168932480Y-96657960D01*
X168932480Y-96657960D01*
G37*
G36*
X163433418Y-95375454D02*
X163470696Y-95386762D01*
X163505050Y-95405125D01*
X163535163Y-95429837D01*
X163559875Y-95459950D01*
X163578238Y-95494304D01*
X163589546Y-95531582D01*
X163593800Y-95574776D01*
X163593800Y-96144224D01*
X163589546Y-96187418D01*
X163578238Y-96224696D01*
X163559875Y-96259050D01*
X163535163Y-96289163D01*
X163505050Y-96313875D01*
X163470696Y-96332238D01*
X163433418Y-96343546D01*
X163390224Y-96347800D01*
X162745776Y-96347800D01*
X162702582Y-96343546D01*
X162665304Y-96332238D01*
X162630950Y-96313875D01*
X162600837Y-96289163D01*
X162576125Y-96259050D01*
X162557762Y-96224696D01*
X162546454Y-96187418D01*
X162542200Y-96144224D01*
X162542200Y-95574776D01*
X162546454Y-95531582D01*
X162557762Y-95494304D01*
X162576125Y-95459950D01*
X162600837Y-95429837D01*
X162630950Y-95405125D01*
X162665304Y-95386762D01*
X162702582Y-95375454D01*
X162745776Y-95371200D01*
X163390224Y-95371200D01*
X163433418Y-95375454D01*
X163433418Y-95375454D01*
G37*
G36*
X166227418Y-95375454D02*
X166264696Y-95386762D01*
X166299050Y-95405125D01*
X166329163Y-95429837D01*
X166353875Y-95459950D01*
X166372238Y-95494304D01*
X166383546Y-95531582D01*
X166387800Y-95574776D01*
X166387800Y-96144224D01*
X166383546Y-96187418D01*
X166372238Y-96224696D01*
X166353875Y-96259050D01*
X166329163Y-96289163D01*
X166299050Y-96313875D01*
X166264696Y-96332238D01*
X166227418Y-96343546D01*
X166184224Y-96347800D01*
X165539776Y-96347800D01*
X165496582Y-96343546D01*
X165459304Y-96332238D01*
X165424950Y-96313875D01*
X165394837Y-96289163D01*
X165370125Y-96259050D01*
X165351762Y-96224696D01*
X165340454Y-96187418D01*
X165336200Y-96144224D01*
X165336200Y-95574776D01*
X165340454Y-95531582D01*
X165351762Y-95494304D01*
X165370125Y-95459950D01*
X165394837Y-95429837D01*
X165424950Y-95405125D01*
X165459304Y-95386762D01*
X165496582Y-95375454D01*
X165539776Y-95371200D01*
X166184224Y-95371200D01*
X166227418Y-95375454D01*
X166227418Y-95375454D01*
G37*
G36*
X164830418Y-95375454D02*
X164867696Y-95386762D01*
X164902050Y-95405125D01*
X164932163Y-95429837D01*
X164956875Y-95459950D01*
X164975238Y-95494304D01*
X164986546Y-95531582D01*
X164990800Y-95574776D01*
X164990800Y-96144224D01*
X164986546Y-96187418D01*
X164975238Y-96224696D01*
X164956875Y-96259050D01*
X164932163Y-96289163D01*
X164902050Y-96313875D01*
X164867696Y-96332238D01*
X164830418Y-96343546D01*
X164787224Y-96347800D01*
X164142776Y-96347800D01*
X164099582Y-96343546D01*
X164062304Y-96332238D01*
X164027950Y-96313875D01*
X163997837Y-96289163D01*
X163973125Y-96259050D01*
X163954762Y-96224696D01*
X163943454Y-96187418D01*
X163939200Y-96144224D01*
X163939200Y-95574776D01*
X163943454Y-95531582D01*
X163954762Y-95494304D01*
X163973125Y-95459950D01*
X163997837Y-95429837D01*
X164027950Y-95405125D01*
X164062304Y-95386762D01*
X164099582Y-95375454D01*
X164142776Y-95371200D01*
X164787224Y-95371200D01*
X164830418Y-95375454D01*
X164830418Y-95375454D01*
G37*
G36*
X180332480Y-96157960D02*
X179281680Y-96157960D01*
X179281680Y-95857160D01*
X180332480Y-95857160D01*
X180332480Y-96157960D01*
X180332480Y-96157960D01*
G37*
G36*
X168932480Y-96157960D02*
X167881680Y-96157960D01*
X167881680Y-95857160D01*
X168932480Y-95857160D01*
X168932480Y-96157960D01*
X168932480Y-96157960D01*
G37*
G36*
X162252800Y-95808800D02*
X157071200Y-95808800D01*
X157071200Y-90627200D01*
X162252800Y-90627200D01*
X162252800Y-95808800D01*
X162252800Y-95808800D01*
G37*
G36*
X136552800Y-95808800D02*
X131371200Y-95808800D01*
X131371200Y-90627200D01*
X136552800Y-90627200D01*
X136552800Y-95808800D01*
X136552800Y-95808800D01*
G37*
G36*
X180332480Y-95657960D02*
X179281680Y-95657960D01*
X179281680Y-95357160D01*
X180332480Y-95357160D01*
X180332480Y-95657960D01*
X180332480Y-95657960D01*
G37*
G36*
X168932480Y-95657960D02*
X167881680Y-95657960D01*
X167881680Y-95357160D01*
X168932480Y-95357160D01*
X168932480Y-95657960D01*
X168932480Y-95657960D01*
G37*
G36*
X183258918Y-94182354D02*
X183296196Y-94193662D01*
X183330550Y-94212025D01*
X183360663Y-94236737D01*
X183385375Y-94266850D01*
X183403738Y-94301204D01*
X183415046Y-94338482D01*
X183419300Y-94381676D01*
X183419300Y-95026124D01*
X183415046Y-95069318D01*
X183403738Y-95106596D01*
X183385375Y-95140950D01*
X183360663Y-95171063D01*
X183330550Y-95195775D01*
X183296196Y-95214138D01*
X183258918Y-95225446D01*
X183215724Y-95229700D01*
X182646276Y-95229700D01*
X182603082Y-95225446D01*
X182565804Y-95214138D01*
X182531450Y-95195775D01*
X182501337Y-95171063D01*
X182476625Y-95140950D01*
X182458262Y-95106596D01*
X182446954Y-95069318D01*
X182442700Y-95026124D01*
X182442700Y-94381676D01*
X182446954Y-94338482D01*
X182458262Y-94301204D01*
X182476625Y-94266850D01*
X182501337Y-94236737D01*
X182531450Y-94212025D01*
X182565804Y-94193662D01*
X182603082Y-94182354D01*
X182646276Y-94178100D01*
X183215724Y-94178100D01*
X183258918Y-94182354D01*
X183258918Y-94182354D01*
G37*
G36*
X181683918Y-94182354D02*
X181721196Y-94193662D01*
X181755550Y-94212025D01*
X181785663Y-94236737D01*
X181810375Y-94266850D01*
X181828738Y-94301204D01*
X181840046Y-94338482D01*
X181844300Y-94381676D01*
X181844300Y-95026124D01*
X181840046Y-95069318D01*
X181828738Y-95106596D01*
X181810375Y-95140950D01*
X181785663Y-95171063D01*
X181755550Y-95195775D01*
X181721196Y-95214138D01*
X181683918Y-95225446D01*
X181640724Y-95229700D01*
X181071276Y-95229700D01*
X181028082Y-95225446D01*
X180990804Y-95214138D01*
X180956450Y-95195775D01*
X180926337Y-95171063D01*
X180901625Y-95140950D01*
X180883262Y-95106596D01*
X180871954Y-95069318D01*
X180867700Y-95026124D01*
X180867700Y-94381676D01*
X180871954Y-94338482D01*
X180883262Y-94301204D01*
X180901625Y-94266850D01*
X180926337Y-94236737D01*
X180956450Y-94212025D01*
X180990804Y-94193662D01*
X181028082Y-94182354D01*
X181071276Y-94178100D01*
X181640724Y-94178100D01*
X181683918Y-94182354D01*
X181683918Y-94182354D01*
G37*
G36*
X180332480Y-95157960D02*
X179281680Y-95157960D01*
X179281680Y-94857160D01*
X180332480Y-94857160D01*
X180332480Y-95157960D01*
X180332480Y-95157960D01*
G37*
G36*
X168932480Y-95157960D02*
X167881680Y-95157960D01*
X167881680Y-94857160D01*
X168932480Y-94857160D01*
X168932480Y-95157960D01*
X168932480Y-95157960D01*
G37*
G36*
X168932480Y-94657960D02*
X167881680Y-94657960D01*
X167881680Y-94357160D01*
X168932480Y-94357160D01*
X168932480Y-94657960D01*
X168932480Y-94657960D01*
G37*
G36*
X180332480Y-94657960D02*
X179281680Y-94657960D01*
X179281680Y-94357160D01*
X180332480Y-94357160D01*
X180332480Y-94657960D01*
X180332480Y-94657960D01*
G37*
G36*
X168932480Y-94157960D02*
X167881680Y-94157960D01*
X167881680Y-93857160D01*
X168932480Y-93857160D01*
X168932480Y-94157960D01*
X168932480Y-94157960D01*
G37*
G36*
X180332480Y-94157960D02*
X179281680Y-94157960D01*
X179281680Y-93857160D01*
X180332480Y-93857160D01*
X180332480Y-94157960D01*
X180332480Y-94157960D01*
G37*
G36*
X168932480Y-93657960D02*
X167881680Y-93657960D01*
X167881680Y-93357160D01*
X168932480Y-93357160D01*
X168932480Y-93657960D01*
X168932480Y-93657960D01*
G37*
G36*
X180332480Y-93657960D02*
X179281680Y-93657960D01*
X179281680Y-93357160D01*
X180332480Y-93357160D01*
X180332480Y-93657960D01*
X180332480Y-93657960D01*
G37*
G36*
X180332480Y-93157960D02*
X179281680Y-93157960D01*
X179281680Y-92857160D01*
X180332480Y-92857160D01*
X180332480Y-93157960D01*
X180332480Y-93157960D01*
G37*
G36*
X168932480Y-93157960D02*
X167881680Y-93157960D01*
X167881680Y-92857160D01*
X168932480Y-92857160D01*
X168932480Y-93157960D01*
X168932480Y-93157960D01*
G37*
G36*
X168932480Y-92657960D02*
X167881680Y-92657960D01*
X167881680Y-92357160D01*
X168932480Y-92357160D01*
X168932480Y-92657960D01*
X168932480Y-92657960D01*
G37*
G36*
X180332480Y-92657960D02*
X179281680Y-92657960D01*
X179281680Y-92357160D01*
X180332480Y-92357160D01*
X180332480Y-92657960D01*
X180332480Y-92657960D01*
G37*
G36*
X168932480Y-92157960D02*
X167881680Y-92157960D01*
X167881680Y-91857160D01*
X168932480Y-91857160D01*
X168932480Y-92157960D01*
X168932480Y-92157960D01*
G37*
G36*
X180332480Y-92157960D02*
X179281680Y-92157960D01*
X179281680Y-91857160D01*
X180332480Y-91857160D01*
X180332480Y-92157960D01*
X180332480Y-92157960D01*
G37*
G36*
X178007480Y-90582960D02*
X177706680Y-90582960D01*
X177706680Y-89532160D01*
X178007480Y-89532160D01*
X178007480Y-90582960D01*
X178007480Y-90582960D01*
G37*
G36*
X177007480Y-90582960D02*
X176706680Y-90582960D01*
X176706680Y-89532160D01*
X177007480Y-89532160D01*
X177007480Y-90582960D01*
X177007480Y-90582960D01*
G37*
G36*
X176507480Y-90582960D02*
X176206680Y-90582960D01*
X176206680Y-89532160D01*
X176507480Y-89532160D01*
X176507480Y-90582960D01*
X176507480Y-90582960D01*
G37*
G36*
X177507480Y-90582960D02*
X177206680Y-90582960D01*
X177206680Y-89532160D01*
X177507480Y-89532160D01*
X177507480Y-90582960D01*
X177507480Y-90582960D01*
G37*
G36*
X175507480Y-90582960D02*
X175206680Y-90582960D01*
X175206680Y-89532160D01*
X175507480Y-89532160D01*
X175507480Y-90582960D01*
X175507480Y-90582960D01*
G37*
G36*
X174507480Y-90582960D02*
X174206680Y-90582960D01*
X174206680Y-89532160D01*
X174507480Y-89532160D01*
X174507480Y-90582960D01*
X174507480Y-90582960D01*
G37*
G36*
X176007480Y-90582960D02*
X175706680Y-90582960D01*
X175706680Y-89532160D01*
X176007480Y-89532160D01*
X176007480Y-90582960D01*
X176007480Y-90582960D01*
G37*
G36*
X175007480Y-90582960D02*
X174706680Y-90582960D01*
X174706680Y-89532160D01*
X175007480Y-89532160D01*
X175007480Y-90582960D01*
X175007480Y-90582960D01*
G37*
G36*
X173007480Y-90582960D02*
X172706680Y-90582960D01*
X172706680Y-89532160D01*
X173007480Y-89532160D01*
X173007480Y-90582960D01*
X173007480Y-90582960D01*
G37*
G36*
X172507480Y-90582960D02*
X172206680Y-90582960D01*
X172206680Y-89532160D01*
X172507480Y-89532160D01*
X172507480Y-90582960D01*
X172507480Y-90582960D01*
G37*
G36*
X170507480Y-90582960D02*
X170206680Y-90582960D01*
X170206680Y-89532160D01*
X170507480Y-89532160D01*
X170507480Y-90582960D01*
X170507480Y-90582960D01*
G37*
G36*
X171007480Y-90582960D02*
X170706680Y-90582960D01*
X170706680Y-89532160D01*
X171007480Y-89532160D01*
X171007480Y-90582960D01*
X171007480Y-90582960D01*
G37*
G36*
X172007480Y-90582960D02*
X171706680Y-90582960D01*
X171706680Y-89532160D01*
X172007480Y-89532160D01*
X172007480Y-90582960D01*
X172007480Y-90582960D01*
G37*
G36*
X171507480Y-90582960D02*
X171206680Y-90582960D01*
X171206680Y-89532160D01*
X171507480Y-89532160D01*
X171507480Y-90582960D01*
X171507480Y-90582960D01*
G37*
G36*
X173507480Y-90582960D02*
X173206680Y-90582960D01*
X173206680Y-89532160D01*
X173507480Y-89532160D01*
X173507480Y-90582960D01*
X173507480Y-90582960D01*
G37*
G36*
X174007480Y-90582960D02*
X173706680Y-90582960D01*
X173706680Y-89532160D01*
X174007480Y-89532160D01*
X174007480Y-90582960D01*
X174007480Y-90582960D01*
G37*
G36*
X182356418Y-88974954D02*
X182393696Y-88986262D01*
X182428050Y-89004625D01*
X182458163Y-89029337D01*
X182482875Y-89059450D01*
X182501238Y-89093804D01*
X182512546Y-89131082D01*
X182516800Y-89174276D01*
X182516800Y-89743724D01*
X182512546Y-89786918D01*
X182501238Y-89824196D01*
X182482875Y-89858550D01*
X182458163Y-89888663D01*
X182428050Y-89913375D01*
X182393696Y-89931738D01*
X182356418Y-89943046D01*
X182313224Y-89947300D01*
X181668776Y-89947300D01*
X181625582Y-89943046D01*
X181588304Y-89931738D01*
X181553950Y-89913375D01*
X181523837Y-89888663D01*
X181499125Y-89858550D01*
X181480762Y-89824196D01*
X181469454Y-89786918D01*
X181465200Y-89743724D01*
X181465200Y-89174276D01*
X181469454Y-89131082D01*
X181480762Y-89093804D01*
X181499125Y-89059450D01*
X181523837Y-89029337D01*
X181553950Y-89004625D01*
X181588304Y-88986262D01*
X181625582Y-88974954D01*
X181668776Y-88970700D01*
X182313224Y-88970700D01*
X182356418Y-88974954D01*
X182356418Y-88974954D01*
G37*
G36*
X180832418Y-88974954D02*
X180869696Y-88986262D01*
X180904050Y-89004625D01*
X180934163Y-89029337D01*
X180958875Y-89059450D01*
X180977238Y-89093804D01*
X180988546Y-89131082D01*
X180992800Y-89174276D01*
X180992800Y-89743724D01*
X180988546Y-89786918D01*
X180977238Y-89824196D01*
X180958875Y-89858550D01*
X180934163Y-89888663D01*
X180904050Y-89913375D01*
X180869696Y-89931738D01*
X180832418Y-89943046D01*
X180789224Y-89947300D01*
X180144776Y-89947300D01*
X180101582Y-89943046D01*
X180064304Y-89931738D01*
X180029950Y-89913375D01*
X179999837Y-89888663D01*
X179975125Y-89858550D01*
X179956762Y-89824196D01*
X179945454Y-89786918D01*
X179941200Y-89743724D01*
X179941200Y-89174276D01*
X179945454Y-89131082D01*
X179956762Y-89093804D01*
X179975125Y-89059450D01*
X179999837Y-89029337D01*
X180029950Y-89004625D01*
X180064304Y-88986262D01*
X180101582Y-88974954D01*
X180144776Y-88970700D01*
X180789224Y-88970700D01*
X180832418Y-88974954D01*
X180832418Y-88974954D01*
G37*
G36*
X179473800Y-89088800D02*
X178372200Y-89088800D01*
X178372200Y-87187200D01*
X179473800Y-87187200D01*
X179473800Y-89088800D01*
X179473800Y-89088800D01*
G37*
G36*
X176973800Y-89088800D02*
X175872200Y-89088800D01*
X175872200Y-87187200D01*
X176973800Y-87187200D01*
X176973800Y-89088800D01*
X176973800Y-89088800D01*
G37*
G36*
X173593418Y-87907954D02*
X173630696Y-87919262D01*
X173665050Y-87937625D01*
X173695163Y-87962337D01*
X173719875Y-87992450D01*
X173738238Y-88026804D01*
X173749546Y-88064082D01*
X173753800Y-88107276D01*
X173753800Y-88676724D01*
X173749546Y-88719918D01*
X173738238Y-88757196D01*
X173719875Y-88791550D01*
X173695163Y-88821663D01*
X173665050Y-88846375D01*
X173630696Y-88864738D01*
X173593418Y-88876046D01*
X173550224Y-88880300D01*
X172905776Y-88880300D01*
X172862582Y-88876046D01*
X172825304Y-88864738D01*
X172790950Y-88846375D01*
X172760837Y-88821663D01*
X172736125Y-88791550D01*
X172717762Y-88757196D01*
X172706454Y-88719918D01*
X172702200Y-88676724D01*
X172702200Y-88107276D01*
X172706454Y-88064082D01*
X172717762Y-88026804D01*
X172736125Y-87992450D01*
X172760837Y-87962337D01*
X172790950Y-87937625D01*
X172825304Y-87919262D01*
X172862582Y-87907954D01*
X172905776Y-87903700D01*
X173550224Y-87903700D01*
X173593418Y-87907954D01*
X173593418Y-87907954D01*
G37*
G36*
X182356418Y-87399954D02*
X182393696Y-87411262D01*
X182428050Y-87429625D01*
X182458163Y-87454337D01*
X182482875Y-87484450D01*
X182501238Y-87518804D01*
X182512546Y-87556082D01*
X182516800Y-87599276D01*
X182516800Y-88168724D01*
X182512546Y-88211918D01*
X182501238Y-88249196D01*
X182482875Y-88283550D01*
X182458163Y-88313663D01*
X182428050Y-88338375D01*
X182393696Y-88356738D01*
X182356418Y-88368046D01*
X182313224Y-88372300D01*
X181668776Y-88372300D01*
X181625582Y-88368046D01*
X181588304Y-88356738D01*
X181553950Y-88338375D01*
X181523837Y-88313663D01*
X181499125Y-88283550D01*
X181480762Y-88249196D01*
X181469454Y-88211918D01*
X181465200Y-88168724D01*
X181465200Y-87599276D01*
X181469454Y-87556082D01*
X181480762Y-87518804D01*
X181499125Y-87484450D01*
X181523837Y-87454337D01*
X181553950Y-87429625D01*
X181588304Y-87411262D01*
X181625582Y-87399954D01*
X181668776Y-87395700D01*
X182313224Y-87395700D01*
X182356418Y-87399954D01*
X182356418Y-87399954D01*
G37*
G36*
X180832418Y-87399954D02*
X180869696Y-87411262D01*
X180904050Y-87429625D01*
X180934163Y-87454337D01*
X180958875Y-87484450D01*
X180977238Y-87518804D01*
X180988546Y-87556082D01*
X180992800Y-87599276D01*
X180992800Y-88168724D01*
X180988546Y-88211918D01*
X180977238Y-88249196D01*
X180958875Y-88283550D01*
X180934163Y-88313663D01*
X180904050Y-88338375D01*
X180869696Y-88356738D01*
X180832418Y-88368046D01*
X180789224Y-88372300D01*
X180144776Y-88372300D01*
X180101582Y-88368046D01*
X180064304Y-88356738D01*
X180029950Y-88338375D01*
X179999837Y-88313663D01*
X179975125Y-88283550D01*
X179956762Y-88249196D01*
X179945454Y-88211918D01*
X179941200Y-88168724D01*
X179941200Y-87599276D01*
X179945454Y-87556082D01*
X179956762Y-87518804D01*
X179975125Y-87484450D01*
X179999837Y-87454337D01*
X180029950Y-87429625D01*
X180064304Y-87411262D01*
X180101582Y-87399954D01*
X180144776Y-87395700D01*
X180789224Y-87395700D01*
X180832418Y-87399954D01*
X180832418Y-87399954D01*
G37*
G36*
X173593418Y-86332954D02*
X173630696Y-86344262D01*
X173665050Y-86362625D01*
X173695163Y-86387337D01*
X173719875Y-86417450D01*
X173738238Y-86451804D01*
X173749546Y-86489082D01*
X173753800Y-86532276D01*
X173753800Y-87101724D01*
X173749546Y-87144918D01*
X173738238Y-87182196D01*
X173719875Y-87216550D01*
X173695163Y-87246663D01*
X173665050Y-87271375D01*
X173630696Y-87289738D01*
X173593418Y-87301046D01*
X173550224Y-87305300D01*
X172905776Y-87305300D01*
X172862582Y-87301046D01*
X172825304Y-87289738D01*
X172790950Y-87271375D01*
X172760837Y-87246663D01*
X172736125Y-87216550D01*
X172717762Y-87182196D01*
X172706454Y-87144918D01*
X172702200Y-87101724D01*
X172702200Y-86532276D01*
X172706454Y-86489082D01*
X172717762Y-86451804D01*
X172736125Y-86417450D01*
X172760837Y-86387337D01*
X172790950Y-86362625D01*
X172825304Y-86344262D01*
X172862582Y-86332954D01*
X172905776Y-86328700D01*
X173550224Y-86328700D01*
X173593418Y-86332954D01*
X173593418Y-86332954D01*
G37*
G36*
X180464918Y-85838454D02*
X180502196Y-85849762D01*
X180536550Y-85868125D01*
X180566663Y-85892837D01*
X180591375Y-85922950D01*
X180609738Y-85957304D01*
X180621046Y-85994582D01*
X180625300Y-86037776D01*
X180625300Y-86682224D01*
X180621046Y-86725418D01*
X180609738Y-86762696D01*
X180591375Y-86797050D01*
X180566663Y-86827163D01*
X180536550Y-86851875D01*
X180502196Y-86870238D01*
X180464918Y-86881546D01*
X180421724Y-86885800D01*
X179852276Y-86885800D01*
X179809082Y-86881546D01*
X179771804Y-86870238D01*
X179737450Y-86851875D01*
X179707337Y-86827163D01*
X179682625Y-86797050D01*
X179664262Y-86762696D01*
X179652954Y-86725418D01*
X179648700Y-86682224D01*
X179648700Y-86037776D01*
X179652954Y-85994582D01*
X179664262Y-85957304D01*
X179682625Y-85922950D01*
X179707337Y-85892837D01*
X179737450Y-85868125D01*
X179771804Y-85849762D01*
X179809082Y-85838454D01*
X179852276Y-85834200D01*
X180421724Y-85834200D01*
X180464918Y-85838454D01*
X180464918Y-85838454D01*
G37*
G36*
X178889918Y-85838454D02*
X178927196Y-85849762D01*
X178961550Y-85868125D01*
X178991663Y-85892837D01*
X179016375Y-85922950D01*
X179034738Y-85957304D01*
X179046046Y-85994582D01*
X179050300Y-86037776D01*
X179050300Y-86682224D01*
X179046046Y-86725418D01*
X179034738Y-86762696D01*
X179016375Y-86797050D01*
X178991663Y-86827163D01*
X178961550Y-86851875D01*
X178927196Y-86870238D01*
X178889918Y-86881546D01*
X178846724Y-86885800D01*
X178277276Y-86885800D01*
X178234082Y-86881546D01*
X178196804Y-86870238D01*
X178162450Y-86851875D01*
X178132337Y-86827163D01*
X178107625Y-86797050D01*
X178089262Y-86762696D01*
X178077954Y-86725418D01*
X178073700Y-86682224D01*
X178073700Y-86037776D01*
X178077954Y-85994582D01*
X178089262Y-85957304D01*
X178107625Y-85922950D01*
X178132337Y-85892837D01*
X178162450Y-85868125D01*
X178196804Y-85849762D01*
X178234082Y-85838454D01*
X178277276Y-85834200D01*
X178846724Y-85834200D01*
X178889918Y-85838454D01*
X178889918Y-85838454D01*
G37*
G36*
X176044918Y-85838454D02*
X176082196Y-85849762D01*
X176116550Y-85868125D01*
X176146663Y-85892837D01*
X176171375Y-85922950D01*
X176189738Y-85957304D01*
X176201046Y-85994582D01*
X176205300Y-86037776D01*
X176205300Y-86682224D01*
X176201046Y-86725418D01*
X176189738Y-86762696D01*
X176171375Y-86797050D01*
X176146663Y-86827163D01*
X176116550Y-86851875D01*
X176082196Y-86870238D01*
X176044918Y-86881546D01*
X176001724Y-86885800D01*
X175432276Y-86885800D01*
X175389082Y-86881546D01*
X175351804Y-86870238D01*
X175317450Y-86851875D01*
X175287337Y-86827163D01*
X175262625Y-86797050D01*
X175244262Y-86762696D01*
X175232954Y-86725418D01*
X175228700Y-86682224D01*
X175228700Y-86037776D01*
X175232954Y-85994582D01*
X175244262Y-85957304D01*
X175262625Y-85922950D01*
X175287337Y-85892837D01*
X175317450Y-85868125D01*
X175351804Y-85849762D01*
X175389082Y-85838454D01*
X175432276Y-85834200D01*
X176001724Y-85834200D01*
X176044918Y-85838454D01*
X176044918Y-85838454D01*
G37*
G36*
X177619918Y-85838454D02*
X177657196Y-85849762D01*
X177691550Y-85868125D01*
X177721663Y-85892837D01*
X177746375Y-85922950D01*
X177764738Y-85957304D01*
X177776046Y-85994582D01*
X177780300Y-86037776D01*
X177780300Y-86682224D01*
X177776046Y-86725418D01*
X177764738Y-86762696D01*
X177746375Y-86797050D01*
X177721663Y-86827163D01*
X177691550Y-86851875D01*
X177657196Y-86870238D01*
X177619918Y-86881546D01*
X177576724Y-86885800D01*
X177007276Y-86885800D01*
X176964082Y-86881546D01*
X176926804Y-86870238D01*
X176892450Y-86851875D01*
X176862337Y-86827163D01*
X176837625Y-86797050D01*
X176819262Y-86762696D01*
X176807954Y-86725418D01*
X176803700Y-86682224D01*
X176803700Y-86037776D01*
X176807954Y-85994582D01*
X176819262Y-85957304D01*
X176837625Y-85922950D01*
X176862337Y-85892837D01*
X176892450Y-85868125D01*
X176926804Y-85849762D01*
X176964082Y-85838454D01*
X177007276Y-85834200D01*
X177576724Y-85834200D01*
X177619918Y-85838454D01*
X177619918Y-85838454D01*
G37*
G36*
X188349754Y-83461817D02*
X188349756Y-83461818D01*
X188349757Y-83461818D01*
X188513689Y-83529721D01*
X188661227Y-83628303D01*
X188786697Y-83753773D01*
X188885279Y-83901311D01*
X188953183Y-84065246D01*
X188987800Y-84239279D01*
X188987800Y-84416721D01*
X188953183Y-84590754D01*
X188885279Y-84754689D01*
X188786697Y-84902227D01*
X188661227Y-85027697D01*
X188661224Y-85027699D01*
X188661223Y-85027700D01*
X188513689Y-85126279D01*
X188349757Y-85194182D01*
X188349756Y-85194182D01*
X188349754Y-85194183D01*
X188175721Y-85228800D01*
X187998279Y-85228800D01*
X187824246Y-85194183D01*
X187824244Y-85194182D01*
X187824243Y-85194182D01*
X187660311Y-85126279D01*
X187512777Y-85027700D01*
X187512776Y-85027699D01*
X187512773Y-85027697D01*
X187387303Y-84902227D01*
X187288721Y-84754689D01*
X187220817Y-84590754D01*
X187186200Y-84416721D01*
X187186200Y-84239279D01*
X187220817Y-84065246D01*
X187288721Y-83901311D01*
X187387303Y-83753773D01*
X187512773Y-83628303D01*
X187660311Y-83529721D01*
X187824243Y-83461818D01*
X187824244Y-83461818D01*
X187824246Y-83461817D01*
X187998279Y-83427200D01*
X188175721Y-83427200D01*
X188349754Y-83461817D01*
X188349754Y-83461817D01*
G37*
G36*
X183269754Y-83461817D02*
X183269756Y-83461818D01*
X183269757Y-83461818D01*
X183433689Y-83529721D01*
X183581227Y-83628303D01*
X183706697Y-83753773D01*
X183805279Y-83901311D01*
X183873183Y-84065246D01*
X183907800Y-84239279D01*
X183907800Y-84416721D01*
X183873183Y-84590754D01*
X183805279Y-84754689D01*
X183706697Y-84902227D01*
X183581227Y-85027697D01*
X183581224Y-85027699D01*
X183581223Y-85027700D01*
X183433689Y-85126279D01*
X183269757Y-85194182D01*
X183269756Y-85194182D01*
X183269754Y-85194183D01*
X183095721Y-85228800D01*
X182918279Y-85228800D01*
X182744246Y-85194183D01*
X182744244Y-85194182D01*
X182744243Y-85194182D01*
X182580311Y-85126279D01*
X182432777Y-85027700D01*
X182432776Y-85027699D01*
X182432773Y-85027697D01*
X182307303Y-84902227D01*
X182208721Y-84754689D01*
X182140817Y-84590754D01*
X182106200Y-84416721D01*
X182106200Y-84239279D01*
X182140817Y-84065246D01*
X182208721Y-83901311D01*
X182307303Y-83753773D01*
X182432773Y-83628303D01*
X182580311Y-83529721D01*
X182744243Y-83461818D01*
X182744244Y-83461818D01*
X182744246Y-83461817D01*
X182918279Y-83427200D01*
X183095721Y-83427200D01*
X183269754Y-83461817D01*
X183269754Y-83461817D01*
G37*
G36*
X180729754Y-83461817D02*
X180729756Y-83461818D01*
X180729757Y-83461818D01*
X180893689Y-83529721D01*
X181041227Y-83628303D01*
X181166697Y-83753773D01*
X181265279Y-83901311D01*
X181333183Y-84065246D01*
X181367800Y-84239279D01*
X181367800Y-84416721D01*
X181333183Y-84590754D01*
X181265279Y-84754689D01*
X181166697Y-84902227D01*
X181041227Y-85027697D01*
X181041224Y-85027699D01*
X181041223Y-85027700D01*
X180893689Y-85126279D01*
X180729757Y-85194182D01*
X180729756Y-85194182D01*
X180729754Y-85194183D01*
X180555721Y-85228800D01*
X180378279Y-85228800D01*
X180204246Y-85194183D01*
X180204244Y-85194182D01*
X180204243Y-85194182D01*
X180040311Y-85126279D01*
X179892777Y-85027700D01*
X179892776Y-85027699D01*
X179892773Y-85027697D01*
X179767303Y-84902227D01*
X179668721Y-84754689D01*
X179600817Y-84590754D01*
X179566200Y-84416721D01*
X179566200Y-84239279D01*
X179600817Y-84065246D01*
X179668721Y-83901311D01*
X179767303Y-83753773D01*
X179892773Y-83628303D01*
X180040311Y-83529721D01*
X180204243Y-83461818D01*
X180204244Y-83461818D01*
X180204246Y-83461817D01*
X180378279Y-83427200D01*
X180555721Y-83427200D01*
X180729754Y-83461817D01*
X180729754Y-83461817D01*
G37*
G36*
X178189754Y-83461817D02*
X178189756Y-83461818D01*
X178189757Y-83461818D01*
X178353689Y-83529721D01*
X178501227Y-83628303D01*
X178626697Y-83753773D01*
X178725279Y-83901311D01*
X178793183Y-84065246D01*
X178827800Y-84239279D01*
X178827800Y-84416721D01*
X178793183Y-84590754D01*
X178725279Y-84754689D01*
X178626697Y-84902227D01*
X178501227Y-85027697D01*
X178501224Y-85027699D01*
X178501223Y-85027700D01*
X178353689Y-85126279D01*
X178189757Y-85194182D01*
X178189756Y-85194182D01*
X178189754Y-85194183D01*
X178015721Y-85228800D01*
X177838279Y-85228800D01*
X177664246Y-85194183D01*
X177664244Y-85194182D01*
X177664243Y-85194182D01*
X177500311Y-85126279D01*
X177352777Y-85027700D01*
X177352776Y-85027699D01*
X177352773Y-85027697D01*
X177227303Y-84902227D01*
X177128721Y-84754689D01*
X177060817Y-84590754D01*
X177026200Y-84416721D01*
X177026200Y-84239279D01*
X177060817Y-84065246D01*
X177128721Y-83901311D01*
X177227303Y-83753773D01*
X177352773Y-83628303D01*
X177500311Y-83529721D01*
X177664243Y-83461818D01*
X177664244Y-83461818D01*
X177664246Y-83461817D01*
X177838279Y-83427200D01*
X178015721Y-83427200D01*
X178189754Y-83461817D01*
X178189754Y-83461817D01*
G37*
G36*
X185809754Y-83461817D02*
X185809756Y-83461818D01*
X185809757Y-83461818D01*
X185973689Y-83529721D01*
X186121227Y-83628303D01*
X186246697Y-83753773D01*
X186345279Y-83901311D01*
X186413183Y-84065246D01*
X186447800Y-84239279D01*
X186447800Y-84416721D01*
X186413183Y-84590754D01*
X186345279Y-84754689D01*
X186246697Y-84902227D01*
X186121227Y-85027697D01*
X186121224Y-85027699D01*
X186121223Y-85027700D01*
X185973689Y-85126279D01*
X185809757Y-85194182D01*
X185809756Y-85194182D01*
X185809754Y-85194183D01*
X185635721Y-85228800D01*
X185458279Y-85228800D01*
X185284246Y-85194183D01*
X185284244Y-85194182D01*
X185284243Y-85194182D01*
X185120311Y-85126279D01*
X184972777Y-85027700D01*
X184972776Y-85027699D01*
X184972773Y-85027697D01*
X184847303Y-84902227D01*
X184748721Y-84754689D01*
X184680817Y-84590754D01*
X184646200Y-84416721D01*
X184646200Y-84239279D01*
X184680817Y-84065246D01*
X184748721Y-83901311D01*
X184847303Y-83753773D01*
X184972773Y-83628303D01*
X185120311Y-83529721D01*
X185284243Y-83461818D01*
X185284244Y-83461818D01*
X185284246Y-83461817D01*
X185458279Y-83427200D01*
X185635721Y-83427200D01*
X185809754Y-83461817D01*
X185809754Y-83461817D01*
G37*
G36*
X188349754Y-80921817D02*
X188349756Y-80921818D01*
X188349757Y-80921818D01*
X188513689Y-80989721D01*
X188661227Y-81088303D01*
X188786697Y-81213773D01*
X188885279Y-81361311D01*
X188953183Y-81525246D01*
X188987800Y-81699279D01*
X188987800Y-81876721D01*
X188953183Y-82050754D01*
X188885279Y-82214689D01*
X188786697Y-82362227D01*
X188661227Y-82487697D01*
X188661224Y-82487699D01*
X188661223Y-82487700D01*
X188513689Y-82586279D01*
X188349757Y-82654182D01*
X188349756Y-82654182D01*
X188349754Y-82654183D01*
X188175721Y-82688800D01*
X187998279Y-82688800D01*
X187824246Y-82654183D01*
X187824244Y-82654182D01*
X187824243Y-82654182D01*
X187660311Y-82586279D01*
X187512777Y-82487700D01*
X187512776Y-82487699D01*
X187512773Y-82487697D01*
X187387303Y-82362227D01*
X187288721Y-82214689D01*
X187220817Y-82050754D01*
X187186200Y-81876721D01*
X187186200Y-81699279D01*
X187220817Y-81525246D01*
X187288721Y-81361311D01*
X187387303Y-81213773D01*
X187512773Y-81088303D01*
X187660311Y-80989721D01*
X187824243Y-80921818D01*
X187824244Y-80921818D01*
X187824246Y-80921817D01*
X187998279Y-80887200D01*
X188175721Y-80887200D01*
X188349754Y-80921817D01*
X188349754Y-80921817D01*
G37*
G36*
X178189754Y-80921817D02*
X178189756Y-80921818D01*
X178189757Y-80921818D01*
X178353689Y-80989721D01*
X178501227Y-81088303D01*
X178626697Y-81213773D01*
X178725279Y-81361311D01*
X178793183Y-81525246D01*
X178827800Y-81699279D01*
X178827800Y-81876721D01*
X178793183Y-82050754D01*
X178725279Y-82214689D01*
X178626697Y-82362227D01*
X178501227Y-82487697D01*
X178501224Y-82487699D01*
X178501223Y-82487700D01*
X178353689Y-82586279D01*
X178189757Y-82654182D01*
X178189756Y-82654182D01*
X178189754Y-82654183D01*
X178015721Y-82688800D01*
X177838279Y-82688800D01*
X177664246Y-82654183D01*
X177664244Y-82654182D01*
X177664243Y-82654182D01*
X177500311Y-82586279D01*
X177352777Y-82487700D01*
X177352776Y-82487699D01*
X177352773Y-82487697D01*
X177227303Y-82362227D01*
X177128721Y-82214689D01*
X177060817Y-82050754D01*
X177026200Y-81876721D01*
X177026200Y-81699279D01*
X177060817Y-81525246D01*
X177128721Y-81361311D01*
X177227303Y-81213773D01*
X177352773Y-81088303D01*
X177500311Y-80989721D01*
X177664243Y-80921818D01*
X177664244Y-80921818D01*
X177664246Y-80921817D01*
X177838279Y-80887200D01*
X178015721Y-80887200D01*
X178189754Y-80921817D01*
X178189754Y-80921817D01*
G37*
G36*
X180729754Y-80921817D02*
X180729756Y-80921818D01*
X180729757Y-80921818D01*
X180893689Y-80989721D01*
X181041227Y-81088303D01*
X181166697Y-81213773D01*
X181265279Y-81361311D01*
X181333183Y-81525246D01*
X181367800Y-81699279D01*
X181367800Y-81876721D01*
X181333183Y-82050754D01*
X181265279Y-82214689D01*
X181166697Y-82362227D01*
X181041227Y-82487697D01*
X181041224Y-82487699D01*
X181041223Y-82487700D01*
X180893689Y-82586279D01*
X180729757Y-82654182D01*
X180729756Y-82654182D01*
X180729754Y-82654183D01*
X180555721Y-82688800D01*
X180378279Y-82688800D01*
X180204246Y-82654183D01*
X180204244Y-82654182D01*
X180204243Y-82654182D01*
X180040311Y-82586279D01*
X179892777Y-82487700D01*
X179892776Y-82487699D01*
X179892773Y-82487697D01*
X179767303Y-82362227D01*
X179668721Y-82214689D01*
X179600817Y-82050754D01*
X179566200Y-81876721D01*
X179566200Y-81699279D01*
X179600817Y-81525246D01*
X179668721Y-81361311D01*
X179767303Y-81213773D01*
X179892773Y-81088303D01*
X180040311Y-80989721D01*
X180204243Y-80921818D01*
X180204244Y-80921818D01*
X180204246Y-80921817D01*
X180378279Y-80887200D01*
X180555721Y-80887200D01*
X180729754Y-80921817D01*
X180729754Y-80921817D01*
G37*
G36*
X183269754Y-80921817D02*
X183269756Y-80921818D01*
X183269757Y-80921818D01*
X183433689Y-80989721D01*
X183581227Y-81088303D01*
X183706697Y-81213773D01*
X183805279Y-81361311D01*
X183873183Y-81525246D01*
X183907800Y-81699279D01*
X183907800Y-81876721D01*
X183873183Y-82050754D01*
X183805279Y-82214689D01*
X183706697Y-82362227D01*
X183581227Y-82487697D01*
X183581224Y-82487699D01*
X183581223Y-82487700D01*
X183433689Y-82586279D01*
X183269757Y-82654182D01*
X183269756Y-82654182D01*
X183269754Y-82654183D01*
X183095721Y-82688800D01*
X182918279Y-82688800D01*
X182744246Y-82654183D01*
X182744244Y-82654182D01*
X182744243Y-82654182D01*
X182580311Y-82586279D01*
X182432777Y-82487700D01*
X182432776Y-82487699D01*
X182432773Y-82487697D01*
X182307303Y-82362227D01*
X182208721Y-82214689D01*
X182140817Y-82050754D01*
X182106200Y-81876721D01*
X182106200Y-81699279D01*
X182140817Y-81525246D01*
X182208721Y-81361311D01*
X182307303Y-81213773D01*
X182432773Y-81088303D01*
X182580311Y-80989721D01*
X182744243Y-80921818D01*
X182744244Y-80921818D01*
X182744246Y-80921817D01*
X182918279Y-80887200D01*
X183095721Y-80887200D01*
X183269754Y-80921817D01*
X183269754Y-80921817D01*
G37*
G36*
X185809754Y-80921817D02*
X185809756Y-80921818D01*
X185809757Y-80921818D01*
X185973689Y-80989721D01*
X186121227Y-81088303D01*
X186246697Y-81213773D01*
X186345279Y-81361311D01*
X186413183Y-81525246D01*
X186447800Y-81699279D01*
X186447800Y-81876721D01*
X186413183Y-82050754D01*
X186345279Y-82214689D01*
X186246697Y-82362227D01*
X186121227Y-82487697D01*
X186121224Y-82487699D01*
X186121223Y-82487700D01*
X185973689Y-82586279D01*
X185809757Y-82654182D01*
X185809756Y-82654182D01*
X185809754Y-82654183D01*
X185635721Y-82688800D01*
X185458279Y-82688800D01*
X185284246Y-82654183D01*
X185284244Y-82654182D01*
X185284243Y-82654182D01*
X185120311Y-82586279D01*
X184972777Y-82487700D01*
X184972776Y-82487699D01*
X184972773Y-82487697D01*
X184847303Y-82362227D01*
X184748721Y-82214689D01*
X184680817Y-82050754D01*
X184646200Y-81876721D01*
X184646200Y-81699279D01*
X184680817Y-81525246D01*
X184748721Y-81361311D01*
X184847303Y-81213773D01*
X184972773Y-81088303D01*
X185120311Y-80989721D01*
X185284243Y-80921818D01*
X185284244Y-80921818D01*
X185284246Y-80921817D01*
X185458279Y-80887200D01*
X185635721Y-80887200D01*
X185809754Y-80921817D01*
X185809754Y-80921817D01*
G37*
M02*
