G04 #@! TF.GenerationSoftware,KiCad,Pcbnew,5.0.2+dfsg1-1~bpo9+1*
G04 #@! TF.CreationDate,2019-04-08T01:26:04+03:00*
G04 #@! TF.ProjectId,kicad,6b696361-642e-46b6-9963-61645f706362,rev?*
G04 #@! TF.SameCoordinates,Original*
G04 #@! TF.FileFunction,Legend,Top*
G04 #@! TF.FilePolarity,Positive*
%FSLAX46Y46*%
G04 Gerber Fmt 4.6, Leading zero omitted, Abs format (unit mm)*
G04 Created by KiCad (PCBNEW 5.0.2+dfsg1-1~bpo9+1) date Mon 08 Apr 2019 01:26:04 AM MSK*
%MOMM*%
%LPD*%
G01*
G04 APERTURE LIST*
%ADD10C,0.250000*%
%ADD11C,0.300000*%
%ADD12C,0.120000*%
%ADD13R,0.900800X0.700800*%
G04 APERTURE END LIST*
D10*
X149923166Y-95602500D02*
X149839833Y-95685833D01*
X149589833Y-95769166D01*
X149423166Y-95769166D01*
X149173166Y-95685833D01*
X149006500Y-95519166D01*
X148923166Y-95352500D01*
X148839833Y-95019166D01*
X148839833Y-94769166D01*
X148923166Y-94435833D01*
X149006500Y-94269166D01*
X149173166Y-94102500D01*
X149423166Y-94019166D01*
X149589833Y-94019166D01*
X149839833Y-94102500D01*
X149923166Y-94185833D01*
X150423166Y-94019166D02*
X151423166Y-94019166D01*
X150923166Y-95769166D02*
X150923166Y-94019166D01*
X152339833Y-94019166D02*
X152673166Y-94019166D01*
X152839833Y-94102500D01*
X153006500Y-94269166D01*
X153089833Y-94602500D01*
X153089833Y-95185833D01*
X153006500Y-95519166D01*
X152839833Y-95685833D01*
X152673166Y-95769166D01*
X152339833Y-95769166D01*
X152173166Y-95685833D01*
X152006500Y-95519166D01*
X151923166Y-95185833D01*
X151923166Y-94602500D01*
X152006500Y-94269166D01*
X152173166Y-94102500D01*
X152339833Y-94019166D01*
X149673166Y-101519166D02*
X149673166Y-100602500D01*
X149589833Y-100435833D01*
X149423166Y-100352500D01*
X149089833Y-100352500D01*
X148923166Y-100435833D01*
X149673166Y-101435833D02*
X149506500Y-101519166D01*
X149089833Y-101519166D01*
X148923166Y-101435833D01*
X148839833Y-101269166D01*
X148839833Y-101102500D01*
X148923166Y-100935833D01*
X149089833Y-100852500D01*
X149506500Y-100852500D01*
X149673166Y-100769166D01*
X150506500Y-101519166D02*
X150506500Y-99769166D01*
X150673166Y-100852500D02*
X151173166Y-101519166D01*
X151173166Y-100352500D02*
X150506500Y-101019166D01*
X153006500Y-100685833D02*
X152923166Y-100602500D01*
X152756500Y-100519166D01*
X152589833Y-100519166D01*
X152423166Y-100602500D01*
X152339833Y-100685833D01*
X152256500Y-100852500D01*
X152256500Y-101019166D01*
X152339833Y-101185833D01*
X152423166Y-101269166D01*
X152589833Y-101352500D01*
X152756500Y-101352500D01*
X152923166Y-101269166D01*
X153006500Y-101185833D01*
X153006500Y-100519166D02*
X153006500Y-101185833D01*
X153089833Y-101269166D01*
X153173166Y-101269166D01*
X153339833Y-101185833D01*
X153423166Y-101019166D01*
X153423166Y-100602500D01*
X153256500Y-100352500D01*
X153006500Y-100185833D01*
X152673166Y-100102500D01*
X152339833Y-100185833D01*
X152089833Y-100352500D01*
X151923166Y-100602500D01*
X151839833Y-100935833D01*
X151923166Y-101269166D01*
X152089833Y-101519166D01*
X152339833Y-101685833D01*
X152673166Y-101769166D01*
X153006500Y-101685833D01*
X153256500Y-101519166D01*
X154923166Y-101435833D02*
X154756500Y-101519166D01*
X154423166Y-101519166D01*
X154256500Y-101435833D01*
X154173166Y-101352500D01*
X154089833Y-101185833D01*
X154089833Y-100685833D01*
X154173166Y-100519166D01*
X154256500Y-100435833D01*
X154423166Y-100352500D01*
X154756500Y-100352500D01*
X154923166Y-100435833D01*
X155923166Y-101519166D02*
X155756500Y-101435833D01*
X155673166Y-101352500D01*
X155589833Y-101185833D01*
X155589833Y-100685833D01*
X155673166Y-100519166D01*
X155756500Y-100435833D01*
X155923166Y-100352500D01*
X156173166Y-100352500D01*
X156339833Y-100435833D01*
X156423166Y-100519166D01*
X156506500Y-100685833D01*
X156506500Y-101185833D01*
X156423166Y-101352500D01*
X156339833Y-101435833D01*
X156173166Y-101519166D01*
X155923166Y-101519166D01*
X157256500Y-100352500D02*
X157256500Y-102102500D01*
X157256500Y-100435833D02*
X157423166Y-100352500D01*
X157756500Y-100352500D01*
X157923166Y-100435833D01*
X158006500Y-100519166D01*
X158089833Y-100685833D01*
X158089833Y-101185833D01*
X158006500Y-101352500D01*
X157923166Y-101435833D01*
X157756500Y-101519166D01*
X157423166Y-101519166D01*
X157256500Y-101435833D01*
X158589833Y-100352500D02*
X159256500Y-100352500D01*
X158839833Y-99769166D02*
X158839833Y-101269166D01*
X158923166Y-101435833D01*
X159089833Y-101519166D01*
X159256500Y-101519166D01*
X160506500Y-101435833D02*
X160339833Y-101519166D01*
X160006500Y-101519166D01*
X159839833Y-101435833D01*
X159756500Y-101269166D01*
X159756500Y-100602500D01*
X159839833Y-100435833D01*
X160006500Y-100352500D01*
X160339833Y-100352500D01*
X160506500Y-100435833D01*
X160589833Y-100602500D01*
X160589833Y-100769166D01*
X159756500Y-100935833D01*
X161339833Y-101519166D02*
X161339833Y-100352500D01*
X161339833Y-100685833D02*
X161423166Y-100519166D01*
X161506500Y-100435833D01*
X161673166Y-100352500D01*
X161839833Y-100352500D01*
X163089833Y-101435833D02*
X162923166Y-101519166D01*
X162589833Y-101519166D01*
X162423166Y-101435833D01*
X162339833Y-101269166D01*
X162339833Y-100602500D01*
X162423166Y-100435833D01*
X162589833Y-100352500D01*
X162923166Y-100352500D01*
X163089833Y-100435833D01*
X163173166Y-100602500D01*
X163173166Y-100769166D01*
X162339833Y-100935833D01*
X163756500Y-101519166D02*
X164673166Y-100352500D01*
X163756500Y-100352500D02*
X164673166Y-101519166D01*
X165339833Y-100352500D02*
X165339833Y-102102500D01*
X165339833Y-100435833D02*
X165506500Y-100352500D01*
X165839833Y-100352500D01*
X166006500Y-100435833D01*
X166089833Y-100519166D01*
X166173166Y-100685833D01*
X166173166Y-101185833D01*
X166089833Y-101352500D01*
X166006500Y-101435833D01*
X165839833Y-101519166D01*
X165506500Y-101519166D01*
X165339833Y-101435833D01*
X166923166Y-101519166D02*
X166923166Y-100352500D01*
X166923166Y-100685833D02*
X167006500Y-100519166D01*
X167089833Y-100435833D01*
X167256500Y-100352500D01*
X167423166Y-100352500D01*
X168673166Y-101435833D02*
X168506500Y-101519166D01*
X168173166Y-101519166D01*
X168006500Y-101435833D01*
X167923166Y-101269166D01*
X167923166Y-100602500D01*
X168006500Y-100435833D01*
X168173166Y-100352500D01*
X168506500Y-100352500D01*
X168673166Y-100435833D01*
X168756500Y-100602500D01*
X168756500Y-100769166D01*
X167923166Y-100935833D01*
X169423166Y-101435833D02*
X169589833Y-101519166D01*
X169923166Y-101519166D01*
X170089833Y-101435833D01*
X170173166Y-101269166D01*
X170173166Y-101185833D01*
X170089833Y-101019166D01*
X169923166Y-100935833D01*
X169673166Y-100935833D01*
X169506500Y-100852500D01*
X169423166Y-100685833D01*
X169423166Y-100602500D01*
X169506500Y-100435833D01*
X169673166Y-100352500D01*
X169923166Y-100352500D01*
X170089833Y-100435833D01*
X170839833Y-101435833D02*
X171006500Y-101519166D01*
X171339833Y-101519166D01*
X171506500Y-101435833D01*
X171589833Y-101269166D01*
X171589833Y-101185833D01*
X171506500Y-101019166D01*
X171339833Y-100935833D01*
X171089833Y-100935833D01*
X170923166Y-100852500D01*
X170839833Y-100685833D01*
X170839833Y-100602500D01*
X170923166Y-100435833D01*
X171089833Y-100352500D01*
X171339833Y-100352500D01*
X171506500Y-100435833D01*
X172339833Y-101352500D02*
X172423166Y-101435833D01*
X172339833Y-101519166D01*
X172256500Y-101435833D01*
X172339833Y-101352500D01*
X172339833Y-101519166D01*
X173923166Y-101435833D02*
X173756500Y-101519166D01*
X173423166Y-101519166D01*
X173256500Y-101435833D01*
X173173166Y-101352500D01*
X173089833Y-101185833D01*
X173089833Y-100685833D01*
X173173166Y-100519166D01*
X173256500Y-100435833D01*
X173423166Y-100352500D01*
X173756500Y-100352500D01*
X173923166Y-100435833D01*
X174923166Y-101519166D02*
X174756500Y-101435833D01*
X174673166Y-101352500D01*
X174589833Y-101185833D01*
X174589833Y-100685833D01*
X174673166Y-100519166D01*
X174756500Y-100435833D01*
X174923166Y-100352500D01*
X175173166Y-100352500D01*
X175339833Y-100435833D01*
X175423166Y-100519166D01*
X175506500Y-100685833D01*
X175506500Y-101185833D01*
X175423166Y-101352500D01*
X175339833Y-101435833D01*
X175173166Y-101519166D01*
X174923166Y-101519166D01*
X176256500Y-101519166D02*
X176256500Y-100352500D01*
X176256500Y-100519166D02*
X176339833Y-100435833D01*
X176506500Y-100352500D01*
X176756500Y-100352500D01*
X176923166Y-100435833D01*
X177006500Y-100602500D01*
X177006500Y-101519166D01*
X177006500Y-100602500D02*
X177089833Y-100435833D01*
X177256500Y-100352500D01*
X177506500Y-100352500D01*
X177673166Y-100435833D01*
X177756500Y-100602500D01*
X177756500Y-101519166D01*
X148923166Y-103727500D02*
X150256500Y-103727500D01*
X149589833Y-104394166D02*
X149589833Y-103060833D01*
X150923166Y-102644166D02*
X152089833Y-102644166D01*
X151339833Y-104394166D01*
X154173166Y-104394166D02*
X154506500Y-104394166D01*
X154673166Y-104310833D01*
X154756500Y-104227500D01*
X154923166Y-103977500D01*
X155006500Y-103644166D01*
X155006500Y-102977500D01*
X154923166Y-102810833D01*
X154839833Y-102727500D01*
X154673166Y-102644166D01*
X154339833Y-102644166D01*
X154173166Y-102727500D01*
X154089833Y-102810833D01*
X154006500Y-102977500D01*
X154006500Y-103394166D01*
X154089833Y-103560833D01*
X154173166Y-103644166D01*
X154339833Y-103727500D01*
X154673166Y-103727500D01*
X154839833Y-103644166D01*
X154923166Y-103560833D01*
X155006500Y-103394166D01*
X156673166Y-104394166D02*
X155673166Y-104394166D01*
X156173166Y-104394166D02*
X156173166Y-102644166D01*
X156006500Y-102894166D01*
X155839833Y-103060833D01*
X155673166Y-103144166D01*
X158256500Y-102644166D02*
X157423166Y-102644166D01*
X157339833Y-103477500D01*
X157423166Y-103394166D01*
X157589833Y-103310833D01*
X158006500Y-103310833D01*
X158173166Y-103394166D01*
X158256500Y-103477500D01*
X158339833Y-103644166D01*
X158339833Y-104060833D01*
X158256500Y-104227500D01*
X158173166Y-104310833D01*
X158006500Y-104394166D01*
X157589833Y-104394166D01*
X157423166Y-104310833D01*
X157339833Y-104227500D01*
X160339833Y-102810833D02*
X160423166Y-102727500D01*
X160589833Y-102644166D01*
X161006500Y-102644166D01*
X161173166Y-102727500D01*
X161256500Y-102810833D01*
X161339833Y-102977500D01*
X161339833Y-103144166D01*
X161256500Y-103394166D01*
X160256500Y-104394166D01*
X161339833Y-104394166D01*
X162839833Y-102644166D02*
X162506500Y-102644166D01*
X162339833Y-102727500D01*
X162256500Y-102810833D01*
X162089833Y-103060833D01*
X162006500Y-103394166D01*
X162006500Y-104060833D01*
X162089833Y-104227500D01*
X162173166Y-104310833D01*
X162339833Y-104394166D01*
X162673166Y-104394166D01*
X162839833Y-104310833D01*
X162923166Y-104227500D01*
X163006500Y-104060833D01*
X163006500Y-103644166D01*
X162923166Y-103477500D01*
X162839833Y-103394166D01*
X162673166Y-103310833D01*
X162339833Y-103310833D01*
X162173166Y-103394166D01*
X162089833Y-103477500D01*
X162006500Y-103644166D01*
X164673166Y-104394166D02*
X163673166Y-104394166D01*
X164173166Y-104394166D02*
X164173166Y-102644166D01*
X164006500Y-102894166D01*
X163839833Y-103060833D01*
X163673166Y-103144166D01*
X165423166Y-103727500D02*
X166756500Y-103727500D01*
X167423166Y-102644166D02*
X168589833Y-102644166D01*
X167839833Y-104394166D01*
X169089833Y-102644166D02*
X170256500Y-102644166D01*
X169506500Y-104394166D01*
X170923166Y-103727500D02*
X172256500Y-103727500D01*
X173423166Y-102644166D02*
X173589833Y-102644166D01*
X173756500Y-102727500D01*
X173839833Y-102810833D01*
X173923166Y-102977500D01*
X174006500Y-103310833D01*
X174006500Y-103727500D01*
X173923166Y-104060833D01*
X173839833Y-104227500D01*
X173756500Y-104310833D01*
X173589833Y-104394166D01*
X173423166Y-104394166D01*
X173256500Y-104310833D01*
X173173166Y-104227500D01*
X173089833Y-104060833D01*
X173006500Y-103727500D01*
X173006500Y-103310833D01*
X173089833Y-102977500D01*
X173173166Y-102810833D01*
X173256500Y-102727500D01*
X173423166Y-102644166D01*
X175506500Y-102644166D02*
X175173166Y-102644166D01*
X175006500Y-102727500D01*
X174923166Y-102810833D01*
X174756500Y-103060833D01*
X174673166Y-103394166D01*
X174673166Y-104060833D01*
X174756500Y-104227500D01*
X174839833Y-104310833D01*
X175006500Y-104394166D01*
X175339833Y-104394166D01*
X175506500Y-104310833D01*
X175589833Y-104227500D01*
X175673166Y-104060833D01*
X175673166Y-103644166D01*
X175589833Y-103477500D01*
X175506500Y-103394166D01*
X175339833Y-103310833D01*
X175006500Y-103310833D01*
X174839833Y-103394166D01*
X174756500Y-103477500D01*
X174673166Y-103644166D01*
D11*
X149015190Y-91416666D02*
X150205666Y-91416666D01*
X148777095Y-92130952D02*
X149610428Y-89630952D01*
X150443761Y-92130952D01*
X151277095Y-90464285D02*
X151277095Y-92130952D01*
X151277095Y-90702380D02*
X151396142Y-90583333D01*
X151634238Y-90464285D01*
X151991380Y-90464285D01*
X152229476Y-90583333D01*
X152348523Y-90821428D01*
X152348523Y-92130952D01*
X154610428Y-92130952D02*
X154610428Y-89630952D01*
X154610428Y-92011904D02*
X154372333Y-92130952D01*
X153896142Y-92130952D01*
X153658047Y-92011904D01*
X153539000Y-91892857D01*
X153419952Y-91654761D01*
X153419952Y-90940476D01*
X153539000Y-90702380D01*
X153658047Y-90583333D01*
X153896142Y-90464285D01*
X154372333Y-90464285D01*
X154610428Y-90583333D01*
X155800904Y-92130952D02*
X155800904Y-90464285D01*
X155800904Y-90940476D02*
X155919952Y-90702380D01*
X156039000Y-90583333D01*
X156277095Y-90464285D01*
X156515190Y-90464285D01*
X158300904Y-92011904D02*
X158062809Y-92130952D01*
X157586619Y-92130952D01*
X157348523Y-92011904D01*
X157229476Y-91773809D01*
X157229476Y-90821428D01*
X157348523Y-90583333D01*
X157586619Y-90464285D01*
X158062809Y-90464285D01*
X158300904Y-90583333D01*
X158419952Y-90821428D01*
X158419952Y-91059523D01*
X157229476Y-91297619D01*
X159491380Y-92130952D02*
X159491380Y-90464285D01*
X159491380Y-89630952D02*
X159372333Y-89750000D01*
X159491380Y-89869047D01*
X159610428Y-89750000D01*
X159491380Y-89630952D01*
X159491380Y-89869047D01*
X162586619Y-92130952D02*
X162586619Y-89630952D01*
X164015190Y-92130952D02*
X162943761Y-90702380D01*
X164015190Y-89630952D02*
X162586619Y-91059523D01*
X165443761Y-92130952D02*
X165205666Y-92011904D01*
X165086619Y-91892857D01*
X164967571Y-91654761D01*
X164967571Y-90940476D01*
X165086619Y-90702380D01*
X165205666Y-90583333D01*
X165443761Y-90464285D01*
X165800904Y-90464285D01*
X166039000Y-90583333D01*
X166158047Y-90702380D01*
X166277095Y-90940476D01*
X166277095Y-91654761D01*
X166158047Y-91892857D01*
X166039000Y-92011904D01*
X165800904Y-92130952D01*
X165443761Y-92130952D01*
X167348523Y-92130952D02*
X167348523Y-90464285D01*
X167348523Y-90940476D02*
X167467571Y-90702380D01*
X167586619Y-90583333D01*
X167824714Y-90464285D01*
X168062809Y-90464285D01*
X168896142Y-92130952D02*
X168896142Y-90464285D01*
X168896142Y-89630952D02*
X168777095Y-89750000D01*
X168896142Y-89869047D01*
X169015190Y-89750000D01*
X168896142Y-89630952D01*
X168896142Y-89869047D01*
X171158047Y-90464285D02*
X171158047Y-92488095D01*
X171039000Y-92726190D01*
X170919952Y-92845238D01*
X170681857Y-92964285D01*
X170324714Y-92964285D01*
X170086619Y-92845238D01*
X171158047Y-92011904D02*
X170919952Y-92130952D01*
X170443761Y-92130952D01*
X170205666Y-92011904D01*
X170086619Y-91892857D01*
X169967571Y-91654761D01*
X169967571Y-90940476D01*
X170086619Y-90702380D01*
X170205666Y-90583333D01*
X170443761Y-90464285D01*
X170919952Y-90464285D01*
X171158047Y-90583333D01*
X172705666Y-92130952D02*
X172467571Y-92011904D01*
X172348523Y-91892857D01*
X172229476Y-91654761D01*
X172229476Y-90940476D01*
X172348523Y-90702380D01*
X172467571Y-90583333D01*
X172705666Y-90464285D01*
X173062809Y-90464285D01*
X173300904Y-90583333D01*
X173419952Y-90702380D01*
X173539000Y-90940476D01*
X173539000Y-91654761D01*
X173419952Y-91892857D01*
X173300904Y-92011904D01*
X173062809Y-92130952D01*
X172705666Y-92130952D01*
X175681857Y-92130952D02*
X175681857Y-89630952D01*
X175681857Y-92011904D02*
X175443761Y-92130952D01*
X174967571Y-92130952D01*
X174729476Y-92011904D01*
X174610428Y-91892857D01*
X174491380Y-91654761D01*
X174491380Y-90940476D01*
X174610428Y-90702380D01*
X174729476Y-90583333D01*
X174967571Y-90464285D01*
X175443761Y-90464285D01*
X175681857Y-90583333D01*
X176753285Y-92011904D02*
X176991380Y-92130952D01*
X177467571Y-92130952D01*
X177705666Y-92011904D01*
X177824714Y-91773809D01*
X177824714Y-91654761D01*
X177705666Y-91416666D01*
X177467571Y-91297619D01*
X177110428Y-91297619D01*
X176872333Y-91178571D01*
X176753285Y-90940476D01*
X176753285Y-90821428D01*
X176872333Y-90583333D01*
X177110428Y-90464285D01*
X177467571Y-90464285D01*
X177705666Y-90583333D01*
X178896142Y-92130952D02*
X178896142Y-89630952D01*
X179134238Y-91178571D02*
X179848523Y-92130952D01*
X179848523Y-90464285D02*
X178896142Y-91416666D01*
X180919952Y-92130952D02*
X180919952Y-90464285D01*
X180919952Y-89630952D02*
X180800904Y-89750000D01*
X180919952Y-89869047D01*
X181039000Y-89750000D01*
X180919952Y-89630952D01*
X180919952Y-89869047D01*
D12*
G04 #@! TO.C,D1*
X127384000Y-102381000D02*
X126384000Y-102381000D01*
X127384000Y-104321000D02*
X126384000Y-104321000D01*
G04 #@! TO.C,D2*
X124209000Y-105556000D02*
X123209000Y-105556000D01*
X124209000Y-107496000D02*
X123209000Y-107496000D01*
G04 #@! TO.C,D3*
X121034000Y-102381000D02*
X120034000Y-102381000D01*
X121034000Y-104321000D02*
X120034000Y-104321000D01*
G04 #@! TO.C,D4*
X124209000Y-99206000D02*
X123209000Y-99206000D01*
X124209000Y-101146000D02*
X123209000Y-101146000D01*
G04 #@! TO.C,D5*
X130559000Y-102381000D02*
X129559000Y-102381000D01*
X130559000Y-104321000D02*
X129559000Y-104321000D01*
G04 #@! TO.C,D6*
X124209000Y-108731000D02*
X123209000Y-108731000D01*
X124209000Y-110671000D02*
X123209000Y-110671000D01*
G04 #@! TO.C,D7*
X117859000Y-102381000D02*
X116859000Y-102381000D01*
X117859000Y-104321000D02*
X116859000Y-104321000D01*
G04 #@! TO.C,D8*
X124209000Y-96031000D02*
X123209000Y-96031000D01*
X124209000Y-97971000D02*
X123209000Y-97971000D01*
G04 #@! TO.C,D9*
X133734000Y-102381000D02*
X132734000Y-102381000D01*
X133734000Y-104321000D02*
X132734000Y-104321000D01*
G04 #@! TO.C,D10*
X124209000Y-111905999D02*
X123209000Y-111905999D01*
X124209000Y-113845999D02*
X123209000Y-113845999D01*
G04 #@! TO.C,D11*
X114684000Y-102381000D02*
X113684000Y-102381000D01*
X114684000Y-104321000D02*
X113684000Y-104321000D01*
G04 #@! TO.C,D12*
X124209000Y-92856000D02*
X123209000Y-92856000D01*
X124209000Y-94796000D02*
X123209000Y-94796000D01*
G04 #@! TO.C,D13*
X136909000Y-102381000D02*
X135909000Y-102381000D01*
X136909000Y-104321000D02*
X135909000Y-104321000D01*
G04 #@! TO.C,D14*
X124209000Y-115081000D02*
X123209000Y-115081000D01*
X124209000Y-117021000D02*
X123209000Y-117021000D01*
G04 #@! TO.C,D15*
X111509000Y-102381000D02*
X110509000Y-102381000D01*
X111509000Y-104321000D02*
X110509000Y-104321000D01*
G04 #@! TO.C,D16*
X124209000Y-89681000D02*
X123209000Y-89681000D01*
X124209000Y-91621000D02*
X123209000Y-91621000D01*
G04 #@! TO.C,D17*
X139717852Y-104880666D02*
X138717852Y-104880666D01*
X139717852Y-106820666D02*
X138717852Y-106820666D01*
G04 #@! TO.C,D18*
X121709333Y-117889852D02*
X120709333Y-117889852D01*
X121709333Y-119829852D02*
X120709333Y-119829852D01*
G04 #@! TO.C,D19*
X108700147Y-99881333D02*
X107700147Y-99881333D01*
X108700147Y-101821333D02*
X107700147Y-101821333D01*
G04 #@! TO.C,D20*
X126708666Y-86872147D02*
X125708666Y-86872147D01*
X126708666Y-88812147D02*
X125708666Y-88812147D01*
G04 #@! TO.C,D21*
X141306919Y-108288431D02*
X140306919Y-108288431D01*
X141306919Y-110228431D02*
X140306919Y-110228431D01*
G04 #@! TO.C,D22*
X118301568Y-119478919D02*
X117301568Y-119478919D01*
X118301568Y-121418919D02*
X117301568Y-121418919D01*
G04 #@! TO.C,D23*
X107111080Y-96473568D02*
X106111080Y-96473568D01*
X107111080Y-98413568D02*
X106111080Y-98413568D01*
G04 #@! TO.C,D24*
X130116431Y-85283080D02*
X129116431Y-85283080D01*
X130116431Y-87223080D02*
X129116431Y-87223080D01*
G04 #@! TO.C,D25*
X141416279Y-112046892D02*
X140416279Y-112046892D01*
X141416279Y-113986892D02*
X140416279Y-113986892D01*
G04 #@! TO.C,D26*
X114543107Y-119588279D02*
X113543107Y-119588279D01*
X114543107Y-121528279D02*
X113543107Y-121528279D01*
G04 #@! TO.C,D27*
X107001720Y-92715107D02*
X106001720Y-92715107D01*
X107001720Y-94655107D02*
X106001720Y-94655107D01*
G04 #@! TO.C,D28*
X133874892Y-85173720D02*
X132874892Y-85173720D01*
X133874892Y-87113720D02*
X132874892Y-87113720D01*
G04 #@! TO.C,D29*
X140028045Y-115541287D02*
X139028045Y-115541287D01*
X140028045Y-117481287D02*
X139028045Y-117481287D01*
G04 #@! TO.C,D30*
X111048712Y-118200045D02*
X110048712Y-118200045D01*
X111048712Y-120140045D02*
X110048712Y-120140045D01*
G04 #@! TO.C,D31*
X108389954Y-89220712D02*
X107389954Y-89220712D01*
X108389954Y-91160712D02*
X107389954Y-91160712D01*
G04 #@! TO.C,D32*
X137369287Y-86561954D02*
X136369287Y-86561954D01*
X137369287Y-88501954D02*
X136369287Y-88501954D01*
G04 #@! TO.C,D33*
X137369287Y-118200045D02*
X136369287Y-118200045D01*
X137369287Y-120140045D02*
X136369287Y-120140045D01*
G04 #@! TO.C,D34*
X108389954Y-115541287D02*
X107389954Y-115541287D01*
X108389954Y-117481287D02*
X107389954Y-117481287D01*
G04 #@! TO.C,D35*
X111048712Y-86561954D02*
X110048712Y-86561954D01*
X111048712Y-88501954D02*
X110048712Y-88501954D01*
G04 #@! TO.C,D36*
X140028045Y-89220712D02*
X139028045Y-89220712D01*
X140028045Y-91160712D02*
X139028045Y-91160712D01*
G04 #@! TO.C,D37*
X133874892Y-119588279D02*
X132874892Y-119588279D01*
X133874892Y-121528279D02*
X132874892Y-121528279D01*
G04 #@! TO.C,D38*
X107001720Y-112046892D02*
X106001720Y-112046892D01*
X107001720Y-113986892D02*
X106001720Y-113986892D01*
G04 #@! TO.C,D39*
X114543107Y-85173720D02*
X113543107Y-85173720D01*
X114543107Y-87113720D02*
X113543107Y-87113720D01*
G04 #@! TO.C,D40*
X141416279Y-92715107D02*
X140416279Y-92715107D01*
X141416279Y-94655107D02*
X140416279Y-94655107D01*
G04 #@! TO.C,D41*
X130116431Y-119478919D02*
X129116431Y-119478919D01*
X130116431Y-121418919D02*
X129116431Y-121418919D01*
G04 #@! TO.C,D42*
X107111080Y-108288431D02*
X106111080Y-108288431D01*
X107111080Y-110228431D02*
X106111080Y-110228431D01*
G04 #@! TO.C,D43*
X118301568Y-85283080D02*
X117301568Y-85283080D01*
X118301568Y-87223080D02*
X117301568Y-87223080D01*
G04 #@! TO.C,D44*
X141306919Y-96473568D02*
X140306919Y-96473568D01*
X141306919Y-98413568D02*
X140306919Y-98413568D01*
G04 #@! TO.C,D45*
X126708666Y-117889852D02*
X125708666Y-117889852D01*
X126708666Y-119829852D02*
X125708666Y-119829852D01*
G04 #@! TO.C,D46*
X108700147Y-104880666D02*
X107700147Y-104880666D01*
X108700147Y-106820666D02*
X107700147Y-106820666D01*
G04 #@! TO.C,D47*
X121709333Y-86872147D02*
X120709333Y-86872147D01*
X121709333Y-88812147D02*
X120709333Y-88812147D01*
G04 #@! TO.C,D48*
X139717852Y-99881333D02*
X138717852Y-99881333D01*
X139717852Y-101821333D02*
X138717852Y-101821333D01*
G04 #@! TO.C,D49*
X124209000Y-102381000D02*
X123209000Y-102381000D01*
X124209000Y-104321000D02*
X123209000Y-104321000D01*
G04 #@! TD*
%LPC*%
D13*
G04 #@! TO.C,D1*
X127609000Y-102926000D03*
X127609000Y-103776000D03*
X126159000Y-103776000D03*
X126159000Y-102926000D03*
G04 #@! TD*
G04 #@! TO.C,D2*
X124434000Y-106101000D03*
X124434000Y-106951000D03*
X122984000Y-106951000D03*
X122984000Y-106101000D03*
G04 #@! TD*
G04 #@! TO.C,D3*
X121259000Y-102926000D03*
X121259000Y-103776000D03*
X119809000Y-103776000D03*
X119809000Y-102926000D03*
G04 #@! TD*
G04 #@! TO.C,D4*
X124434000Y-99751000D03*
X124434000Y-100601000D03*
X122984000Y-100601000D03*
X122984000Y-99751000D03*
G04 #@! TD*
G04 #@! TO.C,D5*
X130784000Y-102926000D03*
X130784000Y-103776000D03*
X129334000Y-103776000D03*
X129334000Y-102926000D03*
G04 #@! TD*
G04 #@! TO.C,D6*
X124434000Y-109276000D03*
X124434000Y-110126000D03*
X122984000Y-110126000D03*
X122984000Y-109276000D03*
G04 #@! TD*
G04 #@! TO.C,D7*
X118084000Y-102926000D03*
X118084000Y-103776000D03*
X116634000Y-103776000D03*
X116634000Y-102926000D03*
G04 #@! TD*
G04 #@! TO.C,D8*
X124434000Y-96576000D03*
X124434000Y-97426000D03*
X122984000Y-97426000D03*
X122984000Y-96576000D03*
G04 #@! TD*
G04 #@! TO.C,D9*
X133959000Y-102926000D03*
X133959000Y-103776000D03*
X132509000Y-103776000D03*
X132509000Y-102926000D03*
G04 #@! TD*
G04 #@! TO.C,D10*
X124434000Y-112450999D03*
X124434000Y-113300999D03*
X122984000Y-113300999D03*
X122984000Y-112450999D03*
G04 #@! TD*
G04 #@! TO.C,D11*
X114909000Y-102926000D03*
X114909000Y-103776000D03*
X113459000Y-103776000D03*
X113459000Y-102926000D03*
G04 #@! TD*
G04 #@! TO.C,D12*
X124434000Y-93401000D03*
X124434000Y-94251000D03*
X122984000Y-94251000D03*
X122984000Y-93401000D03*
G04 #@! TD*
G04 #@! TO.C,D13*
X137134000Y-102926000D03*
X137134000Y-103776000D03*
X135684000Y-103776000D03*
X135684000Y-102926000D03*
G04 #@! TD*
G04 #@! TO.C,D14*
X124434000Y-115626000D03*
X124434000Y-116476000D03*
X122984000Y-116476000D03*
X122984000Y-115626000D03*
G04 #@! TD*
G04 #@! TO.C,D15*
X111734000Y-102926000D03*
X111734000Y-103776000D03*
X110284000Y-103776000D03*
X110284000Y-102926000D03*
G04 #@! TD*
G04 #@! TO.C,D16*
X124434000Y-90226000D03*
X124434000Y-91076000D03*
X122984000Y-91076000D03*
X122984000Y-90226000D03*
G04 #@! TD*
G04 #@! TO.C,D17*
X139942852Y-105425666D03*
X139942852Y-106275666D03*
X138492852Y-106275666D03*
X138492852Y-105425666D03*
G04 #@! TD*
G04 #@! TO.C,D18*
X121934333Y-118434852D03*
X121934333Y-119284852D03*
X120484333Y-119284852D03*
X120484333Y-118434852D03*
G04 #@! TD*
G04 #@! TO.C,D19*
X108925147Y-100426333D03*
X108925147Y-101276333D03*
X107475147Y-101276333D03*
X107475147Y-100426333D03*
G04 #@! TD*
G04 #@! TO.C,D20*
X126933666Y-87417147D03*
X126933666Y-88267147D03*
X125483666Y-88267147D03*
X125483666Y-87417147D03*
G04 #@! TD*
G04 #@! TO.C,D21*
X141531919Y-108833431D03*
X141531919Y-109683431D03*
X140081919Y-109683431D03*
X140081919Y-108833431D03*
G04 #@! TD*
G04 #@! TO.C,D22*
X118526568Y-120023919D03*
X118526568Y-120873919D03*
X117076568Y-120873919D03*
X117076568Y-120023919D03*
G04 #@! TD*
G04 #@! TO.C,D23*
X107336080Y-97018568D03*
X107336080Y-97868568D03*
X105886080Y-97868568D03*
X105886080Y-97018568D03*
G04 #@! TD*
G04 #@! TO.C,D24*
X130341431Y-85828080D03*
X130341431Y-86678080D03*
X128891431Y-86678080D03*
X128891431Y-85828080D03*
G04 #@! TD*
G04 #@! TO.C,D25*
X141641279Y-112591892D03*
X141641279Y-113441892D03*
X140191279Y-113441892D03*
X140191279Y-112591892D03*
G04 #@! TD*
G04 #@! TO.C,D26*
X114768107Y-120133279D03*
X114768107Y-120983279D03*
X113318107Y-120983279D03*
X113318107Y-120133279D03*
G04 #@! TD*
G04 #@! TO.C,D27*
X107226720Y-93260107D03*
X107226720Y-94110107D03*
X105776720Y-94110107D03*
X105776720Y-93260107D03*
G04 #@! TD*
G04 #@! TO.C,D28*
X134099892Y-85718720D03*
X134099892Y-86568720D03*
X132649892Y-86568720D03*
X132649892Y-85718720D03*
G04 #@! TD*
G04 #@! TO.C,D29*
X140253045Y-116086287D03*
X140253045Y-116936287D03*
X138803045Y-116936287D03*
X138803045Y-116086287D03*
G04 #@! TD*
G04 #@! TO.C,D30*
X111273712Y-118745045D03*
X111273712Y-119595045D03*
X109823712Y-119595045D03*
X109823712Y-118745045D03*
G04 #@! TD*
G04 #@! TO.C,D31*
X108614954Y-89765712D03*
X108614954Y-90615712D03*
X107164954Y-90615712D03*
X107164954Y-89765712D03*
G04 #@! TD*
G04 #@! TO.C,D32*
X137594287Y-87106954D03*
X137594287Y-87956954D03*
X136144287Y-87956954D03*
X136144287Y-87106954D03*
G04 #@! TD*
G04 #@! TO.C,D33*
X137594287Y-118745045D03*
X137594287Y-119595045D03*
X136144287Y-119595045D03*
X136144287Y-118745045D03*
G04 #@! TD*
G04 #@! TO.C,D34*
X108614954Y-116086287D03*
X108614954Y-116936287D03*
X107164954Y-116936287D03*
X107164954Y-116086287D03*
G04 #@! TD*
G04 #@! TO.C,D35*
X111273712Y-87106954D03*
X111273712Y-87956954D03*
X109823712Y-87956954D03*
X109823712Y-87106954D03*
G04 #@! TD*
G04 #@! TO.C,D36*
X140253045Y-89765712D03*
X140253045Y-90615712D03*
X138803045Y-90615712D03*
X138803045Y-89765712D03*
G04 #@! TD*
G04 #@! TO.C,D37*
X134099892Y-120133279D03*
X134099892Y-120983279D03*
X132649892Y-120983279D03*
X132649892Y-120133279D03*
G04 #@! TD*
G04 #@! TO.C,D38*
X107226720Y-112591892D03*
X107226720Y-113441892D03*
X105776720Y-113441892D03*
X105776720Y-112591892D03*
G04 #@! TD*
G04 #@! TO.C,D39*
X114768107Y-85718720D03*
X114768107Y-86568720D03*
X113318107Y-86568720D03*
X113318107Y-85718720D03*
G04 #@! TD*
G04 #@! TO.C,D40*
X141641279Y-93260107D03*
X141641279Y-94110107D03*
X140191279Y-94110107D03*
X140191279Y-93260107D03*
G04 #@! TD*
G04 #@! TO.C,D41*
X130341431Y-120023919D03*
X130341431Y-120873919D03*
X128891431Y-120873919D03*
X128891431Y-120023919D03*
G04 #@! TD*
G04 #@! TO.C,D42*
X107336080Y-108833431D03*
X107336080Y-109683431D03*
X105886080Y-109683431D03*
X105886080Y-108833431D03*
G04 #@! TD*
G04 #@! TO.C,D43*
X118526568Y-85828080D03*
X118526568Y-86678080D03*
X117076568Y-86678080D03*
X117076568Y-85828080D03*
G04 #@! TD*
G04 #@! TO.C,D44*
X141531919Y-97018568D03*
X141531919Y-97868568D03*
X140081919Y-97868568D03*
X140081919Y-97018568D03*
G04 #@! TD*
G04 #@! TO.C,D45*
X126933666Y-118434852D03*
X126933666Y-119284852D03*
X125483666Y-119284852D03*
X125483666Y-118434852D03*
G04 #@! TD*
G04 #@! TO.C,D46*
X108925147Y-105425666D03*
X108925147Y-106275666D03*
X107475147Y-106275666D03*
X107475147Y-105425666D03*
G04 #@! TD*
G04 #@! TO.C,D47*
X121934333Y-87417147D03*
X121934333Y-88267147D03*
X120484333Y-88267147D03*
X120484333Y-87417147D03*
G04 #@! TD*
G04 #@! TO.C,D48*
X139942852Y-100426333D03*
X139942852Y-101276333D03*
X138492852Y-101276333D03*
X138492852Y-100426333D03*
G04 #@! TD*
G04 #@! TO.C,D49*
X124434000Y-102926000D03*
X124434000Y-103776000D03*
X122984000Y-103776000D03*
X122984000Y-102926000D03*
G04 #@! TD*
M02*
