G04 #@! TF.GenerationSoftware,KiCad,Pcbnew,5.0.2+dfsg1-1~bpo9+1*
G04 #@! TF.CreationDate,2019-04-08T01:26:03+03:00*
G04 #@! TF.ProjectId,kicad,6b696361-642e-46b6-9963-61645f706362,rev?*
G04 #@! TF.SameCoordinates,Original*
G04 #@! TF.FileFunction,Paste,Bot*
G04 #@! TF.FilePolarity,Positive*
%FSLAX46Y46*%
G04 Gerber Fmt 4.6, Leading zero omitted, Abs format (unit mm)*
G04 Created by KiCad (PCBNEW 5.0.2+dfsg1-1~bpo9+1) date Mon 08 Apr 2019 01:26:03 AM MSK*
%MOMM*%
%LPD*%
G01*
G04 APERTURE LIST*
%ADD10C,0.100000*%
%ADD11C,0.875000*%
%ADD12R,1.000000X0.250000*%
%ADD13R,0.250000X1.000000*%
%ADD14R,1.000000X1.800000*%
%ADD15R,0.580000X0.350000*%
%ADD16R,0.350000X0.580000*%
%ADD17R,5.080000X5.080000*%
%ADD18R,0.900000X0.800000*%
G04 APERTURE END LIST*
D10*
G04 #@! TO.C,R1*
G36*
X183171191Y-99983053D02*
X183192426Y-99986203D01*
X183213250Y-99991419D01*
X183233462Y-99998651D01*
X183252868Y-100007830D01*
X183271281Y-100018866D01*
X183288524Y-100031654D01*
X183304430Y-100046070D01*
X183318846Y-100061976D01*
X183331634Y-100079219D01*
X183342670Y-100097632D01*
X183351849Y-100117038D01*
X183359081Y-100137250D01*
X183364297Y-100158074D01*
X183367447Y-100179309D01*
X183368500Y-100200750D01*
X183368500Y-100713250D01*
X183367447Y-100734691D01*
X183364297Y-100755926D01*
X183359081Y-100776750D01*
X183351849Y-100796962D01*
X183342670Y-100816368D01*
X183331634Y-100834781D01*
X183318846Y-100852024D01*
X183304430Y-100867930D01*
X183288524Y-100882346D01*
X183271281Y-100895134D01*
X183252868Y-100906170D01*
X183233462Y-100915349D01*
X183213250Y-100922581D01*
X183192426Y-100927797D01*
X183171191Y-100930947D01*
X183149750Y-100932000D01*
X182712250Y-100932000D01*
X182690809Y-100930947D01*
X182669574Y-100927797D01*
X182648750Y-100922581D01*
X182628538Y-100915349D01*
X182609132Y-100906170D01*
X182590719Y-100895134D01*
X182573476Y-100882346D01*
X182557570Y-100867930D01*
X182543154Y-100852024D01*
X182530366Y-100834781D01*
X182519330Y-100816368D01*
X182510151Y-100796962D01*
X182502919Y-100776750D01*
X182497703Y-100755926D01*
X182494553Y-100734691D01*
X182493500Y-100713250D01*
X182493500Y-100200750D01*
X182494553Y-100179309D01*
X182497703Y-100158074D01*
X182502919Y-100137250D01*
X182510151Y-100117038D01*
X182519330Y-100097632D01*
X182530366Y-100079219D01*
X182543154Y-100061976D01*
X182557570Y-100046070D01*
X182573476Y-100031654D01*
X182590719Y-100018866D01*
X182609132Y-100007830D01*
X182628538Y-99998651D01*
X182648750Y-99991419D01*
X182669574Y-99986203D01*
X182690809Y-99983053D01*
X182712250Y-99982000D01*
X183149750Y-99982000D01*
X183171191Y-99983053D01*
X183171191Y-99983053D01*
G37*
D11*
X182931000Y-100457000D03*
D10*
G36*
X181596191Y-99983053D02*
X181617426Y-99986203D01*
X181638250Y-99991419D01*
X181658462Y-99998651D01*
X181677868Y-100007830D01*
X181696281Y-100018866D01*
X181713524Y-100031654D01*
X181729430Y-100046070D01*
X181743846Y-100061976D01*
X181756634Y-100079219D01*
X181767670Y-100097632D01*
X181776849Y-100117038D01*
X181784081Y-100137250D01*
X181789297Y-100158074D01*
X181792447Y-100179309D01*
X181793500Y-100200750D01*
X181793500Y-100713250D01*
X181792447Y-100734691D01*
X181789297Y-100755926D01*
X181784081Y-100776750D01*
X181776849Y-100796962D01*
X181767670Y-100816368D01*
X181756634Y-100834781D01*
X181743846Y-100852024D01*
X181729430Y-100867930D01*
X181713524Y-100882346D01*
X181696281Y-100895134D01*
X181677868Y-100906170D01*
X181658462Y-100915349D01*
X181638250Y-100922581D01*
X181617426Y-100927797D01*
X181596191Y-100930947D01*
X181574750Y-100932000D01*
X181137250Y-100932000D01*
X181115809Y-100930947D01*
X181094574Y-100927797D01*
X181073750Y-100922581D01*
X181053538Y-100915349D01*
X181034132Y-100906170D01*
X181015719Y-100895134D01*
X180998476Y-100882346D01*
X180982570Y-100867930D01*
X180968154Y-100852024D01*
X180955366Y-100834781D01*
X180944330Y-100816368D01*
X180935151Y-100796962D01*
X180927919Y-100776750D01*
X180922703Y-100755926D01*
X180919553Y-100734691D01*
X180918500Y-100713250D01*
X180918500Y-100200750D01*
X180919553Y-100179309D01*
X180922703Y-100158074D01*
X180927919Y-100137250D01*
X180935151Y-100117038D01*
X180944330Y-100097632D01*
X180955366Y-100079219D01*
X180968154Y-100061976D01*
X180982570Y-100046070D01*
X180998476Y-100031654D01*
X181015719Y-100018866D01*
X181034132Y-100007830D01*
X181053538Y-99998651D01*
X181073750Y-99991419D01*
X181094574Y-99986203D01*
X181115809Y-99983053D01*
X181137250Y-99982000D01*
X181574750Y-99982000D01*
X181596191Y-99983053D01*
X181596191Y-99983053D01*
G37*
D11*
X181356000Y-100457000D03*
G04 #@! TD*
D12*
G04 #@! TO.C,U1*
X168407080Y-92007560D03*
X168407080Y-92507560D03*
X168407080Y-93007560D03*
X168407080Y-93507560D03*
X168407080Y-94007560D03*
X168407080Y-94507560D03*
X168407080Y-95007560D03*
X168407080Y-95507560D03*
X168407080Y-96007560D03*
X168407080Y-96507560D03*
X168407080Y-97007560D03*
X168407080Y-97507560D03*
X168407080Y-98007560D03*
X168407080Y-98507560D03*
X168407080Y-99007560D03*
X168407080Y-99507560D03*
D13*
X170357080Y-101457560D03*
X170857080Y-101457560D03*
X171357080Y-101457560D03*
X171857080Y-101457560D03*
X172357080Y-101457560D03*
X172857080Y-101457560D03*
X173357080Y-101457560D03*
X173857080Y-101457560D03*
X174357080Y-101457560D03*
X174857080Y-101457560D03*
X175357080Y-101457560D03*
X175857080Y-101457560D03*
X176357080Y-101457560D03*
X176857080Y-101457560D03*
X177357080Y-101457560D03*
X177857080Y-101457560D03*
D12*
X179807080Y-99507560D03*
X179807080Y-99007560D03*
X179807080Y-98507560D03*
X179807080Y-98007560D03*
X179807080Y-97507560D03*
X179807080Y-97007560D03*
X179807080Y-96507560D03*
X179807080Y-96007560D03*
X179807080Y-95507560D03*
X179807080Y-95007560D03*
X179807080Y-94507560D03*
X179807080Y-94007560D03*
X179807080Y-93507560D03*
X179807080Y-93007560D03*
X179807080Y-92507560D03*
X179807080Y-92007560D03*
D13*
X177857080Y-90057560D03*
X177357080Y-90057560D03*
X176857080Y-90057560D03*
X176357080Y-90057560D03*
X175857080Y-90057560D03*
X175357080Y-90057560D03*
X174857080Y-90057560D03*
X174357080Y-90057560D03*
X173857080Y-90057560D03*
X173357080Y-90057560D03*
X172857080Y-90057560D03*
X172357080Y-90057560D03*
X171857080Y-90057560D03*
X171357080Y-90057560D03*
X170857080Y-90057560D03*
X170357080Y-90057560D03*
G04 #@! TD*
D14*
G04 #@! TO.C,Y1*
X176423000Y-88138000D03*
X178923000Y-88138000D03*
G04 #@! TD*
D10*
G04 #@! TO.C,C1*
G36*
X174267691Y-104643553D02*
X174288926Y-104646703D01*
X174309750Y-104651919D01*
X174329962Y-104659151D01*
X174349368Y-104668330D01*
X174367781Y-104679366D01*
X174385024Y-104692154D01*
X174400930Y-104706570D01*
X174415346Y-104722476D01*
X174428134Y-104739719D01*
X174439170Y-104758132D01*
X174448349Y-104777538D01*
X174455581Y-104797750D01*
X174460797Y-104818574D01*
X174463947Y-104839809D01*
X174465000Y-104861250D01*
X174465000Y-105298750D01*
X174463947Y-105320191D01*
X174460797Y-105341426D01*
X174455581Y-105362250D01*
X174448349Y-105382462D01*
X174439170Y-105401868D01*
X174428134Y-105420281D01*
X174415346Y-105437524D01*
X174400930Y-105453430D01*
X174385024Y-105467846D01*
X174367781Y-105480634D01*
X174349368Y-105491670D01*
X174329962Y-105500849D01*
X174309750Y-105508081D01*
X174288926Y-105513297D01*
X174267691Y-105516447D01*
X174246250Y-105517500D01*
X173733750Y-105517500D01*
X173712309Y-105516447D01*
X173691074Y-105513297D01*
X173670250Y-105508081D01*
X173650038Y-105500849D01*
X173630632Y-105491670D01*
X173612219Y-105480634D01*
X173594976Y-105467846D01*
X173579070Y-105453430D01*
X173564654Y-105437524D01*
X173551866Y-105420281D01*
X173540830Y-105401868D01*
X173531651Y-105382462D01*
X173524419Y-105362250D01*
X173519203Y-105341426D01*
X173516053Y-105320191D01*
X173515000Y-105298750D01*
X173515000Y-104861250D01*
X173516053Y-104839809D01*
X173519203Y-104818574D01*
X173524419Y-104797750D01*
X173531651Y-104777538D01*
X173540830Y-104758132D01*
X173551866Y-104739719D01*
X173564654Y-104722476D01*
X173579070Y-104706570D01*
X173594976Y-104692154D01*
X173612219Y-104679366D01*
X173630632Y-104668330D01*
X173650038Y-104659151D01*
X173670250Y-104651919D01*
X173691074Y-104646703D01*
X173712309Y-104643553D01*
X173733750Y-104642500D01*
X174246250Y-104642500D01*
X174267691Y-104643553D01*
X174267691Y-104643553D01*
G37*
D11*
X173990000Y-105080000D03*
D10*
G36*
X174267691Y-103068553D02*
X174288926Y-103071703D01*
X174309750Y-103076919D01*
X174329962Y-103084151D01*
X174349368Y-103093330D01*
X174367781Y-103104366D01*
X174385024Y-103117154D01*
X174400930Y-103131570D01*
X174415346Y-103147476D01*
X174428134Y-103164719D01*
X174439170Y-103183132D01*
X174448349Y-103202538D01*
X174455581Y-103222750D01*
X174460797Y-103243574D01*
X174463947Y-103264809D01*
X174465000Y-103286250D01*
X174465000Y-103723750D01*
X174463947Y-103745191D01*
X174460797Y-103766426D01*
X174455581Y-103787250D01*
X174448349Y-103807462D01*
X174439170Y-103826868D01*
X174428134Y-103845281D01*
X174415346Y-103862524D01*
X174400930Y-103878430D01*
X174385024Y-103892846D01*
X174367781Y-103905634D01*
X174349368Y-103916670D01*
X174329962Y-103925849D01*
X174309750Y-103933081D01*
X174288926Y-103938297D01*
X174267691Y-103941447D01*
X174246250Y-103942500D01*
X173733750Y-103942500D01*
X173712309Y-103941447D01*
X173691074Y-103938297D01*
X173670250Y-103933081D01*
X173650038Y-103925849D01*
X173630632Y-103916670D01*
X173612219Y-103905634D01*
X173594976Y-103892846D01*
X173579070Y-103878430D01*
X173564654Y-103862524D01*
X173551866Y-103845281D01*
X173540830Y-103826868D01*
X173531651Y-103807462D01*
X173524419Y-103787250D01*
X173519203Y-103766426D01*
X173516053Y-103745191D01*
X173515000Y-103723750D01*
X173515000Y-103286250D01*
X173516053Y-103264809D01*
X173519203Y-103243574D01*
X173524419Y-103222750D01*
X173531651Y-103202538D01*
X173540830Y-103183132D01*
X173551866Y-103164719D01*
X173564654Y-103147476D01*
X173579070Y-103131570D01*
X173594976Y-103117154D01*
X173612219Y-103104366D01*
X173630632Y-103093330D01*
X173650038Y-103084151D01*
X173670250Y-103076919D01*
X173691074Y-103071703D01*
X173712309Y-103068553D01*
X173733750Y-103067500D01*
X174246250Y-103067500D01*
X174267691Y-103068553D01*
X174267691Y-103068553D01*
G37*
D11*
X173990000Y-103505000D03*
G04 #@! TD*
D10*
G04 #@! TO.C,C3*
G36*
X183171191Y-95665053D02*
X183192426Y-95668203D01*
X183213250Y-95673419D01*
X183233462Y-95680651D01*
X183252868Y-95689830D01*
X183271281Y-95700866D01*
X183288524Y-95713654D01*
X183304430Y-95728070D01*
X183318846Y-95743976D01*
X183331634Y-95761219D01*
X183342670Y-95779632D01*
X183351849Y-95799038D01*
X183359081Y-95819250D01*
X183364297Y-95840074D01*
X183367447Y-95861309D01*
X183368500Y-95882750D01*
X183368500Y-96395250D01*
X183367447Y-96416691D01*
X183364297Y-96437926D01*
X183359081Y-96458750D01*
X183351849Y-96478962D01*
X183342670Y-96498368D01*
X183331634Y-96516781D01*
X183318846Y-96534024D01*
X183304430Y-96549930D01*
X183288524Y-96564346D01*
X183271281Y-96577134D01*
X183252868Y-96588170D01*
X183233462Y-96597349D01*
X183213250Y-96604581D01*
X183192426Y-96609797D01*
X183171191Y-96612947D01*
X183149750Y-96614000D01*
X182712250Y-96614000D01*
X182690809Y-96612947D01*
X182669574Y-96609797D01*
X182648750Y-96604581D01*
X182628538Y-96597349D01*
X182609132Y-96588170D01*
X182590719Y-96577134D01*
X182573476Y-96564346D01*
X182557570Y-96549930D01*
X182543154Y-96534024D01*
X182530366Y-96516781D01*
X182519330Y-96498368D01*
X182510151Y-96478962D01*
X182502919Y-96458750D01*
X182497703Y-96437926D01*
X182494553Y-96416691D01*
X182493500Y-96395250D01*
X182493500Y-95882750D01*
X182494553Y-95861309D01*
X182497703Y-95840074D01*
X182502919Y-95819250D01*
X182510151Y-95799038D01*
X182519330Y-95779632D01*
X182530366Y-95761219D01*
X182543154Y-95743976D01*
X182557570Y-95728070D01*
X182573476Y-95713654D01*
X182590719Y-95700866D01*
X182609132Y-95689830D01*
X182628538Y-95680651D01*
X182648750Y-95673419D01*
X182669574Y-95668203D01*
X182690809Y-95665053D01*
X182712250Y-95664000D01*
X183149750Y-95664000D01*
X183171191Y-95665053D01*
X183171191Y-95665053D01*
G37*
D11*
X182931000Y-96139000D03*
D10*
G36*
X181596191Y-95665053D02*
X181617426Y-95668203D01*
X181638250Y-95673419D01*
X181658462Y-95680651D01*
X181677868Y-95689830D01*
X181696281Y-95700866D01*
X181713524Y-95713654D01*
X181729430Y-95728070D01*
X181743846Y-95743976D01*
X181756634Y-95761219D01*
X181767670Y-95779632D01*
X181776849Y-95799038D01*
X181784081Y-95819250D01*
X181789297Y-95840074D01*
X181792447Y-95861309D01*
X181793500Y-95882750D01*
X181793500Y-96395250D01*
X181792447Y-96416691D01*
X181789297Y-96437926D01*
X181784081Y-96458750D01*
X181776849Y-96478962D01*
X181767670Y-96498368D01*
X181756634Y-96516781D01*
X181743846Y-96534024D01*
X181729430Y-96549930D01*
X181713524Y-96564346D01*
X181696281Y-96577134D01*
X181677868Y-96588170D01*
X181658462Y-96597349D01*
X181638250Y-96604581D01*
X181617426Y-96609797D01*
X181596191Y-96612947D01*
X181574750Y-96614000D01*
X181137250Y-96614000D01*
X181115809Y-96612947D01*
X181094574Y-96609797D01*
X181073750Y-96604581D01*
X181053538Y-96597349D01*
X181034132Y-96588170D01*
X181015719Y-96577134D01*
X180998476Y-96564346D01*
X180982570Y-96549930D01*
X180968154Y-96534024D01*
X180955366Y-96516781D01*
X180944330Y-96498368D01*
X180935151Y-96478962D01*
X180927919Y-96458750D01*
X180922703Y-96437926D01*
X180919553Y-96416691D01*
X180918500Y-96395250D01*
X180918500Y-95882750D01*
X180919553Y-95861309D01*
X180922703Y-95840074D01*
X180927919Y-95819250D01*
X180935151Y-95799038D01*
X180944330Y-95779632D01*
X180955366Y-95761219D01*
X180968154Y-95743976D01*
X180982570Y-95728070D01*
X180998476Y-95713654D01*
X181015719Y-95700866D01*
X181034132Y-95689830D01*
X181053538Y-95680651D01*
X181073750Y-95673419D01*
X181094574Y-95668203D01*
X181115809Y-95665053D01*
X181137250Y-95664000D01*
X181574750Y-95664000D01*
X181596191Y-95665053D01*
X181596191Y-95665053D01*
G37*
D11*
X181356000Y-96139000D03*
G04 #@! TD*
D10*
G04 #@! TO.C,C4*
G36*
X166139691Y-95423053D02*
X166160926Y-95426203D01*
X166181750Y-95431419D01*
X166201962Y-95438651D01*
X166221368Y-95447830D01*
X166239781Y-95458866D01*
X166257024Y-95471654D01*
X166272930Y-95486070D01*
X166287346Y-95501976D01*
X166300134Y-95519219D01*
X166311170Y-95537632D01*
X166320349Y-95557038D01*
X166327581Y-95577250D01*
X166332797Y-95598074D01*
X166335947Y-95619309D01*
X166337000Y-95640750D01*
X166337000Y-96078250D01*
X166335947Y-96099691D01*
X166332797Y-96120926D01*
X166327581Y-96141750D01*
X166320349Y-96161962D01*
X166311170Y-96181368D01*
X166300134Y-96199781D01*
X166287346Y-96217024D01*
X166272930Y-96232930D01*
X166257024Y-96247346D01*
X166239781Y-96260134D01*
X166221368Y-96271170D01*
X166201962Y-96280349D01*
X166181750Y-96287581D01*
X166160926Y-96292797D01*
X166139691Y-96295947D01*
X166118250Y-96297000D01*
X165605750Y-96297000D01*
X165584309Y-96295947D01*
X165563074Y-96292797D01*
X165542250Y-96287581D01*
X165522038Y-96280349D01*
X165502632Y-96271170D01*
X165484219Y-96260134D01*
X165466976Y-96247346D01*
X165451070Y-96232930D01*
X165436654Y-96217024D01*
X165423866Y-96199781D01*
X165412830Y-96181368D01*
X165403651Y-96161962D01*
X165396419Y-96141750D01*
X165391203Y-96120926D01*
X165388053Y-96099691D01*
X165387000Y-96078250D01*
X165387000Y-95640750D01*
X165388053Y-95619309D01*
X165391203Y-95598074D01*
X165396419Y-95577250D01*
X165403651Y-95557038D01*
X165412830Y-95537632D01*
X165423866Y-95519219D01*
X165436654Y-95501976D01*
X165451070Y-95486070D01*
X165466976Y-95471654D01*
X165484219Y-95458866D01*
X165502632Y-95447830D01*
X165522038Y-95438651D01*
X165542250Y-95431419D01*
X165563074Y-95426203D01*
X165584309Y-95423053D01*
X165605750Y-95422000D01*
X166118250Y-95422000D01*
X166139691Y-95423053D01*
X166139691Y-95423053D01*
G37*
D11*
X165862000Y-95859500D03*
D10*
G36*
X166139691Y-96998053D02*
X166160926Y-97001203D01*
X166181750Y-97006419D01*
X166201962Y-97013651D01*
X166221368Y-97022830D01*
X166239781Y-97033866D01*
X166257024Y-97046654D01*
X166272930Y-97061070D01*
X166287346Y-97076976D01*
X166300134Y-97094219D01*
X166311170Y-97112632D01*
X166320349Y-97132038D01*
X166327581Y-97152250D01*
X166332797Y-97173074D01*
X166335947Y-97194309D01*
X166337000Y-97215750D01*
X166337000Y-97653250D01*
X166335947Y-97674691D01*
X166332797Y-97695926D01*
X166327581Y-97716750D01*
X166320349Y-97736962D01*
X166311170Y-97756368D01*
X166300134Y-97774781D01*
X166287346Y-97792024D01*
X166272930Y-97807930D01*
X166257024Y-97822346D01*
X166239781Y-97835134D01*
X166221368Y-97846170D01*
X166201962Y-97855349D01*
X166181750Y-97862581D01*
X166160926Y-97867797D01*
X166139691Y-97870947D01*
X166118250Y-97872000D01*
X165605750Y-97872000D01*
X165584309Y-97870947D01*
X165563074Y-97867797D01*
X165542250Y-97862581D01*
X165522038Y-97855349D01*
X165502632Y-97846170D01*
X165484219Y-97835134D01*
X165466976Y-97822346D01*
X165451070Y-97807930D01*
X165436654Y-97792024D01*
X165423866Y-97774781D01*
X165412830Y-97756368D01*
X165403651Y-97736962D01*
X165396419Y-97716750D01*
X165391203Y-97695926D01*
X165388053Y-97674691D01*
X165387000Y-97653250D01*
X165387000Y-97215750D01*
X165388053Y-97194309D01*
X165391203Y-97173074D01*
X165396419Y-97152250D01*
X165403651Y-97132038D01*
X165412830Y-97112632D01*
X165423866Y-97094219D01*
X165436654Y-97076976D01*
X165451070Y-97061070D01*
X165466976Y-97046654D01*
X165484219Y-97033866D01*
X165502632Y-97022830D01*
X165522038Y-97013651D01*
X165542250Y-97006419D01*
X165563074Y-97001203D01*
X165584309Y-96998053D01*
X165605750Y-96997000D01*
X166118250Y-96997000D01*
X166139691Y-96998053D01*
X166139691Y-96998053D01*
G37*
D11*
X165862000Y-97434500D03*
G04 #@! TD*
D10*
G04 #@! TO.C,C5*
G36*
X164742691Y-95423053D02*
X164763926Y-95426203D01*
X164784750Y-95431419D01*
X164804962Y-95438651D01*
X164824368Y-95447830D01*
X164842781Y-95458866D01*
X164860024Y-95471654D01*
X164875930Y-95486070D01*
X164890346Y-95501976D01*
X164903134Y-95519219D01*
X164914170Y-95537632D01*
X164923349Y-95557038D01*
X164930581Y-95577250D01*
X164935797Y-95598074D01*
X164938947Y-95619309D01*
X164940000Y-95640750D01*
X164940000Y-96078250D01*
X164938947Y-96099691D01*
X164935797Y-96120926D01*
X164930581Y-96141750D01*
X164923349Y-96161962D01*
X164914170Y-96181368D01*
X164903134Y-96199781D01*
X164890346Y-96217024D01*
X164875930Y-96232930D01*
X164860024Y-96247346D01*
X164842781Y-96260134D01*
X164824368Y-96271170D01*
X164804962Y-96280349D01*
X164784750Y-96287581D01*
X164763926Y-96292797D01*
X164742691Y-96295947D01*
X164721250Y-96297000D01*
X164208750Y-96297000D01*
X164187309Y-96295947D01*
X164166074Y-96292797D01*
X164145250Y-96287581D01*
X164125038Y-96280349D01*
X164105632Y-96271170D01*
X164087219Y-96260134D01*
X164069976Y-96247346D01*
X164054070Y-96232930D01*
X164039654Y-96217024D01*
X164026866Y-96199781D01*
X164015830Y-96181368D01*
X164006651Y-96161962D01*
X163999419Y-96141750D01*
X163994203Y-96120926D01*
X163991053Y-96099691D01*
X163990000Y-96078250D01*
X163990000Y-95640750D01*
X163991053Y-95619309D01*
X163994203Y-95598074D01*
X163999419Y-95577250D01*
X164006651Y-95557038D01*
X164015830Y-95537632D01*
X164026866Y-95519219D01*
X164039654Y-95501976D01*
X164054070Y-95486070D01*
X164069976Y-95471654D01*
X164087219Y-95458866D01*
X164105632Y-95447830D01*
X164125038Y-95438651D01*
X164145250Y-95431419D01*
X164166074Y-95426203D01*
X164187309Y-95423053D01*
X164208750Y-95422000D01*
X164721250Y-95422000D01*
X164742691Y-95423053D01*
X164742691Y-95423053D01*
G37*
D11*
X164465000Y-95859500D03*
D10*
G36*
X164742691Y-96998053D02*
X164763926Y-97001203D01*
X164784750Y-97006419D01*
X164804962Y-97013651D01*
X164824368Y-97022830D01*
X164842781Y-97033866D01*
X164860024Y-97046654D01*
X164875930Y-97061070D01*
X164890346Y-97076976D01*
X164903134Y-97094219D01*
X164914170Y-97112632D01*
X164923349Y-97132038D01*
X164930581Y-97152250D01*
X164935797Y-97173074D01*
X164938947Y-97194309D01*
X164940000Y-97215750D01*
X164940000Y-97653250D01*
X164938947Y-97674691D01*
X164935797Y-97695926D01*
X164930581Y-97716750D01*
X164923349Y-97736962D01*
X164914170Y-97756368D01*
X164903134Y-97774781D01*
X164890346Y-97792024D01*
X164875930Y-97807930D01*
X164860024Y-97822346D01*
X164842781Y-97835134D01*
X164824368Y-97846170D01*
X164804962Y-97855349D01*
X164784750Y-97862581D01*
X164763926Y-97867797D01*
X164742691Y-97870947D01*
X164721250Y-97872000D01*
X164208750Y-97872000D01*
X164187309Y-97870947D01*
X164166074Y-97867797D01*
X164145250Y-97862581D01*
X164125038Y-97855349D01*
X164105632Y-97846170D01*
X164087219Y-97835134D01*
X164069976Y-97822346D01*
X164054070Y-97807930D01*
X164039654Y-97792024D01*
X164026866Y-97774781D01*
X164015830Y-97756368D01*
X164006651Y-97736962D01*
X163999419Y-97716750D01*
X163994203Y-97695926D01*
X163991053Y-97674691D01*
X163990000Y-97653250D01*
X163990000Y-97215750D01*
X163991053Y-97194309D01*
X163994203Y-97173074D01*
X163999419Y-97152250D01*
X164006651Y-97132038D01*
X164015830Y-97112632D01*
X164026866Y-97094219D01*
X164039654Y-97076976D01*
X164054070Y-97061070D01*
X164069976Y-97046654D01*
X164087219Y-97033866D01*
X164105632Y-97022830D01*
X164125038Y-97013651D01*
X164145250Y-97006419D01*
X164166074Y-97001203D01*
X164187309Y-96998053D01*
X164208750Y-96997000D01*
X164721250Y-96997000D01*
X164742691Y-96998053D01*
X164742691Y-96998053D01*
G37*
D11*
X164465000Y-97434500D03*
G04 #@! TD*
D10*
G04 #@! TO.C,C6*
G36*
X181596191Y-97062053D02*
X181617426Y-97065203D01*
X181638250Y-97070419D01*
X181658462Y-97077651D01*
X181677868Y-97086830D01*
X181696281Y-97097866D01*
X181713524Y-97110654D01*
X181729430Y-97125070D01*
X181743846Y-97140976D01*
X181756634Y-97158219D01*
X181767670Y-97176632D01*
X181776849Y-97196038D01*
X181784081Y-97216250D01*
X181789297Y-97237074D01*
X181792447Y-97258309D01*
X181793500Y-97279750D01*
X181793500Y-97792250D01*
X181792447Y-97813691D01*
X181789297Y-97834926D01*
X181784081Y-97855750D01*
X181776849Y-97875962D01*
X181767670Y-97895368D01*
X181756634Y-97913781D01*
X181743846Y-97931024D01*
X181729430Y-97946930D01*
X181713524Y-97961346D01*
X181696281Y-97974134D01*
X181677868Y-97985170D01*
X181658462Y-97994349D01*
X181638250Y-98001581D01*
X181617426Y-98006797D01*
X181596191Y-98009947D01*
X181574750Y-98011000D01*
X181137250Y-98011000D01*
X181115809Y-98009947D01*
X181094574Y-98006797D01*
X181073750Y-98001581D01*
X181053538Y-97994349D01*
X181034132Y-97985170D01*
X181015719Y-97974134D01*
X180998476Y-97961346D01*
X180982570Y-97946930D01*
X180968154Y-97931024D01*
X180955366Y-97913781D01*
X180944330Y-97895368D01*
X180935151Y-97875962D01*
X180927919Y-97855750D01*
X180922703Y-97834926D01*
X180919553Y-97813691D01*
X180918500Y-97792250D01*
X180918500Y-97279750D01*
X180919553Y-97258309D01*
X180922703Y-97237074D01*
X180927919Y-97216250D01*
X180935151Y-97196038D01*
X180944330Y-97176632D01*
X180955366Y-97158219D01*
X180968154Y-97140976D01*
X180982570Y-97125070D01*
X180998476Y-97110654D01*
X181015719Y-97097866D01*
X181034132Y-97086830D01*
X181053538Y-97077651D01*
X181073750Y-97070419D01*
X181094574Y-97065203D01*
X181115809Y-97062053D01*
X181137250Y-97061000D01*
X181574750Y-97061000D01*
X181596191Y-97062053D01*
X181596191Y-97062053D01*
G37*
D11*
X181356000Y-97536000D03*
D10*
G36*
X183171191Y-97062053D02*
X183192426Y-97065203D01*
X183213250Y-97070419D01*
X183233462Y-97077651D01*
X183252868Y-97086830D01*
X183271281Y-97097866D01*
X183288524Y-97110654D01*
X183304430Y-97125070D01*
X183318846Y-97140976D01*
X183331634Y-97158219D01*
X183342670Y-97176632D01*
X183351849Y-97196038D01*
X183359081Y-97216250D01*
X183364297Y-97237074D01*
X183367447Y-97258309D01*
X183368500Y-97279750D01*
X183368500Y-97792250D01*
X183367447Y-97813691D01*
X183364297Y-97834926D01*
X183359081Y-97855750D01*
X183351849Y-97875962D01*
X183342670Y-97895368D01*
X183331634Y-97913781D01*
X183318846Y-97931024D01*
X183304430Y-97946930D01*
X183288524Y-97961346D01*
X183271281Y-97974134D01*
X183252868Y-97985170D01*
X183233462Y-97994349D01*
X183213250Y-98001581D01*
X183192426Y-98006797D01*
X183171191Y-98009947D01*
X183149750Y-98011000D01*
X182712250Y-98011000D01*
X182690809Y-98009947D01*
X182669574Y-98006797D01*
X182648750Y-98001581D01*
X182628538Y-97994349D01*
X182609132Y-97985170D01*
X182590719Y-97974134D01*
X182573476Y-97961346D01*
X182557570Y-97946930D01*
X182543154Y-97931024D01*
X182530366Y-97913781D01*
X182519330Y-97895368D01*
X182510151Y-97875962D01*
X182502919Y-97855750D01*
X182497703Y-97834926D01*
X182494553Y-97813691D01*
X182493500Y-97792250D01*
X182493500Y-97279750D01*
X182494553Y-97258309D01*
X182497703Y-97237074D01*
X182502919Y-97216250D01*
X182510151Y-97196038D01*
X182519330Y-97176632D01*
X182530366Y-97158219D01*
X182543154Y-97140976D01*
X182557570Y-97125070D01*
X182573476Y-97110654D01*
X182590719Y-97097866D01*
X182609132Y-97086830D01*
X182628538Y-97077651D01*
X182648750Y-97070419D01*
X182669574Y-97065203D01*
X182690809Y-97062053D01*
X182712250Y-97061000D01*
X183149750Y-97061000D01*
X183171191Y-97062053D01*
X183171191Y-97062053D01*
G37*
D11*
X182931000Y-97536000D03*
G04 #@! TD*
D10*
G04 #@! TO.C,C7*
G36*
X183171191Y-94229953D02*
X183192426Y-94233103D01*
X183213250Y-94238319D01*
X183233462Y-94245551D01*
X183252868Y-94254730D01*
X183271281Y-94265766D01*
X183288524Y-94278554D01*
X183304430Y-94292970D01*
X183318846Y-94308876D01*
X183331634Y-94326119D01*
X183342670Y-94344532D01*
X183351849Y-94363938D01*
X183359081Y-94384150D01*
X183364297Y-94404974D01*
X183367447Y-94426209D01*
X183368500Y-94447650D01*
X183368500Y-94960150D01*
X183367447Y-94981591D01*
X183364297Y-95002826D01*
X183359081Y-95023650D01*
X183351849Y-95043862D01*
X183342670Y-95063268D01*
X183331634Y-95081681D01*
X183318846Y-95098924D01*
X183304430Y-95114830D01*
X183288524Y-95129246D01*
X183271281Y-95142034D01*
X183252868Y-95153070D01*
X183233462Y-95162249D01*
X183213250Y-95169481D01*
X183192426Y-95174697D01*
X183171191Y-95177847D01*
X183149750Y-95178900D01*
X182712250Y-95178900D01*
X182690809Y-95177847D01*
X182669574Y-95174697D01*
X182648750Y-95169481D01*
X182628538Y-95162249D01*
X182609132Y-95153070D01*
X182590719Y-95142034D01*
X182573476Y-95129246D01*
X182557570Y-95114830D01*
X182543154Y-95098924D01*
X182530366Y-95081681D01*
X182519330Y-95063268D01*
X182510151Y-95043862D01*
X182502919Y-95023650D01*
X182497703Y-95002826D01*
X182494553Y-94981591D01*
X182493500Y-94960150D01*
X182493500Y-94447650D01*
X182494553Y-94426209D01*
X182497703Y-94404974D01*
X182502919Y-94384150D01*
X182510151Y-94363938D01*
X182519330Y-94344532D01*
X182530366Y-94326119D01*
X182543154Y-94308876D01*
X182557570Y-94292970D01*
X182573476Y-94278554D01*
X182590719Y-94265766D01*
X182609132Y-94254730D01*
X182628538Y-94245551D01*
X182648750Y-94238319D01*
X182669574Y-94233103D01*
X182690809Y-94229953D01*
X182712250Y-94228900D01*
X183149750Y-94228900D01*
X183171191Y-94229953D01*
X183171191Y-94229953D01*
G37*
D11*
X182931000Y-94703900D03*
D10*
G36*
X181596191Y-94229953D02*
X181617426Y-94233103D01*
X181638250Y-94238319D01*
X181658462Y-94245551D01*
X181677868Y-94254730D01*
X181696281Y-94265766D01*
X181713524Y-94278554D01*
X181729430Y-94292970D01*
X181743846Y-94308876D01*
X181756634Y-94326119D01*
X181767670Y-94344532D01*
X181776849Y-94363938D01*
X181784081Y-94384150D01*
X181789297Y-94404974D01*
X181792447Y-94426209D01*
X181793500Y-94447650D01*
X181793500Y-94960150D01*
X181792447Y-94981591D01*
X181789297Y-95002826D01*
X181784081Y-95023650D01*
X181776849Y-95043862D01*
X181767670Y-95063268D01*
X181756634Y-95081681D01*
X181743846Y-95098924D01*
X181729430Y-95114830D01*
X181713524Y-95129246D01*
X181696281Y-95142034D01*
X181677868Y-95153070D01*
X181658462Y-95162249D01*
X181638250Y-95169481D01*
X181617426Y-95174697D01*
X181596191Y-95177847D01*
X181574750Y-95178900D01*
X181137250Y-95178900D01*
X181115809Y-95177847D01*
X181094574Y-95174697D01*
X181073750Y-95169481D01*
X181053538Y-95162249D01*
X181034132Y-95153070D01*
X181015719Y-95142034D01*
X180998476Y-95129246D01*
X180982570Y-95114830D01*
X180968154Y-95098924D01*
X180955366Y-95081681D01*
X180944330Y-95063268D01*
X180935151Y-95043862D01*
X180927919Y-95023650D01*
X180922703Y-95002826D01*
X180919553Y-94981591D01*
X180918500Y-94960150D01*
X180918500Y-94447650D01*
X180919553Y-94426209D01*
X180922703Y-94404974D01*
X180927919Y-94384150D01*
X180935151Y-94363938D01*
X180944330Y-94344532D01*
X180955366Y-94326119D01*
X180968154Y-94308876D01*
X180982570Y-94292970D01*
X180998476Y-94278554D01*
X181015719Y-94265766D01*
X181034132Y-94254730D01*
X181053538Y-94245551D01*
X181073750Y-94238319D01*
X181094574Y-94233103D01*
X181115809Y-94229953D01*
X181137250Y-94228900D01*
X181574750Y-94228900D01*
X181596191Y-94229953D01*
X181596191Y-94229953D01*
G37*
D11*
X181356000Y-94703900D03*
G04 #@! TD*
D10*
G04 #@! TO.C,C8*
G36*
X183171191Y-98459053D02*
X183192426Y-98462203D01*
X183213250Y-98467419D01*
X183233462Y-98474651D01*
X183252868Y-98483830D01*
X183271281Y-98494866D01*
X183288524Y-98507654D01*
X183304430Y-98522070D01*
X183318846Y-98537976D01*
X183331634Y-98555219D01*
X183342670Y-98573632D01*
X183351849Y-98593038D01*
X183359081Y-98613250D01*
X183364297Y-98634074D01*
X183367447Y-98655309D01*
X183368500Y-98676750D01*
X183368500Y-99189250D01*
X183367447Y-99210691D01*
X183364297Y-99231926D01*
X183359081Y-99252750D01*
X183351849Y-99272962D01*
X183342670Y-99292368D01*
X183331634Y-99310781D01*
X183318846Y-99328024D01*
X183304430Y-99343930D01*
X183288524Y-99358346D01*
X183271281Y-99371134D01*
X183252868Y-99382170D01*
X183233462Y-99391349D01*
X183213250Y-99398581D01*
X183192426Y-99403797D01*
X183171191Y-99406947D01*
X183149750Y-99408000D01*
X182712250Y-99408000D01*
X182690809Y-99406947D01*
X182669574Y-99403797D01*
X182648750Y-99398581D01*
X182628538Y-99391349D01*
X182609132Y-99382170D01*
X182590719Y-99371134D01*
X182573476Y-99358346D01*
X182557570Y-99343930D01*
X182543154Y-99328024D01*
X182530366Y-99310781D01*
X182519330Y-99292368D01*
X182510151Y-99272962D01*
X182502919Y-99252750D01*
X182497703Y-99231926D01*
X182494553Y-99210691D01*
X182493500Y-99189250D01*
X182493500Y-98676750D01*
X182494553Y-98655309D01*
X182497703Y-98634074D01*
X182502919Y-98613250D01*
X182510151Y-98593038D01*
X182519330Y-98573632D01*
X182530366Y-98555219D01*
X182543154Y-98537976D01*
X182557570Y-98522070D01*
X182573476Y-98507654D01*
X182590719Y-98494866D01*
X182609132Y-98483830D01*
X182628538Y-98474651D01*
X182648750Y-98467419D01*
X182669574Y-98462203D01*
X182690809Y-98459053D01*
X182712250Y-98458000D01*
X183149750Y-98458000D01*
X183171191Y-98459053D01*
X183171191Y-98459053D01*
G37*
D11*
X182931000Y-98933000D03*
D10*
G36*
X181596191Y-98459053D02*
X181617426Y-98462203D01*
X181638250Y-98467419D01*
X181658462Y-98474651D01*
X181677868Y-98483830D01*
X181696281Y-98494866D01*
X181713524Y-98507654D01*
X181729430Y-98522070D01*
X181743846Y-98537976D01*
X181756634Y-98555219D01*
X181767670Y-98573632D01*
X181776849Y-98593038D01*
X181784081Y-98613250D01*
X181789297Y-98634074D01*
X181792447Y-98655309D01*
X181793500Y-98676750D01*
X181793500Y-99189250D01*
X181792447Y-99210691D01*
X181789297Y-99231926D01*
X181784081Y-99252750D01*
X181776849Y-99272962D01*
X181767670Y-99292368D01*
X181756634Y-99310781D01*
X181743846Y-99328024D01*
X181729430Y-99343930D01*
X181713524Y-99358346D01*
X181696281Y-99371134D01*
X181677868Y-99382170D01*
X181658462Y-99391349D01*
X181638250Y-99398581D01*
X181617426Y-99403797D01*
X181596191Y-99406947D01*
X181574750Y-99408000D01*
X181137250Y-99408000D01*
X181115809Y-99406947D01*
X181094574Y-99403797D01*
X181073750Y-99398581D01*
X181053538Y-99391349D01*
X181034132Y-99382170D01*
X181015719Y-99371134D01*
X180998476Y-99358346D01*
X180982570Y-99343930D01*
X180968154Y-99328024D01*
X180955366Y-99310781D01*
X180944330Y-99292368D01*
X180935151Y-99272962D01*
X180927919Y-99252750D01*
X180922703Y-99231926D01*
X180919553Y-99210691D01*
X180918500Y-99189250D01*
X180918500Y-98676750D01*
X180919553Y-98655309D01*
X180922703Y-98634074D01*
X180927919Y-98613250D01*
X180935151Y-98593038D01*
X180944330Y-98573632D01*
X180955366Y-98555219D01*
X180968154Y-98537976D01*
X180982570Y-98522070D01*
X180998476Y-98507654D01*
X181015719Y-98494866D01*
X181034132Y-98483830D01*
X181053538Y-98474651D01*
X181073750Y-98467419D01*
X181094574Y-98462203D01*
X181115809Y-98459053D01*
X181137250Y-98458000D01*
X181574750Y-98458000D01*
X181596191Y-98459053D01*
X181596191Y-98459053D01*
G37*
D11*
X181356000Y-98933000D03*
G04 #@! TD*
D10*
G04 #@! TO.C,C9*
G36*
X175791691Y-104643553D02*
X175812926Y-104646703D01*
X175833750Y-104651919D01*
X175853962Y-104659151D01*
X175873368Y-104668330D01*
X175891781Y-104679366D01*
X175909024Y-104692154D01*
X175924930Y-104706570D01*
X175939346Y-104722476D01*
X175952134Y-104739719D01*
X175963170Y-104758132D01*
X175972349Y-104777538D01*
X175979581Y-104797750D01*
X175984797Y-104818574D01*
X175987947Y-104839809D01*
X175989000Y-104861250D01*
X175989000Y-105298750D01*
X175987947Y-105320191D01*
X175984797Y-105341426D01*
X175979581Y-105362250D01*
X175972349Y-105382462D01*
X175963170Y-105401868D01*
X175952134Y-105420281D01*
X175939346Y-105437524D01*
X175924930Y-105453430D01*
X175909024Y-105467846D01*
X175891781Y-105480634D01*
X175873368Y-105491670D01*
X175853962Y-105500849D01*
X175833750Y-105508081D01*
X175812926Y-105513297D01*
X175791691Y-105516447D01*
X175770250Y-105517500D01*
X175257750Y-105517500D01*
X175236309Y-105516447D01*
X175215074Y-105513297D01*
X175194250Y-105508081D01*
X175174038Y-105500849D01*
X175154632Y-105491670D01*
X175136219Y-105480634D01*
X175118976Y-105467846D01*
X175103070Y-105453430D01*
X175088654Y-105437524D01*
X175075866Y-105420281D01*
X175064830Y-105401868D01*
X175055651Y-105382462D01*
X175048419Y-105362250D01*
X175043203Y-105341426D01*
X175040053Y-105320191D01*
X175039000Y-105298750D01*
X175039000Y-104861250D01*
X175040053Y-104839809D01*
X175043203Y-104818574D01*
X175048419Y-104797750D01*
X175055651Y-104777538D01*
X175064830Y-104758132D01*
X175075866Y-104739719D01*
X175088654Y-104722476D01*
X175103070Y-104706570D01*
X175118976Y-104692154D01*
X175136219Y-104679366D01*
X175154632Y-104668330D01*
X175174038Y-104659151D01*
X175194250Y-104651919D01*
X175215074Y-104646703D01*
X175236309Y-104643553D01*
X175257750Y-104642500D01*
X175770250Y-104642500D01*
X175791691Y-104643553D01*
X175791691Y-104643553D01*
G37*
D11*
X175514000Y-105080000D03*
D10*
G36*
X175791691Y-103068553D02*
X175812926Y-103071703D01*
X175833750Y-103076919D01*
X175853962Y-103084151D01*
X175873368Y-103093330D01*
X175891781Y-103104366D01*
X175909024Y-103117154D01*
X175924930Y-103131570D01*
X175939346Y-103147476D01*
X175952134Y-103164719D01*
X175963170Y-103183132D01*
X175972349Y-103202538D01*
X175979581Y-103222750D01*
X175984797Y-103243574D01*
X175987947Y-103264809D01*
X175989000Y-103286250D01*
X175989000Y-103723750D01*
X175987947Y-103745191D01*
X175984797Y-103766426D01*
X175979581Y-103787250D01*
X175972349Y-103807462D01*
X175963170Y-103826868D01*
X175952134Y-103845281D01*
X175939346Y-103862524D01*
X175924930Y-103878430D01*
X175909024Y-103892846D01*
X175891781Y-103905634D01*
X175873368Y-103916670D01*
X175853962Y-103925849D01*
X175833750Y-103933081D01*
X175812926Y-103938297D01*
X175791691Y-103941447D01*
X175770250Y-103942500D01*
X175257750Y-103942500D01*
X175236309Y-103941447D01*
X175215074Y-103938297D01*
X175194250Y-103933081D01*
X175174038Y-103925849D01*
X175154632Y-103916670D01*
X175136219Y-103905634D01*
X175118976Y-103892846D01*
X175103070Y-103878430D01*
X175088654Y-103862524D01*
X175075866Y-103845281D01*
X175064830Y-103826868D01*
X175055651Y-103807462D01*
X175048419Y-103787250D01*
X175043203Y-103766426D01*
X175040053Y-103745191D01*
X175039000Y-103723750D01*
X175039000Y-103286250D01*
X175040053Y-103264809D01*
X175043203Y-103243574D01*
X175048419Y-103222750D01*
X175055651Y-103202538D01*
X175064830Y-103183132D01*
X175075866Y-103164719D01*
X175088654Y-103147476D01*
X175103070Y-103131570D01*
X175118976Y-103117154D01*
X175136219Y-103104366D01*
X175154632Y-103093330D01*
X175174038Y-103084151D01*
X175194250Y-103076919D01*
X175215074Y-103071703D01*
X175236309Y-103068553D01*
X175257750Y-103067500D01*
X175770250Y-103067500D01*
X175791691Y-103068553D01*
X175791691Y-103068553D01*
G37*
D11*
X175514000Y-103505000D03*
G04 #@! TD*
D10*
G04 #@! TO.C,C10*
G36*
X177315691Y-104643553D02*
X177336926Y-104646703D01*
X177357750Y-104651919D01*
X177377962Y-104659151D01*
X177397368Y-104668330D01*
X177415781Y-104679366D01*
X177433024Y-104692154D01*
X177448930Y-104706570D01*
X177463346Y-104722476D01*
X177476134Y-104739719D01*
X177487170Y-104758132D01*
X177496349Y-104777538D01*
X177503581Y-104797750D01*
X177508797Y-104818574D01*
X177511947Y-104839809D01*
X177513000Y-104861250D01*
X177513000Y-105298750D01*
X177511947Y-105320191D01*
X177508797Y-105341426D01*
X177503581Y-105362250D01*
X177496349Y-105382462D01*
X177487170Y-105401868D01*
X177476134Y-105420281D01*
X177463346Y-105437524D01*
X177448930Y-105453430D01*
X177433024Y-105467846D01*
X177415781Y-105480634D01*
X177397368Y-105491670D01*
X177377962Y-105500849D01*
X177357750Y-105508081D01*
X177336926Y-105513297D01*
X177315691Y-105516447D01*
X177294250Y-105517500D01*
X176781750Y-105517500D01*
X176760309Y-105516447D01*
X176739074Y-105513297D01*
X176718250Y-105508081D01*
X176698038Y-105500849D01*
X176678632Y-105491670D01*
X176660219Y-105480634D01*
X176642976Y-105467846D01*
X176627070Y-105453430D01*
X176612654Y-105437524D01*
X176599866Y-105420281D01*
X176588830Y-105401868D01*
X176579651Y-105382462D01*
X176572419Y-105362250D01*
X176567203Y-105341426D01*
X176564053Y-105320191D01*
X176563000Y-105298750D01*
X176563000Y-104861250D01*
X176564053Y-104839809D01*
X176567203Y-104818574D01*
X176572419Y-104797750D01*
X176579651Y-104777538D01*
X176588830Y-104758132D01*
X176599866Y-104739719D01*
X176612654Y-104722476D01*
X176627070Y-104706570D01*
X176642976Y-104692154D01*
X176660219Y-104679366D01*
X176678632Y-104668330D01*
X176698038Y-104659151D01*
X176718250Y-104651919D01*
X176739074Y-104646703D01*
X176760309Y-104643553D01*
X176781750Y-104642500D01*
X177294250Y-104642500D01*
X177315691Y-104643553D01*
X177315691Y-104643553D01*
G37*
D11*
X177038000Y-105080000D03*
D10*
G36*
X177315691Y-103068553D02*
X177336926Y-103071703D01*
X177357750Y-103076919D01*
X177377962Y-103084151D01*
X177397368Y-103093330D01*
X177415781Y-103104366D01*
X177433024Y-103117154D01*
X177448930Y-103131570D01*
X177463346Y-103147476D01*
X177476134Y-103164719D01*
X177487170Y-103183132D01*
X177496349Y-103202538D01*
X177503581Y-103222750D01*
X177508797Y-103243574D01*
X177511947Y-103264809D01*
X177513000Y-103286250D01*
X177513000Y-103723750D01*
X177511947Y-103745191D01*
X177508797Y-103766426D01*
X177503581Y-103787250D01*
X177496349Y-103807462D01*
X177487170Y-103826868D01*
X177476134Y-103845281D01*
X177463346Y-103862524D01*
X177448930Y-103878430D01*
X177433024Y-103892846D01*
X177415781Y-103905634D01*
X177397368Y-103916670D01*
X177377962Y-103925849D01*
X177357750Y-103933081D01*
X177336926Y-103938297D01*
X177315691Y-103941447D01*
X177294250Y-103942500D01*
X176781750Y-103942500D01*
X176760309Y-103941447D01*
X176739074Y-103938297D01*
X176718250Y-103933081D01*
X176698038Y-103925849D01*
X176678632Y-103916670D01*
X176660219Y-103905634D01*
X176642976Y-103892846D01*
X176627070Y-103878430D01*
X176612654Y-103862524D01*
X176599866Y-103845281D01*
X176588830Y-103826868D01*
X176579651Y-103807462D01*
X176572419Y-103787250D01*
X176567203Y-103766426D01*
X176564053Y-103745191D01*
X176563000Y-103723750D01*
X176563000Y-103286250D01*
X176564053Y-103264809D01*
X176567203Y-103243574D01*
X176572419Y-103222750D01*
X176579651Y-103202538D01*
X176588830Y-103183132D01*
X176599866Y-103164719D01*
X176612654Y-103147476D01*
X176627070Y-103131570D01*
X176642976Y-103117154D01*
X176660219Y-103104366D01*
X176678632Y-103093330D01*
X176698038Y-103084151D01*
X176718250Y-103076919D01*
X176739074Y-103071703D01*
X176760309Y-103068553D01*
X176781750Y-103067500D01*
X177294250Y-103067500D01*
X177315691Y-103068553D01*
X177315691Y-103068553D01*
G37*
D11*
X177038000Y-103505000D03*
G04 #@! TD*
D10*
G04 #@! TO.C,C11*
G36*
X163345691Y-95423053D02*
X163366926Y-95426203D01*
X163387750Y-95431419D01*
X163407962Y-95438651D01*
X163427368Y-95447830D01*
X163445781Y-95458866D01*
X163463024Y-95471654D01*
X163478930Y-95486070D01*
X163493346Y-95501976D01*
X163506134Y-95519219D01*
X163517170Y-95537632D01*
X163526349Y-95557038D01*
X163533581Y-95577250D01*
X163538797Y-95598074D01*
X163541947Y-95619309D01*
X163543000Y-95640750D01*
X163543000Y-96078250D01*
X163541947Y-96099691D01*
X163538797Y-96120926D01*
X163533581Y-96141750D01*
X163526349Y-96161962D01*
X163517170Y-96181368D01*
X163506134Y-96199781D01*
X163493346Y-96217024D01*
X163478930Y-96232930D01*
X163463024Y-96247346D01*
X163445781Y-96260134D01*
X163427368Y-96271170D01*
X163407962Y-96280349D01*
X163387750Y-96287581D01*
X163366926Y-96292797D01*
X163345691Y-96295947D01*
X163324250Y-96297000D01*
X162811750Y-96297000D01*
X162790309Y-96295947D01*
X162769074Y-96292797D01*
X162748250Y-96287581D01*
X162728038Y-96280349D01*
X162708632Y-96271170D01*
X162690219Y-96260134D01*
X162672976Y-96247346D01*
X162657070Y-96232930D01*
X162642654Y-96217024D01*
X162629866Y-96199781D01*
X162618830Y-96181368D01*
X162609651Y-96161962D01*
X162602419Y-96141750D01*
X162597203Y-96120926D01*
X162594053Y-96099691D01*
X162593000Y-96078250D01*
X162593000Y-95640750D01*
X162594053Y-95619309D01*
X162597203Y-95598074D01*
X162602419Y-95577250D01*
X162609651Y-95557038D01*
X162618830Y-95537632D01*
X162629866Y-95519219D01*
X162642654Y-95501976D01*
X162657070Y-95486070D01*
X162672976Y-95471654D01*
X162690219Y-95458866D01*
X162708632Y-95447830D01*
X162728038Y-95438651D01*
X162748250Y-95431419D01*
X162769074Y-95426203D01*
X162790309Y-95423053D01*
X162811750Y-95422000D01*
X163324250Y-95422000D01*
X163345691Y-95423053D01*
X163345691Y-95423053D01*
G37*
D11*
X163068000Y-95859500D03*
D10*
G36*
X163345691Y-96998053D02*
X163366926Y-97001203D01*
X163387750Y-97006419D01*
X163407962Y-97013651D01*
X163427368Y-97022830D01*
X163445781Y-97033866D01*
X163463024Y-97046654D01*
X163478930Y-97061070D01*
X163493346Y-97076976D01*
X163506134Y-97094219D01*
X163517170Y-97112632D01*
X163526349Y-97132038D01*
X163533581Y-97152250D01*
X163538797Y-97173074D01*
X163541947Y-97194309D01*
X163543000Y-97215750D01*
X163543000Y-97653250D01*
X163541947Y-97674691D01*
X163538797Y-97695926D01*
X163533581Y-97716750D01*
X163526349Y-97736962D01*
X163517170Y-97756368D01*
X163506134Y-97774781D01*
X163493346Y-97792024D01*
X163478930Y-97807930D01*
X163463024Y-97822346D01*
X163445781Y-97835134D01*
X163427368Y-97846170D01*
X163407962Y-97855349D01*
X163387750Y-97862581D01*
X163366926Y-97867797D01*
X163345691Y-97870947D01*
X163324250Y-97872000D01*
X162811750Y-97872000D01*
X162790309Y-97870947D01*
X162769074Y-97867797D01*
X162748250Y-97862581D01*
X162728038Y-97855349D01*
X162708632Y-97846170D01*
X162690219Y-97835134D01*
X162672976Y-97822346D01*
X162657070Y-97807930D01*
X162642654Y-97792024D01*
X162629866Y-97774781D01*
X162618830Y-97756368D01*
X162609651Y-97736962D01*
X162602419Y-97716750D01*
X162597203Y-97695926D01*
X162594053Y-97674691D01*
X162593000Y-97653250D01*
X162593000Y-97215750D01*
X162594053Y-97194309D01*
X162597203Y-97173074D01*
X162602419Y-97152250D01*
X162609651Y-97132038D01*
X162618830Y-97112632D01*
X162629866Y-97094219D01*
X162642654Y-97076976D01*
X162657070Y-97061070D01*
X162672976Y-97046654D01*
X162690219Y-97033866D01*
X162708632Y-97022830D01*
X162728038Y-97013651D01*
X162748250Y-97006419D01*
X162769074Y-97001203D01*
X162790309Y-96998053D01*
X162811750Y-96997000D01*
X163324250Y-96997000D01*
X163345691Y-96998053D01*
X163345691Y-96998053D01*
G37*
D11*
X163068000Y-97434500D03*
G04 #@! TD*
D10*
G04 #@! TO.C,C12*
G36*
X146925191Y-104936053D02*
X146946426Y-104939203D01*
X146967250Y-104944419D01*
X146987462Y-104951651D01*
X147006868Y-104960830D01*
X147025281Y-104971866D01*
X147042524Y-104984654D01*
X147058430Y-104999070D01*
X147072846Y-105014976D01*
X147085634Y-105032219D01*
X147096670Y-105050632D01*
X147105849Y-105070038D01*
X147113081Y-105090250D01*
X147118297Y-105111074D01*
X147121447Y-105132309D01*
X147122500Y-105153750D01*
X147122500Y-105666250D01*
X147121447Y-105687691D01*
X147118297Y-105708926D01*
X147113081Y-105729750D01*
X147105849Y-105749962D01*
X147096670Y-105769368D01*
X147085634Y-105787781D01*
X147072846Y-105805024D01*
X147058430Y-105820930D01*
X147042524Y-105835346D01*
X147025281Y-105848134D01*
X147006868Y-105859170D01*
X146987462Y-105868349D01*
X146967250Y-105875581D01*
X146946426Y-105880797D01*
X146925191Y-105883947D01*
X146903750Y-105885000D01*
X146466250Y-105885000D01*
X146444809Y-105883947D01*
X146423574Y-105880797D01*
X146402750Y-105875581D01*
X146382538Y-105868349D01*
X146363132Y-105859170D01*
X146344719Y-105848134D01*
X146327476Y-105835346D01*
X146311570Y-105820930D01*
X146297154Y-105805024D01*
X146284366Y-105787781D01*
X146273330Y-105769368D01*
X146264151Y-105749962D01*
X146256919Y-105729750D01*
X146251703Y-105708926D01*
X146248553Y-105687691D01*
X146247500Y-105666250D01*
X146247500Y-105153750D01*
X146248553Y-105132309D01*
X146251703Y-105111074D01*
X146256919Y-105090250D01*
X146264151Y-105070038D01*
X146273330Y-105050632D01*
X146284366Y-105032219D01*
X146297154Y-105014976D01*
X146311570Y-104999070D01*
X146327476Y-104984654D01*
X146344719Y-104971866D01*
X146363132Y-104960830D01*
X146382538Y-104951651D01*
X146402750Y-104944419D01*
X146423574Y-104939203D01*
X146444809Y-104936053D01*
X146466250Y-104935000D01*
X146903750Y-104935000D01*
X146925191Y-104936053D01*
X146925191Y-104936053D01*
G37*
D11*
X146685000Y-105410000D03*
D10*
G36*
X145350191Y-104936053D02*
X145371426Y-104939203D01*
X145392250Y-104944419D01*
X145412462Y-104951651D01*
X145431868Y-104960830D01*
X145450281Y-104971866D01*
X145467524Y-104984654D01*
X145483430Y-104999070D01*
X145497846Y-105014976D01*
X145510634Y-105032219D01*
X145521670Y-105050632D01*
X145530849Y-105070038D01*
X145538081Y-105090250D01*
X145543297Y-105111074D01*
X145546447Y-105132309D01*
X145547500Y-105153750D01*
X145547500Y-105666250D01*
X145546447Y-105687691D01*
X145543297Y-105708926D01*
X145538081Y-105729750D01*
X145530849Y-105749962D01*
X145521670Y-105769368D01*
X145510634Y-105787781D01*
X145497846Y-105805024D01*
X145483430Y-105820930D01*
X145467524Y-105835346D01*
X145450281Y-105848134D01*
X145431868Y-105859170D01*
X145412462Y-105868349D01*
X145392250Y-105875581D01*
X145371426Y-105880797D01*
X145350191Y-105883947D01*
X145328750Y-105885000D01*
X144891250Y-105885000D01*
X144869809Y-105883947D01*
X144848574Y-105880797D01*
X144827750Y-105875581D01*
X144807538Y-105868349D01*
X144788132Y-105859170D01*
X144769719Y-105848134D01*
X144752476Y-105835346D01*
X144736570Y-105820930D01*
X144722154Y-105805024D01*
X144709366Y-105787781D01*
X144698330Y-105769368D01*
X144689151Y-105749962D01*
X144681919Y-105729750D01*
X144676703Y-105708926D01*
X144673553Y-105687691D01*
X144672500Y-105666250D01*
X144672500Y-105153750D01*
X144673553Y-105132309D01*
X144676703Y-105111074D01*
X144681919Y-105090250D01*
X144689151Y-105070038D01*
X144698330Y-105050632D01*
X144709366Y-105032219D01*
X144722154Y-105014976D01*
X144736570Y-104999070D01*
X144752476Y-104984654D01*
X144769719Y-104971866D01*
X144788132Y-104960830D01*
X144807538Y-104951651D01*
X144827750Y-104944419D01*
X144848574Y-104939203D01*
X144869809Y-104936053D01*
X144891250Y-104935000D01*
X145328750Y-104935000D01*
X145350191Y-104936053D01*
X145350191Y-104936053D01*
G37*
D11*
X145110000Y-105410000D03*
G04 #@! TD*
D10*
G04 #@! TO.C,C13*
G36*
X148486691Y-104795553D02*
X148507926Y-104798703D01*
X148528750Y-104803919D01*
X148548962Y-104811151D01*
X148568368Y-104820330D01*
X148586781Y-104831366D01*
X148604024Y-104844154D01*
X148619930Y-104858570D01*
X148634346Y-104874476D01*
X148647134Y-104891719D01*
X148658170Y-104910132D01*
X148667349Y-104929538D01*
X148674581Y-104949750D01*
X148679797Y-104970574D01*
X148682947Y-104991809D01*
X148684000Y-105013250D01*
X148684000Y-105450750D01*
X148682947Y-105472191D01*
X148679797Y-105493426D01*
X148674581Y-105514250D01*
X148667349Y-105534462D01*
X148658170Y-105553868D01*
X148647134Y-105572281D01*
X148634346Y-105589524D01*
X148619930Y-105605430D01*
X148604024Y-105619846D01*
X148586781Y-105632634D01*
X148568368Y-105643670D01*
X148548962Y-105652849D01*
X148528750Y-105660081D01*
X148507926Y-105665297D01*
X148486691Y-105668447D01*
X148465250Y-105669500D01*
X147952750Y-105669500D01*
X147931309Y-105668447D01*
X147910074Y-105665297D01*
X147889250Y-105660081D01*
X147869038Y-105652849D01*
X147849632Y-105643670D01*
X147831219Y-105632634D01*
X147813976Y-105619846D01*
X147798070Y-105605430D01*
X147783654Y-105589524D01*
X147770866Y-105572281D01*
X147759830Y-105553868D01*
X147750651Y-105534462D01*
X147743419Y-105514250D01*
X147738203Y-105493426D01*
X147735053Y-105472191D01*
X147734000Y-105450750D01*
X147734000Y-105013250D01*
X147735053Y-104991809D01*
X147738203Y-104970574D01*
X147743419Y-104949750D01*
X147750651Y-104929538D01*
X147759830Y-104910132D01*
X147770866Y-104891719D01*
X147783654Y-104874476D01*
X147798070Y-104858570D01*
X147813976Y-104844154D01*
X147831219Y-104831366D01*
X147849632Y-104820330D01*
X147869038Y-104811151D01*
X147889250Y-104803919D01*
X147910074Y-104798703D01*
X147931309Y-104795553D01*
X147952750Y-104794500D01*
X148465250Y-104794500D01*
X148486691Y-104795553D01*
X148486691Y-104795553D01*
G37*
D11*
X148209000Y-105232000D03*
D10*
G36*
X148486691Y-106370553D02*
X148507926Y-106373703D01*
X148528750Y-106378919D01*
X148548962Y-106386151D01*
X148568368Y-106395330D01*
X148586781Y-106406366D01*
X148604024Y-106419154D01*
X148619930Y-106433570D01*
X148634346Y-106449476D01*
X148647134Y-106466719D01*
X148658170Y-106485132D01*
X148667349Y-106504538D01*
X148674581Y-106524750D01*
X148679797Y-106545574D01*
X148682947Y-106566809D01*
X148684000Y-106588250D01*
X148684000Y-107025750D01*
X148682947Y-107047191D01*
X148679797Y-107068426D01*
X148674581Y-107089250D01*
X148667349Y-107109462D01*
X148658170Y-107128868D01*
X148647134Y-107147281D01*
X148634346Y-107164524D01*
X148619930Y-107180430D01*
X148604024Y-107194846D01*
X148586781Y-107207634D01*
X148568368Y-107218670D01*
X148548962Y-107227849D01*
X148528750Y-107235081D01*
X148507926Y-107240297D01*
X148486691Y-107243447D01*
X148465250Y-107244500D01*
X147952750Y-107244500D01*
X147931309Y-107243447D01*
X147910074Y-107240297D01*
X147889250Y-107235081D01*
X147869038Y-107227849D01*
X147849632Y-107218670D01*
X147831219Y-107207634D01*
X147813976Y-107194846D01*
X147798070Y-107180430D01*
X147783654Y-107164524D01*
X147770866Y-107147281D01*
X147759830Y-107128868D01*
X147750651Y-107109462D01*
X147743419Y-107089250D01*
X147738203Y-107068426D01*
X147735053Y-107047191D01*
X147734000Y-107025750D01*
X147734000Y-106588250D01*
X147735053Y-106566809D01*
X147738203Y-106545574D01*
X147743419Y-106524750D01*
X147750651Y-106504538D01*
X147759830Y-106485132D01*
X147770866Y-106466719D01*
X147783654Y-106449476D01*
X147798070Y-106433570D01*
X147813976Y-106419154D01*
X147831219Y-106406366D01*
X147849632Y-106395330D01*
X147869038Y-106386151D01*
X147889250Y-106378919D01*
X147910074Y-106373703D01*
X147931309Y-106370553D01*
X147952750Y-106369500D01*
X148465250Y-106369500D01*
X148486691Y-106370553D01*
X148486691Y-106370553D01*
G37*
D11*
X148209000Y-106807000D03*
G04 #@! TD*
D10*
G04 #@! TO.C,R2*
G36*
X182268691Y-87447553D02*
X182289926Y-87450703D01*
X182310750Y-87455919D01*
X182330962Y-87463151D01*
X182350368Y-87472330D01*
X182368781Y-87483366D01*
X182386024Y-87496154D01*
X182401930Y-87510570D01*
X182416346Y-87526476D01*
X182429134Y-87543719D01*
X182440170Y-87562132D01*
X182449349Y-87581538D01*
X182456581Y-87601750D01*
X182461797Y-87622574D01*
X182464947Y-87643809D01*
X182466000Y-87665250D01*
X182466000Y-88102750D01*
X182464947Y-88124191D01*
X182461797Y-88145426D01*
X182456581Y-88166250D01*
X182449349Y-88186462D01*
X182440170Y-88205868D01*
X182429134Y-88224281D01*
X182416346Y-88241524D01*
X182401930Y-88257430D01*
X182386024Y-88271846D01*
X182368781Y-88284634D01*
X182350368Y-88295670D01*
X182330962Y-88304849D01*
X182310750Y-88312081D01*
X182289926Y-88317297D01*
X182268691Y-88320447D01*
X182247250Y-88321500D01*
X181734750Y-88321500D01*
X181713309Y-88320447D01*
X181692074Y-88317297D01*
X181671250Y-88312081D01*
X181651038Y-88304849D01*
X181631632Y-88295670D01*
X181613219Y-88284634D01*
X181595976Y-88271846D01*
X181580070Y-88257430D01*
X181565654Y-88241524D01*
X181552866Y-88224281D01*
X181541830Y-88205868D01*
X181532651Y-88186462D01*
X181525419Y-88166250D01*
X181520203Y-88145426D01*
X181517053Y-88124191D01*
X181516000Y-88102750D01*
X181516000Y-87665250D01*
X181517053Y-87643809D01*
X181520203Y-87622574D01*
X181525419Y-87601750D01*
X181532651Y-87581538D01*
X181541830Y-87562132D01*
X181552866Y-87543719D01*
X181565654Y-87526476D01*
X181580070Y-87510570D01*
X181595976Y-87496154D01*
X181613219Y-87483366D01*
X181631632Y-87472330D01*
X181651038Y-87463151D01*
X181671250Y-87455919D01*
X181692074Y-87450703D01*
X181713309Y-87447553D01*
X181734750Y-87446500D01*
X182247250Y-87446500D01*
X182268691Y-87447553D01*
X182268691Y-87447553D01*
G37*
D11*
X181991000Y-87884000D03*
D10*
G36*
X182268691Y-89022553D02*
X182289926Y-89025703D01*
X182310750Y-89030919D01*
X182330962Y-89038151D01*
X182350368Y-89047330D01*
X182368781Y-89058366D01*
X182386024Y-89071154D01*
X182401930Y-89085570D01*
X182416346Y-89101476D01*
X182429134Y-89118719D01*
X182440170Y-89137132D01*
X182449349Y-89156538D01*
X182456581Y-89176750D01*
X182461797Y-89197574D01*
X182464947Y-89218809D01*
X182466000Y-89240250D01*
X182466000Y-89677750D01*
X182464947Y-89699191D01*
X182461797Y-89720426D01*
X182456581Y-89741250D01*
X182449349Y-89761462D01*
X182440170Y-89780868D01*
X182429134Y-89799281D01*
X182416346Y-89816524D01*
X182401930Y-89832430D01*
X182386024Y-89846846D01*
X182368781Y-89859634D01*
X182350368Y-89870670D01*
X182330962Y-89879849D01*
X182310750Y-89887081D01*
X182289926Y-89892297D01*
X182268691Y-89895447D01*
X182247250Y-89896500D01*
X181734750Y-89896500D01*
X181713309Y-89895447D01*
X181692074Y-89892297D01*
X181671250Y-89887081D01*
X181651038Y-89879849D01*
X181631632Y-89870670D01*
X181613219Y-89859634D01*
X181595976Y-89846846D01*
X181580070Y-89832430D01*
X181565654Y-89816524D01*
X181552866Y-89799281D01*
X181541830Y-89780868D01*
X181532651Y-89761462D01*
X181525419Y-89741250D01*
X181520203Y-89720426D01*
X181517053Y-89699191D01*
X181516000Y-89677750D01*
X181516000Y-89240250D01*
X181517053Y-89218809D01*
X181520203Y-89197574D01*
X181525419Y-89176750D01*
X181532651Y-89156538D01*
X181541830Y-89137132D01*
X181552866Y-89118719D01*
X181565654Y-89101476D01*
X181580070Y-89085570D01*
X181595976Y-89071154D01*
X181613219Y-89058366D01*
X181631632Y-89047330D01*
X181651038Y-89038151D01*
X181671250Y-89030919D01*
X181692074Y-89025703D01*
X181713309Y-89022553D01*
X181734750Y-89021500D01*
X182247250Y-89021500D01*
X182268691Y-89022553D01*
X182268691Y-89022553D01*
G37*
D11*
X181991000Y-89459000D03*
G04 #@! TD*
D15*
G04 #@! TO.C,U2*
X144609400Y-106691600D03*
X144609400Y-107191600D03*
X144609400Y-107691600D03*
X144609400Y-108191600D03*
D16*
X146284400Y-106516600D03*
X145784400Y-106516600D03*
X145284400Y-106516600D03*
D15*
X146959400Y-106691600D03*
X146959400Y-107191600D03*
X146959400Y-107691600D03*
X146959400Y-108191600D03*
D16*
X146284400Y-108366600D03*
X145784400Y-108366600D03*
X145284400Y-108366600D03*
G04 #@! TD*
D17*
G04 #@! TO.C,BT1*
X159662000Y-93218000D03*
X133962000Y-93218000D03*
G04 #@! TD*
D10*
G04 #@! TO.C,C2*
G36*
X173505691Y-86380553D02*
X173526926Y-86383703D01*
X173547750Y-86388919D01*
X173567962Y-86396151D01*
X173587368Y-86405330D01*
X173605781Y-86416366D01*
X173623024Y-86429154D01*
X173638930Y-86443570D01*
X173653346Y-86459476D01*
X173666134Y-86476719D01*
X173677170Y-86495132D01*
X173686349Y-86514538D01*
X173693581Y-86534750D01*
X173698797Y-86555574D01*
X173701947Y-86576809D01*
X173703000Y-86598250D01*
X173703000Y-87035750D01*
X173701947Y-87057191D01*
X173698797Y-87078426D01*
X173693581Y-87099250D01*
X173686349Y-87119462D01*
X173677170Y-87138868D01*
X173666134Y-87157281D01*
X173653346Y-87174524D01*
X173638930Y-87190430D01*
X173623024Y-87204846D01*
X173605781Y-87217634D01*
X173587368Y-87228670D01*
X173567962Y-87237849D01*
X173547750Y-87245081D01*
X173526926Y-87250297D01*
X173505691Y-87253447D01*
X173484250Y-87254500D01*
X172971750Y-87254500D01*
X172950309Y-87253447D01*
X172929074Y-87250297D01*
X172908250Y-87245081D01*
X172888038Y-87237849D01*
X172868632Y-87228670D01*
X172850219Y-87217634D01*
X172832976Y-87204846D01*
X172817070Y-87190430D01*
X172802654Y-87174524D01*
X172789866Y-87157281D01*
X172778830Y-87138868D01*
X172769651Y-87119462D01*
X172762419Y-87099250D01*
X172757203Y-87078426D01*
X172754053Y-87057191D01*
X172753000Y-87035750D01*
X172753000Y-86598250D01*
X172754053Y-86576809D01*
X172757203Y-86555574D01*
X172762419Y-86534750D01*
X172769651Y-86514538D01*
X172778830Y-86495132D01*
X172789866Y-86476719D01*
X172802654Y-86459476D01*
X172817070Y-86443570D01*
X172832976Y-86429154D01*
X172850219Y-86416366D01*
X172868632Y-86405330D01*
X172888038Y-86396151D01*
X172908250Y-86388919D01*
X172929074Y-86383703D01*
X172950309Y-86380553D01*
X172971750Y-86379500D01*
X173484250Y-86379500D01*
X173505691Y-86380553D01*
X173505691Y-86380553D01*
G37*
D11*
X173228000Y-86817000D03*
D10*
G36*
X173505691Y-87955553D02*
X173526926Y-87958703D01*
X173547750Y-87963919D01*
X173567962Y-87971151D01*
X173587368Y-87980330D01*
X173605781Y-87991366D01*
X173623024Y-88004154D01*
X173638930Y-88018570D01*
X173653346Y-88034476D01*
X173666134Y-88051719D01*
X173677170Y-88070132D01*
X173686349Y-88089538D01*
X173693581Y-88109750D01*
X173698797Y-88130574D01*
X173701947Y-88151809D01*
X173703000Y-88173250D01*
X173703000Y-88610750D01*
X173701947Y-88632191D01*
X173698797Y-88653426D01*
X173693581Y-88674250D01*
X173686349Y-88694462D01*
X173677170Y-88713868D01*
X173666134Y-88732281D01*
X173653346Y-88749524D01*
X173638930Y-88765430D01*
X173623024Y-88779846D01*
X173605781Y-88792634D01*
X173587368Y-88803670D01*
X173567962Y-88812849D01*
X173547750Y-88820081D01*
X173526926Y-88825297D01*
X173505691Y-88828447D01*
X173484250Y-88829500D01*
X172971750Y-88829500D01*
X172950309Y-88828447D01*
X172929074Y-88825297D01*
X172908250Y-88820081D01*
X172888038Y-88812849D01*
X172868632Y-88803670D01*
X172850219Y-88792634D01*
X172832976Y-88779846D01*
X172817070Y-88765430D01*
X172802654Y-88749524D01*
X172789866Y-88732281D01*
X172778830Y-88713868D01*
X172769651Y-88694462D01*
X172762419Y-88674250D01*
X172757203Y-88653426D01*
X172754053Y-88632191D01*
X172753000Y-88610750D01*
X172753000Y-88173250D01*
X172754053Y-88151809D01*
X172757203Y-88130574D01*
X172762419Y-88109750D01*
X172769651Y-88089538D01*
X172778830Y-88070132D01*
X172789866Y-88051719D01*
X172802654Y-88034476D01*
X172817070Y-88018570D01*
X172832976Y-88004154D01*
X172850219Y-87991366D01*
X172868632Y-87980330D01*
X172888038Y-87971151D01*
X172908250Y-87963919D01*
X172929074Y-87958703D01*
X172950309Y-87955553D01*
X172971750Y-87954500D01*
X173484250Y-87954500D01*
X173505691Y-87955553D01*
X173505691Y-87955553D01*
G37*
D11*
X173228000Y-88392000D03*
G04 #@! TD*
D10*
G04 #@! TO.C,C14*
G36*
X150010691Y-106370553D02*
X150031926Y-106373703D01*
X150052750Y-106378919D01*
X150072962Y-106386151D01*
X150092368Y-106395330D01*
X150110781Y-106406366D01*
X150128024Y-106419154D01*
X150143930Y-106433570D01*
X150158346Y-106449476D01*
X150171134Y-106466719D01*
X150182170Y-106485132D01*
X150191349Y-106504538D01*
X150198581Y-106524750D01*
X150203797Y-106545574D01*
X150206947Y-106566809D01*
X150208000Y-106588250D01*
X150208000Y-107025750D01*
X150206947Y-107047191D01*
X150203797Y-107068426D01*
X150198581Y-107089250D01*
X150191349Y-107109462D01*
X150182170Y-107128868D01*
X150171134Y-107147281D01*
X150158346Y-107164524D01*
X150143930Y-107180430D01*
X150128024Y-107194846D01*
X150110781Y-107207634D01*
X150092368Y-107218670D01*
X150072962Y-107227849D01*
X150052750Y-107235081D01*
X150031926Y-107240297D01*
X150010691Y-107243447D01*
X149989250Y-107244500D01*
X149476750Y-107244500D01*
X149455309Y-107243447D01*
X149434074Y-107240297D01*
X149413250Y-107235081D01*
X149393038Y-107227849D01*
X149373632Y-107218670D01*
X149355219Y-107207634D01*
X149337976Y-107194846D01*
X149322070Y-107180430D01*
X149307654Y-107164524D01*
X149294866Y-107147281D01*
X149283830Y-107128868D01*
X149274651Y-107109462D01*
X149267419Y-107089250D01*
X149262203Y-107068426D01*
X149259053Y-107047191D01*
X149258000Y-107025750D01*
X149258000Y-106588250D01*
X149259053Y-106566809D01*
X149262203Y-106545574D01*
X149267419Y-106524750D01*
X149274651Y-106504538D01*
X149283830Y-106485132D01*
X149294866Y-106466719D01*
X149307654Y-106449476D01*
X149322070Y-106433570D01*
X149337976Y-106419154D01*
X149355219Y-106406366D01*
X149373632Y-106395330D01*
X149393038Y-106386151D01*
X149413250Y-106378919D01*
X149434074Y-106373703D01*
X149455309Y-106370553D01*
X149476750Y-106369500D01*
X149989250Y-106369500D01*
X150010691Y-106370553D01*
X150010691Y-106370553D01*
G37*
D11*
X149733000Y-106807000D03*
D10*
G36*
X150010691Y-104795553D02*
X150031926Y-104798703D01*
X150052750Y-104803919D01*
X150072962Y-104811151D01*
X150092368Y-104820330D01*
X150110781Y-104831366D01*
X150128024Y-104844154D01*
X150143930Y-104858570D01*
X150158346Y-104874476D01*
X150171134Y-104891719D01*
X150182170Y-104910132D01*
X150191349Y-104929538D01*
X150198581Y-104949750D01*
X150203797Y-104970574D01*
X150206947Y-104991809D01*
X150208000Y-105013250D01*
X150208000Y-105450750D01*
X150206947Y-105472191D01*
X150203797Y-105493426D01*
X150198581Y-105514250D01*
X150191349Y-105534462D01*
X150182170Y-105553868D01*
X150171134Y-105572281D01*
X150158346Y-105589524D01*
X150143930Y-105605430D01*
X150128024Y-105619846D01*
X150110781Y-105632634D01*
X150092368Y-105643670D01*
X150072962Y-105652849D01*
X150052750Y-105660081D01*
X150031926Y-105665297D01*
X150010691Y-105668447D01*
X149989250Y-105669500D01*
X149476750Y-105669500D01*
X149455309Y-105668447D01*
X149434074Y-105665297D01*
X149413250Y-105660081D01*
X149393038Y-105652849D01*
X149373632Y-105643670D01*
X149355219Y-105632634D01*
X149337976Y-105619846D01*
X149322070Y-105605430D01*
X149307654Y-105589524D01*
X149294866Y-105572281D01*
X149283830Y-105553868D01*
X149274651Y-105534462D01*
X149267419Y-105514250D01*
X149262203Y-105493426D01*
X149259053Y-105472191D01*
X149258000Y-105450750D01*
X149258000Y-105013250D01*
X149259053Y-104991809D01*
X149262203Y-104970574D01*
X149267419Y-104949750D01*
X149274651Y-104929538D01*
X149283830Y-104910132D01*
X149294866Y-104891719D01*
X149307654Y-104874476D01*
X149322070Y-104858570D01*
X149337976Y-104844154D01*
X149355219Y-104831366D01*
X149373632Y-104820330D01*
X149393038Y-104811151D01*
X149413250Y-104803919D01*
X149434074Y-104798703D01*
X149455309Y-104795553D01*
X149476750Y-104794500D01*
X149989250Y-104794500D01*
X150010691Y-104795553D01*
X150010691Y-104795553D01*
G37*
D11*
X149733000Y-105232000D03*
G04 #@! TD*
D10*
G04 #@! TO.C,C15*
G36*
X177532191Y-85886053D02*
X177553426Y-85889203D01*
X177574250Y-85894419D01*
X177594462Y-85901651D01*
X177613868Y-85910830D01*
X177632281Y-85921866D01*
X177649524Y-85934654D01*
X177665430Y-85949070D01*
X177679846Y-85964976D01*
X177692634Y-85982219D01*
X177703670Y-86000632D01*
X177712849Y-86020038D01*
X177720081Y-86040250D01*
X177725297Y-86061074D01*
X177728447Y-86082309D01*
X177729500Y-86103750D01*
X177729500Y-86616250D01*
X177728447Y-86637691D01*
X177725297Y-86658926D01*
X177720081Y-86679750D01*
X177712849Y-86699962D01*
X177703670Y-86719368D01*
X177692634Y-86737781D01*
X177679846Y-86755024D01*
X177665430Y-86770930D01*
X177649524Y-86785346D01*
X177632281Y-86798134D01*
X177613868Y-86809170D01*
X177594462Y-86818349D01*
X177574250Y-86825581D01*
X177553426Y-86830797D01*
X177532191Y-86833947D01*
X177510750Y-86835000D01*
X177073250Y-86835000D01*
X177051809Y-86833947D01*
X177030574Y-86830797D01*
X177009750Y-86825581D01*
X176989538Y-86818349D01*
X176970132Y-86809170D01*
X176951719Y-86798134D01*
X176934476Y-86785346D01*
X176918570Y-86770930D01*
X176904154Y-86755024D01*
X176891366Y-86737781D01*
X176880330Y-86719368D01*
X176871151Y-86699962D01*
X176863919Y-86679750D01*
X176858703Y-86658926D01*
X176855553Y-86637691D01*
X176854500Y-86616250D01*
X176854500Y-86103750D01*
X176855553Y-86082309D01*
X176858703Y-86061074D01*
X176863919Y-86040250D01*
X176871151Y-86020038D01*
X176880330Y-86000632D01*
X176891366Y-85982219D01*
X176904154Y-85964976D01*
X176918570Y-85949070D01*
X176934476Y-85934654D01*
X176951719Y-85921866D01*
X176970132Y-85910830D01*
X176989538Y-85901651D01*
X177009750Y-85894419D01*
X177030574Y-85889203D01*
X177051809Y-85886053D01*
X177073250Y-85885000D01*
X177510750Y-85885000D01*
X177532191Y-85886053D01*
X177532191Y-85886053D01*
G37*
D11*
X177292000Y-86360000D03*
D10*
G36*
X175957191Y-85886053D02*
X175978426Y-85889203D01*
X175999250Y-85894419D01*
X176019462Y-85901651D01*
X176038868Y-85910830D01*
X176057281Y-85921866D01*
X176074524Y-85934654D01*
X176090430Y-85949070D01*
X176104846Y-85964976D01*
X176117634Y-85982219D01*
X176128670Y-86000632D01*
X176137849Y-86020038D01*
X176145081Y-86040250D01*
X176150297Y-86061074D01*
X176153447Y-86082309D01*
X176154500Y-86103750D01*
X176154500Y-86616250D01*
X176153447Y-86637691D01*
X176150297Y-86658926D01*
X176145081Y-86679750D01*
X176137849Y-86699962D01*
X176128670Y-86719368D01*
X176117634Y-86737781D01*
X176104846Y-86755024D01*
X176090430Y-86770930D01*
X176074524Y-86785346D01*
X176057281Y-86798134D01*
X176038868Y-86809170D01*
X176019462Y-86818349D01*
X175999250Y-86825581D01*
X175978426Y-86830797D01*
X175957191Y-86833947D01*
X175935750Y-86835000D01*
X175498250Y-86835000D01*
X175476809Y-86833947D01*
X175455574Y-86830797D01*
X175434750Y-86825581D01*
X175414538Y-86818349D01*
X175395132Y-86809170D01*
X175376719Y-86798134D01*
X175359476Y-86785346D01*
X175343570Y-86770930D01*
X175329154Y-86755024D01*
X175316366Y-86737781D01*
X175305330Y-86719368D01*
X175296151Y-86699962D01*
X175288919Y-86679750D01*
X175283703Y-86658926D01*
X175280553Y-86637691D01*
X175279500Y-86616250D01*
X175279500Y-86103750D01*
X175280553Y-86082309D01*
X175283703Y-86061074D01*
X175288919Y-86040250D01*
X175296151Y-86020038D01*
X175305330Y-86000632D01*
X175316366Y-85982219D01*
X175329154Y-85964976D01*
X175343570Y-85949070D01*
X175359476Y-85934654D01*
X175376719Y-85921866D01*
X175395132Y-85910830D01*
X175414538Y-85901651D01*
X175434750Y-85894419D01*
X175455574Y-85889203D01*
X175476809Y-85886053D01*
X175498250Y-85885000D01*
X175935750Y-85885000D01*
X175957191Y-85886053D01*
X175957191Y-85886053D01*
G37*
D11*
X175717000Y-86360000D03*
G04 #@! TD*
D10*
G04 #@! TO.C,C16*
G36*
X178802191Y-85886053D02*
X178823426Y-85889203D01*
X178844250Y-85894419D01*
X178864462Y-85901651D01*
X178883868Y-85910830D01*
X178902281Y-85921866D01*
X178919524Y-85934654D01*
X178935430Y-85949070D01*
X178949846Y-85964976D01*
X178962634Y-85982219D01*
X178973670Y-86000632D01*
X178982849Y-86020038D01*
X178990081Y-86040250D01*
X178995297Y-86061074D01*
X178998447Y-86082309D01*
X178999500Y-86103750D01*
X178999500Y-86616250D01*
X178998447Y-86637691D01*
X178995297Y-86658926D01*
X178990081Y-86679750D01*
X178982849Y-86699962D01*
X178973670Y-86719368D01*
X178962634Y-86737781D01*
X178949846Y-86755024D01*
X178935430Y-86770930D01*
X178919524Y-86785346D01*
X178902281Y-86798134D01*
X178883868Y-86809170D01*
X178864462Y-86818349D01*
X178844250Y-86825581D01*
X178823426Y-86830797D01*
X178802191Y-86833947D01*
X178780750Y-86835000D01*
X178343250Y-86835000D01*
X178321809Y-86833947D01*
X178300574Y-86830797D01*
X178279750Y-86825581D01*
X178259538Y-86818349D01*
X178240132Y-86809170D01*
X178221719Y-86798134D01*
X178204476Y-86785346D01*
X178188570Y-86770930D01*
X178174154Y-86755024D01*
X178161366Y-86737781D01*
X178150330Y-86719368D01*
X178141151Y-86699962D01*
X178133919Y-86679750D01*
X178128703Y-86658926D01*
X178125553Y-86637691D01*
X178124500Y-86616250D01*
X178124500Y-86103750D01*
X178125553Y-86082309D01*
X178128703Y-86061074D01*
X178133919Y-86040250D01*
X178141151Y-86020038D01*
X178150330Y-86000632D01*
X178161366Y-85982219D01*
X178174154Y-85964976D01*
X178188570Y-85949070D01*
X178204476Y-85934654D01*
X178221719Y-85921866D01*
X178240132Y-85910830D01*
X178259538Y-85901651D01*
X178279750Y-85894419D01*
X178300574Y-85889203D01*
X178321809Y-85886053D01*
X178343250Y-85885000D01*
X178780750Y-85885000D01*
X178802191Y-85886053D01*
X178802191Y-85886053D01*
G37*
D11*
X178562000Y-86360000D03*
D10*
G36*
X180377191Y-85886053D02*
X180398426Y-85889203D01*
X180419250Y-85894419D01*
X180439462Y-85901651D01*
X180458868Y-85910830D01*
X180477281Y-85921866D01*
X180494524Y-85934654D01*
X180510430Y-85949070D01*
X180524846Y-85964976D01*
X180537634Y-85982219D01*
X180548670Y-86000632D01*
X180557849Y-86020038D01*
X180565081Y-86040250D01*
X180570297Y-86061074D01*
X180573447Y-86082309D01*
X180574500Y-86103750D01*
X180574500Y-86616250D01*
X180573447Y-86637691D01*
X180570297Y-86658926D01*
X180565081Y-86679750D01*
X180557849Y-86699962D01*
X180548670Y-86719368D01*
X180537634Y-86737781D01*
X180524846Y-86755024D01*
X180510430Y-86770930D01*
X180494524Y-86785346D01*
X180477281Y-86798134D01*
X180458868Y-86809170D01*
X180439462Y-86818349D01*
X180419250Y-86825581D01*
X180398426Y-86830797D01*
X180377191Y-86833947D01*
X180355750Y-86835000D01*
X179918250Y-86835000D01*
X179896809Y-86833947D01*
X179875574Y-86830797D01*
X179854750Y-86825581D01*
X179834538Y-86818349D01*
X179815132Y-86809170D01*
X179796719Y-86798134D01*
X179779476Y-86785346D01*
X179763570Y-86770930D01*
X179749154Y-86755024D01*
X179736366Y-86737781D01*
X179725330Y-86719368D01*
X179716151Y-86699962D01*
X179708919Y-86679750D01*
X179703703Y-86658926D01*
X179700553Y-86637691D01*
X179699500Y-86616250D01*
X179699500Y-86103750D01*
X179700553Y-86082309D01*
X179703703Y-86061074D01*
X179708919Y-86040250D01*
X179716151Y-86020038D01*
X179725330Y-86000632D01*
X179736366Y-85982219D01*
X179749154Y-85964976D01*
X179763570Y-85949070D01*
X179779476Y-85934654D01*
X179796719Y-85921866D01*
X179815132Y-85910830D01*
X179834538Y-85901651D01*
X179854750Y-85894419D01*
X179875574Y-85889203D01*
X179896809Y-85886053D01*
X179918250Y-85885000D01*
X180355750Y-85885000D01*
X180377191Y-85886053D01*
X180377191Y-85886053D01*
G37*
D11*
X180137000Y-86360000D03*
G04 #@! TD*
D18*
G04 #@! TO.C,Q1*
X151527000Y-106233000D03*
X151527000Y-104333000D03*
X153527000Y-105283000D03*
G04 #@! TD*
D10*
G04 #@! TO.C,FB1*
G36*
X181596191Y-101507053D02*
X181617426Y-101510203D01*
X181638250Y-101515419D01*
X181658462Y-101522651D01*
X181677868Y-101531830D01*
X181696281Y-101542866D01*
X181713524Y-101555654D01*
X181729430Y-101570070D01*
X181743846Y-101585976D01*
X181756634Y-101603219D01*
X181767670Y-101621632D01*
X181776849Y-101641038D01*
X181784081Y-101661250D01*
X181789297Y-101682074D01*
X181792447Y-101703309D01*
X181793500Y-101724750D01*
X181793500Y-102237250D01*
X181792447Y-102258691D01*
X181789297Y-102279926D01*
X181784081Y-102300750D01*
X181776849Y-102320962D01*
X181767670Y-102340368D01*
X181756634Y-102358781D01*
X181743846Y-102376024D01*
X181729430Y-102391930D01*
X181713524Y-102406346D01*
X181696281Y-102419134D01*
X181677868Y-102430170D01*
X181658462Y-102439349D01*
X181638250Y-102446581D01*
X181617426Y-102451797D01*
X181596191Y-102454947D01*
X181574750Y-102456000D01*
X181137250Y-102456000D01*
X181115809Y-102454947D01*
X181094574Y-102451797D01*
X181073750Y-102446581D01*
X181053538Y-102439349D01*
X181034132Y-102430170D01*
X181015719Y-102419134D01*
X180998476Y-102406346D01*
X180982570Y-102391930D01*
X180968154Y-102376024D01*
X180955366Y-102358781D01*
X180944330Y-102340368D01*
X180935151Y-102320962D01*
X180927919Y-102300750D01*
X180922703Y-102279926D01*
X180919553Y-102258691D01*
X180918500Y-102237250D01*
X180918500Y-101724750D01*
X180919553Y-101703309D01*
X180922703Y-101682074D01*
X180927919Y-101661250D01*
X180935151Y-101641038D01*
X180944330Y-101621632D01*
X180955366Y-101603219D01*
X180968154Y-101585976D01*
X180982570Y-101570070D01*
X180998476Y-101555654D01*
X181015719Y-101542866D01*
X181034132Y-101531830D01*
X181053538Y-101522651D01*
X181073750Y-101515419D01*
X181094574Y-101510203D01*
X181115809Y-101507053D01*
X181137250Y-101506000D01*
X181574750Y-101506000D01*
X181596191Y-101507053D01*
X181596191Y-101507053D01*
G37*
D11*
X181356000Y-101981000D03*
D10*
G36*
X183171191Y-101507053D02*
X183192426Y-101510203D01*
X183213250Y-101515419D01*
X183233462Y-101522651D01*
X183252868Y-101531830D01*
X183271281Y-101542866D01*
X183288524Y-101555654D01*
X183304430Y-101570070D01*
X183318846Y-101585976D01*
X183331634Y-101603219D01*
X183342670Y-101621632D01*
X183351849Y-101641038D01*
X183359081Y-101661250D01*
X183364297Y-101682074D01*
X183367447Y-101703309D01*
X183368500Y-101724750D01*
X183368500Y-102237250D01*
X183367447Y-102258691D01*
X183364297Y-102279926D01*
X183359081Y-102300750D01*
X183351849Y-102320962D01*
X183342670Y-102340368D01*
X183331634Y-102358781D01*
X183318846Y-102376024D01*
X183304430Y-102391930D01*
X183288524Y-102406346D01*
X183271281Y-102419134D01*
X183252868Y-102430170D01*
X183233462Y-102439349D01*
X183213250Y-102446581D01*
X183192426Y-102451797D01*
X183171191Y-102454947D01*
X183149750Y-102456000D01*
X182712250Y-102456000D01*
X182690809Y-102454947D01*
X182669574Y-102451797D01*
X182648750Y-102446581D01*
X182628538Y-102439349D01*
X182609132Y-102430170D01*
X182590719Y-102419134D01*
X182573476Y-102406346D01*
X182557570Y-102391930D01*
X182543154Y-102376024D01*
X182530366Y-102358781D01*
X182519330Y-102340368D01*
X182510151Y-102320962D01*
X182502919Y-102300750D01*
X182497703Y-102279926D01*
X182494553Y-102258691D01*
X182493500Y-102237250D01*
X182493500Y-101724750D01*
X182494553Y-101703309D01*
X182497703Y-101682074D01*
X182502919Y-101661250D01*
X182510151Y-101641038D01*
X182519330Y-101621632D01*
X182530366Y-101603219D01*
X182543154Y-101585976D01*
X182557570Y-101570070D01*
X182573476Y-101555654D01*
X182590719Y-101542866D01*
X182609132Y-101531830D01*
X182628538Y-101522651D01*
X182648750Y-101515419D01*
X182669574Y-101510203D01*
X182690809Y-101507053D01*
X182712250Y-101506000D01*
X183149750Y-101506000D01*
X183171191Y-101507053D01*
X183171191Y-101507053D01*
G37*
D11*
X182931000Y-101981000D03*
G04 #@! TD*
D10*
G04 #@! TO.C,R3*
G36*
X180744691Y-89022553D02*
X180765926Y-89025703D01*
X180786750Y-89030919D01*
X180806962Y-89038151D01*
X180826368Y-89047330D01*
X180844781Y-89058366D01*
X180862024Y-89071154D01*
X180877930Y-89085570D01*
X180892346Y-89101476D01*
X180905134Y-89118719D01*
X180916170Y-89137132D01*
X180925349Y-89156538D01*
X180932581Y-89176750D01*
X180937797Y-89197574D01*
X180940947Y-89218809D01*
X180942000Y-89240250D01*
X180942000Y-89677750D01*
X180940947Y-89699191D01*
X180937797Y-89720426D01*
X180932581Y-89741250D01*
X180925349Y-89761462D01*
X180916170Y-89780868D01*
X180905134Y-89799281D01*
X180892346Y-89816524D01*
X180877930Y-89832430D01*
X180862024Y-89846846D01*
X180844781Y-89859634D01*
X180826368Y-89870670D01*
X180806962Y-89879849D01*
X180786750Y-89887081D01*
X180765926Y-89892297D01*
X180744691Y-89895447D01*
X180723250Y-89896500D01*
X180210750Y-89896500D01*
X180189309Y-89895447D01*
X180168074Y-89892297D01*
X180147250Y-89887081D01*
X180127038Y-89879849D01*
X180107632Y-89870670D01*
X180089219Y-89859634D01*
X180071976Y-89846846D01*
X180056070Y-89832430D01*
X180041654Y-89816524D01*
X180028866Y-89799281D01*
X180017830Y-89780868D01*
X180008651Y-89761462D01*
X180001419Y-89741250D01*
X179996203Y-89720426D01*
X179993053Y-89699191D01*
X179992000Y-89677750D01*
X179992000Y-89240250D01*
X179993053Y-89218809D01*
X179996203Y-89197574D01*
X180001419Y-89176750D01*
X180008651Y-89156538D01*
X180017830Y-89137132D01*
X180028866Y-89118719D01*
X180041654Y-89101476D01*
X180056070Y-89085570D01*
X180071976Y-89071154D01*
X180089219Y-89058366D01*
X180107632Y-89047330D01*
X180127038Y-89038151D01*
X180147250Y-89030919D01*
X180168074Y-89025703D01*
X180189309Y-89022553D01*
X180210750Y-89021500D01*
X180723250Y-89021500D01*
X180744691Y-89022553D01*
X180744691Y-89022553D01*
G37*
D11*
X180467000Y-89459000D03*
D10*
G36*
X180744691Y-87447553D02*
X180765926Y-87450703D01*
X180786750Y-87455919D01*
X180806962Y-87463151D01*
X180826368Y-87472330D01*
X180844781Y-87483366D01*
X180862024Y-87496154D01*
X180877930Y-87510570D01*
X180892346Y-87526476D01*
X180905134Y-87543719D01*
X180916170Y-87562132D01*
X180925349Y-87581538D01*
X180932581Y-87601750D01*
X180937797Y-87622574D01*
X180940947Y-87643809D01*
X180942000Y-87665250D01*
X180942000Y-88102750D01*
X180940947Y-88124191D01*
X180937797Y-88145426D01*
X180932581Y-88166250D01*
X180925349Y-88186462D01*
X180916170Y-88205868D01*
X180905134Y-88224281D01*
X180892346Y-88241524D01*
X180877930Y-88257430D01*
X180862024Y-88271846D01*
X180844781Y-88284634D01*
X180826368Y-88295670D01*
X180806962Y-88304849D01*
X180786750Y-88312081D01*
X180765926Y-88317297D01*
X180744691Y-88320447D01*
X180723250Y-88321500D01*
X180210750Y-88321500D01*
X180189309Y-88320447D01*
X180168074Y-88317297D01*
X180147250Y-88312081D01*
X180127038Y-88304849D01*
X180107632Y-88295670D01*
X180089219Y-88284634D01*
X180071976Y-88271846D01*
X180056070Y-88257430D01*
X180041654Y-88241524D01*
X180028866Y-88224281D01*
X180017830Y-88205868D01*
X180008651Y-88186462D01*
X180001419Y-88166250D01*
X179996203Y-88145426D01*
X179993053Y-88124191D01*
X179992000Y-88102750D01*
X179992000Y-87665250D01*
X179993053Y-87643809D01*
X179996203Y-87622574D01*
X180001419Y-87601750D01*
X180008651Y-87581538D01*
X180017830Y-87562132D01*
X180028866Y-87543719D01*
X180041654Y-87526476D01*
X180056070Y-87510570D01*
X180071976Y-87496154D01*
X180089219Y-87483366D01*
X180107632Y-87472330D01*
X180127038Y-87463151D01*
X180147250Y-87455919D01*
X180168074Y-87450703D01*
X180189309Y-87447553D01*
X180210750Y-87446500D01*
X180723250Y-87446500D01*
X180744691Y-87447553D01*
X180744691Y-87447553D01*
G37*
D11*
X180467000Y-87884000D03*
G04 #@! TD*
M02*
