G04 #@! TF.GenerationSoftware,KiCad,Pcbnew,5.0.2+dfsg1-1~bpo9+1*
G04 #@! TF.CreationDate,2019-04-08T01:26:04+03:00*
G04 #@! TF.ProjectId,kicad,6b696361-642e-46b6-9963-61645f706362,rev?*
G04 #@! TF.SameCoordinates,Original*
G04 #@! TF.FileFunction,Legend,Bot*
G04 #@! TF.FilePolarity,Positive*
%FSLAX46Y46*%
G04 Gerber Fmt 4.6, Leading zero omitted, Abs format (unit mm)*
G04 Created by KiCad (PCBNEW 5.0.2+dfsg1-1~bpo9+1) date Mon 08 Apr 2019 01:26:04 AM MSK*
%MOMM*%
%LPD*%
G01*
G04 APERTURE LIST*
%ADD10C,0.120000*%
%ADD11C,0.150000*%
%ADD12C,0.127000*%
%ADD13C,0.200000*%
%ADD14C,0.100000*%
%ADD15C,0.925800*%
%ADD16R,1.050800X0.300800*%
%ADD17R,0.300800X1.050800*%
%ADD18R,1.050800X1.850800*%
%ADD19R,0.630800X0.400800*%
%ADD20R,0.400800X0.630800*%
%ADD21C,1.750800*%
%ADD22R,7.050800X8.050800*%
%ADD23R,5.130800X5.130800*%
%ADD24R,0.950800X0.850800*%
G04 APERTURE END LIST*
D10*
G04 #@! TO.C,R1*
X181980721Y-99947000D02*
X182306279Y-99947000D01*
X181980721Y-100967000D02*
X182306279Y-100967000D01*
D11*
G04 #@! TO.C,U1*
X169932080Y-90582560D02*
X169932080Y-89557560D01*
X168932080Y-100932560D02*
X168932080Y-99857560D01*
X179282080Y-100932560D02*
X179282080Y-99857560D01*
X179282080Y-90582560D02*
X179282080Y-91657560D01*
X168932080Y-90582560D02*
X168932080Y-91657560D01*
X179282080Y-90582560D02*
X178207080Y-90582560D01*
X179282080Y-100932560D02*
X178207080Y-100932560D01*
X168932080Y-100932560D02*
X170007080Y-100932560D01*
X168932080Y-90582560D02*
X169932080Y-90582560D01*
D10*
G04 #@! TO.C,Y1*
X176998000Y-89013000D02*
X178348000Y-89013000D01*
X176998000Y-87263000D02*
X178348000Y-87263000D01*
G04 #@! TO.C,C1*
X174500000Y-104129721D02*
X174500000Y-104455279D01*
X173480000Y-104129721D02*
X173480000Y-104455279D01*
G04 #@! TO.C,C3*
X181980721Y-95629000D02*
X182306279Y-95629000D01*
X181980721Y-96649000D02*
X182306279Y-96649000D01*
G04 #@! TO.C,C4*
X165352000Y-96809779D02*
X165352000Y-96484221D01*
X166372000Y-96809779D02*
X166372000Y-96484221D01*
G04 #@! TO.C,C5*
X163955000Y-96809779D02*
X163955000Y-96484221D01*
X164975000Y-96809779D02*
X164975000Y-96484221D01*
G04 #@! TO.C,C6*
X181980721Y-98046000D02*
X182306279Y-98046000D01*
X181980721Y-97026000D02*
X182306279Y-97026000D01*
G04 #@! TO.C,C7*
X181980721Y-94193900D02*
X182306279Y-94193900D01*
X181980721Y-95213900D02*
X182306279Y-95213900D01*
G04 #@! TO.C,C8*
X181980721Y-98423000D02*
X182306279Y-98423000D01*
X181980721Y-99443000D02*
X182306279Y-99443000D01*
G04 #@! TO.C,C9*
X176024000Y-104129721D02*
X176024000Y-104455279D01*
X175004000Y-104129721D02*
X175004000Y-104455279D01*
G04 #@! TO.C,C10*
X177548000Y-104129721D02*
X177548000Y-104455279D01*
X176528000Y-104129721D02*
X176528000Y-104455279D01*
G04 #@! TO.C,C11*
X162558000Y-96809779D02*
X162558000Y-96484221D01*
X163578000Y-96809779D02*
X163578000Y-96484221D01*
G04 #@! TO.C,C12*
X145734721Y-104900000D02*
X146060279Y-104900000D01*
X145734721Y-105920000D02*
X146060279Y-105920000D01*
G04 #@! TO.C,C13*
X147699000Y-106182279D02*
X147699000Y-105856721D01*
X148719000Y-106182279D02*
X148719000Y-105856721D01*
G04 #@! TO.C,R2*
X181481000Y-88834279D02*
X181481000Y-88508721D01*
X182501000Y-88834279D02*
X182501000Y-88508721D01*
D12*
G04 #@! TO.C,U2*
X144234400Y-106141600D02*
X144884400Y-106141600D01*
X144234400Y-106291600D02*
X144234400Y-106141600D01*
X147334400Y-106141600D02*
X146684400Y-106141600D01*
X147334400Y-106291600D02*
X147334400Y-106141600D01*
X147334400Y-108741600D02*
X147334400Y-108591600D01*
X146684400Y-108741600D02*
X147334400Y-108741600D01*
X144234400Y-108741600D02*
X144234400Y-108591600D01*
X144884400Y-108741600D02*
X144234400Y-108741600D01*
D13*
X143934400Y-108191600D02*
G75*
G03X143934400Y-108191600I-100000J0D01*
G01*
D14*
G04 #@! TO.C,BT1*
X136103667Y-98551333D02*
X136103667Y-95801333D01*
X143520333Y-103426333D02*
X136103667Y-98551333D01*
X143520333Y-104093000D02*
X143520333Y-103426333D01*
X143520333Y-104093000D02*
X150103667Y-104093000D01*
X150103667Y-104093000D02*
X150103667Y-103426333D01*
X150103667Y-103426333D02*
X157520333Y-98551333D01*
X157520333Y-98551333D02*
X157520333Y-95801333D01*
X136103667Y-90634667D02*
X136103667Y-87134667D01*
X157520333Y-90634667D02*
X157520333Y-87134667D01*
X157520333Y-87176333D02*
G75*
G03X155270333Y-84926333I-2250000J0D01*
G01*
X136103667Y-87176333D02*
G75*
G02X138353667Y-84926333I2250000J0D01*
G01*
X138913460Y-85158207D02*
G75*
G03X138353667Y-84926333I-559793J-559793D01*
G01*
X154710540Y-85158207D02*
G75*
G02X155270333Y-84926333I559793J-559793D01*
G01*
X154679036Y-85186274D02*
G75*
G02X138853667Y-85109667I-7867036J9468274D01*
G01*
D10*
G04 #@! TO.C,C2*
X172718000Y-87767279D02*
X172718000Y-87441721D01*
X173738000Y-87767279D02*
X173738000Y-87441721D01*
G04 #@! TO.C,C14*
X150243000Y-106182279D02*
X150243000Y-105856721D01*
X149223000Y-106182279D02*
X149223000Y-105856721D01*
G04 #@! TO.C,C15*
X176341721Y-85850000D02*
X176667279Y-85850000D01*
X176341721Y-86870000D02*
X176667279Y-86870000D01*
G04 #@! TO.C,C16*
X179186721Y-86870000D02*
X179512279Y-86870000D01*
X179186721Y-85850000D02*
X179512279Y-85850000D01*
G04 #@! TO.C,Q1*
X153287000Y-103703000D02*
X153287000Y-104633000D01*
X153287000Y-106863000D02*
X153287000Y-105933000D01*
X153287000Y-106863000D02*
X151127000Y-106863000D01*
X153287000Y-103703000D02*
X151827000Y-103703000D01*
G04 #@! TO.C,FB1*
X181980721Y-102491000D02*
X182306279Y-102491000D01*
X181980721Y-101471000D02*
X182306279Y-101471000D01*
G04 #@! TO.C,R3*
X180977000Y-88834279D02*
X180977000Y-88508721D01*
X179957000Y-88834279D02*
X179957000Y-88508721D01*
G04 #@! TD*
%LPC*%
D14*
G04 #@! TO.C,R1*
G36*
X183185136Y-99957714D02*
X183207604Y-99961047D01*
X183229636Y-99966566D01*
X183251022Y-99974218D01*
X183271555Y-99983929D01*
X183291037Y-99995606D01*
X183309280Y-100009137D01*
X183326110Y-100024390D01*
X183341363Y-100041220D01*
X183354894Y-100059463D01*
X183366571Y-100078945D01*
X183376282Y-100099478D01*
X183383934Y-100120864D01*
X183389453Y-100142896D01*
X183392786Y-100165364D01*
X183393900Y-100188050D01*
X183393900Y-100725950D01*
X183392786Y-100748636D01*
X183389453Y-100771104D01*
X183383934Y-100793136D01*
X183376282Y-100814522D01*
X183366571Y-100835055D01*
X183354894Y-100854537D01*
X183341363Y-100872780D01*
X183326110Y-100889610D01*
X183309280Y-100904863D01*
X183291037Y-100918394D01*
X183271555Y-100930071D01*
X183251022Y-100939782D01*
X183229636Y-100947434D01*
X183207604Y-100952953D01*
X183185136Y-100956286D01*
X183162450Y-100957400D01*
X182699550Y-100957400D01*
X182676864Y-100956286D01*
X182654396Y-100952953D01*
X182632364Y-100947434D01*
X182610978Y-100939782D01*
X182590445Y-100930071D01*
X182570963Y-100918394D01*
X182552720Y-100904863D01*
X182535890Y-100889610D01*
X182520637Y-100872780D01*
X182507106Y-100854537D01*
X182495429Y-100835055D01*
X182485718Y-100814522D01*
X182478066Y-100793136D01*
X182472547Y-100771104D01*
X182469214Y-100748636D01*
X182468100Y-100725950D01*
X182468100Y-100188050D01*
X182469214Y-100165364D01*
X182472547Y-100142896D01*
X182478066Y-100120864D01*
X182485718Y-100099478D01*
X182495429Y-100078945D01*
X182507106Y-100059463D01*
X182520637Y-100041220D01*
X182535890Y-100024390D01*
X182552720Y-100009137D01*
X182570963Y-99995606D01*
X182590445Y-99983929D01*
X182610978Y-99974218D01*
X182632364Y-99966566D01*
X182654396Y-99961047D01*
X182676864Y-99957714D01*
X182699550Y-99956600D01*
X183162450Y-99956600D01*
X183185136Y-99957714D01*
X183185136Y-99957714D01*
G37*
D15*
X182931000Y-100457000D03*
D14*
G36*
X181610136Y-99957714D02*
X181632604Y-99961047D01*
X181654636Y-99966566D01*
X181676022Y-99974218D01*
X181696555Y-99983929D01*
X181716037Y-99995606D01*
X181734280Y-100009137D01*
X181751110Y-100024390D01*
X181766363Y-100041220D01*
X181779894Y-100059463D01*
X181791571Y-100078945D01*
X181801282Y-100099478D01*
X181808934Y-100120864D01*
X181814453Y-100142896D01*
X181817786Y-100165364D01*
X181818900Y-100188050D01*
X181818900Y-100725950D01*
X181817786Y-100748636D01*
X181814453Y-100771104D01*
X181808934Y-100793136D01*
X181801282Y-100814522D01*
X181791571Y-100835055D01*
X181779894Y-100854537D01*
X181766363Y-100872780D01*
X181751110Y-100889610D01*
X181734280Y-100904863D01*
X181716037Y-100918394D01*
X181696555Y-100930071D01*
X181676022Y-100939782D01*
X181654636Y-100947434D01*
X181632604Y-100952953D01*
X181610136Y-100956286D01*
X181587450Y-100957400D01*
X181124550Y-100957400D01*
X181101864Y-100956286D01*
X181079396Y-100952953D01*
X181057364Y-100947434D01*
X181035978Y-100939782D01*
X181015445Y-100930071D01*
X180995963Y-100918394D01*
X180977720Y-100904863D01*
X180960890Y-100889610D01*
X180945637Y-100872780D01*
X180932106Y-100854537D01*
X180920429Y-100835055D01*
X180910718Y-100814522D01*
X180903066Y-100793136D01*
X180897547Y-100771104D01*
X180894214Y-100748636D01*
X180893100Y-100725950D01*
X180893100Y-100188050D01*
X180894214Y-100165364D01*
X180897547Y-100142896D01*
X180903066Y-100120864D01*
X180910718Y-100099478D01*
X180920429Y-100078945D01*
X180932106Y-100059463D01*
X180945637Y-100041220D01*
X180960890Y-100024390D01*
X180977720Y-100009137D01*
X180995963Y-99995606D01*
X181015445Y-99983929D01*
X181035978Y-99974218D01*
X181057364Y-99966566D01*
X181079396Y-99961047D01*
X181101864Y-99957714D01*
X181124550Y-99956600D01*
X181587450Y-99956600D01*
X181610136Y-99957714D01*
X181610136Y-99957714D01*
G37*
D15*
X181356000Y-100457000D03*
G04 #@! TD*
D16*
G04 #@! TO.C,U1*
X168407080Y-92007560D03*
X168407080Y-92507560D03*
X168407080Y-93007560D03*
X168407080Y-93507560D03*
X168407080Y-94007560D03*
X168407080Y-94507560D03*
X168407080Y-95007560D03*
X168407080Y-95507560D03*
X168407080Y-96007560D03*
X168407080Y-96507560D03*
X168407080Y-97007560D03*
X168407080Y-97507560D03*
X168407080Y-98007560D03*
X168407080Y-98507560D03*
X168407080Y-99007560D03*
X168407080Y-99507560D03*
D17*
X170357080Y-101457560D03*
X170857080Y-101457560D03*
X171357080Y-101457560D03*
X171857080Y-101457560D03*
X172357080Y-101457560D03*
X172857080Y-101457560D03*
X173357080Y-101457560D03*
X173857080Y-101457560D03*
X174357080Y-101457560D03*
X174857080Y-101457560D03*
X175357080Y-101457560D03*
X175857080Y-101457560D03*
X176357080Y-101457560D03*
X176857080Y-101457560D03*
X177357080Y-101457560D03*
X177857080Y-101457560D03*
D16*
X179807080Y-99507560D03*
X179807080Y-99007560D03*
X179807080Y-98507560D03*
X179807080Y-98007560D03*
X179807080Y-97507560D03*
X179807080Y-97007560D03*
X179807080Y-96507560D03*
X179807080Y-96007560D03*
X179807080Y-95507560D03*
X179807080Y-95007560D03*
X179807080Y-94507560D03*
X179807080Y-94007560D03*
X179807080Y-93507560D03*
X179807080Y-93007560D03*
X179807080Y-92507560D03*
X179807080Y-92007560D03*
D17*
X177857080Y-90057560D03*
X177357080Y-90057560D03*
X176857080Y-90057560D03*
X176357080Y-90057560D03*
X175857080Y-90057560D03*
X175357080Y-90057560D03*
X174857080Y-90057560D03*
X174357080Y-90057560D03*
X173857080Y-90057560D03*
X173357080Y-90057560D03*
X172857080Y-90057560D03*
X172357080Y-90057560D03*
X171857080Y-90057560D03*
X171357080Y-90057560D03*
X170857080Y-90057560D03*
X170357080Y-90057560D03*
G04 #@! TD*
D18*
G04 #@! TO.C,Y1*
X176423000Y-88138000D03*
X178923000Y-88138000D03*
G04 #@! TD*
D14*
G04 #@! TO.C,C1*
G36*
X174281636Y-104618214D02*
X174304104Y-104621547D01*
X174326136Y-104627066D01*
X174347522Y-104634718D01*
X174368055Y-104644429D01*
X174387537Y-104656106D01*
X174405780Y-104669637D01*
X174422610Y-104684890D01*
X174437863Y-104701720D01*
X174451394Y-104719963D01*
X174463071Y-104739445D01*
X174472782Y-104759978D01*
X174480434Y-104781364D01*
X174485953Y-104803396D01*
X174489286Y-104825864D01*
X174490400Y-104848550D01*
X174490400Y-105311450D01*
X174489286Y-105334136D01*
X174485953Y-105356604D01*
X174480434Y-105378636D01*
X174472782Y-105400022D01*
X174463071Y-105420555D01*
X174451394Y-105440037D01*
X174437863Y-105458280D01*
X174422610Y-105475110D01*
X174405780Y-105490363D01*
X174387537Y-105503894D01*
X174368055Y-105515571D01*
X174347522Y-105525282D01*
X174326136Y-105532934D01*
X174304104Y-105538453D01*
X174281636Y-105541786D01*
X174258950Y-105542900D01*
X173721050Y-105542900D01*
X173698364Y-105541786D01*
X173675896Y-105538453D01*
X173653864Y-105532934D01*
X173632478Y-105525282D01*
X173611945Y-105515571D01*
X173592463Y-105503894D01*
X173574220Y-105490363D01*
X173557390Y-105475110D01*
X173542137Y-105458280D01*
X173528606Y-105440037D01*
X173516929Y-105420555D01*
X173507218Y-105400022D01*
X173499566Y-105378636D01*
X173494047Y-105356604D01*
X173490714Y-105334136D01*
X173489600Y-105311450D01*
X173489600Y-104848550D01*
X173490714Y-104825864D01*
X173494047Y-104803396D01*
X173499566Y-104781364D01*
X173507218Y-104759978D01*
X173516929Y-104739445D01*
X173528606Y-104719963D01*
X173542137Y-104701720D01*
X173557390Y-104684890D01*
X173574220Y-104669637D01*
X173592463Y-104656106D01*
X173611945Y-104644429D01*
X173632478Y-104634718D01*
X173653864Y-104627066D01*
X173675896Y-104621547D01*
X173698364Y-104618214D01*
X173721050Y-104617100D01*
X174258950Y-104617100D01*
X174281636Y-104618214D01*
X174281636Y-104618214D01*
G37*
D15*
X173990000Y-105080000D03*
D14*
G36*
X174281636Y-103043214D02*
X174304104Y-103046547D01*
X174326136Y-103052066D01*
X174347522Y-103059718D01*
X174368055Y-103069429D01*
X174387537Y-103081106D01*
X174405780Y-103094637D01*
X174422610Y-103109890D01*
X174437863Y-103126720D01*
X174451394Y-103144963D01*
X174463071Y-103164445D01*
X174472782Y-103184978D01*
X174480434Y-103206364D01*
X174485953Y-103228396D01*
X174489286Y-103250864D01*
X174490400Y-103273550D01*
X174490400Y-103736450D01*
X174489286Y-103759136D01*
X174485953Y-103781604D01*
X174480434Y-103803636D01*
X174472782Y-103825022D01*
X174463071Y-103845555D01*
X174451394Y-103865037D01*
X174437863Y-103883280D01*
X174422610Y-103900110D01*
X174405780Y-103915363D01*
X174387537Y-103928894D01*
X174368055Y-103940571D01*
X174347522Y-103950282D01*
X174326136Y-103957934D01*
X174304104Y-103963453D01*
X174281636Y-103966786D01*
X174258950Y-103967900D01*
X173721050Y-103967900D01*
X173698364Y-103966786D01*
X173675896Y-103963453D01*
X173653864Y-103957934D01*
X173632478Y-103950282D01*
X173611945Y-103940571D01*
X173592463Y-103928894D01*
X173574220Y-103915363D01*
X173557390Y-103900110D01*
X173542137Y-103883280D01*
X173528606Y-103865037D01*
X173516929Y-103845555D01*
X173507218Y-103825022D01*
X173499566Y-103803636D01*
X173494047Y-103781604D01*
X173490714Y-103759136D01*
X173489600Y-103736450D01*
X173489600Y-103273550D01*
X173490714Y-103250864D01*
X173494047Y-103228396D01*
X173499566Y-103206364D01*
X173507218Y-103184978D01*
X173516929Y-103164445D01*
X173528606Y-103144963D01*
X173542137Y-103126720D01*
X173557390Y-103109890D01*
X173574220Y-103094637D01*
X173592463Y-103081106D01*
X173611945Y-103069429D01*
X173632478Y-103059718D01*
X173653864Y-103052066D01*
X173675896Y-103046547D01*
X173698364Y-103043214D01*
X173721050Y-103042100D01*
X174258950Y-103042100D01*
X174281636Y-103043214D01*
X174281636Y-103043214D01*
G37*
D15*
X173990000Y-103505000D03*
G04 #@! TD*
D14*
G04 #@! TO.C,C3*
G36*
X183185136Y-95639714D02*
X183207604Y-95643047D01*
X183229636Y-95648566D01*
X183251022Y-95656218D01*
X183271555Y-95665929D01*
X183291037Y-95677606D01*
X183309280Y-95691137D01*
X183326110Y-95706390D01*
X183341363Y-95723220D01*
X183354894Y-95741463D01*
X183366571Y-95760945D01*
X183376282Y-95781478D01*
X183383934Y-95802864D01*
X183389453Y-95824896D01*
X183392786Y-95847364D01*
X183393900Y-95870050D01*
X183393900Y-96407950D01*
X183392786Y-96430636D01*
X183389453Y-96453104D01*
X183383934Y-96475136D01*
X183376282Y-96496522D01*
X183366571Y-96517055D01*
X183354894Y-96536537D01*
X183341363Y-96554780D01*
X183326110Y-96571610D01*
X183309280Y-96586863D01*
X183291037Y-96600394D01*
X183271555Y-96612071D01*
X183251022Y-96621782D01*
X183229636Y-96629434D01*
X183207604Y-96634953D01*
X183185136Y-96638286D01*
X183162450Y-96639400D01*
X182699550Y-96639400D01*
X182676864Y-96638286D01*
X182654396Y-96634953D01*
X182632364Y-96629434D01*
X182610978Y-96621782D01*
X182590445Y-96612071D01*
X182570963Y-96600394D01*
X182552720Y-96586863D01*
X182535890Y-96571610D01*
X182520637Y-96554780D01*
X182507106Y-96536537D01*
X182495429Y-96517055D01*
X182485718Y-96496522D01*
X182478066Y-96475136D01*
X182472547Y-96453104D01*
X182469214Y-96430636D01*
X182468100Y-96407950D01*
X182468100Y-95870050D01*
X182469214Y-95847364D01*
X182472547Y-95824896D01*
X182478066Y-95802864D01*
X182485718Y-95781478D01*
X182495429Y-95760945D01*
X182507106Y-95741463D01*
X182520637Y-95723220D01*
X182535890Y-95706390D01*
X182552720Y-95691137D01*
X182570963Y-95677606D01*
X182590445Y-95665929D01*
X182610978Y-95656218D01*
X182632364Y-95648566D01*
X182654396Y-95643047D01*
X182676864Y-95639714D01*
X182699550Y-95638600D01*
X183162450Y-95638600D01*
X183185136Y-95639714D01*
X183185136Y-95639714D01*
G37*
D15*
X182931000Y-96139000D03*
D14*
G36*
X181610136Y-95639714D02*
X181632604Y-95643047D01*
X181654636Y-95648566D01*
X181676022Y-95656218D01*
X181696555Y-95665929D01*
X181716037Y-95677606D01*
X181734280Y-95691137D01*
X181751110Y-95706390D01*
X181766363Y-95723220D01*
X181779894Y-95741463D01*
X181791571Y-95760945D01*
X181801282Y-95781478D01*
X181808934Y-95802864D01*
X181814453Y-95824896D01*
X181817786Y-95847364D01*
X181818900Y-95870050D01*
X181818900Y-96407950D01*
X181817786Y-96430636D01*
X181814453Y-96453104D01*
X181808934Y-96475136D01*
X181801282Y-96496522D01*
X181791571Y-96517055D01*
X181779894Y-96536537D01*
X181766363Y-96554780D01*
X181751110Y-96571610D01*
X181734280Y-96586863D01*
X181716037Y-96600394D01*
X181696555Y-96612071D01*
X181676022Y-96621782D01*
X181654636Y-96629434D01*
X181632604Y-96634953D01*
X181610136Y-96638286D01*
X181587450Y-96639400D01*
X181124550Y-96639400D01*
X181101864Y-96638286D01*
X181079396Y-96634953D01*
X181057364Y-96629434D01*
X181035978Y-96621782D01*
X181015445Y-96612071D01*
X180995963Y-96600394D01*
X180977720Y-96586863D01*
X180960890Y-96571610D01*
X180945637Y-96554780D01*
X180932106Y-96536537D01*
X180920429Y-96517055D01*
X180910718Y-96496522D01*
X180903066Y-96475136D01*
X180897547Y-96453104D01*
X180894214Y-96430636D01*
X180893100Y-96407950D01*
X180893100Y-95870050D01*
X180894214Y-95847364D01*
X180897547Y-95824896D01*
X180903066Y-95802864D01*
X180910718Y-95781478D01*
X180920429Y-95760945D01*
X180932106Y-95741463D01*
X180945637Y-95723220D01*
X180960890Y-95706390D01*
X180977720Y-95691137D01*
X180995963Y-95677606D01*
X181015445Y-95665929D01*
X181035978Y-95656218D01*
X181057364Y-95648566D01*
X181079396Y-95643047D01*
X181101864Y-95639714D01*
X181124550Y-95638600D01*
X181587450Y-95638600D01*
X181610136Y-95639714D01*
X181610136Y-95639714D01*
G37*
D15*
X181356000Y-96139000D03*
G04 #@! TD*
D14*
G04 #@! TO.C,C4*
G36*
X166153636Y-95397714D02*
X166176104Y-95401047D01*
X166198136Y-95406566D01*
X166219522Y-95414218D01*
X166240055Y-95423929D01*
X166259537Y-95435606D01*
X166277780Y-95449137D01*
X166294610Y-95464390D01*
X166309863Y-95481220D01*
X166323394Y-95499463D01*
X166335071Y-95518945D01*
X166344782Y-95539478D01*
X166352434Y-95560864D01*
X166357953Y-95582896D01*
X166361286Y-95605364D01*
X166362400Y-95628050D01*
X166362400Y-96090950D01*
X166361286Y-96113636D01*
X166357953Y-96136104D01*
X166352434Y-96158136D01*
X166344782Y-96179522D01*
X166335071Y-96200055D01*
X166323394Y-96219537D01*
X166309863Y-96237780D01*
X166294610Y-96254610D01*
X166277780Y-96269863D01*
X166259537Y-96283394D01*
X166240055Y-96295071D01*
X166219522Y-96304782D01*
X166198136Y-96312434D01*
X166176104Y-96317953D01*
X166153636Y-96321286D01*
X166130950Y-96322400D01*
X165593050Y-96322400D01*
X165570364Y-96321286D01*
X165547896Y-96317953D01*
X165525864Y-96312434D01*
X165504478Y-96304782D01*
X165483945Y-96295071D01*
X165464463Y-96283394D01*
X165446220Y-96269863D01*
X165429390Y-96254610D01*
X165414137Y-96237780D01*
X165400606Y-96219537D01*
X165388929Y-96200055D01*
X165379218Y-96179522D01*
X165371566Y-96158136D01*
X165366047Y-96136104D01*
X165362714Y-96113636D01*
X165361600Y-96090950D01*
X165361600Y-95628050D01*
X165362714Y-95605364D01*
X165366047Y-95582896D01*
X165371566Y-95560864D01*
X165379218Y-95539478D01*
X165388929Y-95518945D01*
X165400606Y-95499463D01*
X165414137Y-95481220D01*
X165429390Y-95464390D01*
X165446220Y-95449137D01*
X165464463Y-95435606D01*
X165483945Y-95423929D01*
X165504478Y-95414218D01*
X165525864Y-95406566D01*
X165547896Y-95401047D01*
X165570364Y-95397714D01*
X165593050Y-95396600D01*
X166130950Y-95396600D01*
X166153636Y-95397714D01*
X166153636Y-95397714D01*
G37*
D15*
X165862000Y-95859500D03*
D14*
G36*
X166153636Y-96972714D02*
X166176104Y-96976047D01*
X166198136Y-96981566D01*
X166219522Y-96989218D01*
X166240055Y-96998929D01*
X166259537Y-97010606D01*
X166277780Y-97024137D01*
X166294610Y-97039390D01*
X166309863Y-97056220D01*
X166323394Y-97074463D01*
X166335071Y-97093945D01*
X166344782Y-97114478D01*
X166352434Y-97135864D01*
X166357953Y-97157896D01*
X166361286Y-97180364D01*
X166362400Y-97203050D01*
X166362400Y-97665950D01*
X166361286Y-97688636D01*
X166357953Y-97711104D01*
X166352434Y-97733136D01*
X166344782Y-97754522D01*
X166335071Y-97775055D01*
X166323394Y-97794537D01*
X166309863Y-97812780D01*
X166294610Y-97829610D01*
X166277780Y-97844863D01*
X166259537Y-97858394D01*
X166240055Y-97870071D01*
X166219522Y-97879782D01*
X166198136Y-97887434D01*
X166176104Y-97892953D01*
X166153636Y-97896286D01*
X166130950Y-97897400D01*
X165593050Y-97897400D01*
X165570364Y-97896286D01*
X165547896Y-97892953D01*
X165525864Y-97887434D01*
X165504478Y-97879782D01*
X165483945Y-97870071D01*
X165464463Y-97858394D01*
X165446220Y-97844863D01*
X165429390Y-97829610D01*
X165414137Y-97812780D01*
X165400606Y-97794537D01*
X165388929Y-97775055D01*
X165379218Y-97754522D01*
X165371566Y-97733136D01*
X165366047Y-97711104D01*
X165362714Y-97688636D01*
X165361600Y-97665950D01*
X165361600Y-97203050D01*
X165362714Y-97180364D01*
X165366047Y-97157896D01*
X165371566Y-97135864D01*
X165379218Y-97114478D01*
X165388929Y-97093945D01*
X165400606Y-97074463D01*
X165414137Y-97056220D01*
X165429390Y-97039390D01*
X165446220Y-97024137D01*
X165464463Y-97010606D01*
X165483945Y-96998929D01*
X165504478Y-96989218D01*
X165525864Y-96981566D01*
X165547896Y-96976047D01*
X165570364Y-96972714D01*
X165593050Y-96971600D01*
X166130950Y-96971600D01*
X166153636Y-96972714D01*
X166153636Y-96972714D01*
G37*
D15*
X165862000Y-97434500D03*
G04 #@! TD*
D14*
G04 #@! TO.C,C5*
G36*
X164756636Y-95397714D02*
X164779104Y-95401047D01*
X164801136Y-95406566D01*
X164822522Y-95414218D01*
X164843055Y-95423929D01*
X164862537Y-95435606D01*
X164880780Y-95449137D01*
X164897610Y-95464390D01*
X164912863Y-95481220D01*
X164926394Y-95499463D01*
X164938071Y-95518945D01*
X164947782Y-95539478D01*
X164955434Y-95560864D01*
X164960953Y-95582896D01*
X164964286Y-95605364D01*
X164965400Y-95628050D01*
X164965400Y-96090950D01*
X164964286Y-96113636D01*
X164960953Y-96136104D01*
X164955434Y-96158136D01*
X164947782Y-96179522D01*
X164938071Y-96200055D01*
X164926394Y-96219537D01*
X164912863Y-96237780D01*
X164897610Y-96254610D01*
X164880780Y-96269863D01*
X164862537Y-96283394D01*
X164843055Y-96295071D01*
X164822522Y-96304782D01*
X164801136Y-96312434D01*
X164779104Y-96317953D01*
X164756636Y-96321286D01*
X164733950Y-96322400D01*
X164196050Y-96322400D01*
X164173364Y-96321286D01*
X164150896Y-96317953D01*
X164128864Y-96312434D01*
X164107478Y-96304782D01*
X164086945Y-96295071D01*
X164067463Y-96283394D01*
X164049220Y-96269863D01*
X164032390Y-96254610D01*
X164017137Y-96237780D01*
X164003606Y-96219537D01*
X163991929Y-96200055D01*
X163982218Y-96179522D01*
X163974566Y-96158136D01*
X163969047Y-96136104D01*
X163965714Y-96113636D01*
X163964600Y-96090950D01*
X163964600Y-95628050D01*
X163965714Y-95605364D01*
X163969047Y-95582896D01*
X163974566Y-95560864D01*
X163982218Y-95539478D01*
X163991929Y-95518945D01*
X164003606Y-95499463D01*
X164017137Y-95481220D01*
X164032390Y-95464390D01*
X164049220Y-95449137D01*
X164067463Y-95435606D01*
X164086945Y-95423929D01*
X164107478Y-95414218D01*
X164128864Y-95406566D01*
X164150896Y-95401047D01*
X164173364Y-95397714D01*
X164196050Y-95396600D01*
X164733950Y-95396600D01*
X164756636Y-95397714D01*
X164756636Y-95397714D01*
G37*
D15*
X164465000Y-95859500D03*
D14*
G36*
X164756636Y-96972714D02*
X164779104Y-96976047D01*
X164801136Y-96981566D01*
X164822522Y-96989218D01*
X164843055Y-96998929D01*
X164862537Y-97010606D01*
X164880780Y-97024137D01*
X164897610Y-97039390D01*
X164912863Y-97056220D01*
X164926394Y-97074463D01*
X164938071Y-97093945D01*
X164947782Y-97114478D01*
X164955434Y-97135864D01*
X164960953Y-97157896D01*
X164964286Y-97180364D01*
X164965400Y-97203050D01*
X164965400Y-97665950D01*
X164964286Y-97688636D01*
X164960953Y-97711104D01*
X164955434Y-97733136D01*
X164947782Y-97754522D01*
X164938071Y-97775055D01*
X164926394Y-97794537D01*
X164912863Y-97812780D01*
X164897610Y-97829610D01*
X164880780Y-97844863D01*
X164862537Y-97858394D01*
X164843055Y-97870071D01*
X164822522Y-97879782D01*
X164801136Y-97887434D01*
X164779104Y-97892953D01*
X164756636Y-97896286D01*
X164733950Y-97897400D01*
X164196050Y-97897400D01*
X164173364Y-97896286D01*
X164150896Y-97892953D01*
X164128864Y-97887434D01*
X164107478Y-97879782D01*
X164086945Y-97870071D01*
X164067463Y-97858394D01*
X164049220Y-97844863D01*
X164032390Y-97829610D01*
X164017137Y-97812780D01*
X164003606Y-97794537D01*
X163991929Y-97775055D01*
X163982218Y-97754522D01*
X163974566Y-97733136D01*
X163969047Y-97711104D01*
X163965714Y-97688636D01*
X163964600Y-97665950D01*
X163964600Y-97203050D01*
X163965714Y-97180364D01*
X163969047Y-97157896D01*
X163974566Y-97135864D01*
X163982218Y-97114478D01*
X163991929Y-97093945D01*
X164003606Y-97074463D01*
X164017137Y-97056220D01*
X164032390Y-97039390D01*
X164049220Y-97024137D01*
X164067463Y-97010606D01*
X164086945Y-96998929D01*
X164107478Y-96989218D01*
X164128864Y-96981566D01*
X164150896Y-96976047D01*
X164173364Y-96972714D01*
X164196050Y-96971600D01*
X164733950Y-96971600D01*
X164756636Y-96972714D01*
X164756636Y-96972714D01*
G37*
D15*
X164465000Y-97434500D03*
G04 #@! TD*
D14*
G04 #@! TO.C,C6*
G36*
X181610136Y-97036714D02*
X181632604Y-97040047D01*
X181654636Y-97045566D01*
X181676022Y-97053218D01*
X181696555Y-97062929D01*
X181716037Y-97074606D01*
X181734280Y-97088137D01*
X181751110Y-97103390D01*
X181766363Y-97120220D01*
X181779894Y-97138463D01*
X181791571Y-97157945D01*
X181801282Y-97178478D01*
X181808934Y-97199864D01*
X181814453Y-97221896D01*
X181817786Y-97244364D01*
X181818900Y-97267050D01*
X181818900Y-97804950D01*
X181817786Y-97827636D01*
X181814453Y-97850104D01*
X181808934Y-97872136D01*
X181801282Y-97893522D01*
X181791571Y-97914055D01*
X181779894Y-97933537D01*
X181766363Y-97951780D01*
X181751110Y-97968610D01*
X181734280Y-97983863D01*
X181716037Y-97997394D01*
X181696555Y-98009071D01*
X181676022Y-98018782D01*
X181654636Y-98026434D01*
X181632604Y-98031953D01*
X181610136Y-98035286D01*
X181587450Y-98036400D01*
X181124550Y-98036400D01*
X181101864Y-98035286D01*
X181079396Y-98031953D01*
X181057364Y-98026434D01*
X181035978Y-98018782D01*
X181015445Y-98009071D01*
X180995963Y-97997394D01*
X180977720Y-97983863D01*
X180960890Y-97968610D01*
X180945637Y-97951780D01*
X180932106Y-97933537D01*
X180920429Y-97914055D01*
X180910718Y-97893522D01*
X180903066Y-97872136D01*
X180897547Y-97850104D01*
X180894214Y-97827636D01*
X180893100Y-97804950D01*
X180893100Y-97267050D01*
X180894214Y-97244364D01*
X180897547Y-97221896D01*
X180903066Y-97199864D01*
X180910718Y-97178478D01*
X180920429Y-97157945D01*
X180932106Y-97138463D01*
X180945637Y-97120220D01*
X180960890Y-97103390D01*
X180977720Y-97088137D01*
X180995963Y-97074606D01*
X181015445Y-97062929D01*
X181035978Y-97053218D01*
X181057364Y-97045566D01*
X181079396Y-97040047D01*
X181101864Y-97036714D01*
X181124550Y-97035600D01*
X181587450Y-97035600D01*
X181610136Y-97036714D01*
X181610136Y-97036714D01*
G37*
D15*
X181356000Y-97536000D03*
D14*
G36*
X183185136Y-97036714D02*
X183207604Y-97040047D01*
X183229636Y-97045566D01*
X183251022Y-97053218D01*
X183271555Y-97062929D01*
X183291037Y-97074606D01*
X183309280Y-97088137D01*
X183326110Y-97103390D01*
X183341363Y-97120220D01*
X183354894Y-97138463D01*
X183366571Y-97157945D01*
X183376282Y-97178478D01*
X183383934Y-97199864D01*
X183389453Y-97221896D01*
X183392786Y-97244364D01*
X183393900Y-97267050D01*
X183393900Y-97804950D01*
X183392786Y-97827636D01*
X183389453Y-97850104D01*
X183383934Y-97872136D01*
X183376282Y-97893522D01*
X183366571Y-97914055D01*
X183354894Y-97933537D01*
X183341363Y-97951780D01*
X183326110Y-97968610D01*
X183309280Y-97983863D01*
X183291037Y-97997394D01*
X183271555Y-98009071D01*
X183251022Y-98018782D01*
X183229636Y-98026434D01*
X183207604Y-98031953D01*
X183185136Y-98035286D01*
X183162450Y-98036400D01*
X182699550Y-98036400D01*
X182676864Y-98035286D01*
X182654396Y-98031953D01*
X182632364Y-98026434D01*
X182610978Y-98018782D01*
X182590445Y-98009071D01*
X182570963Y-97997394D01*
X182552720Y-97983863D01*
X182535890Y-97968610D01*
X182520637Y-97951780D01*
X182507106Y-97933537D01*
X182495429Y-97914055D01*
X182485718Y-97893522D01*
X182478066Y-97872136D01*
X182472547Y-97850104D01*
X182469214Y-97827636D01*
X182468100Y-97804950D01*
X182468100Y-97267050D01*
X182469214Y-97244364D01*
X182472547Y-97221896D01*
X182478066Y-97199864D01*
X182485718Y-97178478D01*
X182495429Y-97157945D01*
X182507106Y-97138463D01*
X182520637Y-97120220D01*
X182535890Y-97103390D01*
X182552720Y-97088137D01*
X182570963Y-97074606D01*
X182590445Y-97062929D01*
X182610978Y-97053218D01*
X182632364Y-97045566D01*
X182654396Y-97040047D01*
X182676864Y-97036714D01*
X182699550Y-97035600D01*
X183162450Y-97035600D01*
X183185136Y-97036714D01*
X183185136Y-97036714D01*
G37*
D15*
X182931000Y-97536000D03*
G04 #@! TD*
D14*
G04 #@! TO.C,C7*
G36*
X183185136Y-94204614D02*
X183207604Y-94207947D01*
X183229636Y-94213466D01*
X183251022Y-94221118D01*
X183271555Y-94230829D01*
X183291037Y-94242506D01*
X183309280Y-94256037D01*
X183326110Y-94271290D01*
X183341363Y-94288120D01*
X183354894Y-94306363D01*
X183366571Y-94325845D01*
X183376282Y-94346378D01*
X183383934Y-94367764D01*
X183389453Y-94389796D01*
X183392786Y-94412264D01*
X183393900Y-94434950D01*
X183393900Y-94972850D01*
X183392786Y-94995536D01*
X183389453Y-95018004D01*
X183383934Y-95040036D01*
X183376282Y-95061422D01*
X183366571Y-95081955D01*
X183354894Y-95101437D01*
X183341363Y-95119680D01*
X183326110Y-95136510D01*
X183309280Y-95151763D01*
X183291037Y-95165294D01*
X183271555Y-95176971D01*
X183251022Y-95186682D01*
X183229636Y-95194334D01*
X183207604Y-95199853D01*
X183185136Y-95203186D01*
X183162450Y-95204300D01*
X182699550Y-95204300D01*
X182676864Y-95203186D01*
X182654396Y-95199853D01*
X182632364Y-95194334D01*
X182610978Y-95186682D01*
X182590445Y-95176971D01*
X182570963Y-95165294D01*
X182552720Y-95151763D01*
X182535890Y-95136510D01*
X182520637Y-95119680D01*
X182507106Y-95101437D01*
X182495429Y-95081955D01*
X182485718Y-95061422D01*
X182478066Y-95040036D01*
X182472547Y-95018004D01*
X182469214Y-94995536D01*
X182468100Y-94972850D01*
X182468100Y-94434950D01*
X182469214Y-94412264D01*
X182472547Y-94389796D01*
X182478066Y-94367764D01*
X182485718Y-94346378D01*
X182495429Y-94325845D01*
X182507106Y-94306363D01*
X182520637Y-94288120D01*
X182535890Y-94271290D01*
X182552720Y-94256037D01*
X182570963Y-94242506D01*
X182590445Y-94230829D01*
X182610978Y-94221118D01*
X182632364Y-94213466D01*
X182654396Y-94207947D01*
X182676864Y-94204614D01*
X182699550Y-94203500D01*
X183162450Y-94203500D01*
X183185136Y-94204614D01*
X183185136Y-94204614D01*
G37*
D15*
X182931000Y-94703900D03*
D14*
G36*
X181610136Y-94204614D02*
X181632604Y-94207947D01*
X181654636Y-94213466D01*
X181676022Y-94221118D01*
X181696555Y-94230829D01*
X181716037Y-94242506D01*
X181734280Y-94256037D01*
X181751110Y-94271290D01*
X181766363Y-94288120D01*
X181779894Y-94306363D01*
X181791571Y-94325845D01*
X181801282Y-94346378D01*
X181808934Y-94367764D01*
X181814453Y-94389796D01*
X181817786Y-94412264D01*
X181818900Y-94434950D01*
X181818900Y-94972850D01*
X181817786Y-94995536D01*
X181814453Y-95018004D01*
X181808934Y-95040036D01*
X181801282Y-95061422D01*
X181791571Y-95081955D01*
X181779894Y-95101437D01*
X181766363Y-95119680D01*
X181751110Y-95136510D01*
X181734280Y-95151763D01*
X181716037Y-95165294D01*
X181696555Y-95176971D01*
X181676022Y-95186682D01*
X181654636Y-95194334D01*
X181632604Y-95199853D01*
X181610136Y-95203186D01*
X181587450Y-95204300D01*
X181124550Y-95204300D01*
X181101864Y-95203186D01*
X181079396Y-95199853D01*
X181057364Y-95194334D01*
X181035978Y-95186682D01*
X181015445Y-95176971D01*
X180995963Y-95165294D01*
X180977720Y-95151763D01*
X180960890Y-95136510D01*
X180945637Y-95119680D01*
X180932106Y-95101437D01*
X180920429Y-95081955D01*
X180910718Y-95061422D01*
X180903066Y-95040036D01*
X180897547Y-95018004D01*
X180894214Y-94995536D01*
X180893100Y-94972850D01*
X180893100Y-94434950D01*
X180894214Y-94412264D01*
X180897547Y-94389796D01*
X180903066Y-94367764D01*
X180910718Y-94346378D01*
X180920429Y-94325845D01*
X180932106Y-94306363D01*
X180945637Y-94288120D01*
X180960890Y-94271290D01*
X180977720Y-94256037D01*
X180995963Y-94242506D01*
X181015445Y-94230829D01*
X181035978Y-94221118D01*
X181057364Y-94213466D01*
X181079396Y-94207947D01*
X181101864Y-94204614D01*
X181124550Y-94203500D01*
X181587450Y-94203500D01*
X181610136Y-94204614D01*
X181610136Y-94204614D01*
G37*
D15*
X181356000Y-94703900D03*
G04 #@! TD*
D14*
G04 #@! TO.C,C8*
G36*
X183185136Y-98433714D02*
X183207604Y-98437047D01*
X183229636Y-98442566D01*
X183251022Y-98450218D01*
X183271555Y-98459929D01*
X183291037Y-98471606D01*
X183309280Y-98485137D01*
X183326110Y-98500390D01*
X183341363Y-98517220D01*
X183354894Y-98535463D01*
X183366571Y-98554945D01*
X183376282Y-98575478D01*
X183383934Y-98596864D01*
X183389453Y-98618896D01*
X183392786Y-98641364D01*
X183393900Y-98664050D01*
X183393900Y-99201950D01*
X183392786Y-99224636D01*
X183389453Y-99247104D01*
X183383934Y-99269136D01*
X183376282Y-99290522D01*
X183366571Y-99311055D01*
X183354894Y-99330537D01*
X183341363Y-99348780D01*
X183326110Y-99365610D01*
X183309280Y-99380863D01*
X183291037Y-99394394D01*
X183271555Y-99406071D01*
X183251022Y-99415782D01*
X183229636Y-99423434D01*
X183207604Y-99428953D01*
X183185136Y-99432286D01*
X183162450Y-99433400D01*
X182699550Y-99433400D01*
X182676864Y-99432286D01*
X182654396Y-99428953D01*
X182632364Y-99423434D01*
X182610978Y-99415782D01*
X182590445Y-99406071D01*
X182570963Y-99394394D01*
X182552720Y-99380863D01*
X182535890Y-99365610D01*
X182520637Y-99348780D01*
X182507106Y-99330537D01*
X182495429Y-99311055D01*
X182485718Y-99290522D01*
X182478066Y-99269136D01*
X182472547Y-99247104D01*
X182469214Y-99224636D01*
X182468100Y-99201950D01*
X182468100Y-98664050D01*
X182469214Y-98641364D01*
X182472547Y-98618896D01*
X182478066Y-98596864D01*
X182485718Y-98575478D01*
X182495429Y-98554945D01*
X182507106Y-98535463D01*
X182520637Y-98517220D01*
X182535890Y-98500390D01*
X182552720Y-98485137D01*
X182570963Y-98471606D01*
X182590445Y-98459929D01*
X182610978Y-98450218D01*
X182632364Y-98442566D01*
X182654396Y-98437047D01*
X182676864Y-98433714D01*
X182699550Y-98432600D01*
X183162450Y-98432600D01*
X183185136Y-98433714D01*
X183185136Y-98433714D01*
G37*
D15*
X182931000Y-98933000D03*
D14*
G36*
X181610136Y-98433714D02*
X181632604Y-98437047D01*
X181654636Y-98442566D01*
X181676022Y-98450218D01*
X181696555Y-98459929D01*
X181716037Y-98471606D01*
X181734280Y-98485137D01*
X181751110Y-98500390D01*
X181766363Y-98517220D01*
X181779894Y-98535463D01*
X181791571Y-98554945D01*
X181801282Y-98575478D01*
X181808934Y-98596864D01*
X181814453Y-98618896D01*
X181817786Y-98641364D01*
X181818900Y-98664050D01*
X181818900Y-99201950D01*
X181817786Y-99224636D01*
X181814453Y-99247104D01*
X181808934Y-99269136D01*
X181801282Y-99290522D01*
X181791571Y-99311055D01*
X181779894Y-99330537D01*
X181766363Y-99348780D01*
X181751110Y-99365610D01*
X181734280Y-99380863D01*
X181716037Y-99394394D01*
X181696555Y-99406071D01*
X181676022Y-99415782D01*
X181654636Y-99423434D01*
X181632604Y-99428953D01*
X181610136Y-99432286D01*
X181587450Y-99433400D01*
X181124550Y-99433400D01*
X181101864Y-99432286D01*
X181079396Y-99428953D01*
X181057364Y-99423434D01*
X181035978Y-99415782D01*
X181015445Y-99406071D01*
X180995963Y-99394394D01*
X180977720Y-99380863D01*
X180960890Y-99365610D01*
X180945637Y-99348780D01*
X180932106Y-99330537D01*
X180920429Y-99311055D01*
X180910718Y-99290522D01*
X180903066Y-99269136D01*
X180897547Y-99247104D01*
X180894214Y-99224636D01*
X180893100Y-99201950D01*
X180893100Y-98664050D01*
X180894214Y-98641364D01*
X180897547Y-98618896D01*
X180903066Y-98596864D01*
X180910718Y-98575478D01*
X180920429Y-98554945D01*
X180932106Y-98535463D01*
X180945637Y-98517220D01*
X180960890Y-98500390D01*
X180977720Y-98485137D01*
X180995963Y-98471606D01*
X181015445Y-98459929D01*
X181035978Y-98450218D01*
X181057364Y-98442566D01*
X181079396Y-98437047D01*
X181101864Y-98433714D01*
X181124550Y-98432600D01*
X181587450Y-98432600D01*
X181610136Y-98433714D01*
X181610136Y-98433714D01*
G37*
D15*
X181356000Y-98933000D03*
G04 #@! TD*
D14*
G04 #@! TO.C,C9*
G36*
X175805636Y-104618214D02*
X175828104Y-104621547D01*
X175850136Y-104627066D01*
X175871522Y-104634718D01*
X175892055Y-104644429D01*
X175911537Y-104656106D01*
X175929780Y-104669637D01*
X175946610Y-104684890D01*
X175961863Y-104701720D01*
X175975394Y-104719963D01*
X175987071Y-104739445D01*
X175996782Y-104759978D01*
X176004434Y-104781364D01*
X176009953Y-104803396D01*
X176013286Y-104825864D01*
X176014400Y-104848550D01*
X176014400Y-105311450D01*
X176013286Y-105334136D01*
X176009953Y-105356604D01*
X176004434Y-105378636D01*
X175996782Y-105400022D01*
X175987071Y-105420555D01*
X175975394Y-105440037D01*
X175961863Y-105458280D01*
X175946610Y-105475110D01*
X175929780Y-105490363D01*
X175911537Y-105503894D01*
X175892055Y-105515571D01*
X175871522Y-105525282D01*
X175850136Y-105532934D01*
X175828104Y-105538453D01*
X175805636Y-105541786D01*
X175782950Y-105542900D01*
X175245050Y-105542900D01*
X175222364Y-105541786D01*
X175199896Y-105538453D01*
X175177864Y-105532934D01*
X175156478Y-105525282D01*
X175135945Y-105515571D01*
X175116463Y-105503894D01*
X175098220Y-105490363D01*
X175081390Y-105475110D01*
X175066137Y-105458280D01*
X175052606Y-105440037D01*
X175040929Y-105420555D01*
X175031218Y-105400022D01*
X175023566Y-105378636D01*
X175018047Y-105356604D01*
X175014714Y-105334136D01*
X175013600Y-105311450D01*
X175013600Y-104848550D01*
X175014714Y-104825864D01*
X175018047Y-104803396D01*
X175023566Y-104781364D01*
X175031218Y-104759978D01*
X175040929Y-104739445D01*
X175052606Y-104719963D01*
X175066137Y-104701720D01*
X175081390Y-104684890D01*
X175098220Y-104669637D01*
X175116463Y-104656106D01*
X175135945Y-104644429D01*
X175156478Y-104634718D01*
X175177864Y-104627066D01*
X175199896Y-104621547D01*
X175222364Y-104618214D01*
X175245050Y-104617100D01*
X175782950Y-104617100D01*
X175805636Y-104618214D01*
X175805636Y-104618214D01*
G37*
D15*
X175514000Y-105080000D03*
D14*
G36*
X175805636Y-103043214D02*
X175828104Y-103046547D01*
X175850136Y-103052066D01*
X175871522Y-103059718D01*
X175892055Y-103069429D01*
X175911537Y-103081106D01*
X175929780Y-103094637D01*
X175946610Y-103109890D01*
X175961863Y-103126720D01*
X175975394Y-103144963D01*
X175987071Y-103164445D01*
X175996782Y-103184978D01*
X176004434Y-103206364D01*
X176009953Y-103228396D01*
X176013286Y-103250864D01*
X176014400Y-103273550D01*
X176014400Y-103736450D01*
X176013286Y-103759136D01*
X176009953Y-103781604D01*
X176004434Y-103803636D01*
X175996782Y-103825022D01*
X175987071Y-103845555D01*
X175975394Y-103865037D01*
X175961863Y-103883280D01*
X175946610Y-103900110D01*
X175929780Y-103915363D01*
X175911537Y-103928894D01*
X175892055Y-103940571D01*
X175871522Y-103950282D01*
X175850136Y-103957934D01*
X175828104Y-103963453D01*
X175805636Y-103966786D01*
X175782950Y-103967900D01*
X175245050Y-103967900D01*
X175222364Y-103966786D01*
X175199896Y-103963453D01*
X175177864Y-103957934D01*
X175156478Y-103950282D01*
X175135945Y-103940571D01*
X175116463Y-103928894D01*
X175098220Y-103915363D01*
X175081390Y-103900110D01*
X175066137Y-103883280D01*
X175052606Y-103865037D01*
X175040929Y-103845555D01*
X175031218Y-103825022D01*
X175023566Y-103803636D01*
X175018047Y-103781604D01*
X175014714Y-103759136D01*
X175013600Y-103736450D01*
X175013600Y-103273550D01*
X175014714Y-103250864D01*
X175018047Y-103228396D01*
X175023566Y-103206364D01*
X175031218Y-103184978D01*
X175040929Y-103164445D01*
X175052606Y-103144963D01*
X175066137Y-103126720D01*
X175081390Y-103109890D01*
X175098220Y-103094637D01*
X175116463Y-103081106D01*
X175135945Y-103069429D01*
X175156478Y-103059718D01*
X175177864Y-103052066D01*
X175199896Y-103046547D01*
X175222364Y-103043214D01*
X175245050Y-103042100D01*
X175782950Y-103042100D01*
X175805636Y-103043214D01*
X175805636Y-103043214D01*
G37*
D15*
X175514000Y-103505000D03*
G04 #@! TD*
D14*
G04 #@! TO.C,C10*
G36*
X177329636Y-104618214D02*
X177352104Y-104621547D01*
X177374136Y-104627066D01*
X177395522Y-104634718D01*
X177416055Y-104644429D01*
X177435537Y-104656106D01*
X177453780Y-104669637D01*
X177470610Y-104684890D01*
X177485863Y-104701720D01*
X177499394Y-104719963D01*
X177511071Y-104739445D01*
X177520782Y-104759978D01*
X177528434Y-104781364D01*
X177533953Y-104803396D01*
X177537286Y-104825864D01*
X177538400Y-104848550D01*
X177538400Y-105311450D01*
X177537286Y-105334136D01*
X177533953Y-105356604D01*
X177528434Y-105378636D01*
X177520782Y-105400022D01*
X177511071Y-105420555D01*
X177499394Y-105440037D01*
X177485863Y-105458280D01*
X177470610Y-105475110D01*
X177453780Y-105490363D01*
X177435537Y-105503894D01*
X177416055Y-105515571D01*
X177395522Y-105525282D01*
X177374136Y-105532934D01*
X177352104Y-105538453D01*
X177329636Y-105541786D01*
X177306950Y-105542900D01*
X176769050Y-105542900D01*
X176746364Y-105541786D01*
X176723896Y-105538453D01*
X176701864Y-105532934D01*
X176680478Y-105525282D01*
X176659945Y-105515571D01*
X176640463Y-105503894D01*
X176622220Y-105490363D01*
X176605390Y-105475110D01*
X176590137Y-105458280D01*
X176576606Y-105440037D01*
X176564929Y-105420555D01*
X176555218Y-105400022D01*
X176547566Y-105378636D01*
X176542047Y-105356604D01*
X176538714Y-105334136D01*
X176537600Y-105311450D01*
X176537600Y-104848550D01*
X176538714Y-104825864D01*
X176542047Y-104803396D01*
X176547566Y-104781364D01*
X176555218Y-104759978D01*
X176564929Y-104739445D01*
X176576606Y-104719963D01*
X176590137Y-104701720D01*
X176605390Y-104684890D01*
X176622220Y-104669637D01*
X176640463Y-104656106D01*
X176659945Y-104644429D01*
X176680478Y-104634718D01*
X176701864Y-104627066D01*
X176723896Y-104621547D01*
X176746364Y-104618214D01*
X176769050Y-104617100D01*
X177306950Y-104617100D01*
X177329636Y-104618214D01*
X177329636Y-104618214D01*
G37*
D15*
X177038000Y-105080000D03*
D14*
G36*
X177329636Y-103043214D02*
X177352104Y-103046547D01*
X177374136Y-103052066D01*
X177395522Y-103059718D01*
X177416055Y-103069429D01*
X177435537Y-103081106D01*
X177453780Y-103094637D01*
X177470610Y-103109890D01*
X177485863Y-103126720D01*
X177499394Y-103144963D01*
X177511071Y-103164445D01*
X177520782Y-103184978D01*
X177528434Y-103206364D01*
X177533953Y-103228396D01*
X177537286Y-103250864D01*
X177538400Y-103273550D01*
X177538400Y-103736450D01*
X177537286Y-103759136D01*
X177533953Y-103781604D01*
X177528434Y-103803636D01*
X177520782Y-103825022D01*
X177511071Y-103845555D01*
X177499394Y-103865037D01*
X177485863Y-103883280D01*
X177470610Y-103900110D01*
X177453780Y-103915363D01*
X177435537Y-103928894D01*
X177416055Y-103940571D01*
X177395522Y-103950282D01*
X177374136Y-103957934D01*
X177352104Y-103963453D01*
X177329636Y-103966786D01*
X177306950Y-103967900D01*
X176769050Y-103967900D01*
X176746364Y-103966786D01*
X176723896Y-103963453D01*
X176701864Y-103957934D01*
X176680478Y-103950282D01*
X176659945Y-103940571D01*
X176640463Y-103928894D01*
X176622220Y-103915363D01*
X176605390Y-103900110D01*
X176590137Y-103883280D01*
X176576606Y-103865037D01*
X176564929Y-103845555D01*
X176555218Y-103825022D01*
X176547566Y-103803636D01*
X176542047Y-103781604D01*
X176538714Y-103759136D01*
X176537600Y-103736450D01*
X176537600Y-103273550D01*
X176538714Y-103250864D01*
X176542047Y-103228396D01*
X176547566Y-103206364D01*
X176555218Y-103184978D01*
X176564929Y-103164445D01*
X176576606Y-103144963D01*
X176590137Y-103126720D01*
X176605390Y-103109890D01*
X176622220Y-103094637D01*
X176640463Y-103081106D01*
X176659945Y-103069429D01*
X176680478Y-103059718D01*
X176701864Y-103052066D01*
X176723896Y-103046547D01*
X176746364Y-103043214D01*
X176769050Y-103042100D01*
X177306950Y-103042100D01*
X177329636Y-103043214D01*
X177329636Y-103043214D01*
G37*
D15*
X177038000Y-103505000D03*
G04 #@! TD*
D14*
G04 #@! TO.C,C11*
G36*
X163359636Y-95397714D02*
X163382104Y-95401047D01*
X163404136Y-95406566D01*
X163425522Y-95414218D01*
X163446055Y-95423929D01*
X163465537Y-95435606D01*
X163483780Y-95449137D01*
X163500610Y-95464390D01*
X163515863Y-95481220D01*
X163529394Y-95499463D01*
X163541071Y-95518945D01*
X163550782Y-95539478D01*
X163558434Y-95560864D01*
X163563953Y-95582896D01*
X163567286Y-95605364D01*
X163568400Y-95628050D01*
X163568400Y-96090950D01*
X163567286Y-96113636D01*
X163563953Y-96136104D01*
X163558434Y-96158136D01*
X163550782Y-96179522D01*
X163541071Y-96200055D01*
X163529394Y-96219537D01*
X163515863Y-96237780D01*
X163500610Y-96254610D01*
X163483780Y-96269863D01*
X163465537Y-96283394D01*
X163446055Y-96295071D01*
X163425522Y-96304782D01*
X163404136Y-96312434D01*
X163382104Y-96317953D01*
X163359636Y-96321286D01*
X163336950Y-96322400D01*
X162799050Y-96322400D01*
X162776364Y-96321286D01*
X162753896Y-96317953D01*
X162731864Y-96312434D01*
X162710478Y-96304782D01*
X162689945Y-96295071D01*
X162670463Y-96283394D01*
X162652220Y-96269863D01*
X162635390Y-96254610D01*
X162620137Y-96237780D01*
X162606606Y-96219537D01*
X162594929Y-96200055D01*
X162585218Y-96179522D01*
X162577566Y-96158136D01*
X162572047Y-96136104D01*
X162568714Y-96113636D01*
X162567600Y-96090950D01*
X162567600Y-95628050D01*
X162568714Y-95605364D01*
X162572047Y-95582896D01*
X162577566Y-95560864D01*
X162585218Y-95539478D01*
X162594929Y-95518945D01*
X162606606Y-95499463D01*
X162620137Y-95481220D01*
X162635390Y-95464390D01*
X162652220Y-95449137D01*
X162670463Y-95435606D01*
X162689945Y-95423929D01*
X162710478Y-95414218D01*
X162731864Y-95406566D01*
X162753896Y-95401047D01*
X162776364Y-95397714D01*
X162799050Y-95396600D01*
X163336950Y-95396600D01*
X163359636Y-95397714D01*
X163359636Y-95397714D01*
G37*
D15*
X163068000Y-95859500D03*
D14*
G36*
X163359636Y-96972714D02*
X163382104Y-96976047D01*
X163404136Y-96981566D01*
X163425522Y-96989218D01*
X163446055Y-96998929D01*
X163465537Y-97010606D01*
X163483780Y-97024137D01*
X163500610Y-97039390D01*
X163515863Y-97056220D01*
X163529394Y-97074463D01*
X163541071Y-97093945D01*
X163550782Y-97114478D01*
X163558434Y-97135864D01*
X163563953Y-97157896D01*
X163567286Y-97180364D01*
X163568400Y-97203050D01*
X163568400Y-97665950D01*
X163567286Y-97688636D01*
X163563953Y-97711104D01*
X163558434Y-97733136D01*
X163550782Y-97754522D01*
X163541071Y-97775055D01*
X163529394Y-97794537D01*
X163515863Y-97812780D01*
X163500610Y-97829610D01*
X163483780Y-97844863D01*
X163465537Y-97858394D01*
X163446055Y-97870071D01*
X163425522Y-97879782D01*
X163404136Y-97887434D01*
X163382104Y-97892953D01*
X163359636Y-97896286D01*
X163336950Y-97897400D01*
X162799050Y-97897400D01*
X162776364Y-97896286D01*
X162753896Y-97892953D01*
X162731864Y-97887434D01*
X162710478Y-97879782D01*
X162689945Y-97870071D01*
X162670463Y-97858394D01*
X162652220Y-97844863D01*
X162635390Y-97829610D01*
X162620137Y-97812780D01*
X162606606Y-97794537D01*
X162594929Y-97775055D01*
X162585218Y-97754522D01*
X162577566Y-97733136D01*
X162572047Y-97711104D01*
X162568714Y-97688636D01*
X162567600Y-97665950D01*
X162567600Y-97203050D01*
X162568714Y-97180364D01*
X162572047Y-97157896D01*
X162577566Y-97135864D01*
X162585218Y-97114478D01*
X162594929Y-97093945D01*
X162606606Y-97074463D01*
X162620137Y-97056220D01*
X162635390Y-97039390D01*
X162652220Y-97024137D01*
X162670463Y-97010606D01*
X162689945Y-96998929D01*
X162710478Y-96989218D01*
X162731864Y-96981566D01*
X162753896Y-96976047D01*
X162776364Y-96972714D01*
X162799050Y-96971600D01*
X163336950Y-96971600D01*
X163359636Y-96972714D01*
X163359636Y-96972714D01*
G37*
D15*
X163068000Y-97434500D03*
G04 #@! TD*
D14*
G04 #@! TO.C,C12*
G36*
X146939136Y-104910714D02*
X146961604Y-104914047D01*
X146983636Y-104919566D01*
X147005022Y-104927218D01*
X147025555Y-104936929D01*
X147045037Y-104948606D01*
X147063280Y-104962137D01*
X147080110Y-104977390D01*
X147095363Y-104994220D01*
X147108894Y-105012463D01*
X147120571Y-105031945D01*
X147130282Y-105052478D01*
X147137934Y-105073864D01*
X147143453Y-105095896D01*
X147146786Y-105118364D01*
X147147900Y-105141050D01*
X147147900Y-105678950D01*
X147146786Y-105701636D01*
X147143453Y-105724104D01*
X147137934Y-105746136D01*
X147130282Y-105767522D01*
X147120571Y-105788055D01*
X147108894Y-105807537D01*
X147095363Y-105825780D01*
X147080110Y-105842610D01*
X147063280Y-105857863D01*
X147045037Y-105871394D01*
X147025555Y-105883071D01*
X147005022Y-105892782D01*
X146983636Y-105900434D01*
X146961604Y-105905953D01*
X146939136Y-105909286D01*
X146916450Y-105910400D01*
X146453550Y-105910400D01*
X146430864Y-105909286D01*
X146408396Y-105905953D01*
X146386364Y-105900434D01*
X146364978Y-105892782D01*
X146344445Y-105883071D01*
X146324963Y-105871394D01*
X146306720Y-105857863D01*
X146289890Y-105842610D01*
X146274637Y-105825780D01*
X146261106Y-105807537D01*
X146249429Y-105788055D01*
X146239718Y-105767522D01*
X146232066Y-105746136D01*
X146226547Y-105724104D01*
X146223214Y-105701636D01*
X146222100Y-105678950D01*
X146222100Y-105141050D01*
X146223214Y-105118364D01*
X146226547Y-105095896D01*
X146232066Y-105073864D01*
X146239718Y-105052478D01*
X146249429Y-105031945D01*
X146261106Y-105012463D01*
X146274637Y-104994220D01*
X146289890Y-104977390D01*
X146306720Y-104962137D01*
X146324963Y-104948606D01*
X146344445Y-104936929D01*
X146364978Y-104927218D01*
X146386364Y-104919566D01*
X146408396Y-104914047D01*
X146430864Y-104910714D01*
X146453550Y-104909600D01*
X146916450Y-104909600D01*
X146939136Y-104910714D01*
X146939136Y-104910714D01*
G37*
D15*
X146685000Y-105410000D03*
D14*
G36*
X145364136Y-104910714D02*
X145386604Y-104914047D01*
X145408636Y-104919566D01*
X145430022Y-104927218D01*
X145450555Y-104936929D01*
X145470037Y-104948606D01*
X145488280Y-104962137D01*
X145505110Y-104977390D01*
X145520363Y-104994220D01*
X145533894Y-105012463D01*
X145545571Y-105031945D01*
X145555282Y-105052478D01*
X145562934Y-105073864D01*
X145568453Y-105095896D01*
X145571786Y-105118364D01*
X145572900Y-105141050D01*
X145572900Y-105678950D01*
X145571786Y-105701636D01*
X145568453Y-105724104D01*
X145562934Y-105746136D01*
X145555282Y-105767522D01*
X145545571Y-105788055D01*
X145533894Y-105807537D01*
X145520363Y-105825780D01*
X145505110Y-105842610D01*
X145488280Y-105857863D01*
X145470037Y-105871394D01*
X145450555Y-105883071D01*
X145430022Y-105892782D01*
X145408636Y-105900434D01*
X145386604Y-105905953D01*
X145364136Y-105909286D01*
X145341450Y-105910400D01*
X144878550Y-105910400D01*
X144855864Y-105909286D01*
X144833396Y-105905953D01*
X144811364Y-105900434D01*
X144789978Y-105892782D01*
X144769445Y-105883071D01*
X144749963Y-105871394D01*
X144731720Y-105857863D01*
X144714890Y-105842610D01*
X144699637Y-105825780D01*
X144686106Y-105807537D01*
X144674429Y-105788055D01*
X144664718Y-105767522D01*
X144657066Y-105746136D01*
X144651547Y-105724104D01*
X144648214Y-105701636D01*
X144647100Y-105678950D01*
X144647100Y-105141050D01*
X144648214Y-105118364D01*
X144651547Y-105095896D01*
X144657066Y-105073864D01*
X144664718Y-105052478D01*
X144674429Y-105031945D01*
X144686106Y-105012463D01*
X144699637Y-104994220D01*
X144714890Y-104977390D01*
X144731720Y-104962137D01*
X144749963Y-104948606D01*
X144769445Y-104936929D01*
X144789978Y-104927218D01*
X144811364Y-104919566D01*
X144833396Y-104914047D01*
X144855864Y-104910714D01*
X144878550Y-104909600D01*
X145341450Y-104909600D01*
X145364136Y-104910714D01*
X145364136Y-104910714D01*
G37*
D15*
X145110000Y-105410000D03*
G04 #@! TD*
D14*
G04 #@! TO.C,C13*
G36*
X148500636Y-104770214D02*
X148523104Y-104773547D01*
X148545136Y-104779066D01*
X148566522Y-104786718D01*
X148587055Y-104796429D01*
X148606537Y-104808106D01*
X148624780Y-104821637D01*
X148641610Y-104836890D01*
X148656863Y-104853720D01*
X148670394Y-104871963D01*
X148682071Y-104891445D01*
X148691782Y-104911978D01*
X148699434Y-104933364D01*
X148704953Y-104955396D01*
X148708286Y-104977864D01*
X148709400Y-105000550D01*
X148709400Y-105463450D01*
X148708286Y-105486136D01*
X148704953Y-105508604D01*
X148699434Y-105530636D01*
X148691782Y-105552022D01*
X148682071Y-105572555D01*
X148670394Y-105592037D01*
X148656863Y-105610280D01*
X148641610Y-105627110D01*
X148624780Y-105642363D01*
X148606537Y-105655894D01*
X148587055Y-105667571D01*
X148566522Y-105677282D01*
X148545136Y-105684934D01*
X148523104Y-105690453D01*
X148500636Y-105693786D01*
X148477950Y-105694900D01*
X147940050Y-105694900D01*
X147917364Y-105693786D01*
X147894896Y-105690453D01*
X147872864Y-105684934D01*
X147851478Y-105677282D01*
X147830945Y-105667571D01*
X147811463Y-105655894D01*
X147793220Y-105642363D01*
X147776390Y-105627110D01*
X147761137Y-105610280D01*
X147747606Y-105592037D01*
X147735929Y-105572555D01*
X147726218Y-105552022D01*
X147718566Y-105530636D01*
X147713047Y-105508604D01*
X147709714Y-105486136D01*
X147708600Y-105463450D01*
X147708600Y-105000550D01*
X147709714Y-104977864D01*
X147713047Y-104955396D01*
X147718566Y-104933364D01*
X147726218Y-104911978D01*
X147735929Y-104891445D01*
X147747606Y-104871963D01*
X147761137Y-104853720D01*
X147776390Y-104836890D01*
X147793220Y-104821637D01*
X147811463Y-104808106D01*
X147830945Y-104796429D01*
X147851478Y-104786718D01*
X147872864Y-104779066D01*
X147894896Y-104773547D01*
X147917364Y-104770214D01*
X147940050Y-104769100D01*
X148477950Y-104769100D01*
X148500636Y-104770214D01*
X148500636Y-104770214D01*
G37*
D15*
X148209000Y-105232000D03*
D14*
G36*
X148500636Y-106345214D02*
X148523104Y-106348547D01*
X148545136Y-106354066D01*
X148566522Y-106361718D01*
X148587055Y-106371429D01*
X148606537Y-106383106D01*
X148624780Y-106396637D01*
X148641610Y-106411890D01*
X148656863Y-106428720D01*
X148670394Y-106446963D01*
X148682071Y-106466445D01*
X148691782Y-106486978D01*
X148699434Y-106508364D01*
X148704953Y-106530396D01*
X148708286Y-106552864D01*
X148709400Y-106575550D01*
X148709400Y-107038450D01*
X148708286Y-107061136D01*
X148704953Y-107083604D01*
X148699434Y-107105636D01*
X148691782Y-107127022D01*
X148682071Y-107147555D01*
X148670394Y-107167037D01*
X148656863Y-107185280D01*
X148641610Y-107202110D01*
X148624780Y-107217363D01*
X148606537Y-107230894D01*
X148587055Y-107242571D01*
X148566522Y-107252282D01*
X148545136Y-107259934D01*
X148523104Y-107265453D01*
X148500636Y-107268786D01*
X148477950Y-107269900D01*
X147940050Y-107269900D01*
X147917364Y-107268786D01*
X147894896Y-107265453D01*
X147872864Y-107259934D01*
X147851478Y-107252282D01*
X147830945Y-107242571D01*
X147811463Y-107230894D01*
X147793220Y-107217363D01*
X147776390Y-107202110D01*
X147761137Y-107185280D01*
X147747606Y-107167037D01*
X147735929Y-107147555D01*
X147726218Y-107127022D01*
X147718566Y-107105636D01*
X147713047Y-107083604D01*
X147709714Y-107061136D01*
X147708600Y-107038450D01*
X147708600Y-106575550D01*
X147709714Y-106552864D01*
X147713047Y-106530396D01*
X147718566Y-106508364D01*
X147726218Y-106486978D01*
X147735929Y-106466445D01*
X147747606Y-106446963D01*
X147761137Y-106428720D01*
X147776390Y-106411890D01*
X147793220Y-106396637D01*
X147811463Y-106383106D01*
X147830945Y-106371429D01*
X147851478Y-106361718D01*
X147872864Y-106354066D01*
X147894896Y-106348547D01*
X147917364Y-106345214D01*
X147940050Y-106344100D01*
X148477950Y-106344100D01*
X148500636Y-106345214D01*
X148500636Y-106345214D01*
G37*
D15*
X148209000Y-106807000D03*
G04 #@! TD*
D14*
G04 #@! TO.C,R2*
G36*
X182282636Y-87422214D02*
X182305104Y-87425547D01*
X182327136Y-87431066D01*
X182348522Y-87438718D01*
X182369055Y-87448429D01*
X182388537Y-87460106D01*
X182406780Y-87473637D01*
X182423610Y-87488890D01*
X182438863Y-87505720D01*
X182452394Y-87523963D01*
X182464071Y-87543445D01*
X182473782Y-87563978D01*
X182481434Y-87585364D01*
X182486953Y-87607396D01*
X182490286Y-87629864D01*
X182491400Y-87652550D01*
X182491400Y-88115450D01*
X182490286Y-88138136D01*
X182486953Y-88160604D01*
X182481434Y-88182636D01*
X182473782Y-88204022D01*
X182464071Y-88224555D01*
X182452394Y-88244037D01*
X182438863Y-88262280D01*
X182423610Y-88279110D01*
X182406780Y-88294363D01*
X182388537Y-88307894D01*
X182369055Y-88319571D01*
X182348522Y-88329282D01*
X182327136Y-88336934D01*
X182305104Y-88342453D01*
X182282636Y-88345786D01*
X182259950Y-88346900D01*
X181722050Y-88346900D01*
X181699364Y-88345786D01*
X181676896Y-88342453D01*
X181654864Y-88336934D01*
X181633478Y-88329282D01*
X181612945Y-88319571D01*
X181593463Y-88307894D01*
X181575220Y-88294363D01*
X181558390Y-88279110D01*
X181543137Y-88262280D01*
X181529606Y-88244037D01*
X181517929Y-88224555D01*
X181508218Y-88204022D01*
X181500566Y-88182636D01*
X181495047Y-88160604D01*
X181491714Y-88138136D01*
X181490600Y-88115450D01*
X181490600Y-87652550D01*
X181491714Y-87629864D01*
X181495047Y-87607396D01*
X181500566Y-87585364D01*
X181508218Y-87563978D01*
X181517929Y-87543445D01*
X181529606Y-87523963D01*
X181543137Y-87505720D01*
X181558390Y-87488890D01*
X181575220Y-87473637D01*
X181593463Y-87460106D01*
X181612945Y-87448429D01*
X181633478Y-87438718D01*
X181654864Y-87431066D01*
X181676896Y-87425547D01*
X181699364Y-87422214D01*
X181722050Y-87421100D01*
X182259950Y-87421100D01*
X182282636Y-87422214D01*
X182282636Y-87422214D01*
G37*
D15*
X181991000Y-87884000D03*
D14*
G36*
X182282636Y-88997214D02*
X182305104Y-89000547D01*
X182327136Y-89006066D01*
X182348522Y-89013718D01*
X182369055Y-89023429D01*
X182388537Y-89035106D01*
X182406780Y-89048637D01*
X182423610Y-89063890D01*
X182438863Y-89080720D01*
X182452394Y-89098963D01*
X182464071Y-89118445D01*
X182473782Y-89138978D01*
X182481434Y-89160364D01*
X182486953Y-89182396D01*
X182490286Y-89204864D01*
X182491400Y-89227550D01*
X182491400Y-89690450D01*
X182490286Y-89713136D01*
X182486953Y-89735604D01*
X182481434Y-89757636D01*
X182473782Y-89779022D01*
X182464071Y-89799555D01*
X182452394Y-89819037D01*
X182438863Y-89837280D01*
X182423610Y-89854110D01*
X182406780Y-89869363D01*
X182388537Y-89882894D01*
X182369055Y-89894571D01*
X182348522Y-89904282D01*
X182327136Y-89911934D01*
X182305104Y-89917453D01*
X182282636Y-89920786D01*
X182259950Y-89921900D01*
X181722050Y-89921900D01*
X181699364Y-89920786D01*
X181676896Y-89917453D01*
X181654864Y-89911934D01*
X181633478Y-89904282D01*
X181612945Y-89894571D01*
X181593463Y-89882894D01*
X181575220Y-89869363D01*
X181558390Y-89854110D01*
X181543137Y-89837280D01*
X181529606Y-89819037D01*
X181517929Y-89799555D01*
X181508218Y-89779022D01*
X181500566Y-89757636D01*
X181495047Y-89735604D01*
X181491714Y-89713136D01*
X181490600Y-89690450D01*
X181490600Y-89227550D01*
X181491714Y-89204864D01*
X181495047Y-89182396D01*
X181500566Y-89160364D01*
X181508218Y-89138978D01*
X181517929Y-89118445D01*
X181529606Y-89098963D01*
X181543137Y-89080720D01*
X181558390Y-89063890D01*
X181575220Y-89048637D01*
X181593463Y-89035106D01*
X181612945Y-89023429D01*
X181633478Y-89013718D01*
X181654864Y-89006066D01*
X181676896Y-89000547D01*
X181699364Y-88997214D01*
X181722050Y-88996100D01*
X182259950Y-88996100D01*
X182282636Y-88997214D01*
X182282636Y-88997214D01*
G37*
D15*
X181991000Y-89459000D03*
G04 #@! TD*
D19*
G04 #@! TO.C,U2*
X144609400Y-106691600D03*
X144609400Y-107191600D03*
X144609400Y-107691600D03*
X144609400Y-108191600D03*
D20*
X146284400Y-106516600D03*
X145784400Y-106516600D03*
X145284400Y-106516600D03*
D19*
X146959400Y-106691600D03*
X146959400Y-107191600D03*
X146959400Y-107691600D03*
X146959400Y-108191600D03*
D20*
X146284400Y-108366600D03*
X145784400Y-108366600D03*
X145284400Y-108366600D03*
G04 #@! TD*
D21*
G04 #@! TO.C,TS6*
X183007000Y-81788000D03*
X180467000Y-84328000D03*
X180467000Y-81788000D03*
X177927000Y-84328000D03*
X177927000Y-81788000D03*
X188087000Y-84328000D03*
X188087000Y-81788000D03*
X185547000Y-84328000D03*
X185547000Y-81788000D03*
X183007000Y-84328000D03*
G04 #@! TD*
D22*
G04 #@! TO.C,BT1*
X146812000Y-93218000D03*
D23*
X159662000Y-93218000D03*
X133962000Y-93218000D03*
G04 #@! TD*
D14*
G04 #@! TO.C,C2*
G36*
X173519636Y-86355214D02*
X173542104Y-86358547D01*
X173564136Y-86364066D01*
X173585522Y-86371718D01*
X173606055Y-86381429D01*
X173625537Y-86393106D01*
X173643780Y-86406637D01*
X173660610Y-86421890D01*
X173675863Y-86438720D01*
X173689394Y-86456963D01*
X173701071Y-86476445D01*
X173710782Y-86496978D01*
X173718434Y-86518364D01*
X173723953Y-86540396D01*
X173727286Y-86562864D01*
X173728400Y-86585550D01*
X173728400Y-87048450D01*
X173727286Y-87071136D01*
X173723953Y-87093604D01*
X173718434Y-87115636D01*
X173710782Y-87137022D01*
X173701071Y-87157555D01*
X173689394Y-87177037D01*
X173675863Y-87195280D01*
X173660610Y-87212110D01*
X173643780Y-87227363D01*
X173625537Y-87240894D01*
X173606055Y-87252571D01*
X173585522Y-87262282D01*
X173564136Y-87269934D01*
X173542104Y-87275453D01*
X173519636Y-87278786D01*
X173496950Y-87279900D01*
X172959050Y-87279900D01*
X172936364Y-87278786D01*
X172913896Y-87275453D01*
X172891864Y-87269934D01*
X172870478Y-87262282D01*
X172849945Y-87252571D01*
X172830463Y-87240894D01*
X172812220Y-87227363D01*
X172795390Y-87212110D01*
X172780137Y-87195280D01*
X172766606Y-87177037D01*
X172754929Y-87157555D01*
X172745218Y-87137022D01*
X172737566Y-87115636D01*
X172732047Y-87093604D01*
X172728714Y-87071136D01*
X172727600Y-87048450D01*
X172727600Y-86585550D01*
X172728714Y-86562864D01*
X172732047Y-86540396D01*
X172737566Y-86518364D01*
X172745218Y-86496978D01*
X172754929Y-86476445D01*
X172766606Y-86456963D01*
X172780137Y-86438720D01*
X172795390Y-86421890D01*
X172812220Y-86406637D01*
X172830463Y-86393106D01*
X172849945Y-86381429D01*
X172870478Y-86371718D01*
X172891864Y-86364066D01*
X172913896Y-86358547D01*
X172936364Y-86355214D01*
X172959050Y-86354100D01*
X173496950Y-86354100D01*
X173519636Y-86355214D01*
X173519636Y-86355214D01*
G37*
D15*
X173228000Y-86817000D03*
D14*
G36*
X173519636Y-87930214D02*
X173542104Y-87933547D01*
X173564136Y-87939066D01*
X173585522Y-87946718D01*
X173606055Y-87956429D01*
X173625537Y-87968106D01*
X173643780Y-87981637D01*
X173660610Y-87996890D01*
X173675863Y-88013720D01*
X173689394Y-88031963D01*
X173701071Y-88051445D01*
X173710782Y-88071978D01*
X173718434Y-88093364D01*
X173723953Y-88115396D01*
X173727286Y-88137864D01*
X173728400Y-88160550D01*
X173728400Y-88623450D01*
X173727286Y-88646136D01*
X173723953Y-88668604D01*
X173718434Y-88690636D01*
X173710782Y-88712022D01*
X173701071Y-88732555D01*
X173689394Y-88752037D01*
X173675863Y-88770280D01*
X173660610Y-88787110D01*
X173643780Y-88802363D01*
X173625537Y-88815894D01*
X173606055Y-88827571D01*
X173585522Y-88837282D01*
X173564136Y-88844934D01*
X173542104Y-88850453D01*
X173519636Y-88853786D01*
X173496950Y-88854900D01*
X172959050Y-88854900D01*
X172936364Y-88853786D01*
X172913896Y-88850453D01*
X172891864Y-88844934D01*
X172870478Y-88837282D01*
X172849945Y-88827571D01*
X172830463Y-88815894D01*
X172812220Y-88802363D01*
X172795390Y-88787110D01*
X172780137Y-88770280D01*
X172766606Y-88752037D01*
X172754929Y-88732555D01*
X172745218Y-88712022D01*
X172737566Y-88690636D01*
X172732047Y-88668604D01*
X172728714Y-88646136D01*
X172727600Y-88623450D01*
X172727600Y-88160550D01*
X172728714Y-88137864D01*
X172732047Y-88115396D01*
X172737566Y-88093364D01*
X172745218Y-88071978D01*
X172754929Y-88051445D01*
X172766606Y-88031963D01*
X172780137Y-88013720D01*
X172795390Y-87996890D01*
X172812220Y-87981637D01*
X172830463Y-87968106D01*
X172849945Y-87956429D01*
X172870478Y-87946718D01*
X172891864Y-87939066D01*
X172913896Y-87933547D01*
X172936364Y-87930214D01*
X172959050Y-87929100D01*
X173496950Y-87929100D01*
X173519636Y-87930214D01*
X173519636Y-87930214D01*
G37*
D15*
X173228000Y-88392000D03*
G04 #@! TD*
D14*
G04 #@! TO.C,C14*
G36*
X150024636Y-106345214D02*
X150047104Y-106348547D01*
X150069136Y-106354066D01*
X150090522Y-106361718D01*
X150111055Y-106371429D01*
X150130537Y-106383106D01*
X150148780Y-106396637D01*
X150165610Y-106411890D01*
X150180863Y-106428720D01*
X150194394Y-106446963D01*
X150206071Y-106466445D01*
X150215782Y-106486978D01*
X150223434Y-106508364D01*
X150228953Y-106530396D01*
X150232286Y-106552864D01*
X150233400Y-106575550D01*
X150233400Y-107038450D01*
X150232286Y-107061136D01*
X150228953Y-107083604D01*
X150223434Y-107105636D01*
X150215782Y-107127022D01*
X150206071Y-107147555D01*
X150194394Y-107167037D01*
X150180863Y-107185280D01*
X150165610Y-107202110D01*
X150148780Y-107217363D01*
X150130537Y-107230894D01*
X150111055Y-107242571D01*
X150090522Y-107252282D01*
X150069136Y-107259934D01*
X150047104Y-107265453D01*
X150024636Y-107268786D01*
X150001950Y-107269900D01*
X149464050Y-107269900D01*
X149441364Y-107268786D01*
X149418896Y-107265453D01*
X149396864Y-107259934D01*
X149375478Y-107252282D01*
X149354945Y-107242571D01*
X149335463Y-107230894D01*
X149317220Y-107217363D01*
X149300390Y-107202110D01*
X149285137Y-107185280D01*
X149271606Y-107167037D01*
X149259929Y-107147555D01*
X149250218Y-107127022D01*
X149242566Y-107105636D01*
X149237047Y-107083604D01*
X149233714Y-107061136D01*
X149232600Y-107038450D01*
X149232600Y-106575550D01*
X149233714Y-106552864D01*
X149237047Y-106530396D01*
X149242566Y-106508364D01*
X149250218Y-106486978D01*
X149259929Y-106466445D01*
X149271606Y-106446963D01*
X149285137Y-106428720D01*
X149300390Y-106411890D01*
X149317220Y-106396637D01*
X149335463Y-106383106D01*
X149354945Y-106371429D01*
X149375478Y-106361718D01*
X149396864Y-106354066D01*
X149418896Y-106348547D01*
X149441364Y-106345214D01*
X149464050Y-106344100D01*
X150001950Y-106344100D01*
X150024636Y-106345214D01*
X150024636Y-106345214D01*
G37*
D15*
X149733000Y-106807000D03*
D14*
G36*
X150024636Y-104770214D02*
X150047104Y-104773547D01*
X150069136Y-104779066D01*
X150090522Y-104786718D01*
X150111055Y-104796429D01*
X150130537Y-104808106D01*
X150148780Y-104821637D01*
X150165610Y-104836890D01*
X150180863Y-104853720D01*
X150194394Y-104871963D01*
X150206071Y-104891445D01*
X150215782Y-104911978D01*
X150223434Y-104933364D01*
X150228953Y-104955396D01*
X150232286Y-104977864D01*
X150233400Y-105000550D01*
X150233400Y-105463450D01*
X150232286Y-105486136D01*
X150228953Y-105508604D01*
X150223434Y-105530636D01*
X150215782Y-105552022D01*
X150206071Y-105572555D01*
X150194394Y-105592037D01*
X150180863Y-105610280D01*
X150165610Y-105627110D01*
X150148780Y-105642363D01*
X150130537Y-105655894D01*
X150111055Y-105667571D01*
X150090522Y-105677282D01*
X150069136Y-105684934D01*
X150047104Y-105690453D01*
X150024636Y-105693786D01*
X150001950Y-105694900D01*
X149464050Y-105694900D01*
X149441364Y-105693786D01*
X149418896Y-105690453D01*
X149396864Y-105684934D01*
X149375478Y-105677282D01*
X149354945Y-105667571D01*
X149335463Y-105655894D01*
X149317220Y-105642363D01*
X149300390Y-105627110D01*
X149285137Y-105610280D01*
X149271606Y-105592037D01*
X149259929Y-105572555D01*
X149250218Y-105552022D01*
X149242566Y-105530636D01*
X149237047Y-105508604D01*
X149233714Y-105486136D01*
X149232600Y-105463450D01*
X149232600Y-105000550D01*
X149233714Y-104977864D01*
X149237047Y-104955396D01*
X149242566Y-104933364D01*
X149250218Y-104911978D01*
X149259929Y-104891445D01*
X149271606Y-104871963D01*
X149285137Y-104853720D01*
X149300390Y-104836890D01*
X149317220Y-104821637D01*
X149335463Y-104808106D01*
X149354945Y-104796429D01*
X149375478Y-104786718D01*
X149396864Y-104779066D01*
X149418896Y-104773547D01*
X149441364Y-104770214D01*
X149464050Y-104769100D01*
X150001950Y-104769100D01*
X150024636Y-104770214D01*
X150024636Y-104770214D01*
G37*
D15*
X149733000Y-105232000D03*
G04 #@! TD*
D14*
G04 #@! TO.C,C15*
G36*
X177546136Y-85860714D02*
X177568604Y-85864047D01*
X177590636Y-85869566D01*
X177612022Y-85877218D01*
X177632555Y-85886929D01*
X177652037Y-85898606D01*
X177670280Y-85912137D01*
X177687110Y-85927390D01*
X177702363Y-85944220D01*
X177715894Y-85962463D01*
X177727571Y-85981945D01*
X177737282Y-86002478D01*
X177744934Y-86023864D01*
X177750453Y-86045896D01*
X177753786Y-86068364D01*
X177754900Y-86091050D01*
X177754900Y-86628950D01*
X177753786Y-86651636D01*
X177750453Y-86674104D01*
X177744934Y-86696136D01*
X177737282Y-86717522D01*
X177727571Y-86738055D01*
X177715894Y-86757537D01*
X177702363Y-86775780D01*
X177687110Y-86792610D01*
X177670280Y-86807863D01*
X177652037Y-86821394D01*
X177632555Y-86833071D01*
X177612022Y-86842782D01*
X177590636Y-86850434D01*
X177568604Y-86855953D01*
X177546136Y-86859286D01*
X177523450Y-86860400D01*
X177060550Y-86860400D01*
X177037864Y-86859286D01*
X177015396Y-86855953D01*
X176993364Y-86850434D01*
X176971978Y-86842782D01*
X176951445Y-86833071D01*
X176931963Y-86821394D01*
X176913720Y-86807863D01*
X176896890Y-86792610D01*
X176881637Y-86775780D01*
X176868106Y-86757537D01*
X176856429Y-86738055D01*
X176846718Y-86717522D01*
X176839066Y-86696136D01*
X176833547Y-86674104D01*
X176830214Y-86651636D01*
X176829100Y-86628950D01*
X176829100Y-86091050D01*
X176830214Y-86068364D01*
X176833547Y-86045896D01*
X176839066Y-86023864D01*
X176846718Y-86002478D01*
X176856429Y-85981945D01*
X176868106Y-85962463D01*
X176881637Y-85944220D01*
X176896890Y-85927390D01*
X176913720Y-85912137D01*
X176931963Y-85898606D01*
X176951445Y-85886929D01*
X176971978Y-85877218D01*
X176993364Y-85869566D01*
X177015396Y-85864047D01*
X177037864Y-85860714D01*
X177060550Y-85859600D01*
X177523450Y-85859600D01*
X177546136Y-85860714D01*
X177546136Y-85860714D01*
G37*
D15*
X177292000Y-86360000D03*
D14*
G36*
X175971136Y-85860714D02*
X175993604Y-85864047D01*
X176015636Y-85869566D01*
X176037022Y-85877218D01*
X176057555Y-85886929D01*
X176077037Y-85898606D01*
X176095280Y-85912137D01*
X176112110Y-85927390D01*
X176127363Y-85944220D01*
X176140894Y-85962463D01*
X176152571Y-85981945D01*
X176162282Y-86002478D01*
X176169934Y-86023864D01*
X176175453Y-86045896D01*
X176178786Y-86068364D01*
X176179900Y-86091050D01*
X176179900Y-86628950D01*
X176178786Y-86651636D01*
X176175453Y-86674104D01*
X176169934Y-86696136D01*
X176162282Y-86717522D01*
X176152571Y-86738055D01*
X176140894Y-86757537D01*
X176127363Y-86775780D01*
X176112110Y-86792610D01*
X176095280Y-86807863D01*
X176077037Y-86821394D01*
X176057555Y-86833071D01*
X176037022Y-86842782D01*
X176015636Y-86850434D01*
X175993604Y-86855953D01*
X175971136Y-86859286D01*
X175948450Y-86860400D01*
X175485550Y-86860400D01*
X175462864Y-86859286D01*
X175440396Y-86855953D01*
X175418364Y-86850434D01*
X175396978Y-86842782D01*
X175376445Y-86833071D01*
X175356963Y-86821394D01*
X175338720Y-86807863D01*
X175321890Y-86792610D01*
X175306637Y-86775780D01*
X175293106Y-86757537D01*
X175281429Y-86738055D01*
X175271718Y-86717522D01*
X175264066Y-86696136D01*
X175258547Y-86674104D01*
X175255214Y-86651636D01*
X175254100Y-86628950D01*
X175254100Y-86091050D01*
X175255214Y-86068364D01*
X175258547Y-86045896D01*
X175264066Y-86023864D01*
X175271718Y-86002478D01*
X175281429Y-85981945D01*
X175293106Y-85962463D01*
X175306637Y-85944220D01*
X175321890Y-85927390D01*
X175338720Y-85912137D01*
X175356963Y-85898606D01*
X175376445Y-85886929D01*
X175396978Y-85877218D01*
X175418364Y-85869566D01*
X175440396Y-85864047D01*
X175462864Y-85860714D01*
X175485550Y-85859600D01*
X175948450Y-85859600D01*
X175971136Y-85860714D01*
X175971136Y-85860714D01*
G37*
D15*
X175717000Y-86360000D03*
G04 #@! TD*
D14*
G04 #@! TO.C,C16*
G36*
X178816136Y-85860714D02*
X178838604Y-85864047D01*
X178860636Y-85869566D01*
X178882022Y-85877218D01*
X178902555Y-85886929D01*
X178922037Y-85898606D01*
X178940280Y-85912137D01*
X178957110Y-85927390D01*
X178972363Y-85944220D01*
X178985894Y-85962463D01*
X178997571Y-85981945D01*
X179007282Y-86002478D01*
X179014934Y-86023864D01*
X179020453Y-86045896D01*
X179023786Y-86068364D01*
X179024900Y-86091050D01*
X179024900Y-86628950D01*
X179023786Y-86651636D01*
X179020453Y-86674104D01*
X179014934Y-86696136D01*
X179007282Y-86717522D01*
X178997571Y-86738055D01*
X178985894Y-86757537D01*
X178972363Y-86775780D01*
X178957110Y-86792610D01*
X178940280Y-86807863D01*
X178922037Y-86821394D01*
X178902555Y-86833071D01*
X178882022Y-86842782D01*
X178860636Y-86850434D01*
X178838604Y-86855953D01*
X178816136Y-86859286D01*
X178793450Y-86860400D01*
X178330550Y-86860400D01*
X178307864Y-86859286D01*
X178285396Y-86855953D01*
X178263364Y-86850434D01*
X178241978Y-86842782D01*
X178221445Y-86833071D01*
X178201963Y-86821394D01*
X178183720Y-86807863D01*
X178166890Y-86792610D01*
X178151637Y-86775780D01*
X178138106Y-86757537D01*
X178126429Y-86738055D01*
X178116718Y-86717522D01*
X178109066Y-86696136D01*
X178103547Y-86674104D01*
X178100214Y-86651636D01*
X178099100Y-86628950D01*
X178099100Y-86091050D01*
X178100214Y-86068364D01*
X178103547Y-86045896D01*
X178109066Y-86023864D01*
X178116718Y-86002478D01*
X178126429Y-85981945D01*
X178138106Y-85962463D01*
X178151637Y-85944220D01*
X178166890Y-85927390D01*
X178183720Y-85912137D01*
X178201963Y-85898606D01*
X178221445Y-85886929D01*
X178241978Y-85877218D01*
X178263364Y-85869566D01*
X178285396Y-85864047D01*
X178307864Y-85860714D01*
X178330550Y-85859600D01*
X178793450Y-85859600D01*
X178816136Y-85860714D01*
X178816136Y-85860714D01*
G37*
D15*
X178562000Y-86360000D03*
D14*
G36*
X180391136Y-85860714D02*
X180413604Y-85864047D01*
X180435636Y-85869566D01*
X180457022Y-85877218D01*
X180477555Y-85886929D01*
X180497037Y-85898606D01*
X180515280Y-85912137D01*
X180532110Y-85927390D01*
X180547363Y-85944220D01*
X180560894Y-85962463D01*
X180572571Y-85981945D01*
X180582282Y-86002478D01*
X180589934Y-86023864D01*
X180595453Y-86045896D01*
X180598786Y-86068364D01*
X180599900Y-86091050D01*
X180599900Y-86628950D01*
X180598786Y-86651636D01*
X180595453Y-86674104D01*
X180589934Y-86696136D01*
X180582282Y-86717522D01*
X180572571Y-86738055D01*
X180560894Y-86757537D01*
X180547363Y-86775780D01*
X180532110Y-86792610D01*
X180515280Y-86807863D01*
X180497037Y-86821394D01*
X180477555Y-86833071D01*
X180457022Y-86842782D01*
X180435636Y-86850434D01*
X180413604Y-86855953D01*
X180391136Y-86859286D01*
X180368450Y-86860400D01*
X179905550Y-86860400D01*
X179882864Y-86859286D01*
X179860396Y-86855953D01*
X179838364Y-86850434D01*
X179816978Y-86842782D01*
X179796445Y-86833071D01*
X179776963Y-86821394D01*
X179758720Y-86807863D01*
X179741890Y-86792610D01*
X179726637Y-86775780D01*
X179713106Y-86757537D01*
X179701429Y-86738055D01*
X179691718Y-86717522D01*
X179684066Y-86696136D01*
X179678547Y-86674104D01*
X179675214Y-86651636D01*
X179674100Y-86628950D01*
X179674100Y-86091050D01*
X179675214Y-86068364D01*
X179678547Y-86045896D01*
X179684066Y-86023864D01*
X179691718Y-86002478D01*
X179701429Y-85981945D01*
X179713106Y-85962463D01*
X179726637Y-85944220D01*
X179741890Y-85927390D01*
X179758720Y-85912137D01*
X179776963Y-85898606D01*
X179796445Y-85886929D01*
X179816978Y-85877218D01*
X179838364Y-85869566D01*
X179860396Y-85864047D01*
X179882864Y-85860714D01*
X179905550Y-85859600D01*
X180368450Y-85859600D01*
X180391136Y-85860714D01*
X180391136Y-85860714D01*
G37*
D15*
X180137000Y-86360000D03*
G04 #@! TD*
D24*
G04 #@! TO.C,Q1*
X151527000Y-106233000D03*
X151527000Y-104333000D03*
X153527000Y-105283000D03*
G04 #@! TD*
D14*
G04 #@! TO.C,FB1*
G36*
X181610136Y-101481714D02*
X181632604Y-101485047D01*
X181654636Y-101490566D01*
X181676022Y-101498218D01*
X181696555Y-101507929D01*
X181716037Y-101519606D01*
X181734280Y-101533137D01*
X181751110Y-101548390D01*
X181766363Y-101565220D01*
X181779894Y-101583463D01*
X181791571Y-101602945D01*
X181801282Y-101623478D01*
X181808934Y-101644864D01*
X181814453Y-101666896D01*
X181817786Y-101689364D01*
X181818900Y-101712050D01*
X181818900Y-102249950D01*
X181817786Y-102272636D01*
X181814453Y-102295104D01*
X181808934Y-102317136D01*
X181801282Y-102338522D01*
X181791571Y-102359055D01*
X181779894Y-102378537D01*
X181766363Y-102396780D01*
X181751110Y-102413610D01*
X181734280Y-102428863D01*
X181716037Y-102442394D01*
X181696555Y-102454071D01*
X181676022Y-102463782D01*
X181654636Y-102471434D01*
X181632604Y-102476953D01*
X181610136Y-102480286D01*
X181587450Y-102481400D01*
X181124550Y-102481400D01*
X181101864Y-102480286D01*
X181079396Y-102476953D01*
X181057364Y-102471434D01*
X181035978Y-102463782D01*
X181015445Y-102454071D01*
X180995963Y-102442394D01*
X180977720Y-102428863D01*
X180960890Y-102413610D01*
X180945637Y-102396780D01*
X180932106Y-102378537D01*
X180920429Y-102359055D01*
X180910718Y-102338522D01*
X180903066Y-102317136D01*
X180897547Y-102295104D01*
X180894214Y-102272636D01*
X180893100Y-102249950D01*
X180893100Y-101712050D01*
X180894214Y-101689364D01*
X180897547Y-101666896D01*
X180903066Y-101644864D01*
X180910718Y-101623478D01*
X180920429Y-101602945D01*
X180932106Y-101583463D01*
X180945637Y-101565220D01*
X180960890Y-101548390D01*
X180977720Y-101533137D01*
X180995963Y-101519606D01*
X181015445Y-101507929D01*
X181035978Y-101498218D01*
X181057364Y-101490566D01*
X181079396Y-101485047D01*
X181101864Y-101481714D01*
X181124550Y-101480600D01*
X181587450Y-101480600D01*
X181610136Y-101481714D01*
X181610136Y-101481714D01*
G37*
D15*
X181356000Y-101981000D03*
D14*
G36*
X183185136Y-101481714D02*
X183207604Y-101485047D01*
X183229636Y-101490566D01*
X183251022Y-101498218D01*
X183271555Y-101507929D01*
X183291037Y-101519606D01*
X183309280Y-101533137D01*
X183326110Y-101548390D01*
X183341363Y-101565220D01*
X183354894Y-101583463D01*
X183366571Y-101602945D01*
X183376282Y-101623478D01*
X183383934Y-101644864D01*
X183389453Y-101666896D01*
X183392786Y-101689364D01*
X183393900Y-101712050D01*
X183393900Y-102249950D01*
X183392786Y-102272636D01*
X183389453Y-102295104D01*
X183383934Y-102317136D01*
X183376282Y-102338522D01*
X183366571Y-102359055D01*
X183354894Y-102378537D01*
X183341363Y-102396780D01*
X183326110Y-102413610D01*
X183309280Y-102428863D01*
X183291037Y-102442394D01*
X183271555Y-102454071D01*
X183251022Y-102463782D01*
X183229636Y-102471434D01*
X183207604Y-102476953D01*
X183185136Y-102480286D01*
X183162450Y-102481400D01*
X182699550Y-102481400D01*
X182676864Y-102480286D01*
X182654396Y-102476953D01*
X182632364Y-102471434D01*
X182610978Y-102463782D01*
X182590445Y-102454071D01*
X182570963Y-102442394D01*
X182552720Y-102428863D01*
X182535890Y-102413610D01*
X182520637Y-102396780D01*
X182507106Y-102378537D01*
X182495429Y-102359055D01*
X182485718Y-102338522D01*
X182478066Y-102317136D01*
X182472547Y-102295104D01*
X182469214Y-102272636D01*
X182468100Y-102249950D01*
X182468100Y-101712050D01*
X182469214Y-101689364D01*
X182472547Y-101666896D01*
X182478066Y-101644864D01*
X182485718Y-101623478D01*
X182495429Y-101602945D01*
X182507106Y-101583463D01*
X182520637Y-101565220D01*
X182535890Y-101548390D01*
X182552720Y-101533137D01*
X182570963Y-101519606D01*
X182590445Y-101507929D01*
X182610978Y-101498218D01*
X182632364Y-101490566D01*
X182654396Y-101485047D01*
X182676864Y-101481714D01*
X182699550Y-101480600D01*
X183162450Y-101480600D01*
X183185136Y-101481714D01*
X183185136Y-101481714D01*
G37*
D15*
X182931000Y-101981000D03*
G04 #@! TD*
D14*
G04 #@! TO.C,R3*
G36*
X180758636Y-88997214D02*
X180781104Y-89000547D01*
X180803136Y-89006066D01*
X180824522Y-89013718D01*
X180845055Y-89023429D01*
X180864537Y-89035106D01*
X180882780Y-89048637D01*
X180899610Y-89063890D01*
X180914863Y-89080720D01*
X180928394Y-89098963D01*
X180940071Y-89118445D01*
X180949782Y-89138978D01*
X180957434Y-89160364D01*
X180962953Y-89182396D01*
X180966286Y-89204864D01*
X180967400Y-89227550D01*
X180967400Y-89690450D01*
X180966286Y-89713136D01*
X180962953Y-89735604D01*
X180957434Y-89757636D01*
X180949782Y-89779022D01*
X180940071Y-89799555D01*
X180928394Y-89819037D01*
X180914863Y-89837280D01*
X180899610Y-89854110D01*
X180882780Y-89869363D01*
X180864537Y-89882894D01*
X180845055Y-89894571D01*
X180824522Y-89904282D01*
X180803136Y-89911934D01*
X180781104Y-89917453D01*
X180758636Y-89920786D01*
X180735950Y-89921900D01*
X180198050Y-89921900D01*
X180175364Y-89920786D01*
X180152896Y-89917453D01*
X180130864Y-89911934D01*
X180109478Y-89904282D01*
X180088945Y-89894571D01*
X180069463Y-89882894D01*
X180051220Y-89869363D01*
X180034390Y-89854110D01*
X180019137Y-89837280D01*
X180005606Y-89819037D01*
X179993929Y-89799555D01*
X179984218Y-89779022D01*
X179976566Y-89757636D01*
X179971047Y-89735604D01*
X179967714Y-89713136D01*
X179966600Y-89690450D01*
X179966600Y-89227550D01*
X179967714Y-89204864D01*
X179971047Y-89182396D01*
X179976566Y-89160364D01*
X179984218Y-89138978D01*
X179993929Y-89118445D01*
X180005606Y-89098963D01*
X180019137Y-89080720D01*
X180034390Y-89063890D01*
X180051220Y-89048637D01*
X180069463Y-89035106D01*
X180088945Y-89023429D01*
X180109478Y-89013718D01*
X180130864Y-89006066D01*
X180152896Y-89000547D01*
X180175364Y-88997214D01*
X180198050Y-88996100D01*
X180735950Y-88996100D01*
X180758636Y-88997214D01*
X180758636Y-88997214D01*
G37*
D15*
X180467000Y-89459000D03*
D14*
G36*
X180758636Y-87422214D02*
X180781104Y-87425547D01*
X180803136Y-87431066D01*
X180824522Y-87438718D01*
X180845055Y-87448429D01*
X180864537Y-87460106D01*
X180882780Y-87473637D01*
X180899610Y-87488890D01*
X180914863Y-87505720D01*
X180928394Y-87523963D01*
X180940071Y-87543445D01*
X180949782Y-87563978D01*
X180957434Y-87585364D01*
X180962953Y-87607396D01*
X180966286Y-87629864D01*
X180967400Y-87652550D01*
X180967400Y-88115450D01*
X180966286Y-88138136D01*
X180962953Y-88160604D01*
X180957434Y-88182636D01*
X180949782Y-88204022D01*
X180940071Y-88224555D01*
X180928394Y-88244037D01*
X180914863Y-88262280D01*
X180899610Y-88279110D01*
X180882780Y-88294363D01*
X180864537Y-88307894D01*
X180845055Y-88319571D01*
X180824522Y-88329282D01*
X180803136Y-88336934D01*
X180781104Y-88342453D01*
X180758636Y-88345786D01*
X180735950Y-88346900D01*
X180198050Y-88346900D01*
X180175364Y-88345786D01*
X180152896Y-88342453D01*
X180130864Y-88336934D01*
X180109478Y-88329282D01*
X180088945Y-88319571D01*
X180069463Y-88307894D01*
X180051220Y-88294363D01*
X180034390Y-88279110D01*
X180019137Y-88262280D01*
X180005606Y-88244037D01*
X179993929Y-88224555D01*
X179984218Y-88204022D01*
X179976566Y-88182636D01*
X179971047Y-88160604D01*
X179967714Y-88138136D01*
X179966600Y-88115450D01*
X179966600Y-87652550D01*
X179967714Y-87629864D01*
X179971047Y-87607396D01*
X179976566Y-87585364D01*
X179984218Y-87563978D01*
X179993929Y-87543445D01*
X180005606Y-87523963D01*
X180019137Y-87505720D01*
X180034390Y-87488890D01*
X180051220Y-87473637D01*
X180069463Y-87460106D01*
X180088945Y-87448429D01*
X180109478Y-87438718D01*
X180130864Y-87431066D01*
X180152896Y-87425547D01*
X180175364Y-87422214D01*
X180198050Y-87421100D01*
X180735950Y-87421100D01*
X180758636Y-87422214D01*
X180758636Y-87422214D01*
G37*
D15*
X180467000Y-87884000D03*
G04 #@! TD*
M02*
