G04 #@! TF.GenerationSoftware,KiCad,Pcbnew,5.1.5+dfsg1-2*
G04 #@! TF.CreationDate,2020-01-29T19:29:29+03:00*
G04 #@! TF.ProjectId,test-jig,74657374-2d6a-4696-972e-6b696361645f,rev?*
G04 #@! TF.SameCoordinates,Original*
G04 #@! TF.FileFunction,Legend,Bot*
G04 #@! TF.FilePolarity,Positive*
%FSLAX46Y46*%
G04 Gerber Fmt 4.6, Leading zero omitted, Abs format (unit mm)*
G04 Created by KiCad (PCBNEW 5.1.5+dfsg1-2) date 2020-01-29 19:29:29*
%MOMM*%
%LPD*%
G04 APERTURE LIST*
%ADD10C,0.300000*%
G04 APERTURE END LIST*
D10*
X188835428Y-58011142D02*
X188978285Y-58082571D01*
X189264000Y-58082571D01*
X189406857Y-58011142D01*
X189478285Y-57939714D01*
X189549714Y-57796857D01*
X189549714Y-57368285D01*
X189478285Y-57225428D01*
X189406857Y-57154000D01*
X189264000Y-57082571D01*
X188978285Y-57082571D01*
X188835428Y-57154000D01*
X187978285Y-58082571D02*
X188121142Y-58011142D01*
X188192571Y-57868285D01*
X188192571Y-56582571D01*
X186835428Y-58011142D02*
X186978285Y-58082571D01*
X187264000Y-58082571D01*
X187406857Y-58011142D01*
X187478285Y-57868285D01*
X187478285Y-57296857D01*
X187406857Y-57154000D01*
X187264000Y-57082571D01*
X186978285Y-57082571D01*
X186835428Y-57154000D01*
X186764000Y-57296857D01*
X186764000Y-57439714D01*
X187478285Y-57582571D01*
X186264000Y-57082571D02*
X185906857Y-58082571D01*
X185549714Y-57082571D01*
X184406857Y-58011142D02*
X184549714Y-58082571D01*
X184835428Y-58082571D01*
X184978285Y-58011142D01*
X185049714Y-57868285D01*
X185049714Y-57296857D01*
X184978285Y-57154000D01*
X184835428Y-57082571D01*
X184549714Y-57082571D01*
X184406857Y-57154000D01*
X184335428Y-57296857D01*
X184335428Y-57439714D01*
X185049714Y-57582571D01*
X183692571Y-58082571D02*
X183692571Y-57082571D01*
X183692571Y-57368285D02*
X183621142Y-57225428D01*
X183549714Y-57154000D01*
X183406857Y-57082571D01*
X183264000Y-57082571D01*
X182764000Y-57511142D02*
X181621142Y-57511142D01*
X180264000Y-58011142D02*
X180406857Y-58082571D01*
X180692571Y-58082571D01*
X180835428Y-58011142D01*
X180906857Y-57939714D01*
X180978285Y-57796857D01*
X180978285Y-57368285D01*
X180906857Y-57225428D01*
X180835428Y-57154000D01*
X180692571Y-57082571D01*
X180406857Y-57082571D01*
X180264000Y-57154000D01*
X178978285Y-58082571D02*
X178978285Y-57296857D01*
X179049714Y-57154000D01*
X179192571Y-57082571D01*
X179478285Y-57082571D01*
X179621142Y-57154000D01*
X178978285Y-58011142D02*
X179121142Y-58082571D01*
X179478285Y-58082571D01*
X179621142Y-58011142D01*
X179692571Y-57868285D01*
X179692571Y-57725428D01*
X179621142Y-57582571D01*
X179478285Y-57511142D01*
X179121142Y-57511142D01*
X178978285Y-57439714D01*
X178264000Y-58082571D02*
X178264000Y-57082571D01*
X178264000Y-57368285D02*
X178192571Y-57225428D01*
X178121142Y-57154000D01*
X177978285Y-57082571D01*
X177835428Y-57082571D01*
X176692571Y-58082571D02*
X176692571Y-56582571D01*
X176692571Y-58011142D02*
X176835428Y-58082571D01*
X177121142Y-58082571D01*
X177264000Y-58011142D01*
X177335428Y-57939714D01*
X177406857Y-57796857D01*
X177406857Y-57368285D01*
X177335428Y-57225428D01*
X177264000Y-57154000D01*
X177121142Y-57082571D01*
X176835428Y-57082571D01*
X176692571Y-57154000D01*
X175049714Y-57082571D02*
X174478285Y-57082571D01*
X174835428Y-56582571D02*
X174835428Y-57868285D01*
X174764000Y-58011142D01*
X174621142Y-58082571D01*
X174478285Y-58082571D01*
X173406857Y-58011142D02*
X173549714Y-58082571D01*
X173835428Y-58082571D01*
X173978285Y-58011142D01*
X174049714Y-57868285D01*
X174049714Y-57296857D01*
X173978285Y-57154000D01*
X173835428Y-57082571D01*
X173549714Y-57082571D01*
X173406857Y-57154000D01*
X173335428Y-57296857D01*
X173335428Y-57439714D01*
X174049714Y-57582571D01*
X172764000Y-58011142D02*
X172621142Y-58082571D01*
X172335428Y-58082571D01*
X172192571Y-58011142D01*
X172121142Y-57868285D01*
X172121142Y-57796857D01*
X172192571Y-57654000D01*
X172335428Y-57582571D01*
X172549714Y-57582571D01*
X172692571Y-57511142D01*
X172764000Y-57368285D01*
X172764000Y-57296857D01*
X172692571Y-57154000D01*
X172549714Y-57082571D01*
X172335428Y-57082571D01*
X172192571Y-57154000D01*
X171692571Y-57082571D02*
X171121142Y-57082571D01*
X171478285Y-56582571D02*
X171478285Y-57868285D01*
X171406857Y-58011142D01*
X171264000Y-58082571D01*
X171121142Y-58082571D01*
X169478285Y-57082571D02*
X169478285Y-58368285D01*
X169549714Y-58511142D01*
X169692571Y-58582571D01*
X169764000Y-58582571D01*
X169478285Y-56582571D02*
X169549714Y-56654000D01*
X169478285Y-56725428D01*
X169406857Y-56654000D01*
X169478285Y-56582571D01*
X169478285Y-56725428D01*
X168764000Y-58082571D02*
X168764000Y-57082571D01*
X168764000Y-56582571D02*
X168835428Y-56654000D01*
X168764000Y-56725428D01*
X168692571Y-56654000D01*
X168764000Y-56582571D01*
X168764000Y-56725428D01*
X167406857Y-57082571D02*
X167406857Y-58296857D01*
X167478285Y-58439714D01*
X167549714Y-58511142D01*
X167692571Y-58582571D01*
X167906857Y-58582571D01*
X168049714Y-58511142D01*
X167406857Y-58011142D02*
X167549714Y-58082571D01*
X167835428Y-58082571D01*
X167978285Y-58011142D01*
X168049714Y-57939714D01*
X168121142Y-57796857D01*
X168121142Y-57368285D01*
X168049714Y-57225428D01*
X167978285Y-57154000D01*
X167835428Y-57082571D01*
X167549714Y-57082571D01*
X167406857Y-57154000D01*
X165692571Y-57082571D02*
X165335428Y-58082571D01*
X164978285Y-57082571D01*
X164121142Y-56582571D02*
X163978285Y-56582571D01*
X163835428Y-56654000D01*
X163764000Y-56725428D01*
X163692571Y-56868285D01*
X163621142Y-57154000D01*
X163621142Y-57511142D01*
X163692571Y-57796857D01*
X163764000Y-57939714D01*
X163835428Y-58011142D01*
X163978285Y-58082571D01*
X164121142Y-58082571D01*
X164264000Y-58011142D01*
X164335428Y-57939714D01*
X164406857Y-57796857D01*
X164478285Y-57511142D01*
X164478285Y-57154000D01*
X164406857Y-56868285D01*
X164335428Y-56725428D01*
X164264000Y-56654000D01*
X164121142Y-56582571D01*
X162978285Y-57939714D02*
X162906857Y-58011142D01*
X162978285Y-58082571D01*
X163049714Y-58011142D01*
X162978285Y-57939714D01*
X162978285Y-58082571D01*
X161478285Y-58082571D02*
X162335428Y-58082571D01*
X161906857Y-58082571D02*
X161906857Y-56582571D01*
X162049714Y-56796857D01*
X162192571Y-56939714D01*
X162335428Y-57011142D01*
M02*
