M48
; DRILL file {KiCad 5.1.5+dfsg1-2} date 2020-01-29T19:30:22 MSK
; FORMAT={-:-/ absolute / inch / decimal}
; #@! TF.CreationDate,2020-01-29T19:30:22+03:00
; #@! TF.GenerationSoftware,Kicad,Pcbnew,5.1.5+dfsg1-2
; #@! TF.FileFunction,NonPlated,1,2,NPTH
FMAT,2
INCH
T1C0.0866
T2C0.1260
T3C0.1654
%
G90
G05
T1
X7.5768Y-4.1673
X4.5079Y-5.4134
X6.7579Y-3.6437
X4.5079Y-3.6437
X6.561Y-3.6437
X4.2343Y-3.9173
X7.5768Y-4.3622
X4.2323Y-5.1378
X7.5768Y-5.1378
X7.3031Y-5.4114
T2
X4.0256Y-5.0492
X4.2776Y-3.687
X4.2776Y-5.3681
X4.5866Y-3.435
X7.7697Y-5.3012
X7.7559Y-5.7874
X7.1949Y-3.435
X4.311Y-5.6043
X7.4744Y-5.6043
X7.7854Y-4.0256
X7.1949Y-5.6299
X4.0551Y-2.0866
X7.4744Y-3.4547
X7.5335Y-5.3681
X4.5866Y-5.6299
X7.7697Y-3.748
X4.0256Y-4.0256
X4.311Y-3.4547
X4.0413Y-5.3307
X7.7559Y-2.0866
X7.7854Y-5.0197
X7.5335Y-3.937
X4.0551Y-5.7874
X4.0413Y-3.75
X6.9882Y-3.687
T3
X6.7623Y-2.6272
X6.7623Y-3.08
X7.53Y-2.6272
X7.53Y-3.08
X6.243Y-2.514
X6.243Y-3.14
X7.18Y-2.514
X7.18Y-3.14
X5.8861Y-2.8436
X5.8861Y-3.2964
X6.6539Y-2.8436
X6.6539Y-3.2964
T0
M30
