G04 #@! TF.GenerationSoftware,KiCad,Pcbnew,5.1.5+dfsg1-2*
G04 #@! TF.CreationDate,2020-01-29T19:29:29+03:00*
G04 #@! TF.ProjectId,test-jig,74657374-2d6a-4696-972e-6b696361645f,rev?*
G04 #@! TF.SameCoordinates,Original*
G04 #@! TF.FileFunction,Copper,L1,Top*
G04 #@! TF.FilePolarity,Positive*
%FSLAX46Y46*%
G04 Gerber Fmt 4.6, Leading zero omitted, Abs format (unit mm)*
G04 Created by KiCad (PCBNEW 5.1.5+dfsg1-2) date 2020-01-29 19:29:29*
%MOMM*%
%LPD*%
G04 APERTURE LIST*
%ADD10O,1.700000X1.700000*%
%ADD11R,1.700000X1.700000*%
%ADD12R,1.727200X1.727200*%
%ADD13O,1.727200X1.727200*%
%ADD14C,0.508000*%
%ADD15C,0.381000*%
%ADD16C,0.254000*%
G04 APERTURE END LIST*
D10*
X193093300Y-94320600D03*
X193093300Y-91780600D03*
X190553300Y-94320600D03*
X190553300Y-91780600D03*
X188013300Y-94320600D03*
X188013300Y-91780600D03*
X185473300Y-94320600D03*
X185473300Y-91780600D03*
X182933300Y-94320600D03*
D11*
X182933300Y-91780600D03*
D10*
X121540000Y-73460000D03*
X121540000Y-76000000D03*
X119000000Y-73460000D03*
X119000000Y-76000000D03*
X116460000Y-73460000D03*
X116460000Y-76000000D03*
X113920000Y-73460000D03*
X113920000Y-76000000D03*
X111380000Y-73460000D03*
D11*
X111380000Y-76000000D03*
D12*
X111380000Y-62000000D03*
D13*
X111380000Y-59460000D03*
X113920000Y-62000000D03*
X113920000Y-59460000D03*
X116460000Y-62000000D03*
X116460000Y-59460000D03*
X119000000Y-62000000D03*
X119000000Y-59460000D03*
X121540000Y-62000000D03*
X121540000Y-59460000D03*
X124080000Y-62000000D03*
X124080000Y-59460000D03*
X126620000Y-62000000D03*
X126620000Y-59460000D03*
X129160000Y-62000000D03*
X129160000Y-59460000D03*
X131700000Y-62000000D03*
X131700000Y-59460000D03*
X134240000Y-62000000D03*
X134240000Y-59460000D03*
D14*
X111380000Y-77358000D02*
X111380000Y-76000000D01*
X132574000Y-98552000D02*
X111380000Y-77358000D01*
X182933300Y-91780600D02*
X181575300Y-91780600D01*
X181575300Y-91780600D02*
X181356000Y-91999900D01*
X181356000Y-91999900D02*
X181356000Y-97028000D01*
X179832000Y-98552000D02*
X132574000Y-98552000D01*
X181356000Y-97028000D02*
X179832000Y-98552000D01*
X111380000Y-63371600D02*
X108712000Y-66039600D01*
X111380000Y-62000000D02*
X111380000Y-63371600D01*
X110022000Y-76000000D02*
X111380000Y-76000000D01*
X108712000Y-74690000D02*
X110022000Y-76000000D01*
X108712000Y-66039600D02*
X108712000Y-74690000D01*
D15*
X185473300Y-91780600D02*
X184116700Y-90424000D01*
X184116700Y-90424000D02*
X179832000Y-90424000D01*
X179832000Y-90424000D02*
X178308000Y-88900000D01*
X126820000Y-88900000D02*
X113920000Y-76000000D01*
X178308000Y-88900000D02*
X126820000Y-88900000D01*
D16*
X119659000Y-71501000D02*
X129160000Y-62000000D01*
X118618000Y-71501000D02*
X117729000Y-72390000D01*
X118618000Y-71501000D02*
X119659000Y-71501000D01*
X113920000Y-76000000D02*
X115180500Y-74739500D01*
X115180500Y-74739500D02*
X117030500Y-74739500D01*
X117030500Y-74739500D02*
X117729000Y-74041000D01*
X117729000Y-74041000D02*
X117729000Y-72390000D01*
D15*
X187163301Y-90930601D02*
X187163301Y-90643301D01*
X187163301Y-90643301D02*
X185928000Y-89408000D01*
X188013300Y-91780600D02*
X187163301Y-90930601D01*
X185928000Y-89408000D02*
X185928000Y-85852000D01*
X184150000Y-84074000D02*
X180594000Y-84074000D01*
X185928000Y-85852000D02*
X184150000Y-84074000D01*
X180594000Y-84074000D02*
X176530000Y-88138000D01*
X176530000Y-88138000D02*
X128778000Y-88138000D01*
X128778000Y-88138000D02*
X124206000Y-83566000D01*
X124206000Y-83566000D02*
X116460000Y-76000000D01*
D16*
X116460000Y-72160000D02*
X126620000Y-62000000D01*
X116460000Y-73460000D02*
X116460000Y-72160000D01*
D15*
X180340000Y-83312000D02*
X176276000Y-87376000D01*
X190553300Y-91780600D02*
X191403299Y-90930601D01*
X191403299Y-90930601D02*
X191517399Y-90930601D01*
X176276000Y-87376000D02*
X130556000Y-87376000D01*
X191517399Y-90930601D02*
X193548000Y-88900000D01*
X125476000Y-82296000D02*
X119000000Y-76000000D01*
X130556000Y-87376000D02*
X125476000Y-82296000D01*
X191008000Y-83312000D02*
X180340000Y-83312000D01*
X193548000Y-88900000D02*
X193548000Y-85852000D01*
X193548000Y-85852000D02*
X191008000Y-83312000D01*
X127254000Y-81534000D02*
X121540000Y-76000000D01*
X132334000Y-86614000D02*
X127254000Y-81534000D01*
X176022000Y-86614000D02*
X132334000Y-86614000D01*
X192278000Y-82550000D02*
X180086000Y-82550000D01*
X194252950Y-84524950D02*
X192278000Y-82550000D01*
X180086000Y-82550000D02*
X176022000Y-86614000D01*
X194252950Y-90620950D02*
X194252950Y-84524950D01*
X193093300Y-91780600D02*
X194252950Y-90620950D01*
M02*
