G04 #@! TF.GenerationSoftware,KiCad,Pcbnew,5.1.5+dfsg1-2*
G04 #@! TF.CreationDate,2020-01-29T19:29:29+03:00*
G04 #@! TF.ProjectId,test-jig,74657374-2d6a-4696-972e-6b696361645f,rev?*
G04 #@! TF.SameCoordinates,Original*
G04 #@! TF.FileFunction,Legend,Top*
G04 #@! TF.FilePolarity,Positive*
%FSLAX46Y46*%
G04 Gerber Fmt 4.6, Leading zero omitted, Abs format (unit mm)*
G04 Created by KiCad (PCBNEW 5.1.5+dfsg1-2) date 2020-01-29 19:29:29*
%MOMM*%
%LPD*%
G04 APERTURE LIST*
%ADD10C,0.150000*%
%ADD11C,0.180000*%
%ADD12C,0.120000*%
G04 APERTURE END LIST*
D10*
X119240761Y-57473904D02*
X119240761Y-58045333D01*
X119202666Y-58159619D01*
X119126476Y-58235809D01*
X119012190Y-58273904D01*
X118936000Y-58273904D01*
X120002666Y-58273904D02*
X119621714Y-58273904D01*
X119621714Y-57473904D01*
X120726476Y-58197714D02*
X120688380Y-58235809D01*
X120574095Y-58273904D01*
X120497904Y-58273904D01*
X120383619Y-58235809D01*
X120307428Y-58159619D01*
X120269333Y-58083428D01*
X120231238Y-57931047D01*
X120231238Y-57816761D01*
X120269333Y-57664380D01*
X120307428Y-57588190D01*
X120383619Y-57512000D01*
X120497904Y-57473904D01*
X120574095Y-57473904D01*
X120688380Y-57512000D01*
X120726476Y-57550095D01*
X121297904Y-57473904D02*
X121297904Y-58045333D01*
X121259809Y-58159619D01*
X121183619Y-58235809D01*
X121069333Y-58273904D01*
X120993142Y-58273904D01*
X122059809Y-58273904D02*
X121678857Y-58273904D01*
X121678857Y-57473904D01*
X122783619Y-58197714D02*
X122745523Y-58235809D01*
X122631238Y-58273904D01*
X122555047Y-58273904D01*
X122440761Y-58235809D01*
X122364571Y-58159619D01*
X122326476Y-58083428D01*
X122288380Y-57931047D01*
X122288380Y-57816761D01*
X122326476Y-57664380D01*
X122364571Y-57588190D01*
X122440761Y-57512000D01*
X122555047Y-57473904D01*
X122631238Y-57473904D01*
X122745523Y-57512000D01*
X122783619Y-57550095D01*
X123355047Y-57473904D02*
X123355047Y-58045333D01*
X123316952Y-58159619D01*
X123240761Y-58235809D01*
X123126476Y-58273904D01*
X123050285Y-58273904D01*
X124116952Y-58273904D02*
X123736000Y-58273904D01*
X123736000Y-57473904D01*
X124840761Y-58197714D02*
X124802666Y-58235809D01*
X124688380Y-58273904D01*
X124612190Y-58273904D01*
X124497904Y-58235809D01*
X124421714Y-58159619D01*
X124383619Y-58083428D01*
X124345523Y-57931047D01*
X124345523Y-57816761D01*
X124383619Y-57664380D01*
X124421714Y-57588190D01*
X124497904Y-57512000D01*
X124612190Y-57473904D01*
X124688380Y-57473904D01*
X124802666Y-57512000D01*
X124840761Y-57550095D01*
X125412190Y-57473904D02*
X125412190Y-58045333D01*
X125374095Y-58159619D01*
X125297904Y-58235809D01*
X125183619Y-58273904D01*
X125107428Y-58273904D01*
X126174095Y-58273904D02*
X125793142Y-58273904D01*
X125793142Y-57473904D01*
X126897904Y-58197714D02*
X126859809Y-58235809D01*
X126745523Y-58273904D01*
X126669333Y-58273904D01*
X126555047Y-58235809D01*
X126478857Y-58159619D01*
X126440761Y-58083428D01*
X126402666Y-57931047D01*
X126402666Y-57816761D01*
X126440761Y-57664380D01*
X126478857Y-57588190D01*
X126555047Y-57512000D01*
X126669333Y-57473904D01*
X126745523Y-57473904D01*
X126859809Y-57512000D01*
X126897904Y-57550095D01*
D11*
X120992380Y-81243190D02*
X120992380Y-80671761D01*
X121992380Y-80957476D02*
X120992380Y-80957476D01*
X121897142Y-79767000D02*
X121944761Y-79814619D01*
X121992380Y-79957476D01*
X121992380Y-80052714D01*
X121944761Y-80195571D01*
X121849523Y-80290809D01*
X121754285Y-80338428D01*
X121563809Y-80386047D01*
X121420952Y-80386047D01*
X121230476Y-80338428D01*
X121135238Y-80290809D01*
X121040000Y-80195571D01*
X120992380Y-80052714D01*
X120992380Y-79957476D01*
X121040000Y-79814619D01*
X121087619Y-79767000D01*
X121992380Y-78862238D02*
X121992380Y-79338428D01*
X120992380Y-79338428D01*
X121992380Y-78528904D02*
X120992380Y-78528904D01*
X121992380Y-77957476D02*
X121420952Y-78386047D01*
X120992380Y-77957476D02*
X121563809Y-78528904D01*
X119404761Y-82195571D02*
X119452380Y-82052714D01*
X119452380Y-81814619D01*
X119404761Y-81719380D01*
X119357142Y-81671761D01*
X119261904Y-81624142D01*
X119166666Y-81624142D01*
X119071428Y-81671761D01*
X119023809Y-81719380D01*
X118976190Y-81814619D01*
X118928571Y-82005095D01*
X118880952Y-82100333D01*
X118833333Y-82147952D01*
X118738095Y-82195571D01*
X118642857Y-82195571D01*
X118547619Y-82147952D01*
X118500000Y-82100333D01*
X118452380Y-82005095D01*
X118452380Y-81767000D01*
X118500000Y-81624142D01*
X118452380Y-81290809D02*
X119452380Y-81052714D01*
X118738095Y-80862238D01*
X119452380Y-80671761D01*
X118452380Y-80433666D01*
X119452380Y-80052714D02*
X118452380Y-80052714D01*
X118452380Y-79814619D01*
X118500000Y-79671761D01*
X118595238Y-79576523D01*
X118690476Y-79528904D01*
X118880952Y-79481285D01*
X119023809Y-79481285D01*
X119214285Y-79528904D01*
X119309523Y-79576523D01*
X119404761Y-79671761D01*
X119452380Y-79814619D01*
X119452380Y-80052714D01*
X119452380Y-79052714D02*
X118452380Y-79052714D01*
X118452380Y-78386047D02*
X118452380Y-78195571D01*
X118500000Y-78100333D01*
X118595238Y-78005095D01*
X118785714Y-77957476D01*
X119119047Y-77957476D01*
X119309523Y-78005095D01*
X119404761Y-78100333D01*
X119452380Y-78195571D01*
X119452380Y-78386047D01*
X119404761Y-78481285D01*
X119309523Y-78576523D01*
X119119047Y-78624142D01*
X118785714Y-78624142D01*
X118595238Y-78576523D01*
X118500000Y-78481285D01*
X118452380Y-78386047D01*
X115942880Y-79386047D02*
X115942880Y-78814619D01*
X116942880Y-79100333D02*
X115942880Y-79100333D01*
X115942880Y-78576523D02*
X116942880Y-77909857D01*
X115942880Y-77909857D02*
X116942880Y-78576523D01*
X114372380Y-79713761D02*
X113896190Y-80047095D01*
X114372380Y-80285190D02*
X113372380Y-80285190D01*
X113372380Y-79904238D01*
X113420000Y-79809000D01*
X113467619Y-79761380D01*
X113562857Y-79713761D01*
X113705714Y-79713761D01*
X113800952Y-79761380D01*
X113848571Y-79809000D01*
X113896190Y-79904238D01*
X113896190Y-80285190D01*
X114324761Y-79332809D02*
X114372380Y-79189952D01*
X114372380Y-78951857D01*
X114324761Y-78856619D01*
X114277142Y-78809000D01*
X114181904Y-78761380D01*
X114086666Y-78761380D01*
X113991428Y-78809000D01*
X113943809Y-78856619D01*
X113896190Y-78951857D01*
X113848571Y-79142333D01*
X113800952Y-79237571D01*
X113753333Y-79285190D01*
X113658095Y-79332809D01*
X113562857Y-79332809D01*
X113467619Y-79285190D01*
X113420000Y-79237571D01*
X113372380Y-79142333D01*
X113372380Y-78904238D01*
X113420000Y-78761380D01*
X113372380Y-78475666D02*
X113372380Y-77904238D01*
X114372380Y-78189952D02*
X113372380Y-78189952D01*
X110832380Y-80528904D02*
X111832380Y-80195571D01*
X110832380Y-79862238D01*
X111832380Y-79528904D02*
X110832380Y-79528904D01*
X110832380Y-79290809D01*
X110880000Y-79147952D01*
X110975238Y-79052714D01*
X111070476Y-79005095D01*
X111260952Y-78957476D01*
X111403809Y-78957476D01*
X111594285Y-79005095D01*
X111689523Y-79052714D01*
X111784761Y-79147952D01*
X111832380Y-79290809D01*
X111832380Y-79528904D01*
X111832380Y-78528904D02*
X110832380Y-78528904D01*
X110832380Y-78290809D01*
X110880000Y-78147952D01*
X110975238Y-78052714D01*
X111070476Y-78005095D01*
X111260952Y-77957476D01*
X111403809Y-77957476D01*
X111594285Y-78005095D01*
X111689523Y-78052714D01*
X111784761Y-78147952D01*
X111832380Y-78290809D01*
X111832380Y-78528904D01*
X120992380Y-71524404D02*
X120992380Y-70952976D01*
X121992380Y-71238690D02*
X120992380Y-71238690D01*
X121992380Y-70619642D02*
X120992380Y-70619642D01*
X120992380Y-70381547D01*
X121040000Y-70238690D01*
X121135238Y-70143452D01*
X121230476Y-70095833D01*
X121420952Y-70048214D01*
X121563809Y-70048214D01*
X121754285Y-70095833D01*
X121849523Y-70143452D01*
X121944761Y-70238690D01*
X121992380Y-70381547D01*
X121992380Y-70619642D01*
X120992380Y-69429166D02*
X120992380Y-69333928D01*
X121040000Y-69238690D01*
X121087619Y-69191071D01*
X121182857Y-69143452D01*
X121373333Y-69095833D01*
X121611428Y-69095833D01*
X121801904Y-69143452D01*
X121897142Y-69191071D01*
X121944761Y-69238690D01*
X121992380Y-69333928D01*
X121992380Y-69429166D01*
X121944761Y-69524404D01*
X121897142Y-69572023D01*
X121801904Y-69619642D01*
X121611428Y-69667261D01*
X121373333Y-69667261D01*
X121182857Y-69619642D01*
X121087619Y-69572023D01*
X121040000Y-69524404D01*
X120992380Y-69429166D01*
X119404761Y-71508404D02*
X119452380Y-71365547D01*
X119452380Y-71127452D01*
X119404761Y-71032214D01*
X119357142Y-70984595D01*
X119261904Y-70936976D01*
X119166666Y-70936976D01*
X119071428Y-70984595D01*
X119023809Y-71032214D01*
X118976190Y-71127452D01*
X118928571Y-71317928D01*
X118880952Y-71413166D01*
X118833333Y-71460785D01*
X118738095Y-71508404D01*
X118642857Y-71508404D01*
X118547619Y-71460785D01*
X118500000Y-71413166D01*
X118452380Y-71317928D01*
X118452380Y-71079833D01*
X118500000Y-70936976D01*
X118452380Y-70603642D02*
X119452380Y-70365547D01*
X118738095Y-70175071D01*
X119452380Y-69984595D01*
X118452380Y-69746500D01*
X119357142Y-68794119D02*
X119404761Y-68841738D01*
X119452380Y-68984595D01*
X119452380Y-69079833D01*
X119404761Y-69222690D01*
X119309523Y-69317928D01*
X119214285Y-69365547D01*
X119023809Y-69413166D01*
X118880952Y-69413166D01*
X118690476Y-69365547D01*
X118595238Y-69317928D01*
X118500000Y-69222690D01*
X118452380Y-69079833D01*
X118452380Y-68984595D01*
X118500000Y-68841738D01*
X118547619Y-68794119D01*
X119452380Y-67889357D02*
X119452380Y-68365547D01*
X118452380Y-68365547D01*
X119452380Y-67556023D02*
X118452380Y-67556023D01*
X119452380Y-66984595D02*
X118880952Y-67413166D01*
X118452380Y-66984595D02*
X119023809Y-67556023D01*
X116864761Y-71516452D02*
X116912380Y-71373595D01*
X116912380Y-71135500D01*
X116864761Y-71040261D01*
X116817142Y-70992642D01*
X116721904Y-70945023D01*
X116626666Y-70945023D01*
X116531428Y-70992642D01*
X116483809Y-71040261D01*
X116436190Y-71135500D01*
X116388571Y-71325976D01*
X116340952Y-71421214D01*
X116293333Y-71468833D01*
X116198095Y-71516452D01*
X116102857Y-71516452D01*
X116007619Y-71468833D01*
X115960000Y-71421214D01*
X115912380Y-71325976D01*
X115912380Y-71087880D01*
X115960000Y-70945023D01*
X115912380Y-70611690D02*
X116912380Y-70373595D01*
X116198095Y-70183119D01*
X116912380Y-69992642D01*
X115912380Y-69754547D01*
X115912380Y-69183119D02*
X115912380Y-68992642D01*
X115960000Y-68897404D01*
X116055238Y-68802166D01*
X116245714Y-68754547D01*
X116579047Y-68754547D01*
X116769523Y-68802166D01*
X116864761Y-68897404D01*
X116912380Y-68992642D01*
X116912380Y-69183119D01*
X116864761Y-69278357D01*
X116769523Y-69373595D01*
X116579047Y-69421214D01*
X116245714Y-69421214D01*
X116055238Y-69373595D01*
X115960000Y-69278357D01*
X115912380Y-69183119D01*
X114372380Y-70937166D02*
X113896190Y-71270500D01*
X114372380Y-71508595D02*
X113372380Y-71508595D01*
X113372380Y-71127642D01*
X113420000Y-71032404D01*
X113467619Y-70984785D01*
X113562857Y-70937166D01*
X113705714Y-70937166D01*
X113800952Y-70984785D01*
X113848571Y-71032404D01*
X113896190Y-71127642D01*
X113896190Y-71508595D01*
X113372380Y-70603833D02*
X114372380Y-69937166D01*
X113372380Y-69937166D02*
X114372380Y-70603833D01*
X110880000Y-70960904D02*
X110832380Y-71056142D01*
X110832380Y-71199000D01*
X110880000Y-71341857D01*
X110975238Y-71437095D01*
X111070476Y-71484714D01*
X111260952Y-71532333D01*
X111403809Y-71532333D01*
X111594285Y-71484714D01*
X111689523Y-71437095D01*
X111784761Y-71341857D01*
X111832380Y-71199000D01*
X111832380Y-71103761D01*
X111784761Y-70960904D01*
X111737142Y-70913285D01*
X111403809Y-70913285D01*
X111403809Y-71103761D01*
X111832380Y-70484714D02*
X110832380Y-70484714D01*
X111832380Y-69913285D01*
X110832380Y-69913285D01*
X111832380Y-69437095D02*
X110832380Y-69437095D01*
X110832380Y-69199000D01*
X110880000Y-69056142D01*
X110975238Y-68960904D01*
X111070476Y-68913285D01*
X111260952Y-68865666D01*
X111403809Y-68865666D01*
X111594285Y-68913285D01*
X111689523Y-68960904D01*
X111784761Y-69056142D01*
X111832380Y-69199000D01*
X111832380Y-69437095D01*
D12*
X195000000Y-140000000D02*
X105000000Y-140000000D01*
X195000000Y-90000000D02*
X195000000Y-140000000D01*
X105000000Y-90000000D02*
X195000000Y-90000000D01*
X105000000Y-140000000D02*
X105000000Y-90000000D01*
X181603300Y-90450600D02*
X181603300Y-91780600D01*
X182933300Y-90450600D02*
X181603300Y-90450600D01*
X181603300Y-93050600D02*
X181603300Y-95650600D01*
X184203300Y-93050600D02*
X181603300Y-93050600D01*
X184203300Y-90450600D02*
X184203300Y-93050600D01*
X181603300Y-95650600D02*
X194423300Y-95650600D01*
X184203300Y-90450600D02*
X194423300Y-90450600D01*
X194423300Y-90450600D02*
X194423300Y-95650600D01*
X110050000Y-77330000D02*
X110050000Y-76000000D01*
X111380000Y-77330000D02*
X110050000Y-77330000D01*
X110050000Y-74730000D02*
X110050000Y-72130000D01*
X112650000Y-74730000D02*
X110050000Y-74730000D01*
X112650000Y-77330000D02*
X112650000Y-74730000D01*
X110050000Y-72130000D02*
X122870000Y-72130000D01*
X112650000Y-77330000D02*
X122870000Y-77330000D01*
X122870000Y-77330000D02*
X122870000Y-72130000D01*
X106030000Y-56055000D02*
X139590000Y-56055000D01*
X139590000Y-56055000D02*
X139590000Y-65405000D01*
X139590000Y-65405000D02*
X106030000Y-65405000D01*
X106030000Y-65405000D02*
X106030000Y-56055000D01*
X105780000Y-65655000D02*
X108320000Y-65655000D01*
X105780000Y-65655000D02*
X105780000Y-63115000D01*
D10*
X180055680Y-93383933D02*
X180769966Y-93383933D01*
X180912823Y-93431552D01*
X181008061Y-93526790D01*
X181055680Y-93669647D01*
X181055680Y-93764885D01*
X181055680Y-92383933D02*
X181055680Y-92955361D01*
X181055680Y-92669647D02*
X180055680Y-92669647D01*
X180198538Y-92764885D01*
X180293776Y-92860123D01*
X180341395Y-92955361D01*
X108502380Y-75063333D02*
X109216666Y-75063333D01*
X109359523Y-75110952D01*
X109454761Y-75206190D01*
X109502380Y-75349047D01*
X109502380Y-75444285D01*
X108502380Y-74682380D02*
X108502380Y-74063333D01*
X108883333Y-74396666D01*
X108883333Y-74253809D01*
X108930952Y-74158571D01*
X108978571Y-74110952D01*
X109073809Y-74063333D01*
X109311904Y-74063333D01*
X109407142Y-74110952D01*
X109454761Y-74158571D01*
X109502380Y-74253809D01*
X109502380Y-74539523D01*
X109454761Y-74634761D01*
X109407142Y-74682380D01*
X104228380Y-61063333D02*
X104942666Y-61063333D01*
X105085523Y-61110952D01*
X105180761Y-61206190D01*
X105228380Y-61349047D01*
X105228380Y-61444285D01*
X104323619Y-60634761D02*
X104276000Y-60587142D01*
X104228380Y-60491904D01*
X104228380Y-60253809D01*
X104276000Y-60158571D01*
X104323619Y-60110952D01*
X104418857Y-60063333D01*
X104514095Y-60063333D01*
X104656952Y-60110952D01*
X105228380Y-60682380D01*
X105228380Y-60063333D01*
M02*
