G04 #@! TF.GenerationSoftware,KiCad,Pcbnew,5.1.5+dfsg1-2*
G04 #@! TF.CreationDate,2020-01-29T19:29:29+03:00*
G04 #@! TF.ProjectId,test-jig,74657374-2d6a-4696-972e-6b696361645f,rev?*
G04 #@! TF.SameCoordinates,Original*
G04 #@! TF.FileFunction,Soldermask,Bot*
G04 #@! TF.FilePolarity,Negative*
%FSLAX46Y46*%
G04 Gerber Fmt 4.6, Leading zero omitted, Abs format (unit mm)*
G04 Created by KiCad (PCBNEW 5.1.5+dfsg1-2) date 2020-01-29 19:29:29*
%MOMM*%
%LPD*%
G04 APERTURE LIST*
%ADD10C,0.100000*%
G04 APERTURE END LIST*
D10*
G36*
X197375256Y-145391298D02*
G01*
X197481579Y-145412447D01*
X197782042Y-145536903D01*
X198052451Y-145717585D01*
X198282415Y-145947549D01*
X198463097Y-146217958D01*
X198587553Y-146518421D01*
X198651000Y-146837391D01*
X198651000Y-147162609D01*
X198587553Y-147481579D01*
X198463097Y-147782042D01*
X198282415Y-148052451D01*
X198052451Y-148282415D01*
X197782042Y-148463097D01*
X197481579Y-148587553D01*
X197375256Y-148608702D01*
X197162611Y-148651000D01*
X196837389Y-148651000D01*
X196624744Y-148608702D01*
X196518421Y-148587553D01*
X196217958Y-148463097D01*
X195947549Y-148282415D01*
X195717585Y-148052451D01*
X195536903Y-147782042D01*
X195412447Y-147481579D01*
X195349000Y-147162609D01*
X195349000Y-146837391D01*
X195412447Y-146518421D01*
X195536903Y-146217958D01*
X195717585Y-145947549D01*
X195947549Y-145717585D01*
X196217958Y-145536903D01*
X196518421Y-145412447D01*
X196624744Y-145391298D01*
X196837389Y-145349000D01*
X197162611Y-145349000D01*
X197375256Y-145391298D01*
G37*
G36*
X103375256Y-145391298D02*
G01*
X103481579Y-145412447D01*
X103782042Y-145536903D01*
X104052451Y-145717585D01*
X104282415Y-145947549D01*
X104463097Y-146217958D01*
X104587553Y-146518421D01*
X104651000Y-146837391D01*
X104651000Y-147162609D01*
X104587553Y-147481579D01*
X104463097Y-147782042D01*
X104282415Y-148052451D01*
X104052451Y-148282415D01*
X103782042Y-148463097D01*
X103481579Y-148587553D01*
X103375256Y-148608702D01*
X103162611Y-148651000D01*
X102837389Y-148651000D01*
X102624744Y-148608702D01*
X102518421Y-148587553D01*
X102217958Y-148463097D01*
X101947549Y-148282415D01*
X101717585Y-148052451D01*
X101536903Y-147782042D01*
X101412447Y-147481579D01*
X101349000Y-147162609D01*
X101349000Y-146837391D01*
X101412447Y-146518421D01*
X101536903Y-146217958D01*
X101717585Y-145947549D01*
X101947549Y-145717585D01*
X102217958Y-145536903D01*
X102518421Y-145412447D01*
X102624744Y-145391298D01*
X102837389Y-145349000D01*
X103162611Y-145349000D01*
X103375256Y-145391298D01*
G37*
G36*
X116875256Y-141391298D02*
G01*
X116981579Y-141412447D01*
X117282042Y-141536903D01*
X117552451Y-141717585D01*
X117782415Y-141947549D01*
X117963097Y-142217958D01*
X118087553Y-142518421D01*
X118151000Y-142837391D01*
X118151000Y-143162609D01*
X118087553Y-143481579D01*
X117963097Y-143782042D01*
X117782415Y-144052451D01*
X117552451Y-144282415D01*
X117282042Y-144463097D01*
X116981579Y-144587553D01*
X116875256Y-144608702D01*
X116662611Y-144651000D01*
X116337389Y-144651000D01*
X116124744Y-144608702D01*
X116018421Y-144587553D01*
X115717958Y-144463097D01*
X115447549Y-144282415D01*
X115217585Y-144052451D01*
X115036903Y-143782042D01*
X114912447Y-143481579D01*
X114849000Y-143162609D01*
X114849000Y-142837391D01*
X114912447Y-142518421D01*
X115036903Y-142217958D01*
X115217585Y-141947549D01*
X115447549Y-141717585D01*
X115717958Y-141536903D01*
X116018421Y-141412447D01*
X116124744Y-141391298D01*
X116337389Y-141349000D01*
X116662611Y-141349000D01*
X116875256Y-141391298D01*
G37*
G36*
X183125256Y-141391298D02*
G01*
X183231579Y-141412447D01*
X183532042Y-141536903D01*
X183802451Y-141717585D01*
X184032415Y-141947549D01*
X184213097Y-142217958D01*
X184337553Y-142518421D01*
X184401000Y-142837391D01*
X184401000Y-143162609D01*
X184337553Y-143481579D01*
X184213097Y-143782042D01*
X184032415Y-144052451D01*
X183802451Y-144282415D01*
X183532042Y-144463097D01*
X183231579Y-144587553D01*
X183125256Y-144608702D01*
X182912611Y-144651000D01*
X182587389Y-144651000D01*
X182374744Y-144608702D01*
X182268421Y-144587553D01*
X181967958Y-144463097D01*
X181697549Y-144282415D01*
X181467585Y-144052451D01*
X181286903Y-143782042D01*
X181162447Y-143481579D01*
X181099000Y-143162609D01*
X181099000Y-142837391D01*
X181162447Y-142518421D01*
X181286903Y-142217958D01*
X181467585Y-141947549D01*
X181697549Y-141717585D01*
X181967958Y-141536903D01*
X182268421Y-141412447D01*
X182374744Y-141391298D01*
X182587389Y-141349000D01*
X182912611Y-141349000D01*
X183125256Y-141391298D01*
G37*
G36*
X109875256Y-140741298D02*
G01*
X109981579Y-140762447D01*
X110282042Y-140886903D01*
X110552451Y-141067585D01*
X110782415Y-141297549D01*
X110963097Y-141567958D01*
X111087553Y-141868421D01*
X111151000Y-142187391D01*
X111151000Y-142512609D01*
X111087553Y-142831579D01*
X110963097Y-143132042D01*
X110782415Y-143402451D01*
X110552451Y-143632415D01*
X110282042Y-143813097D01*
X109981579Y-143937553D01*
X109875256Y-143958702D01*
X109662611Y-144001000D01*
X109337389Y-144001000D01*
X109124744Y-143958702D01*
X109018421Y-143937553D01*
X108717958Y-143813097D01*
X108447549Y-143632415D01*
X108217585Y-143402451D01*
X108036903Y-143132042D01*
X107912447Y-142831579D01*
X107849000Y-142512609D01*
X107849000Y-142187391D01*
X107912447Y-141868421D01*
X108036903Y-141567958D01*
X108217585Y-141297549D01*
X108447549Y-141067585D01*
X108717958Y-140886903D01*
X109018421Y-140762447D01*
X109124744Y-140741298D01*
X109337389Y-140699000D01*
X109662611Y-140699000D01*
X109875256Y-140741298D01*
G37*
G36*
X190225256Y-140741298D02*
G01*
X190331579Y-140762447D01*
X190632042Y-140886903D01*
X190902451Y-141067585D01*
X191132415Y-141297549D01*
X191313097Y-141567958D01*
X191437553Y-141868421D01*
X191501000Y-142187391D01*
X191501000Y-142512609D01*
X191437553Y-142831579D01*
X191313097Y-143132042D01*
X191132415Y-143402451D01*
X190902451Y-143632415D01*
X190632042Y-143813097D01*
X190331579Y-143937553D01*
X190225256Y-143958702D01*
X190012611Y-144001000D01*
X189687389Y-144001000D01*
X189474744Y-143958702D01*
X189368421Y-143937553D01*
X189067958Y-143813097D01*
X188797549Y-143632415D01*
X188567585Y-143402451D01*
X188386903Y-143132042D01*
X188262447Y-142831579D01*
X188199000Y-142512609D01*
X188199000Y-142187391D01*
X188262447Y-141868421D01*
X188386903Y-141567958D01*
X188567585Y-141297549D01*
X188797549Y-141067585D01*
X189067958Y-140886903D01*
X189368421Y-140762447D01*
X189474744Y-140741298D01*
X189687389Y-140699000D01*
X190012611Y-140699000D01*
X190225256Y-140741298D01*
G37*
G36*
X114724549Y-136371116D02*
G01*
X114835734Y-136393232D01*
X115045203Y-136479997D01*
X115233720Y-136605960D01*
X115394040Y-136766280D01*
X115520003Y-136954797D01*
X115593420Y-137132040D01*
X115606768Y-137164267D01*
X115641055Y-137336636D01*
X115651000Y-137386636D01*
X115651000Y-137613364D01*
X115606768Y-137835734D01*
X115520003Y-138045203D01*
X115394040Y-138233720D01*
X115233720Y-138394040D01*
X115045203Y-138520003D01*
X114835734Y-138606768D01*
X114724549Y-138628884D01*
X114613365Y-138651000D01*
X114386635Y-138651000D01*
X114275451Y-138628884D01*
X114164266Y-138606768D01*
X113954797Y-138520003D01*
X113766280Y-138394040D01*
X113605960Y-138233720D01*
X113479997Y-138045203D01*
X113393232Y-137835734D01*
X113349000Y-137613364D01*
X113349000Y-137386636D01*
X113358946Y-137336636D01*
X113393232Y-137164267D01*
X113406581Y-137132040D01*
X113479997Y-136954797D01*
X113605960Y-136766280D01*
X113766280Y-136605960D01*
X113954797Y-136479997D01*
X114164266Y-136393232D01*
X114275451Y-136371116D01*
X114386635Y-136349000D01*
X114613365Y-136349000D01*
X114724549Y-136371116D01*
G37*
G36*
X185724549Y-136321116D02*
G01*
X185835734Y-136343232D01*
X186045203Y-136429997D01*
X186233720Y-136555960D01*
X186394040Y-136716280D01*
X186520003Y-136904797D01*
X186606768Y-137114266D01*
X186616714Y-137164267D01*
X186651000Y-137336635D01*
X186651000Y-137563365D01*
X186641054Y-137613365D01*
X186606768Y-137785734D01*
X186520003Y-137995203D01*
X186394040Y-138183720D01*
X186233720Y-138344040D01*
X186045203Y-138470003D01*
X185835734Y-138556768D01*
X185724549Y-138578884D01*
X185613365Y-138601000D01*
X185386635Y-138601000D01*
X185275451Y-138578884D01*
X185164266Y-138556768D01*
X184954797Y-138470003D01*
X184766280Y-138344040D01*
X184605960Y-138183720D01*
X184479997Y-137995203D01*
X184393232Y-137785734D01*
X184358946Y-137613365D01*
X184349000Y-137563365D01*
X184349000Y-137336635D01*
X184383286Y-137164267D01*
X184393232Y-137114266D01*
X184479997Y-136904797D01*
X184605960Y-136716280D01*
X184766280Y-136555960D01*
X184954797Y-136429997D01*
X185164266Y-136343232D01*
X185275451Y-136321116D01*
X185386635Y-136299000D01*
X185613365Y-136299000D01*
X185724549Y-136321116D01*
G37*
G36*
X109025256Y-134741298D02*
G01*
X109131579Y-134762447D01*
X109432042Y-134886903D01*
X109702451Y-135067585D01*
X109932415Y-135297549D01*
X110109523Y-135562609D01*
X110113098Y-135567960D01*
X110237553Y-135868422D01*
X110301000Y-136187389D01*
X110301000Y-136512611D01*
X110267224Y-136682415D01*
X110237553Y-136831579D01*
X110113097Y-137132042D01*
X109932415Y-137402451D01*
X109702451Y-137632415D01*
X109432042Y-137813097D01*
X109131579Y-137937553D01*
X109025256Y-137958702D01*
X108812611Y-138001000D01*
X108487389Y-138001000D01*
X108274744Y-137958702D01*
X108168421Y-137937553D01*
X107867958Y-137813097D01*
X107597549Y-137632415D01*
X107367585Y-137402451D01*
X107186903Y-137132042D01*
X107062447Y-136831579D01*
X107032776Y-136682415D01*
X106999000Y-136512611D01*
X106999000Y-136187389D01*
X107062447Y-135868422D01*
X107186902Y-135567960D01*
X107190477Y-135562609D01*
X107367585Y-135297549D01*
X107597549Y-135067585D01*
X107867958Y-134886903D01*
X108168421Y-134762447D01*
X108274744Y-134741298D01*
X108487389Y-134699000D01*
X108812611Y-134699000D01*
X109025256Y-134741298D01*
G37*
G36*
X191725256Y-134741298D02*
G01*
X191831579Y-134762447D01*
X192132042Y-134886903D01*
X192402451Y-135067585D01*
X192632415Y-135297549D01*
X192809523Y-135562609D01*
X192813098Y-135567960D01*
X192937553Y-135868422D01*
X193001000Y-136187389D01*
X193001000Y-136512611D01*
X192967224Y-136682415D01*
X192937553Y-136831579D01*
X192813097Y-137132042D01*
X192632415Y-137402451D01*
X192402451Y-137632415D01*
X192132042Y-137813097D01*
X191831579Y-137937553D01*
X191725256Y-137958702D01*
X191512611Y-138001000D01*
X191187389Y-138001000D01*
X190974744Y-137958702D01*
X190868421Y-137937553D01*
X190567958Y-137813097D01*
X190297549Y-137632415D01*
X190067585Y-137402451D01*
X189886903Y-137132042D01*
X189762447Y-136831579D01*
X189732776Y-136682415D01*
X189699000Y-136512611D01*
X189699000Y-136187389D01*
X189762447Y-135868422D01*
X189886902Y-135567960D01*
X189890477Y-135562609D01*
X190067585Y-135297549D01*
X190297549Y-135067585D01*
X190567958Y-134886903D01*
X190868421Y-134762447D01*
X190974744Y-134741298D01*
X191187389Y-134699000D01*
X191512611Y-134699000D01*
X191725256Y-134741298D01*
G37*
G36*
X103025256Y-133791298D02*
G01*
X103131579Y-133812447D01*
X103432042Y-133936903D01*
X103702451Y-134117585D01*
X103932415Y-134347549D01*
X104113097Y-134617958D01*
X104237553Y-134918421D01*
X104301000Y-135237391D01*
X104301000Y-135562609D01*
X104237553Y-135881579D01*
X104113097Y-136182042D01*
X103932415Y-136452451D01*
X103702451Y-136682415D01*
X103432042Y-136863097D01*
X103131579Y-136987553D01*
X103025256Y-137008702D01*
X102812611Y-137051000D01*
X102487389Y-137051000D01*
X102274744Y-137008702D01*
X102168421Y-136987553D01*
X101867958Y-136863097D01*
X101597549Y-136682415D01*
X101367585Y-136452451D01*
X101186903Y-136182042D01*
X101062447Y-135881579D01*
X100999000Y-135562609D01*
X100999000Y-135237391D01*
X101062447Y-134918421D01*
X101186903Y-134617958D01*
X101367585Y-134347549D01*
X101597549Y-134117585D01*
X101867958Y-133936903D01*
X102168421Y-133812447D01*
X102274744Y-133791298D01*
X102487389Y-133749000D01*
X102812611Y-133749000D01*
X103025256Y-133791298D01*
G37*
G36*
X197725256Y-133041298D02*
G01*
X197831579Y-133062447D01*
X198132042Y-133186903D01*
X198402451Y-133367585D01*
X198632415Y-133597549D01*
X198813097Y-133867958D01*
X198937553Y-134168421D01*
X199001000Y-134487391D01*
X199001000Y-134812609D01*
X198937553Y-135131579D01*
X198813097Y-135432042D01*
X198632415Y-135702451D01*
X198402451Y-135932415D01*
X198132042Y-136113097D01*
X197831579Y-136237553D01*
X197725256Y-136258702D01*
X197512611Y-136301000D01*
X197187389Y-136301000D01*
X196974744Y-136258702D01*
X196868421Y-136237553D01*
X196567958Y-136113097D01*
X196297549Y-135932415D01*
X196067585Y-135702451D01*
X195886903Y-135432042D01*
X195762447Y-135131579D01*
X195699000Y-134812609D01*
X195699000Y-134487391D01*
X195762447Y-134168421D01*
X195886903Y-133867958D01*
X196067585Y-133597549D01*
X196297549Y-133367585D01*
X196567958Y-133186903D01*
X196868421Y-133062447D01*
X196974744Y-133041298D01*
X197187389Y-132999000D01*
X197512611Y-132999000D01*
X197725256Y-133041298D01*
G37*
G36*
X192674549Y-129371116D02*
G01*
X192785734Y-129393232D01*
X192995203Y-129479997D01*
X193183720Y-129605960D01*
X193344040Y-129766280D01*
X193470003Y-129954797D01*
X193556768Y-130164266D01*
X193601000Y-130386636D01*
X193601000Y-130613364D01*
X193556768Y-130835734D01*
X193470003Y-131045203D01*
X193344040Y-131233720D01*
X193183720Y-131394040D01*
X192995203Y-131520003D01*
X192785734Y-131606768D01*
X192674549Y-131628884D01*
X192563365Y-131651000D01*
X192336635Y-131651000D01*
X192225451Y-131628884D01*
X192114266Y-131606768D01*
X191904797Y-131520003D01*
X191716280Y-131394040D01*
X191555960Y-131233720D01*
X191429997Y-131045203D01*
X191343232Y-130835734D01*
X191299000Y-130613364D01*
X191299000Y-130386636D01*
X191343232Y-130164266D01*
X191429997Y-129954797D01*
X191555960Y-129766280D01*
X191716280Y-129605960D01*
X191904797Y-129479997D01*
X192114266Y-129393232D01*
X192225451Y-129371116D01*
X192336635Y-129349000D01*
X192563365Y-129349000D01*
X192674549Y-129371116D01*
G37*
G36*
X107724549Y-129371116D02*
G01*
X107835734Y-129393232D01*
X108045203Y-129479997D01*
X108233720Y-129605960D01*
X108394040Y-129766280D01*
X108520003Y-129954797D01*
X108606768Y-130164266D01*
X108651000Y-130386636D01*
X108651000Y-130613364D01*
X108606768Y-130835734D01*
X108520003Y-131045203D01*
X108394040Y-131233720D01*
X108233720Y-131394040D01*
X108045203Y-131520003D01*
X107835734Y-131606768D01*
X107724549Y-131628884D01*
X107613365Y-131651000D01*
X107386635Y-131651000D01*
X107275451Y-131628884D01*
X107164266Y-131606768D01*
X106954797Y-131520003D01*
X106766280Y-131394040D01*
X106605960Y-131233720D01*
X106479997Y-131045203D01*
X106393232Y-130835734D01*
X106349000Y-130613364D01*
X106349000Y-130386636D01*
X106393232Y-130164266D01*
X106479997Y-129954797D01*
X106605960Y-129766280D01*
X106766280Y-129605960D01*
X106954797Y-129479997D01*
X107164266Y-129393232D01*
X107275451Y-129371116D01*
X107386635Y-129349000D01*
X107613365Y-129349000D01*
X107724549Y-129371116D01*
G37*
G36*
X102625256Y-126641298D02*
G01*
X102731579Y-126662447D01*
X103032042Y-126786903D01*
X103302451Y-126967585D01*
X103532415Y-127197549D01*
X103713097Y-127467958D01*
X103837553Y-127768421D01*
X103901000Y-128087391D01*
X103901000Y-128412609D01*
X103837553Y-128731579D01*
X103713097Y-129032042D01*
X103532415Y-129302451D01*
X103302451Y-129532415D01*
X103032042Y-129713097D01*
X102731579Y-129837553D01*
X102625256Y-129858702D01*
X102412611Y-129901000D01*
X102087389Y-129901000D01*
X101874744Y-129858702D01*
X101768421Y-129837553D01*
X101467958Y-129713097D01*
X101197549Y-129532415D01*
X100967585Y-129302451D01*
X100786903Y-129032042D01*
X100662447Y-128731579D01*
X100599000Y-128412609D01*
X100599000Y-128087391D01*
X100662447Y-127768421D01*
X100786903Y-127467958D01*
X100967585Y-127197549D01*
X101197549Y-126967585D01*
X101467958Y-126786903D01*
X101768421Y-126662447D01*
X101874744Y-126641298D01*
X102087389Y-126599000D01*
X102412611Y-126599000D01*
X102625256Y-126641298D01*
G37*
G36*
X198125256Y-125891298D02*
G01*
X198231579Y-125912447D01*
X198532042Y-126036903D01*
X198802451Y-126217585D01*
X199032415Y-126447549D01*
X199213097Y-126717958D01*
X199337553Y-127018421D01*
X199401000Y-127337391D01*
X199401000Y-127662609D01*
X199337553Y-127981579D01*
X199213097Y-128282042D01*
X199032415Y-128552451D01*
X198802451Y-128782415D01*
X198532042Y-128963097D01*
X198231579Y-129087553D01*
X198125256Y-129108702D01*
X197912611Y-129151000D01*
X197587389Y-129151000D01*
X197374744Y-129108702D01*
X197268421Y-129087553D01*
X196967958Y-128963097D01*
X196697549Y-128782415D01*
X196467585Y-128552451D01*
X196286903Y-128282042D01*
X196162447Y-127981579D01*
X196099000Y-127662609D01*
X196099000Y-127337391D01*
X196162447Y-127018421D01*
X196286903Y-126717958D01*
X196467585Y-126447549D01*
X196697549Y-126217585D01*
X196967958Y-126036903D01*
X197268421Y-125912447D01*
X197374744Y-125891298D01*
X197587389Y-125849000D01*
X197912611Y-125849000D01*
X198125256Y-125891298D01*
G37*
G36*
X192674549Y-109671116D02*
G01*
X192785734Y-109693232D01*
X192995203Y-109779997D01*
X193183720Y-109905960D01*
X193344040Y-110066280D01*
X193470003Y-110254797D01*
X193556768Y-110464266D01*
X193601000Y-110686636D01*
X193601000Y-110913364D01*
X193556768Y-111135734D01*
X193470003Y-111345203D01*
X193344040Y-111533720D01*
X193183720Y-111694040D01*
X192995203Y-111820003D01*
X192785734Y-111906768D01*
X192674549Y-111928884D01*
X192563365Y-111951000D01*
X192336635Y-111951000D01*
X192225451Y-111928884D01*
X192114266Y-111906768D01*
X191904797Y-111820003D01*
X191716280Y-111694040D01*
X191555960Y-111533720D01*
X191429997Y-111345203D01*
X191343232Y-111135734D01*
X191299000Y-110913364D01*
X191299000Y-110686636D01*
X191343232Y-110464266D01*
X191429997Y-110254797D01*
X191555960Y-110066280D01*
X191716280Y-109905960D01*
X191904797Y-109779997D01*
X192114266Y-109693232D01*
X192225451Y-109671116D01*
X192336635Y-109649000D01*
X192563365Y-109649000D01*
X192674549Y-109671116D01*
G37*
G36*
X192674549Y-104721116D02*
G01*
X192785734Y-104743232D01*
X192995203Y-104829997D01*
X193183720Y-104955960D01*
X193344040Y-105116280D01*
X193470003Y-105304797D01*
X193556768Y-105514266D01*
X193601000Y-105736636D01*
X193601000Y-105963364D01*
X193556768Y-106185734D01*
X193470003Y-106395203D01*
X193344040Y-106583720D01*
X193183720Y-106744040D01*
X192995203Y-106870003D01*
X192785734Y-106956768D01*
X192674549Y-106978884D01*
X192563365Y-107001000D01*
X192336635Y-107001000D01*
X192225451Y-106978884D01*
X192114266Y-106956768D01*
X191904797Y-106870003D01*
X191716280Y-106744040D01*
X191555960Y-106583720D01*
X191429997Y-106395203D01*
X191343232Y-106185734D01*
X191299000Y-105963364D01*
X191299000Y-105736636D01*
X191343232Y-105514266D01*
X191429997Y-105304797D01*
X191555960Y-105116280D01*
X191716280Y-104955960D01*
X191904797Y-104829997D01*
X192114266Y-104743232D01*
X192225451Y-104721116D01*
X192336635Y-104699000D01*
X192563365Y-104699000D01*
X192674549Y-104721116D01*
G37*
G36*
X198125256Y-100641298D02*
G01*
X198231579Y-100662447D01*
X198532042Y-100786903D01*
X198802451Y-100967585D01*
X199032415Y-101197549D01*
X199213097Y-101467958D01*
X199337553Y-101768421D01*
X199401000Y-102087391D01*
X199401000Y-102412609D01*
X199337553Y-102731579D01*
X199213097Y-103032042D01*
X199032415Y-103302451D01*
X198802451Y-103532415D01*
X198532042Y-103713097D01*
X198231579Y-103837553D01*
X198125256Y-103858702D01*
X197912611Y-103901000D01*
X197587389Y-103901000D01*
X197374744Y-103858702D01*
X197268421Y-103837553D01*
X196967958Y-103713097D01*
X196697549Y-103532415D01*
X196467585Y-103302451D01*
X196286903Y-103032042D01*
X196162447Y-102731579D01*
X196099000Y-102412609D01*
X196099000Y-102087391D01*
X196162447Y-101768421D01*
X196286903Y-101467958D01*
X196467585Y-101197549D01*
X196697549Y-100967585D01*
X196967958Y-100786903D01*
X197268421Y-100662447D01*
X197374744Y-100641298D01*
X197587389Y-100599000D01*
X197912611Y-100599000D01*
X198125256Y-100641298D01*
G37*
G36*
X102625256Y-100641298D02*
G01*
X102731579Y-100662447D01*
X103032042Y-100786903D01*
X103302451Y-100967585D01*
X103532415Y-101197549D01*
X103713097Y-101467958D01*
X103837553Y-101768421D01*
X103901000Y-102087391D01*
X103901000Y-102412609D01*
X103837553Y-102731579D01*
X103713097Y-103032042D01*
X103532415Y-103302451D01*
X103302451Y-103532415D01*
X103032042Y-103713097D01*
X102731579Y-103837553D01*
X102625256Y-103858702D01*
X102412611Y-103901000D01*
X102087389Y-103901000D01*
X101874744Y-103858702D01*
X101768421Y-103837553D01*
X101467958Y-103713097D01*
X101197549Y-103532415D01*
X100967585Y-103302451D01*
X100786903Y-103032042D01*
X100662447Y-102731579D01*
X100599000Y-102412609D01*
X100599000Y-102087391D01*
X100662447Y-101768421D01*
X100786903Y-101467958D01*
X100967585Y-101197549D01*
X101197549Y-100967585D01*
X101467958Y-100786903D01*
X101768421Y-100662447D01*
X101874744Y-100641298D01*
X102087389Y-100599000D01*
X102412611Y-100599000D01*
X102625256Y-100641298D01*
G37*
G36*
X191725256Y-98391298D02*
G01*
X191831579Y-98412447D01*
X192132042Y-98536903D01*
X192402451Y-98717585D01*
X192632415Y-98947549D01*
X192813097Y-99217958D01*
X192937553Y-99518421D01*
X192958702Y-99624744D01*
X193001000Y-99837389D01*
X193001000Y-100162611D01*
X192986855Y-100233720D01*
X192937553Y-100481579D01*
X192813097Y-100782042D01*
X192632415Y-101052451D01*
X192402451Y-101282415D01*
X192132042Y-101463097D01*
X191831579Y-101587553D01*
X191725256Y-101608702D01*
X191512611Y-101651000D01*
X191187389Y-101651000D01*
X190974744Y-101608702D01*
X190868421Y-101587553D01*
X190567958Y-101463097D01*
X190297549Y-101282415D01*
X190067585Y-101052451D01*
X189886903Y-100782042D01*
X189762447Y-100481579D01*
X189713145Y-100233720D01*
X189699000Y-100162611D01*
X189699000Y-99837389D01*
X189741298Y-99624744D01*
X189762447Y-99518421D01*
X189886903Y-99217958D01*
X190067585Y-98947549D01*
X190297549Y-98717585D01*
X190567958Y-98536903D01*
X190868421Y-98412447D01*
X190974744Y-98391298D01*
X191187389Y-98349000D01*
X191512611Y-98349000D01*
X191725256Y-98391298D01*
G37*
G36*
X107774549Y-98371116D02*
G01*
X107885734Y-98393232D01*
X108095203Y-98479997D01*
X108283720Y-98605960D01*
X108444040Y-98766280D01*
X108570003Y-98954797D01*
X108656768Y-99164266D01*
X108701000Y-99386636D01*
X108701000Y-99613364D01*
X108656768Y-99835734D01*
X108570003Y-100045203D01*
X108444040Y-100233720D01*
X108283720Y-100394040D01*
X108095203Y-100520003D01*
X107885734Y-100606768D01*
X107774549Y-100628884D01*
X107663365Y-100651000D01*
X107436635Y-100651000D01*
X107325451Y-100628884D01*
X107214266Y-100606768D01*
X107004797Y-100520003D01*
X106816280Y-100394040D01*
X106655960Y-100233720D01*
X106529997Y-100045203D01*
X106443232Y-99835734D01*
X106399000Y-99613364D01*
X106399000Y-99386636D01*
X106443232Y-99164266D01*
X106529997Y-98954797D01*
X106655960Y-98766280D01*
X106816280Y-98605960D01*
X107004797Y-98479997D01*
X107214266Y-98393232D01*
X107325451Y-98371116D01*
X107436635Y-98349000D01*
X107663365Y-98349000D01*
X107774549Y-98371116D01*
G37*
G36*
X103025256Y-93641298D02*
G01*
X103131579Y-93662447D01*
X103432042Y-93786903D01*
X103702451Y-93967585D01*
X103932415Y-94197549D01*
X104113097Y-94467958D01*
X104216843Y-94718422D01*
X104237553Y-94768422D01*
X104291055Y-95037391D01*
X104301000Y-95087391D01*
X104301000Y-95412609D01*
X104237553Y-95731579D01*
X104113097Y-96032042D01*
X103932415Y-96302451D01*
X103702451Y-96532415D01*
X103432042Y-96713097D01*
X103131579Y-96837553D01*
X103063976Y-96851000D01*
X102812611Y-96901000D01*
X102487389Y-96901000D01*
X102236024Y-96851000D01*
X102168421Y-96837553D01*
X101867958Y-96713097D01*
X101597549Y-96532415D01*
X101367585Y-96302451D01*
X101186903Y-96032042D01*
X101062447Y-95731579D01*
X100999000Y-95412609D01*
X100999000Y-95087391D01*
X101008946Y-95037391D01*
X101062447Y-94768422D01*
X101083158Y-94718422D01*
X101186903Y-94467958D01*
X101367585Y-94197549D01*
X101597549Y-93967585D01*
X101867958Y-93786903D01*
X102168421Y-93662447D01*
X102274744Y-93641298D01*
X102487389Y-93599000D01*
X102812611Y-93599000D01*
X103025256Y-93641298D01*
G37*
G36*
X197725256Y-93591298D02*
G01*
X197831579Y-93612447D01*
X198132042Y-93736903D01*
X198402451Y-93917585D01*
X198632415Y-94147549D01*
X198688749Y-94231859D01*
X198813098Y-94417960D01*
X198937553Y-94718422D01*
X199001000Y-95037389D01*
X199001000Y-95362611D01*
X198991054Y-95412611D01*
X198937553Y-95681579D01*
X198813097Y-95982042D01*
X198632415Y-96252451D01*
X198402451Y-96482415D01*
X198132042Y-96663097D01*
X197831579Y-96787553D01*
X197725256Y-96808702D01*
X197512611Y-96851000D01*
X197187389Y-96851000D01*
X196974744Y-96808702D01*
X196868421Y-96787553D01*
X196567958Y-96663097D01*
X196297549Y-96482415D01*
X196067585Y-96252451D01*
X195886903Y-95982042D01*
X195762447Y-95681579D01*
X195708946Y-95412611D01*
X195699000Y-95362611D01*
X195699000Y-95037389D01*
X195762447Y-94718422D01*
X195886902Y-94417960D01*
X196011251Y-94231859D01*
X196067585Y-94147549D01*
X196297549Y-93917585D01*
X196567958Y-93736903D01*
X196868421Y-93612447D01*
X196974744Y-93591298D01*
X197187389Y-93549000D01*
X197512611Y-93549000D01*
X197725256Y-93591298D01*
G37*
G36*
X109025256Y-92041298D02*
G01*
X109131579Y-92062447D01*
X109432042Y-92186903D01*
X109702451Y-92367585D01*
X109932415Y-92597549D01*
X109932416Y-92597551D01*
X110113098Y-92867960D01*
X110237553Y-93168422D01*
X110301000Y-93487389D01*
X110301000Y-93812611D01*
X110258702Y-94025256D01*
X110237553Y-94131579D01*
X110113097Y-94432042D01*
X109932415Y-94702451D01*
X109702451Y-94932415D01*
X109432042Y-95113097D01*
X109131579Y-95237553D01*
X109025256Y-95258702D01*
X108812611Y-95301000D01*
X108487389Y-95301000D01*
X108274744Y-95258702D01*
X108168421Y-95237553D01*
X107867958Y-95113097D01*
X107597549Y-94932415D01*
X107367585Y-94702451D01*
X107186903Y-94432042D01*
X107062447Y-94131579D01*
X107041298Y-94025256D01*
X106999000Y-93812611D01*
X106999000Y-93487389D01*
X107062447Y-93168422D01*
X107186902Y-92867960D01*
X107367584Y-92597551D01*
X107367585Y-92597549D01*
X107597549Y-92367585D01*
X107867958Y-92186903D01*
X108168421Y-92062447D01*
X108274744Y-92041298D01*
X108487389Y-91999000D01*
X108812611Y-91999000D01*
X109025256Y-92041298D01*
G37*
G36*
X177875256Y-92041298D02*
G01*
X177981579Y-92062447D01*
X178282042Y-92186903D01*
X178552451Y-92367585D01*
X178782415Y-92597549D01*
X178782416Y-92597551D01*
X178963098Y-92867960D01*
X179087553Y-93168422D01*
X179151000Y-93487389D01*
X179151000Y-93812611D01*
X179108702Y-94025256D01*
X179087553Y-94131579D01*
X178963097Y-94432042D01*
X178782415Y-94702451D01*
X178552451Y-94932415D01*
X178282042Y-95113097D01*
X177981579Y-95237553D01*
X177875256Y-95258702D01*
X177662611Y-95301000D01*
X177337389Y-95301000D01*
X177124744Y-95258702D01*
X177018421Y-95237553D01*
X176717958Y-95113097D01*
X176447549Y-94932415D01*
X176217585Y-94702451D01*
X176036903Y-94432042D01*
X175912447Y-94131579D01*
X175891298Y-94025256D01*
X175849000Y-93812611D01*
X175849000Y-93487389D01*
X175912447Y-93168422D01*
X176036902Y-92867960D01*
X176217584Y-92597551D01*
X176217585Y-92597549D01*
X176447549Y-92367585D01*
X176717958Y-92186903D01*
X177018421Y-92062447D01*
X177124744Y-92041298D01*
X177337389Y-91999000D01*
X177662611Y-91999000D01*
X177875256Y-92041298D01*
G37*
G36*
X185586812Y-93424527D02*
G01*
X185736112Y-93454224D01*
X185900084Y-93522144D01*
X186047654Y-93620747D01*
X186173153Y-93746246D01*
X186271756Y-93893816D01*
X186339676Y-94057788D01*
X186374300Y-94231859D01*
X186374300Y-94409341D01*
X186339676Y-94583412D01*
X186271756Y-94747384D01*
X186173153Y-94894954D01*
X186047654Y-95020453D01*
X185900084Y-95119056D01*
X185736112Y-95186976D01*
X185586812Y-95216673D01*
X185562042Y-95221600D01*
X185384558Y-95221600D01*
X185359788Y-95216673D01*
X185210488Y-95186976D01*
X185046516Y-95119056D01*
X184898946Y-95020453D01*
X184773447Y-94894954D01*
X184674844Y-94747384D01*
X184606924Y-94583412D01*
X184572300Y-94409341D01*
X184572300Y-94231859D01*
X184606924Y-94057788D01*
X184674844Y-93893816D01*
X184773447Y-93746246D01*
X184898946Y-93620747D01*
X185046516Y-93522144D01*
X185210488Y-93454224D01*
X185359788Y-93424527D01*
X185384558Y-93419600D01*
X185562042Y-93419600D01*
X185586812Y-93424527D01*
G37*
G36*
X183046812Y-93424527D02*
G01*
X183196112Y-93454224D01*
X183360084Y-93522144D01*
X183507654Y-93620747D01*
X183633153Y-93746246D01*
X183731756Y-93893816D01*
X183799676Y-94057788D01*
X183834300Y-94231859D01*
X183834300Y-94409341D01*
X183799676Y-94583412D01*
X183731756Y-94747384D01*
X183633153Y-94894954D01*
X183507654Y-95020453D01*
X183360084Y-95119056D01*
X183196112Y-95186976D01*
X183046812Y-95216673D01*
X183022042Y-95221600D01*
X182844558Y-95221600D01*
X182819788Y-95216673D01*
X182670488Y-95186976D01*
X182506516Y-95119056D01*
X182358946Y-95020453D01*
X182233447Y-94894954D01*
X182134844Y-94747384D01*
X182066924Y-94583412D01*
X182032300Y-94409341D01*
X182032300Y-94231859D01*
X182066924Y-94057788D01*
X182134844Y-93893816D01*
X182233447Y-93746246D01*
X182358946Y-93620747D01*
X182506516Y-93522144D01*
X182670488Y-93454224D01*
X182819788Y-93424527D01*
X182844558Y-93419600D01*
X183022042Y-93419600D01*
X183046812Y-93424527D01*
G37*
G36*
X188126812Y-93424527D02*
G01*
X188276112Y-93454224D01*
X188440084Y-93522144D01*
X188587654Y-93620747D01*
X188713153Y-93746246D01*
X188811756Y-93893816D01*
X188879676Y-94057788D01*
X188914300Y-94231859D01*
X188914300Y-94409341D01*
X188879676Y-94583412D01*
X188811756Y-94747384D01*
X188713153Y-94894954D01*
X188587654Y-95020453D01*
X188440084Y-95119056D01*
X188276112Y-95186976D01*
X188126812Y-95216673D01*
X188102042Y-95221600D01*
X187924558Y-95221600D01*
X187899788Y-95216673D01*
X187750488Y-95186976D01*
X187586516Y-95119056D01*
X187438946Y-95020453D01*
X187313447Y-94894954D01*
X187214844Y-94747384D01*
X187146924Y-94583412D01*
X187112300Y-94409341D01*
X187112300Y-94231859D01*
X187146924Y-94057788D01*
X187214844Y-93893816D01*
X187313447Y-93746246D01*
X187438946Y-93620747D01*
X187586516Y-93522144D01*
X187750488Y-93454224D01*
X187899788Y-93424527D01*
X187924558Y-93419600D01*
X188102042Y-93419600D01*
X188126812Y-93424527D01*
G37*
G36*
X190666812Y-93424527D02*
G01*
X190816112Y-93454224D01*
X190980084Y-93522144D01*
X191127654Y-93620747D01*
X191253153Y-93746246D01*
X191351756Y-93893816D01*
X191419676Y-94057788D01*
X191454300Y-94231859D01*
X191454300Y-94409341D01*
X191419676Y-94583412D01*
X191351756Y-94747384D01*
X191253153Y-94894954D01*
X191127654Y-95020453D01*
X190980084Y-95119056D01*
X190816112Y-95186976D01*
X190666812Y-95216673D01*
X190642042Y-95221600D01*
X190464558Y-95221600D01*
X190439788Y-95216673D01*
X190290488Y-95186976D01*
X190126516Y-95119056D01*
X189978946Y-95020453D01*
X189853447Y-94894954D01*
X189754844Y-94747384D01*
X189686924Y-94583412D01*
X189652300Y-94409341D01*
X189652300Y-94231859D01*
X189686924Y-94057788D01*
X189754844Y-93893816D01*
X189853447Y-93746246D01*
X189978946Y-93620747D01*
X190126516Y-93522144D01*
X190290488Y-93454224D01*
X190439788Y-93424527D01*
X190464558Y-93419600D01*
X190642042Y-93419600D01*
X190666812Y-93424527D01*
G37*
G36*
X193206812Y-93424527D02*
G01*
X193356112Y-93454224D01*
X193520084Y-93522144D01*
X193667654Y-93620747D01*
X193793153Y-93746246D01*
X193891756Y-93893816D01*
X193959676Y-94057788D01*
X193994300Y-94231859D01*
X193994300Y-94409341D01*
X193959676Y-94583412D01*
X193891756Y-94747384D01*
X193793153Y-94894954D01*
X193667654Y-95020453D01*
X193520084Y-95119056D01*
X193356112Y-95186976D01*
X193206812Y-95216673D01*
X193182042Y-95221600D01*
X193004558Y-95221600D01*
X192979788Y-95216673D01*
X192830488Y-95186976D01*
X192666516Y-95119056D01*
X192518946Y-95020453D01*
X192393447Y-94894954D01*
X192294844Y-94747384D01*
X192226924Y-94583412D01*
X192192300Y-94409341D01*
X192192300Y-94231859D01*
X192226924Y-94057788D01*
X192294844Y-93893816D01*
X192393447Y-93746246D01*
X192518946Y-93620747D01*
X192666516Y-93522144D01*
X192830488Y-93454224D01*
X192979788Y-93424527D01*
X193004558Y-93419600D01*
X193182042Y-93419600D01*
X193206812Y-93424527D01*
G37*
G36*
X171874549Y-91421116D02*
G01*
X171985734Y-91443232D01*
X172133850Y-91504584D01*
X172165731Y-91517789D01*
X172195203Y-91529997D01*
X172383720Y-91655960D01*
X172544040Y-91816280D01*
X172670003Y-92004797D01*
X172670004Y-92004799D01*
X172685998Y-92043412D01*
X172753917Y-92207382D01*
X172756768Y-92214267D01*
X172784753Y-92354954D01*
X172801000Y-92436636D01*
X172801000Y-92663364D01*
X172756768Y-92885734D01*
X172670003Y-93095203D01*
X172544040Y-93283720D01*
X172383720Y-93444040D01*
X172195203Y-93570003D01*
X171985734Y-93656768D01*
X171874549Y-93678884D01*
X171763365Y-93701000D01*
X171536635Y-93701000D01*
X171425451Y-93678884D01*
X171314266Y-93656768D01*
X171104797Y-93570003D01*
X170916280Y-93444040D01*
X170755960Y-93283720D01*
X170629997Y-93095203D01*
X170543232Y-92885734D01*
X170499000Y-92663364D01*
X170499000Y-92436636D01*
X170515248Y-92354954D01*
X170543232Y-92214267D01*
X170546084Y-92207382D01*
X170614002Y-92043412D01*
X170629996Y-92004799D01*
X170629997Y-92004797D01*
X170755960Y-91816280D01*
X170916280Y-91655960D01*
X171104797Y-91529997D01*
X171134270Y-91517789D01*
X171166150Y-91504584D01*
X171314266Y-91443232D01*
X171425451Y-91421116D01*
X171536635Y-91399000D01*
X171763365Y-91399000D01*
X171874549Y-91421116D01*
G37*
G36*
X166874549Y-91421116D02*
G01*
X166985734Y-91443232D01*
X167133850Y-91504584D01*
X167165731Y-91517789D01*
X167195203Y-91529997D01*
X167383720Y-91655960D01*
X167544040Y-91816280D01*
X167670003Y-92004797D01*
X167670004Y-92004799D01*
X167685998Y-92043412D01*
X167753917Y-92207382D01*
X167756768Y-92214267D01*
X167784753Y-92354954D01*
X167801000Y-92436636D01*
X167801000Y-92663364D01*
X167756768Y-92885734D01*
X167670003Y-93095203D01*
X167544040Y-93283720D01*
X167383720Y-93444040D01*
X167195203Y-93570003D01*
X166985734Y-93656768D01*
X166874549Y-93678884D01*
X166763365Y-93701000D01*
X166536635Y-93701000D01*
X166425451Y-93678884D01*
X166314266Y-93656768D01*
X166104797Y-93570003D01*
X165916280Y-93444040D01*
X165755960Y-93283720D01*
X165629997Y-93095203D01*
X165543232Y-92885734D01*
X165499000Y-92663364D01*
X165499000Y-92436636D01*
X165515248Y-92354954D01*
X165543232Y-92214267D01*
X165546084Y-92207382D01*
X165614002Y-92043412D01*
X165629996Y-92004799D01*
X165629997Y-92004797D01*
X165755960Y-91816280D01*
X165916280Y-91655960D01*
X166104797Y-91529997D01*
X166134270Y-91517789D01*
X166166150Y-91504584D01*
X166314266Y-91443232D01*
X166425451Y-91421116D01*
X166536635Y-91399000D01*
X166763365Y-91399000D01*
X166874549Y-91421116D01*
G37*
G36*
X114724549Y-91421116D02*
G01*
X114835734Y-91443232D01*
X114983850Y-91504584D01*
X115015731Y-91517789D01*
X115045203Y-91529997D01*
X115233720Y-91655960D01*
X115394040Y-91816280D01*
X115520003Y-92004797D01*
X115520004Y-92004799D01*
X115535998Y-92043412D01*
X115603917Y-92207382D01*
X115606768Y-92214267D01*
X115634753Y-92354954D01*
X115651000Y-92436636D01*
X115651000Y-92663364D01*
X115606768Y-92885734D01*
X115520003Y-93095203D01*
X115394040Y-93283720D01*
X115233720Y-93444040D01*
X115045203Y-93570003D01*
X114835734Y-93656768D01*
X114724549Y-93678884D01*
X114613365Y-93701000D01*
X114386635Y-93701000D01*
X114275451Y-93678884D01*
X114164266Y-93656768D01*
X113954797Y-93570003D01*
X113766280Y-93444040D01*
X113605960Y-93283720D01*
X113479997Y-93095203D01*
X113393232Y-92885734D01*
X113349000Y-92663364D01*
X113349000Y-92436636D01*
X113365248Y-92354954D01*
X113393232Y-92214267D01*
X113396084Y-92207382D01*
X113464002Y-92043412D01*
X113479996Y-92004799D01*
X113479997Y-92004797D01*
X113605960Y-91816280D01*
X113766280Y-91655960D01*
X113954797Y-91529997D01*
X113984270Y-91517789D01*
X114016150Y-91504584D01*
X114164266Y-91443232D01*
X114275451Y-91421116D01*
X114386635Y-91399000D01*
X114613365Y-91399000D01*
X114724549Y-91421116D01*
G37*
G36*
X185586812Y-90884527D02*
G01*
X185736112Y-90914224D01*
X185900084Y-90982144D01*
X186047654Y-91080747D01*
X186173153Y-91206246D01*
X186271756Y-91353816D01*
X186339676Y-91517788D01*
X186374300Y-91691859D01*
X186374300Y-91869341D01*
X186339676Y-92043412D01*
X186271756Y-92207384D01*
X186173153Y-92354954D01*
X186047654Y-92480453D01*
X185900084Y-92579056D01*
X185736112Y-92646976D01*
X185586812Y-92676673D01*
X185562042Y-92681600D01*
X185384558Y-92681600D01*
X185359788Y-92676673D01*
X185210488Y-92646976D01*
X185046516Y-92579056D01*
X184898946Y-92480453D01*
X184773447Y-92354954D01*
X184674844Y-92207384D01*
X184606924Y-92043412D01*
X184572300Y-91869341D01*
X184572300Y-91691859D01*
X184606924Y-91517788D01*
X184674844Y-91353816D01*
X184773447Y-91206246D01*
X184898946Y-91080747D01*
X185046516Y-90982144D01*
X185210488Y-90914224D01*
X185359788Y-90884527D01*
X185384558Y-90879600D01*
X185562042Y-90879600D01*
X185586812Y-90884527D01*
G37*
G36*
X188126812Y-90884527D02*
G01*
X188276112Y-90914224D01*
X188440084Y-90982144D01*
X188587654Y-91080747D01*
X188713153Y-91206246D01*
X188811756Y-91353816D01*
X188879676Y-91517788D01*
X188914300Y-91691859D01*
X188914300Y-91869341D01*
X188879676Y-92043412D01*
X188811756Y-92207384D01*
X188713153Y-92354954D01*
X188587654Y-92480453D01*
X188440084Y-92579056D01*
X188276112Y-92646976D01*
X188126812Y-92676673D01*
X188102042Y-92681600D01*
X187924558Y-92681600D01*
X187899788Y-92676673D01*
X187750488Y-92646976D01*
X187586516Y-92579056D01*
X187438946Y-92480453D01*
X187313447Y-92354954D01*
X187214844Y-92207384D01*
X187146924Y-92043412D01*
X187112300Y-91869341D01*
X187112300Y-91691859D01*
X187146924Y-91517788D01*
X187214844Y-91353816D01*
X187313447Y-91206246D01*
X187438946Y-91080747D01*
X187586516Y-90982144D01*
X187750488Y-90914224D01*
X187899788Y-90884527D01*
X187924558Y-90879600D01*
X188102042Y-90879600D01*
X188126812Y-90884527D01*
G37*
G36*
X190666812Y-90884527D02*
G01*
X190816112Y-90914224D01*
X190980084Y-90982144D01*
X191127654Y-91080747D01*
X191253153Y-91206246D01*
X191351756Y-91353816D01*
X191419676Y-91517788D01*
X191454300Y-91691859D01*
X191454300Y-91869341D01*
X191419676Y-92043412D01*
X191351756Y-92207384D01*
X191253153Y-92354954D01*
X191127654Y-92480453D01*
X190980084Y-92579056D01*
X190816112Y-92646976D01*
X190666812Y-92676673D01*
X190642042Y-92681600D01*
X190464558Y-92681600D01*
X190439788Y-92676673D01*
X190290488Y-92646976D01*
X190126516Y-92579056D01*
X189978946Y-92480453D01*
X189853447Y-92354954D01*
X189754844Y-92207384D01*
X189686924Y-92043412D01*
X189652300Y-91869341D01*
X189652300Y-91691859D01*
X189686924Y-91517788D01*
X189754844Y-91353816D01*
X189853447Y-91206246D01*
X189978946Y-91080747D01*
X190126516Y-90982144D01*
X190290488Y-90914224D01*
X190439788Y-90884527D01*
X190464558Y-90879600D01*
X190642042Y-90879600D01*
X190666812Y-90884527D01*
G37*
G36*
X193206812Y-90884527D02*
G01*
X193356112Y-90914224D01*
X193520084Y-90982144D01*
X193667654Y-91080747D01*
X193793153Y-91206246D01*
X193891756Y-91353816D01*
X193959676Y-91517788D01*
X193994300Y-91691859D01*
X193994300Y-91869341D01*
X193959676Y-92043412D01*
X193891756Y-92207384D01*
X193793153Y-92354954D01*
X193667654Y-92480453D01*
X193520084Y-92579056D01*
X193356112Y-92646976D01*
X193206812Y-92676673D01*
X193182042Y-92681600D01*
X193004558Y-92681600D01*
X192979788Y-92676673D01*
X192830488Y-92646976D01*
X192666516Y-92579056D01*
X192518946Y-92480453D01*
X192393447Y-92354954D01*
X192294844Y-92207384D01*
X192226924Y-92043412D01*
X192192300Y-91869341D01*
X192192300Y-91691859D01*
X192226924Y-91517788D01*
X192294844Y-91353816D01*
X192393447Y-91206246D01*
X192518946Y-91080747D01*
X192666516Y-90982144D01*
X192830488Y-90914224D01*
X192979788Y-90884527D01*
X193004558Y-90879600D01*
X193182042Y-90879600D01*
X193206812Y-90884527D01*
G37*
G36*
X183834300Y-92681600D02*
G01*
X182032300Y-92681600D01*
X182032300Y-90879600D01*
X183834300Y-90879600D01*
X183834300Y-92681600D01*
G37*
G36*
X190225256Y-86141298D02*
G01*
X190331579Y-86162447D01*
X190632042Y-86286903D01*
X190902451Y-86467585D01*
X191132415Y-86697549D01*
X191132416Y-86697551D01*
X191313098Y-86967960D01*
X191437553Y-87268422D01*
X191501000Y-87587389D01*
X191501000Y-87912611D01*
X191458702Y-88125256D01*
X191437553Y-88231579D01*
X191313097Y-88532042D01*
X191132415Y-88802451D01*
X190902451Y-89032415D01*
X190632042Y-89213097D01*
X190331579Y-89337553D01*
X190225256Y-89358702D01*
X190012611Y-89401000D01*
X189687389Y-89401000D01*
X189474744Y-89358702D01*
X189368421Y-89337553D01*
X189067958Y-89213097D01*
X188797549Y-89032415D01*
X188567585Y-88802451D01*
X188386903Y-88532042D01*
X188262447Y-88231579D01*
X188241298Y-88125256D01*
X188199000Y-87912611D01*
X188199000Y-87587389D01*
X188262447Y-87268422D01*
X188386902Y-86967960D01*
X188567584Y-86697551D01*
X188567585Y-86697549D01*
X188797549Y-86467585D01*
X189067958Y-86286903D01*
X189368421Y-86162447D01*
X189474744Y-86141298D01*
X189687389Y-86099000D01*
X190012611Y-86099000D01*
X190225256Y-86141298D01*
G37*
G36*
X109875256Y-86141298D02*
G01*
X109981579Y-86162447D01*
X110282042Y-86286903D01*
X110552451Y-86467585D01*
X110782415Y-86697549D01*
X110782416Y-86697551D01*
X110963098Y-86967960D01*
X111087553Y-87268422D01*
X111151000Y-87587389D01*
X111151000Y-87912611D01*
X111108702Y-88125256D01*
X111087553Y-88231579D01*
X110963097Y-88532042D01*
X110782415Y-88802451D01*
X110552451Y-89032415D01*
X110282042Y-89213097D01*
X109981579Y-89337553D01*
X109875256Y-89358702D01*
X109662611Y-89401000D01*
X109337389Y-89401000D01*
X109124744Y-89358702D01*
X109018421Y-89337553D01*
X108717958Y-89213097D01*
X108447549Y-89032415D01*
X108217585Y-88802451D01*
X108036903Y-88532042D01*
X107912447Y-88231579D01*
X107891298Y-88125256D01*
X107849000Y-87912611D01*
X107849000Y-87587389D01*
X107912447Y-87268422D01*
X108036902Y-86967960D01*
X108217584Y-86697551D01*
X108217585Y-86697549D01*
X108447549Y-86467585D01*
X108717958Y-86286903D01*
X109018421Y-86162447D01*
X109124744Y-86141298D01*
X109337389Y-86099000D01*
X109662611Y-86099000D01*
X109875256Y-86141298D01*
G37*
G36*
X116875256Y-85641298D02*
G01*
X116981579Y-85662447D01*
X117282042Y-85786903D01*
X117552451Y-85967585D01*
X117782415Y-86197549D01*
X117963097Y-86467958D01*
X118058198Y-86697551D01*
X118087553Y-86768422D01*
X118127244Y-86967958D01*
X118151000Y-87087391D01*
X118151000Y-87412609D01*
X118087553Y-87731579D01*
X117963097Y-88032042D01*
X117782415Y-88302451D01*
X117552451Y-88532415D01*
X117282042Y-88713097D01*
X116981579Y-88837553D01*
X116875256Y-88858702D01*
X116662611Y-88901000D01*
X116337389Y-88901000D01*
X116124744Y-88858702D01*
X116018421Y-88837553D01*
X115717958Y-88713097D01*
X115447549Y-88532415D01*
X115217585Y-88302451D01*
X115036903Y-88032042D01*
X114912447Y-87731579D01*
X114849000Y-87412609D01*
X114849000Y-87087391D01*
X114872757Y-86967958D01*
X114912447Y-86768422D01*
X114941803Y-86697551D01*
X115036903Y-86467958D01*
X115217585Y-86197549D01*
X115447549Y-85967585D01*
X115717958Y-85786903D01*
X116018421Y-85662447D01*
X116124744Y-85641298D01*
X116337389Y-85599000D01*
X116662611Y-85599000D01*
X116875256Y-85641298D01*
G37*
G36*
X183125256Y-85641298D02*
G01*
X183231579Y-85662447D01*
X183532042Y-85786903D01*
X183802451Y-85967585D01*
X184032415Y-86197549D01*
X184213097Y-86467958D01*
X184308198Y-86697551D01*
X184337553Y-86768422D01*
X184377244Y-86967958D01*
X184401000Y-87087391D01*
X184401000Y-87412609D01*
X184337553Y-87731579D01*
X184213097Y-88032042D01*
X184032415Y-88302451D01*
X183802451Y-88532415D01*
X183532042Y-88713097D01*
X183231579Y-88837553D01*
X183125256Y-88858702D01*
X182912611Y-88901000D01*
X182587389Y-88901000D01*
X182374744Y-88858702D01*
X182268421Y-88837553D01*
X181967958Y-88713097D01*
X181697549Y-88532415D01*
X181467585Y-88302451D01*
X181286903Y-88032042D01*
X181162447Y-87731579D01*
X181099000Y-87412609D01*
X181099000Y-87087391D01*
X181122757Y-86967958D01*
X181162447Y-86768422D01*
X181191803Y-86697551D01*
X181286903Y-86467958D01*
X181467585Y-86197549D01*
X181697549Y-85967585D01*
X181967958Y-85786903D01*
X182268421Y-85662447D01*
X182374744Y-85641298D01*
X182587389Y-85599000D01*
X182912611Y-85599000D01*
X183125256Y-85641298D01*
G37*
G36*
X169635423Y-81659661D02*
G01*
X170026879Y-81821807D01*
X170026881Y-81821808D01*
X170379183Y-82057209D01*
X170678791Y-82356817D01*
X170914192Y-82709119D01*
X170914193Y-82709121D01*
X171076339Y-83100577D01*
X171159000Y-83516144D01*
X171159000Y-83939856D01*
X171076339Y-84355423D01*
X170914193Y-84746879D01*
X170914192Y-84746881D01*
X170678791Y-85099183D01*
X170379183Y-85398791D01*
X170026881Y-85634192D01*
X170026880Y-85634193D01*
X170026879Y-85634193D01*
X169635423Y-85796339D01*
X169219856Y-85879000D01*
X168796144Y-85879000D01*
X168380577Y-85796339D01*
X167989121Y-85634193D01*
X167989120Y-85634193D01*
X167989119Y-85634192D01*
X167636817Y-85398791D01*
X167337209Y-85099183D01*
X167101808Y-84746881D01*
X167101807Y-84746879D01*
X166939661Y-84355423D01*
X166857000Y-83939856D01*
X166857000Y-83516144D01*
X166939661Y-83100577D01*
X167101807Y-82709121D01*
X167101808Y-82709119D01*
X167337209Y-82356817D01*
X167636817Y-82057209D01*
X167989119Y-81821808D01*
X167989121Y-81821807D01*
X168380577Y-81659661D01*
X168796144Y-81577000D01*
X169219856Y-81577000D01*
X169635423Y-81659661D01*
G37*
G36*
X150135423Y-81659661D02*
G01*
X150526879Y-81821807D01*
X150526881Y-81821808D01*
X150879183Y-82057209D01*
X151178791Y-82356817D01*
X151414192Y-82709119D01*
X151414193Y-82709121D01*
X151576339Y-83100577D01*
X151659000Y-83516144D01*
X151659000Y-83939856D01*
X151576339Y-84355423D01*
X151414193Y-84746879D01*
X151414192Y-84746881D01*
X151178791Y-85099183D01*
X150879183Y-85398791D01*
X150526881Y-85634192D01*
X150526880Y-85634193D01*
X150526879Y-85634193D01*
X150135423Y-85796339D01*
X149719856Y-85879000D01*
X149296144Y-85879000D01*
X148880577Y-85796339D01*
X148489121Y-85634193D01*
X148489120Y-85634193D01*
X148489119Y-85634192D01*
X148136817Y-85398791D01*
X147837209Y-85099183D01*
X147601808Y-84746881D01*
X147601807Y-84746879D01*
X147439661Y-84355423D01*
X147357000Y-83939856D01*
X147357000Y-83516144D01*
X147439661Y-83100577D01*
X147601807Y-82709121D01*
X147601808Y-82709119D01*
X147837209Y-82356817D01*
X148136817Y-82057209D01*
X148489119Y-81821808D01*
X148489121Y-81821807D01*
X148880577Y-81659661D01*
X149296144Y-81577000D01*
X149719856Y-81577000D01*
X150135423Y-81659661D01*
G37*
G36*
X159199423Y-77687661D02*
G01*
X159590879Y-77849807D01*
X159590881Y-77849808D01*
X159943183Y-78085209D01*
X160242791Y-78384817D01*
X160478192Y-78737119D01*
X160478193Y-78737121D01*
X160640339Y-79128577D01*
X160723000Y-79544144D01*
X160723000Y-79967856D01*
X160640339Y-80383423D01*
X160478193Y-80774879D01*
X160478192Y-80774881D01*
X160242791Y-81127183D01*
X159943183Y-81426791D01*
X159590881Y-81662192D01*
X159590880Y-81662193D01*
X159590879Y-81662193D01*
X159199423Y-81824339D01*
X158783856Y-81907000D01*
X158360144Y-81907000D01*
X157944577Y-81824339D01*
X157553121Y-81662193D01*
X157553120Y-81662193D01*
X157553119Y-81662192D01*
X157200817Y-81426791D01*
X156901209Y-81127183D01*
X156665808Y-80774881D01*
X156665807Y-80774879D01*
X156503661Y-80383423D01*
X156421000Y-79967856D01*
X156421000Y-79544144D01*
X156503661Y-79128577D01*
X156665807Y-78737121D01*
X156665808Y-78737119D01*
X156901209Y-78384817D01*
X157200817Y-78085209D01*
X157553119Y-77849808D01*
X157553121Y-77849807D01*
X157944577Y-77687661D01*
X158360144Y-77605000D01*
X158783856Y-77605000D01*
X159199423Y-77687661D01*
G37*
G36*
X182999423Y-77687661D02*
G01*
X183390879Y-77849807D01*
X183390881Y-77849808D01*
X183743183Y-78085209D01*
X184042791Y-78384817D01*
X184278192Y-78737119D01*
X184278193Y-78737121D01*
X184440339Y-79128577D01*
X184523000Y-79544144D01*
X184523000Y-79967856D01*
X184440339Y-80383423D01*
X184278193Y-80774879D01*
X184278192Y-80774881D01*
X184042791Y-81127183D01*
X183743183Y-81426791D01*
X183390881Y-81662192D01*
X183390880Y-81662193D01*
X183390879Y-81662193D01*
X182999423Y-81824339D01*
X182583856Y-81907000D01*
X182160144Y-81907000D01*
X181744577Y-81824339D01*
X181353121Y-81662193D01*
X181353120Y-81662193D01*
X181353119Y-81662192D01*
X181000817Y-81426791D01*
X180701209Y-81127183D01*
X180465808Y-80774881D01*
X180465807Y-80774879D01*
X180303661Y-80383423D01*
X180221000Y-79967856D01*
X180221000Y-79544144D01*
X180303661Y-79128577D01*
X180465807Y-78737121D01*
X180465808Y-78737119D01*
X180701209Y-78384817D01*
X181000817Y-78085209D01*
X181353119Y-77849808D01*
X181353121Y-77849807D01*
X181744577Y-77687661D01*
X182160144Y-77605000D01*
X182583856Y-77605000D01*
X182999423Y-77687661D01*
G37*
G36*
X172389423Y-76163661D02*
G01*
X172780879Y-76325807D01*
X172780881Y-76325808D01*
X173133183Y-76561209D01*
X173432791Y-76860817D01*
X173436505Y-76866376D01*
X173668193Y-77213121D01*
X173830339Y-77604577D01*
X173913000Y-78020144D01*
X173913000Y-78443856D01*
X173830339Y-78859423D01*
X173718852Y-79128576D01*
X173668192Y-79250881D01*
X173432791Y-79603183D01*
X173133183Y-79902791D01*
X172780881Y-80138192D01*
X172780880Y-80138193D01*
X172780879Y-80138193D01*
X172389423Y-80300339D01*
X171973856Y-80383000D01*
X171550144Y-80383000D01*
X171134577Y-80300339D01*
X170743121Y-80138193D01*
X170743120Y-80138193D01*
X170743119Y-80138192D01*
X170390817Y-79902791D01*
X170091209Y-79603183D01*
X169855808Y-79250881D01*
X169805148Y-79128576D01*
X169693661Y-78859423D01*
X169611000Y-78443856D01*
X169611000Y-78020144D01*
X169693661Y-77604577D01*
X169855807Y-77213121D01*
X170087495Y-76866376D01*
X170091209Y-76860817D01*
X170390817Y-76561209D01*
X170743119Y-76325808D01*
X170743121Y-76325807D01*
X171134577Y-76163661D01*
X171550144Y-76081000D01*
X171973856Y-76081000D01*
X172389423Y-76163661D01*
G37*
G36*
X191889423Y-76163661D02*
G01*
X192280879Y-76325807D01*
X192280881Y-76325808D01*
X192633183Y-76561209D01*
X192932791Y-76860817D01*
X192936505Y-76866376D01*
X193168193Y-77213121D01*
X193330339Y-77604577D01*
X193413000Y-78020144D01*
X193413000Y-78443856D01*
X193330339Y-78859423D01*
X193218852Y-79128576D01*
X193168192Y-79250881D01*
X192932791Y-79603183D01*
X192633183Y-79902791D01*
X192280881Y-80138192D01*
X192280880Y-80138193D01*
X192280879Y-80138193D01*
X191889423Y-80300339D01*
X191473856Y-80383000D01*
X191050144Y-80383000D01*
X190634577Y-80300339D01*
X190243121Y-80138193D01*
X190243120Y-80138193D01*
X190243119Y-80138192D01*
X189890817Y-79902791D01*
X189591209Y-79603183D01*
X189355808Y-79250881D01*
X189305148Y-79128576D01*
X189193661Y-78859423D01*
X189111000Y-78443856D01*
X189111000Y-78020144D01*
X189193661Y-77604577D01*
X189355807Y-77213121D01*
X189587495Y-76866376D01*
X189591209Y-76860817D01*
X189890817Y-76561209D01*
X190243119Y-76325808D01*
X190243121Y-76325807D01*
X190634577Y-76163661D01*
X191050144Y-76081000D01*
X191473856Y-76081000D01*
X191889423Y-76163661D01*
G37*
G36*
X119113512Y-75103927D02*
G01*
X119262812Y-75133624D01*
X119426784Y-75201544D01*
X119574354Y-75300147D01*
X119699853Y-75425646D01*
X119798456Y-75573216D01*
X119866376Y-75737188D01*
X119901000Y-75911259D01*
X119901000Y-76088741D01*
X119866376Y-76262812D01*
X119798456Y-76426784D01*
X119699853Y-76574354D01*
X119574354Y-76699853D01*
X119426784Y-76798456D01*
X119262812Y-76866376D01*
X119113512Y-76896073D01*
X119088742Y-76901000D01*
X118911258Y-76901000D01*
X118886488Y-76896073D01*
X118737188Y-76866376D01*
X118573216Y-76798456D01*
X118425646Y-76699853D01*
X118300147Y-76574354D01*
X118201544Y-76426784D01*
X118133624Y-76262812D01*
X118099000Y-76088741D01*
X118099000Y-75911259D01*
X118133624Y-75737188D01*
X118201544Y-75573216D01*
X118300147Y-75425646D01*
X118425646Y-75300147D01*
X118573216Y-75201544D01*
X118737188Y-75133624D01*
X118886488Y-75103927D01*
X118911258Y-75099000D01*
X119088742Y-75099000D01*
X119113512Y-75103927D01*
G37*
G36*
X116573512Y-75103927D02*
G01*
X116722812Y-75133624D01*
X116886784Y-75201544D01*
X117034354Y-75300147D01*
X117159853Y-75425646D01*
X117258456Y-75573216D01*
X117326376Y-75737188D01*
X117361000Y-75911259D01*
X117361000Y-76088741D01*
X117326376Y-76262812D01*
X117258456Y-76426784D01*
X117159853Y-76574354D01*
X117034354Y-76699853D01*
X116886784Y-76798456D01*
X116722812Y-76866376D01*
X116573512Y-76896073D01*
X116548742Y-76901000D01*
X116371258Y-76901000D01*
X116346488Y-76896073D01*
X116197188Y-76866376D01*
X116033216Y-76798456D01*
X115885646Y-76699853D01*
X115760147Y-76574354D01*
X115661544Y-76426784D01*
X115593624Y-76262812D01*
X115559000Y-76088741D01*
X115559000Y-75911259D01*
X115593624Y-75737188D01*
X115661544Y-75573216D01*
X115760147Y-75425646D01*
X115885646Y-75300147D01*
X116033216Y-75201544D01*
X116197188Y-75133624D01*
X116346488Y-75103927D01*
X116371258Y-75099000D01*
X116548742Y-75099000D01*
X116573512Y-75103927D01*
G37*
G36*
X121653512Y-75103927D02*
G01*
X121802812Y-75133624D01*
X121966784Y-75201544D01*
X122114354Y-75300147D01*
X122239853Y-75425646D01*
X122338456Y-75573216D01*
X122406376Y-75737188D01*
X122441000Y-75911259D01*
X122441000Y-76088741D01*
X122406376Y-76262812D01*
X122338456Y-76426784D01*
X122239853Y-76574354D01*
X122114354Y-76699853D01*
X121966784Y-76798456D01*
X121802812Y-76866376D01*
X121653512Y-76896073D01*
X121628742Y-76901000D01*
X121451258Y-76901000D01*
X121426488Y-76896073D01*
X121277188Y-76866376D01*
X121113216Y-76798456D01*
X120965646Y-76699853D01*
X120840147Y-76574354D01*
X120741544Y-76426784D01*
X120673624Y-76262812D01*
X120639000Y-76088741D01*
X120639000Y-75911259D01*
X120673624Y-75737188D01*
X120741544Y-75573216D01*
X120840147Y-75425646D01*
X120965646Y-75300147D01*
X121113216Y-75201544D01*
X121277188Y-75133624D01*
X121426488Y-75103927D01*
X121451258Y-75099000D01*
X121628742Y-75099000D01*
X121653512Y-75103927D01*
G37*
G36*
X114033512Y-75103927D02*
G01*
X114182812Y-75133624D01*
X114346784Y-75201544D01*
X114494354Y-75300147D01*
X114619853Y-75425646D01*
X114718456Y-75573216D01*
X114786376Y-75737188D01*
X114821000Y-75911259D01*
X114821000Y-76088741D01*
X114786376Y-76262812D01*
X114718456Y-76426784D01*
X114619853Y-76574354D01*
X114494354Y-76699853D01*
X114346784Y-76798456D01*
X114182812Y-76866376D01*
X114033512Y-76896073D01*
X114008742Y-76901000D01*
X113831258Y-76901000D01*
X113806488Y-76896073D01*
X113657188Y-76866376D01*
X113493216Y-76798456D01*
X113345646Y-76699853D01*
X113220147Y-76574354D01*
X113121544Y-76426784D01*
X113053624Y-76262812D01*
X113019000Y-76088741D01*
X113019000Y-75911259D01*
X113053624Y-75737188D01*
X113121544Y-75573216D01*
X113220147Y-75425646D01*
X113345646Y-75300147D01*
X113493216Y-75201544D01*
X113657188Y-75133624D01*
X113806488Y-75103927D01*
X113831258Y-75099000D01*
X114008742Y-75099000D01*
X114033512Y-75103927D01*
G37*
G36*
X112281000Y-76901000D02*
G01*
X110479000Y-76901000D01*
X110479000Y-75099000D01*
X112281000Y-75099000D01*
X112281000Y-76901000D01*
G37*
G36*
X150135423Y-70159661D02*
G01*
X150526879Y-70321807D01*
X150526881Y-70321808D01*
X150879183Y-70557209D01*
X151178791Y-70856817D01*
X151414192Y-71209119D01*
X151414193Y-71209121D01*
X151576339Y-71600577D01*
X151659000Y-72016144D01*
X151659000Y-72439856D01*
X151576339Y-72855423D01*
X151434775Y-73197189D01*
X151414192Y-73246881D01*
X151178791Y-73599183D01*
X150879183Y-73898791D01*
X150526881Y-74134192D01*
X150526880Y-74134193D01*
X150526879Y-74134193D01*
X150135423Y-74296339D01*
X149719856Y-74379000D01*
X149296144Y-74379000D01*
X148880577Y-74296339D01*
X148489121Y-74134193D01*
X148489120Y-74134193D01*
X148489119Y-74134192D01*
X148136817Y-73898791D01*
X147837209Y-73599183D01*
X147601808Y-73246881D01*
X147581225Y-73197189D01*
X147439661Y-72855423D01*
X147357000Y-72439856D01*
X147357000Y-72016144D01*
X147439661Y-71600577D01*
X147601807Y-71209121D01*
X147601808Y-71209119D01*
X147837209Y-70856817D01*
X148136817Y-70557209D01*
X148489119Y-70321808D01*
X148489121Y-70321807D01*
X148880577Y-70159661D01*
X149296144Y-70077000D01*
X149719856Y-70077000D01*
X150135423Y-70159661D01*
G37*
G36*
X169635423Y-70159661D02*
G01*
X170026879Y-70321807D01*
X170026881Y-70321808D01*
X170379183Y-70557209D01*
X170678791Y-70856817D01*
X170914192Y-71209119D01*
X170914193Y-71209121D01*
X171076339Y-71600577D01*
X171159000Y-72016144D01*
X171159000Y-72439856D01*
X171076339Y-72855423D01*
X170934775Y-73197189D01*
X170914192Y-73246881D01*
X170678791Y-73599183D01*
X170379183Y-73898791D01*
X170026881Y-74134192D01*
X170026880Y-74134193D01*
X170026879Y-74134193D01*
X169635423Y-74296339D01*
X169219856Y-74379000D01*
X168796144Y-74379000D01*
X168380577Y-74296339D01*
X167989121Y-74134193D01*
X167989120Y-74134193D01*
X167989119Y-74134192D01*
X167636817Y-73898791D01*
X167337209Y-73599183D01*
X167101808Y-73246881D01*
X167081225Y-73197189D01*
X166939661Y-72855423D01*
X166857000Y-72439856D01*
X166857000Y-72016144D01*
X166939661Y-71600577D01*
X167101807Y-71209121D01*
X167101808Y-71209119D01*
X167337209Y-70856817D01*
X167636817Y-70557209D01*
X167989119Y-70321808D01*
X167989121Y-70321807D01*
X168380577Y-70159661D01*
X168796144Y-70077000D01*
X169219856Y-70077000D01*
X169635423Y-70159661D01*
G37*
G36*
X121653512Y-72563927D02*
G01*
X121802812Y-72593624D01*
X121966784Y-72661544D01*
X122114354Y-72760147D01*
X122239853Y-72885646D01*
X122338456Y-73033216D01*
X122406376Y-73197188D01*
X122441000Y-73371259D01*
X122441000Y-73548741D01*
X122406376Y-73722812D01*
X122338456Y-73886784D01*
X122239853Y-74034354D01*
X122114354Y-74159853D01*
X121966784Y-74258456D01*
X121802812Y-74326376D01*
X121653512Y-74356073D01*
X121628742Y-74361000D01*
X121451258Y-74361000D01*
X121426488Y-74356073D01*
X121277188Y-74326376D01*
X121113216Y-74258456D01*
X120965646Y-74159853D01*
X120840147Y-74034354D01*
X120741544Y-73886784D01*
X120673624Y-73722812D01*
X120639000Y-73548741D01*
X120639000Y-73371259D01*
X120673624Y-73197188D01*
X120741544Y-73033216D01*
X120840147Y-72885646D01*
X120965646Y-72760147D01*
X121113216Y-72661544D01*
X121277188Y-72593624D01*
X121426488Y-72563927D01*
X121451258Y-72559000D01*
X121628742Y-72559000D01*
X121653512Y-72563927D01*
G37*
G36*
X111493512Y-72563927D02*
G01*
X111642812Y-72593624D01*
X111806784Y-72661544D01*
X111954354Y-72760147D01*
X112079853Y-72885646D01*
X112178456Y-73033216D01*
X112246376Y-73197188D01*
X112281000Y-73371259D01*
X112281000Y-73548741D01*
X112246376Y-73722812D01*
X112178456Y-73886784D01*
X112079853Y-74034354D01*
X111954354Y-74159853D01*
X111806784Y-74258456D01*
X111642812Y-74326376D01*
X111493512Y-74356073D01*
X111468742Y-74361000D01*
X111291258Y-74361000D01*
X111266488Y-74356073D01*
X111117188Y-74326376D01*
X110953216Y-74258456D01*
X110805646Y-74159853D01*
X110680147Y-74034354D01*
X110581544Y-73886784D01*
X110513624Y-73722812D01*
X110479000Y-73548741D01*
X110479000Y-73371259D01*
X110513624Y-73197188D01*
X110581544Y-73033216D01*
X110680147Y-72885646D01*
X110805646Y-72760147D01*
X110953216Y-72661544D01*
X111117188Y-72593624D01*
X111266488Y-72563927D01*
X111291258Y-72559000D01*
X111468742Y-72559000D01*
X111493512Y-72563927D01*
G37*
G36*
X116573512Y-72563927D02*
G01*
X116722812Y-72593624D01*
X116886784Y-72661544D01*
X117034354Y-72760147D01*
X117159853Y-72885646D01*
X117258456Y-73033216D01*
X117326376Y-73197188D01*
X117361000Y-73371259D01*
X117361000Y-73548741D01*
X117326376Y-73722812D01*
X117258456Y-73886784D01*
X117159853Y-74034354D01*
X117034354Y-74159853D01*
X116886784Y-74258456D01*
X116722812Y-74326376D01*
X116573512Y-74356073D01*
X116548742Y-74361000D01*
X116371258Y-74361000D01*
X116346488Y-74356073D01*
X116197188Y-74326376D01*
X116033216Y-74258456D01*
X115885646Y-74159853D01*
X115760147Y-74034354D01*
X115661544Y-73886784D01*
X115593624Y-73722812D01*
X115559000Y-73548741D01*
X115559000Y-73371259D01*
X115593624Y-73197188D01*
X115661544Y-73033216D01*
X115760147Y-72885646D01*
X115885646Y-72760147D01*
X116033216Y-72661544D01*
X116197188Y-72593624D01*
X116346488Y-72563927D01*
X116371258Y-72559000D01*
X116548742Y-72559000D01*
X116573512Y-72563927D01*
G37*
G36*
X119113512Y-72563927D02*
G01*
X119262812Y-72593624D01*
X119426784Y-72661544D01*
X119574354Y-72760147D01*
X119699853Y-72885646D01*
X119798456Y-73033216D01*
X119866376Y-73197188D01*
X119901000Y-73371259D01*
X119901000Y-73548741D01*
X119866376Y-73722812D01*
X119798456Y-73886784D01*
X119699853Y-74034354D01*
X119574354Y-74159853D01*
X119426784Y-74258456D01*
X119262812Y-74326376D01*
X119113512Y-74356073D01*
X119088742Y-74361000D01*
X118911258Y-74361000D01*
X118886488Y-74356073D01*
X118737188Y-74326376D01*
X118573216Y-74258456D01*
X118425646Y-74159853D01*
X118300147Y-74034354D01*
X118201544Y-73886784D01*
X118133624Y-73722812D01*
X118099000Y-73548741D01*
X118099000Y-73371259D01*
X118133624Y-73197188D01*
X118201544Y-73033216D01*
X118300147Y-72885646D01*
X118425646Y-72760147D01*
X118573216Y-72661544D01*
X118737188Y-72593624D01*
X118886488Y-72563927D01*
X118911258Y-72559000D01*
X119088742Y-72559000D01*
X119113512Y-72563927D01*
G37*
G36*
X114033512Y-72563927D02*
G01*
X114182812Y-72593624D01*
X114346784Y-72661544D01*
X114494354Y-72760147D01*
X114619853Y-72885646D01*
X114718456Y-73033216D01*
X114786376Y-73197188D01*
X114821000Y-73371259D01*
X114821000Y-73548741D01*
X114786376Y-73722812D01*
X114718456Y-73886784D01*
X114619853Y-74034354D01*
X114494354Y-74159853D01*
X114346784Y-74258456D01*
X114182812Y-74326376D01*
X114033512Y-74356073D01*
X114008742Y-74361000D01*
X113831258Y-74361000D01*
X113806488Y-74356073D01*
X113657188Y-74326376D01*
X113493216Y-74258456D01*
X113345646Y-74159853D01*
X113220147Y-74034354D01*
X113121544Y-73886784D01*
X113053624Y-73722812D01*
X113019000Y-73548741D01*
X113019000Y-73371259D01*
X113053624Y-73197188D01*
X113121544Y-73033216D01*
X113220147Y-72885646D01*
X113345646Y-72760147D01*
X113493216Y-72661544D01*
X113657188Y-72593624D01*
X113806488Y-72563927D01*
X113831258Y-72559000D01*
X114008742Y-72559000D01*
X114033512Y-72563927D01*
G37*
G36*
X172389423Y-64663661D02*
G01*
X172780879Y-64825807D01*
X172780881Y-64825808D01*
X173133183Y-65061209D01*
X173432791Y-65360817D01*
X173543691Y-65526791D01*
X173668193Y-65713121D01*
X173830339Y-66104577D01*
X173913000Y-66520144D01*
X173913000Y-66943856D01*
X173830339Y-67359423D01*
X173668193Y-67750879D01*
X173668192Y-67750881D01*
X173432791Y-68103183D01*
X173133183Y-68402791D01*
X172780881Y-68638192D01*
X172780880Y-68638193D01*
X172780879Y-68638193D01*
X172389423Y-68800339D01*
X171973856Y-68883000D01*
X171550144Y-68883000D01*
X171134577Y-68800339D01*
X170743121Y-68638193D01*
X170743120Y-68638193D01*
X170743119Y-68638192D01*
X170390817Y-68402791D01*
X170091209Y-68103183D01*
X169855808Y-67750881D01*
X169855807Y-67750879D01*
X169693661Y-67359423D01*
X169611000Y-66943856D01*
X169611000Y-66520144D01*
X169693661Y-66104577D01*
X169855807Y-65713121D01*
X169980309Y-65526791D01*
X170091209Y-65360817D01*
X170390817Y-65061209D01*
X170743119Y-64825808D01*
X170743121Y-64825807D01*
X171134577Y-64663661D01*
X171550144Y-64581000D01*
X171973856Y-64581000D01*
X172389423Y-64663661D01*
G37*
G36*
X191889423Y-64663661D02*
G01*
X192280879Y-64825807D01*
X192280881Y-64825808D01*
X192633183Y-65061209D01*
X192932791Y-65360817D01*
X193043691Y-65526791D01*
X193168193Y-65713121D01*
X193330339Y-66104577D01*
X193413000Y-66520144D01*
X193413000Y-66943856D01*
X193330339Y-67359423D01*
X193168193Y-67750879D01*
X193168192Y-67750881D01*
X192932791Y-68103183D01*
X192633183Y-68402791D01*
X192280881Y-68638192D01*
X192280880Y-68638193D01*
X192280879Y-68638193D01*
X191889423Y-68800339D01*
X191473856Y-68883000D01*
X191050144Y-68883000D01*
X190634577Y-68800339D01*
X190243121Y-68638193D01*
X190243120Y-68638193D01*
X190243119Y-68638192D01*
X189890817Y-68402791D01*
X189591209Y-68103183D01*
X189355808Y-67750881D01*
X189355807Y-67750879D01*
X189193661Y-67359423D01*
X189111000Y-66943856D01*
X189111000Y-66520144D01*
X189193661Y-66104577D01*
X189355807Y-65713121D01*
X189480309Y-65526791D01*
X189591209Y-65360817D01*
X189890817Y-65061209D01*
X190243119Y-64825808D01*
X190243121Y-64825807D01*
X190634577Y-64663661D01*
X191050144Y-64581000D01*
X191473856Y-64581000D01*
X191889423Y-64663661D01*
G37*
G36*
X182999423Y-61787661D02*
G01*
X183390879Y-61949807D01*
X183390881Y-61949808D01*
X183743183Y-62185209D01*
X184042791Y-62484817D01*
X184278192Y-62837119D01*
X184278193Y-62837121D01*
X184440339Y-63228577D01*
X184523000Y-63644144D01*
X184523000Y-64067856D01*
X184440339Y-64483423D01*
X184298519Y-64825807D01*
X184278192Y-64874881D01*
X184042791Y-65227183D01*
X183743183Y-65526791D01*
X183390881Y-65762192D01*
X183390880Y-65762193D01*
X183390879Y-65762193D01*
X182999423Y-65924339D01*
X182583856Y-66007000D01*
X182160144Y-66007000D01*
X181744577Y-65924339D01*
X181353121Y-65762193D01*
X181353120Y-65762193D01*
X181353119Y-65762192D01*
X181000817Y-65526791D01*
X180701209Y-65227183D01*
X180465808Y-64874881D01*
X180445481Y-64825807D01*
X180303661Y-64483423D01*
X180221000Y-64067856D01*
X180221000Y-63644144D01*
X180303661Y-63228577D01*
X180465807Y-62837121D01*
X180465808Y-62837119D01*
X180701209Y-62484817D01*
X181000817Y-62185209D01*
X181353119Y-61949808D01*
X181353121Y-61949807D01*
X181744577Y-61787661D01*
X182160144Y-61705000D01*
X182583856Y-61705000D01*
X182999423Y-61787661D01*
G37*
G36*
X159199423Y-61787661D02*
G01*
X159590879Y-61949807D01*
X159590881Y-61949808D01*
X159943183Y-62185209D01*
X160242791Y-62484817D01*
X160478192Y-62837119D01*
X160478193Y-62837121D01*
X160640339Y-63228577D01*
X160723000Y-63644144D01*
X160723000Y-64067856D01*
X160640339Y-64483423D01*
X160498519Y-64825807D01*
X160478192Y-64874881D01*
X160242791Y-65227183D01*
X159943183Y-65526791D01*
X159590881Y-65762192D01*
X159590880Y-65762193D01*
X159590879Y-65762193D01*
X159199423Y-65924339D01*
X158783856Y-66007000D01*
X158360144Y-66007000D01*
X157944577Y-65924339D01*
X157553121Y-65762193D01*
X157553120Y-65762193D01*
X157553119Y-65762192D01*
X157200817Y-65526791D01*
X156901209Y-65227183D01*
X156665808Y-64874881D01*
X156645481Y-64825807D01*
X156503661Y-64483423D01*
X156421000Y-64067856D01*
X156421000Y-63644144D01*
X156503661Y-63228577D01*
X156665807Y-62837121D01*
X156665808Y-62837119D01*
X156901209Y-62484817D01*
X157200817Y-62185209D01*
X157553119Y-61949808D01*
X157553121Y-61949807D01*
X157944577Y-61787661D01*
X158360144Y-61705000D01*
X158783856Y-61705000D01*
X159199423Y-61787661D01*
G37*
G36*
X116726778Y-61120547D02*
G01*
X116893224Y-61189491D01*
X117043022Y-61289583D01*
X117170417Y-61416978D01*
X117270509Y-61566776D01*
X117339453Y-61733222D01*
X117374600Y-61909918D01*
X117374600Y-62090082D01*
X117339453Y-62266778D01*
X117270509Y-62433224D01*
X117170417Y-62583022D01*
X117043022Y-62710417D01*
X116893224Y-62810509D01*
X116726778Y-62879453D01*
X116550082Y-62914600D01*
X116369918Y-62914600D01*
X116193222Y-62879453D01*
X116026776Y-62810509D01*
X115876978Y-62710417D01*
X115749583Y-62583022D01*
X115649491Y-62433224D01*
X115580547Y-62266778D01*
X115545400Y-62090082D01*
X115545400Y-61909918D01*
X115580547Y-61733222D01*
X115649491Y-61566776D01*
X115749583Y-61416978D01*
X115876978Y-61289583D01*
X116026776Y-61189491D01*
X116193222Y-61120547D01*
X116369918Y-61085400D01*
X116550082Y-61085400D01*
X116726778Y-61120547D01*
G37*
G36*
X114186778Y-61120547D02*
G01*
X114353224Y-61189491D01*
X114503022Y-61289583D01*
X114630417Y-61416978D01*
X114730509Y-61566776D01*
X114799453Y-61733222D01*
X114834600Y-61909918D01*
X114834600Y-62090082D01*
X114799453Y-62266778D01*
X114730509Y-62433224D01*
X114630417Y-62583022D01*
X114503022Y-62710417D01*
X114353224Y-62810509D01*
X114186778Y-62879453D01*
X114010082Y-62914600D01*
X113829918Y-62914600D01*
X113653222Y-62879453D01*
X113486776Y-62810509D01*
X113336978Y-62710417D01*
X113209583Y-62583022D01*
X113109491Y-62433224D01*
X113040547Y-62266778D01*
X113005400Y-62090082D01*
X113005400Y-61909918D01*
X113040547Y-61733222D01*
X113109491Y-61566776D01*
X113209583Y-61416978D01*
X113336978Y-61289583D01*
X113486776Y-61189491D01*
X113653222Y-61120547D01*
X113829918Y-61085400D01*
X114010082Y-61085400D01*
X114186778Y-61120547D01*
G37*
G36*
X134506778Y-61120547D02*
G01*
X134673224Y-61189491D01*
X134823022Y-61289583D01*
X134950417Y-61416978D01*
X135050509Y-61566776D01*
X135119453Y-61733222D01*
X135154600Y-61909918D01*
X135154600Y-62090082D01*
X135119453Y-62266778D01*
X135050509Y-62433224D01*
X134950417Y-62583022D01*
X134823022Y-62710417D01*
X134673224Y-62810509D01*
X134506778Y-62879453D01*
X134330082Y-62914600D01*
X134149918Y-62914600D01*
X133973222Y-62879453D01*
X133806776Y-62810509D01*
X133656978Y-62710417D01*
X133529583Y-62583022D01*
X133429491Y-62433224D01*
X133360547Y-62266778D01*
X133325400Y-62090082D01*
X133325400Y-61909918D01*
X133360547Y-61733222D01*
X133429491Y-61566776D01*
X133529583Y-61416978D01*
X133656978Y-61289583D01*
X133806776Y-61189491D01*
X133973222Y-61120547D01*
X134149918Y-61085400D01*
X134330082Y-61085400D01*
X134506778Y-61120547D01*
G37*
G36*
X131966778Y-61120547D02*
G01*
X132133224Y-61189491D01*
X132283022Y-61289583D01*
X132410417Y-61416978D01*
X132510509Y-61566776D01*
X132579453Y-61733222D01*
X132614600Y-61909918D01*
X132614600Y-62090082D01*
X132579453Y-62266778D01*
X132510509Y-62433224D01*
X132410417Y-62583022D01*
X132283022Y-62710417D01*
X132133224Y-62810509D01*
X131966778Y-62879453D01*
X131790082Y-62914600D01*
X131609918Y-62914600D01*
X131433222Y-62879453D01*
X131266776Y-62810509D01*
X131116978Y-62710417D01*
X130989583Y-62583022D01*
X130889491Y-62433224D01*
X130820547Y-62266778D01*
X130785400Y-62090082D01*
X130785400Y-61909918D01*
X130820547Y-61733222D01*
X130889491Y-61566776D01*
X130989583Y-61416978D01*
X131116978Y-61289583D01*
X131266776Y-61189491D01*
X131433222Y-61120547D01*
X131609918Y-61085400D01*
X131790082Y-61085400D01*
X131966778Y-61120547D01*
G37*
G36*
X129426778Y-61120547D02*
G01*
X129593224Y-61189491D01*
X129743022Y-61289583D01*
X129870417Y-61416978D01*
X129970509Y-61566776D01*
X130039453Y-61733222D01*
X130074600Y-61909918D01*
X130074600Y-62090082D01*
X130039453Y-62266778D01*
X129970509Y-62433224D01*
X129870417Y-62583022D01*
X129743022Y-62710417D01*
X129593224Y-62810509D01*
X129426778Y-62879453D01*
X129250082Y-62914600D01*
X129069918Y-62914600D01*
X128893222Y-62879453D01*
X128726776Y-62810509D01*
X128576978Y-62710417D01*
X128449583Y-62583022D01*
X128349491Y-62433224D01*
X128280547Y-62266778D01*
X128245400Y-62090082D01*
X128245400Y-61909918D01*
X128280547Y-61733222D01*
X128349491Y-61566776D01*
X128449583Y-61416978D01*
X128576978Y-61289583D01*
X128726776Y-61189491D01*
X128893222Y-61120547D01*
X129069918Y-61085400D01*
X129250082Y-61085400D01*
X129426778Y-61120547D01*
G37*
G36*
X124346778Y-61120547D02*
G01*
X124513224Y-61189491D01*
X124663022Y-61289583D01*
X124790417Y-61416978D01*
X124890509Y-61566776D01*
X124959453Y-61733222D01*
X124994600Y-61909918D01*
X124994600Y-62090082D01*
X124959453Y-62266778D01*
X124890509Y-62433224D01*
X124790417Y-62583022D01*
X124663022Y-62710417D01*
X124513224Y-62810509D01*
X124346778Y-62879453D01*
X124170082Y-62914600D01*
X123989918Y-62914600D01*
X123813222Y-62879453D01*
X123646776Y-62810509D01*
X123496978Y-62710417D01*
X123369583Y-62583022D01*
X123269491Y-62433224D01*
X123200547Y-62266778D01*
X123165400Y-62090082D01*
X123165400Y-61909918D01*
X123200547Y-61733222D01*
X123269491Y-61566776D01*
X123369583Y-61416978D01*
X123496978Y-61289583D01*
X123646776Y-61189491D01*
X123813222Y-61120547D01*
X123989918Y-61085400D01*
X124170082Y-61085400D01*
X124346778Y-61120547D01*
G37*
G36*
X121806778Y-61120547D02*
G01*
X121973224Y-61189491D01*
X122123022Y-61289583D01*
X122250417Y-61416978D01*
X122350509Y-61566776D01*
X122419453Y-61733222D01*
X122454600Y-61909918D01*
X122454600Y-62090082D01*
X122419453Y-62266778D01*
X122350509Y-62433224D01*
X122250417Y-62583022D01*
X122123022Y-62710417D01*
X121973224Y-62810509D01*
X121806778Y-62879453D01*
X121630082Y-62914600D01*
X121449918Y-62914600D01*
X121273222Y-62879453D01*
X121106776Y-62810509D01*
X120956978Y-62710417D01*
X120829583Y-62583022D01*
X120729491Y-62433224D01*
X120660547Y-62266778D01*
X120625400Y-62090082D01*
X120625400Y-61909918D01*
X120660547Y-61733222D01*
X120729491Y-61566776D01*
X120829583Y-61416978D01*
X120956978Y-61289583D01*
X121106776Y-61189491D01*
X121273222Y-61120547D01*
X121449918Y-61085400D01*
X121630082Y-61085400D01*
X121806778Y-61120547D01*
G37*
G36*
X119266778Y-61120547D02*
G01*
X119433224Y-61189491D01*
X119583022Y-61289583D01*
X119710417Y-61416978D01*
X119810509Y-61566776D01*
X119879453Y-61733222D01*
X119914600Y-61909918D01*
X119914600Y-62090082D01*
X119879453Y-62266778D01*
X119810509Y-62433224D01*
X119710417Y-62583022D01*
X119583022Y-62710417D01*
X119433224Y-62810509D01*
X119266778Y-62879453D01*
X119090082Y-62914600D01*
X118909918Y-62914600D01*
X118733222Y-62879453D01*
X118566776Y-62810509D01*
X118416978Y-62710417D01*
X118289583Y-62583022D01*
X118189491Y-62433224D01*
X118120547Y-62266778D01*
X118085400Y-62090082D01*
X118085400Y-61909918D01*
X118120547Y-61733222D01*
X118189491Y-61566776D01*
X118289583Y-61416978D01*
X118416978Y-61289583D01*
X118566776Y-61189491D01*
X118733222Y-61120547D01*
X118909918Y-61085400D01*
X119090082Y-61085400D01*
X119266778Y-61120547D01*
G37*
G36*
X112294600Y-62914600D02*
G01*
X110465400Y-62914600D01*
X110465400Y-61085400D01*
X112294600Y-61085400D01*
X112294600Y-62914600D01*
G37*
G36*
X126886778Y-61120547D02*
G01*
X127053224Y-61189491D01*
X127203022Y-61289583D01*
X127330417Y-61416978D01*
X127430509Y-61566776D01*
X127499453Y-61733222D01*
X127534600Y-61909918D01*
X127534600Y-62090082D01*
X127499453Y-62266778D01*
X127430509Y-62433224D01*
X127330417Y-62583022D01*
X127203022Y-62710417D01*
X127053224Y-62810509D01*
X126886778Y-62879453D01*
X126710082Y-62914600D01*
X126529918Y-62914600D01*
X126353222Y-62879453D01*
X126186776Y-62810509D01*
X126036978Y-62710417D01*
X125909583Y-62583022D01*
X125809491Y-62433224D01*
X125740547Y-62266778D01*
X125705400Y-62090082D01*
X125705400Y-61909918D01*
X125740547Y-61733222D01*
X125809491Y-61566776D01*
X125909583Y-61416978D01*
X126036978Y-61289583D01*
X126186776Y-61189491D01*
X126353222Y-61120547D01*
X126529918Y-61085400D01*
X126710082Y-61085400D01*
X126886778Y-61120547D01*
G37*
G36*
X124346778Y-58580547D02*
G01*
X124513224Y-58649491D01*
X124663022Y-58749583D01*
X124790417Y-58876978D01*
X124890509Y-59026776D01*
X124959453Y-59193222D01*
X124994600Y-59369918D01*
X124994600Y-59550082D01*
X124959453Y-59726778D01*
X124890509Y-59893224D01*
X124790417Y-60043022D01*
X124663022Y-60170417D01*
X124513224Y-60270509D01*
X124346778Y-60339453D01*
X124170082Y-60374600D01*
X123989918Y-60374600D01*
X123813222Y-60339453D01*
X123646776Y-60270509D01*
X123496978Y-60170417D01*
X123369583Y-60043022D01*
X123269491Y-59893224D01*
X123200547Y-59726778D01*
X123165400Y-59550082D01*
X123165400Y-59369918D01*
X123200547Y-59193222D01*
X123269491Y-59026776D01*
X123369583Y-58876978D01*
X123496978Y-58749583D01*
X123646776Y-58649491D01*
X123813222Y-58580547D01*
X123989918Y-58545400D01*
X124170082Y-58545400D01*
X124346778Y-58580547D01*
G37*
G36*
X111646778Y-58580547D02*
G01*
X111813224Y-58649491D01*
X111963022Y-58749583D01*
X112090417Y-58876978D01*
X112190509Y-59026776D01*
X112259453Y-59193222D01*
X112294600Y-59369918D01*
X112294600Y-59550082D01*
X112259453Y-59726778D01*
X112190509Y-59893224D01*
X112090417Y-60043022D01*
X111963022Y-60170417D01*
X111813224Y-60270509D01*
X111646778Y-60339453D01*
X111470082Y-60374600D01*
X111289918Y-60374600D01*
X111113222Y-60339453D01*
X110946776Y-60270509D01*
X110796978Y-60170417D01*
X110669583Y-60043022D01*
X110569491Y-59893224D01*
X110500547Y-59726778D01*
X110465400Y-59550082D01*
X110465400Y-59369918D01*
X110500547Y-59193222D01*
X110569491Y-59026776D01*
X110669583Y-58876978D01*
X110796978Y-58749583D01*
X110946776Y-58649491D01*
X111113222Y-58580547D01*
X111289918Y-58545400D01*
X111470082Y-58545400D01*
X111646778Y-58580547D01*
G37*
G36*
X114186778Y-58580547D02*
G01*
X114353224Y-58649491D01*
X114503022Y-58749583D01*
X114630417Y-58876978D01*
X114730509Y-59026776D01*
X114799453Y-59193222D01*
X114834600Y-59369918D01*
X114834600Y-59550082D01*
X114799453Y-59726778D01*
X114730509Y-59893224D01*
X114630417Y-60043022D01*
X114503022Y-60170417D01*
X114353224Y-60270509D01*
X114186778Y-60339453D01*
X114010082Y-60374600D01*
X113829918Y-60374600D01*
X113653222Y-60339453D01*
X113486776Y-60270509D01*
X113336978Y-60170417D01*
X113209583Y-60043022D01*
X113109491Y-59893224D01*
X113040547Y-59726778D01*
X113005400Y-59550082D01*
X113005400Y-59369918D01*
X113040547Y-59193222D01*
X113109491Y-59026776D01*
X113209583Y-58876978D01*
X113336978Y-58749583D01*
X113486776Y-58649491D01*
X113653222Y-58580547D01*
X113829918Y-58545400D01*
X114010082Y-58545400D01*
X114186778Y-58580547D01*
G37*
G36*
X131966778Y-58580547D02*
G01*
X132133224Y-58649491D01*
X132283022Y-58749583D01*
X132410417Y-58876978D01*
X132510509Y-59026776D01*
X132579453Y-59193222D01*
X132614600Y-59369918D01*
X132614600Y-59550082D01*
X132579453Y-59726778D01*
X132510509Y-59893224D01*
X132410417Y-60043022D01*
X132283022Y-60170417D01*
X132133224Y-60270509D01*
X131966778Y-60339453D01*
X131790082Y-60374600D01*
X131609918Y-60374600D01*
X131433222Y-60339453D01*
X131266776Y-60270509D01*
X131116978Y-60170417D01*
X130989583Y-60043022D01*
X130889491Y-59893224D01*
X130820547Y-59726778D01*
X130785400Y-59550082D01*
X130785400Y-59369918D01*
X130820547Y-59193222D01*
X130889491Y-59026776D01*
X130989583Y-58876978D01*
X131116978Y-58749583D01*
X131266776Y-58649491D01*
X131433222Y-58580547D01*
X131609918Y-58545400D01*
X131790082Y-58545400D01*
X131966778Y-58580547D01*
G37*
G36*
X116726778Y-58580547D02*
G01*
X116893224Y-58649491D01*
X117043022Y-58749583D01*
X117170417Y-58876978D01*
X117270509Y-59026776D01*
X117339453Y-59193222D01*
X117374600Y-59369918D01*
X117374600Y-59550082D01*
X117339453Y-59726778D01*
X117270509Y-59893224D01*
X117170417Y-60043022D01*
X117043022Y-60170417D01*
X116893224Y-60270509D01*
X116726778Y-60339453D01*
X116550082Y-60374600D01*
X116369918Y-60374600D01*
X116193222Y-60339453D01*
X116026776Y-60270509D01*
X115876978Y-60170417D01*
X115749583Y-60043022D01*
X115649491Y-59893224D01*
X115580547Y-59726778D01*
X115545400Y-59550082D01*
X115545400Y-59369918D01*
X115580547Y-59193222D01*
X115649491Y-59026776D01*
X115749583Y-58876978D01*
X115876978Y-58749583D01*
X116026776Y-58649491D01*
X116193222Y-58580547D01*
X116369918Y-58545400D01*
X116550082Y-58545400D01*
X116726778Y-58580547D01*
G37*
G36*
X129426778Y-58580547D02*
G01*
X129593224Y-58649491D01*
X129743022Y-58749583D01*
X129870417Y-58876978D01*
X129970509Y-59026776D01*
X130039453Y-59193222D01*
X130074600Y-59369918D01*
X130074600Y-59550082D01*
X130039453Y-59726778D01*
X129970509Y-59893224D01*
X129870417Y-60043022D01*
X129743022Y-60170417D01*
X129593224Y-60270509D01*
X129426778Y-60339453D01*
X129250082Y-60374600D01*
X129069918Y-60374600D01*
X128893222Y-60339453D01*
X128726776Y-60270509D01*
X128576978Y-60170417D01*
X128449583Y-60043022D01*
X128349491Y-59893224D01*
X128280547Y-59726778D01*
X128245400Y-59550082D01*
X128245400Y-59369918D01*
X128280547Y-59193222D01*
X128349491Y-59026776D01*
X128449583Y-58876978D01*
X128576978Y-58749583D01*
X128726776Y-58649491D01*
X128893222Y-58580547D01*
X129069918Y-58545400D01*
X129250082Y-58545400D01*
X129426778Y-58580547D01*
G37*
G36*
X126886778Y-58580547D02*
G01*
X127053224Y-58649491D01*
X127203022Y-58749583D01*
X127330417Y-58876978D01*
X127430509Y-59026776D01*
X127499453Y-59193222D01*
X127534600Y-59369918D01*
X127534600Y-59550082D01*
X127499453Y-59726778D01*
X127430509Y-59893224D01*
X127330417Y-60043022D01*
X127203022Y-60170417D01*
X127053224Y-60270509D01*
X126886778Y-60339453D01*
X126710082Y-60374600D01*
X126529918Y-60374600D01*
X126353222Y-60339453D01*
X126186776Y-60270509D01*
X126036978Y-60170417D01*
X125909583Y-60043022D01*
X125809491Y-59893224D01*
X125740547Y-59726778D01*
X125705400Y-59550082D01*
X125705400Y-59369918D01*
X125740547Y-59193222D01*
X125809491Y-59026776D01*
X125909583Y-58876978D01*
X126036978Y-58749583D01*
X126186776Y-58649491D01*
X126353222Y-58580547D01*
X126529918Y-58545400D01*
X126710082Y-58545400D01*
X126886778Y-58580547D01*
G37*
G36*
X121806778Y-58580547D02*
G01*
X121973224Y-58649491D01*
X122123022Y-58749583D01*
X122250417Y-58876978D01*
X122350509Y-59026776D01*
X122419453Y-59193222D01*
X122454600Y-59369918D01*
X122454600Y-59550082D01*
X122419453Y-59726778D01*
X122350509Y-59893224D01*
X122250417Y-60043022D01*
X122123022Y-60170417D01*
X121973224Y-60270509D01*
X121806778Y-60339453D01*
X121630082Y-60374600D01*
X121449918Y-60374600D01*
X121273222Y-60339453D01*
X121106776Y-60270509D01*
X120956978Y-60170417D01*
X120829583Y-60043022D01*
X120729491Y-59893224D01*
X120660547Y-59726778D01*
X120625400Y-59550082D01*
X120625400Y-59369918D01*
X120660547Y-59193222D01*
X120729491Y-59026776D01*
X120829583Y-58876978D01*
X120956978Y-58749583D01*
X121106776Y-58649491D01*
X121273222Y-58580547D01*
X121449918Y-58545400D01*
X121630082Y-58545400D01*
X121806778Y-58580547D01*
G37*
G36*
X119266778Y-58580547D02*
G01*
X119433224Y-58649491D01*
X119583022Y-58749583D01*
X119710417Y-58876978D01*
X119810509Y-59026776D01*
X119879453Y-59193222D01*
X119914600Y-59369918D01*
X119914600Y-59550082D01*
X119879453Y-59726778D01*
X119810509Y-59893224D01*
X119710417Y-60043022D01*
X119583022Y-60170417D01*
X119433224Y-60270509D01*
X119266778Y-60339453D01*
X119090082Y-60374600D01*
X118909918Y-60374600D01*
X118733222Y-60339453D01*
X118566776Y-60270509D01*
X118416978Y-60170417D01*
X118289583Y-60043022D01*
X118189491Y-59893224D01*
X118120547Y-59726778D01*
X118085400Y-59550082D01*
X118085400Y-59369918D01*
X118120547Y-59193222D01*
X118189491Y-59026776D01*
X118289583Y-58876978D01*
X118416978Y-58749583D01*
X118566776Y-58649491D01*
X118733222Y-58580547D01*
X118909918Y-58545400D01*
X119090082Y-58545400D01*
X119266778Y-58580547D01*
G37*
G36*
X134506778Y-58580547D02*
G01*
X134673224Y-58649491D01*
X134823022Y-58749583D01*
X134950417Y-58876978D01*
X135050509Y-59026776D01*
X135119453Y-59193222D01*
X135154600Y-59369918D01*
X135154600Y-59550082D01*
X135119453Y-59726778D01*
X135050509Y-59893224D01*
X134950417Y-60043022D01*
X134823022Y-60170417D01*
X134673224Y-60270509D01*
X134506778Y-60339453D01*
X134330082Y-60374600D01*
X134149918Y-60374600D01*
X133973222Y-60339453D01*
X133806776Y-60270509D01*
X133656978Y-60170417D01*
X133529583Y-60043022D01*
X133429491Y-59893224D01*
X133360547Y-59726778D01*
X133325400Y-59550082D01*
X133325400Y-59369918D01*
X133360547Y-59193222D01*
X133429491Y-59026776D01*
X133529583Y-58876978D01*
X133656978Y-58749583D01*
X133806776Y-58649491D01*
X133973222Y-58580547D01*
X134149918Y-58545400D01*
X134330082Y-58545400D01*
X134506778Y-58580547D01*
G37*
G36*
X197375256Y-51391298D02*
G01*
X197481579Y-51412447D01*
X197782042Y-51536903D01*
X198052451Y-51717585D01*
X198282415Y-51947549D01*
X198463097Y-52217958D01*
X198587553Y-52518421D01*
X198651000Y-52837391D01*
X198651000Y-53162609D01*
X198587553Y-53481579D01*
X198463097Y-53782042D01*
X198282415Y-54052451D01*
X198052451Y-54282415D01*
X197782042Y-54463097D01*
X197481579Y-54587553D01*
X197375256Y-54608702D01*
X197162611Y-54651000D01*
X196837389Y-54651000D01*
X196624744Y-54608702D01*
X196518421Y-54587553D01*
X196217958Y-54463097D01*
X195947549Y-54282415D01*
X195717585Y-54052451D01*
X195536903Y-53782042D01*
X195412447Y-53481579D01*
X195349000Y-53162609D01*
X195349000Y-52837391D01*
X195412447Y-52518421D01*
X195536903Y-52217958D01*
X195717585Y-51947549D01*
X195947549Y-51717585D01*
X196217958Y-51536903D01*
X196518421Y-51412447D01*
X196624744Y-51391298D01*
X196837389Y-51349000D01*
X197162611Y-51349000D01*
X197375256Y-51391298D01*
G37*
G36*
X103375256Y-51391298D02*
G01*
X103481579Y-51412447D01*
X103782042Y-51536903D01*
X104052451Y-51717585D01*
X104282415Y-51947549D01*
X104463097Y-52217958D01*
X104587553Y-52518421D01*
X104651000Y-52837391D01*
X104651000Y-53162609D01*
X104587553Y-53481579D01*
X104463097Y-53782042D01*
X104282415Y-54052451D01*
X104052451Y-54282415D01*
X103782042Y-54463097D01*
X103481579Y-54587553D01*
X103375256Y-54608702D01*
X103162611Y-54651000D01*
X102837389Y-54651000D01*
X102624744Y-54608702D01*
X102518421Y-54587553D01*
X102217958Y-54463097D01*
X101947549Y-54282415D01*
X101717585Y-54052451D01*
X101536903Y-53782042D01*
X101412447Y-53481579D01*
X101349000Y-53162609D01*
X101349000Y-52837391D01*
X101412447Y-52518421D01*
X101536903Y-52217958D01*
X101717585Y-51947549D01*
X101947549Y-51717585D01*
X102217958Y-51536903D01*
X102518421Y-51412447D01*
X102624744Y-51391298D01*
X102837389Y-51349000D01*
X103162611Y-51349000D01*
X103375256Y-51391298D01*
G37*
M02*
