M48
; DRILL file {KiCad 5.1.5+dfsg1-2} date 2020-01-29T19:30:22 MSK
; FORMAT={-:-/ absolute / inch / decimal}
; #@! TF.CreationDate,2020-01-29T19:30:22+03:00
; #@! TF.GenerationSoftware,Kicad,Pcbnew,5.1.5+dfsg1-2
; #@! TF.FileFunction,Plated,1,2,PTH
FMAT,2
INCH
T1C0.0276
T2C0.0394
T3C0.0400
%
G90
G05
T1
X7.2021Y-3.6134
X7.2021Y-3.7134
X7.3021Y-3.6134
X7.3021Y-3.7134
X7.4021Y-3.6134
X7.4021Y-3.7134
X7.5021Y-3.6134
X7.5021Y-3.7134
X7.6021Y-3.6134
X7.6021Y-3.7134
T2
X4.385Y-2.8921
X4.385Y-2.9921
X4.485Y-2.8921
X4.485Y-2.9921
X4.585Y-2.8921
X4.585Y-2.9921
X4.685Y-2.8921
X4.685Y-2.9921
X4.785Y-2.8921
X4.785Y-2.9921
T3
X4.385Y-2.3409
X4.385Y-2.4409
X4.485Y-2.3409
X4.485Y-2.4409
X4.585Y-2.3409
X4.585Y-2.4409
X4.685Y-2.3409
X4.685Y-2.4409
X4.785Y-2.3409
X4.785Y-2.4409
X4.885Y-2.3409
X4.885Y-2.4409
X4.985Y-2.3409
X4.985Y-2.4409
X5.085Y-2.3409
X5.085Y-2.4409
X5.185Y-2.3409
X5.185Y-2.4409
X5.285Y-2.3409
X5.285Y-2.4409
T0
M30
