G04 #@! TF.GenerationSoftware,KiCad,Pcbnew,5.1.5+dfsg1-2*
G04 #@! TF.CreationDate,2020-01-29T19:29:29+03:00*
G04 #@! TF.ProjectId,test-jig,74657374-2d6a-4696-972e-6b696361645f,rev?*
G04 #@! TF.SameCoordinates,Original*
G04 #@! TF.FileFunction,Copper,L2,Bot*
G04 #@! TF.FilePolarity,Positive*
%FSLAX46Y46*%
G04 Gerber Fmt 4.6, Leading zero omitted, Abs format (unit mm)*
G04 Created by KiCad (PCBNEW 5.1.5+dfsg1-2) date 2020-01-29 19:29:29*
%MOMM*%
%LPD*%
G04 APERTURE LIST*
%ADD10O,1.700000X1.700000*%
%ADD11R,1.700000X1.700000*%
%ADD12R,1.727200X1.727200*%
%ADD13O,1.727200X1.727200*%
%ADD14C,0.508000*%
%ADD15C,0.254000*%
G04 APERTURE END LIST*
D10*
X193093300Y-94320600D03*
X193093300Y-91780600D03*
X190553300Y-94320600D03*
X190553300Y-91780600D03*
X188013300Y-94320600D03*
X188013300Y-91780600D03*
X185473300Y-94320600D03*
X185473300Y-91780600D03*
X182933300Y-94320600D03*
D11*
X182933300Y-91780600D03*
D10*
X121540000Y-73460000D03*
X121540000Y-76000000D03*
X119000000Y-73460000D03*
X119000000Y-76000000D03*
X116460000Y-73460000D03*
X116460000Y-76000000D03*
X113920000Y-73460000D03*
X113920000Y-76000000D03*
X111380000Y-73460000D03*
D11*
X111380000Y-76000000D03*
D12*
X111380000Y-62000000D03*
D13*
X111380000Y-59460000D03*
X113920000Y-62000000D03*
X113920000Y-59460000D03*
X116460000Y-62000000D03*
X116460000Y-59460000D03*
X119000000Y-62000000D03*
X119000000Y-59460000D03*
X121540000Y-62000000D03*
X121540000Y-59460000D03*
X124080000Y-62000000D03*
X124080000Y-59460000D03*
X126620000Y-62000000D03*
X126620000Y-59460000D03*
X129160000Y-62000000D03*
X129160000Y-59460000D03*
X131700000Y-62000000D03*
X131700000Y-59460000D03*
X134240000Y-62000000D03*
X134240000Y-59460000D03*
D14*
X113920000Y-59460000D02*
X112118000Y-57658000D01*
X112118000Y-57658000D02*
X110236000Y-57658000D01*
X110236000Y-57658000D02*
X109347000Y-58547000D01*
X109347000Y-71427000D02*
X111380000Y-73460000D01*
X109347000Y-58547000D02*
X109347000Y-71427000D01*
X113920000Y-59460000D02*
X134240000Y-59460000D01*
X178701900Y-98552000D02*
X182933300Y-94320600D01*
X115824000Y-80264000D02*
X134112000Y-98552000D01*
X111380000Y-73460000D02*
X109928000Y-73460000D01*
X109928000Y-73460000D02*
X108712000Y-74676000D01*
X134112000Y-98552000D02*
X178701900Y-98552000D01*
X108712000Y-74676000D02*
X108712000Y-79248000D01*
X108712000Y-79248000D02*
X109728000Y-80264000D01*
X109728000Y-80264000D02*
X115824000Y-80264000D01*
D15*
X185473300Y-94320600D02*
X184243700Y-93091000D01*
X181864000Y-93091000D02*
X177673000Y-88900000D01*
X177673000Y-88900000D02*
X127635000Y-88900000D01*
X184243700Y-93091000D02*
X181864000Y-93091000D01*
X115189000Y-74729000D02*
X115189000Y-76581000D01*
X113920000Y-73460000D02*
X115189000Y-74729000D01*
X127635000Y-88900000D02*
X115189000Y-76581000D01*
X187163301Y-93470601D02*
X188013300Y-94320600D01*
X187163301Y-92802301D02*
X187163301Y-93470601D01*
X186690000Y-92329000D02*
X187163301Y-92802301D01*
X186182000Y-89281000D02*
X186690000Y-89789000D01*
X186690000Y-89789000D02*
X186690000Y-92329000D01*
X186182000Y-85725000D02*
X186182000Y-89281000D01*
X184594500Y-84137500D02*
X186182000Y-85725000D01*
X180657500Y-84137500D02*
X180530500Y-84137500D01*
X184594500Y-84137500D02*
X180657500Y-84137500D01*
X180530500Y-84137500D02*
X176530000Y-88138000D01*
X129032000Y-88138000D02*
X123952000Y-83058000D01*
X176530000Y-88138000D02*
X129032000Y-88138000D01*
X123952000Y-83058000D02*
X124587000Y-83693000D01*
X123952000Y-83058000D02*
X117729000Y-76835000D01*
X117094000Y-74803000D02*
X117729000Y-75438000D01*
X117729000Y-76835000D02*
X117729000Y-75438000D01*
X117094000Y-74803000D02*
X117094000Y-74485500D01*
X116460000Y-73851500D02*
X116460000Y-73460000D01*
X117094000Y-74485500D02*
X116460000Y-73851500D01*
X119000000Y-76000000D02*
X117729000Y-74729000D01*
X117729000Y-63271000D02*
X119000000Y-62000000D01*
X117729000Y-74729000D02*
X117729000Y-63271000D01*
X119000000Y-64540000D02*
X121540000Y-62000000D01*
X119000000Y-73460000D02*
X119000000Y-64540000D01*
X122682000Y-74739500D02*
X120279500Y-74739500D01*
X132588000Y-84582000D02*
X122682000Y-74739500D01*
X190553300Y-94320600D02*
X191403299Y-93470601D01*
X191008000Y-83566000D02*
X179832000Y-83566000D01*
X191403299Y-93470601D02*
X191403299Y-93457701D01*
X191403299Y-93457701D02*
X191833500Y-93027500D01*
X191833500Y-93027500D02*
X191833500Y-90741500D01*
X120279500Y-74739500D02*
X119000000Y-73460000D01*
X193484500Y-89090500D02*
X193484500Y-86042500D01*
X191833500Y-90741500D02*
X193484500Y-89090500D01*
X179832000Y-83566000D02*
X176022000Y-87376000D01*
X193484500Y-86042500D02*
X191008000Y-83566000D01*
X176022000Y-87376000D02*
X135382000Y-87376000D01*
X135382000Y-87376000D02*
X132588000Y-84582000D01*
X122742081Y-73460000D02*
X121540000Y-73460000D01*
X135134082Y-85852000D02*
X122742081Y-73460000D01*
X179324000Y-83058000D02*
X175768000Y-86614000D01*
X193093300Y-94320600D02*
X195389500Y-92024400D01*
X195389500Y-92024400D02*
X195389500Y-87058500D01*
X195389500Y-87058500D02*
X195262500Y-87058500D01*
X195262500Y-87058500D02*
X191262000Y-83058000D01*
X191262000Y-83058000D02*
X179324000Y-83058000D01*
X135890000Y-86614000D02*
X135128000Y-85852000D01*
X175768000Y-86614000D02*
X135890000Y-86614000D01*
X135128000Y-85852000D02*
X135134082Y-85852000D01*
M02*
